M48
; DRILL file {KiCad (7.0.0-0)} date Sunday, 26 February 2023 at 21:11:11
; FORMAT={-:-/ absolute / inch / decimal}
; #@! TF.CreationDate,2023-02-26T21:11:11+09:00
; #@! TF.GenerationSoftware,Kicad,Pcbnew,(7.0.0-0)
; #@! TF.FileFunction,Plated,1,2,PTH
FMAT,2
INCH
; #@! TA.AperFunction,Plated,PTH,ViaDrill
T1C0.0157
; #@! TA.AperFunction,Plated,PTH,ComponentDrill
T2C0.0295
; #@! TA.AperFunction,Plated,PTH,ComponentDrill
T3C0.0394
; #@! TA.AperFunction,Plated,PTH,ComponentDrill
T4C0.1181
%
G90
G05
T1
X1.5716Y-2.9882
T2
X1.0974Y-1.7972
X1.0974Y-3.315
X1.0994Y-1.0512
X1.1191Y-2.561
X1.3474Y-1.7972
X1.3474Y-3.315
X1.3494Y-1.0512
X1.3691Y-2.561
X1.8368Y-0.6823
X1.8386Y-2.9291
X1.8435Y-2.1709
X1.8571Y-1.4319
X2.0868Y-0.6823
X2.0886Y-2.9291
X2.0935Y-2.1709
X2.1071Y-1.4319
T3
X1.4232Y-2.3232
X1.4287Y-3.0567
X1.6437Y-2.3232
X1.6492Y-3.0567
T4
X1.0358Y-1.5209
X1.0358Y-2.2709
X1.0358Y-3.0209
X1.0358Y-3.7709
X1.0827Y-1.2752
X1.0827Y-2.0252
X1.0827Y-2.7752
X1.0827Y-3.5252
X1.2327Y-1.6075
X1.2327Y-2.3575
X1.2327Y-3.1075
X1.2327Y-3.8575
X1.3327Y-1.1752
X1.3327Y-1.9252
X1.3327Y-2.6752
X1.3327Y-3.4252
X1.7874Y-1.1457
X1.7874Y-1.8957
X1.7874Y-2.6457
X1.7874Y-3.3957
X1.8343Y-0.9
X1.8343Y-1.65
X1.8343Y-2.4
X1.8343Y-3.15
X1.9843Y-1.2323
X1.9843Y-1.9823
X1.9843Y-2.7323
X1.9843Y-3.4823
X2.0843Y-0.8
X2.0843Y-1.55
X2.0843Y-2.3
X2.0843Y-3.05
T0
M30
