%TF.GenerationSoftware,KiCad,Pcbnew,(7.0.0-0)*%
%TF.CreationDate,2023-02-26T21:11:16+09:00*%
%TF.ProjectId,pangaea-pcb-pinkey-k2-0.5ushift,70616e67-6165-4612-9d70-63622d70696e,rev?*%
%TF.SameCoordinates,Original*%
%TF.FileFunction,Copper,L2,Bot*%
%TF.FilePolarity,Positive*%
%FSLAX46Y46*%
G04 Gerber Fmt 4.6, Leading zero omitted, Abs format (unit mm)*
G04 Created by KiCad (PCBNEW (7.0.0-0)) date 2023-02-26 21:11:16*
%MOMM*%
%LPD*%
G01*
G04 APERTURE LIST*
G04 Aperture macros list*
%AMRoundRect*
0 Rectangle with rounded corners*
0 $1 Rounding radius*
0 $2 $3 $4 $5 $6 $7 $8 $9 X,Y pos of 4 corners*
0 Add a 4 corners polygon primitive as box body*
4,1,4,$2,$3,$4,$5,$6,$7,$8,$9,$2,$3,0*
0 Add four circle primitives for the rounded corners*
1,1,$1+$1,$2,$3*
1,1,$1+$1,$4,$5*
1,1,$1+$1,$6,$7*
1,1,$1+$1,$8,$9*
0 Add four rect primitives between the rounded corners*
20,1,$1+$1,$2,$3,$4,$5,0*
20,1,$1+$1,$4,$5,$6,$7,0*
20,1,$1+$1,$6,$7,$8,$9,0*
20,1,$1+$1,$8,$9,$2,$3,0*%
G04 Aperture macros list end*
%TA.AperFunction,ComponentPad*%
%ADD10R,1.200000X1.200000*%
%TD*%
%TA.AperFunction,SMDPad,CuDef*%
%ADD11R,1.200000X1.200000*%
%TD*%
%TA.AperFunction,ComponentPad*%
%ADD12C,1.200000*%
%TD*%
%TA.AperFunction,SMDPad,CuDef*%
%ADD13RoundRect,0.150000X-0.150000X-0.650000X0.150000X-0.650000X0.150000X0.650000X-0.150000X0.650000X0*%
%TD*%
%TA.AperFunction,ComponentPad*%
%ADD14RoundRect,0.249600X-0.350400X-0.850400X0.350400X-0.850400X0.350400X0.850400X-0.350400X0.850400X0*%
%TD*%
%TA.AperFunction,SMDPad,CuDef*%
%ADD15R,2.200000X2.000000*%
%TD*%
%TA.AperFunction,ComponentPad*%
%ADD16C,3.800000*%
%TD*%
%TA.AperFunction,ViaPad*%
%ADD17C,0.800000*%
%TD*%
%TA.AperFunction,Conductor*%
%ADD18C,0.250000*%
%TD*%
G04 APERTURE END LIST*
D10*
%TO.P,D18,1,K*%
%TO.N,PY5*%
X53519999Y-36369999D03*
D11*
X52069999Y-36369999D03*
%TO.P,D18,2,A*%
%TO.N,Net-(D18-A)*%
X48619999Y-36369999D03*
D12*
X47170000Y-36370000D03*
%TD*%
D13*
%TO.P,J9,1,Pin_1*%
%TO.N,PX1*%
X37450000Y-55710000D03*
%TO.P,J9,2,Pin_2*%
%TO.N,PX2*%
X38450000Y-55710000D03*
%TO.P,J9,3,Pin_3*%
%TO.N,PY4*%
X39450000Y-55710000D03*
%TO.P,J9,4,Pin_4*%
%TO.N,PY5*%
X40450000Y-55710000D03*
D14*
%TO.P,J9,MP*%
%TO.N,N/C*%
X36150000Y-59010000D03*
X41750000Y-59010000D03*
%TD*%
D15*
%TO.P,SW38,1,1*%
%TO.N,PX2*%
X42199999Y-86249999D03*
X43399999Y-80009999D03*
D16*
X45400000Y-86250000D03*
X46590000Y-80010000D03*
%TO.P,SW38,2,2*%
%TO.N,Net-(D38-K)*%
X50400000Y-88450000D03*
X52940000Y-77470000D03*
D15*
X53599999Y-88439999D03*
X56099999Y-77469999D03*
%TD*%
%TO.P,SW17,1,1*%
%TO.N,PX1*%
X23109999Y-57679999D03*
X24309999Y-51439999D03*
D16*
X26310000Y-57680000D03*
X27500000Y-51440000D03*
%TO.P,SW17,2,2*%
%TO.N,Net-(D17-A)*%
X31310000Y-59880000D03*
X33850000Y-48900000D03*
D15*
X34509999Y-59869999D03*
X37009999Y-48899999D03*
%TD*%
D10*
%TO.P,D38,1,K*%
%TO.N,Net-(D38-K)*%
X53049999Y-74399999D03*
D11*
X51599999Y-74399999D03*
%TO.P,D38,2,A*%
%TO.N,PY5*%
X48149999Y-74399999D03*
D12*
X46700000Y-74400000D03*
%TD*%
D15*
%TO.P,SW13,1,1*%
%TO.N,PX1*%
X23109999Y-38629999D03*
X24309999Y-32389999D03*
D16*
X26310000Y-38630000D03*
X27500000Y-32390000D03*
%TO.P,SW13,2,2*%
%TO.N,Net-(D13-A)*%
X31310000Y-40830000D03*
X33850000Y-29850000D03*
D15*
X34509999Y-40819999D03*
X37009999Y-29849999D03*
%TD*%
D10*
%TO.P,D13,1,K*%
%TO.N,PY4*%
X34274999Y-26699999D03*
D11*
X32824999Y-26699999D03*
%TO.P,D13,2,A*%
%TO.N,Net-(D13-A)*%
X29374999Y-26699999D03*
D12*
X27925000Y-26700000D03*
%TD*%
D10*
%TO.P,D34,1,K*%
%TO.N,Net-(D34-K)*%
X53174999Y-55139999D03*
D11*
X51724999Y-55139999D03*
%TO.P,D34,2,A*%
%TO.N,PY4*%
X48274999Y-55139999D03*
D12*
X46825000Y-55140000D03*
%TD*%
D15*
%TO.P,SW18,1,1*%
%TO.N,PX2*%
X42199999Y-48149999D03*
X43399999Y-41909999D03*
D16*
X45400000Y-48150000D03*
X46590000Y-41910000D03*
%TO.P,SW18,2,2*%
%TO.N,Net-(D18-A)*%
X50400000Y-50350000D03*
X52940000Y-39370000D03*
D15*
X53599999Y-50339999D03*
X56099999Y-39369999D03*
%TD*%
D10*
%TO.P,D33,1,K*%
%TO.N,Net-(D33-K)*%
X34774999Y-65049999D03*
D11*
X33324999Y-65049999D03*
%TO.P,D33,2,A*%
%TO.N,PY4*%
X29874999Y-65049999D03*
D12*
X28425000Y-65050000D03*
%TD*%
D15*
%TO.P,SW34,1,1*%
%TO.N,PX2*%
X42199999Y-67199999D03*
X43399999Y-60959999D03*
D16*
X45400000Y-67200000D03*
X46590000Y-60960000D03*
%TO.P,SW34,2,2*%
%TO.N,Net-(D34-K)*%
X50400000Y-69400000D03*
X52940000Y-58420000D03*
D15*
X53599999Y-69389999D03*
X56099999Y-58419999D03*
%TD*%
%TO.P,SW33,2,2*%
%TO.N,Net-(D33-K)*%
X37009999Y-67949999D03*
X34509999Y-78919999D03*
D16*
X33850000Y-67950000D03*
X31310000Y-78930000D03*
%TO.P,SW33,1,1*%
%TO.N,PX1*%
X27500000Y-70490000D03*
X26310000Y-76730000D03*
D15*
X24309999Y-70489999D03*
X23109999Y-76729999D03*
%TD*%
D10*
%TO.P,D17,1,K*%
%TO.N,PY5*%
X34224999Y-45649999D03*
D11*
X32774999Y-45649999D03*
%TO.P,D17,2,A*%
%TO.N,Net-(D17-A)*%
X29324999Y-45649999D03*
D12*
X27875000Y-45650000D03*
%TD*%
D10*
%TO.P,D37,1,K*%
%TO.N,Net-(D37-K)*%
X34224999Y-84199999D03*
D11*
X32774999Y-84199999D03*
%TO.P,D37,2,A*%
%TO.N,PY5*%
X29324999Y-84199999D03*
D12*
X27875000Y-84200000D03*
%TD*%
D10*
%TO.P,D14,1,K*%
%TO.N,PY4*%
X53004999Y-17329999D03*
D11*
X51554999Y-17329999D03*
%TO.P,D14,2,A*%
%TO.N,Net-(D14-A)*%
X48104999Y-17329999D03*
D12*
X46655000Y-17330000D03*
%TD*%
D15*
%TO.P,SW37,1,1*%
%TO.N,PX1*%
X23109999Y-95779999D03*
X24309999Y-89539999D03*
D16*
X26310000Y-95780000D03*
X27500000Y-89540000D03*
%TO.P,SW37,2,2*%
%TO.N,Net-(D37-K)*%
X31310000Y-97980000D03*
X33850000Y-87000000D03*
D15*
X34509999Y-97969999D03*
X37009999Y-86999999D03*
%TD*%
%TO.P,SW14,1,1*%
%TO.N,PX2*%
X42199999Y-29099999D03*
X43399999Y-22859999D03*
D16*
X45400000Y-29100000D03*
X46590000Y-22860000D03*
%TO.P,SW14,2,2*%
%TO.N,Net-(D14-A)*%
X50400000Y-31300000D03*
X52940000Y-20320000D03*
D15*
X53599999Y-31289999D03*
X56099999Y-20319999D03*
%TD*%
D13*
%TO.P,J8,1,Pin_1*%
%TO.N,PX1*%
X37590000Y-74340000D03*
%TO.P,J8,2,Pin_2*%
%TO.N,PX2*%
X38590000Y-74340000D03*
%TO.P,J8,3,Pin_3*%
%TO.N,PY4*%
X39590000Y-74340000D03*
%TO.P,J8,4,Pin_4*%
%TO.N,PY5*%
X40590000Y-74340000D03*
D14*
%TO.P,J8,MP*%
%TO.N,N/C*%
X36290000Y-77640000D03*
X41890000Y-77640000D03*
%TD*%
D17*
%TO.N,PX2*%
X39917600Y-75901100D03*
%TD*%
D18*
%TO.N,PX2*%
X38450000Y-52025000D02*
X38450000Y-55710000D01*
X42241700Y-48233300D02*
X38450000Y-52025000D01*
X39649800Y-75901100D02*
X39917600Y-75901100D01*
X38590000Y-74841300D02*
X39649800Y-75901100D01*
X38590000Y-74340000D02*
X38590000Y-74841300D01*
%TO.N,PX1*%
X37590000Y-78402400D02*
X37590000Y-74340000D01*
X34787700Y-81204700D02*
X37590000Y-78402400D01*
X30335900Y-81204700D02*
X34787700Y-81204700D01*
X26310000Y-77178800D02*
X30335900Y-81204700D01*
X26310000Y-58098200D02*
X26310000Y-57680000D01*
X30322400Y-62110600D02*
X26310000Y-58098200D01*
X35116200Y-62110600D02*
X30322400Y-62110600D01*
X37450000Y-59776800D02*
X35116200Y-62110600D01*
X37450000Y-55710000D02*
X37450000Y-59776800D01*
%TO.N,PY5*%
X34225000Y-45650000D02*
X35150100Y-45650000D01*
X37675900Y-83274900D02*
X40130000Y-80820800D01*
X31175200Y-83274900D02*
X37675900Y-83274900D01*
X30250100Y-84200000D02*
X31175200Y-83274900D01*
X29325000Y-84200000D02*
X30250100Y-84200000D01*
X51373600Y-35420500D02*
X51833400Y-35880300D01*
X45379600Y-35420500D02*
X51373600Y-35420500D01*
X35150100Y-45650000D02*
X45379600Y-35420500D01*
X53520000Y-36370000D02*
X54445100Y-36370000D01*
X55939300Y-37864200D02*
X54445100Y-36370000D01*
X57167400Y-37864200D02*
X55939300Y-37864200D01*
X57525200Y-38222000D02*
X57167400Y-37864200D01*
X57525200Y-49052200D02*
X57525200Y-38222000D01*
X52553200Y-54024200D02*
X57525200Y-49052200D01*
X51069900Y-54024200D02*
X52553200Y-54024200D01*
X49008100Y-56086000D02*
X51069900Y-54024200D01*
X40590000Y-56086000D02*
X49008100Y-56086000D01*
X40590000Y-74340000D02*
X40590000Y-56086000D01*
X40590000Y-55850000D02*
X40450000Y-55710000D01*
X40590000Y-56086000D02*
X40590000Y-55850000D01*
X40650000Y-79802500D02*
X40650000Y-74400000D01*
X40130000Y-80322500D02*
X40650000Y-79802500D01*
X46052500Y-74400000D02*
X40650000Y-74400000D01*
X40650000Y-74400000D02*
X40590000Y-74340000D01*
%TO.N,Net-(D14-A)*%
X52940000Y-20320000D02*
X53145000Y-20525000D01*
%TO.N,PY4*%
X53005000Y-17330000D02*
X53005000Y-16404900D01*
X39628200Y-26700000D02*
X34275000Y-26700000D01*
X41438300Y-24889900D02*
X39628200Y-26700000D01*
X41438300Y-21183700D02*
X41438300Y-24889900D01*
X46217100Y-16404900D02*
X41438300Y-21183700D01*
X53005000Y-16404900D02*
X46217100Y-16404900D01*
X29875000Y-65050000D02*
X30800100Y-65050000D01*
X39450000Y-55166100D02*
X39450000Y-55710000D01*
X40074800Y-54541300D02*
X39450000Y-55166100D01*
X45973100Y-54541300D02*
X40074800Y-54541300D01*
X46571800Y-55140000D02*
X45973100Y-54541300D01*
X39450000Y-60448900D02*
X35774000Y-64124900D01*
X39450000Y-55710000D02*
X39450000Y-60448900D01*
X39590000Y-67940900D02*
X35774000Y-64124900D01*
X39590000Y-74340000D02*
X39590000Y-67940900D01*
X31725200Y-64124900D02*
X30800100Y-65050000D01*
X35774000Y-64124900D02*
X31725200Y-64124900D01*
%TO.N,Net-(D14-A)*%
X49645000Y-20320000D02*
X46655000Y-17330000D01*
%TO.N,PY4*%
X32825000Y-26700000D02*
X34275000Y-26700000D01*
X48275000Y-55140000D02*
X46825000Y-55140000D01*
X46825000Y-55140000D02*
X46571800Y-55140000D01*
X29875000Y-65050000D02*
X28425000Y-65050000D01*
X51555000Y-17330000D02*
X53005000Y-17330000D01*
%TO.N,Net-(D13-A)*%
X36898173Y-30055000D02*
X37056587Y-29896586D01*
X27925000Y-26700000D02*
X29375000Y-26700000D01*
X33850000Y-29850000D02*
X34510000Y-30510000D01*
X34510000Y-30510000D02*
X34510000Y-40820000D01*
X34510000Y-40820000D02*
X31320000Y-40820000D01*
X34055000Y-30055000D02*
X36898173Y-30055000D01*
X31320000Y-40820000D02*
X31310000Y-40830000D01*
X33850000Y-29850000D02*
X31075000Y-29850000D01*
X31075000Y-29850000D02*
X27925000Y-26700000D01*
%TO.N,Net-(D14-A)*%
X46655000Y-17330000D02*
X48105000Y-17330000D01*
X53600000Y-31290000D02*
X53600000Y-20980000D01*
X52940000Y-20320000D02*
X49645000Y-20320000D01*
X53145000Y-20525000D02*
X55988173Y-20525000D01*
X50400000Y-31300000D02*
X53590000Y-31300000D01*
X53590000Y-31300000D02*
X53600000Y-31290000D01*
X55988173Y-20525000D02*
X56146587Y-20366586D01*
X53600000Y-20980000D02*
X52940000Y-20320000D01*
X52940000Y-20320000D02*
X53145000Y-20525000D01*
%TO.N,PY5*%
X34225000Y-45650000D02*
X32775000Y-45650000D01*
X29325000Y-84200000D02*
X27875000Y-84200000D01*
X48150000Y-74400000D02*
X46700000Y-74400000D01*
X52070000Y-36370000D02*
X53520000Y-36370000D01*
X51833400Y-35880300D02*
X52323100Y-36370000D01*
X40130000Y-80820800D02*
X40130000Y-80322500D01*
X46052500Y-74400000D02*
X46700000Y-74400000D01*
%TO.N,Net-(D17-A)*%
X34510000Y-49630000D02*
X34510000Y-59940000D01*
X33850000Y-48970000D02*
X34055000Y-49175000D01*
X27875000Y-45650000D02*
X31195000Y-48970000D01*
X31370000Y-59940000D02*
X31310000Y-59880000D01*
X27875000Y-45650000D02*
X29325000Y-45650000D01*
X36898173Y-49175000D02*
X37056587Y-49016586D01*
X33850000Y-48970000D02*
X34510000Y-49630000D01*
X31195000Y-48970000D02*
X33850000Y-48970000D01*
X34055000Y-49175000D02*
X36898173Y-49175000D01*
X34510000Y-59940000D02*
X31320000Y-59940000D01*
X33850000Y-48970000D02*
X33850000Y-48900000D01*
%TO.N,Net-(D18-A)*%
X55988173Y-39658300D02*
X56146587Y-39499886D01*
X50483300Y-50433300D02*
X50400000Y-50350000D01*
X52940000Y-39453300D02*
X52940000Y-39370000D01*
X50253300Y-39453300D02*
X52940000Y-39453300D01*
X53590000Y-50433300D02*
X53600000Y-50423300D01*
X50400000Y-50433300D02*
X53590000Y-50433300D01*
X48620000Y-36370000D02*
X47170000Y-36370000D01*
X47170000Y-36370000D02*
X50253300Y-39453300D01*
X53600000Y-50423300D02*
X53600000Y-40113300D01*
X53145000Y-39658300D02*
X55988173Y-39658300D01*
X53600000Y-40113300D02*
X52940000Y-39453300D01*
%TO.N,Net-(D33-K)*%
X34775000Y-65050000D02*
X33325000Y-65050000D01*
X36898173Y-68375000D02*
X37056587Y-68216586D01*
X34775000Y-65050000D02*
X34775000Y-67245000D01*
X34092500Y-67707500D02*
X33850000Y-67950000D01*
X33850000Y-68170000D02*
X34510000Y-68830000D01*
X34312500Y-67707500D02*
X34092500Y-67707500D01*
X34510000Y-68830000D02*
X34510000Y-79140000D01*
X34775000Y-67245000D02*
X33850000Y-68170000D01*
X34510000Y-79140000D02*
X31320000Y-79140000D01*
X34055000Y-68375000D02*
X36898173Y-68375000D01*
X31520000Y-79140000D02*
X31310000Y-78930000D01*
%TO.N,Net-(D34-K)*%
X52940000Y-58586700D02*
X53600000Y-59246700D01*
X52940000Y-58586700D02*
X53145000Y-58791700D01*
X52989200Y-58469200D02*
X52940000Y-58420000D01*
X53145000Y-58791700D02*
X55988173Y-58791700D01*
X55988173Y-58791700D02*
X56146587Y-58633286D01*
X53600000Y-69556700D02*
X50410000Y-69556700D01*
X51725000Y-55140000D02*
X53175000Y-55140000D01*
X53175000Y-55140000D02*
X53175000Y-58351700D01*
X53175000Y-58351700D02*
X52940000Y-58586700D01*
X53600000Y-59246700D02*
X53600000Y-69556700D01*
X53057500Y-58469200D02*
X52989200Y-58469200D01*
X50556700Y-69556700D02*
X50400000Y-69400000D01*
%TO.N,Net-(D37-K)*%
X34225000Y-84200000D02*
X34225000Y-87025000D01*
X32775000Y-84200000D02*
X34225000Y-84200000D01*
X36898173Y-87605000D02*
X37056587Y-87446586D01*
X34225000Y-87025000D02*
X33850000Y-87400000D01*
X34037500Y-87212500D02*
X33850000Y-87025000D01*
X34510000Y-98370000D02*
X31320000Y-98370000D01*
X31700000Y-98370000D02*
X31310000Y-97980000D01*
X34055000Y-87605000D02*
X36898173Y-87605000D01*
X34510000Y-88060000D02*
X34510000Y-98370000D01*
X33850000Y-87025000D02*
X33850000Y-87000000D01*
X33850000Y-87400000D02*
X34510000Y-88060000D01*
%TO.N,Net-(D38-K)*%
X51600000Y-74400000D02*
X53050000Y-74400000D01*
X53050000Y-74400000D02*
X53050000Y-77610000D01*
X52940000Y-76115000D02*
X52940000Y-77470000D01*
X53590000Y-88700000D02*
X53600000Y-88690000D01*
X50650000Y-88700000D02*
X50400000Y-88450000D01*
X52940000Y-77720000D02*
X53145000Y-77925000D01*
X53600000Y-78380000D02*
X52940000Y-77720000D01*
X50400000Y-88700000D02*
X53590000Y-88700000D01*
X55988173Y-77925000D02*
X56146587Y-77766586D01*
X53050000Y-76005000D02*
X52940000Y-76115000D01*
X53600000Y-88690000D02*
X53600000Y-78380000D01*
X53145000Y-77925000D02*
X55988173Y-77925000D01*
X53050000Y-77610000D02*
X52940000Y-77720000D01*
%TO.N,PX1*%
X26905000Y-95585000D02*
X26505000Y-95585000D01*
X24310000Y-51510000D02*
X27500000Y-51510000D01*
X26835000Y-57155000D02*
X26310000Y-57680000D01*
X27500000Y-75760000D02*
X26310000Y-76950000D01*
X27430000Y-51510000D02*
X27500000Y-51440000D01*
X27500000Y-89940000D02*
X24310000Y-89940000D01*
X24310000Y-70710000D02*
X27500000Y-70710000D01*
X26310000Y-57750000D02*
X23110000Y-57750000D01*
X24530000Y-70710000D02*
X24310000Y-70490000D01*
X24310000Y-51440000D02*
X24310000Y-51510000D01*
X24310000Y-32390000D02*
X27500000Y-32390000D01*
X27500000Y-94990000D02*
X27500000Y-89940000D01*
X27500000Y-70490000D02*
X27500000Y-70710000D01*
X27500000Y-89540000D02*
X26938800Y-88978800D01*
X27500000Y-32390000D02*
X27500000Y-37440000D01*
X27500000Y-56560000D02*
X26310000Y-57750000D01*
X27500000Y-37440000D02*
X26310000Y-38630000D01*
X27500000Y-51510000D02*
X27500000Y-56560000D01*
X23110000Y-57680000D02*
X23110000Y-57750000D01*
X26505000Y-95585000D02*
X26310000Y-95780000D01*
X26685000Y-76355000D02*
X26310000Y-76730000D01*
X27500000Y-70710000D02*
X27500000Y-75760000D01*
X26310000Y-77407600D02*
X26310000Y-76730000D01*
X23330000Y-76950000D02*
X23110000Y-76730000D01*
X26905000Y-57155000D02*
X26835000Y-57155000D01*
X26938800Y-88978800D02*
X26938800Y-83823600D01*
X26310000Y-76950000D02*
X23110000Y-76950000D01*
X26905000Y-76355000D02*
X26685000Y-76355000D01*
X23110000Y-96180000D02*
X26310000Y-96180000D01*
X27500000Y-89940000D02*
X27500000Y-89540000D01*
X23110000Y-38630000D02*
X26310000Y-38630000D01*
X26310000Y-96180000D02*
X27500000Y-94990000D01*
X23510000Y-96180000D02*
X23110000Y-95780000D01*
X24710000Y-89940000D02*
X24310000Y-89540000D01*
%TO.N,PX2*%
X42283300Y-48233300D02*
X42200000Y-48150000D01*
X43566700Y-61126700D02*
X43400000Y-60960000D01*
X45911700Y-47638300D02*
X45400000Y-48150000D01*
X43483300Y-41993300D02*
X43400000Y-41910000D01*
X46590000Y-22860000D02*
X46590000Y-27910000D01*
X43400000Y-80260000D02*
X46590000Y-80260000D01*
X46590000Y-41993300D02*
X46590000Y-47043300D01*
X45828300Y-66771700D02*
X45400000Y-67200000D01*
X45400000Y-48233300D02*
X42200000Y-48233300D01*
X46590000Y-80010000D02*
X46590000Y-80260000D01*
X46590000Y-61126700D02*
X46590000Y-66176700D01*
X45400000Y-67366700D02*
X42200000Y-67366700D01*
X45995000Y-85905000D02*
X45745000Y-85905000D01*
X42200000Y-86500000D02*
X45400000Y-86500000D01*
X43400000Y-61126700D02*
X46590000Y-61126700D01*
X42366700Y-67366700D02*
X42200000Y-67200000D01*
X46590000Y-47043300D02*
X45400000Y-48233300D01*
X45995000Y-47638300D02*
X45911700Y-47638300D01*
X46590000Y-41910000D02*
X46590000Y-41993300D01*
X46590000Y-27910000D02*
X45400000Y-29100000D01*
X45400000Y-86500000D02*
X46590000Y-85310000D01*
X43400000Y-22860000D02*
X46590000Y-22860000D01*
X46590000Y-60960000D02*
X46590000Y-61126700D01*
X42200000Y-29100000D02*
X45400000Y-29100000D01*
X43400000Y-41993300D02*
X46590000Y-41993300D01*
X45745000Y-85905000D02*
X45400000Y-86250000D01*
X42450000Y-86500000D02*
X42200000Y-86250000D01*
X46590000Y-85310000D02*
X46590000Y-80260000D01*
X43650000Y-80260000D02*
X43400000Y-80010000D01*
X45995000Y-66771700D02*
X45828300Y-66771700D01*
X46590000Y-66176700D02*
X45400000Y-67366700D01*
%TD*%
M02*
