M48
; DRILL file {KiCad (7.0.0-0)} date Sunday, 26 February 2023 at 21:11:11
; FORMAT={-:-/ absolute / inch / decimal}
; #@! TF.CreationDate,2023-02-26T21:11:11+09:00
; #@! TF.GenerationSoftware,Kicad,Pcbnew,(7.0.0-0)
; #@! TF.FileFunction,NonPlated,1,2,NPTH
FMAT,2
INCH
; #@! TA.AperFunction,NonPlated,NPTH,ComponentDrill
T1C0.0197
; #@! TA.AperFunction,NonPlated,NPTH,ComponentDrill
T2C0.0661
; #@! TA.AperFunction,NonPlated,NPTH,ComponentDrill
T3C0.0669
; #@! TA.AperFunction,NonPlated,NPTH,ComponentDrill
T4C0.1654
; #@! TA.AperFunction,NonPlated,NPTH,ComponentDrill
T5C0.1929
%
G90
G05
T2
X1.0161Y-1.3752
X1.0161Y-2.1252
X1.0161Y-2.8752
X1.0161Y-3.6252
X1.4492Y-1.3752
X1.4492Y-2.1252
X1.4492Y-2.8752
X1.4492Y-3.6252
X1.7677Y-1.0
X1.7677Y-1.75
X1.7677Y-2.5
X1.7677Y-3.25
X2.2008Y-1.0
X2.2008Y-1.75
X2.2008Y-2.5
X2.2008Y-3.25
T3
X1.0327Y-1.3752
X1.0327Y-2.1252
X1.0327Y-2.8752
X1.0327Y-3.6252
X1.4327Y-1.3752
X1.4327Y-2.1252
X1.4327Y-2.8752
X1.4327Y-3.6252
X1.7843Y-1.0
X1.7843Y-1.75
X1.7843Y-2.5
X1.7843Y-3.25
X2.1843Y-1.0
X2.1843Y-1.75
X2.1843Y-2.5
X2.1843Y-3.25
T5
X1.2327Y-1.3752
X1.2327Y-2.1252
X1.2327Y-2.8752
X1.2327Y-3.6252
X1.9843Y-1.0
X1.9843Y-1.75
X1.9843Y-2.5
X1.9843Y-3.25
T1
G00X1.4433Y-1.1606
M15
G01X1.4157Y-1.1606
M16
G05
G00X1.4433Y-1.9106
M15
G01X1.4157Y-1.9106
M16
G05
G00X1.4433Y-2.6606
M15
G01X1.4157Y-2.6606
M16
G05
G00X1.4433Y-3.4106
M15
G01X1.4157Y-3.4106
M16
G05
G00X2.1949Y-0.7854
M15
G01X2.1673Y-0.7854
M16
G05
G00X2.1949Y-1.5354
M15
G01X2.1673Y-1.5354
M16
G05
G00X2.1949Y-2.2854
M15
G01X2.1673Y-2.2854
M16
G05
G00X2.1949Y-3.0354
M15
G01X2.1673Y-3.0354
M16
G05
T4
G00X0.9142Y-1.75
M15
G01X0.985Y-1.75
M16
G05
G00X0.9142Y-3.25
M15
G01X0.985Y-3.25
M16
G05
G00X2.2315Y-1.3756
M15
G01X2.3024Y-1.3756
M16
G05
G00X2.2323Y-2.8744
M15
G01X2.3031Y-2.8744
M16
G05
T0
M30
