%TF.GenerationSoftware,KiCad,Pcbnew,(7.0.0-0)*%
%TF.CreationDate,2023-02-26T21:11:16+09:00*%
%TF.ProjectId,pangaea-pcb-pinkey-k2-0.5ushift,70616e67-6165-4612-9d70-63622d70696e,rev?*%
%TF.SameCoordinates,Original*%
%TF.FileFunction,Legend,Top*%
%TF.FilePolarity,Positive*%
%FSLAX46Y46*%
G04 Gerber Fmt 4.6, Leading zero omitted, Abs format (unit mm)*
G04 Created by KiCad (PCBNEW (7.0.0-0)) date 2023-02-26 21:11:16*
%MOMM*%
%LPD*%
G01*
G04 APERTURE LIST*
%ADD10C,0.300000*%
%ADD11C,0.500000*%
%ADD12C,0.250000*%
%ADD13C,0.150000*%
%ADD14C,0.162500*%
G04 APERTURE END LIST*
D10*
X53758571Y-23971714D02*
X53930000Y-24028857D01*
X53930000Y-24028857D02*
X54215714Y-24028857D01*
X54215714Y-24028857D02*
X54330000Y-23971714D01*
X54330000Y-23971714D02*
X54387142Y-23914571D01*
X54387142Y-23914571D02*
X54444285Y-23800285D01*
X54444285Y-23800285D02*
X54444285Y-23686000D01*
X54444285Y-23686000D02*
X54387142Y-23571714D01*
X54387142Y-23571714D02*
X54330000Y-23514571D01*
X54330000Y-23514571D02*
X54215714Y-23457428D01*
X54215714Y-23457428D02*
X53987142Y-23400285D01*
X53987142Y-23400285D02*
X53872857Y-23343142D01*
X53872857Y-23343142D02*
X53815714Y-23286000D01*
X53815714Y-23286000D02*
X53758571Y-23171714D01*
X53758571Y-23171714D02*
X53758571Y-23057428D01*
X53758571Y-23057428D02*
X53815714Y-22943142D01*
X53815714Y-22943142D02*
X53872857Y-22886000D01*
X53872857Y-22886000D02*
X53987142Y-22828857D01*
X53987142Y-22828857D02*
X54272857Y-22828857D01*
X54272857Y-22828857D02*
X54444285Y-22886000D01*
X54844285Y-22828857D02*
X55129999Y-24028857D01*
X55129999Y-24028857D02*
X55358571Y-23171714D01*
X55358571Y-23171714D02*
X55587142Y-24028857D01*
X55587142Y-24028857D02*
X55872857Y-22828857D01*
X56958571Y-24028857D02*
X56272857Y-24028857D01*
X56615714Y-24028857D02*
X56615714Y-22828857D01*
X56615714Y-22828857D02*
X56501428Y-23000285D01*
X56501428Y-23000285D02*
X56387143Y-23114571D01*
X56387143Y-23114571D02*
X56272857Y-23171714D01*
X57987143Y-23228857D02*
X57987143Y-24028857D01*
X57701428Y-22771714D02*
X57415714Y-23628857D01*
X57415714Y-23628857D02*
X58158571Y-23628857D01*
D11*
X64280952Y-46309523D02*
X64566666Y-46404761D01*
X64566666Y-46404761D02*
X65042857Y-46404761D01*
X65042857Y-46404761D02*
X65233333Y-46309523D01*
X65233333Y-46309523D02*
X65328571Y-46214285D01*
X65328571Y-46214285D02*
X65423809Y-46023809D01*
X65423809Y-46023809D02*
X65423809Y-45833333D01*
X65423809Y-45833333D02*
X65328571Y-45642857D01*
X65328571Y-45642857D02*
X65233333Y-45547619D01*
X65233333Y-45547619D02*
X65042857Y-45452380D01*
X65042857Y-45452380D02*
X64661904Y-45357142D01*
X64661904Y-45357142D02*
X64471428Y-45261904D01*
X64471428Y-45261904D02*
X64376190Y-45166666D01*
X64376190Y-45166666D02*
X64280952Y-44976190D01*
X64280952Y-44976190D02*
X64280952Y-44785714D01*
X64280952Y-44785714D02*
X64376190Y-44595238D01*
X64376190Y-44595238D02*
X64471428Y-44500000D01*
X64471428Y-44500000D02*
X64661904Y-44404761D01*
X64661904Y-44404761D02*
X65138095Y-44404761D01*
X65138095Y-44404761D02*
X65423809Y-44500000D01*
X66090476Y-44404761D02*
X66566666Y-46404761D01*
X66566666Y-46404761D02*
X66947619Y-44976190D01*
X66947619Y-44976190D02*
X67328571Y-46404761D01*
X67328571Y-46404761D02*
X67804762Y-44404761D01*
X69614285Y-46404761D02*
X68471428Y-46404761D01*
X69042856Y-46404761D02*
X69042856Y-44404761D01*
X69042856Y-44404761D02*
X68852380Y-44690476D01*
X68852380Y-44690476D02*
X68661904Y-44880952D01*
X68661904Y-44880952D02*
X68471428Y-44976190D01*
X70280952Y-44404761D02*
X71519047Y-44404761D01*
X71519047Y-44404761D02*
X70852380Y-45166666D01*
X70852380Y-45166666D02*
X71138095Y-45166666D01*
X71138095Y-45166666D02*
X71328571Y-45261904D01*
X71328571Y-45261904D02*
X71423809Y-45357142D01*
X71423809Y-45357142D02*
X71519047Y-45547619D01*
X71519047Y-45547619D02*
X71519047Y-46023809D01*
X71519047Y-46023809D02*
X71423809Y-46214285D01*
X71423809Y-46214285D02*
X71328571Y-46309523D01*
X71328571Y-46309523D02*
X71138095Y-46404761D01*
X71138095Y-46404761D02*
X70566666Y-46404761D01*
X70566666Y-46404761D02*
X70376190Y-46309523D01*
X70376190Y-46309523D02*
X70280952Y-46214285D01*
X73480952Y-46309523D02*
X73766666Y-46404761D01*
X73766666Y-46404761D02*
X74242857Y-46404761D01*
X74242857Y-46404761D02*
X74433333Y-46309523D01*
X74433333Y-46309523D02*
X74528571Y-46214285D01*
X74528571Y-46214285D02*
X74623809Y-46023809D01*
X74623809Y-46023809D02*
X74623809Y-45833333D01*
X74623809Y-45833333D02*
X74528571Y-45642857D01*
X74528571Y-45642857D02*
X74433333Y-45547619D01*
X74433333Y-45547619D02*
X74242857Y-45452380D01*
X74242857Y-45452380D02*
X73861904Y-45357142D01*
X73861904Y-45357142D02*
X73671428Y-45261904D01*
X73671428Y-45261904D02*
X73576190Y-45166666D01*
X73576190Y-45166666D02*
X73480952Y-44976190D01*
X73480952Y-44976190D02*
X73480952Y-44785714D01*
X73480952Y-44785714D02*
X73576190Y-44595238D01*
X73576190Y-44595238D02*
X73671428Y-44500000D01*
X73671428Y-44500000D02*
X73861904Y-44404761D01*
X73861904Y-44404761D02*
X74338095Y-44404761D01*
X74338095Y-44404761D02*
X74623809Y-44500000D01*
X75290476Y-44404761D02*
X75766666Y-46404761D01*
X75766666Y-46404761D02*
X76147619Y-44976190D01*
X76147619Y-44976190D02*
X76528571Y-46404761D01*
X76528571Y-46404761D02*
X77004762Y-44404761D01*
X78814285Y-46404761D02*
X77671428Y-46404761D01*
X78242856Y-46404761D02*
X78242856Y-44404761D01*
X78242856Y-44404761D02*
X78052380Y-44690476D01*
X78052380Y-44690476D02*
X77861904Y-44880952D01*
X77861904Y-44880952D02*
X77671428Y-44976190D01*
X80528571Y-45071428D02*
X80528571Y-46404761D01*
X80052380Y-44309523D02*
X79576190Y-45738095D01*
X79576190Y-45738095D02*
X80814285Y-45738095D01*
X64280952Y-49549523D02*
X64566666Y-49644761D01*
X64566666Y-49644761D02*
X65042857Y-49644761D01*
X65042857Y-49644761D02*
X65233333Y-49549523D01*
X65233333Y-49549523D02*
X65328571Y-49454285D01*
X65328571Y-49454285D02*
X65423809Y-49263809D01*
X65423809Y-49263809D02*
X65423809Y-49073333D01*
X65423809Y-49073333D02*
X65328571Y-48882857D01*
X65328571Y-48882857D02*
X65233333Y-48787619D01*
X65233333Y-48787619D02*
X65042857Y-48692380D01*
X65042857Y-48692380D02*
X64661904Y-48597142D01*
X64661904Y-48597142D02*
X64471428Y-48501904D01*
X64471428Y-48501904D02*
X64376190Y-48406666D01*
X64376190Y-48406666D02*
X64280952Y-48216190D01*
X64280952Y-48216190D02*
X64280952Y-48025714D01*
X64280952Y-48025714D02*
X64376190Y-47835238D01*
X64376190Y-47835238D02*
X64471428Y-47740000D01*
X64471428Y-47740000D02*
X64661904Y-47644761D01*
X64661904Y-47644761D02*
X65138095Y-47644761D01*
X65138095Y-47644761D02*
X65423809Y-47740000D01*
X66090476Y-47644761D02*
X66566666Y-49644761D01*
X66566666Y-49644761D02*
X66947619Y-48216190D01*
X66947619Y-48216190D02*
X67328571Y-49644761D01*
X67328571Y-49644761D02*
X67804762Y-47644761D01*
X69614285Y-49644761D02*
X68471428Y-49644761D01*
X69042856Y-49644761D02*
X69042856Y-47644761D01*
X69042856Y-47644761D02*
X68852380Y-47930476D01*
X68852380Y-47930476D02*
X68661904Y-48120952D01*
X68661904Y-48120952D02*
X68471428Y-48216190D01*
X70280952Y-47644761D02*
X71614285Y-47644761D01*
X71614285Y-47644761D02*
X70757142Y-49644761D01*
X73480952Y-49549523D02*
X73766666Y-49644761D01*
X73766666Y-49644761D02*
X74242857Y-49644761D01*
X74242857Y-49644761D02*
X74433333Y-49549523D01*
X74433333Y-49549523D02*
X74528571Y-49454285D01*
X74528571Y-49454285D02*
X74623809Y-49263809D01*
X74623809Y-49263809D02*
X74623809Y-49073333D01*
X74623809Y-49073333D02*
X74528571Y-48882857D01*
X74528571Y-48882857D02*
X74433333Y-48787619D01*
X74433333Y-48787619D02*
X74242857Y-48692380D01*
X74242857Y-48692380D02*
X73861904Y-48597142D01*
X73861904Y-48597142D02*
X73671428Y-48501904D01*
X73671428Y-48501904D02*
X73576190Y-48406666D01*
X73576190Y-48406666D02*
X73480952Y-48216190D01*
X73480952Y-48216190D02*
X73480952Y-48025714D01*
X73480952Y-48025714D02*
X73576190Y-47835238D01*
X73576190Y-47835238D02*
X73671428Y-47740000D01*
X73671428Y-47740000D02*
X73861904Y-47644761D01*
X73861904Y-47644761D02*
X74338095Y-47644761D01*
X74338095Y-47644761D02*
X74623809Y-47740000D01*
X75290476Y-47644761D02*
X75766666Y-49644761D01*
X75766666Y-49644761D02*
X76147619Y-48216190D01*
X76147619Y-48216190D02*
X76528571Y-49644761D01*
X76528571Y-49644761D02*
X77004762Y-47644761D01*
X78814285Y-49644761D02*
X77671428Y-49644761D01*
X78242856Y-49644761D02*
X78242856Y-47644761D01*
X78242856Y-47644761D02*
X78052380Y-47930476D01*
X78052380Y-47930476D02*
X77861904Y-48120952D01*
X77861904Y-48120952D02*
X77671428Y-48216190D01*
X79957142Y-48501904D02*
X79766666Y-48406666D01*
X79766666Y-48406666D02*
X79671428Y-48311428D01*
X79671428Y-48311428D02*
X79576190Y-48120952D01*
X79576190Y-48120952D02*
X79576190Y-48025714D01*
X79576190Y-48025714D02*
X79671428Y-47835238D01*
X79671428Y-47835238D02*
X79766666Y-47740000D01*
X79766666Y-47740000D02*
X79957142Y-47644761D01*
X79957142Y-47644761D02*
X80338095Y-47644761D01*
X80338095Y-47644761D02*
X80528571Y-47740000D01*
X80528571Y-47740000D02*
X80623809Y-47835238D01*
X80623809Y-47835238D02*
X80719047Y-48025714D01*
X80719047Y-48025714D02*
X80719047Y-48120952D01*
X80719047Y-48120952D02*
X80623809Y-48311428D01*
X80623809Y-48311428D02*
X80528571Y-48406666D01*
X80528571Y-48406666D02*
X80338095Y-48501904D01*
X80338095Y-48501904D02*
X79957142Y-48501904D01*
X79957142Y-48501904D02*
X79766666Y-48597142D01*
X79766666Y-48597142D02*
X79671428Y-48692380D01*
X79671428Y-48692380D02*
X79576190Y-48882857D01*
X79576190Y-48882857D02*
X79576190Y-49263809D01*
X79576190Y-49263809D02*
X79671428Y-49454285D01*
X79671428Y-49454285D02*
X79766666Y-49549523D01*
X79766666Y-49549523D02*
X79957142Y-49644761D01*
X79957142Y-49644761D02*
X80338095Y-49644761D01*
X80338095Y-49644761D02*
X80528571Y-49549523D01*
X80528571Y-49549523D02*
X80623809Y-49454285D01*
X80623809Y-49454285D02*
X80719047Y-49263809D01*
X80719047Y-49263809D02*
X80719047Y-48882857D01*
X80719047Y-48882857D02*
X80623809Y-48692380D01*
X80623809Y-48692380D02*
X80528571Y-48597142D01*
X80528571Y-48597142D02*
X80338095Y-48501904D01*
X64280952Y-52789523D02*
X64566666Y-52884761D01*
X64566666Y-52884761D02*
X65042857Y-52884761D01*
X65042857Y-52884761D02*
X65233333Y-52789523D01*
X65233333Y-52789523D02*
X65328571Y-52694285D01*
X65328571Y-52694285D02*
X65423809Y-52503809D01*
X65423809Y-52503809D02*
X65423809Y-52313333D01*
X65423809Y-52313333D02*
X65328571Y-52122857D01*
X65328571Y-52122857D02*
X65233333Y-52027619D01*
X65233333Y-52027619D02*
X65042857Y-51932380D01*
X65042857Y-51932380D02*
X64661904Y-51837142D01*
X64661904Y-51837142D02*
X64471428Y-51741904D01*
X64471428Y-51741904D02*
X64376190Y-51646666D01*
X64376190Y-51646666D02*
X64280952Y-51456190D01*
X64280952Y-51456190D02*
X64280952Y-51265714D01*
X64280952Y-51265714D02*
X64376190Y-51075238D01*
X64376190Y-51075238D02*
X64471428Y-50980000D01*
X64471428Y-50980000D02*
X64661904Y-50884761D01*
X64661904Y-50884761D02*
X65138095Y-50884761D01*
X65138095Y-50884761D02*
X65423809Y-50980000D01*
X66090476Y-50884761D02*
X66566666Y-52884761D01*
X66566666Y-52884761D02*
X66947619Y-51456190D01*
X66947619Y-51456190D02*
X67328571Y-52884761D01*
X67328571Y-52884761D02*
X67804762Y-50884761D01*
X68376190Y-50884761D02*
X69614285Y-50884761D01*
X69614285Y-50884761D02*
X68947618Y-51646666D01*
X68947618Y-51646666D02*
X69233333Y-51646666D01*
X69233333Y-51646666D02*
X69423809Y-51741904D01*
X69423809Y-51741904D02*
X69519047Y-51837142D01*
X69519047Y-51837142D02*
X69614285Y-52027619D01*
X69614285Y-52027619D02*
X69614285Y-52503809D01*
X69614285Y-52503809D02*
X69519047Y-52694285D01*
X69519047Y-52694285D02*
X69423809Y-52789523D01*
X69423809Y-52789523D02*
X69233333Y-52884761D01*
X69233333Y-52884761D02*
X68661904Y-52884761D01*
X68661904Y-52884761D02*
X68471428Y-52789523D01*
X68471428Y-52789523D02*
X68376190Y-52694285D01*
X70280952Y-50884761D02*
X71519047Y-50884761D01*
X71519047Y-50884761D02*
X70852380Y-51646666D01*
X70852380Y-51646666D02*
X71138095Y-51646666D01*
X71138095Y-51646666D02*
X71328571Y-51741904D01*
X71328571Y-51741904D02*
X71423809Y-51837142D01*
X71423809Y-51837142D02*
X71519047Y-52027619D01*
X71519047Y-52027619D02*
X71519047Y-52503809D01*
X71519047Y-52503809D02*
X71423809Y-52694285D01*
X71423809Y-52694285D02*
X71328571Y-52789523D01*
X71328571Y-52789523D02*
X71138095Y-52884761D01*
X71138095Y-52884761D02*
X70566666Y-52884761D01*
X70566666Y-52884761D02*
X70376190Y-52789523D01*
X70376190Y-52789523D02*
X70280952Y-52694285D01*
X73480952Y-52789523D02*
X73766666Y-52884761D01*
X73766666Y-52884761D02*
X74242857Y-52884761D01*
X74242857Y-52884761D02*
X74433333Y-52789523D01*
X74433333Y-52789523D02*
X74528571Y-52694285D01*
X74528571Y-52694285D02*
X74623809Y-52503809D01*
X74623809Y-52503809D02*
X74623809Y-52313333D01*
X74623809Y-52313333D02*
X74528571Y-52122857D01*
X74528571Y-52122857D02*
X74433333Y-52027619D01*
X74433333Y-52027619D02*
X74242857Y-51932380D01*
X74242857Y-51932380D02*
X73861904Y-51837142D01*
X73861904Y-51837142D02*
X73671428Y-51741904D01*
X73671428Y-51741904D02*
X73576190Y-51646666D01*
X73576190Y-51646666D02*
X73480952Y-51456190D01*
X73480952Y-51456190D02*
X73480952Y-51265714D01*
X73480952Y-51265714D02*
X73576190Y-51075238D01*
X73576190Y-51075238D02*
X73671428Y-50980000D01*
X73671428Y-50980000D02*
X73861904Y-50884761D01*
X73861904Y-50884761D02*
X74338095Y-50884761D01*
X74338095Y-50884761D02*
X74623809Y-50980000D01*
X75290476Y-50884761D02*
X75766666Y-52884761D01*
X75766666Y-52884761D02*
X76147619Y-51456190D01*
X76147619Y-51456190D02*
X76528571Y-52884761D01*
X76528571Y-52884761D02*
X77004762Y-50884761D01*
X77576190Y-50884761D02*
X78814285Y-50884761D01*
X78814285Y-50884761D02*
X78147618Y-51646666D01*
X78147618Y-51646666D02*
X78433333Y-51646666D01*
X78433333Y-51646666D02*
X78623809Y-51741904D01*
X78623809Y-51741904D02*
X78719047Y-51837142D01*
X78719047Y-51837142D02*
X78814285Y-52027619D01*
X78814285Y-52027619D02*
X78814285Y-52503809D01*
X78814285Y-52503809D02*
X78719047Y-52694285D01*
X78719047Y-52694285D02*
X78623809Y-52789523D01*
X78623809Y-52789523D02*
X78433333Y-52884761D01*
X78433333Y-52884761D02*
X77861904Y-52884761D01*
X77861904Y-52884761D02*
X77671428Y-52789523D01*
X77671428Y-52789523D02*
X77576190Y-52694285D01*
X80528571Y-51551428D02*
X80528571Y-52884761D01*
X80052380Y-50789523D02*
X79576190Y-52218095D01*
X79576190Y-52218095D02*
X80814285Y-52218095D01*
X64280952Y-56029523D02*
X64566666Y-56124761D01*
X64566666Y-56124761D02*
X65042857Y-56124761D01*
X65042857Y-56124761D02*
X65233333Y-56029523D01*
X65233333Y-56029523D02*
X65328571Y-55934285D01*
X65328571Y-55934285D02*
X65423809Y-55743809D01*
X65423809Y-55743809D02*
X65423809Y-55553333D01*
X65423809Y-55553333D02*
X65328571Y-55362857D01*
X65328571Y-55362857D02*
X65233333Y-55267619D01*
X65233333Y-55267619D02*
X65042857Y-55172380D01*
X65042857Y-55172380D02*
X64661904Y-55077142D01*
X64661904Y-55077142D02*
X64471428Y-54981904D01*
X64471428Y-54981904D02*
X64376190Y-54886666D01*
X64376190Y-54886666D02*
X64280952Y-54696190D01*
X64280952Y-54696190D02*
X64280952Y-54505714D01*
X64280952Y-54505714D02*
X64376190Y-54315238D01*
X64376190Y-54315238D02*
X64471428Y-54220000D01*
X64471428Y-54220000D02*
X64661904Y-54124761D01*
X64661904Y-54124761D02*
X65138095Y-54124761D01*
X65138095Y-54124761D02*
X65423809Y-54220000D01*
X66090476Y-54124761D02*
X66566666Y-56124761D01*
X66566666Y-56124761D02*
X66947619Y-54696190D01*
X66947619Y-54696190D02*
X67328571Y-56124761D01*
X67328571Y-56124761D02*
X67804762Y-54124761D01*
X68376190Y-54124761D02*
X69614285Y-54124761D01*
X69614285Y-54124761D02*
X68947618Y-54886666D01*
X68947618Y-54886666D02*
X69233333Y-54886666D01*
X69233333Y-54886666D02*
X69423809Y-54981904D01*
X69423809Y-54981904D02*
X69519047Y-55077142D01*
X69519047Y-55077142D02*
X69614285Y-55267619D01*
X69614285Y-55267619D02*
X69614285Y-55743809D01*
X69614285Y-55743809D02*
X69519047Y-55934285D01*
X69519047Y-55934285D02*
X69423809Y-56029523D01*
X69423809Y-56029523D02*
X69233333Y-56124761D01*
X69233333Y-56124761D02*
X68661904Y-56124761D01*
X68661904Y-56124761D02*
X68471428Y-56029523D01*
X68471428Y-56029523D02*
X68376190Y-55934285D01*
X70280952Y-54124761D02*
X71614285Y-54124761D01*
X71614285Y-54124761D02*
X70757142Y-56124761D01*
X73480952Y-56029523D02*
X73766666Y-56124761D01*
X73766666Y-56124761D02*
X74242857Y-56124761D01*
X74242857Y-56124761D02*
X74433333Y-56029523D01*
X74433333Y-56029523D02*
X74528571Y-55934285D01*
X74528571Y-55934285D02*
X74623809Y-55743809D01*
X74623809Y-55743809D02*
X74623809Y-55553333D01*
X74623809Y-55553333D02*
X74528571Y-55362857D01*
X74528571Y-55362857D02*
X74433333Y-55267619D01*
X74433333Y-55267619D02*
X74242857Y-55172380D01*
X74242857Y-55172380D02*
X73861904Y-55077142D01*
X73861904Y-55077142D02*
X73671428Y-54981904D01*
X73671428Y-54981904D02*
X73576190Y-54886666D01*
X73576190Y-54886666D02*
X73480952Y-54696190D01*
X73480952Y-54696190D02*
X73480952Y-54505714D01*
X73480952Y-54505714D02*
X73576190Y-54315238D01*
X73576190Y-54315238D02*
X73671428Y-54220000D01*
X73671428Y-54220000D02*
X73861904Y-54124761D01*
X73861904Y-54124761D02*
X74338095Y-54124761D01*
X74338095Y-54124761D02*
X74623809Y-54220000D01*
X75290476Y-54124761D02*
X75766666Y-56124761D01*
X75766666Y-56124761D02*
X76147619Y-54696190D01*
X76147619Y-54696190D02*
X76528571Y-56124761D01*
X76528571Y-56124761D02*
X77004762Y-54124761D01*
X77576190Y-54124761D02*
X78814285Y-54124761D01*
X78814285Y-54124761D02*
X78147618Y-54886666D01*
X78147618Y-54886666D02*
X78433333Y-54886666D01*
X78433333Y-54886666D02*
X78623809Y-54981904D01*
X78623809Y-54981904D02*
X78719047Y-55077142D01*
X78719047Y-55077142D02*
X78814285Y-55267619D01*
X78814285Y-55267619D02*
X78814285Y-55743809D01*
X78814285Y-55743809D02*
X78719047Y-55934285D01*
X78719047Y-55934285D02*
X78623809Y-56029523D01*
X78623809Y-56029523D02*
X78433333Y-56124761D01*
X78433333Y-56124761D02*
X77861904Y-56124761D01*
X77861904Y-56124761D02*
X77671428Y-56029523D01*
X77671428Y-56029523D02*
X77576190Y-55934285D01*
X79957142Y-54981904D02*
X79766666Y-54886666D01*
X79766666Y-54886666D02*
X79671428Y-54791428D01*
X79671428Y-54791428D02*
X79576190Y-54600952D01*
X79576190Y-54600952D02*
X79576190Y-54505714D01*
X79576190Y-54505714D02*
X79671428Y-54315238D01*
X79671428Y-54315238D02*
X79766666Y-54220000D01*
X79766666Y-54220000D02*
X79957142Y-54124761D01*
X79957142Y-54124761D02*
X80338095Y-54124761D01*
X80338095Y-54124761D02*
X80528571Y-54220000D01*
X80528571Y-54220000D02*
X80623809Y-54315238D01*
X80623809Y-54315238D02*
X80719047Y-54505714D01*
X80719047Y-54505714D02*
X80719047Y-54600952D01*
X80719047Y-54600952D02*
X80623809Y-54791428D01*
X80623809Y-54791428D02*
X80528571Y-54886666D01*
X80528571Y-54886666D02*
X80338095Y-54981904D01*
X80338095Y-54981904D02*
X79957142Y-54981904D01*
X79957142Y-54981904D02*
X79766666Y-55077142D01*
X79766666Y-55077142D02*
X79671428Y-55172380D01*
X79671428Y-55172380D02*
X79576190Y-55362857D01*
X79576190Y-55362857D02*
X79576190Y-55743809D01*
X79576190Y-55743809D02*
X79671428Y-55934285D01*
X79671428Y-55934285D02*
X79766666Y-56029523D01*
X79766666Y-56029523D02*
X79957142Y-56124761D01*
X79957142Y-56124761D02*
X80338095Y-56124761D01*
X80338095Y-56124761D02*
X80528571Y-56029523D01*
X80528571Y-56029523D02*
X80623809Y-55934285D01*
X80623809Y-55934285D02*
X80719047Y-55743809D01*
X80719047Y-55743809D02*
X80719047Y-55362857D01*
X80719047Y-55362857D02*
X80623809Y-55172380D01*
X80623809Y-55172380D02*
X80528571Y-55077142D01*
X80528571Y-55077142D02*
X80338095Y-54981904D01*
D10*
X53918571Y-43021714D02*
X54090000Y-43078857D01*
X54090000Y-43078857D02*
X54375714Y-43078857D01*
X54375714Y-43078857D02*
X54490000Y-43021714D01*
X54490000Y-43021714D02*
X54547142Y-42964571D01*
X54547142Y-42964571D02*
X54604285Y-42850285D01*
X54604285Y-42850285D02*
X54604285Y-42736000D01*
X54604285Y-42736000D02*
X54547142Y-42621714D01*
X54547142Y-42621714D02*
X54490000Y-42564571D01*
X54490000Y-42564571D02*
X54375714Y-42507428D01*
X54375714Y-42507428D02*
X54147142Y-42450285D01*
X54147142Y-42450285D02*
X54032857Y-42393142D01*
X54032857Y-42393142D02*
X53975714Y-42336000D01*
X53975714Y-42336000D02*
X53918571Y-42221714D01*
X53918571Y-42221714D02*
X53918571Y-42107428D01*
X53918571Y-42107428D02*
X53975714Y-41993142D01*
X53975714Y-41993142D02*
X54032857Y-41936000D01*
X54032857Y-41936000D02*
X54147142Y-41878857D01*
X54147142Y-41878857D02*
X54432857Y-41878857D01*
X54432857Y-41878857D02*
X54604285Y-41936000D01*
X55004285Y-41878857D02*
X55289999Y-43078857D01*
X55289999Y-43078857D02*
X55518571Y-42221714D01*
X55518571Y-42221714D02*
X55747142Y-43078857D01*
X55747142Y-43078857D02*
X56032857Y-41878857D01*
X57118571Y-43078857D02*
X56432857Y-43078857D01*
X56775714Y-43078857D02*
X56775714Y-41878857D01*
X56775714Y-41878857D02*
X56661428Y-42050285D01*
X56661428Y-42050285D02*
X56547143Y-42164571D01*
X56547143Y-42164571D02*
X56432857Y-42221714D01*
X57804285Y-42393142D02*
X57690000Y-42336000D01*
X57690000Y-42336000D02*
X57632857Y-42278857D01*
X57632857Y-42278857D02*
X57575714Y-42164571D01*
X57575714Y-42164571D02*
X57575714Y-42107428D01*
X57575714Y-42107428D02*
X57632857Y-41993142D01*
X57632857Y-41993142D02*
X57690000Y-41936000D01*
X57690000Y-41936000D02*
X57804285Y-41878857D01*
X57804285Y-41878857D02*
X58032857Y-41878857D01*
X58032857Y-41878857D02*
X58147143Y-41936000D01*
X58147143Y-41936000D02*
X58204285Y-41993142D01*
X58204285Y-41993142D02*
X58261428Y-42107428D01*
X58261428Y-42107428D02*
X58261428Y-42164571D01*
X58261428Y-42164571D02*
X58204285Y-42278857D01*
X58204285Y-42278857D02*
X58147143Y-42336000D01*
X58147143Y-42336000D02*
X58032857Y-42393142D01*
X58032857Y-42393142D02*
X57804285Y-42393142D01*
X57804285Y-42393142D02*
X57690000Y-42450285D01*
X57690000Y-42450285D02*
X57632857Y-42507428D01*
X57632857Y-42507428D02*
X57575714Y-42621714D01*
X57575714Y-42621714D02*
X57575714Y-42850285D01*
X57575714Y-42850285D02*
X57632857Y-42964571D01*
X57632857Y-42964571D02*
X57690000Y-43021714D01*
X57690000Y-43021714D02*
X57804285Y-43078857D01*
X57804285Y-43078857D02*
X58032857Y-43078857D01*
X58032857Y-43078857D02*
X58147143Y-43021714D01*
X58147143Y-43021714D02*
X58204285Y-42964571D01*
X58204285Y-42964571D02*
X58261428Y-42850285D01*
X58261428Y-42850285D02*
X58261428Y-42621714D01*
X58261428Y-42621714D02*
X58204285Y-42507428D01*
X58204285Y-42507428D02*
X58147143Y-42450285D01*
X58147143Y-42450285D02*
X58032857Y-42393142D01*
D12*
X40037595Y-75715237D02*
X40037595Y-75591427D01*
X40037595Y-75591427D02*
X40099500Y-75467618D01*
X40099500Y-75467618D02*
X40161404Y-75405713D01*
X40161404Y-75405713D02*
X40285214Y-75343808D01*
X40285214Y-75343808D02*
X40532833Y-75281903D01*
X40532833Y-75281903D02*
X40842357Y-75281903D01*
X40842357Y-75281903D02*
X41089976Y-75343808D01*
X41089976Y-75343808D02*
X41213785Y-75405713D01*
X41213785Y-75405713D02*
X41275690Y-75467618D01*
X41275690Y-75467618D02*
X41337595Y-75591427D01*
X41337595Y-75591427D02*
X41337595Y-75715237D01*
X41337595Y-75715237D02*
X41275690Y-75839046D01*
X41275690Y-75839046D02*
X41213785Y-75900951D01*
X41213785Y-75900951D02*
X41089976Y-75962856D01*
X41089976Y-75962856D02*
X40842357Y-76024760D01*
X40842357Y-76024760D02*
X40532833Y-76024760D01*
X40532833Y-76024760D02*
X40285214Y-75962856D01*
X40285214Y-75962856D02*
X40161404Y-75900951D01*
X40161404Y-75900951D02*
X40099500Y-75839046D01*
X40099500Y-75839046D02*
X40037595Y-75715237D01*
X41213785Y-74724761D02*
X41275690Y-74662856D01*
X41275690Y-74662856D02*
X41337595Y-74724761D01*
X41337595Y-74724761D02*
X41275690Y-74786665D01*
X41275690Y-74786665D02*
X41213785Y-74724761D01*
X41213785Y-74724761D02*
X41337595Y-74724761D01*
X40037595Y-73486665D02*
X40037595Y-74105713D01*
X40037595Y-74105713D02*
X40656642Y-74167617D01*
X40656642Y-74167617D02*
X40594738Y-74105713D01*
X40594738Y-74105713D02*
X40532833Y-73981903D01*
X40532833Y-73981903D02*
X40532833Y-73672379D01*
X40532833Y-73672379D02*
X40594738Y-73548570D01*
X40594738Y-73548570D02*
X40656642Y-73486665D01*
X40656642Y-73486665D02*
X40780452Y-73424760D01*
X40780452Y-73424760D02*
X41089976Y-73424760D01*
X41089976Y-73424760D02*
X41213785Y-73486665D01*
X41213785Y-73486665D02*
X41275690Y-73548570D01*
X41275690Y-73548570D02*
X41337595Y-73672379D01*
X41337595Y-73672379D02*
X41337595Y-73981903D01*
X41337595Y-73981903D02*
X41275690Y-74105713D01*
X41275690Y-74105713D02*
X41213785Y-74167617D01*
X40470928Y-72310475D02*
X41337595Y-72310475D01*
X40470928Y-72867618D02*
X41151880Y-72867618D01*
X41151880Y-72867618D02*
X41275690Y-72805713D01*
X41275690Y-72805713D02*
X41337595Y-72681903D01*
X41337595Y-72681903D02*
X41337595Y-72496189D01*
X41337595Y-72496189D02*
X41275690Y-72372380D01*
X41275690Y-72372380D02*
X41213785Y-72310475D01*
X41275690Y-70973332D02*
X41337595Y-70849523D01*
X41337595Y-70849523D02*
X41337595Y-70601904D01*
X41337595Y-70601904D02*
X41275690Y-70478094D01*
X41275690Y-70478094D02*
X41151880Y-70416190D01*
X41151880Y-70416190D02*
X41089976Y-70416190D01*
X41089976Y-70416190D02*
X40966166Y-70478094D01*
X40966166Y-70478094D02*
X40904261Y-70601904D01*
X40904261Y-70601904D02*
X40904261Y-70787618D01*
X40904261Y-70787618D02*
X40842357Y-70911428D01*
X40842357Y-70911428D02*
X40718547Y-70973332D01*
X40718547Y-70973332D02*
X40656642Y-70973332D01*
X40656642Y-70973332D02*
X40532833Y-70911428D01*
X40532833Y-70911428D02*
X40470928Y-70787618D01*
X40470928Y-70787618D02*
X40470928Y-70601904D01*
X40470928Y-70601904D02*
X40532833Y-70478094D01*
X41337595Y-69859047D02*
X40037595Y-69859047D01*
X41337595Y-69301904D02*
X40656642Y-69301904D01*
X40656642Y-69301904D02*
X40532833Y-69363809D01*
X40532833Y-69363809D02*
X40470928Y-69487618D01*
X40470928Y-69487618D02*
X40470928Y-69673332D01*
X40470928Y-69673332D02*
X40532833Y-69797142D01*
X40532833Y-69797142D02*
X40594738Y-69859047D01*
X41337595Y-68682857D02*
X40470928Y-68682857D01*
X40037595Y-68682857D02*
X40099500Y-68744761D01*
X40099500Y-68744761D02*
X40161404Y-68682857D01*
X40161404Y-68682857D02*
X40099500Y-68620952D01*
X40099500Y-68620952D02*
X40037595Y-68682857D01*
X40037595Y-68682857D02*
X40161404Y-68682857D01*
X40470928Y-68249523D02*
X40470928Y-67754285D01*
X41337595Y-68063809D02*
X40223309Y-68063809D01*
X40223309Y-68063809D02*
X40099500Y-68001904D01*
X40099500Y-68001904D02*
X40037595Y-67878094D01*
X40037595Y-67878094D02*
X40037595Y-67754285D01*
X40470928Y-67506666D02*
X40470928Y-67011428D01*
X40037595Y-67320952D02*
X41151880Y-67320952D01*
X41151880Y-67320952D02*
X41275690Y-67259047D01*
X41275690Y-67259047D02*
X41337595Y-67135237D01*
X41337595Y-67135237D02*
X41337595Y-67011428D01*
D10*
X34378571Y-90461714D02*
X34550000Y-90518857D01*
X34550000Y-90518857D02*
X34835714Y-90518857D01*
X34835714Y-90518857D02*
X34950000Y-90461714D01*
X34950000Y-90461714D02*
X35007142Y-90404571D01*
X35007142Y-90404571D02*
X35064285Y-90290285D01*
X35064285Y-90290285D02*
X35064285Y-90176000D01*
X35064285Y-90176000D02*
X35007142Y-90061714D01*
X35007142Y-90061714D02*
X34950000Y-90004571D01*
X34950000Y-90004571D02*
X34835714Y-89947428D01*
X34835714Y-89947428D02*
X34607142Y-89890285D01*
X34607142Y-89890285D02*
X34492857Y-89833142D01*
X34492857Y-89833142D02*
X34435714Y-89776000D01*
X34435714Y-89776000D02*
X34378571Y-89661714D01*
X34378571Y-89661714D02*
X34378571Y-89547428D01*
X34378571Y-89547428D02*
X34435714Y-89433142D01*
X34435714Y-89433142D02*
X34492857Y-89376000D01*
X34492857Y-89376000D02*
X34607142Y-89318857D01*
X34607142Y-89318857D02*
X34892857Y-89318857D01*
X34892857Y-89318857D02*
X35064285Y-89376000D01*
X35464285Y-89318857D02*
X35749999Y-90518857D01*
X35749999Y-90518857D02*
X35978571Y-89661714D01*
X35978571Y-89661714D02*
X36207142Y-90518857D01*
X36207142Y-90518857D02*
X36492857Y-89318857D01*
X36835714Y-89318857D02*
X37578571Y-89318857D01*
X37578571Y-89318857D02*
X37178571Y-89776000D01*
X37178571Y-89776000D02*
X37350000Y-89776000D01*
X37350000Y-89776000D02*
X37464286Y-89833142D01*
X37464286Y-89833142D02*
X37521428Y-89890285D01*
X37521428Y-89890285D02*
X37578571Y-90004571D01*
X37578571Y-90004571D02*
X37578571Y-90290285D01*
X37578571Y-90290285D02*
X37521428Y-90404571D01*
X37521428Y-90404571D02*
X37464286Y-90461714D01*
X37464286Y-90461714D02*
X37350000Y-90518857D01*
X37350000Y-90518857D02*
X37007143Y-90518857D01*
X37007143Y-90518857D02*
X36892857Y-90461714D01*
X36892857Y-90461714D02*
X36835714Y-90404571D01*
X37978571Y-89318857D02*
X38778571Y-89318857D01*
X38778571Y-89318857D02*
X38264285Y-90518857D01*
X34938571Y-71531714D02*
X35110000Y-71588857D01*
X35110000Y-71588857D02*
X35395714Y-71588857D01*
X35395714Y-71588857D02*
X35510000Y-71531714D01*
X35510000Y-71531714D02*
X35567142Y-71474571D01*
X35567142Y-71474571D02*
X35624285Y-71360285D01*
X35624285Y-71360285D02*
X35624285Y-71246000D01*
X35624285Y-71246000D02*
X35567142Y-71131714D01*
X35567142Y-71131714D02*
X35510000Y-71074571D01*
X35510000Y-71074571D02*
X35395714Y-71017428D01*
X35395714Y-71017428D02*
X35167142Y-70960285D01*
X35167142Y-70960285D02*
X35052857Y-70903142D01*
X35052857Y-70903142D02*
X34995714Y-70846000D01*
X34995714Y-70846000D02*
X34938571Y-70731714D01*
X34938571Y-70731714D02*
X34938571Y-70617428D01*
X34938571Y-70617428D02*
X34995714Y-70503142D01*
X34995714Y-70503142D02*
X35052857Y-70446000D01*
X35052857Y-70446000D02*
X35167142Y-70388857D01*
X35167142Y-70388857D02*
X35452857Y-70388857D01*
X35452857Y-70388857D02*
X35624285Y-70446000D01*
X36024285Y-70388857D02*
X36309999Y-71588857D01*
X36309999Y-71588857D02*
X36538571Y-70731714D01*
X36538571Y-70731714D02*
X36767142Y-71588857D01*
X36767142Y-71588857D02*
X37052857Y-70388857D01*
X37395714Y-70388857D02*
X38138571Y-70388857D01*
X38138571Y-70388857D02*
X37738571Y-70846000D01*
X37738571Y-70846000D02*
X37910000Y-70846000D01*
X37910000Y-70846000D02*
X38024286Y-70903142D01*
X38024286Y-70903142D02*
X38081428Y-70960285D01*
X38081428Y-70960285D02*
X38138571Y-71074571D01*
X38138571Y-71074571D02*
X38138571Y-71360285D01*
X38138571Y-71360285D02*
X38081428Y-71474571D01*
X38081428Y-71474571D02*
X38024286Y-71531714D01*
X38024286Y-71531714D02*
X37910000Y-71588857D01*
X37910000Y-71588857D02*
X37567143Y-71588857D01*
X37567143Y-71588857D02*
X37452857Y-71531714D01*
X37452857Y-71531714D02*
X37395714Y-71474571D01*
X38538571Y-70388857D02*
X39281428Y-70388857D01*
X39281428Y-70388857D02*
X38881428Y-70846000D01*
X38881428Y-70846000D02*
X39052857Y-70846000D01*
X39052857Y-70846000D02*
X39167143Y-70903142D01*
X39167143Y-70903142D02*
X39224285Y-70960285D01*
X39224285Y-70960285D02*
X39281428Y-71074571D01*
X39281428Y-71074571D02*
X39281428Y-71360285D01*
X39281428Y-71360285D02*
X39224285Y-71474571D01*
X39224285Y-71474571D02*
X39167143Y-71531714D01*
X39167143Y-71531714D02*
X39052857Y-71588857D01*
X39052857Y-71588857D02*
X38710000Y-71588857D01*
X38710000Y-71588857D02*
X38595714Y-71531714D01*
X38595714Y-71531714D02*
X38538571Y-71474571D01*
D13*
X22114286Y-100470714D02*
X22828571Y-100470714D01*
X22400000Y-100042142D02*
X22114286Y-101327857D01*
X22733333Y-100899285D02*
X22019048Y-100899285D01*
X22447619Y-101327857D02*
X22733333Y-100042142D01*
X23685714Y-101137380D02*
X23114286Y-101137380D01*
X23400000Y-101137380D02*
X23400000Y-100137380D01*
X23400000Y-100137380D02*
X23304762Y-100280238D01*
X23304762Y-100280238D02*
X23209524Y-100375476D01*
X23209524Y-100375476D02*
X23114286Y-100423095D01*
X24590476Y-100137380D02*
X24114286Y-100137380D01*
X24114286Y-100137380D02*
X24066667Y-100613571D01*
X24066667Y-100613571D02*
X24114286Y-100565952D01*
X24114286Y-100565952D02*
X24209524Y-100518333D01*
X24209524Y-100518333D02*
X24447619Y-100518333D01*
X24447619Y-100518333D02*
X24542857Y-100565952D01*
X24542857Y-100565952D02*
X24590476Y-100613571D01*
X24590476Y-100613571D02*
X24638095Y-100708809D01*
X24638095Y-100708809D02*
X24638095Y-100946904D01*
X24638095Y-100946904D02*
X24590476Y-101042142D01*
X24590476Y-101042142D02*
X24542857Y-101089761D01*
X24542857Y-101089761D02*
X24447619Y-101137380D01*
X24447619Y-101137380D02*
X24209524Y-101137380D01*
X24209524Y-101137380D02*
X24114286Y-101089761D01*
X24114286Y-101089761D02*
X24066667Y-101042142D01*
X25209524Y-100565952D02*
X25114286Y-100518333D01*
X25114286Y-100518333D02*
X25066667Y-100470714D01*
X25066667Y-100470714D02*
X25019048Y-100375476D01*
X25019048Y-100375476D02*
X25019048Y-100327857D01*
X25019048Y-100327857D02*
X25066667Y-100232619D01*
X25066667Y-100232619D02*
X25114286Y-100185000D01*
X25114286Y-100185000D02*
X25209524Y-100137380D01*
X25209524Y-100137380D02*
X25400000Y-100137380D01*
X25400000Y-100137380D02*
X25495238Y-100185000D01*
X25495238Y-100185000D02*
X25542857Y-100232619D01*
X25542857Y-100232619D02*
X25590476Y-100327857D01*
X25590476Y-100327857D02*
X25590476Y-100375476D01*
X25590476Y-100375476D02*
X25542857Y-100470714D01*
X25542857Y-100470714D02*
X25495238Y-100518333D01*
X25495238Y-100518333D02*
X25400000Y-100565952D01*
X25400000Y-100565952D02*
X25209524Y-100565952D01*
X25209524Y-100565952D02*
X25114286Y-100613571D01*
X25114286Y-100613571D02*
X25066667Y-100661190D01*
X25066667Y-100661190D02*
X25019048Y-100756428D01*
X25019048Y-100756428D02*
X25019048Y-100946904D01*
X25019048Y-100946904D02*
X25066667Y-101042142D01*
X25066667Y-101042142D02*
X25114286Y-101089761D01*
X25114286Y-101089761D02*
X25209524Y-101137380D01*
X25209524Y-101137380D02*
X25400000Y-101137380D01*
X25400000Y-101137380D02*
X25495238Y-101089761D01*
X25495238Y-101089761D02*
X25542857Y-101042142D01*
X25542857Y-101042142D02*
X25590476Y-100946904D01*
X25590476Y-100946904D02*
X25590476Y-100756428D01*
X25590476Y-100756428D02*
X25542857Y-100661190D01*
X25542857Y-100661190D02*
X25495238Y-100613571D01*
X25495238Y-100613571D02*
X25400000Y-100565952D01*
X26066667Y-101089761D02*
X26066667Y-101137380D01*
X26066667Y-101137380D02*
X26019048Y-101232619D01*
X26019048Y-101232619D02*
X25971429Y-101280238D01*
X27095238Y-101137380D02*
X27095238Y-100470714D01*
X27095238Y-100661190D02*
X27142857Y-100565952D01*
X27142857Y-100565952D02*
X27190476Y-100518333D01*
X27190476Y-100518333D02*
X27285714Y-100470714D01*
X27285714Y-100470714D02*
X27380952Y-100470714D01*
X28095238Y-101089761D02*
X28000000Y-101137380D01*
X28000000Y-101137380D02*
X27809524Y-101137380D01*
X27809524Y-101137380D02*
X27714286Y-101089761D01*
X27714286Y-101089761D02*
X27666667Y-100994523D01*
X27666667Y-100994523D02*
X27666667Y-100613571D01*
X27666667Y-100613571D02*
X27714286Y-100518333D01*
X27714286Y-100518333D02*
X27809524Y-100470714D01*
X27809524Y-100470714D02*
X28000000Y-100470714D01*
X28000000Y-100470714D02*
X28095238Y-100518333D01*
X28095238Y-100518333D02*
X28142857Y-100613571D01*
X28142857Y-100613571D02*
X28142857Y-100708809D01*
X28142857Y-100708809D02*
X27666667Y-100804047D01*
X28476191Y-100470714D02*
X28714286Y-101137380D01*
X28714286Y-101137380D02*
X28952381Y-100470714D01*
X30457143Y-101137380D02*
X29885715Y-101137380D01*
X30171429Y-101137380D02*
X30171429Y-100137380D01*
X30171429Y-100137380D02*
X30076191Y-100280238D01*
X30076191Y-100280238D02*
X29980953Y-100375476D01*
X29980953Y-100375476D02*
X29885715Y-100423095D01*
X30885715Y-101042142D02*
X30933334Y-101089761D01*
X30933334Y-101089761D02*
X30885715Y-101137380D01*
X30885715Y-101137380D02*
X30838096Y-101089761D01*
X30838096Y-101089761D02*
X30885715Y-101042142D01*
X30885715Y-101042142D02*
X30885715Y-101137380D01*
X31885714Y-101137380D02*
X31314286Y-101137380D01*
X31600000Y-101137380D02*
X31600000Y-100137380D01*
X31600000Y-100137380D02*
X31504762Y-100280238D01*
X31504762Y-100280238D02*
X31409524Y-100375476D01*
X31409524Y-100375476D02*
X31314286Y-100423095D01*
X58522285Y-67579998D02*
X58522285Y-67979998D01*
X59150857Y-67979998D02*
X57950857Y-67979998D01*
X57950857Y-67979998D02*
X57950857Y-67408570D01*
X59093714Y-66494284D02*
X59150857Y-66608570D01*
X59150857Y-66608570D02*
X59150857Y-66837142D01*
X59150857Y-66837142D02*
X59093714Y-66951427D01*
X59093714Y-66951427D02*
X58979428Y-67008570D01*
X58979428Y-67008570D02*
X58522285Y-67008570D01*
X58522285Y-67008570D02*
X58408000Y-66951427D01*
X58408000Y-66951427D02*
X58350857Y-66837142D01*
X58350857Y-66837142D02*
X58350857Y-66608570D01*
X58350857Y-66608570D02*
X58408000Y-66494284D01*
X58408000Y-66494284D02*
X58522285Y-66437142D01*
X58522285Y-66437142D02*
X58636571Y-66437142D01*
X58636571Y-66437142D02*
X58750857Y-67008570D01*
X59150857Y-65922856D02*
X57950857Y-65922856D01*
X58408000Y-65922856D02*
X58350857Y-65808571D01*
X58350857Y-65808571D02*
X58350857Y-65579999D01*
X58350857Y-65579999D02*
X58408000Y-65465713D01*
X58408000Y-65465713D02*
X58465142Y-65408571D01*
X58465142Y-65408571D02*
X58579428Y-65351428D01*
X58579428Y-65351428D02*
X58922285Y-65351428D01*
X58922285Y-65351428D02*
X59036571Y-65408571D01*
X59036571Y-65408571D02*
X59093714Y-65465713D01*
X59093714Y-65465713D02*
X59150857Y-65579999D01*
X59150857Y-65579999D02*
X59150857Y-65808571D01*
X59150857Y-65808571D02*
X59093714Y-65922856D01*
X59150857Y-63488571D02*
X59150857Y-64174285D01*
X59150857Y-63831428D02*
X57950857Y-63831428D01*
X57950857Y-63831428D02*
X58122285Y-63945714D01*
X58122285Y-63945714D02*
X58236571Y-64059999D01*
X58236571Y-64059999D02*
X58293714Y-64174285D01*
X58350857Y-62460000D02*
X59150857Y-62460000D01*
X57893714Y-62745714D02*
X58750857Y-63031428D01*
X58750857Y-63031428D02*
X58750857Y-62288571D01*
X59093714Y-61774285D02*
X59150857Y-61774285D01*
X59150857Y-61774285D02*
X59265142Y-61831428D01*
X59265142Y-61831428D02*
X59322285Y-61888571D01*
X58065142Y-60597142D02*
X58008000Y-60539999D01*
X58008000Y-60539999D02*
X57950857Y-60425714D01*
X57950857Y-60425714D02*
X57950857Y-60139999D01*
X57950857Y-60139999D02*
X58008000Y-60025714D01*
X58008000Y-60025714D02*
X58065142Y-59968571D01*
X58065142Y-59968571D02*
X58179428Y-59911428D01*
X58179428Y-59911428D02*
X58293714Y-59911428D01*
X58293714Y-59911428D02*
X58465142Y-59968571D01*
X58465142Y-59968571D02*
X59150857Y-60654285D01*
X59150857Y-60654285D02*
X59150857Y-59911428D01*
X57950857Y-59168571D02*
X57950857Y-59054285D01*
X57950857Y-59054285D02*
X58008000Y-58939999D01*
X58008000Y-58939999D02*
X58065142Y-58882857D01*
X58065142Y-58882857D02*
X58179428Y-58825714D01*
X58179428Y-58825714D02*
X58408000Y-58768571D01*
X58408000Y-58768571D02*
X58693714Y-58768571D01*
X58693714Y-58768571D02*
X58922285Y-58825714D01*
X58922285Y-58825714D02*
X59036571Y-58882857D01*
X59036571Y-58882857D02*
X59093714Y-58939999D01*
X59093714Y-58939999D02*
X59150857Y-59054285D01*
X59150857Y-59054285D02*
X59150857Y-59168571D01*
X59150857Y-59168571D02*
X59093714Y-59282857D01*
X59093714Y-59282857D02*
X59036571Y-59339999D01*
X59036571Y-59339999D02*
X58922285Y-59397142D01*
X58922285Y-59397142D02*
X58693714Y-59454285D01*
X58693714Y-59454285D02*
X58408000Y-59454285D01*
X58408000Y-59454285D02*
X58179428Y-59397142D01*
X58179428Y-59397142D02*
X58065142Y-59339999D01*
X58065142Y-59339999D02*
X58008000Y-59282857D01*
X58008000Y-59282857D02*
X57950857Y-59168571D01*
X58065142Y-58311428D02*
X58008000Y-58254285D01*
X58008000Y-58254285D02*
X57950857Y-58140000D01*
X57950857Y-58140000D02*
X57950857Y-57854285D01*
X57950857Y-57854285D02*
X58008000Y-57740000D01*
X58008000Y-57740000D02*
X58065142Y-57682857D01*
X58065142Y-57682857D02*
X58179428Y-57625714D01*
X58179428Y-57625714D02*
X58293714Y-57625714D01*
X58293714Y-57625714D02*
X58465142Y-57682857D01*
X58465142Y-57682857D02*
X59150857Y-58368571D01*
X59150857Y-58368571D02*
X59150857Y-57625714D01*
X57950857Y-57225714D02*
X57950857Y-56482857D01*
X57950857Y-56482857D02*
X58408000Y-56882857D01*
X58408000Y-56882857D02*
X58408000Y-56711428D01*
X58408000Y-56711428D02*
X58465142Y-56597143D01*
X58465142Y-56597143D02*
X58522285Y-56540000D01*
X58522285Y-56540000D02*
X58636571Y-56482857D01*
X58636571Y-56482857D02*
X58922285Y-56482857D01*
X58922285Y-56482857D02*
X59036571Y-56540000D01*
X59036571Y-56540000D02*
X59093714Y-56597143D01*
X59093714Y-56597143D02*
X59150857Y-56711428D01*
X59150857Y-56711428D02*
X59150857Y-57054285D01*
X59150857Y-57054285D02*
X59093714Y-57168571D01*
X59093714Y-57168571D02*
X59036571Y-57225714D01*
D10*
X34628571Y-33271714D02*
X34800000Y-33328857D01*
X34800000Y-33328857D02*
X35085714Y-33328857D01*
X35085714Y-33328857D02*
X35200000Y-33271714D01*
X35200000Y-33271714D02*
X35257142Y-33214571D01*
X35257142Y-33214571D02*
X35314285Y-33100285D01*
X35314285Y-33100285D02*
X35314285Y-32986000D01*
X35314285Y-32986000D02*
X35257142Y-32871714D01*
X35257142Y-32871714D02*
X35200000Y-32814571D01*
X35200000Y-32814571D02*
X35085714Y-32757428D01*
X35085714Y-32757428D02*
X34857142Y-32700285D01*
X34857142Y-32700285D02*
X34742857Y-32643142D01*
X34742857Y-32643142D02*
X34685714Y-32586000D01*
X34685714Y-32586000D02*
X34628571Y-32471714D01*
X34628571Y-32471714D02*
X34628571Y-32357428D01*
X34628571Y-32357428D02*
X34685714Y-32243142D01*
X34685714Y-32243142D02*
X34742857Y-32186000D01*
X34742857Y-32186000D02*
X34857142Y-32128857D01*
X34857142Y-32128857D02*
X35142857Y-32128857D01*
X35142857Y-32128857D02*
X35314285Y-32186000D01*
X35714285Y-32128857D02*
X35999999Y-33328857D01*
X35999999Y-33328857D02*
X36228571Y-32471714D01*
X36228571Y-32471714D02*
X36457142Y-33328857D01*
X36457142Y-33328857D02*
X36742857Y-32128857D01*
X37828571Y-33328857D02*
X37142857Y-33328857D01*
X37485714Y-33328857D02*
X37485714Y-32128857D01*
X37485714Y-32128857D02*
X37371428Y-32300285D01*
X37371428Y-32300285D02*
X37257143Y-32414571D01*
X37257143Y-32414571D02*
X37142857Y-32471714D01*
X38228571Y-32128857D02*
X38971428Y-32128857D01*
X38971428Y-32128857D02*
X38571428Y-32586000D01*
X38571428Y-32586000D02*
X38742857Y-32586000D01*
X38742857Y-32586000D02*
X38857143Y-32643142D01*
X38857143Y-32643142D02*
X38914285Y-32700285D01*
X38914285Y-32700285D02*
X38971428Y-32814571D01*
X38971428Y-32814571D02*
X38971428Y-33100285D01*
X38971428Y-33100285D02*
X38914285Y-33214571D01*
X38914285Y-33214571D02*
X38857143Y-33271714D01*
X38857143Y-33271714D02*
X38742857Y-33328857D01*
X38742857Y-33328857D02*
X38400000Y-33328857D01*
X38400000Y-33328857D02*
X38285714Y-33271714D01*
X38285714Y-33271714D02*
X38228571Y-33214571D01*
X35308571Y-52481714D02*
X35480000Y-52538857D01*
X35480000Y-52538857D02*
X35765714Y-52538857D01*
X35765714Y-52538857D02*
X35880000Y-52481714D01*
X35880000Y-52481714D02*
X35937142Y-52424571D01*
X35937142Y-52424571D02*
X35994285Y-52310285D01*
X35994285Y-52310285D02*
X35994285Y-52196000D01*
X35994285Y-52196000D02*
X35937142Y-52081714D01*
X35937142Y-52081714D02*
X35880000Y-52024571D01*
X35880000Y-52024571D02*
X35765714Y-51967428D01*
X35765714Y-51967428D02*
X35537142Y-51910285D01*
X35537142Y-51910285D02*
X35422857Y-51853142D01*
X35422857Y-51853142D02*
X35365714Y-51796000D01*
X35365714Y-51796000D02*
X35308571Y-51681714D01*
X35308571Y-51681714D02*
X35308571Y-51567428D01*
X35308571Y-51567428D02*
X35365714Y-51453142D01*
X35365714Y-51453142D02*
X35422857Y-51396000D01*
X35422857Y-51396000D02*
X35537142Y-51338857D01*
X35537142Y-51338857D02*
X35822857Y-51338857D01*
X35822857Y-51338857D02*
X35994285Y-51396000D01*
X36394285Y-51338857D02*
X36679999Y-52538857D01*
X36679999Y-52538857D02*
X36908571Y-51681714D01*
X36908571Y-51681714D02*
X37137142Y-52538857D01*
X37137142Y-52538857D02*
X37422857Y-51338857D01*
X38508571Y-52538857D02*
X37822857Y-52538857D01*
X38165714Y-52538857D02*
X38165714Y-51338857D01*
X38165714Y-51338857D02*
X38051428Y-51510285D01*
X38051428Y-51510285D02*
X37937143Y-51624571D01*
X37937143Y-51624571D02*
X37822857Y-51681714D01*
X38908571Y-51338857D02*
X39708571Y-51338857D01*
X39708571Y-51338857D02*
X39194285Y-52538857D01*
D14*
X36878571Y-101117095D02*
X36259523Y-101117095D01*
X36259523Y-101117095D02*
X36259523Y-99817095D01*
X37807142Y-101055190D02*
X37683333Y-101117095D01*
X37683333Y-101117095D02*
X37435714Y-101117095D01*
X37435714Y-101117095D02*
X37311904Y-101055190D01*
X37311904Y-101055190D02*
X37250000Y-100931380D01*
X37250000Y-100931380D02*
X37250000Y-100436142D01*
X37250000Y-100436142D02*
X37311904Y-100312333D01*
X37311904Y-100312333D02*
X37435714Y-100250428D01*
X37435714Y-100250428D02*
X37683333Y-100250428D01*
X37683333Y-100250428D02*
X37807142Y-100312333D01*
X37807142Y-100312333D02*
X37869047Y-100436142D01*
X37869047Y-100436142D02*
X37869047Y-100559952D01*
X37869047Y-100559952D02*
X37250000Y-100683761D01*
X38240476Y-100250428D02*
X38735714Y-100250428D01*
X38426190Y-101117095D02*
X38426190Y-100002809D01*
X38426190Y-100002809D02*
X38488095Y-99879000D01*
X38488095Y-99879000D02*
X38611905Y-99817095D01*
X38611905Y-99817095D02*
X38735714Y-99817095D01*
X38983333Y-100250428D02*
X39478571Y-100250428D01*
X39169047Y-99817095D02*
X39169047Y-100931380D01*
X39169047Y-100931380D02*
X39230952Y-101055190D01*
X39230952Y-101055190D02*
X39354762Y-101117095D01*
X39354762Y-101117095D02*
X39478571Y-101117095D01*
D10*
X53388571Y-61781714D02*
X53560000Y-61838857D01*
X53560000Y-61838857D02*
X53845714Y-61838857D01*
X53845714Y-61838857D02*
X53960000Y-61781714D01*
X53960000Y-61781714D02*
X54017142Y-61724571D01*
X54017142Y-61724571D02*
X54074285Y-61610285D01*
X54074285Y-61610285D02*
X54074285Y-61496000D01*
X54074285Y-61496000D02*
X54017142Y-61381714D01*
X54017142Y-61381714D02*
X53960000Y-61324571D01*
X53960000Y-61324571D02*
X53845714Y-61267428D01*
X53845714Y-61267428D02*
X53617142Y-61210285D01*
X53617142Y-61210285D02*
X53502857Y-61153142D01*
X53502857Y-61153142D02*
X53445714Y-61096000D01*
X53445714Y-61096000D02*
X53388571Y-60981714D01*
X53388571Y-60981714D02*
X53388571Y-60867428D01*
X53388571Y-60867428D02*
X53445714Y-60753142D01*
X53445714Y-60753142D02*
X53502857Y-60696000D01*
X53502857Y-60696000D02*
X53617142Y-60638857D01*
X53617142Y-60638857D02*
X53902857Y-60638857D01*
X53902857Y-60638857D02*
X54074285Y-60696000D01*
X54474285Y-60638857D02*
X54759999Y-61838857D01*
X54759999Y-61838857D02*
X54988571Y-60981714D01*
X54988571Y-60981714D02*
X55217142Y-61838857D01*
X55217142Y-61838857D02*
X55502857Y-60638857D01*
X55845714Y-60638857D02*
X56588571Y-60638857D01*
X56588571Y-60638857D02*
X56188571Y-61096000D01*
X56188571Y-61096000D02*
X56360000Y-61096000D01*
X56360000Y-61096000D02*
X56474286Y-61153142D01*
X56474286Y-61153142D02*
X56531428Y-61210285D01*
X56531428Y-61210285D02*
X56588571Y-61324571D01*
X56588571Y-61324571D02*
X56588571Y-61610285D01*
X56588571Y-61610285D02*
X56531428Y-61724571D01*
X56531428Y-61724571D02*
X56474286Y-61781714D01*
X56474286Y-61781714D02*
X56360000Y-61838857D01*
X56360000Y-61838857D02*
X56017143Y-61838857D01*
X56017143Y-61838857D02*
X55902857Y-61781714D01*
X55902857Y-61781714D02*
X55845714Y-61724571D01*
X57617143Y-61038857D02*
X57617143Y-61838857D01*
X57331428Y-60581714D02*
X57045714Y-61438857D01*
X57045714Y-61438857D02*
X57788571Y-61438857D01*
X54138571Y-80911714D02*
X54310000Y-80968857D01*
X54310000Y-80968857D02*
X54595714Y-80968857D01*
X54595714Y-80968857D02*
X54710000Y-80911714D01*
X54710000Y-80911714D02*
X54767142Y-80854571D01*
X54767142Y-80854571D02*
X54824285Y-80740285D01*
X54824285Y-80740285D02*
X54824285Y-80626000D01*
X54824285Y-80626000D02*
X54767142Y-80511714D01*
X54767142Y-80511714D02*
X54710000Y-80454571D01*
X54710000Y-80454571D02*
X54595714Y-80397428D01*
X54595714Y-80397428D02*
X54367142Y-80340285D01*
X54367142Y-80340285D02*
X54252857Y-80283142D01*
X54252857Y-80283142D02*
X54195714Y-80226000D01*
X54195714Y-80226000D02*
X54138571Y-80111714D01*
X54138571Y-80111714D02*
X54138571Y-79997428D01*
X54138571Y-79997428D02*
X54195714Y-79883142D01*
X54195714Y-79883142D02*
X54252857Y-79826000D01*
X54252857Y-79826000D02*
X54367142Y-79768857D01*
X54367142Y-79768857D02*
X54652857Y-79768857D01*
X54652857Y-79768857D02*
X54824285Y-79826000D01*
X55224285Y-79768857D02*
X55509999Y-80968857D01*
X55509999Y-80968857D02*
X55738571Y-80111714D01*
X55738571Y-80111714D02*
X55967142Y-80968857D01*
X55967142Y-80968857D02*
X56252857Y-79768857D01*
X56595714Y-79768857D02*
X57338571Y-79768857D01*
X57338571Y-79768857D02*
X56938571Y-80226000D01*
X56938571Y-80226000D02*
X57110000Y-80226000D01*
X57110000Y-80226000D02*
X57224286Y-80283142D01*
X57224286Y-80283142D02*
X57281428Y-80340285D01*
X57281428Y-80340285D02*
X57338571Y-80454571D01*
X57338571Y-80454571D02*
X57338571Y-80740285D01*
X57338571Y-80740285D02*
X57281428Y-80854571D01*
X57281428Y-80854571D02*
X57224286Y-80911714D01*
X57224286Y-80911714D02*
X57110000Y-80968857D01*
X57110000Y-80968857D02*
X56767143Y-80968857D01*
X56767143Y-80968857D02*
X56652857Y-80911714D01*
X56652857Y-80911714D02*
X56595714Y-80854571D01*
X58024285Y-80283142D02*
X57910000Y-80226000D01*
X57910000Y-80226000D02*
X57852857Y-80168857D01*
X57852857Y-80168857D02*
X57795714Y-80054571D01*
X57795714Y-80054571D02*
X57795714Y-79997428D01*
X57795714Y-79997428D02*
X57852857Y-79883142D01*
X57852857Y-79883142D02*
X57910000Y-79826000D01*
X57910000Y-79826000D02*
X58024285Y-79768857D01*
X58024285Y-79768857D02*
X58252857Y-79768857D01*
X58252857Y-79768857D02*
X58367143Y-79826000D01*
X58367143Y-79826000D02*
X58424285Y-79883142D01*
X58424285Y-79883142D02*
X58481428Y-79997428D01*
X58481428Y-79997428D02*
X58481428Y-80054571D01*
X58481428Y-80054571D02*
X58424285Y-80168857D01*
X58424285Y-80168857D02*
X58367143Y-80226000D01*
X58367143Y-80226000D02*
X58252857Y-80283142D01*
X58252857Y-80283142D02*
X58024285Y-80283142D01*
X58024285Y-80283142D02*
X57910000Y-80340285D01*
X57910000Y-80340285D02*
X57852857Y-80397428D01*
X57852857Y-80397428D02*
X57795714Y-80511714D01*
X57795714Y-80511714D02*
X57795714Y-80740285D01*
X57795714Y-80740285D02*
X57852857Y-80854571D01*
X57852857Y-80854571D02*
X57910000Y-80911714D01*
X57910000Y-80911714D02*
X58024285Y-80968857D01*
X58024285Y-80968857D02*
X58252857Y-80968857D01*
X58252857Y-80968857D02*
X58367143Y-80911714D01*
X58367143Y-80911714D02*
X58424285Y-80854571D01*
X58424285Y-80854571D02*
X58481428Y-80740285D01*
X58481428Y-80740285D02*
X58481428Y-80511714D01*
X58481428Y-80511714D02*
X58424285Y-80397428D01*
X58424285Y-80397428D02*
X58367143Y-80340285D01*
X58367143Y-80340285D02*
X58252857Y-80283142D01*
D13*
%TO.C,H11*%
X22881905Y-82417380D02*
X22881905Y-81417380D01*
X22881905Y-81893571D02*
X23453333Y-81893571D01*
X23453333Y-82417380D02*
X23453333Y-81417380D01*
X24453333Y-82417380D02*
X23881905Y-82417380D01*
X24167619Y-82417380D02*
X24167619Y-81417380D01*
X24167619Y-81417380D02*
X24072381Y-81560238D01*
X24072381Y-81560238D02*
X23977143Y-81655476D01*
X23977143Y-81655476D02*
X23881905Y-81703095D01*
X25405714Y-82417380D02*
X24834286Y-82417380D01*
X25120000Y-82417380D02*
X25120000Y-81417380D01*
X25120000Y-81417380D02*
X25024762Y-81560238D01*
X25024762Y-81560238D02*
X24929524Y-81655476D01*
X24929524Y-81655476D02*
X24834286Y-81703095D01*
%TO.C,H10*%
X56361905Y-72877380D02*
X56361905Y-71877380D01*
X56361905Y-72353571D02*
X56933333Y-72353571D01*
X56933333Y-72877380D02*
X56933333Y-71877380D01*
X57933333Y-72877380D02*
X57361905Y-72877380D01*
X57647619Y-72877380D02*
X57647619Y-71877380D01*
X57647619Y-71877380D02*
X57552381Y-72020238D01*
X57552381Y-72020238D02*
X57457143Y-72115476D01*
X57457143Y-72115476D02*
X57361905Y-72163095D01*
X58552381Y-71877380D02*
X58647619Y-71877380D01*
X58647619Y-71877380D02*
X58742857Y-71925000D01*
X58742857Y-71925000D02*
X58790476Y-71972619D01*
X58790476Y-71972619D02*
X58838095Y-72067857D01*
X58838095Y-72067857D02*
X58885714Y-72258333D01*
X58885714Y-72258333D02*
X58885714Y-72496428D01*
X58885714Y-72496428D02*
X58838095Y-72686904D01*
X58838095Y-72686904D02*
X58790476Y-72782142D01*
X58790476Y-72782142D02*
X58742857Y-72829761D01*
X58742857Y-72829761D02*
X58647619Y-72877380D01*
X58647619Y-72877380D02*
X58552381Y-72877380D01*
X58552381Y-72877380D02*
X58457143Y-72829761D01*
X58457143Y-72829761D02*
X58409524Y-72782142D01*
X58409524Y-72782142D02*
X58361905Y-72686904D01*
X58361905Y-72686904D02*
X58314286Y-72496428D01*
X58314286Y-72496428D02*
X58314286Y-72258333D01*
X58314286Y-72258333D02*
X58361905Y-72067857D01*
X58361905Y-72067857D02*
X58409524Y-71972619D01*
X58409524Y-71972619D02*
X58457143Y-71925000D01*
X58457143Y-71925000D02*
X58552381Y-71877380D01*
%TO.C,H12*%
X23051905Y-44467380D02*
X23051905Y-43467380D01*
X23051905Y-43943571D02*
X23623333Y-43943571D01*
X23623333Y-44467380D02*
X23623333Y-43467380D01*
X24623333Y-44467380D02*
X24051905Y-44467380D01*
X24337619Y-44467380D02*
X24337619Y-43467380D01*
X24337619Y-43467380D02*
X24242381Y-43610238D01*
X24242381Y-43610238D02*
X24147143Y-43705476D01*
X24147143Y-43705476D02*
X24051905Y-43753095D01*
X25004286Y-43562619D02*
X25051905Y-43515000D01*
X25051905Y-43515000D02*
X25147143Y-43467380D01*
X25147143Y-43467380D02*
X25385238Y-43467380D01*
X25385238Y-43467380D02*
X25480476Y-43515000D01*
X25480476Y-43515000D02*
X25528095Y-43562619D01*
X25528095Y-43562619D02*
X25575714Y-43657857D01*
X25575714Y-43657857D02*
X25575714Y-43753095D01*
X25575714Y-43753095D02*
X25528095Y-43895952D01*
X25528095Y-43895952D02*
X24956667Y-44467380D01*
X24956667Y-44467380D02*
X25575714Y-44467380D01*
%TO.C,H9*%
X56818095Y-34807380D02*
X56818095Y-33807380D01*
X56818095Y-34283571D02*
X57389523Y-34283571D01*
X57389523Y-34807380D02*
X57389523Y-33807380D01*
X57913333Y-34807380D02*
X58103809Y-34807380D01*
X58103809Y-34807380D02*
X58199047Y-34759761D01*
X58199047Y-34759761D02*
X58246666Y-34712142D01*
X58246666Y-34712142D02*
X58341904Y-34569285D01*
X58341904Y-34569285D02*
X58389523Y-34378809D01*
X58389523Y-34378809D02*
X58389523Y-33997857D01*
X58389523Y-33997857D02*
X58341904Y-33902619D01*
X58341904Y-33902619D02*
X58294285Y-33855000D01*
X58294285Y-33855000D02*
X58199047Y-33807380D01*
X58199047Y-33807380D02*
X58008571Y-33807380D01*
X58008571Y-33807380D02*
X57913333Y-33855000D01*
X57913333Y-33855000D02*
X57865714Y-33902619D01*
X57865714Y-33902619D02*
X57818095Y-33997857D01*
X57818095Y-33997857D02*
X57818095Y-34235952D01*
X57818095Y-34235952D02*
X57865714Y-34331190D01*
X57865714Y-34331190D02*
X57913333Y-34378809D01*
X57913333Y-34378809D02*
X58008571Y-34426428D01*
X58008571Y-34426428D02*
X58199047Y-34426428D01*
X58199047Y-34426428D02*
X58294285Y-34378809D01*
X58294285Y-34378809D02*
X58341904Y-34331190D01*
X58341904Y-34331190D02*
X58389523Y-34235952D01*
%TO.C,SW38*%
X43653125Y-75803125D02*
X45240625Y-75803125D01*
X43653125Y-77390625D02*
X43653125Y-75803125D01*
X43653125Y-89296875D02*
X43653125Y-87709375D01*
X45240625Y-89296875D02*
X43653125Y-89296875D01*
X55559375Y-75803125D02*
X57146875Y-75803125D01*
X57146875Y-75803125D02*
X57146875Y-77390625D01*
X57146875Y-87709375D02*
X57146875Y-89296875D01*
X57146875Y-89296875D02*
X55559375Y-89296875D01*
%TO.C,SW17*%
X24563125Y-47233125D02*
X26150625Y-47233125D01*
X24563125Y-48820625D02*
X24563125Y-47233125D01*
X24563125Y-60726875D02*
X24563125Y-59139375D01*
X26150625Y-60726875D02*
X24563125Y-60726875D01*
X36469375Y-47233125D02*
X38056875Y-47233125D01*
X38056875Y-47233125D02*
X38056875Y-48820625D01*
X38056875Y-59139375D02*
X38056875Y-60726875D01*
X38056875Y-60726875D02*
X36469375Y-60726875D01*
%TO.C,SW13*%
X24563125Y-28183125D02*
X26150625Y-28183125D01*
X24563125Y-29770625D02*
X24563125Y-28183125D01*
X24563125Y-41676875D02*
X24563125Y-40089375D01*
X26150625Y-41676875D02*
X24563125Y-41676875D01*
X36469375Y-28183125D02*
X38056875Y-28183125D01*
X38056875Y-28183125D02*
X38056875Y-29770625D01*
X38056875Y-40089375D02*
X38056875Y-41676875D01*
X38056875Y-41676875D02*
X36469375Y-41676875D01*
%TO.C,SW18*%
X43653125Y-37703125D02*
X45240625Y-37703125D01*
X43653125Y-39290625D02*
X43653125Y-37703125D01*
X43653125Y-51196875D02*
X43653125Y-49609375D01*
X45240625Y-51196875D02*
X43653125Y-51196875D01*
X55559375Y-37703125D02*
X57146875Y-37703125D01*
X57146875Y-37703125D02*
X57146875Y-39290625D01*
X57146875Y-49609375D02*
X57146875Y-51196875D01*
X57146875Y-51196875D02*
X55559375Y-51196875D01*
%TO.C,SW34*%
X43653125Y-56753125D02*
X45240625Y-56753125D01*
X43653125Y-58340625D02*
X43653125Y-56753125D01*
X43653125Y-70246875D02*
X43653125Y-68659375D01*
X45240625Y-70246875D02*
X43653125Y-70246875D01*
X55559375Y-56753125D02*
X57146875Y-56753125D01*
X57146875Y-56753125D02*
X57146875Y-58340625D01*
X57146875Y-68659375D02*
X57146875Y-70246875D01*
X57146875Y-70246875D02*
X55559375Y-70246875D01*
%TO.C,SW33*%
X38056875Y-79776875D02*
X36469375Y-79776875D01*
X38056875Y-78189375D02*
X38056875Y-79776875D01*
X38056875Y-66283125D02*
X38056875Y-67870625D01*
X36469375Y-66283125D02*
X38056875Y-66283125D01*
X26150625Y-79776875D02*
X24563125Y-79776875D01*
X24563125Y-79776875D02*
X24563125Y-78189375D01*
X24563125Y-67870625D02*
X24563125Y-66283125D01*
X24563125Y-66283125D02*
X26150625Y-66283125D01*
%TO.C,SW37*%
X24563125Y-85333125D02*
X26150625Y-85333125D01*
X24563125Y-86920625D02*
X24563125Y-85333125D01*
X24563125Y-98826875D02*
X24563125Y-97239375D01*
X26150625Y-98826875D02*
X24563125Y-98826875D01*
X36469375Y-85333125D02*
X38056875Y-85333125D01*
X38056875Y-85333125D02*
X38056875Y-86920625D01*
X38056875Y-97239375D02*
X38056875Y-98826875D01*
X38056875Y-98826875D02*
X36469375Y-98826875D01*
%TO.C,SW14*%
X43653125Y-18653125D02*
X45240625Y-18653125D01*
X43653125Y-20240625D02*
X43653125Y-18653125D01*
X43653125Y-32146875D02*
X43653125Y-30559375D01*
X45240625Y-32146875D02*
X43653125Y-32146875D01*
X55559375Y-18653125D02*
X57146875Y-18653125D01*
X57146875Y-18653125D02*
X57146875Y-20240625D01*
X57146875Y-30559375D02*
X57146875Y-32146875D01*
X57146875Y-32146875D02*
X55559375Y-32146875D01*
%TD*%
M02*
