%TF.GenerationSoftware,KiCad,Pcbnew,(7.0.0-0)*%
%TF.CreationDate,2023-02-26T21:11:16+09:00*%
%TF.ProjectId,pangaea-pcb-pinkey-k2-0.5ushift,70616e67-6165-4612-9d70-63622d70696e,rev?*%
%TF.SameCoordinates,Original*%
%TF.FileFunction,Paste,Bot*%
%TF.FilePolarity,Positive*%
%FSLAX46Y46*%
G04 Gerber Fmt 4.6, Leading zero omitted, Abs format (unit mm)*
G04 Created by KiCad (PCBNEW (7.0.0-0)) date 2023-02-26 21:11:16*
%MOMM*%
%LPD*%
G01*
G04 APERTURE LIST*
G04 Aperture macros list*
%AMRoundRect*
0 Rectangle with rounded corners*
0 $1 Rounding radius*
0 $2 $3 $4 $5 $6 $7 $8 $9 X,Y pos of 4 corners*
0 Add a 4 corners polygon primitive as box body*
4,1,4,$2,$3,$4,$5,$6,$7,$8,$9,$2,$3,0*
0 Add four circle primitives for the rounded corners*
1,1,$1+$1,$2,$3*
1,1,$1+$1,$4,$5*
1,1,$1+$1,$6,$7*
1,1,$1+$1,$8,$9*
0 Add four rect primitives between the rounded corners*
20,1,$1+$1,$2,$3,$4,$5,0*
20,1,$1+$1,$4,$5,$6,$7,0*
20,1,$1+$1,$6,$7,$8,$9,0*
20,1,$1+$1,$8,$9,$2,$3,0*%
G04 Aperture macros list end*
%ADD10R,1.200000X1.200000*%
%ADD11RoundRect,0.150000X-0.150000X-0.650000X0.150000X-0.650000X0.150000X0.650000X-0.150000X0.650000X0*%
%ADD12R,2.200000X2.000000*%
G04 APERTURE END LIST*
D10*
%TO.C,D18*%
X52069999Y-36369999D03*
X48619999Y-36369999D03*
%TD*%
D11*
%TO.C,J9*%
X37450000Y-55710000D03*
X38450000Y-55710000D03*
X39450000Y-55710000D03*
X40450000Y-55710000D03*
%TD*%
D12*
%TO.C,SW38*%
X42199999Y-86249999D03*
X43399999Y-80009999D03*
X53599999Y-88439999D03*
X56099999Y-77469999D03*
%TD*%
%TO.C,SW17*%
X23109999Y-57679999D03*
X24309999Y-51439999D03*
X34509999Y-59869999D03*
X37009999Y-48899999D03*
%TD*%
D10*
%TO.C,D38*%
X51599999Y-74399999D03*
X48149999Y-74399999D03*
%TD*%
D12*
%TO.C,SW13*%
X23109999Y-38629999D03*
X24309999Y-32389999D03*
X34509999Y-40819999D03*
X37009999Y-29849999D03*
%TD*%
D10*
%TO.C,D13*%
X32824999Y-26699999D03*
X29374999Y-26699999D03*
%TD*%
%TO.C,D34*%
X51724999Y-55139999D03*
X48274999Y-55139999D03*
%TD*%
D12*
%TO.C,SW18*%
X42199999Y-48149999D03*
X43399999Y-41909999D03*
X53599999Y-50339999D03*
X56099999Y-39369999D03*
%TD*%
D10*
%TO.C,D33*%
X33324999Y-65049999D03*
X29874999Y-65049999D03*
%TD*%
D12*
%TO.C,SW34*%
X42199999Y-67199999D03*
X43399999Y-60959999D03*
X53599999Y-69389999D03*
X56099999Y-58419999D03*
%TD*%
%TO.C,SW33*%
X37009999Y-67949999D03*
X34509999Y-78919999D03*
X24309999Y-70489999D03*
X23109999Y-76729999D03*
%TD*%
D10*
%TO.C,D17*%
X32774999Y-45649999D03*
X29324999Y-45649999D03*
%TD*%
%TO.C,D37*%
X32774999Y-84199999D03*
X29324999Y-84199999D03*
%TD*%
%TO.C,D14*%
X51554999Y-17329999D03*
X48104999Y-17329999D03*
%TD*%
D12*
%TO.C,SW37*%
X23109999Y-95779999D03*
X24309999Y-89539999D03*
X34509999Y-97969999D03*
X37009999Y-86999999D03*
%TD*%
%TO.C,SW14*%
X42199999Y-29099999D03*
X43399999Y-22859999D03*
X53599999Y-31289999D03*
X56099999Y-20319999D03*
%TD*%
D11*
%TO.C,J8*%
X37590000Y-74340000D03*
X38590000Y-74340000D03*
X39590000Y-74340000D03*
X40590000Y-74340000D03*
%TD*%
M02*
