%TF.GenerationSoftware,KiCad,Pcbnew,(7.0.0-0)*%
%TF.CreationDate,2023-02-26T21:11:12+09:00*%
%TF.ProjectId,pangaea-pcb-pinkey-k2-0.5ushift,70616e67-6165-4612-9d70-63622d70696e,rev?*%
%TF.SameCoordinates,Original*%
%TF.FileFunction,Drillmap*%
%TF.FilePolarity,Positive*%
%FSLAX45Y45*%
G04 Gerber Fmt 4.5, Leading zero omitted, Abs format (unit mm)*
G04 Created by KiCad (PCBNEW (7.0.0-0)) date 2023-02-26 21:11:12*
%MOMM*%
%LPD*%
G01*
G04 APERTURE LIST*
%ADD10C,0.150000*%
%ADD11C,0.200000*%
%ADD12C,0.040000*%
%ADD13C,0.075000*%
%ADD14C,0.100000*%
%ADD15C,0.300000*%
G04 APERTURE END LIST*
D10*
X5941003Y-9204816D02*
G75*
G03*
X5992008Y-9150891I-5003J55816D01*
G01*
X2178136Y-10079917D02*
G75*
G03*
X2254065Y-10159122I75454J-3663D01*
G01*
X2258677Y-2540164D02*
G75*
G03*
X2177411Y-2617538I-2011J-79251D01*
G01*
X4155359Y-9204375D02*
X5941003Y-9204816D01*
X4167126Y-1586751D02*
G75*
G03*
X4087751Y-1666126I4J-79379D01*
G01*
X5992008Y-1666967D02*
X5992008Y-9150891D01*
X4014516Y-2541002D02*
G75*
G03*
X4088000Y-2461000I-6796J79992D01*
G01*
X5993748Y-1666908D02*
G75*
G03*
X5912000Y-1587000I-82658J-2792D01*
G01*
X4087751Y-1666126D02*
X4088000Y-2461000D01*
X4004257Y-10160490D02*
G75*
G03*
X4083000Y-10100000I-22027J110170D01*
G01*
X4155359Y-9204373D02*
G75*
G03*
X4083268Y-9269500I26671J-101987D01*
G01*
X4014515Y-2541000D02*
X2258677Y-2540163D01*
X2177411Y-2617538D02*
X2178134Y-10079917D01*
X2254065Y-10159122D02*
X4003935Y-10158878D01*
X5912000Y-1587000D02*
X4167126Y-1586751D01*
X4083000Y-9269500D02*
X4083000Y-10100000D01*
D11*
D12*
X3971760Y-7570110D02*
X4011760Y-7610110D01*
X4011760Y-7570110D02*
X3971760Y-7610110D01*
D13*
X2825000Y-4565000D02*
G75*
G03*
X2825000Y-4565000I-37500J0D01*
G01*
X2825000Y-8420000D02*
G75*
G03*
X2825000Y-8420000I-37500J0D01*
G01*
X2830000Y-2670000D02*
G75*
G03*
X2830000Y-2670000I-37500J0D01*
G01*
X2880000Y-6505000D02*
G75*
G03*
X2880000Y-6505000I-37500J0D01*
G01*
X3460000Y-4565000D02*
G75*
G03*
X3460000Y-4565000I-37500J0D01*
G01*
X3460000Y-8420000D02*
G75*
G03*
X3460000Y-8420000I-37500J0D01*
G01*
X3465000Y-2670000D02*
G75*
G03*
X3465000Y-2670000I-37500J0D01*
G01*
X3515000Y-6505000D02*
G75*
G03*
X3515000Y-6505000I-37500J0D01*
G01*
X4703000Y-1733000D02*
G75*
G03*
X4703000Y-1733000I-37500J0D01*
G01*
X4707500Y-7440000D02*
G75*
G03*
X4707500Y-7440000I-37500J0D01*
G01*
X4720000Y-5514000D02*
G75*
G03*
X4720000Y-5514000I-37500J0D01*
G01*
X4754500Y-3637000D02*
G75*
G03*
X4754500Y-3637000I-37500J0D01*
G01*
X5338000Y-1733000D02*
G75*
G03*
X5338000Y-1733000I-37500J0D01*
G01*
X5342500Y-7440000D02*
G75*
G03*
X5342500Y-7440000I-37500J0D01*
G01*
X5355000Y-5514000D02*
G75*
G03*
X5355000Y-5514000I-37500J0D01*
G01*
X5389500Y-3637000D02*
G75*
G03*
X5389500Y-3637000I-37500J0D01*
G01*
D14*
X3615000Y-5851000D02*
X3615000Y-5951000D01*
X3565000Y-5901000D02*
X3665000Y-5901000D01*
X3629000Y-7714000D02*
X3629000Y-7814000D01*
X3579000Y-7764000D02*
X3679000Y-7764000D01*
X4175000Y-5851000D02*
X4175000Y-5951000D01*
X4125000Y-5901000D02*
X4225000Y-5901000D01*
X4189000Y-7714000D02*
X4189000Y-7814000D01*
X4139000Y-7764000D02*
X4239000Y-7764000D01*
D15*
X2737067Y-3969067D02*
X2737067Y-3756933D01*
X2524933Y-3756933D01*
X2524933Y-3969067D01*
X2737067Y-3969067D01*
X2737067Y-5874067D02*
X2737067Y-5661933D01*
X2524933Y-5661933D01*
X2524933Y-5874067D01*
X2737067Y-5874067D01*
X2737067Y-7779067D02*
X2737067Y-7566933D01*
X2524933Y-7566933D01*
X2524933Y-7779067D01*
X2737067Y-7779067D01*
X2737067Y-9684067D02*
X2737067Y-9471933D01*
X2524933Y-9471933D01*
X2524933Y-9684067D01*
X2737067Y-9684067D01*
X2856067Y-3345067D02*
X2856067Y-3132933D01*
X2643933Y-3132933D01*
X2643933Y-3345067D01*
X2856067Y-3345067D01*
X2856067Y-5250067D02*
X2856067Y-5037933D01*
X2643933Y-5037933D01*
X2643933Y-5250067D01*
X2856067Y-5250067D01*
X2856067Y-7155067D02*
X2856067Y-6942933D01*
X2643933Y-6942933D01*
X2643933Y-7155067D01*
X2856067Y-7155067D01*
X2856067Y-9060067D02*
X2856067Y-8847933D01*
X2643933Y-8847933D01*
X2643933Y-9060067D01*
X2856067Y-9060067D01*
X3237067Y-4189067D02*
X3237067Y-3976933D01*
X3024933Y-3976933D01*
X3024933Y-4189067D01*
X3237067Y-4189067D01*
X3237067Y-6094067D02*
X3237067Y-5881933D01*
X3024933Y-5881933D01*
X3024933Y-6094067D01*
X3237067Y-6094067D01*
X3237067Y-7999067D02*
X3237067Y-7786933D01*
X3024933Y-7786933D01*
X3024933Y-7999067D01*
X3237067Y-7999067D01*
X3237067Y-9904067D02*
X3237067Y-9691933D01*
X3024933Y-9691933D01*
X3024933Y-9904067D01*
X3237067Y-9904067D01*
X3491067Y-3091067D02*
X3491067Y-2878933D01*
X3278933Y-2878933D01*
X3278933Y-3091067D01*
X3491067Y-3091067D01*
X3491067Y-4996067D02*
X3491067Y-4783933D01*
X3278933Y-4783933D01*
X3278933Y-4996067D01*
X3491067Y-4996067D01*
X3491067Y-6901067D02*
X3491067Y-6688933D01*
X3278933Y-6688933D01*
X3278933Y-6901067D01*
X3491067Y-6901067D01*
X3491067Y-8806067D02*
X3491067Y-8593933D01*
X3278933Y-8593933D01*
X3278933Y-8806067D01*
X3491067Y-8806067D01*
X4646067Y-3016067D02*
X4646067Y-2803933D01*
X4433933Y-2803933D01*
X4433933Y-3016067D01*
X4646067Y-3016067D01*
X4646067Y-4921067D02*
X4646067Y-4708933D01*
X4433933Y-4708933D01*
X4433933Y-4921067D01*
X4646067Y-4921067D01*
X4646067Y-6826067D02*
X4646067Y-6613933D01*
X4433933Y-6613933D01*
X4433933Y-6826067D01*
X4646067Y-6826067D01*
X4646067Y-8731067D02*
X4646067Y-8518933D01*
X4433933Y-8518933D01*
X4433933Y-8731067D01*
X4646067Y-8731067D01*
X4765067Y-2392067D02*
X4765067Y-2179933D01*
X4552933Y-2179933D01*
X4552933Y-2392067D01*
X4765067Y-2392067D01*
X4765067Y-4297067D02*
X4765067Y-4084933D01*
X4552933Y-4084933D01*
X4552933Y-4297067D01*
X4765067Y-4297067D01*
X4765067Y-6202067D02*
X4765067Y-5989933D01*
X4552933Y-5989933D01*
X4552933Y-6202067D01*
X4765067Y-6202067D01*
X4765067Y-8107067D02*
X4765067Y-7894933D01*
X4552933Y-7894933D01*
X4552933Y-8107067D01*
X4765067Y-8107067D01*
X5146067Y-3236067D02*
X5146067Y-3023933D01*
X4933933Y-3023933D01*
X4933933Y-3236067D01*
X5146067Y-3236067D01*
X5146067Y-5141067D02*
X5146067Y-4928933D01*
X4933933Y-4928933D01*
X4933933Y-5141067D01*
X5146067Y-5141067D01*
X5146067Y-7046067D02*
X5146067Y-6833933D01*
X4933933Y-6833933D01*
X4933933Y-7046067D01*
X5146067Y-7046067D01*
X5146067Y-8951067D02*
X5146067Y-8738933D01*
X4933933Y-8738933D01*
X4933933Y-8951067D01*
X5146067Y-8951067D01*
X5400067Y-2138067D02*
X5400067Y-1925933D01*
X5187933Y-1925933D01*
X5187933Y-2138067D01*
X5400067Y-2138067D01*
X5400067Y-4043067D02*
X5400067Y-3830933D01*
X5187933Y-3830933D01*
X5187933Y-4043067D01*
X5400067Y-4043067D01*
X5400067Y-5948067D02*
X5400067Y-5735933D01*
X5187933Y-5735933D01*
X5187933Y-5948067D01*
X5400067Y-5948067D01*
X5400067Y-7853067D02*
X5400067Y-7640933D01*
X5187933Y-7640933D01*
X5187933Y-7853067D01*
X5400067Y-7853067D01*
D11*
X2417530Y-10461466D02*
X2417530Y-10261466D01*
X2417530Y-10261466D02*
X2465149Y-10261466D01*
X2465149Y-10261466D02*
X2493721Y-10270990D01*
X2493721Y-10270990D02*
X2512768Y-10290038D01*
X2512768Y-10290038D02*
X2522292Y-10309085D01*
X2522292Y-10309085D02*
X2531816Y-10347180D01*
X2531816Y-10347180D02*
X2531816Y-10375752D01*
X2531816Y-10375752D02*
X2522292Y-10413847D01*
X2522292Y-10413847D02*
X2512768Y-10432895D01*
X2512768Y-10432895D02*
X2493721Y-10451942D01*
X2493721Y-10451942D02*
X2465149Y-10461466D01*
X2465149Y-10461466D02*
X2417530Y-10461466D01*
X2617530Y-10461466D02*
X2617530Y-10328133D01*
X2617530Y-10366228D02*
X2627054Y-10347180D01*
X2627054Y-10347180D02*
X2636578Y-10337657D01*
X2636578Y-10337657D02*
X2655626Y-10328133D01*
X2655626Y-10328133D02*
X2674673Y-10328133D01*
X2741340Y-10461466D02*
X2741340Y-10328133D01*
X2741340Y-10261466D02*
X2731816Y-10270990D01*
X2731816Y-10270990D02*
X2741340Y-10280514D01*
X2741340Y-10280514D02*
X2750864Y-10270990D01*
X2750864Y-10270990D02*
X2741340Y-10261466D01*
X2741340Y-10261466D02*
X2741340Y-10280514D01*
X2865149Y-10461466D02*
X2846102Y-10451942D01*
X2846102Y-10451942D02*
X2836578Y-10432895D01*
X2836578Y-10432895D02*
X2836578Y-10261466D01*
X2969911Y-10461466D02*
X2950864Y-10451942D01*
X2950864Y-10451942D02*
X2941340Y-10432895D01*
X2941340Y-10432895D02*
X2941340Y-10261466D01*
X3166102Y-10461466D02*
X3166102Y-10261466D01*
X3166102Y-10261466D02*
X3232768Y-10404323D01*
X3232768Y-10404323D02*
X3299435Y-10261466D01*
X3299435Y-10261466D02*
X3299435Y-10461466D01*
X3480387Y-10461466D02*
X3480387Y-10356704D01*
X3480387Y-10356704D02*
X3470864Y-10337657D01*
X3470864Y-10337657D02*
X3451816Y-10328133D01*
X3451816Y-10328133D02*
X3413721Y-10328133D01*
X3413721Y-10328133D02*
X3394673Y-10337657D01*
X3480387Y-10451942D02*
X3461340Y-10461466D01*
X3461340Y-10461466D02*
X3413721Y-10461466D01*
X3413721Y-10461466D02*
X3394673Y-10451942D01*
X3394673Y-10451942D02*
X3385149Y-10432895D01*
X3385149Y-10432895D02*
X3385149Y-10413847D01*
X3385149Y-10413847D02*
X3394673Y-10394800D01*
X3394673Y-10394800D02*
X3413721Y-10385276D01*
X3413721Y-10385276D02*
X3461340Y-10385276D01*
X3461340Y-10385276D02*
X3480387Y-10375752D01*
X3575625Y-10328133D02*
X3575625Y-10528133D01*
X3575625Y-10337657D02*
X3594673Y-10328133D01*
X3594673Y-10328133D02*
X3632768Y-10328133D01*
X3632768Y-10328133D02*
X3651816Y-10337657D01*
X3651816Y-10337657D02*
X3661340Y-10347180D01*
X3661340Y-10347180D02*
X3670864Y-10366228D01*
X3670864Y-10366228D02*
X3670864Y-10423371D01*
X3670864Y-10423371D02*
X3661340Y-10442419D01*
X3661340Y-10442419D02*
X3651816Y-10451942D01*
X3651816Y-10451942D02*
X3632768Y-10461466D01*
X3632768Y-10461466D02*
X3594673Y-10461466D01*
X3594673Y-10461466D02*
X3575625Y-10451942D01*
X3756578Y-10442419D02*
X3766102Y-10451942D01*
X3766102Y-10451942D02*
X3756578Y-10461466D01*
X3756578Y-10461466D02*
X3747054Y-10451942D01*
X3747054Y-10451942D02*
X3756578Y-10442419D01*
X3756578Y-10442419D02*
X3756578Y-10461466D01*
X3756578Y-10337657D02*
X3766102Y-10347180D01*
X3766102Y-10347180D02*
X3756578Y-10356704D01*
X3756578Y-10356704D02*
X3747054Y-10347180D01*
X3747054Y-10347180D02*
X3756578Y-10337657D01*
X3756578Y-10337657D02*
X3756578Y-10356704D01*
D12*
X2129911Y-10787990D02*
X2169911Y-10827990D01*
X2169911Y-10787990D02*
X2129911Y-10827990D01*
D11*
X2455626Y-10681466D02*
X2474673Y-10681466D01*
X2474673Y-10681466D02*
X2493721Y-10690990D01*
X2493721Y-10690990D02*
X2503245Y-10700514D01*
X2503245Y-10700514D02*
X2512768Y-10719561D01*
X2512768Y-10719561D02*
X2522292Y-10757657D01*
X2522292Y-10757657D02*
X2522292Y-10805276D01*
X2522292Y-10805276D02*
X2512768Y-10843371D01*
X2512768Y-10843371D02*
X2503245Y-10862419D01*
X2503245Y-10862419D02*
X2493721Y-10871942D01*
X2493721Y-10871942D02*
X2474673Y-10881466D01*
X2474673Y-10881466D02*
X2455626Y-10881466D01*
X2455626Y-10881466D02*
X2436578Y-10871942D01*
X2436578Y-10871942D02*
X2427054Y-10862419D01*
X2427054Y-10862419D02*
X2417530Y-10843371D01*
X2417530Y-10843371D02*
X2408007Y-10805276D01*
X2408007Y-10805276D02*
X2408007Y-10757657D01*
X2408007Y-10757657D02*
X2417530Y-10719561D01*
X2417530Y-10719561D02*
X2427054Y-10700514D01*
X2427054Y-10700514D02*
X2436578Y-10690990D01*
X2436578Y-10690990D02*
X2455626Y-10681466D01*
X2608007Y-10862419D02*
X2617530Y-10871942D01*
X2617530Y-10871942D02*
X2608007Y-10881466D01*
X2608007Y-10881466D02*
X2598483Y-10871942D01*
X2598483Y-10871942D02*
X2608007Y-10862419D01*
X2608007Y-10862419D02*
X2608007Y-10881466D01*
X2788959Y-10748133D02*
X2788959Y-10881466D01*
X2741340Y-10671942D02*
X2693721Y-10814800D01*
X2693721Y-10814800D02*
X2817530Y-10814800D01*
X2931816Y-10681466D02*
X2950864Y-10681466D01*
X2950864Y-10681466D02*
X2969911Y-10690990D01*
X2969911Y-10690990D02*
X2979435Y-10700514D01*
X2979435Y-10700514D02*
X2988959Y-10719561D01*
X2988959Y-10719561D02*
X2998483Y-10757657D01*
X2998483Y-10757657D02*
X2998483Y-10805276D01*
X2998483Y-10805276D02*
X2988959Y-10843371D01*
X2988959Y-10843371D02*
X2979435Y-10862419D01*
X2979435Y-10862419D02*
X2969911Y-10871942D01*
X2969911Y-10871942D02*
X2950864Y-10881466D01*
X2950864Y-10881466D02*
X2931816Y-10881466D01*
X2931816Y-10881466D02*
X2912768Y-10871942D01*
X2912768Y-10871942D02*
X2903245Y-10862419D01*
X2903245Y-10862419D02*
X2893721Y-10843371D01*
X2893721Y-10843371D02*
X2884197Y-10805276D01*
X2884197Y-10805276D02*
X2884197Y-10757657D01*
X2884197Y-10757657D02*
X2893721Y-10719561D01*
X2893721Y-10719561D02*
X2903245Y-10700514D01*
X2903245Y-10700514D02*
X2912768Y-10690990D01*
X2912768Y-10690990D02*
X2931816Y-10681466D01*
X3122292Y-10681466D02*
X3141340Y-10681466D01*
X3141340Y-10681466D02*
X3160387Y-10690990D01*
X3160387Y-10690990D02*
X3169911Y-10700514D01*
X3169911Y-10700514D02*
X3179435Y-10719561D01*
X3179435Y-10719561D02*
X3188959Y-10757657D01*
X3188959Y-10757657D02*
X3188959Y-10805276D01*
X3188959Y-10805276D02*
X3179435Y-10843371D01*
X3179435Y-10843371D02*
X3169911Y-10862419D01*
X3169911Y-10862419D02*
X3160387Y-10871942D01*
X3160387Y-10871942D02*
X3141340Y-10881466D01*
X3141340Y-10881466D02*
X3122292Y-10881466D01*
X3122292Y-10881466D02*
X3103245Y-10871942D01*
X3103245Y-10871942D02*
X3093721Y-10862419D01*
X3093721Y-10862419D02*
X3084197Y-10843371D01*
X3084197Y-10843371D02*
X3074673Y-10805276D01*
X3074673Y-10805276D02*
X3074673Y-10757657D01*
X3074673Y-10757657D02*
X3084197Y-10719561D01*
X3084197Y-10719561D02*
X3093721Y-10700514D01*
X3093721Y-10700514D02*
X3103245Y-10690990D01*
X3103245Y-10690990D02*
X3122292Y-10681466D01*
X3274673Y-10881466D02*
X3274673Y-10748133D01*
X3274673Y-10767180D02*
X3284197Y-10757657D01*
X3284197Y-10757657D02*
X3303245Y-10748133D01*
X3303245Y-10748133D02*
X3331816Y-10748133D01*
X3331816Y-10748133D02*
X3350864Y-10757657D01*
X3350864Y-10757657D02*
X3360387Y-10776704D01*
X3360387Y-10776704D02*
X3360387Y-10881466D01*
X3360387Y-10776704D02*
X3369911Y-10757657D01*
X3369911Y-10757657D02*
X3388959Y-10748133D01*
X3388959Y-10748133D02*
X3417530Y-10748133D01*
X3417530Y-10748133D02*
X3436578Y-10757657D01*
X3436578Y-10757657D02*
X3446102Y-10776704D01*
X3446102Y-10776704D02*
X3446102Y-10881466D01*
X3541340Y-10881466D02*
X3541340Y-10748133D01*
X3541340Y-10767180D02*
X3550864Y-10757657D01*
X3550864Y-10757657D02*
X3569911Y-10748133D01*
X3569911Y-10748133D02*
X3598483Y-10748133D01*
X3598483Y-10748133D02*
X3617530Y-10757657D01*
X3617530Y-10757657D02*
X3627054Y-10776704D01*
X3627054Y-10776704D02*
X3627054Y-10881466D01*
X3627054Y-10776704D02*
X3636578Y-10757657D01*
X3636578Y-10757657D02*
X3655626Y-10748133D01*
X3655626Y-10748133D02*
X3684197Y-10748133D01*
X3684197Y-10748133D02*
X3703245Y-10757657D01*
X3703245Y-10757657D02*
X3712768Y-10776704D01*
X3712768Y-10776704D02*
X3712768Y-10881466D01*
X4070864Y-10671942D02*
X3899435Y-10929085D01*
X4295626Y-10681466D02*
X4314673Y-10681466D01*
X4314673Y-10681466D02*
X4333721Y-10690990D01*
X4333721Y-10690990D02*
X4343245Y-10700514D01*
X4343245Y-10700514D02*
X4352769Y-10719561D01*
X4352769Y-10719561D02*
X4362292Y-10757657D01*
X4362292Y-10757657D02*
X4362292Y-10805276D01*
X4362292Y-10805276D02*
X4352769Y-10843371D01*
X4352769Y-10843371D02*
X4343245Y-10862419D01*
X4343245Y-10862419D02*
X4333721Y-10871942D01*
X4333721Y-10871942D02*
X4314673Y-10881466D01*
X4314673Y-10881466D02*
X4295626Y-10881466D01*
X4295626Y-10881466D02*
X4276578Y-10871942D01*
X4276578Y-10871942D02*
X4267054Y-10862419D01*
X4267054Y-10862419D02*
X4257530Y-10843371D01*
X4257530Y-10843371D02*
X4248007Y-10805276D01*
X4248007Y-10805276D02*
X4248007Y-10757657D01*
X4248007Y-10757657D02*
X4257530Y-10719561D01*
X4257530Y-10719561D02*
X4267054Y-10700514D01*
X4267054Y-10700514D02*
X4276578Y-10690990D01*
X4276578Y-10690990D02*
X4295626Y-10681466D01*
X4448007Y-10862419D02*
X4457530Y-10871942D01*
X4457530Y-10871942D02*
X4448007Y-10881466D01*
X4448007Y-10881466D02*
X4438483Y-10871942D01*
X4438483Y-10871942D02*
X4448007Y-10862419D01*
X4448007Y-10862419D02*
X4448007Y-10881466D01*
X4581340Y-10681466D02*
X4600388Y-10681466D01*
X4600388Y-10681466D02*
X4619435Y-10690990D01*
X4619435Y-10690990D02*
X4628959Y-10700514D01*
X4628959Y-10700514D02*
X4638483Y-10719561D01*
X4638483Y-10719561D02*
X4648007Y-10757657D01*
X4648007Y-10757657D02*
X4648007Y-10805276D01*
X4648007Y-10805276D02*
X4638483Y-10843371D01*
X4638483Y-10843371D02*
X4628959Y-10862419D01*
X4628959Y-10862419D02*
X4619435Y-10871942D01*
X4619435Y-10871942D02*
X4600388Y-10881466D01*
X4600388Y-10881466D02*
X4581340Y-10881466D01*
X4581340Y-10881466D02*
X4562292Y-10871942D01*
X4562292Y-10871942D02*
X4552769Y-10862419D01*
X4552769Y-10862419D02*
X4543245Y-10843371D01*
X4543245Y-10843371D02*
X4533721Y-10805276D01*
X4533721Y-10805276D02*
X4533721Y-10757657D01*
X4533721Y-10757657D02*
X4543245Y-10719561D01*
X4543245Y-10719561D02*
X4552769Y-10700514D01*
X4552769Y-10700514D02*
X4562292Y-10690990D01*
X4562292Y-10690990D02*
X4581340Y-10681466D01*
X4838483Y-10881466D02*
X4724197Y-10881466D01*
X4781340Y-10881466D02*
X4781340Y-10681466D01*
X4781340Y-10681466D02*
X4762292Y-10710038D01*
X4762292Y-10710038D02*
X4743245Y-10729085D01*
X4743245Y-10729085D02*
X4724197Y-10738609D01*
X5019435Y-10681466D02*
X4924197Y-10681466D01*
X4924197Y-10681466D02*
X4914673Y-10776704D01*
X4914673Y-10776704D02*
X4924197Y-10767180D01*
X4924197Y-10767180D02*
X4943245Y-10757657D01*
X4943245Y-10757657D02*
X4990864Y-10757657D01*
X4990864Y-10757657D02*
X5009911Y-10767180D01*
X5009911Y-10767180D02*
X5019435Y-10776704D01*
X5019435Y-10776704D02*
X5028959Y-10795752D01*
X5028959Y-10795752D02*
X5028959Y-10843371D01*
X5028959Y-10843371D02*
X5019435Y-10862419D01*
X5019435Y-10862419D02*
X5009911Y-10871942D01*
X5009911Y-10871942D02*
X4990864Y-10881466D01*
X4990864Y-10881466D02*
X4943245Y-10881466D01*
X4943245Y-10881466D02*
X4924197Y-10871942D01*
X4924197Y-10871942D02*
X4914673Y-10862419D01*
X5095626Y-10681466D02*
X5228959Y-10681466D01*
X5228959Y-10681466D02*
X5143245Y-10881466D01*
X5295626Y-10681466D02*
X5295626Y-10719561D01*
X5371816Y-10681466D02*
X5371816Y-10719561D01*
X5634673Y-10957657D02*
X5625149Y-10948133D01*
X5625149Y-10948133D02*
X5606102Y-10919561D01*
X5606102Y-10919561D02*
X5596578Y-10900514D01*
X5596578Y-10900514D02*
X5587054Y-10871942D01*
X5587054Y-10871942D02*
X5577531Y-10824323D01*
X5577531Y-10824323D02*
X5577531Y-10786228D01*
X5577531Y-10786228D02*
X5587054Y-10738609D01*
X5587054Y-10738609D02*
X5596578Y-10710038D01*
X5596578Y-10710038D02*
X5606102Y-10690990D01*
X5606102Y-10690990D02*
X5625149Y-10662419D01*
X5625149Y-10662419D02*
X5634673Y-10652895D01*
X5815626Y-10881466D02*
X5701340Y-10881466D01*
X5758483Y-10881466D02*
X5758483Y-10681466D01*
X5758483Y-10681466D02*
X5739435Y-10710038D01*
X5739435Y-10710038D02*
X5720388Y-10729085D01*
X5720388Y-10729085D02*
X5701340Y-10738609D01*
X6021340Y-10881466D02*
X6021340Y-10681466D01*
X6107054Y-10881466D02*
X6107054Y-10776704D01*
X6107054Y-10776704D02*
X6097530Y-10757657D01*
X6097530Y-10757657D02*
X6078483Y-10748133D01*
X6078483Y-10748133D02*
X6049911Y-10748133D01*
X6049911Y-10748133D02*
X6030864Y-10757657D01*
X6030864Y-10757657D02*
X6021340Y-10767180D01*
X6230864Y-10881466D02*
X6211816Y-10871942D01*
X6211816Y-10871942D02*
X6202292Y-10862419D01*
X6202292Y-10862419D02*
X6192769Y-10843371D01*
X6192769Y-10843371D02*
X6192769Y-10786228D01*
X6192769Y-10786228D02*
X6202292Y-10767180D01*
X6202292Y-10767180D02*
X6211816Y-10757657D01*
X6211816Y-10757657D02*
X6230864Y-10748133D01*
X6230864Y-10748133D02*
X6259435Y-10748133D01*
X6259435Y-10748133D02*
X6278483Y-10757657D01*
X6278483Y-10757657D02*
X6288007Y-10767180D01*
X6288007Y-10767180D02*
X6297530Y-10786228D01*
X6297530Y-10786228D02*
X6297530Y-10843371D01*
X6297530Y-10843371D02*
X6288007Y-10862419D01*
X6288007Y-10862419D02*
X6278483Y-10871942D01*
X6278483Y-10871942D02*
X6259435Y-10881466D01*
X6259435Y-10881466D02*
X6230864Y-10881466D01*
X6411816Y-10881466D02*
X6392769Y-10871942D01*
X6392769Y-10871942D02*
X6383245Y-10852895D01*
X6383245Y-10852895D02*
X6383245Y-10681466D01*
X6564197Y-10871942D02*
X6545150Y-10881466D01*
X6545150Y-10881466D02*
X6507054Y-10881466D01*
X6507054Y-10881466D02*
X6488007Y-10871942D01*
X6488007Y-10871942D02*
X6478483Y-10852895D01*
X6478483Y-10852895D02*
X6478483Y-10776704D01*
X6478483Y-10776704D02*
X6488007Y-10757657D01*
X6488007Y-10757657D02*
X6507054Y-10748133D01*
X6507054Y-10748133D02*
X6545150Y-10748133D01*
X6545150Y-10748133D02*
X6564197Y-10757657D01*
X6564197Y-10757657D02*
X6573721Y-10776704D01*
X6573721Y-10776704D02*
X6573721Y-10795752D01*
X6573721Y-10795752D02*
X6478483Y-10814800D01*
X6640388Y-10957657D02*
X6649911Y-10948133D01*
X6649911Y-10948133D02*
X6668959Y-10919561D01*
X6668959Y-10919561D02*
X6678483Y-10900514D01*
X6678483Y-10900514D02*
X6688007Y-10871942D01*
X6688007Y-10871942D02*
X6697530Y-10824323D01*
X6697530Y-10824323D02*
X6697530Y-10786228D01*
X6697530Y-10786228D02*
X6688007Y-10738609D01*
X6688007Y-10738609D02*
X6678483Y-10710038D01*
X6678483Y-10710038D02*
X6668959Y-10690990D01*
X6668959Y-10690990D02*
X6649911Y-10662419D01*
X6649911Y-10662419D02*
X6640388Y-10652895D01*
D13*
X2169911Y-11071990D02*
G75*
G03*
X2169911Y-11071990I-37500J0D01*
G01*
D11*
X2455626Y-10945466D02*
X2474673Y-10945466D01*
X2474673Y-10945466D02*
X2493721Y-10954990D01*
X2493721Y-10954990D02*
X2503245Y-10964514D01*
X2503245Y-10964514D02*
X2512768Y-10983561D01*
X2512768Y-10983561D02*
X2522292Y-11021657D01*
X2522292Y-11021657D02*
X2522292Y-11069276D01*
X2522292Y-11069276D02*
X2512768Y-11107371D01*
X2512768Y-11107371D02*
X2503245Y-11126419D01*
X2503245Y-11126419D02*
X2493721Y-11135942D01*
X2493721Y-11135942D02*
X2474673Y-11145466D01*
X2474673Y-11145466D02*
X2455626Y-11145466D01*
X2455626Y-11145466D02*
X2436578Y-11135942D01*
X2436578Y-11135942D02*
X2427054Y-11126419D01*
X2427054Y-11126419D02*
X2417530Y-11107371D01*
X2417530Y-11107371D02*
X2408007Y-11069276D01*
X2408007Y-11069276D02*
X2408007Y-11021657D01*
X2408007Y-11021657D02*
X2417530Y-10983561D01*
X2417530Y-10983561D02*
X2427054Y-10964514D01*
X2427054Y-10964514D02*
X2436578Y-10954990D01*
X2436578Y-10954990D02*
X2455626Y-10945466D01*
X2608007Y-11126419D02*
X2617530Y-11135942D01*
X2617530Y-11135942D02*
X2608007Y-11145466D01*
X2608007Y-11145466D02*
X2598483Y-11135942D01*
X2598483Y-11135942D02*
X2608007Y-11126419D01*
X2608007Y-11126419D02*
X2608007Y-11145466D01*
X2684197Y-10945466D02*
X2817530Y-10945466D01*
X2817530Y-10945466D02*
X2731816Y-11145466D01*
X2988959Y-10945466D02*
X2893721Y-10945466D01*
X2893721Y-10945466D02*
X2884197Y-11040704D01*
X2884197Y-11040704D02*
X2893721Y-11031180D01*
X2893721Y-11031180D02*
X2912768Y-11021657D01*
X2912768Y-11021657D02*
X2960387Y-11021657D01*
X2960387Y-11021657D02*
X2979435Y-11031180D01*
X2979435Y-11031180D02*
X2988959Y-11040704D01*
X2988959Y-11040704D02*
X2998483Y-11059752D01*
X2998483Y-11059752D02*
X2998483Y-11107371D01*
X2998483Y-11107371D02*
X2988959Y-11126419D01*
X2988959Y-11126419D02*
X2979435Y-11135942D01*
X2979435Y-11135942D02*
X2960387Y-11145466D01*
X2960387Y-11145466D02*
X2912768Y-11145466D01*
X2912768Y-11145466D02*
X2893721Y-11135942D01*
X2893721Y-11135942D02*
X2884197Y-11126419D01*
X3122292Y-10945466D02*
X3141340Y-10945466D01*
X3141340Y-10945466D02*
X3160387Y-10954990D01*
X3160387Y-10954990D02*
X3169911Y-10964514D01*
X3169911Y-10964514D02*
X3179435Y-10983561D01*
X3179435Y-10983561D02*
X3188959Y-11021657D01*
X3188959Y-11021657D02*
X3188959Y-11069276D01*
X3188959Y-11069276D02*
X3179435Y-11107371D01*
X3179435Y-11107371D02*
X3169911Y-11126419D01*
X3169911Y-11126419D02*
X3160387Y-11135942D01*
X3160387Y-11135942D02*
X3141340Y-11145466D01*
X3141340Y-11145466D02*
X3122292Y-11145466D01*
X3122292Y-11145466D02*
X3103245Y-11135942D01*
X3103245Y-11135942D02*
X3093721Y-11126419D01*
X3093721Y-11126419D02*
X3084197Y-11107371D01*
X3084197Y-11107371D02*
X3074673Y-11069276D01*
X3074673Y-11069276D02*
X3074673Y-11021657D01*
X3074673Y-11021657D02*
X3084197Y-10983561D01*
X3084197Y-10983561D02*
X3093721Y-10964514D01*
X3093721Y-10964514D02*
X3103245Y-10954990D01*
X3103245Y-10954990D02*
X3122292Y-10945466D01*
X3274673Y-11145466D02*
X3274673Y-11012133D01*
X3274673Y-11031180D02*
X3284197Y-11021657D01*
X3284197Y-11021657D02*
X3303245Y-11012133D01*
X3303245Y-11012133D02*
X3331816Y-11012133D01*
X3331816Y-11012133D02*
X3350864Y-11021657D01*
X3350864Y-11021657D02*
X3360387Y-11040704D01*
X3360387Y-11040704D02*
X3360387Y-11145466D01*
X3360387Y-11040704D02*
X3369911Y-11021657D01*
X3369911Y-11021657D02*
X3388959Y-11012133D01*
X3388959Y-11012133D02*
X3417530Y-11012133D01*
X3417530Y-11012133D02*
X3436578Y-11021657D01*
X3436578Y-11021657D02*
X3446102Y-11040704D01*
X3446102Y-11040704D02*
X3446102Y-11145466D01*
X3541340Y-11145466D02*
X3541340Y-11012133D01*
X3541340Y-11031180D02*
X3550864Y-11021657D01*
X3550864Y-11021657D02*
X3569911Y-11012133D01*
X3569911Y-11012133D02*
X3598483Y-11012133D01*
X3598483Y-11012133D02*
X3617530Y-11021657D01*
X3617530Y-11021657D02*
X3627054Y-11040704D01*
X3627054Y-11040704D02*
X3627054Y-11145466D01*
X3627054Y-11040704D02*
X3636578Y-11021657D01*
X3636578Y-11021657D02*
X3655626Y-11012133D01*
X3655626Y-11012133D02*
X3684197Y-11012133D01*
X3684197Y-11012133D02*
X3703245Y-11021657D01*
X3703245Y-11021657D02*
X3712768Y-11040704D01*
X3712768Y-11040704D02*
X3712768Y-11145466D01*
X4070864Y-10935942D02*
X3899435Y-11193085D01*
X4295626Y-10945466D02*
X4314673Y-10945466D01*
X4314673Y-10945466D02*
X4333721Y-10954990D01*
X4333721Y-10954990D02*
X4343245Y-10964514D01*
X4343245Y-10964514D02*
X4352769Y-10983561D01*
X4352769Y-10983561D02*
X4362292Y-11021657D01*
X4362292Y-11021657D02*
X4362292Y-11069276D01*
X4362292Y-11069276D02*
X4352769Y-11107371D01*
X4352769Y-11107371D02*
X4343245Y-11126419D01*
X4343245Y-11126419D02*
X4333721Y-11135942D01*
X4333721Y-11135942D02*
X4314673Y-11145466D01*
X4314673Y-11145466D02*
X4295626Y-11145466D01*
X4295626Y-11145466D02*
X4276578Y-11135942D01*
X4276578Y-11135942D02*
X4267054Y-11126419D01*
X4267054Y-11126419D02*
X4257530Y-11107371D01*
X4257530Y-11107371D02*
X4248007Y-11069276D01*
X4248007Y-11069276D02*
X4248007Y-11021657D01*
X4248007Y-11021657D02*
X4257530Y-10983561D01*
X4257530Y-10983561D02*
X4267054Y-10964514D01*
X4267054Y-10964514D02*
X4276578Y-10954990D01*
X4276578Y-10954990D02*
X4295626Y-10945466D01*
X4448007Y-11126419D02*
X4457530Y-11135942D01*
X4457530Y-11135942D02*
X4448007Y-11145466D01*
X4448007Y-11145466D02*
X4438483Y-11135942D01*
X4438483Y-11135942D02*
X4448007Y-11126419D01*
X4448007Y-11126419D02*
X4448007Y-11145466D01*
X4581340Y-10945466D02*
X4600388Y-10945466D01*
X4600388Y-10945466D02*
X4619435Y-10954990D01*
X4619435Y-10954990D02*
X4628959Y-10964514D01*
X4628959Y-10964514D02*
X4638483Y-10983561D01*
X4638483Y-10983561D02*
X4648007Y-11021657D01*
X4648007Y-11021657D02*
X4648007Y-11069276D01*
X4648007Y-11069276D02*
X4638483Y-11107371D01*
X4638483Y-11107371D02*
X4628959Y-11126419D01*
X4628959Y-11126419D02*
X4619435Y-11135942D01*
X4619435Y-11135942D02*
X4600388Y-11145466D01*
X4600388Y-11145466D02*
X4581340Y-11145466D01*
X4581340Y-11145466D02*
X4562292Y-11135942D01*
X4562292Y-11135942D02*
X4552769Y-11126419D01*
X4552769Y-11126419D02*
X4543245Y-11107371D01*
X4543245Y-11107371D02*
X4533721Y-11069276D01*
X4533721Y-11069276D02*
X4533721Y-11021657D01*
X4533721Y-11021657D02*
X4543245Y-10983561D01*
X4543245Y-10983561D02*
X4552769Y-10964514D01*
X4552769Y-10964514D02*
X4562292Y-10954990D01*
X4562292Y-10954990D02*
X4581340Y-10945466D01*
X4724197Y-10964514D02*
X4733721Y-10954990D01*
X4733721Y-10954990D02*
X4752769Y-10945466D01*
X4752769Y-10945466D02*
X4800388Y-10945466D01*
X4800388Y-10945466D02*
X4819435Y-10954990D01*
X4819435Y-10954990D02*
X4828959Y-10964514D01*
X4828959Y-10964514D02*
X4838483Y-10983561D01*
X4838483Y-10983561D02*
X4838483Y-11002609D01*
X4838483Y-11002609D02*
X4828959Y-11031180D01*
X4828959Y-11031180D02*
X4714673Y-11145466D01*
X4714673Y-11145466D02*
X4838483Y-11145466D01*
X4933721Y-11145466D02*
X4971816Y-11145466D01*
X4971816Y-11145466D02*
X4990864Y-11135942D01*
X4990864Y-11135942D02*
X5000388Y-11126419D01*
X5000388Y-11126419D02*
X5019435Y-11097847D01*
X5019435Y-11097847D02*
X5028959Y-11059752D01*
X5028959Y-11059752D02*
X5028959Y-10983561D01*
X5028959Y-10983561D02*
X5019435Y-10964514D01*
X5019435Y-10964514D02*
X5009911Y-10954990D01*
X5009911Y-10954990D02*
X4990864Y-10945466D01*
X4990864Y-10945466D02*
X4952769Y-10945466D01*
X4952769Y-10945466D02*
X4933721Y-10954990D01*
X4933721Y-10954990D02*
X4924197Y-10964514D01*
X4924197Y-10964514D02*
X4914673Y-10983561D01*
X4914673Y-10983561D02*
X4914673Y-11031180D01*
X4914673Y-11031180D02*
X4924197Y-11050228D01*
X4924197Y-11050228D02*
X4933721Y-11059752D01*
X4933721Y-11059752D02*
X4952769Y-11069276D01*
X4952769Y-11069276D02*
X4990864Y-11069276D01*
X4990864Y-11069276D02*
X5009911Y-11059752D01*
X5009911Y-11059752D02*
X5019435Y-11050228D01*
X5019435Y-11050228D02*
X5028959Y-11031180D01*
X5209911Y-10945466D02*
X5114673Y-10945466D01*
X5114673Y-10945466D02*
X5105150Y-11040704D01*
X5105150Y-11040704D02*
X5114673Y-11031180D01*
X5114673Y-11031180D02*
X5133721Y-11021657D01*
X5133721Y-11021657D02*
X5181340Y-11021657D01*
X5181340Y-11021657D02*
X5200388Y-11031180D01*
X5200388Y-11031180D02*
X5209911Y-11040704D01*
X5209911Y-11040704D02*
X5219435Y-11059752D01*
X5219435Y-11059752D02*
X5219435Y-11107371D01*
X5219435Y-11107371D02*
X5209911Y-11126419D01*
X5209911Y-11126419D02*
X5200388Y-11135942D01*
X5200388Y-11135942D02*
X5181340Y-11145466D01*
X5181340Y-11145466D02*
X5133721Y-11145466D01*
X5133721Y-11145466D02*
X5114673Y-11135942D01*
X5114673Y-11135942D02*
X5105150Y-11126419D01*
X5295626Y-10945466D02*
X5295626Y-10983561D01*
X5371816Y-10945466D02*
X5371816Y-10983561D01*
X5634673Y-11221657D02*
X5625149Y-11212133D01*
X5625149Y-11212133D02*
X5606102Y-11183561D01*
X5606102Y-11183561D02*
X5596578Y-11164514D01*
X5596578Y-11164514D02*
X5587054Y-11135942D01*
X5587054Y-11135942D02*
X5577531Y-11088323D01*
X5577531Y-11088323D02*
X5577531Y-11050228D01*
X5577531Y-11050228D02*
X5587054Y-11002609D01*
X5587054Y-11002609D02*
X5596578Y-10974038D01*
X5596578Y-10974038D02*
X5606102Y-10954990D01*
X5606102Y-10954990D02*
X5625149Y-10926419D01*
X5625149Y-10926419D02*
X5634673Y-10916895D01*
X5815626Y-11145466D02*
X5701340Y-11145466D01*
X5758483Y-11145466D02*
X5758483Y-10945466D01*
X5758483Y-10945466D02*
X5739435Y-10974038D01*
X5739435Y-10974038D02*
X5720388Y-10993085D01*
X5720388Y-10993085D02*
X5701340Y-11002609D01*
X5987054Y-10945466D02*
X5948959Y-10945466D01*
X5948959Y-10945466D02*
X5929911Y-10954990D01*
X5929911Y-10954990D02*
X5920388Y-10964514D01*
X5920388Y-10964514D02*
X5901340Y-10993085D01*
X5901340Y-10993085D02*
X5891816Y-11031180D01*
X5891816Y-11031180D02*
X5891816Y-11107371D01*
X5891816Y-11107371D02*
X5901340Y-11126419D01*
X5901340Y-11126419D02*
X5910864Y-11135942D01*
X5910864Y-11135942D02*
X5929911Y-11145466D01*
X5929911Y-11145466D02*
X5968007Y-11145466D01*
X5968007Y-11145466D02*
X5987054Y-11135942D01*
X5987054Y-11135942D02*
X5996578Y-11126419D01*
X5996578Y-11126419D02*
X6006102Y-11107371D01*
X6006102Y-11107371D02*
X6006102Y-11059752D01*
X6006102Y-11059752D02*
X5996578Y-11040704D01*
X5996578Y-11040704D02*
X5987054Y-11031180D01*
X5987054Y-11031180D02*
X5968007Y-11021657D01*
X5968007Y-11021657D02*
X5929911Y-11021657D01*
X5929911Y-11021657D02*
X5910864Y-11031180D01*
X5910864Y-11031180D02*
X5901340Y-11040704D01*
X5901340Y-11040704D02*
X5891816Y-11059752D01*
X6211816Y-11145466D02*
X6211816Y-10945466D01*
X6297530Y-11145466D02*
X6297530Y-11040704D01*
X6297530Y-11040704D02*
X6288007Y-11021657D01*
X6288007Y-11021657D02*
X6268959Y-11012133D01*
X6268959Y-11012133D02*
X6240388Y-11012133D01*
X6240388Y-11012133D02*
X6221340Y-11021657D01*
X6221340Y-11021657D02*
X6211816Y-11031180D01*
X6421340Y-11145466D02*
X6402292Y-11135942D01*
X6402292Y-11135942D02*
X6392769Y-11126419D01*
X6392769Y-11126419D02*
X6383245Y-11107371D01*
X6383245Y-11107371D02*
X6383245Y-11050228D01*
X6383245Y-11050228D02*
X6392769Y-11031180D01*
X6392769Y-11031180D02*
X6402292Y-11021657D01*
X6402292Y-11021657D02*
X6421340Y-11012133D01*
X6421340Y-11012133D02*
X6449911Y-11012133D01*
X6449911Y-11012133D02*
X6468959Y-11021657D01*
X6468959Y-11021657D02*
X6478483Y-11031180D01*
X6478483Y-11031180D02*
X6488007Y-11050228D01*
X6488007Y-11050228D02*
X6488007Y-11107371D01*
X6488007Y-11107371D02*
X6478483Y-11126419D01*
X6478483Y-11126419D02*
X6468959Y-11135942D01*
X6468959Y-11135942D02*
X6449911Y-11145466D01*
X6449911Y-11145466D02*
X6421340Y-11145466D01*
X6602292Y-11145466D02*
X6583245Y-11135942D01*
X6583245Y-11135942D02*
X6573721Y-11116895D01*
X6573721Y-11116895D02*
X6573721Y-10945466D01*
X6754673Y-11135942D02*
X6735626Y-11145466D01*
X6735626Y-11145466D02*
X6697530Y-11145466D01*
X6697530Y-11145466D02*
X6678483Y-11135942D01*
X6678483Y-11135942D02*
X6668959Y-11116895D01*
X6668959Y-11116895D02*
X6668959Y-11040704D01*
X6668959Y-11040704D02*
X6678483Y-11021657D01*
X6678483Y-11021657D02*
X6697530Y-11012133D01*
X6697530Y-11012133D02*
X6735626Y-11012133D01*
X6735626Y-11012133D02*
X6754673Y-11021657D01*
X6754673Y-11021657D02*
X6764197Y-11040704D01*
X6764197Y-11040704D02*
X6764197Y-11059752D01*
X6764197Y-11059752D02*
X6668959Y-11078800D01*
X6840388Y-11135942D02*
X6859435Y-11145466D01*
X6859435Y-11145466D02*
X6897530Y-11145466D01*
X6897530Y-11145466D02*
X6916578Y-11135942D01*
X6916578Y-11135942D02*
X6926102Y-11116895D01*
X6926102Y-11116895D02*
X6926102Y-11107371D01*
X6926102Y-11107371D02*
X6916578Y-11088323D01*
X6916578Y-11088323D02*
X6897530Y-11078800D01*
X6897530Y-11078800D02*
X6868959Y-11078800D01*
X6868959Y-11078800D02*
X6849911Y-11069276D01*
X6849911Y-11069276D02*
X6840388Y-11050228D01*
X6840388Y-11050228D02*
X6840388Y-11040704D01*
X6840388Y-11040704D02*
X6849911Y-11021657D01*
X6849911Y-11021657D02*
X6868959Y-11012133D01*
X6868959Y-11012133D02*
X6897530Y-11012133D01*
X6897530Y-11012133D02*
X6916578Y-11021657D01*
X6992769Y-11221657D02*
X7002292Y-11212133D01*
X7002292Y-11212133D02*
X7021340Y-11183561D01*
X7021340Y-11183561D02*
X7030864Y-11164514D01*
X7030864Y-11164514D02*
X7040388Y-11135942D01*
X7040388Y-11135942D02*
X7049911Y-11088323D01*
X7049911Y-11088323D02*
X7049911Y-11050228D01*
X7049911Y-11050228D02*
X7040388Y-11002609D01*
X7040388Y-11002609D02*
X7030864Y-10974038D01*
X7030864Y-10974038D02*
X7021340Y-10954990D01*
X7021340Y-10954990D02*
X7002292Y-10926419D01*
X7002292Y-10926419D02*
X6992769Y-10916895D01*
D14*
X2119911Y-11285990D02*
X2119911Y-11385990D01*
X2069911Y-11335990D02*
X2169911Y-11335990D01*
D11*
X2522292Y-11409466D02*
X2408007Y-11409466D01*
X2465149Y-11409466D02*
X2465149Y-11209466D01*
X2465149Y-11209466D02*
X2446102Y-11238038D01*
X2446102Y-11238038D02*
X2427054Y-11257085D01*
X2427054Y-11257085D02*
X2408007Y-11266609D01*
X2608007Y-11390418D02*
X2617530Y-11399942D01*
X2617530Y-11399942D02*
X2608007Y-11409466D01*
X2608007Y-11409466D02*
X2598483Y-11399942D01*
X2598483Y-11399942D02*
X2608007Y-11390418D01*
X2608007Y-11390418D02*
X2608007Y-11409466D01*
X2741340Y-11209466D02*
X2760388Y-11209466D01*
X2760388Y-11209466D02*
X2779435Y-11218990D01*
X2779435Y-11218990D02*
X2788959Y-11228514D01*
X2788959Y-11228514D02*
X2798483Y-11247561D01*
X2798483Y-11247561D02*
X2808006Y-11285657D01*
X2808006Y-11285657D02*
X2808006Y-11333276D01*
X2808006Y-11333276D02*
X2798483Y-11371371D01*
X2798483Y-11371371D02*
X2788959Y-11390418D01*
X2788959Y-11390418D02*
X2779435Y-11399942D01*
X2779435Y-11399942D02*
X2760388Y-11409466D01*
X2760388Y-11409466D02*
X2741340Y-11409466D01*
X2741340Y-11409466D02*
X2722292Y-11399942D01*
X2722292Y-11399942D02*
X2712768Y-11390418D01*
X2712768Y-11390418D02*
X2703245Y-11371371D01*
X2703245Y-11371371D02*
X2693721Y-11333276D01*
X2693721Y-11333276D02*
X2693721Y-11285657D01*
X2693721Y-11285657D02*
X2703245Y-11247561D01*
X2703245Y-11247561D02*
X2712768Y-11228514D01*
X2712768Y-11228514D02*
X2722292Y-11218990D01*
X2722292Y-11218990D02*
X2741340Y-11209466D01*
X2931816Y-11209466D02*
X2950864Y-11209466D01*
X2950864Y-11209466D02*
X2969911Y-11218990D01*
X2969911Y-11218990D02*
X2979435Y-11228514D01*
X2979435Y-11228514D02*
X2988959Y-11247561D01*
X2988959Y-11247561D02*
X2998483Y-11285657D01*
X2998483Y-11285657D02*
X2998483Y-11333276D01*
X2998483Y-11333276D02*
X2988959Y-11371371D01*
X2988959Y-11371371D02*
X2979435Y-11390418D01*
X2979435Y-11390418D02*
X2969911Y-11399942D01*
X2969911Y-11399942D02*
X2950864Y-11409466D01*
X2950864Y-11409466D02*
X2931816Y-11409466D01*
X2931816Y-11409466D02*
X2912768Y-11399942D01*
X2912768Y-11399942D02*
X2903245Y-11390418D01*
X2903245Y-11390418D02*
X2893721Y-11371371D01*
X2893721Y-11371371D02*
X2884197Y-11333276D01*
X2884197Y-11333276D02*
X2884197Y-11285657D01*
X2884197Y-11285657D02*
X2893721Y-11247561D01*
X2893721Y-11247561D02*
X2903245Y-11228514D01*
X2903245Y-11228514D02*
X2912768Y-11218990D01*
X2912768Y-11218990D02*
X2931816Y-11209466D01*
X3122292Y-11209466D02*
X3141340Y-11209466D01*
X3141340Y-11209466D02*
X3160387Y-11218990D01*
X3160387Y-11218990D02*
X3169911Y-11228514D01*
X3169911Y-11228514D02*
X3179435Y-11247561D01*
X3179435Y-11247561D02*
X3188959Y-11285657D01*
X3188959Y-11285657D02*
X3188959Y-11333276D01*
X3188959Y-11333276D02*
X3179435Y-11371371D01*
X3179435Y-11371371D02*
X3169911Y-11390418D01*
X3169911Y-11390418D02*
X3160387Y-11399942D01*
X3160387Y-11399942D02*
X3141340Y-11409466D01*
X3141340Y-11409466D02*
X3122292Y-11409466D01*
X3122292Y-11409466D02*
X3103245Y-11399942D01*
X3103245Y-11399942D02*
X3093721Y-11390418D01*
X3093721Y-11390418D02*
X3084197Y-11371371D01*
X3084197Y-11371371D02*
X3074673Y-11333276D01*
X3074673Y-11333276D02*
X3074673Y-11285657D01*
X3074673Y-11285657D02*
X3084197Y-11247561D01*
X3084197Y-11247561D02*
X3093721Y-11228514D01*
X3093721Y-11228514D02*
X3103245Y-11218990D01*
X3103245Y-11218990D02*
X3122292Y-11209466D01*
X3274673Y-11409466D02*
X3274673Y-11276133D01*
X3274673Y-11295180D02*
X3284197Y-11285657D01*
X3284197Y-11285657D02*
X3303245Y-11276133D01*
X3303245Y-11276133D02*
X3331816Y-11276133D01*
X3331816Y-11276133D02*
X3350864Y-11285657D01*
X3350864Y-11285657D02*
X3360387Y-11304704D01*
X3360387Y-11304704D02*
X3360387Y-11409466D01*
X3360387Y-11304704D02*
X3369911Y-11285657D01*
X3369911Y-11285657D02*
X3388959Y-11276133D01*
X3388959Y-11276133D02*
X3417530Y-11276133D01*
X3417530Y-11276133D02*
X3436578Y-11285657D01*
X3436578Y-11285657D02*
X3446102Y-11304704D01*
X3446102Y-11304704D02*
X3446102Y-11409466D01*
X3541340Y-11409466D02*
X3541340Y-11276133D01*
X3541340Y-11295180D02*
X3550864Y-11285657D01*
X3550864Y-11285657D02*
X3569911Y-11276133D01*
X3569911Y-11276133D02*
X3598483Y-11276133D01*
X3598483Y-11276133D02*
X3617530Y-11285657D01*
X3617530Y-11285657D02*
X3627054Y-11304704D01*
X3627054Y-11304704D02*
X3627054Y-11409466D01*
X3627054Y-11304704D02*
X3636578Y-11285657D01*
X3636578Y-11285657D02*
X3655626Y-11276133D01*
X3655626Y-11276133D02*
X3684197Y-11276133D01*
X3684197Y-11276133D02*
X3703245Y-11285657D01*
X3703245Y-11285657D02*
X3712768Y-11304704D01*
X3712768Y-11304704D02*
X3712768Y-11409466D01*
X4070864Y-11199942D02*
X3899435Y-11457085D01*
X4295626Y-11209466D02*
X4314673Y-11209466D01*
X4314673Y-11209466D02*
X4333721Y-11218990D01*
X4333721Y-11218990D02*
X4343245Y-11228514D01*
X4343245Y-11228514D02*
X4352769Y-11247561D01*
X4352769Y-11247561D02*
X4362292Y-11285657D01*
X4362292Y-11285657D02*
X4362292Y-11333276D01*
X4362292Y-11333276D02*
X4352769Y-11371371D01*
X4352769Y-11371371D02*
X4343245Y-11390418D01*
X4343245Y-11390418D02*
X4333721Y-11399942D01*
X4333721Y-11399942D02*
X4314673Y-11409466D01*
X4314673Y-11409466D02*
X4295626Y-11409466D01*
X4295626Y-11409466D02*
X4276578Y-11399942D01*
X4276578Y-11399942D02*
X4267054Y-11390418D01*
X4267054Y-11390418D02*
X4257530Y-11371371D01*
X4257530Y-11371371D02*
X4248007Y-11333276D01*
X4248007Y-11333276D02*
X4248007Y-11285657D01*
X4248007Y-11285657D02*
X4257530Y-11247561D01*
X4257530Y-11247561D02*
X4267054Y-11228514D01*
X4267054Y-11228514D02*
X4276578Y-11218990D01*
X4276578Y-11218990D02*
X4295626Y-11209466D01*
X4448007Y-11390418D02*
X4457530Y-11399942D01*
X4457530Y-11399942D02*
X4448007Y-11409466D01*
X4448007Y-11409466D02*
X4438483Y-11399942D01*
X4438483Y-11399942D02*
X4448007Y-11390418D01*
X4448007Y-11390418D02*
X4448007Y-11409466D01*
X4581340Y-11209466D02*
X4600388Y-11209466D01*
X4600388Y-11209466D02*
X4619435Y-11218990D01*
X4619435Y-11218990D02*
X4628959Y-11228514D01*
X4628959Y-11228514D02*
X4638483Y-11247561D01*
X4638483Y-11247561D02*
X4648007Y-11285657D01*
X4648007Y-11285657D02*
X4648007Y-11333276D01*
X4648007Y-11333276D02*
X4638483Y-11371371D01*
X4638483Y-11371371D02*
X4628959Y-11390418D01*
X4628959Y-11390418D02*
X4619435Y-11399942D01*
X4619435Y-11399942D02*
X4600388Y-11409466D01*
X4600388Y-11409466D02*
X4581340Y-11409466D01*
X4581340Y-11409466D02*
X4562292Y-11399942D01*
X4562292Y-11399942D02*
X4552769Y-11390418D01*
X4552769Y-11390418D02*
X4543245Y-11371371D01*
X4543245Y-11371371D02*
X4533721Y-11333276D01*
X4533721Y-11333276D02*
X4533721Y-11285657D01*
X4533721Y-11285657D02*
X4543245Y-11247561D01*
X4543245Y-11247561D02*
X4552769Y-11228514D01*
X4552769Y-11228514D02*
X4562292Y-11218990D01*
X4562292Y-11218990D02*
X4581340Y-11209466D01*
X4714673Y-11209466D02*
X4838483Y-11209466D01*
X4838483Y-11209466D02*
X4771816Y-11285657D01*
X4771816Y-11285657D02*
X4800388Y-11285657D01*
X4800388Y-11285657D02*
X4819435Y-11295180D01*
X4819435Y-11295180D02*
X4828959Y-11304704D01*
X4828959Y-11304704D02*
X4838483Y-11323752D01*
X4838483Y-11323752D02*
X4838483Y-11371371D01*
X4838483Y-11371371D02*
X4828959Y-11390418D01*
X4828959Y-11390418D02*
X4819435Y-11399942D01*
X4819435Y-11399942D02*
X4800388Y-11409466D01*
X4800388Y-11409466D02*
X4743245Y-11409466D01*
X4743245Y-11409466D02*
X4724197Y-11399942D01*
X4724197Y-11399942D02*
X4714673Y-11390418D01*
X4933721Y-11409466D02*
X4971816Y-11409466D01*
X4971816Y-11409466D02*
X4990864Y-11399942D01*
X4990864Y-11399942D02*
X5000388Y-11390418D01*
X5000388Y-11390418D02*
X5019435Y-11361847D01*
X5019435Y-11361847D02*
X5028959Y-11323752D01*
X5028959Y-11323752D02*
X5028959Y-11247561D01*
X5028959Y-11247561D02*
X5019435Y-11228514D01*
X5019435Y-11228514D02*
X5009911Y-11218990D01*
X5009911Y-11218990D02*
X4990864Y-11209466D01*
X4990864Y-11209466D02*
X4952769Y-11209466D01*
X4952769Y-11209466D02*
X4933721Y-11218990D01*
X4933721Y-11218990D02*
X4924197Y-11228514D01*
X4924197Y-11228514D02*
X4914673Y-11247561D01*
X4914673Y-11247561D02*
X4914673Y-11295180D01*
X4914673Y-11295180D02*
X4924197Y-11314228D01*
X4924197Y-11314228D02*
X4933721Y-11323752D01*
X4933721Y-11323752D02*
X4952769Y-11333276D01*
X4952769Y-11333276D02*
X4990864Y-11333276D01*
X4990864Y-11333276D02*
X5009911Y-11323752D01*
X5009911Y-11323752D02*
X5019435Y-11314228D01*
X5019435Y-11314228D02*
X5028959Y-11295180D01*
X5200388Y-11276133D02*
X5200388Y-11409466D01*
X5152769Y-11199942D02*
X5105150Y-11342799D01*
X5105150Y-11342799D02*
X5228959Y-11342799D01*
X5295626Y-11209466D02*
X5295626Y-11247561D01*
X5371816Y-11209466D02*
X5371816Y-11247561D01*
X5634673Y-11485657D02*
X5625149Y-11476133D01*
X5625149Y-11476133D02*
X5606102Y-11447561D01*
X5606102Y-11447561D02*
X5596578Y-11428514D01*
X5596578Y-11428514D02*
X5587054Y-11399942D01*
X5587054Y-11399942D02*
X5577531Y-11352323D01*
X5577531Y-11352323D02*
X5577531Y-11314228D01*
X5577531Y-11314228D02*
X5587054Y-11266609D01*
X5587054Y-11266609D02*
X5596578Y-11238038D01*
X5596578Y-11238038D02*
X5606102Y-11218990D01*
X5606102Y-11218990D02*
X5625149Y-11190418D01*
X5625149Y-11190418D02*
X5634673Y-11180895D01*
X5796578Y-11276133D02*
X5796578Y-11409466D01*
X5748959Y-11199942D02*
X5701340Y-11342799D01*
X5701340Y-11342799D02*
X5825149Y-11342799D01*
X6021340Y-11409466D02*
X6021340Y-11209466D01*
X6107054Y-11409466D02*
X6107054Y-11304704D01*
X6107054Y-11304704D02*
X6097530Y-11285657D01*
X6097530Y-11285657D02*
X6078483Y-11276133D01*
X6078483Y-11276133D02*
X6049911Y-11276133D01*
X6049911Y-11276133D02*
X6030864Y-11285657D01*
X6030864Y-11285657D02*
X6021340Y-11295180D01*
X6230864Y-11409466D02*
X6211816Y-11399942D01*
X6211816Y-11399942D02*
X6202292Y-11390418D01*
X6202292Y-11390418D02*
X6192769Y-11371371D01*
X6192769Y-11371371D02*
X6192769Y-11314228D01*
X6192769Y-11314228D02*
X6202292Y-11295180D01*
X6202292Y-11295180D02*
X6211816Y-11285657D01*
X6211816Y-11285657D02*
X6230864Y-11276133D01*
X6230864Y-11276133D02*
X6259435Y-11276133D01*
X6259435Y-11276133D02*
X6278483Y-11285657D01*
X6278483Y-11285657D02*
X6288007Y-11295180D01*
X6288007Y-11295180D02*
X6297530Y-11314228D01*
X6297530Y-11314228D02*
X6297530Y-11371371D01*
X6297530Y-11371371D02*
X6288007Y-11390418D01*
X6288007Y-11390418D02*
X6278483Y-11399942D01*
X6278483Y-11399942D02*
X6259435Y-11409466D01*
X6259435Y-11409466D02*
X6230864Y-11409466D01*
X6411816Y-11409466D02*
X6392769Y-11399942D01*
X6392769Y-11399942D02*
X6383245Y-11380895D01*
X6383245Y-11380895D02*
X6383245Y-11209466D01*
X6564197Y-11399942D02*
X6545150Y-11409466D01*
X6545150Y-11409466D02*
X6507054Y-11409466D01*
X6507054Y-11409466D02*
X6488007Y-11399942D01*
X6488007Y-11399942D02*
X6478483Y-11380895D01*
X6478483Y-11380895D02*
X6478483Y-11304704D01*
X6478483Y-11304704D02*
X6488007Y-11285657D01*
X6488007Y-11285657D02*
X6507054Y-11276133D01*
X6507054Y-11276133D02*
X6545150Y-11276133D01*
X6545150Y-11276133D02*
X6564197Y-11285657D01*
X6564197Y-11285657D02*
X6573721Y-11304704D01*
X6573721Y-11304704D02*
X6573721Y-11323752D01*
X6573721Y-11323752D02*
X6478483Y-11342799D01*
X6649911Y-11399942D02*
X6668959Y-11409466D01*
X6668959Y-11409466D02*
X6707054Y-11409466D01*
X6707054Y-11409466D02*
X6726102Y-11399942D01*
X6726102Y-11399942D02*
X6735626Y-11380895D01*
X6735626Y-11380895D02*
X6735626Y-11371371D01*
X6735626Y-11371371D02*
X6726102Y-11352323D01*
X6726102Y-11352323D02*
X6707054Y-11342799D01*
X6707054Y-11342799D02*
X6678483Y-11342799D01*
X6678483Y-11342799D02*
X6659435Y-11333276D01*
X6659435Y-11333276D02*
X6649911Y-11314228D01*
X6649911Y-11314228D02*
X6649911Y-11304704D01*
X6649911Y-11304704D02*
X6659435Y-11285657D01*
X6659435Y-11285657D02*
X6678483Y-11276133D01*
X6678483Y-11276133D02*
X6707054Y-11276133D01*
X6707054Y-11276133D02*
X6726102Y-11285657D01*
X6802292Y-11485657D02*
X6811816Y-11476133D01*
X6811816Y-11476133D02*
X6830864Y-11447561D01*
X6830864Y-11447561D02*
X6840388Y-11428514D01*
X6840388Y-11428514D02*
X6849911Y-11399942D01*
X6849911Y-11399942D02*
X6859435Y-11352323D01*
X6859435Y-11352323D02*
X6859435Y-11314228D01*
X6859435Y-11314228D02*
X6849911Y-11266609D01*
X6849911Y-11266609D02*
X6840388Y-11238038D01*
X6840388Y-11238038D02*
X6830864Y-11218990D01*
X6830864Y-11218990D02*
X6811816Y-11190418D01*
X6811816Y-11190418D02*
X6802292Y-11180895D01*
X2140623Y-11670701D02*
X2140623Y-11529279D01*
X1999200Y-11529279D01*
X1999200Y-11670701D01*
X2140623Y-11670701D01*
X2398483Y-11473466D02*
X2522292Y-11473466D01*
X2522292Y-11473466D02*
X2455626Y-11549657D01*
X2455626Y-11549657D02*
X2484197Y-11549657D01*
X2484197Y-11549657D02*
X2503245Y-11559180D01*
X2503245Y-11559180D02*
X2512768Y-11568704D01*
X2512768Y-11568704D02*
X2522292Y-11587752D01*
X2522292Y-11587752D02*
X2522292Y-11635371D01*
X2522292Y-11635371D02*
X2512768Y-11654418D01*
X2512768Y-11654418D02*
X2503245Y-11663942D01*
X2503245Y-11663942D02*
X2484197Y-11673466D01*
X2484197Y-11673466D02*
X2427054Y-11673466D01*
X2427054Y-11673466D02*
X2408007Y-11663942D01*
X2408007Y-11663942D02*
X2398483Y-11654418D01*
X2608007Y-11654418D02*
X2617530Y-11663942D01*
X2617530Y-11663942D02*
X2608007Y-11673466D01*
X2608007Y-11673466D02*
X2598483Y-11663942D01*
X2598483Y-11663942D02*
X2608007Y-11654418D01*
X2608007Y-11654418D02*
X2608007Y-11673466D01*
X2741340Y-11473466D02*
X2760388Y-11473466D01*
X2760388Y-11473466D02*
X2779435Y-11482990D01*
X2779435Y-11482990D02*
X2788959Y-11492514D01*
X2788959Y-11492514D02*
X2798483Y-11511561D01*
X2798483Y-11511561D02*
X2808006Y-11549657D01*
X2808006Y-11549657D02*
X2808006Y-11597276D01*
X2808006Y-11597276D02*
X2798483Y-11635371D01*
X2798483Y-11635371D02*
X2788959Y-11654418D01*
X2788959Y-11654418D02*
X2779435Y-11663942D01*
X2779435Y-11663942D02*
X2760388Y-11673466D01*
X2760388Y-11673466D02*
X2741340Y-11673466D01*
X2741340Y-11673466D02*
X2722292Y-11663942D01*
X2722292Y-11663942D02*
X2712768Y-11654418D01*
X2712768Y-11654418D02*
X2703245Y-11635371D01*
X2703245Y-11635371D02*
X2693721Y-11597276D01*
X2693721Y-11597276D02*
X2693721Y-11549657D01*
X2693721Y-11549657D02*
X2703245Y-11511561D01*
X2703245Y-11511561D02*
X2712768Y-11492514D01*
X2712768Y-11492514D02*
X2722292Y-11482990D01*
X2722292Y-11482990D02*
X2741340Y-11473466D01*
X2931816Y-11473466D02*
X2950864Y-11473466D01*
X2950864Y-11473466D02*
X2969911Y-11482990D01*
X2969911Y-11482990D02*
X2979435Y-11492514D01*
X2979435Y-11492514D02*
X2988959Y-11511561D01*
X2988959Y-11511561D02*
X2998483Y-11549657D01*
X2998483Y-11549657D02*
X2998483Y-11597276D01*
X2998483Y-11597276D02*
X2988959Y-11635371D01*
X2988959Y-11635371D02*
X2979435Y-11654418D01*
X2979435Y-11654418D02*
X2969911Y-11663942D01*
X2969911Y-11663942D02*
X2950864Y-11673466D01*
X2950864Y-11673466D02*
X2931816Y-11673466D01*
X2931816Y-11673466D02*
X2912768Y-11663942D01*
X2912768Y-11663942D02*
X2903245Y-11654418D01*
X2903245Y-11654418D02*
X2893721Y-11635371D01*
X2893721Y-11635371D02*
X2884197Y-11597276D01*
X2884197Y-11597276D02*
X2884197Y-11549657D01*
X2884197Y-11549657D02*
X2893721Y-11511561D01*
X2893721Y-11511561D02*
X2903245Y-11492514D01*
X2903245Y-11492514D02*
X2912768Y-11482990D01*
X2912768Y-11482990D02*
X2931816Y-11473466D01*
X3122292Y-11473466D02*
X3141340Y-11473466D01*
X3141340Y-11473466D02*
X3160387Y-11482990D01*
X3160387Y-11482990D02*
X3169911Y-11492514D01*
X3169911Y-11492514D02*
X3179435Y-11511561D01*
X3179435Y-11511561D02*
X3188959Y-11549657D01*
X3188959Y-11549657D02*
X3188959Y-11597276D01*
X3188959Y-11597276D02*
X3179435Y-11635371D01*
X3179435Y-11635371D02*
X3169911Y-11654418D01*
X3169911Y-11654418D02*
X3160387Y-11663942D01*
X3160387Y-11663942D02*
X3141340Y-11673466D01*
X3141340Y-11673466D02*
X3122292Y-11673466D01*
X3122292Y-11673466D02*
X3103245Y-11663942D01*
X3103245Y-11663942D02*
X3093721Y-11654418D01*
X3093721Y-11654418D02*
X3084197Y-11635371D01*
X3084197Y-11635371D02*
X3074673Y-11597276D01*
X3074673Y-11597276D02*
X3074673Y-11549657D01*
X3074673Y-11549657D02*
X3084197Y-11511561D01*
X3084197Y-11511561D02*
X3093721Y-11492514D01*
X3093721Y-11492514D02*
X3103245Y-11482990D01*
X3103245Y-11482990D02*
X3122292Y-11473466D01*
X3274673Y-11673466D02*
X3274673Y-11540133D01*
X3274673Y-11559180D02*
X3284197Y-11549657D01*
X3284197Y-11549657D02*
X3303245Y-11540133D01*
X3303245Y-11540133D02*
X3331816Y-11540133D01*
X3331816Y-11540133D02*
X3350864Y-11549657D01*
X3350864Y-11549657D02*
X3360387Y-11568704D01*
X3360387Y-11568704D02*
X3360387Y-11673466D01*
X3360387Y-11568704D02*
X3369911Y-11549657D01*
X3369911Y-11549657D02*
X3388959Y-11540133D01*
X3388959Y-11540133D02*
X3417530Y-11540133D01*
X3417530Y-11540133D02*
X3436578Y-11549657D01*
X3436578Y-11549657D02*
X3446102Y-11568704D01*
X3446102Y-11568704D02*
X3446102Y-11673466D01*
X3541340Y-11673466D02*
X3541340Y-11540133D01*
X3541340Y-11559180D02*
X3550864Y-11549657D01*
X3550864Y-11549657D02*
X3569911Y-11540133D01*
X3569911Y-11540133D02*
X3598483Y-11540133D01*
X3598483Y-11540133D02*
X3617530Y-11549657D01*
X3617530Y-11549657D02*
X3627054Y-11568704D01*
X3627054Y-11568704D02*
X3627054Y-11673466D01*
X3627054Y-11568704D02*
X3636578Y-11549657D01*
X3636578Y-11549657D02*
X3655626Y-11540133D01*
X3655626Y-11540133D02*
X3684197Y-11540133D01*
X3684197Y-11540133D02*
X3703245Y-11549657D01*
X3703245Y-11549657D02*
X3712768Y-11568704D01*
X3712768Y-11568704D02*
X3712768Y-11673466D01*
X4070864Y-11463942D02*
X3899435Y-11721085D01*
X4295626Y-11473466D02*
X4314673Y-11473466D01*
X4314673Y-11473466D02*
X4333721Y-11482990D01*
X4333721Y-11482990D02*
X4343245Y-11492514D01*
X4343245Y-11492514D02*
X4352769Y-11511561D01*
X4352769Y-11511561D02*
X4362292Y-11549657D01*
X4362292Y-11549657D02*
X4362292Y-11597276D01*
X4362292Y-11597276D02*
X4352769Y-11635371D01*
X4352769Y-11635371D02*
X4343245Y-11654418D01*
X4343245Y-11654418D02*
X4333721Y-11663942D01*
X4333721Y-11663942D02*
X4314673Y-11673466D01*
X4314673Y-11673466D02*
X4295626Y-11673466D01*
X4295626Y-11673466D02*
X4276578Y-11663942D01*
X4276578Y-11663942D02*
X4267054Y-11654418D01*
X4267054Y-11654418D02*
X4257530Y-11635371D01*
X4257530Y-11635371D02*
X4248007Y-11597276D01*
X4248007Y-11597276D02*
X4248007Y-11549657D01*
X4248007Y-11549657D02*
X4257530Y-11511561D01*
X4257530Y-11511561D02*
X4267054Y-11492514D01*
X4267054Y-11492514D02*
X4276578Y-11482990D01*
X4276578Y-11482990D02*
X4295626Y-11473466D01*
X4448007Y-11654418D02*
X4457530Y-11663942D01*
X4457530Y-11663942D02*
X4448007Y-11673466D01*
X4448007Y-11673466D02*
X4438483Y-11663942D01*
X4438483Y-11663942D02*
X4448007Y-11654418D01*
X4448007Y-11654418D02*
X4448007Y-11673466D01*
X4648007Y-11673466D02*
X4533721Y-11673466D01*
X4590864Y-11673466D02*
X4590864Y-11473466D01*
X4590864Y-11473466D02*
X4571816Y-11502038D01*
X4571816Y-11502038D02*
X4552769Y-11521085D01*
X4552769Y-11521085D02*
X4533721Y-11530609D01*
X4838483Y-11673466D02*
X4724197Y-11673466D01*
X4781340Y-11673466D02*
X4781340Y-11473466D01*
X4781340Y-11473466D02*
X4762292Y-11502038D01*
X4762292Y-11502038D02*
X4743245Y-11521085D01*
X4743245Y-11521085D02*
X4724197Y-11530609D01*
X4952769Y-11559180D02*
X4933721Y-11549657D01*
X4933721Y-11549657D02*
X4924197Y-11540133D01*
X4924197Y-11540133D02*
X4914673Y-11521085D01*
X4914673Y-11521085D02*
X4914673Y-11511561D01*
X4914673Y-11511561D02*
X4924197Y-11492514D01*
X4924197Y-11492514D02*
X4933721Y-11482990D01*
X4933721Y-11482990D02*
X4952769Y-11473466D01*
X4952769Y-11473466D02*
X4990864Y-11473466D01*
X4990864Y-11473466D02*
X5009911Y-11482990D01*
X5009911Y-11482990D02*
X5019435Y-11492514D01*
X5019435Y-11492514D02*
X5028959Y-11511561D01*
X5028959Y-11511561D02*
X5028959Y-11521085D01*
X5028959Y-11521085D02*
X5019435Y-11540133D01*
X5019435Y-11540133D02*
X5009911Y-11549657D01*
X5009911Y-11549657D02*
X4990864Y-11559180D01*
X4990864Y-11559180D02*
X4952769Y-11559180D01*
X4952769Y-11559180D02*
X4933721Y-11568704D01*
X4933721Y-11568704D02*
X4924197Y-11578228D01*
X4924197Y-11578228D02*
X4914673Y-11597276D01*
X4914673Y-11597276D02*
X4914673Y-11635371D01*
X4914673Y-11635371D02*
X4924197Y-11654418D01*
X4924197Y-11654418D02*
X4933721Y-11663942D01*
X4933721Y-11663942D02*
X4952769Y-11673466D01*
X4952769Y-11673466D02*
X4990864Y-11673466D01*
X4990864Y-11673466D02*
X5009911Y-11663942D01*
X5009911Y-11663942D02*
X5019435Y-11654418D01*
X5019435Y-11654418D02*
X5028959Y-11635371D01*
X5028959Y-11635371D02*
X5028959Y-11597276D01*
X5028959Y-11597276D02*
X5019435Y-11578228D01*
X5019435Y-11578228D02*
X5009911Y-11568704D01*
X5009911Y-11568704D02*
X4990864Y-11559180D01*
X5219435Y-11673466D02*
X5105150Y-11673466D01*
X5162292Y-11673466D02*
X5162292Y-11473466D01*
X5162292Y-11473466D02*
X5143245Y-11502038D01*
X5143245Y-11502038D02*
X5124197Y-11521085D01*
X5124197Y-11521085D02*
X5105150Y-11530609D01*
X5295626Y-11473466D02*
X5295626Y-11511561D01*
X5371816Y-11473466D02*
X5371816Y-11511561D01*
X5634673Y-11749657D02*
X5625149Y-11740133D01*
X5625149Y-11740133D02*
X5606102Y-11711561D01*
X5606102Y-11711561D02*
X5596578Y-11692514D01*
X5596578Y-11692514D02*
X5587054Y-11663942D01*
X5587054Y-11663942D02*
X5577531Y-11616323D01*
X5577531Y-11616323D02*
X5577531Y-11578228D01*
X5577531Y-11578228D02*
X5587054Y-11530609D01*
X5587054Y-11530609D02*
X5596578Y-11502038D01*
X5596578Y-11502038D02*
X5606102Y-11482990D01*
X5606102Y-11482990D02*
X5625149Y-11454418D01*
X5625149Y-11454418D02*
X5634673Y-11444895D01*
X5691816Y-11473466D02*
X5815626Y-11473466D01*
X5815626Y-11473466D02*
X5748959Y-11549657D01*
X5748959Y-11549657D02*
X5777530Y-11549657D01*
X5777530Y-11549657D02*
X5796578Y-11559180D01*
X5796578Y-11559180D02*
X5806102Y-11568704D01*
X5806102Y-11568704D02*
X5815626Y-11587752D01*
X5815626Y-11587752D02*
X5815626Y-11635371D01*
X5815626Y-11635371D02*
X5806102Y-11654418D01*
X5806102Y-11654418D02*
X5796578Y-11663942D01*
X5796578Y-11663942D02*
X5777530Y-11673466D01*
X5777530Y-11673466D02*
X5720388Y-11673466D01*
X5720388Y-11673466D02*
X5701340Y-11663942D01*
X5701340Y-11663942D02*
X5691816Y-11654418D01*
X5891816Y-11492514D02*
X5901340Y-11482990D01*
X5901340Y-11482990D02*
X5920388Y-11473466D01*
X5920388Y-11473466D02*
X5968007Y-11473466D01*
X5968007Y-11473466D02*
X5987054Y-11482990D01*
X5987054Y-11482990D02*
X5996578Y-11492514D01*
X5996578Y-11492514D02*
X6006102Y-11511561D01*
X6006102Y-11511561D02*
X6006102Y-11530609D01*
X6006102Y-11530609D02*
X5996578Y-11559180D01*
X5996578Y-11559180D02*
X5882292Y-11673466D01*
X5882292Y-11673466D02*
X6006102Y-11673466D01*
X6211816Y-11673466D02*
X6211816Y-11473466D01*
X6297530Y-11673466D02*
X6297530Y-11568704D01*
X6297530Y-11568704D02*
X6288007Y-11549657D01*
X6288007Y-11549657D02*
X6268959Y-11540133D01*
X6268959Y-11540133D02*
X6240388Y-11540133D01*
X6240388Y-11540133D02*
X6221340Y-11549657D01*
X6221340Y-11549657D02*
X6211816Y-11559180D01*
X6421340Y-11673466D02*
X6402292Y-11663942D01*
X6402292Y-11663942D02*
X6392769Y-11654418D01*
X6392769Y-11654418D02*
X6383245Y-11635371D01*
X6383245Y-11635371D02*
X6383245Y-11578228D01*
X6383245Y-11578228D02*
X6392769Y-11559180D01*
X6392769Y-11559180D02*
X6402292Y-11549657D01*
X6402292Y-11549657D02*
X6421340Y-11540133D01*
X6421340Y-11540133D02*
X6449911Y-11540133D01*
X6449911Y-11540133D02*
X6468959Y-11549657D01*
X6468959Y-11549657D02*
X6478483Y-11559180D01*
X6478483Y-11559180D02*
X6488007Y-11578228D01*
X6488007Y-11578228D02*
X6488007Y-11635371D01*
X6488007Y-11635371D02*
X6478483Y-11654418D01*
X6478483Y-11654418D02*
X6468959Y-11663942D01*
X6468959Y-11663942D02*
X6449911Y-11673466D01*
X6449911Y-11673466D02*
X6421340Y-11673466D01*
X6602292Y-11673466D02*
X6583245Y-11663942D01*
X6583245Y-11663942D02*
X6573721Y-11644895D01*
X6573721Y-11644895D02*
X6573721Y-11473466D01*
X6754673Y-11663942D02*
X6735626Y-11673466D01*
X6735626Y-11673466D02*
X6697530Y-11673466D01*
X6697530Y-11673466D02*
X6678483Y-11663942D01*
X6678483Y-11663942D02*
X6668959Y-11644895D01*
X6668959Y-11644895D02*
X6668959Y-11568704D01*
X6668959Y-11568704D02*
X6678483Y-11549657D01*
X6678483Y-11549657D02*
X6697530Y-11540133D01*
X6697530Y-11540133D02*
X6735626Y-11540133D01*
X6735626Y-11540133D02*
X6754673Y-11549657D01*
X6754673Y-11549657D02*
X6764197Y-11568704D01*
X6764197Y-11568704D02*
X6764197Y-11587752D01*
X6764197Y-11587752D02*
X6668959Y-11606799D01*
X6840388Y-11663942D02*
X6859435Y-11673466D01*
X6859435Y-11673466D02*
X6897530Y-11673466D01*
X6897530Y-11673466D02*
X6916578Y-11663942D01*
X6916578Y-11663942D02*
X6926102Y-11644895D01*
X6926102Y-11644895D02*
X6926102Y-11635371D01*
X6926102Y-11635371D02*
X6916578Y-11616323D01*
X6916578Y-11616323D02*
X6897530Y-11606799D01*
X6897530Y-11606799D02*
X6868959Y-11606799D01*
X6868959Y-11606799D02*
X6849911Y-11597276D01*
X6849911Y-11597276D02*
X6840388Y-11578228D01*
X6840388Y-11578228D02*
X6840388Y-11568704D01*
X6840388Y-11568704D02*
X6849911Y-11549657D01*
X6849911Y-11549657D02*
X6868959Y-11540133D01*
X6868959Y-11540133D02*
X6897530Y-11540133D01*
X6897530Y-11540133D02*
X6916578Y-11549657D01*
X6992769Y-11749657D02*
X7002292Y-11740133D01*
X7002292Y-11740133D02*
X7021340Y-11711561D01*
X7021340Y-11711561D02*
X7030864Y-11692514D01*
X7030864Y-11692514D02*
X7040388Y-11663942D01*
X7040388Y-11663942D02*
X7049911Y-11616323D01*
X7049911Y-11616323D02*
X7049911Y-11578228D01*
X7049911Y-11578228D02*
X7040388Y-11530609D01*
X7040388Y-11530609D02*
X7030864Y-11502038D01*
X7030864Y-11502038D02*
X7021340Y-11482990D01*
X7021340Y-11482990D02*
X7002292Y-11454418D01*
X7002292Y-11454418D02*
X6992769Y-11444895D01*
M02*
