%TF.GenerationSoftware,KiCad,Pcbnew,(7.0.0-0)*%
%TF.CreationDate,2023-03-19T19:43:54+09:00*%
%TF.ProjectId,pangaea-pcb-pinkey-k2-0.5ushift,70616e67-6165-4612-9d70-63622d70696e,rev?*%
%TF.SameCoordinates,Original*%
%TF.FileFunction,Legend,Top*%
%TF.FilePolarity,Positive*%
%FSLAX46Y46*%
G04 Gerber Fmt 4.6, Leading zero omitted, Abs format (unit mm)*
G04 Created by KiCad (PCBNEW (7.0.0-0)) date 2023-03-19 19:43:54*
%MOMM*%
%LPD*%
G01*
G04 APERTURE LIST*
%ADD10C,0.300000*%
%ADD11C,0.250000*%
%ADD12C,0.375000*%
%ADD13C,0.150000*%
G04 APERTURE END LIST*
D10*
X58646996Y-82286389D02*
X58818425Y-82343532D01*
X58818425Y-82343532D02*
X59104139Y-82343532D01*
X59104139Y-82343532D02*
X59218425Y-82286389D01*
X59218425Y-82286389D02*
X59275567Y-82229246D01*
X59275567Y-82229246D02*
X59332710Y-82114960D01*
X59332710Y-82114960D02*
X59332710Y-82000675D01*
X59332710Y-82000675D02*
X59275567Y-81886389D01*
X59275567Y-81886389D02*
X59218425Y-81829246D01*
X59218425Y-81829246D02*
X59104139Y-81772103D01*
X59104139Y-81772103D02*
X58875567Y-81714960D01*
X58875567Y-81714960D02*
X58761282Y-81657817D01*
X58761282Y-81657817D02*
X58704139Y-81600675D01*
X58704139Y-81600675D02*
X58646996Y-81486389D01*
X58646996Y-81486389D02*
X58646996Y-81372103D01*
X58646996Y-81372103D02*
X58704139Y-81257817D01*
X58704139Y-81257817D02*
X58761282Y-81200675D01*
X58761282Y-81200675D02*
X58875567Y-81143532D01*
X58875567Y-81143532D02*
X59161282Y-81143532D01*
X59161282Y-81143532D02*
X59332710Y-81200675D01*
X59732710Y-81143532D02*
X60018424Y-82343532D01*
X60018424Y-82343532D02*
X60246996Y-81486389D01*
X60246996Y-81486389D02*
X60475567Y-82343532D01*
X60475567Y-82343532D02*
X60761282Y-81143532D01*
X61104139Y-81143532D02*
X61846996Y-81143532D01*
X61846996Y-81143532D02*
X61446996Y-81600675D01*
X61446996Y-81600675D02*
X61618425Y-81600675D01*
X61618425Y-81600675D02*
X61732711Y-81657817D01*
X61732711Y-81657817D02*
X61789853Y-81714960D01*
X61789853Y-81714960D02*
X61846996Y-81829246D01*
X61846996Y-81829246D02*
X61846996Y-82114960D01*
X61846996Y-82114960D02*
X61789853Y-82229246D01*
X61789853Y-82229246D02*
X61732711Y-82286389D01*
X61732711Y-82286389D02*
X61618425Y-82343532D01*
X61618425Y-82343532D02*
X61275568Y-82343532D01*
X61275568Y-82343532D02*
X61161282Y-82286389D01*
X61161282Y-82286389D02*
X61104139Y-82229246D01*
X62532710Y-81657817D02*
X62418425Y-81600675D01*
X62418425Y-81600675D02*
X62361282Y-81543532D01*
X62361282Y-81543532D02*
X62304139Y-81429246D01*
X62304139Y-81429246D02*
X62304139Y-81372103D01*
X62304139Y-81372103D02*
X62361282Y-81257817D01*
X62361282Y-81257817D02*
X62418425Y-81200675D01*
X62418425Y-81200675D02*
X62532710Y-81143532D01*
X62532710Y-81143532D02*
X62761282Y-81143532D01*
X62761282Y-81143532D02*
X62875568Y-81200675D01*
X62875568Y-81200675D02*
X62932710Y-81257817D01*
X62932710Y-81257817D02*
X62989853Y-81372103D01*
X62989853Y-81372103D02*
X62989853Y-81429246D01*
X62989853Y-81429246D02*
X62932710Y-81543532D01*
X62932710Y-81543532D02*
X62875568Y-81600675D01*
X62875568Y-81600675D02*
X62761282Y-81657817D01*
X62761282Y-81657817D02*
X62532710Y-81657817D01*
X62532710Y-81657817D02*
X62418425Y-81714960D01*
X62418425Y-81714960D02*
X62361282Y-81772103D01*
X62361282Y-81772103D02*
X62304139Y-81886389D01*
X62304139Y-81886389D02*
X62304139Y-82114960D01*
X62304139Y-82114960D02*
X62361282Y-82229246D01*
X62361282Y-82229246D02*
X62418425Y-82286389D01*
X62418425Y-82286389D02*
X62532710Y-82343532D01*
X62532710Y-82343532D02*
X62761282Y-82343532D01*
X62761282Y-82343532D02*
X62875568Y-82286389D01*
X62875568Y-82286389D02*
X62932710Y-82229246D01*
X62932710Y-82229246D02*
X62989853Y-82114960D01*
X62989853Y-82114960D02*
X62989853Y-81886389D01*
X62989853Y-81886389D02*
X62932710Y-81772103D01*
X62932710Y-81772103D02*
X62875568Y-81714960D01*
X62875568Y-81714960D02*
X62761282Y-81657817D01*
X57896996Y-63156389D02*
X58068425Y-63213532D01*
X58068425Y-63213532D02*
X58354139Y-63213532D01*
X58354139Y-63213532D02*
X58468425Y-63156389D01*
X58468425Y-63156389D02*
X58525567Y-63099246D01*
X58525567Y-63099246D02*
X58582710Y-62984960D01*
X58582710Y-62984960D02*
X58582710Y-62870675D01*
X58582710Y-62870675D02*
X58525567Y-62756389D01*
X58525567Y-62756389D02*
X58468425Y-62699246D01*
X58468425Y-62699246D02*
X58354139Y-62642103D01*
X58354139Y-62642103D02*
X58125567Y-62584960D01*
X58125567Y-62584960D02*
X58011282Y-62527817D01*
X58011282Y-62527817D02*
X57954139Y-62470675D01*
X57954139Y-62470675D02*
X57896996Y-62356389D01*
X57896996Y-62356389D02*
X57896996Y-62242103D01*
X57896996Y-62242103D02*
X57954139Y-62127817D01*
X57954139Y-62127817D02*
X58011282Y-62070675D01*
X58011282Y-62070675D02*
X58125567Y-62013532D01*
X58125567Y-62013532D02*
X58411282Y-62013532D01*
X58411282Y-62013532D02*
X58582710Y-62070675D01*
X58982710Y-62013532D02*
X59268424Y-63213532D01*
X59268424Y-63213532D02*
X59496996Y-62356389D01*
X59496996Y-62356389D02*
X59725567Y-63213532D01*
X59725567Y-63213532D02*
X60011282Y-62013532D01*
X60354139Y-62013532D02*
X61096996Y-62013532D01*
X61096996Y-62013532D02*
X60696996Y-62470675D01*
X60696996Y-62470675D02*
X60868425Y-62470675D01*
X60868425Y-62470675D02*
X60982711Y-62527817D01*
X60982711Y-62527817D02*
X61039853Y-62584960D01*
X61039853Y-62584960D02*
X61096996Y-62699246D01*
X61096996Y-62699246D02*
X61096996Y-62984960D01*
X61096996Y-62984960D02*
X61039853Y-63099246D01*
X61039853Y-63099246D02*
X60982711Y-63156389D01*
X60982711Y-63156389D02*
X60868425Y-63213532D01*
X60868425Y-63213532D02*
X60525568Y-63213532D01*
X60525568Y-63213532D02*
X60411282Y-63156389D01*
X60411282Y-63156389D02*
X60354139Y-63099246D01*
X62125568Y-62413532D02*
X62125568Y-63213532D01*
X61839853Y-61956389D02*
X61554139Y-62813532D01*
X61554139Y-62813532D02*
X62296996Y-62813532D01*
X39816996Y-53856389D02*
X39988425Y-53913532D01*
X39988425Y-53913532D02*
X40274139Y-53913532D01*
X40274139Y-53913532D02*
X40388425Y-53856389D01*
X40388425Y-53856389D02*
X40445567Y-53799246D01*
X40445567Y-53799246D02*
X40502710Y-53684960D01*
X40502710Y-53684960D02*
X40502710Y-53570675D01*
X40502710Y-53570675D02*
X40445567Y-53456389D01*
X40445567Y-53456389D02*
X40388425Y-53399246D01*
X40388425Y-53399246D02*
X40274139Y-53342103D01*
X40274139Y-53342103D02*
X40045567Y-53284960D01*
X40045567Y-53284960D02*
X39931282Y-53227817D01*
X39931282Y-53227817D02*
X39874139Y-53170675D01*
X39874139Y-53170675D02*
X39816996Y-53056389D01*
X39816996Y-53056389D02*
X39816996Y-52942103D01*
X39816996Y-52942103D02*
X39874139Y-52827817D01*
X39874139Y-52827817D02*
X39931282Y-52770675D01*
X39931282Y-52770675D02*
X40045567Y-52713532D01*
X40045567Y-52713532D02*
X40331282Y-52713532D01*
X40331282Y-52713532D02*
X40502710Y-52770675D01*
X40902710Y-52713532D02*
X41188424Y-53913532D01*
X41188424Y-53913532D02*
X41416996Y-53056389D01*
X41416996Y-53056389D02*
X41645567Y-53913532D01*
X41645567Y-53913532D02*
X41931282Y-52713532D01*
X43016996Y-53913532D02*
X42331282Y-53913532D01*
X42674139Y-53913532D02*
X42674139Y-52713532D01*
X42674139Y-52713532D02*
X42559853Y-52884960D01*
X42559853Y-52884960D02*
X42445568Y-52999246D01*
X42445568Y-52999246D02*
X42331282Y-53056389D01*
X43416996Y-52713532D02*
X44216996Y-52713532D01*
X44216996Y-52713532D02*
X43702710Y-53913532D01*
X39136996Y-34646389D02*
X39308425Y-34703532D01*
X39308425Y-34703532D02*
X39594139Y-34703532D01*
X39594139Y-34703532D02*
X39708425Y-34646389D01*
X39708425Y-34646389D02*
X39765567Y-34589246D01*
X39765567Y-34589246D02*
X39822710Y-34474960D01*
X39822710Y-34474960D02*
X39822710Y-34360675D01*
X39822710Y-34360675D02*
X39765567Y-34246389D01*
X39765567Y-34246389D02*
X39708425Y-34189246D01*
X39708425Y-34189246D02*
X39594139Y-34132103D01*
X39594139Y-34132103D02*
X39365567Y-34074960D01*
X39365567Y-34074960D02*
X39251282Y-34017817D01*
X39251282Y-34017817D02*
X39194139Y-33960675D01*
X39194139Y-33960675D02*
X39136996Y-33846389D01*
X39136996Y-33846389D02*
X39136996Y-33732103D01*
X39136996Y-33732103D02*
X39194139Y-33617817D01*
X39194139Y-33617817D02*
X39251282Y-33560675D01*
X39251282Y-33560675D02*
X39365567Y-33503532D01*
X39365567Y-33503532D02*
X39651282Y-33503532D01*
X39651282Y-33503532D02*
X39822710Y-33560675D01*
X40222710Y-33503532D02*
X40508424Y-34703532D01*
X40508424Y-34703532D02*
X40736996Y-33846389D01*
X40736996Y-33846389D02*
X40965567Y-34703532D01*
X40965567Y-34703532D02*
X41251282Y-33503532D01*
X42336996Y-34703532D02*
X41651282Y-34703532D01*
X41994139Y-34703532D02*
X41994139Y-33503532D01*
X41994139Y-33503532D02*
X41879853Y-33674960D01*
X41879853Y-33674960D02*
X41765568Y-33789246D01*
X41765568Y-33789246D02*
X41651282Y-33846389D01*
X42736996Y-33503532D02*
X43479853Y-33503532D01*
X43479853Y-33503532D02*
X43079853Y-33960675D01*
X43079853Y-33960675D02*
X43251282Y-33960675D01*
X43251282Y-33960675D02*
X43365568Y-34017817D01*
X43365568Y-34017817D02*
X43422710Y-34074960D01*
X43422710Y-34074960D02*
X43479853Y-34189246D01*
X43479853Y-34189246D02*
X43479853Y-34474960D01*
X43479853Y-34474960D02*
X43422710Y-34589246D01*
X43422710Y-34589246D02*
X43365568Y-34646389D01*
X43365568Y-34646389D02*
X43251282Y-34703532D01*
X43251282Y-34703532D02*
X42908425Y-34703532D01*
X42908425Y-34703532D02*
X42794139Y-34646389D01*
X42794139Y-34646389D02*
X42736996Y-34589246D01*
X39446996Y-72906389D02*
X39618425Y-72963532D01*
X39618425Y-72963532D02*
X39904139Y-72963532D01*
X39904139Y-72963532D02*
X40018425Y-72906389D01*
X40018425Y-72906389D02*
X40075567Y-72849246D01*
X40075567Y-72849246D02*
X40132710Y-72734960D01*
X40132710Y-72734960D02*
X40132710Y-72620675D01*
X40132710Y-72620675D02*
X40075567Y-72506389D01*
X40075567Y-72506389D02*
X40018425Y-72449246D01*
X40018425Y-72449246D02*
X39904139Y-72392103D01*
X39904139Y-72392103D02*
X39675567Y-72334960D01*
X39675567Y-72334960D02*
X39561282Y-72277817D01*
X39561282Y-72277817D02*
X39504139Y-72220675D01*
X39504139Y-72220675D02*
X39446996Y-72106389D01*
X39446996Y-72106389D02*
X39446996Y-71992103D01*
X39446996Y-71992103D02*
X39504139Y-71877817D01*
X39504139Y-71877817D02*
X39561282Y-71820675D01*
X39561282Y-71820675D02*
X39675567Y-71763532D01*
X39675567Y-71763532D02*
X39961282Y-71763532D01*
X39961282Y-71763532D02*
X40132710Y-71820675D01*
X40532710Y-71763532D02*
X40818424Y-72963532D01*
X40818424Y-72963532D02*
X41046996Y-72106389D01*
X41046996Y-72106389D02*
X41275567Y-72963532D01*
X41275567Y-72963532D02*
X41561282Y-71763532D01*
X41904139Y-71763532D02*
X42646996Y-71763532D01*
X42646996Y-71763532D02*
X42246996Y-72220675D01*
X42246996Y-72220675D02*
X42418425Y-72220675D01*
X42418425Y-72220675D02*
X42532711Y-72277817D01*
X42532711Y-72277817D02*
X42589853Y-72334960D01*
X42589853Y-72334960D02*
X42646996Y-72449246D01*
X42646996Y-72449246D02*
X42646996Y-72734960D01*
X42646996Y-72734960D02*
X42589853Y-72849246D01*
X42589853Y-72849246D02*
X42532711Y-72906389D01*
X42532711Y-72906389D02*
X42418425Y-72963532D01*
X42418425Y-72963532D02*
X42075568Y-72963532D01*
X42075568Y-72963532D02*
X41961282Y-72906389D01*
X41961282Y-72906389D02*
X41904139Y-72849246D01*
X43046996Y-71763532D02*
X43789853Y-71763532D01*
X43789853Y-71763532D02*
X43389853Y-72220675D01*
X43389853Y-72220675D02*
X43561282Y-72220675D01*
X43561282Y-72220675D02*
X43675568Y-72277817D01*
X43675568Y-72277817D02*
X43732710Y-72334960D01*
X43732710Y-72334960D02*
X43789853Y-72449246D01*
X43789853Y-72449246D02*
X43789853Y-72734960D01*
X43789853Y-72734960D02*
X43732710Y-72849246D01*
X43732710Y-72849246D02*
X43675568Y-72906389D01*
X43675568Y-72906389D02*
X43561282Y-72963532D01*
X43561282Y-72963532D02*
X43218425Y-72963532D01*
X43218425Y-72963532D02*
X43104139Y-72906389D01*
X43104139Y-72906389D02*
X43046996Y-72849246D01*
X38886996Y-91836389D02*
X39058425Y-91893532D01*
X39058425Y-91893532D02*
X39344139Y-91893532D01*
X39344139Y-91893532D02*
X39458425Y-91836389D01*
X39458425Y-91836389D02*
X39515567Y-91779246D01*
X39515567Y-91779246D02*
X39572710Y-91664960D01*
X39572710Y-91664960D02*
X39572710Y-91550675D01*
X39572710Y-91550675D02*
X39515567Y-91436389D01*
X39515567Y-91436389D02*
X39458425Y-91379246D01*
X39458425Y-91379246D02*
X39344139Y-91322103D01*
X39344139Y-91322103D02*
X39115567Y-91264960D01*
X39115567Y-91264960D02*
X39001282Y-91207817D01*
X39001282Y-91207817D02*
X38944139Y-91150675D01*
X38944139Y-91150675D02*
X38886996Y-91036389D01*
X38886996Y-91036389D02*
X38886996Y-90922103D01*
X38886996Y-90922103D02*
X38944139Y-90807817D01*
X38944139Y-90807817D02*
X39001282Y-90750675D01*
X39001282Y-90750675D02*
X39115567Y-90693532D01*
X39115567Y-90693532D02*
X39401282Y-90693532D01*
X39401282Y-90693532D02*
X39572710Y-90750675D01*
X39972710Y-90693532D02*
X40258424Y-91893532D01*
X40258424Y-91893532D02*
X40486996Y-91036389D01*
X40486996Y-91036389D02*
X40715567Y-91893532D01*
X40715567Y-91893532D02*
X41001282Y-90693532D01*
X41344139Y-90693532D02*
X42086996Y-90693532D01*
X42086996Y-90693532D02*
X41686996Y-91150675D01*
X41686996Y-91150675D02*
X41858425Y-91150675D01*
X41858425Y-91150675D02*
X41972711Y-91207817D01*
X41972711Y-91207817D02*
X42029853Y-91264960D01*
X42029853Y-91264960D02*
X42086996Y-91379246D01*
X42086996Y-91379246D02*
X42086996Y-91664960D01*
X42086996Y-91664960D02*
X42029853Y-91779246D01*
X42029853Y-91779246D02*
X41972711Y-91836389D01*
X41972711Y-91836389D02*
X41858425Y-91893532D01*
X41858425Y-91893532D02*
X41515568Y-91893532D01*
X41515568Y-91893532D02*
X41401282Y-91836389D01*
X41401282Y-91836389D02*
X41344139Y-91779246D01*
X42486996Y-90693532D02*
X43286996Y-90693532D01*
X43286996Y-90693532D02*
X42772710Y-91893532D01*
D11*
X44546020Y-77089912D02*
X44546020Y-76966102D01*
X44546020Y-76966102D02*
X44607925Y-76842293D01*
X44607925Y-76842293D02*
X44669829Y-76780388D01*
X44669829Y-76780388D02*
X44793639Y-76718483D01*
X44793639Y-76718483D02*
X45041258Y-76656578D01*
X45041258Y-76656578D02*
X45350782Y-76656578D01*
X45350782Y-76656578D02*
X45598401Y-76718483D01*
X45598401Y-76718483D02*
X45722210Y-76780388D01*
X45722210Y-76780388D02*
X45784115Y-76842293D01*
X45784115Y-76842293D02*
X45846020Y-76966102D01*
X45846020Y-76966102D02*
X45846020Y-77089912D01*
X45846020Y-77089912D02*
X45784115Y-77213721D01*
X45784115Y-77213721D02*
X45722210Y-77275626D01*
X45722210Y-77275626D02*
X45598401Y-77337531D01*
X45598401Y-77337531D02*
X45350782Y-77399435D01*
X45350782Y-77399435D02*
X45041258Y-77399435D01*
X45041258Y-77399435D02*
X44793639Y-77337531D01*
X44793639Y-77337531D02*
X44669829Y-77275626D01*
X44669829Y-77275626D02*
X44607925Y-77213721D01*
X44607925Y-77213721D02*
X44546020Y-77089912D01*
X45722210Y-76099436D02*
X45784115Y-76037531D01*
X45784115Y-76037531D02*
X45846020Y-76099436D01*
X45846020Y-76099436D02*
X45784115Y-76161340D01*
X45784115Y-76161340D02*
X45722210Y-76099436D01*
X45722210Y-76099436D02*
X45846020Y-76099436D01*
X44546020Y-74861340D02*
X44546020Y-75480388D01*
X44546020Y-75480388D02*
X45165067Y-75542292D01*
X45165067Y-75542292D02*
X45103163Y-75480388D01*
X45103163Y-75480388D02*
X45041258Y-75356578D01*
X45041258Y-75356578D02*
X45041258Y-75047054D01*
X45041258Y-75047054D02*
X45103163Y-74923245D01*
X45103163Y-74923245D02*
X45165067Y-74861340D01*
X45165067Y-74861340D02*
X45288877Y-74799435D01*
X45288877Y-74799435D02*
X45598401Y-74799435D01*
X45598401Y-74799435D02*
X45722210Y-74861340D01*
X45722210Y-74861340D02*
X45784115Y-74923245D01*
X45784115Y-74923245D02*
X45846020Y-75047054D01*
X45846020Y-75047054D02*
X45846020Y-75356578D01*
X45846020Y-75356578D02*
X45784115Y-75480388D01*
X45784115Y-75480388D02*
X45722210Y-75542292D01*
X44979353Y-73685150D02*
X45846020Y-73685150D01*
X44979353Y-74242293D02*
X45660305Y-74242293D01*
X45660305Y-74242293D02*
X45784115Y-74180388D01*
X45784115Y-74180388D02*
X45846020Y-74056578D01*
X45846020Y-74056578D02*
X45846020Y-73870864D01*
X45846020Y-73870864D02*
X45784115Y-73747055D01*
X45784115Y-73747055D02*
X45722210Y-73685150D01*
X45784115Y-72348007D02*
X45846020Y-72224198D01*
X45846020Y-72224198D02*
X45846020Y-71976579D01*
X45846020Y-71976579D02*
X45784115Y-71852769D01*
X45784115Y-71852769D02*
X45660305Y-71790865D01*
X45660305Y-71790865D02*
X45598401Y-71790865D01*
X45598401Y-71790865D02*
X45474591Y-71852769D01*
X45474591Y-71852769D02*
X45412686Y-71976579D01*
X45412686Y-71976579D02*
X45412686Y-72162293D01*
X45412686Y-72162293D02*
X45350782Y-72286103D01*
X45350782Y-72286103D02*
X45226972Y-72348007D01*
X45226972Y-72348007D02*
X45165067Y-72348007D01*
X45165067Y-72348007D02*
X45041258Y-72286103D01*
X45041258Y-72286103D02*
X44979353Y-72162293D01*
X44979353Y-72162293D02*
X44979353Y-71976579D01*
X44979353Y-71976579D02*
X45041258Y-71852769D01*
X45846020Y-71233722D02*
X44546020Y-71233722D01*
X45846020Y-70676579D02*
X45165067Y-70676579D01*
X45165067Y-70676579D02*
X45041258Y-70738484D01*
X45041258Y-70738484D02*
X44979353Y-70862293D01*
X44979353Y-70862293D02*
X44979353Y-71048007D01*
X44979353Y-71048007D02*
X45041258Y-71171817D01*
X45041258Y-71171817D02*
X45103163Y-71233722D01*
X45846020Y-70057532D02*
X44979353Y-70057532D01*
X44546020Y-70057532D02*
X44607925Y-70119436D01*
X44607925Y-70119436D02*
X44669829Y-70057532D01*
X44669829Y-70057532D02*
X44607925Y-69995627D01*
X44607925Y-69995627D02*
X44546020Y-70057532D01*
X44546020Y-70057532D02*
X44669829Y-70057532D01*
X44979353Y-69624198D02*
X44979353Y-69128960D01*
X45846020Y-69438484D02*
X44731734Y-69438484D01*
X44731734Y-69438484D02*
X44607925Y-69376579D01*
X44607925Y-69376579D02*
X44546020Y-69252769D01*
X44546020Y-69252769D02*
X44546020Y-69128960D01*
X44979353Y-68881341D02*
X44979353Y-68386103D01*
X44546020Y-68695627D02*
X45660305Y-68695627D01*
X45660305Y-68695627D02*
X45784115Y-68633722D01*
X45784115Y-68633722D02*
X45846020Y-68509912D01*
X45846020Y-68509912D02*
X45846020Y-68386103D01*
D10*
X58426996Y-44396389D02*
X58598425Y-44453532D01*
X58598425Y-44453532D02*
X58884139Y-44453532D01*
X58884139Y-44453532D02*
X58998425Y-44396389D01*
X58998425Y-44396389D02*
X59055567Y-44339246D01*
X59055567Y-44339246D02*
X59112710Y-44224960D01*
X59112710Y-44224960D02*
X59112710Y-44110675D01*
X59112710Y-44110675D02*
X59055567Y-43996389D01*
X59055567Y-43996389D02*
X58998425Y-43939246D01*
X58998425Y-43939246D02*
X58884139Y-43882103D01*
X58884139Y-43882103D02*
X58655567Y-43824960D01*
X58655567Y-43824960D02*
X58541282Y-43767817D01*
X58541282Y-43767817D02*
X58484139Y-43710675D01*
X58484139Y-43710675D02*
X58426996Y-43596389D01*
X58426996Y-43596389D02*
X58426996Y-43482103D01*
X58426996Y-43482103D02*
X58484139Y-43367817D01*
X58484139Y-43367817D02*
X58541282Y-43310675D01*
X58541282Y-43310675D02*
X58655567Y-43253532D01*
X58655567Y-43253532D02*
X58941282Y-43253532D01*
X58941282Y-43253532D02*
X59112710Y-43310675D01*
X59512710Y-43253532D02*
X59798424Y-44453532D01*
X59798424Y-44453532D02*
X60026996Y-43596389D01*
X60026996Y-43596389D02*
X60255567Y-44453532D01*
X60255567Y-44453532D02*
X60541282Y-43253532D01*
X61626996Y-44453532D02*
X60941282Y-44453532D01*
X61284139Y-44453532D02*
X61284139Y-43253532D01*
X61284139Y-43253532D02*
X61169853Y-43424960D01*
X61169853Y-43424960D02*
X61055568Y-43539246D01*
X61055568Y-43539246D02*
X60941282Y-43596389D01*
X62312710Y-43767817D02*
X62198425Y-43710675D01*
X62198425Y-43710675D02*
X62141282Y-43653532D01*
X62141282Y-43653532D02*
X62084139Y-43539246D01*
X62084139Y-43539246D02*
X62084139Y-43482103D01*
X62084139Y-43482103D02*
X62141282Y-43367817D01*
X62141282Y-43367817D02*
X62198425Y-43310675D01*
X62198425Y-43310675D02*
X62312710Y-43253532D01*
X62312710Y-43253532D02*
X62541282Y-43253532D01*
X62541282Y-43253532D02*
X62655568Y-43310675D01*
X62655568Y-43310675D02*
X62712710Y-43367817D01*
X62712710Y-43367817D02*
X62769853Y-43482103D01*
X62769853Y-43482103D02*
X62769853Y-43539246D01*
X62769853Y-43539246D02*
X62712710Y-43653532D01*
X62712710Y-43653532D02*
X62655568Y-43710675D01*
X62655568Y-43710675D02*
X62541282Y-43767817D01*
X62541282Y-43767817D02*
X62312710Y-43767817D01*
X62312710Y-43767817D02*
X62198425Y-43824960D01*
X62198425Y-43824960D02*
X62141282Y-43882103D01*
X62141282Y-43882103D02*
X62084139Y-43996389D01*
X62084139Y-43996389D02*
X62084139Y-44224960D01*
X62084139Y-44224960D02*
X62141282Y-44339246D01*
X62141282Y-44339246D02*
X62198425Y-44396389D01*
X62198425Y-44396389D02*
X62312710Y-44453532D01*
X62312710Y-44453532D02*
X62541282Y-44453532D01*
X62541282Y-44453532D02*
X62655568Y-44396389D01*
X62655568Y-44396389D02*
X62712710Y-44339246D01*
X62712710Y-44339246D02*
X62769853Y-44224960D01*
X62769853Y-44224960D02*
X62769853Y-43996389D01*
X62769853Y-43996389D02*
X62712710Y-43882103D01*
X62712710Y-43882103D02*
X62655568Y-43824960D01*
X62655568Y-43824960D02*
X62541282Y-43767817D01*
D12*
X14325714Y-13989523D02*
X14540000Y-14084761D01*
X14540000Y-14084761D02*
X14897142Y-14084761D01*
X14897142Y-14084761D02*
X15040000Y-13989523D01*
X15040000Y-13989523D02*
X15111428Y-13894285D01*
X15111428Y-13894285D02*
X15182857Y-13703809D01*
X15182857Y-13703809D02*
X15182857Y-13513333D01*
X15182857Y-13513333D02*
X15111428Y-13322857D01*
X15111428Y-13322857D02*
X15040000Y-13227619D01*
X15040000Y-13227619D02*
X14897142Y-13132380D01*
X14897142Y-13132380D02*
X14611428Y-13037142D01*
X14611428Y-13037142D02*
X14468571Y-12941904D01*
X14468571Y-12941904D02*
X14397142Y-12846666D01*
X14397142Y-12846666D02*
X14325714Y-12656190D01*
X14325714Y-12656190D02*
X14325714Y-12465714D01*
X14325714Y-12465714D02*
X14397142Y-12275238D01*
X14397142Y-12275238D02*
X14468571Y-12180000D01*
X14468571Y-12180000D02*
X14611428Y-12084761D01*
X14611428Y-12084761D02*
X14968571Y-12084761D01*
X14968571Y-12084761D02*
X15182857Y-12180000D01*
X15682856Y-12084761D02*
X16039999Y-14084761D01*
X16039999Y-14084761D02*
X16325713Y-12656190D01*
X16325713Y-12656190D02*
X16611428Y-14084761D01*
X16611428Y-14084761D02*
X16968571Y-12084761D01*
X18325714Y-14084761D02*
X17468571Y-14084761D01*
X17897142Y-14084761D02*
X17897142Y-12084761D01*
X17897142Y-12084761D02*
X17754285Y-12370476D01*
X17754285Y-12370476D02*
X17611428Y-12560952D01*
X17611428Y-12560952D02*
X17468571Y-12656190D01*
X18825713Y-12084761D02*
X19754285Y-12084761D01*
X19754285Y-12084761D02*
X19254285Y-12846666D01*
X19254285Y-12846666D02*
X19468570Y-12846666D01*
X19468570Y-12846666D02*
X19611428Y-12941904D01*
X19611428Y-12941904D02*
X19682856Y-13037142D01*
X19682856Y-13037142D02*
X19754285Y-13227619D01*
X19754285Y-13227619D02*
X19754285Y-13703809D01*
X19754285Y-13703809D02*
X19682856Y-13894285D01*
X19682856Y-13894285D02*
X19611428Y-13989523D01*
X19611428Y-13989523D02*
X19468570Y-14084761D01*
X19468570Y-14084761D02*
X19039999Y-14084761D01*
X19039999Y-14084761D02*
X18897142Y-13989523D01*
X18897142Y-13989523D02*
X18825713Y-13894285D01*
X21225713Y-13989523D02*
X21439999Y-14084761D01*
X21439999Y-14084761D02*
X21797141Y-14084761D01*
X21797141Y-14084761D02*
X21939999Y-13989523D01*
X21939999Y-13989523D02*
X22011427Y-13894285D01*
X22011427Y-13894285D02*
X22082856Y-13703809D01*
X22082856Y-13703809D02*
X22082856Y-13513333D01*
X22082856Y-13513333D02*
X22011427Y-13322857D01*
X22011427Y-13322857D02*
X21939999Y-13227619D01*
X21939999Y-13227619D02*
X21797141Y-13132380D01*
X21797141Y-13132380D02*
X21511427Y-13037142D01*
X21511427Y-13037142D02*
X21368570Y-12941904D01*
X21368570Y-12941904D02*
X21297141Y-12846666D01*
X21297141Y-12846666D02*
X21225713Y-12656190D01*
X21225713Y-12656190D02*
X21225713Y-12465714D01*
X21225713Y-12465714D02*
X21297141Y-12275238D01*
X21297141Y-12275238D02*
X21368570Y-12180000D01*
X21368570Y-12180000D02*
X21511427Y-12084761D01*
X21511427Y-12084761D02*
X21868570Y-12084761D01*
X21868570Y-12084761D02*
X22082856Y-12180000D01*
X22582855Y-12084761D02*
X22939998Y-14084761D01*
X22939998Y-14084761D02*
X23225712Y-12656190D01*
X23225712Y-12656190D02*
X23511427Y-14084761D01*
X23511427Y-14084761D02*
X23868570Y-12084761D01*
X25225713Y-14084761D02*
X24368570Y-14084761D01*
X24797141Y-14084761D02*
X24797141Y-12084761D01*
X24797141Y-12084761D02*
X24654284Y-12370476D01*
X24654284Y-12370476D02*
X24511427Y-12560952D01*
X24511427Y-12560952D02*
X24368570Y-12656190D01*
X26511427Y-12751428D02*
X26511427Y-14084761D01*
X26154284Y-11989523D02*
X25797141Y-13418095D01*
X25797141Y-13418095D02*
X26725712Y-13418095D01*
X14325714Y-17229523D02*
X14540000Y-17324761D01*
X14540000Y-17324761D02*
X14897142Y-17324761D01*
X14897142Y-17324761D02*
X15040000Y-17229523D01*
X15040000Y-17229523D02*
X15111428Y-17134285D01*
X15111428Y-17134285D02*
X15182857Y-16943809D01*
X15182857Y-16943809D02*
X15182857Y-16753333D01*
X15182857Y-16753333D02*
X15111428Y-16562857D01*
X15111428Y-16562857D02*
X15040000Y-16467619D01*
X15040000Y-16467619D02*
X14897142Y-16372380D01*
X14897142Y-16372380D02*
X14611428Y-16277142D01*
X14611428Y-16277142D02*
X14468571Y-16181904D01*
X14468571Y-16181904D02*
X14397142Y-16086666D01*
X14397142Y-16086666D02*
X14325714Y-15896190D01*
X14325714Y-15896190D02*
X14325714Y-15705714D01*
X14325714Y-15705714D02*
X14397142Y-15515238D01*
X14397142Y-15515238D02*
X14468571Y-15420000D01*
X14468571Y-15420000D02*
X14611428Y-15324761D01*
X14611428Y-15324761D02*
X14968571Y-15324761D01*
X14968571Y-15324761D02*
X15182857Y-15420000D01*
X15682856Y-15324761D02*
X16039999Y-17324761D01*
X16039999Y-17324761D02*
X16325713Y-15896190D01*
X16325713Y-15896190D02*
X16611428Y-17324761D01*
X16611428Y-17324761D02*
X16968571Y-15324761D01*
X18325714Y-17324761D02*
X17468571Y-17324761D01*
X17897142Y-17324761D02*
X17897142Y-15324761D01*
X17897142Y-15324761D02*
X17754285Y-15610476D01*
X17754285Y-15610476D02*
X17611428Y-15800952D01*
X17611428Y-15800952D02*
X17468571Y-15896190D01*
X18825713Y-15324761D02*
X19825713Y-15324761D01*
X19825713Y-15324761D02*
X19182856Y-17324761D01*
X21225713Y-17229523D02*
X21439999Y-17324761D01*
X21439999Y-17324761D02*
X21797141Y-17324761D01*
X21797141Y-17324761D02*
X21939999Y-17229523D01*
X21939999Y-17229523D02*
X22011427Y-17134285D01*
X22011427Y-17134285D02*
X22082856Y-16943809D01*
X22082856Y-16943809D02*
X22082856Y-16753333D01*
X22082856Y-16753333D02*
X22011427Y-16562857D01*
X22011427Y-16562857D02*
X21939999Y-16467619D01*
X21939999Y-16467619D02*
X21797141Y-16372380D01*
X21797141Y-16372380D02*
X21511427Y-16277142D01*
X21511427Y-16277142D02*
X21368570Y-16181904D01*
X21368570Y-16181904D02*
X21297141Y-16086666D01*
X21297141Y-16086666D02*
X21225713Y-15896190D01*
X21225713Y-15896190D02*
X21225713Y-15705714D01*
X21225713Y-15705714D02*
X21297141Y-15515238D01*
X21297141Y-15515238D02*
X21368570Y-15420000D01*
X21368570Y-15420000D02*
X21511427Y-15324761D01*
X21511427Y-15324761D02*
X21868570Y-15324761D01*
X21868570Y-15324761D02*
X22082856Y-15420000D01*
X22582855Y-15324761D02*
X22939998Y-17324761D01*
X22939998Y-17324761D02*
X23225712Y-15896190D01*
X23225712Y-15896190D02*
X23511427Y-17324761D01*
X23511427Y-17324761D02*
X23868570Y-15324761D01*
X25225713Y-17324761D02*
X24368570Y-17324761D01*
X24797141Y-17324761D02*
X24797141Y-15324761D01*
X24797141Y-15324761D02*
X24654284Y-15610476D01*
X24654284Y-15610476D02*
X24511427Y-15800952D01*
X24511427Y-15800952D02*
X24368570Y-15896190D01*
X26082855Y-16181904D02*
X25939998Y-16086666D01*
X25939998Y-16086666D02*
X25868569Y-15991428D01*
X25868569Y-15991428D02*
X25797141Y-15800952D01*
X25797141Y-15800952D02*
X25797141Y-15705714D01*
X25797141Y-15705714D02*
X25868569Y-15515238D01*
X25868569Y-15515238D02*
X25939998Y-15420000D01*
X25939998Y-15420000D02*
X26082855Y-15324761D01*
X26082855Y-15324761D02*
X26368569Y-15324761D01*
X26368569Y-15324761D02*
X26511427Y-15420000D01*
X26511427Y-15420000D02*
X26582855Y-15515238D01*
X26582855Y-15515238D02*
X26654284Y-15705714D01*
X26654284Y-15705714D02*
X26654284Y-15800952D01*
X26654284Y-15800952D02*
X26582855Y-15991428D01*
X26582855Y-15991428D02*
X26511427Y-16086666D01*
X26511427Y-16086666D02*
X26368569Y-16181904D01*
X26368569Y-16181904D02*
X26082855Y-16181904D01*
X26082855Y-16181904D02*
X25939998Y-16277142D01*
X25939998Y-16277142D02*
X25868569Y-16372380D01*
X25868569Y-16372380D02*
X25797141Y-16562857D01*
X25797141Y-16562857D02*
X25797141Y-16943809D01*
X25797141Y-16943809D02*
X25868569Y-17134285D01*
X25868569Y-17134285D02*
X25939998Y-17229523D01*
X25939998Y-17229523D02*
X26082855Y-17324761D01*
X26082855Y-17324761D02*
X26368569Y-17324761D01*
X26368569Y-17324761D02*
X26511427Y-17229523D01*
X26511427Y-17229523D02*
X26582855Y-17134285D01*
X26582855Y-17134285D02*
X26654284Y-16943809D01*
X26654284Y-16943809D02*
X26654284Y-16562857D01*
X26654284Y-16562857D02*
X26582855Y-16372380D01*
X26582855Y-16372380D02*
X26511427Y-16277142D01*
X26511427Y-16277142D02*
X26368569Y-16181904D01*
X14325714Y-20469523D02*
X14540000Y-20564761D01*
X14540000Y-20564761D02*
X14897142Y-20564761D01*
X14897142Y-20564761D02*
X15040000Y-20469523D01*
X15040000Y-20469523D02*
X15111428Y-20374285D01*
X15111428Y-20374285D02*
X15182857Y-20183809D01*
X15182857Y-20183809D02*
X15182857Y-19993333D01*
X15182857Y-19993333D02*
X15111428Y-19802857D01*
X15111428Y-19802857D02*
X15040000Y-19707619D01*
X15040000Y-19707619D02*
X14897142Y-19612380D01*
X14897142Y-19612380D02*
X14611428Y-19517142D01*
X14611428Y-19517142D02*
X14468571Y-19421904D01*
X14468571Y-19421904D02*
X14397142Y-19326666D01*
X14397142Y-19326666D02*
X14325714Y-19136190D01*
X14325714Y-19136190D02*
X14325714Y-18945714D01*
X14325714Y-18945714D02*
X14397142Y-18755238D01*
X14397142Y-18755238D02*
X14468571Y-18660000D01*
X14468571Y-18660000D02*
X14611428Y-18564761D01*
X14611428Y-18564761D02*
X14968571Y-18564761D01*
X14968571Y-18564761D02*
X15182857Y-18660000D01*
X15682856Y-18564761D02*
X16039999Y-20564761D01*
X16039999Y-20564761D02*
X16325713Y-19136190D01*
X16325713Y-19136190D02*
X16611428Y-20564761D01*
X16611428Y-20564761D02*
X16968571Y-18564761D01*
X17397142Y-18564761D02*
X18325714Y-18564761D01*
X18325714Y-18564761D02*
X17825714Y-19326666D01*
X17825714Y-19326666D02*
X18039999Y-19326666D01*
X18039999Y-19326666D02*
X18182857Y-19421904D01*
X18182857Y-19421904D02*
X18254285Y-19517142D01*
X18254285Y-19517142D02*
X18325714Y-19707619D01*
X18325714Y-19707619D02*
X18325714Y-20183809D01*
X18325714Y-20183809D02*
X18254285Y-20374285D01*
X18254285Y-20374285D02*
X18182857Y-20469523D01*
X18182857Y-20469523D02*
X18039999Y-20564761D01*
X18039999Y-20564761D02*
X17611428Y-20564761D01*
X17611428Y-20564761D02*
X17468571Y-20469523D01*
X17468571Y-20469523D02*
X17397142Y-20374285D01*
X18825713Y-18564761D02*
X19754285Y-18564761D01*
X19754285Y-18564761D02*
X19254285Y-19326666D01*
X19254285Y-19326666D02*
X19468570Y-19326666D01*
X19468570Y-19326666D02*
X19611428Y-19421904D01*
X19611428Y-19421904D02*
X19682856Y-19517142D01*
X19682856Y-19517142D02*
X19754285Y-19707619D01*
X19754285Y-19707619D02*
X19754285Y-20183809D01*
X19754285Y-20183809D02*
X19682856Y-20374285D01*
X19682856Y-20374285D02*
X19611428Y-20469523D01*
X19611428Y-20469523D02*
X19468570Y-20564761D01*
X19468570Y-20564761D02*
X19039999Y-20564761D01*
X19039999Y-20564761D02*
X18897142Y-20469523D01*
X18897142Y-20469523D02*
X18825713Y-20374285D01*
X21225713Y-20469523D02*
X21439999Y-20564761D01*
X21439999Y-20564761D02*
X21797141Y-20564761D01*
X21797141Y-20564761D02*
X21939999Y-20469523D01*
X21939999Y-20469523D02*
X22011427Y-20374285D01*
X22011427Y-20374285D02*
X22082856Y-20183809D01*
X22082856Y-20183809D02*
X22082856Y-19993333D01*
X22082856Y-19993333D02*
X22011427Y-19802857D01*
X22011427Y-19802857D02*
X21939999Y-19707619D01*
X21939999Y-19707619D02*
X21797141Y-19612380D01*
X21797141Y-19612380D02*
X21511427Y-19517142D01*
X21511427Y-19517142D02*
X21368570Y-19421904D01*
X21368570Y-19421904D02*
X21297141Y-19326666D01*
X21297141Y-19326666D02*
X21225713Y-19136190D01*
X21225713Y-19136190D02*
X21225713Y-18945714D01*
X21225713Y-18945714D02*
X21297141Y-18755238D01*
X21297141Y-18755238D02*
X21368570Y-18660000D01*
X21368570Y-18660000D02*
X21511427Y-18564761D01*
X21511427Y-18564761D02*
X21868570Y-18564761D01*
X21868570Y-18564761D02*
X22082856Y-18660000D01*
X22582855Y-18564761D02*
X22939998Y-20564761D01*
X22939998Y-20564761D02*
X23225712Y-19136190D01*
X23225712Y-19136190D02*
X23511427Y-20564761D01*
X23511427Y-20564761D02*
X23868570Y-18564761D01*
X24297141Y-18564761D02*
X25225713Y-18564761D01*
X25225713Y-18564761D02*
X24725713Y-19326666D01*
X24725713Y-19326666D02*
X24939998Y-19326666D01*
X24939998Y-19326666D02*
X25082856Y-19421904D01*
X25082856Y-19421904D02*
X25154284Y-19517142D01*
X25154284Y-19517142D02*
X25225713Y-19707619D01*
X25225713Y-19707619D02*
X25225713Y-20183809D01*
X25225713Y-20183809D02*
X25154284Y-20374285D01*
X25154284Y-20374285D02*
X25082856Y-20469523D01*
X25082856Y-20469523D02*
X24939998Y-20564761D01*
X24939998Y-20564761D02*
X24511427Y-20564761D01*
X24511427Y-20564761D02*
X24368570Y-20469523D01*
X24368570Y-20469523D02*
X24297141Y-20374285D01*
X26511427Y-19231428D02*
X26511427Y-20564761D01*
X26154284Y-18469523D02*
X25797141Y-19898095D01*
X25797141Y-19898095D02*
X26725712Y-19898095D01*
X14325714Y-23709523D02*
X14540000Y-23804761D01*
X14540000Y-23804761D02*
X14897142Y-23804761D01*
X14897142Y-23804761D02*
X15040000Y-23709523D01*
X15040000Y-23709523D02*
X15111428Y-23614285D01*
X15111428Y-23614285D02*
X15182857Y-23423809D01*
X15182857Y-23423809D02*
X15182857Y-23233333D01*
X15182857Y-23233333D02*
X15111428Y-23042857D01*
X15111428Y-23042857D02*
X15040000Y-22947619D01*
X15040000Y-22947619D02*
X14897142Y-22852380D01*
X14897142Y-22852380D02*
X14611428Y-22757142D01*
X14611428Y-22757142D02*
X14468571Y-22661904D01*
X14468571Y-22661904D02*
X14397142Y-22566666D01*
X14397142Y-22566666D02*
X14325714Y-22376190D01*
X14325714Y-22376190D02*
X14325714Y-22185714D01*
X14325714Y-22185714D02*
X14397142Y-21995238D01*
X14397142Y-21995238D02*
X14468571Y-21900000D01*
X14468571Y-21900000D02*
X14611428Y-21804761D01*
X14611428Y-21804761D02*
X14968571Y-21804761D01*
X14968571Y-21804761D02*
X15182857Y-21900000D01*
X15682856Y-21804761D02*
X16039999Y-23804761D01*
X16039999Y-23804761D02*
X16325713Y-22376190D01*
X16325713Y-22376190D02*
X16611428Y-23804761D01*
X16611428Y-23804761D02*
X16968571Y-21804761D01*
X17397142Y-21804761D02*
X18325714Y-21804761D01*
X18325714Y-21804761D02*
X17825714Y-22566666D01*
X17825714Y-22566666D02*
X18039999Y-22566666D01*
X18039999Y-22566666D02*
X18182857Y-22661904D01*
X18182857Y-22661904D02*
X18254285Y-22757142D01*
X18254285Y-22757142D02*
X18325714Y-22947619D01*
X18325714Y-22947619D02*
X18325714Y-23423809D01*
X18325714Y-23423809D02*
X18254285Y-23614285D01*
X18254285Y-23614285D02*
X18182857Y-23709523D01*
X18182857Y-23709523D02*
X18039999Y-23804761D01*
X18039999Y-23804761D02*
X17611428Y-23804761D01*
X17611428Y-23804761D02*
X17468571Y-23709523D01*
X17468571Y-23709523D02*
X17397142Y-23614285D01*
X18825713Y-21804761D02*
X19825713Y-21804761D01*
X19825713Y-21804761D02*
X19182856Y-23804761D01*
X21225713Y-23709523D02*
X21439999Y-23804761D01*
X21439999Y-23804761D02*
X21797141Y-23804761D01*
X21797141Y-23804761D02*
X21939999Y-23709523D01*
X21939999Y-23709523D02*
X22011427Y-23614285D01*
X22011427Y-23614285D02*
X22082856Y-23423809D01*
X22082856Y-23423809D02*
X22082856Y-23233333D01*
X22082856Y-23233333D02*
X22011427Y-23042857D01*
X22011427Y-23042857D02*
X21939999Y-22947619D01*
X21939999Y-22947619D02*
X21797141Y-22852380D01*
X21797141Y-22852380D02*
X21511427Y-22757142D01*
X21511427Y-22757142D02*
X21368570Y-22661904D01*
X21368570Y-22661904D02*
X21297141Y-22566666D01*
X21297141Y-22566666D02*
X21225713Y-22376190D01*
X21225713Y-22376190D02*
X21225713Y-22185714D01*
X21225713Y-22185714D02*
X21297141Y-21995238D01*
X21297141Y-21995238D02*
X21368570Y-21900000D01*
X21368570Y-21900000D02*
X21511427Y-21804761D01*
X21511427Y-21804761D02*
X21868570Y-21804761D01*
X21868570Y-21804761D02*
X22082856Y-21900000D01*
X22582855Y-21804761D02*
X22939998Y-23804761D01*
X22939998Y-23804761D02*
X23225712Y-22376190D01*
X23225712Y-22376190D02*
X23511427Y-23804761D01*
X23511427Y-23804761D02*
X23868570Y-21804761D01*
X24297141Y-21804761D02*
X25225713Y-21804761D01*
X25225713Y-21804761D02*
X24725713Y-22566666D01*
X24725713Y-22566666D02*
X24939998Y-22566666D01*
X24939998Y-22566666D02*
X25082856Y-22661904D01*
X25082856Y-22661904D02*
X25154284Y-22757142D01*
X25154284Y-22757142D02*
X25225713Y-22947619D01*
X25225713Y-22947619D02*
X25225713Y-23423809D01*
X25225713Y-23423809D02*
X25154284Y-23614285D01*
X25154284Y-23614285D02*
X25082856Y-23709523D01*
X25082856Y-23709523D02*
X24939998Y-23804761D01*
X24939998Y-23804761D02*
X24511427Y-23804761D01*
X24511427Y-23804761D02*
X24368570Y-23709523D01*
X24368570Y-23709523D02*
X24297141Y-23614285D01*
X26082855Y-22661904D02*
X25939998Y-22566666D01*
X25939998Y-22566666D02*
X25868569Y-22471428D01*
X25868569Y-22471428D02*
X25797141Y-22280952D01*
X25797141Y-22280952D02*
X25797141Y-22185714D01*
X25797141Y-22185714D02*
X25868569Y-21995238D01*
X25868569Y-21995238D02*
X25939998Y-21900000D01*
X25939998Y-21900000D02*
X26082855Y-21804761D01*
X26082855Y-21804761D02*
X26368569Y-21804761D01*
X26368569Y-21804761D02*
X26511427Y-21900000D01*
X26511427Y-21900000D02*
X26582855Y-21995238D01*
X26582855Y-21995238D02*
X26654284Y-22185714D01*
X26654284Y-22185714D02*
X26654284Y-22280952D01*
X26654284Y-22280952D02*
X26582855Y-22471428D01*
X26582855Y-22471428D02*
X26511427Y-22566666D01*
X26511427Y-22566666D02*
X26368569Y-22661904D01*
X26368569Y-22661904D02*
X26082855Y-22661904D01*
X26082855Y-22661904D02*
X25939998Y-22757142D01*
X25939998Y-22757142D02*
X25868569Y-22852380D01*
X25868569Y-22852380D02*
X25797141Y-23042857D01*
X25797141Y-23042857D02*
X25797141Y-23423809D01*
X25797141Y-23423809D02*
X25868569Y-23614285D01*
X25868569Y-23614285D02*
X25939998Y-23709523D01*
X25939998Y-23709523D02*
X26082855Y-23804761D01*
X26082855Y-23804761D02*
X26368569Y-23804761D01*
X26368569Y-23804761D02*
X26511427Y-23709523D01*
X26511427Y-23709523D02*
X26582855Y-23614285D01*
X26582855Y-23614285D02*
X26654284Y-23423809D01*
X26654284Y-23423809D02*
X26654284Y-23042857D01*
X26654284Y-23042857D02*
X26582855Y-22852380D01*
X26582855Y-22852380D02*
X26511427Y-22757142D01*
X26511427Y-22757142D02*
X26368569Y-22661904D01*
D10*
X58266996Y-25346389D02*
X58438425Y-25403532D01*
X58438425Y-25403532D02*
X58724139Y-25403532D01*
X58724139Y-25403532D02*
X58838425Y-25346389D01*
X58838425Y-25346389D02*
X58895567Y-25289246D01*
X58895567Y-25289246D02*
X58952710Y-25174960D01*
X58952710Y-25174960D02*
X58952710Y-25060675D01*
X58952710Y-25060675D02*
X58895567Y-24946389D01*
X58895567Y-24946389D02*
X58838425Y-24889246D01*
X58838425Y-24889246D02*
X58724139Y-24832103D01*
X58724139Y-24832103D02*
X58495567Y-24774960D01*
X58495567Y-24774960D02*
X58381282Y-24717817D01*
X58381282Y-24717817D02*
X58324139Y-24660675D01*
X58324139Y-24660675D02*
X58266996Y-24546389D01*
X58266996Y-24546389D02*
X58266996Y-24432103D01*
X58266996Y-24432103D02*
X58324139Y-24317817D01*
X58324139Y-24317817D02*
X58381282Y-24260675D01*
X58381282Y-24260675D02*
X58495567Y-24203532D01*
X58495567Y-24203532D02*
X58781282Y-24203532D01*
X58781282Y-24203532D02*
X58952710Y-24260675D01*
X59352710Y-24203532D02*
X59638424Y-25403532D01*
X59638424Y-25403532D02*
X59866996Y-24546389D01*
X59866996Y-24546389D02*
X60095567Y-25403532D01*
X60095567Y-25403532D02*
X60381282Y-24203532D01*
X61466996Y-25403532D02*
X60781282Y-25403532D01*
X61124139Y-25403532D02*
X61124139Y-24203532D01*
X61124139Y-24203532D02*
X61009853Y-24374960D01*
X61009853Y-24374960D02*
X60895568Y-24489246D01*
X60895568Y-24489246D02*
X60781282Y-24546389D01*
X62495568Y-24603532D02*
X62495568Y-25403532D01*
X62209853Y-24146389D02*
X61924139Y-25003532D01*
X61924139Y-25003532D02*
X62666996Y-25003532D01*
D13*
%TO.C,H9*%
X61346520Y-36052055D02*
X61346520Y-35052055D01*
X61346520Y-35528246D02*
X61917948Y-35528246D01*
X61917948Y-36052055D02*
X61917948Y-35052055D01*
X62441758Y-36052055D02*
X62632234Y-36052055D01*
X62632234Y-36052055D02*
X62727472Y-36004436D01*
X62727472Y-36004436D02*
X62775091Y-35956817D01*
X62775091Y-35956817D02*
X62870329Y-35813960D01*
X62870329Y-35813960D02*
X62917948Y-35623484D01*
X62917948Y-35623484D02*
X62917948Y-35242532D01*
X62917948Y-35242532D02*
X62870329Y-35147294D01*
X62870329Y-35147294D02*
X62822710Y-35099675D01*
X62822710Y-35099675D02*
X62727472Y-35052055D01*
X62727472Y-35052055D02*
X62536996Y-35052055D01*
X62536996Y-35052055D02*
X62441758Y-35099675D01*
X62441758Y-35099675D02*
X62394139Y-35147294D01*
X62394139Y-35147294D02*
X62346520Y-35242532D01*
X62346520Y-35242532D02*
X62346520Y-35480627D01*
X62346520Y-35480627D02*
X62394139Y-35575865D01*
X62394139Y-35575865D02*
X62441758Y-35623484D01*
X62441758Y-35623484D02*
X62536996Y-35671103D01*
X62536996Y-35671103D02*
X62727472Y-35671103D01*
X62727472Y-35671103D02*
X62822710Y-35623484D01*
X62822710Y-35623484D02*
X62870329Y-35575865D01*
X62870329Y-35575865D02*
X62917948Y-35480627D01*
%TO.C,H12*%
X27565330Y-45617055D02*
X27565330Y-44617055D01*
X27565330Y-45093246D02*
X28136758Y-45093246D01*
X28136758Y-45617055D02*
X28136758Y-44617055D01*
X29136758Y-45617055D02*
X28565330Y-45617055D01*
X28851044Y-45617055D02*
X28851044Y-44617055D01*
X28851044Y-44617055D02*
X28755806Y-44759913D01*
X28755806Y-44759913D02*
X28660568Y-44855151D01*
X28660568Y-44855151D02*
X28565330Y-44902770D01*
X29517711Y-44712294D02*
X29565330Y-44664675D01*
X29565330Y-44664675D02*
X29660568Y-44617055D01*
X29660568Y-44617055D02*
X29898663Y-44617055D01*
X29898663Y-44617055D02*
X29993901Y-44664675D01*
X29993901Y-44664675D02*
X30041520Y-44712294D01*
X30041520Y-44712294D02*
X30089139Y-44807532D01*
X30089139Y-44807532D02*
X30089139Y-44902770D01*
X30089139Y-44902770D02*
X30041520Y-45045627D01*
X30041520Y-45045627D02*
X29470092Y-45617055D01*
X29470092Y-45617055D02*
X30089139Y-45617055D01*
%TO.C,H10*%
X60890330Y-73732055D02*
X60890330Y-72732055D01*
X60890330Y-73208246D02*
X61461758Y-73208246D01*
X61461758Y-73732055D02*
X61461758Y-72732055D01*
X62461758Y-73732055D02*
X61890330Y-73732055D01*
X62176044Y-73732055D02*
X62176044Y-72732055D01*
X62176044Y-72732055D02*
X62080806Y-72874913D01*
X62080806Y-72874913D02*
X61985568Y-72970151D01*
X61985568Y-72970151D02*
X61890330Y-73017770D01*
X63080806Y-72732055D02*
X63176044Y-72732055D01*
X63176044Y-72732055D02*
X63271282Y-72779675D01*
X63271282Y-72779675D02*
X63318901Y-72827294D01*
X63318901Y-72827294D02*
X63366520Y-72922532D01*
X63366520Y-72922532D02*
X63414139Y-73113008D01*
X63414139Y-73113008D02*
X63414139Y-73351103D01*
X63414139Y-73351103D02*
X63366520Y-73541579D01*
X63366520Y-73541579D02*
X63318901Y-73636817D01*
X63318901Y-73636817D02*
X63271282Y-73684436D01*
X63271282Y-73684436D02*
X63176044Y-73732055D01*
X63176044Y-73732055D02*
X63080806Y-73732055D01*
X63080806Y-73732055D02*
X62985568Y-73684436D01*
X62985568Y-73684436D02*
X62937949Y-73636817D01*
X62937949Y-73636817D02*
X62890330Y-73541579D01*
X62890330Y-73541579D02*
X62842711Y-73351103D01*
X62842711Y-73351103D02*
X62842711Y-73113008D01*
X62842711Y-73113008D02*
X62890330Y-72922532D01*
X62890330Y-72922532D02*
X62937949Y-72827294D01*
X62937949Y-72827294D02*
X62985568Y-72779675D01*
X62985568Y-72779675D02*
X63080806Y-72732055D01*
%TO.C,H11*%
X27370330Y-83167055D02*
X27370330Y-82167055D01*
X27370330Y-82643246D02*
X27941758Y-82643246D01*
X27941758Y-83167055D02*
X27941758Y-82167055D01*
X28941758Y-83167055D02*
X28370330Y-83167055D01*
X28656044Y-83167055D02*
X28656044Y-82167055D01*
X28656044Y-82167055D02*
X28560806Y-82309913D01*
X28560806Y-82309913D02*
X28465568Y-82405151D01*
X28465568Y-82405151D02*
X28370330Y-82452770D01*
X29894139Y-83167055D02*
X29322711Y-83167055D01*
X29608425Y-83167055D02*
X29608425Y-82167055D01*
X29608425Y-82167055D02*
X29513187Y-82309913D01*
X29513187Y-82309913D02*
X29417949Y-82405151D01*
X29417949Y-82405151D02*
X29322711Y-82452770D01*
%TO.C,SW14*%
X48161550Y-20027800D02*
X49749050Y-20027800D01*
X48161550Y-21615300D02*
X48161550Y-20027800D01*
X48161550Y-33521550D02*
X48161550Y-31934050D01*
X49749050Y-33521550D02*
X48161550Y-33521550D01*
X60067800Y-20027800D02*
X61655300Y-20027800D01*
X61655300Y-20027800D02*
X61655300Y-21615300D01*
X61655300Y-31934050D02*
X61655300Y-33521550D01*
X61655300Y-33521550D02*
X60067800Y-33521550D01*
%TO.C,SW37*%
X29071550Y-86002800D02*
X30659050Y-86002800D01*
X29071550Y-87590300D02*
X29071550Y-86002800D01*
X29071550Y-99496550D02*
X29071550Y-97909050D01*
X30659050Y-99496550D02*
X29071550Y-99496550D01*
X40977800Y-86002800D02*
X42565300Y-86002800D01*
X42565300Y-86002800D02*
X42565300Y-87590300D01*
X42565300Y-97909050D02*
X42565300Y-99496550D01*
X42565300Y-99496550D02*
X40977800Y-99496550D01*
%TO.C,SW33*%
X29071550Y-67152800D02*
X30659050Y-67152800D01*
X29071550Y-68740300D02*
X29071550Y-67152800D01*
X29071550Y-80646550D02*
X29071550Y-79059050D01*
X30659050Y-80646550D02*
X29071550Y-80646550D01*
X40977800Y-67152800D02*
X42565300Y-67152800D01*
X42565300Y-67152800D02*
X42565300Y-68740300D01*
X42565300Y-79059050D02*
X42565300Y-80646550D01*
X42565300Y-80646550D02*
X40977800Y-80646550D01*
%TO.C,SW34*%
X48161550Y-57727800D02*
X49749050Y-57727800D01*
X48161550Y-59315300D02*
X48161550Y-57727800D01*
X48161550Y-71221550D02*
X48161550Y-69634050D01*
X49749050Y-71221550D02*
X48161550Y-71221550D01*
X60067800Y-57727800D02*
X61655300Y-57727800D01*
X61655300Y-57727800D02*
X61655300Y-59315300D01*
X61655300Y-69634050D02*
X61655300Y-71221550D01*
X61655300Y-71221550D02*
X60067800Y-71221550D01*
%TO.C,SW18*%
X61655300Y-52371550D02*
X60067800Y-52371550D01*
X61655300Y-50784050D02*
X61655300Y-52371550D01*
X61655300Y-38877800D02*
X61655300Y-40465300D01*
X60067800Y-38877800D02*
X61655300Y-38877800D01*
X49749050Y-52371550D02*
X48161550Y-52371550D01*
X48161550Y-52371550D02*
X48161550Y-50784050D01*
X48161550Y-40465300D02*
X48161550Y-38877800D01*
X48161550Y-38877800D02*
X49749050Y-38877800D01*
%TO.C,SW38*%
X48161550Y-76577800D02*
X49749050Y-76577800D01*
X48161550Y-78165300D02*
X48161550Y-76577800D01*
X48161550Y-90071550D02*
X48161550Y-88484050D01*
X49749050Y-90071550D02*
X48161550Y-90071550D01*
X60067800Y-76577800D02*
X61655300Y-76577800D01*
X61655300Y-76577800D02*
X61655300Y-78165300D01*
X61655300Y-88484050D02*
X61655300Y-90071550D01*
X61655300Y-90071550D02*
X60067800Y-90071550D01*
%TO.C,SW17*%
X29071550Y-48302800D02*
X30659050Y-48302800D01*
X29071550Y-49890300D02*
X29071550Y-48302800D01*
X29071550Y-61796550D02*
X29071550Y-60209050D01*
X30659050Y-61796550D02*
X29071550Y-61796550D01*
X40977800Y-48302800D02*
X42565300Y-48302800D01*
X42565300Y-48302800D02*
X42565300Y-49890300D01*
X42565300Y-60209050D02*
X42565300Y-61796550D01*
X42565300Y-61796550D02*
X40977800Y-61796550D01*
%TO.C,SW13*%
X29071550Y-29452800D02*
X30659050Y-29452800D01*
X29071550Y-31040300D02*
X29071550Y-29452800D01*
X29071550Y-42946550D02*
X29071550Y-41359050D01*
X30659050Y-42946550D02*
X29071550Y-42946550D01*
X40977800Y-29452800D02*
X42565300Y-29452800D01*
X42565300Y-29452800D02*
X42565300Y-31040300D01*
X42565300Y-41359050D02*
X42565300Y-42946550D01*
X42565300Y-42946550D02*
X40977800Y-42946550D01*
%TD*%
M02*
