%TF.GenerationSoftware,KiCad,Pcbnew,(7.0.0-0)*%
%TF.CreationDate,2023-03-19T19:43:54+09:00*%
%TF.ProjectId,pangaea-pcb-pinkey-k2-0.5ushift,70616e67-6165-4612-9d70-63622d70696e,rev?*%
%TF.SameCoordinates,Original*%
%TF.FileFunction,Soldermask,Bot*%
%TF.FilePolarity,Negative*%
%FSLAX46Y46*%
G04 Gerber Fmt 4.6, Leading zero omitted, Abs format (unit mm)*
G04 Created by KiCad (PCBNEW (7.0.0-0)) date 2023-03-19 19:43:54*
%MOMM*%
%LPD*%
G01*
G04 APERTURE LIST*
G04 Aperture macros list*
%AMRoundRect*
0 Rectangle with rounded corners*
0 $1 Rounding radius*
0 $2 $3 $4 $5 $6 $7 $8 $9 X,Y pos of 4 corners*
0 Add a 4 corners polygon primitive as box body*
4,1,4,$2,$3,$4,$5,$6,$7,$8,$9,$2,$3,0*
0 Add four circle primitives for the rounded corners*
1,1,$1+$1,$2,$3*
1,1,$1+$1,$4,$5*
1,1,$1+$1,$6,$7*
1,1,$1+$1,$8,$9*
0 Add four rect primitives between the rounded corners*
20,1,$1+$1,$2,$3,$4,$5,0*
20,1,$1+$1,$4,$5,$6,$7,0*
20,1,$1+$1,$6,$7,$8,$9,0*
20,1,$1+$1,$8,$9,$2,$3,0*%
G04 Aperture macros list end*
%ADD10RoundRect,0.150000X-0.150000X-0.650000X0.150000X-0.650000X0.150000X0.650000X-0.150000X0.650000X0*%
%ADD11RoundRect,0.249600X-0.350400X-0.850400X0.350400X-0.850400X0.350400X0.850400X-0.350400X0.850400X0*%
%ADD12C,1.680000*%
%ADD13C,1.700000*%
%ADD14C,4.900000*%
%ADD15O,1.200000X0.500000*%
%ADD16R,2.200000X2.000000*%
%ADD17C,3.800000*%
%ADD18R,1.200000X1.200000*%
%ADD19C,1.200000*%
%ADD20O,6.000000X4.200000*%
G04 APERTURE END LIST*
D10*
%TO.C,J8*%
X42098425Y-75714675D03*
X43098425Y-75714675D03*
X44098425Y-75714675D03*
X45098425Y-75714675D03*
D11*
X40798425Y-79014675D03*
X46398425Y-79014675D03*
%TD*%
D10*
%TO.C,J9*%
X41958425Y-57084675D03*
X42958425Y-57084675D03*
X43958425Y-57084675D03*
X44958425Y-57084675D03*
D11*
X40658425Y-60384675D03*
X46258425Y-60384675D03*
%TD*%
D12*
%TO.C,SW14*%
X49408425Y-26774675D03*
D13*
X49828425Y-26774675D03*
D14*
X54908425Y-26774675D03*
D15*
X59908424Y-21324674D03*
D13*
X59988425Y-26774675D03*
D12*
X60408425Y-26774675D03*
D16*
X46708424Y-30474674D03*
X47908424Y-24234674D03*
D17*
X49908425Y-30474675D03*
X51098425Y-24234675D03*
X54908425Y-32674675D03*
X57448425Y-21694675D03*
D16*
X58108424Y-32664674D03*
X60608424Y-21694674D03*
%TD*%
D12*
%TO.C,SW37*%
X30318425Y-92749675D03*
D13*
X30738425Y-92749675D03*
D14*
X35818425Y-92749675D03*
D15*
X40818424Y-87299674D03*
D13*
X40898425Y-92749675D03*
D12*
X41318425Y-92749675D03*
D16*
X27618424Y-96449674D03*
X28818424Y-90209674D03*
D17*
X30818425Y-96449675D03*
X32008425Y-90209675D03*
X35818425Y-98649675D03*
X38358425Y-87669675D03*
D16*
X39018424Y-98639674D03*
X41518424Y-87669674D03*
%TD*%
D18*
%TO.C,D14*%
X57513424Y-18704674D03*
X56063424Y-18704674D03*
X52613424Y-18704674D03*
D19*
X51163425Y-18704675D03*
%TD*%
D20*
%TO.C,H9*%
X62108424Y-36184674D03*
%TD*%
D18*
%TO.C,D37*%
X38913424Y-84844674D03*
X37463424Y-84844674D03*
X34013424Y-84844674D03*
D19*
X32563425Y-84844675D03*
%TD*%
D20*
%TO.C,H12*%
X28633424Y-45599674D03*
%TD*%
%TO.C,H10*%
X62128424Y-73864674D03*
%TD*%
D18*
%TO.C,D18*%
X58028424Y-37744674D03*
X56578424Y-37744674D03*
X53128424Y-37744674D03*
D19*
X51678425Y-37744675D03*
%TD*%
D18*
%TO.C,D17*%
X38733424Y-47024674D03*
X37283424Y-47024674D03*
X33833424Y-47024674D03*
D19*
X32383425Y-47024675D03*
%TD*%
D12*
%TO.C,SW33*%
X30318425Y-73899675D03*
D13*
X30738425Y-73899675D03*
D14*
X35818425Y-73899675D03*
D15*
X40818424Y-68449674D03*
D13*
X40898425Y-73899675D03*
D12*
X41318425Y-73899675D03*
D16*
X27618424Y-77599674D03*
X28818424Y-71359674D03*
D17*
X30818425Y-77599675D03*
X32008425Y-71359675D03*
X35818425Y-79799675D03*
X38358425Y-68819675D03*
D16*
X39018424Y-79789674D03*
X41518424Y-68819674D03*
%TD*%
D12*
%TO.C,SW34*%
X49408425Y-64474675D03*
D13*
X49828425Y-64474675D03*
D14*
X54908425Y-64474675D03*
D15*
X59908424Y-59024674D03*
D13*
X59988425Y-64474675D03*
D12*
X60408425Y-64474675D03*
D16*
X46708424Y-68174674D03*
X47908424Y-61934674D03*
D17*
X49908425Y-68174675D03*
X51098425Y-61934675D03*
X54908425Y-70374675D03*
X57448425Y-59394675D03*
D16*
X58108424Y-70364674D03*
X60608424Y-59394674D03*
%TD*%
D18*
%TO.C,D33*%
X39148424Y-66014674D03*
X37698424Y-66014674D03*
X34248424Y-66014674D03*
D19*
X32798425Y-66014675D03*
%TD*%
D18*
%TO.C,D34*%
X57673424Y-56344674D03*
X56223424Y-56344674D03*
X52773424Y-56344674D03*
D19*
X51323425Y-56344675D03*
%TD*%
D18*
%TO.C,D13*%
X38783424Y-28074674D03*
X37333424Y-28074674D03*
X33883424Y-28074674D03*
D19*
X32433425Y-28074675D03*
%TD*%
D18*
%TO.C,D38*%
X57543424Y-75204674D03*
X56093424Y-75204674D03*
X52643424Y-75204674D03*
D19*
X51193425Y-75204675D03*
%TD*%
D16*
%TO.C,SW18*%
X60608424Y-40544674D03*
X58108424Y-51514674D03*
D17*
X57448425Y-40544675D03*
X54908425Y-51524675D03*
X51098425Y-43084675D03*
X49908425Y-49324675D03*
D16*
X47908424Y-43084674D03*
X46708424Y-49324674D03*
D12*
X60408425Y-45624675D03*
D13*
X59988425Y-45624675D03*
D15*
X59908424Y-40174674D03*
D14*
X54908425Y-45624675D03*
D13*
X49828425Y-45624675D03*
D12*
X49408425Y-45624675D03*
%TD*%
%TO.C,SW38*%
X49408425Y-83324675D03*
D13*
X49828425Y-83324675D03*
D14*
X54908425Y-83324675D03*
D15*
X59908424Y-77874674D03*
D13*
X59988425Y-83324675D03*
D12*
X60408425Y-83324675D03*
D16*
X46708424Y-87024674D03*
X47908424Y-80784674D03*
D17*
X49908425Y-87024675D03*
X51098425Y-80784675D03*
X54908425Y-89224675D03*
X57448425Y-78244675D03*
D16*
X58108424Y-89214674D03*
X60608424Y-78244674D03*
%TD*%
D12*
%TO.C,SW17*%
X30318425Y-55049675D03*
D13*
X30738425Y-55049675D03*
D14*
X35818425Y-55049675D03*
D15*
X40818424Y-49599674D03*
D13*
X40898425Y-55049675D03*
D12*
X41318425Y-55049675D03*
D16*
X27618424Y-58749674D03*
X28818424Y-52509674D03*
D17*
X30818425Y-58749675D03*
X32008425Y-52509675D03*
X35818425Y-60949675D03*
X38358425Y-49969675D03*
D16*
X39018424Y-60939674D03*
X41518424Y-49969674D03*
%TD*%
D12*
%TO.C,SW13*%
X30318425Y-36199675D03*
D13*
X30738425Y-36199675D03*
D14*
X35818425Y-36199675D03*
D15*
X40818424Y-30749674D03*
D13*
X40898425Y-36199675D03*
D12*
X41318425Y-36199675D03*
D16*
X27618424Y-39899674D03*
X28818424Y-33659674D03*
D17*
X30818425Y-39899675D03*
X32008425Y-33659675D03*
X35818425Y-42099675D03*
X38358425Y-31119675D03*
D16*
X39018424Y-42089674D03*
X41518424Y-31119674D03*
%TD*%
D20*
%TO.C,H11*%
X28608424Y-83299674D03*
%TD*%
M02*
