%TF.GenerationSoftware,KiCad,Pcbnew,(7.0.0-0)*%
%TF.CreationDate,2023-03-19T19:43:54+09:00*%
%TF.ProjectId,pangaea-pcb-pinkey-k2-0.5ushift,70616e67-6165-4612-9d70-63622d70696e,rev?*%
%TF.SameCoordinates,Original*%
%TF.FileFunction,Paste,Bot*%
%TF.FilePolarity,Positive*%
%FSLAX46Y46*%
G04 Gerber Fmt 4.6, Leading zero omitted, Abs format (unit mm)*
G04 Created by KiCad (PCBNEW (7.0.0-0)) date 2023-03-19 19:43:54*
%MOMM*%
%LPD*%
G01*
G04 APERTURE LIST*
G04 Aperture macros list*
%AMRoundRect*
0 Rectangle with rounded corners*
0 $1 Rounding radius*
0 $2 $3 $4 $5 $6 $7 $8 $9 X,Y pos of 4 corners*
0 Add a 4 corners polygon primitive as box body*
4,1,4,$2,$3,$4,$5,$6,$7,$8,$9,$2,$3,0*
0 Add four circle primitives for the rounded corners*
1,1,$1+$1,$2,$3*
1,1,$1+$1,$4,$5*
1,1,$1+$1,$6,$7*
1,1,$1+$1,$8,$9*
0 Add four rect primitives between the rounded corners*
20,1,$1+$1,$2,$3,$4,$5,0*
20,1,$1+$1,$4,$5,$6,$7,0*
20,1,$1+$1,$6,$7,$8,$9,0*
20,1,$1+$1,$8,$9,$2,$3,0*%
G04 Aperture macros list end*
%ADD10RoundRect,0.150000X-0.150000X-0.650000X0.150000X-0.650000X0.150000X0.650000X-0.150000X0.650000X0*%
%ADD11R,2.200000X2.000000*%
%ADD12R,1.200000X1.200000*%
G04 APERTURE END LIST*
D10*
%TO.C,J8*%
X42098425Y-75714675D03*
X43098425Y-75714675D03*
X44098425Y-75714675D03*
X45098425Y-75714675D03*
%TD*%
%TO.C,J9*%
X41958425Y-57084675D03*
X42958425Y-57084675D03*
X43958425Y-57084675D03*
X44958425Y-57084675D03*
%TD*%
D11*
%TO.C,SW14*%
X46708424Y-30474674D03*
X47908424Y-24234674D03*
X58108424Y-32664674D03*
X60608424Y-21694674D03*
%TD*%
%TO.C,SW37*%
X27618424Y-96449674D03*
X28818424Y-90209674D03*
X39018424Y-98639674D03*
X41518424Y-87669674D03*
%TD*%
D12*
%TO.C,D14*%
X56063424Y-18704674D03*
X52613424Y-18704674D03*
%TD*%
%TO.C,D37*%
X37463424Y-84844674D03*
X34013424Y-84844674D03*
%TD*%
%TO.C,D18*%
X56578424Y-37744674D03*
X53128424Y-37744674D03*
%TD*%
%TO.C,D17*%
X37283424Y-47024674D03*
X33833424Y-47024674D03*
%TD*%
D11*
%TO.C,SW33*%
X27618424Y-77599674D03*
X28818424Y-71359674D03*
X39018424Y-79789674D03*
X41518424Y-68819674D03*
%TD*%
%TO.C,SW34*%
X46708424Y-68174674D03*
X47908424Y-61934674D03*
X58108424Y-70364674D03*
X60608424Y-59394674D03*
%TD*%
D12*
%TO.C,D33*%
X37698424Y-66014674D03*
X34248424Y-66014674D03*
%TD*%
%TO.C,D34*%
X56223424Y-56344674D03*
X52773424Y-56344674D03*
%TD*%
%TO.C,D13*%
X37333424Y-28074674D03*
X33883424Y-28074674D03*
%TD*%
%TO.C,D38*%
X56093424Y-75204674D03*
X52643424Y-75204674D03*
%TD*%
D11*
%TO.C,SW18*%
X60608424Y-40544674D03*
X58108424Y-51514674D03*
X47908424Y-43084674D03*
X46708424Y-49324674D03*
%TD*%
%TO.C,SW38*%
X46708424Y-87024674D03*
X47908424Y-80784674D03*
X58108424Y-89214674D03*
X60608424Y-78244674D03*
%TD*%
%TO.C,SW17*%
X27618424Y-58749674D03*
X28818424Y-52509674D03*
X39018424Y-60939674D03*
X41518424Y-49969674D03*
%TD*%
%TO.C,SW13*%
X27618424Y-39899674D03*
X28818424Y-33659674D03*
X39018424Y-42089674D03*
X41518424Y-31119674D03*
%TD*%
M02*
