M48
; DRILL file {KiCad (7.0.0-0)} date Sunday, 19 March 2023 at 19:43:51
; FORMAT={-:-/ absolute / inch / decimal}
; #@! TF.CreationDate,2023-03-19T19:43:51+09:00
; #@! TF.GenerationSoftware,Kicad,Pcbnew,(7.0.0-0)
; #@! TF.FileFunction,NonPlated,1,2,NPTH
FMAT,2
INCH
; #@! TA.AperFunction,NonPlated,NPTH,ComponentDrill
T1C0.0197
; #@! TA.AperFunction,NonPlated,NPTH,ComponentDrill
T2C0.0661
; #@! TA.AperFunction,NonPlated,NPTH,ComponentDrill
T3C0.0669
; #@! TA.AperFunction,NonPlated,NPTH,ComponentDrill
T4C0.1654
; #@! TA.AperFunction,NonPlated,NPTH,ComponentDrill
T5C0.1929
%
G90
G05
T2
X1.1936Y-1.4252
X1.1936Y-2.1673
X1.1936Y-2.9094
X1.1936Y-3.6516
X1.6267Y-1.4252
X1.6267Y-2.1673
X1.6267Y-2.9094
X1.6267Y-3.6516
X1.9452Y-1.0541
X1.9452Y-1.7962
X1.9452Y-2.5384
X1.9452Y-3.2805
X2.3783Y-1.0541
X2.3783Y-1.7962
X2.3783Y-2.5384
X2.3783Y-3.2805
T3
X1.2102Y-1.4252
X1.2102Y-2.1673
X1.2102Y-2.9094
X1.2102Y-3.6516
X1.6102Y-1.4252
X1.6102Y-2.1673
X1.6102Y-2.9094
X1.6102Y-3.6516
X1.9617Y-1.0541
X1.9617Y-1.7962
X1.9617Y-2.5384
X1.9617Y-3.2805
X2.3617Y-1.0541
X2.3617Y-1.7962
X2.3617Y-2.5384
X2.3617Y-3.2805
T5
X1.4102Y-1.4252
X1.4102Y-2.1673
X1.4102Y-2.9094
X1.4102Y-3.6516
X2.1617Y-1.0541
X2.1617Y-1.7962
X2.1617Y-2.5384
X2.1617Y-3.2805
T1
G00X1.6208Y-1.2106
M15
G01X1.5932Y-1.2106
M16
G05
G00X1.6208Y-1.9527
M15
G01X1.5932Y-1.9527
M16
G05
G00X1.6208Y-2.6949
M15
G01X1.5932Y-2.6949
M16
G05
G00X1.6208Y-3.437
M15
G01X1.5932Y-3.437
M16
G05
G00X2.3724Y-0.8396
M15
G01X2.3448Y-0.8396
M16
G05
G00X2.3724Y-1.5817
M15
G01X2.3448Y-1.5817
M16
G05
G00X2.3724Y-2.3238
M15
G01X2.3448Y-2.3238
M16
G05
G00X2.3724Y-3.0659
M15
G01X2.3448Y-3.0659
M16
G05
T4
G00X1.0909Y-3.2795
M15
G01X1.1617Y-3.2795
M16
G05
G00X1.0919Y-1.7953
M15
G01X1.1627Y-1.7953
M16
G05
G00X2.4098Y-1.4246
M15
G01X2.4806Y-1.4246
M16
G05
G00X2.4106Y-2.9081
M15
G01X2.4814Y-2.9081
M16
G05
T0
M30
