%TF.GenerationSoftware,KiCad,Pcbnew,(7.0.0-0)*%
%TF.CreationDate,2023-03-19T19:43:54+09:00*%
%TF.ProjectId,pangaea-pcb-pinkey-k2-0.5ushift,70616e67-6165-4612-9d70-63622d70696e,rev?*%
%TF.SameCoordinates,Original*%
%TF.FileFunction,Copper,L2,Bot*%
%TF.FilePolarity,Positive*%
%FSLAX46Y46*%
G04 Gerber Fmt 4.6, Leading zero omitted, Abs format (unit mm)*
G04 Created by KiCad (PCBNEW (7.0.0-0)) date 2023-03-19 19:43:54*
%MOMM*%
%LPD*%
G01*
G04 APERTURE LIST*
G04 Aperture macros list*
%AMRoundRect*
0 Rectangle with rounded corners*
0 $1 Rounding radius*
0 $2 $3 $4 $5 $6 $7 $8 $9 X,Y pos of 4 corners*
0 Add a 4 corners polygon primitive as box body*
4,1,4,$2,$3,$4,$5,$6,$7,$8,$9,$2,$3,0*
0 Add four circle primitives for the rounded corners*
1,1,$1+$1,$2,$3*
1,1,$1+$1,$4,$5*
1,1,$1+$1,$6,$7*
1,1,$1+$1,$8,$9*
0 Add four rect primitives between the rounded corners*
20,1,$1+$1,$2,$3,$4,$5,0*
20,1,$1+$1,$4,$5,$6,$7,0*
20,1,$1+$1,$6,$7,$8,$9,0*
20,1,$1+$1,$8,$9,$2,$3,0*%
G04 Aperture macros list end*
%TA.AperFunction,SMDPad,CuDef*%
%ADD10RoundRect,0.150000X-0.150000X-0.650000X0.150000X-0.650000X0.150000X0.650000X-0.150000X0.650000X0*%
%TD*%
%TA.AperFunction,ComponentPad*%
%ADD11RoundRect,0.249600X-0.350400X-0.850400X0.350400X-0.850400X0.350400X0.850400X-0.350400X0.850400X0*%
%TD*%
%TA.AperFunction,SMDPad,CuDef*%
%ADD12R,2.200000X2.000000*%
%TD*%
%TA.AperFunction,ComponentPad*%
%ADD13C,3.800000*%
%TD*%
%TA.AperFunction,ComponentPad*%
%ADD14R,1.200000X1.200000*%
%TD*%
%TA.AperFunction,SMDPad,CuDef*%
%ADD15R,1.200000X1.200000*%
%TD*%
%TA.AperFunction,ComponentPad*%
%ADD16C,1.200000*%
%TD*%
%TA.AperFunction,Conductor*%
%ADD17C,0.250000*%
%TD*%
G04 APERTURE END LIST*
D10*
%TO.P,J8,1,Pin_1*%
%TO.N,PX1*%
X42098425Y-75714675D03*
%TO.P,J8,2,Pin_2*%
%TO.N,PX2*%
X43098425Y-75714675D03*
%TO.P,J8,3,Pin_3*%
%TO.N,PY4*%
X44098425Y-75714675D03*
%TO.P,J8,4,Pin_4*%
%TO.N,PY5*%
X45098425Y-75714675D03*
D11*
%TO.P,J8,MP*%
%TO.N,N/C*%
X40798425Y-79014675D03*
X46398425Y-79014675D03*
%TD*%
D10*
%TO.P,J9,1,Pin_1*%
%TO.N,PX1*%
X41958425Y-57084675D03*
%TO.P,J9,2,Pin_2*%
%TO.N,PX2*%
X42958425Y-57084675D03*
%TO.P,J9,3,Pin_3*%
%TO.N,PY4*%
X43958425Y-57084675D03*
%TO.P,J9,4,Pin_4*%
%TO.N,PY5*%
X44958425Y-57084675D03*
D11*
%TO.P,J9,MP*%
%TO.N,N/C*%
X40658425Y-60384675D03*
X46258425Y-60384675D03*
%TD*%
D12*
%TO.P,SW14,1,1*%
%TO.N,PX2*%
X46708424Y-30474674D03*
X47908424Y-24234674D03*
D13*
X49908425Y-30474675D03*
X51098425Y-24234675D03*
%TO.P,SW14,2,2*%
%TO.N,Net-(D14-A)*%
X54908425Y-32674675D03*
X57448425Y-21694675D03*
D12*
X58108424Y-32664674D03*
X60608424Y-21694674D03*
%TD*%
%TO.P,SW37,1,1*%
%TO.N,PX1*%
X27618424Y-96449674D03*
X28818424Y-90209674D03*
D13*
X30818425Y-96449675D03*
X32008425Y-90209675D03*
%TO.P,SW37,2,2*%
%TO.N,Net-(D37-K)*%
X35818425Y-98649675D03*
X38358425Y-87669675D03*
D12*
X39018424Y-98639674D03*
X41518424Y-87669674D03*
%TD*%
D14*
%TO.P,D14,1,K*%
%TO.N,PY4*%
X57513424Y-18704674D03*
D15*
X56063424Y-18704674D03*
%TO.P,D14,2,A*%
%TO.N,Net-(D14-A)*%
X52613424Y-18704674D03*
D16*
X51163425Y-18704675D03*
%TD*%
D14*
%TO.P,D37,1,K*%
%TO.N,Net-(D37-K)*%
X38913424Y-84844674D03*
D15*
X37463424Y-84844674D03*
%TO.P,D37,2,A*%
%TO.N,PY5*%
X34013424Y-84844674D03*
D16*
X32563425Y-84844675D03*
%TD*%
D14*
%TO.P,D18,1,K*%
%TO.N,PY5*%
X58028424Y-37744674D03*
D15*
X56578424Y-37744674D03*
%TO.P,D18,2,A*%
%TO.N,Net-(D18-A)*%
X53128424Y-37744674D03*
D16*
X51678425Y-37744675D03*
%TD*%
D14*
%TO.P,D17,1,K*%
%TO.N,PY5*%
X38733424Y-47024674D03*
D15*
X37283424Y-47024674D03*
%TO.P,D17,2,A*%
%TO.N,Net-(D17-A)*%
X33833424Y-47024674D03*
D16*
X32383425Y-47024675D03*
%TD*%
D12*
%TO.P,SW33,1,1*%
%TO.N,PX1*%
X27618424Y-77599674D03*
X28818424Y-71359674D03*
D13*
X30818425Y-77599675D03*
X32008425Y-71359675D03*
%TO.P,SW33,2,2*%
%TO.N,Net-(D33-K)*%
X35818425Y-79799675D03*
X38358425Y-68819675D03*
D12*
X39018424Y-79789674D03*
X41518424Y-68819674D03*
%TD*%
%TO.P,SW34,1,1*%
%TO.N,PX2*%
X46708424Y-68174674D03*
X47908424Y-61934674D03*
D13*
X49908425Y-68174675D03*
X51098425Y-61934675D03*
%TO.P,SW34,2,2*%
%TO.N,Net-(D34-K)*%
X54908425Y-70374675D03*
X57448425Y-59394675D03*
D12*
X58108424Y-70364674D03*
X60608424Y-59394674D03*
%TD*%
D14*
%TO.P,D33,1,K*%
%TO.N,Net-(D33-K)*%
X39148424Y-66014674D03*
D15*
X37698424Y-66014674D03*
%TO.P,D33,2,A*%
%TO.N,PY4*%
X34248424Y-66014674D03*
D16*
X32798425Y-66014675D03*
%TD*%
D14*
%TO.P,D34,1,K*%
%TO.N,Net-(D34-K)*%
X57673424Y-56344674D03*
D15*
X56223424Y-56344674D03*
%TO.P,D34,2,A*%
%TO.N,PY4*%
X52773424Y-56344674D03*
D16*
X51323425Y-56344675D03*
%TD*%
D14*
%TO.P,D13,1,K*%
%TO.N,PY4*%
X38783424Y-28074674D03*
D15*
X37333424Y-28074674D03*
%TO.P,D13,2,A*%
%TO.N,Net-(D13-A)*%
X33883424Y-28074674D03*
D16*
X32433425Y-28074675D03*
%TD*%
D14*
%TO.P,D38,1,K*%
%TO.N,Net-(D38-K)*%
X57543424Y-75204674D03*
D15*
X56093424Y-75204674D03*
%TO.P,D38,2,A*%
%TO.N,PY5*%
X52643424Y-75204674D03*
D16*
X51193425Y-75204675D03*
%TD*%
D12*
%TO.P,SW18,2,2*%
%TO.N,Net-(D18-A)*%
X60608424Y-40544674D03*
X58108424Y-51514674D03*
D13*
X57448425Y-40544675D03*
X54908425Y-51524675D03*
%TO.P,SW18,1,1*%
%TO.N,PX2*%
X51098425Y-43084675D03*
X49908425Y-49324675D03*
D12*
X47908424Y-43084674D03*
X46708424Y-49324674D03*
%TD*%
%TO.P,SW38,1,1*%
%TO.N,PX2*%
X46708424Y-87024674D03*
X47908424Y-80784674D03*
D13*
X49908425Y-87024675D03*
X51098425Y-80784675D03*
%TO.P,SW38,2,2*%
%TO.N,Net-(D38-K)*%
X54908425Y-89224675D03*
X57448425Y-78244675D03*
D12*
X58108424Y-89214674D03*
X60608424Y-78244674D03*
%TD*%
%TO.P,SW17,1,1*%
%TO.N,PX1*%
X27618424Y-58749674D03*
X28818424Y-52509674D03*
D13*
X30818425Y-58749675D03*
X32008425Y-52509675D03*
%TO.P,SW17,2,2*%
%TO.N,Net-(D17-A)*%
X35818425Y-60949675D03*
X38358425Y-49969675D03*
D12*
X39018424Y-60939674D03*
X41518424Y-49969674D03*
%TD*%
%TO.P,SW13,1,1*%
%TO.N,PX1*%
X27618424Y-39899674D03*
X28818424Y-33659674D03*
D13*
X30818425Y-39899675D03*
X32008425Y-33659675D03*
%TO.P,SW13,2,2*%
%TO.N,Net-(D13-A)*%
X35818425Y-42099675D03*
X38358425Y-31119675D03*
D12*
X39018424Y-42089674D03*
X41518424Y-31119674D03*
%TD*%
D17*
%TO.N,Net-(D37-K)*%
X38358425Y-87669675D02*
X38563425Y-87874675D01*
X41406598Y-87874675D02*
X41565012Y-87716261D01*
X38563425Y-87874675D02*
X41406598Y-87874675D01*
%TO.N,Net-(D33-K)*%
X38358425Y-68819675D02*
X38563425Y-69024675D01*
X38563425Y-69024675D02*
X41406598Y-69024675D01*
X41406598Y-69024675D02*
X41565012Y-68866261D01*
%TO.N,Net-(D38-K)*%
X57448425Y-78244675D02*
X57653425Y-78449675D01*
X57653425Y-78449675D02*
X60496598Y-78449675D01*
X60496598Y-78449675D02*
X60655012Y-78291261D01*
%TO.N,Net-(D34-K)*%
X57448425Y-59394675D02*
X57653425Y-59599675D01*
X57653425Y-59599675D02*
X60496598Y-59599675D01*
X60496598Y-59599675D02*
X60655012Y-59441261D01*
%TO.N,Net-(D17-A)*%
X38358425Y-49969675D02*
X38563425Y-50174675D01*
X38563425Y-50174675D02*
X41406598Y-50174675D01*
X41406598Y-50174675D02*
X41565012Y-50016261D01*
%TO.N,Net-(D18-A)*%
X57448425Y-40544675D02*
X57653425Y-40749675D01*
X57653425Y-40749675D02*
X60496598Y-40749675D01*
X60496598Y-40749675D02*
X60655012Y-40591261D01*
%TO.N,Net-(D13-A)*%
X38358425Y-31119675D02*
X38563425Y-31324675D01*
X41406598Y-31324675D02*
X41565012Y-31166261D01*
X38563425Y-31324675D02*
X41406598Y-31324675D01*
%TO.N,Net-(D14-A)*%
X57448425Y-21694675D02*
X57653425Y-21899675D01*
X57653425Y-21899675D02*
X60496598Y-21899675D01*
X60496598Y-21899675D02*
X60655012Y-21741261D01*
%TO.N,PX2*%
X47908425Y-43084675D02*
X51098425Y-43084675D01*
X47908425Y-49324675D02*
X47908425Y-43084675D01*
X47908425Y-49324675D02*
X49908425Y-49324675D01*
X46708425Y-49324675D02*
X47908425Y-49324675D01*
X42958425Y-54399775D02*
X42958425Y-57084675D01*
X46708425Y-50649775D02*
X42958425Y-54399775D01*
X46708425Y-49324675D02*
X46708425Y-50649775D01*
X51098425Y-80784675D02*
X47908425Y-80784675D01*
X47908425Y-82109775D02*
X47908425Y-87024675D01*
X49908425Y-87024675D02*
X47908425Y-87024675D01*
X47908425Y-87024675D02*
X46708425Y-87024675D01*
X49908425Y-68174675D02*
X46708425Y-68174675D01*
X51003625Y-61934675D02*
X51098425Y-61934675D01*
X51003625Y-67079475D02*
X49908425Y-68174675D01*
X51003625Y-61934675D02*
X51003625Y-67079475D01*
X51003625Y-61934675D02*
X47908425Y-61934675D01*
X49908425Y-30474675D02*
X46708425Y-30474675D01*
X47908425Y-24234675D02*
X51003625Y-24234675D01*
X51003625Y-24234675D02*
X51098425Y-24234675D01*
X51003625Y-29379475D02*
X49908425Y-30474675D01*
X51003625Y-24234675D02*
X51003625Y-29379475D01*
X47908425Y-80784675D02*
X47908425Y-81447175D01*
X47908425Y-81447175D02*
X47908425Y-82109775D01*
X43098425Y-77759875D02*
X43098425Y-75714675D01*
X46785725Y-81447175D02*
X43098425Y-77759875D01*
X47908425Y-81447175D02*
X46785725Y-81447175D01*
%TO.N,PX1*%
X30818425Y-39899675D02*
X28932425Y-39899675D01*
X28932425Y-39899675D02*
X27618425Y-39899675D01*
X28932425Y-33659675D02*
X28932425Y-39899675D01*
X32008425Y-33659675D02*
X28932425Y-33659675D01*
X28932425Y-33659675D02*
X28818425Y-33659675D01*
X30818425Y-58749675D02*
X28932425Y-58749675D01*
X28932425Y-58749675D02*
X27618425Y-58749675D01*
X28932425Y-52509675D02*
X28932425Y-58749675D01*
X32008425Y-52509675D02*
X28932425Y-52509675D01*
X28932425Y-52509675D02*
X28818425Y-52509675D01*
X28932425Y-77599675D02*
X27618425Y-77599675D01*
X28932425Y-71359675D02*
X28932425Y-77599675D01*
X32008425Y-71359675D02*
X28932425Y-71359675D01*
X28932425Y-71359675D02*
X28818425Y-71359675D01*
X30818425Y-77599675D02*
X28932425Y-77599675D01*
X40574525Y-77238575D02*
X42098425Y-75714675D01*
X31179525Y-77238575D02*
X40574525Y-77238575D01*
X30818425Y-77599675D02*
X31179525Y-77238575D01*
X30818425Y-96449675D02*
X28932425Y-96449675D01*
X28932425Y-96449675D02*
X27618425Y-96449675D01*
X28932425Y-90209675D02*
X28932425Y-96449675D01*
X32008425Y-90209675D02*
X28932425Y-90209675D01*
X28932425Y-90209675D02*
X28818425Y-90209675D01*
X30818425Y-59128775D02*
X30818425Y-58749675D01*
X34876425Y-63186775D02*
X30818425Y-59128775D01*
X37364725Y-63186775D02*
X34876425Y-63186775D01*
X38216125Y-62335375D02*
X37364725Y-63186775D01*
X40756925Y-62335375D02*
X38216125Y-62335375D01*
X41958425Y-61133875D02*
X40756925Y-62335375D01*
X41958425Y-57084675D02*
X41958425Y-61133875D01*
%TO.N,Net-(D38-K)*%
X56093425Y-75204675D02*
X57543425Y-75204675D01*
X54918425Y-89214675D02*
X54908425Y-89224675D01*
X58108425Y-89214675D02*
X54918425Y-89214675D01*
X58108425Y-89214675D02*
X58108425Y-87889575D01*
X58149725Y-87848275D02*
X58149725Y-81196875D01*
X58108425Y-87889575D02*
X58149725Y-87848275D01*
X58149725Y-81196875D02*
X58149725Y-80837575D01*
X58149725Y-80837575D02*
X58149725Y-80657975D01*
X58149725Y-80657975D02*
X58149725Y-80568175D01*
X58149725Y-80568175D02*
X58149725Y-80523275D01*
X58149725Y-80523275D02*
X58149725Y-80500775D01*
X58149725Y-80500775D02*
X58149725Y-80489575D01*
X58149725Y-80489575D02*
X58149725Y-80483975D01*
X58149725Y-80483975D02*
X58149725Y-80481175D01*
X58149725Y-80481175D02*
X58149725Y-80479775D01*
X58149725Y-80479775D02*
X58149725Y-80479075D01*
X58149725Y-80479075D02*
X58149725Y-80478675D01*
X58149725Y-80478675D02*
X58149725Y-80478475D01*
X58149725Y-80478475D02*
X58149725Y-80478375D01*
X58149725Y-78945975D02*
X57448425Y-78244675D01*
X58149725Y-80478375D02*
X58149725Y-78945975D01*
%TO.N,Net-(D37-K)*%
X37463425Y-84844675D02*
X38913425Y-84844675D01*
X39018425Y-98639675D02*
X38610825Y-98639675D01*
X35828425Y-98639675D02*
X35818425Y-98649675D01*
X38610825Y-98639675D02*
X35828425Y-98639675D01*
X38610825Y-98639675D02*
X38610825Y-91075975D01*
X38610825Y-91075975D02*
X38610825Y-90714075D01*
X38610825Y-90714075D02*
X38610825Y-90533175D01*
X38610825Y-90533175D02*
X38610825Y-90442675D01*
X38610825Y-90442675D02*
X38610825Y-90397475D01*
X38610825Y-90397475D02*
X38610825Y-90374875D01*
X38610825Y-90374875D02*
X38610825Y-90363575D01*
X38610825Y-90363575D02*
X38610825Y-90357875D01*
X38610825Y-90357875D02*
X38610825Y-90355075D01*
X38610825Y-90355075D02*
X38610825Y-90353675D01*
X38610825Y-90353675D02*
X38610825Y-90352975D01*
X38610825Y-90352975D02*
X38610825Y-90352575D01*
X38610825Y-90352575D02*
X38610825Y-90352375D01*
X38610825Y-90352375D02*
X38610825Y-90352275D01*
X38610825Y-87922075D02*
X38358425Y-87669675D01*
X38610825Y-90352275D02*
X38610825Y-87922075D01*
%TO.N,Net-(D34-K)*%
X56223425Y-56344675D02*
X57673425Y-56344675D01*
X54918425Y-70364675D02*
X54908425Y-70374675D01*
X58108425Y-70364675D02*
X54918425Y-70364675D01*
X58108425Y-70364675D02*
X58108425Y-69039575D01*
X58150925Y-68997075D02*
X58150925Y-62521175D01*
X58108425Y-69039575D02*
X58150925Y-68997075D01*
X58150925Y-62521175D02*
X58150925Y-62074175D01*
X58150925Y-62074175D02*
X58150925Y-61850675D01*
X58150925Y-61850675D02*
X58150925Y-61738875D01*
X58150925Y-61738875D02*
X58150925Y-61682975D01*
X58150925Y-61682975D02*
X58150925Y-61655075D01*
X58150925Y-61655075D02*
X58150925Y-61641075D01*
X58150925Y-61641075D02*
X58150925Y-61634075D01*
X58150925Y-61634075D02*
X58150925Y-61630575D01*
X58150925Y-61630575D02*
X58150925Y-61628875D01*
X58150925Y-61628875D02*
X58150925Y-61627975D01*
X58150925Y-61627975D02*
X58150925Y-61627575D01*
X58150925Y-61627575D02*
X58150925Y-61627375D01*
X58150925Y-61627375D02*
X58150925Y-61627275D01*
X58150925Y-61627275D02*
X58150925Y-61627175D01*
X58150925Y-60097175D02*
X57448425Y-59394675D01*
X58150925Y-61627175D02*
X58150925Y-60097175D01*
%TO.N,Net-(D33-K)*%
X37698425Y-66014675D02*
X39148425Y-66014675D01*
X35828425Y-79789675D02*
X35818425Y-79799675D01*
X39018425Y-79789675D02*
X35828425Y-79789675D01*
%TO.N,Net-(D18-A)*%
X56673325Y-51524675D02*
X56683325Y-51514675D01*
X54908425Y-51524675D02*
X56673325Y-51524675D01*
X58108425Y-51514675D02*
X57783425Y-51514675D01*
X57783425Y-51514675D02*
X56683325Y-51514675D01*
X51678425Y-37744675D02*
X53128425Y-37744675D01*
X56853525Y-40544675D02*
X57448425Y-40544675D01*
X54053525Y-37744675D02*
X56853525Y-40544675D01*
X53128425Y-37744675D02*
X54053525Y-37744675D01*
X57783425Y-51514675D02*
X57783425Y-43909675D01*
X57783425Y-43909675D02*
X57783425Y-43527175D01*
X57783425Y-43527175D02*
X57783425Y-43335875D01*
X57783425Y-43335875D02*
X57783425Y-43240275D01*
X57783425Y-43240275D02*
X57783425Y-43192475D01*
X57783425Y-43192475D02*
X57783425Y-43168575D01*
X57783425Y-43168575D02*
X57783425Y-43156575D01*
X57783425Y-43156575D02*
X57783425Y-43150575D01*
X57783425Y-43150575D02*
X57783425Y-43147575D01*
X57783425Y-43147575D02*
X57783425Y-43146075D01*
X57783425Y-43146075D02*
X57783425Y-43145375D01*
X57783425Y-43145375D02*
X57783425Y-43144975D01*
X57783425Y-43144975D02*
X57783425Y-43144775D01*
X57783425Y-43144775D02*
X57783425Y-43144675D01*
X57783425Y-40879675D02*
X57448425Y-40544675D01*
X57783425Y-43144675D02*
X57783425Y-40879675D01*
%TO.N,Net-(D17-A)*%
X32383425Y-47024675D02*
X33833425Y-47024675D01*
X33833425Y-47024675D02*
X34758525Y-47024675D01*
X37703525Y-49969675D02*
X38358425Y-49969675D01*
X34758525Y-47024675D02*
X37703525Y-49969675D01*
X39018425Y-60939675D02*
X38609625Y-60939675D01*
X35828425Y-60939675D02*
X35818425Y-60949675D01*
X38609625Y-60939675D02*
X35828425Y-60939675D01*
X38609625Y-60939675D02*
X38609625Y-53376575D01*
X38609625Y-53376575D02*
X38609625Y-53014975D01*
X38609625Y-53014975D02*
X38609625Y-52834175D01*
X38609625Y-52834175D02*
X38609625Y-52743775D01*
X38609625Y-52743775D02*
X38609625Y-52698575D01*
X38609625Y-52698575D02*
X38609625Y-52675975D01*
X38609625Y-52675975D02*
X38609625Y-52664675D01*
X38609625Y-52664675D02*
X38609625Y-52659075D01*
X38609625Y-52659075D02*
X38609625Y-52656275D01*
X38609625Y-52656275D02*
X38609625Y-52654875D01*
X38609625Y-52654875D02*
X38609625Y-52654175D01*
X38609625Y-52654175D02*
X38609625Y-52653775D01*
X38609625Y-52653775D02*
X38609625Y-52653575D01*
X38609625Y-52653575D02*
X38609625Y-52653475D01*
X38609625Y-50220875D02*
X38358425Y-49969675D01*
X38609625Y-52653475D02*
X38609625Y-50220875D01*
%TO.N,PY5*%
X37283425Y-47024675D02*
X38733425Y-47024675D01*
X38733425Y-47024675D02*
X39658525Y-47024675D01*
X56578425Y-37744675D02*
X58028425Y-37744675D01*
X49897625Y-36785575D02*
X39658525Y-47024675D01*
X54694225Y-36785575D02*
X49897625Y-36785575D01*
X55653325Y-37744675D02*
X54694225Y-36785575D01*
X56578425Y-37744675D02*
X55653325Y-37744675D01*
X32563425Y-84844675D02*
X34013425Y-84844675D01*
X58028425Y-37744675D02*
X58953525Y-37744675D01*
X45155625Y-57281875D02*
X53798825Y-57281875D01*
X44958425Y-57084675D02*
X45155625Y-57281875D01*
X53798825Y-59381375D02*
X53798825Y-57281875D01*
X57700825Y-63283375D02*
X53798825Y-59381375D01*
X57700825Y-65607575D02*
X57700825Y-63283375D01*
X55768025Y-67540375D02*
X57700825Y-65607575D01*
X54583025Y-67540375D02*
X55768025Y-67540375D01*
X51193425Y-70929975D02*
X54583025Y-67540375D01*
X51193425Y-75204675D02*
X51193425Y-70929975D01*
X59878625Y-38669775D02*
X58953525Y-37744675D01*
X61295625Y-38669775D02*
X59878625Y-38669775D01*
X62033625Y-39407775D02*
X61295625Y-38669775D01*
X62033625Y-50185075D02*
X62033625Y-39407775D01*
X56938025Y-55280675D02*
X62033625Y-50185075D01*
X55578225Y-55280675D02*
X56938025Y-55280675D01*
X53798825Y-57060075D02*
X55578225Y-55280675D01*
X53798825Y-57281875D02*
X53798825Y-57060075D01*
X45608425Y-75204675D02*
X45098425Y-75714675D01*
X51193425Y-75204675D02*
X45608425Y-75204675D01*
X51193425Y-75204675D02*
X52643425Y-75204675D01*
X35863625Y-83919575D02*
X34938525Y-84844675D01*
X40956125Y-83919575D02*
X35863625Y-83919575D01*
X46346325Y-89309775D02*
X40956125Y-83919575D01*
X51584325Y-89309775D02*
X46346325Y-89309775D01*
X54503725Y-86390375D02*
X51584325Y-89309775D01*
X55767525Y-86390375D02*
X54503725Y-86390375D01*
X57699625Y-84458275D02*
X55767525Y-86390375D01*
X57699625Y-81783575D02*
X57699625Y-84458275D01*
X52643425Y-76727375D02*
X57699625Y-81783575D01*
X52643425Y-75204675D02*
X52643425Y-76727375D01*
X34013425Y-84844675D02*
X34938525Y-84844675D01*
%TO.N,Net-(D14-A)*%
X51163425Y-18704675D02*
X52613425Y-18704675D01*
X58438625Y-20704475D02*
X57448425Y-21694675D01*
X58438625Y-17923475D02*
X58438625Y-20704475D01*
X58255725Y-17740575D02*
X58438625Y-17923475D01*
X54502625Y-17740575D02*
X58255725Y-17740575D01*
X53538525Y-18704675D02*
X54502625Y-17740575D01*
X52613425Y-18704675D02*
X53538525Y-18704675D01*
X58108425Y-32664675D02*
X57699625Y-32664675D01*
X54918425Y-32664675D02*
X54908425Y-32674675D01*
X57699625Y-32664675D02*
X54918425Y-32664675D01*
X57699625Y-32664675D02*
X57699625Y-25101575D01*
X57699625Y-25101575D02*
X57699625Y-24739975D01*
X57699625Y-24739975D02*
X57699625Y-24559175D01*
X57699625Y-24559175D02*
X57699625Y-24468775D01*
X57699625Y-24468775D02*
X57699625Y-24423575D01*
X57699625Y-24423575D02*
X57699625Y-24400975D01*
X57699625Y-24400975D02*
X57699625Y-24389675D01*
X57699625Y-24389675D02*
X57699625Y-24384075D01*
X57699625Y-24384075D02*
X57699625Y-24381275D01*
X57699625Y-24381275D02*
X57699625Y-24379875D01*
X57699625Y-24379875D02*
X57699625Y-24379175D01*
X57699625Y-24379175D02*
X57699625Y-24378775D01*
X57699625Y-24378775D02*
X57699625Y-24378575D01*
X57699625Y-24378575D02*
X57699625Y-24378475D01*
X57699625Y-21945875D02*
X57448425Y-21694675D01*
X57699625Y-24378475D02*
X57699625Y-21945875D01*
%TO.N,Net-(D13-A)*%
X32433425Y-28074675D02*
X33883425Y-28074675D01*
X33883425Y-28074675D02*
X34808525Y-28074675D01*
X37853525Y-31119675D02*
X38358425Y-31119675D01*
X34808525Y-28074675D02*
X37853525Y-31119675D01*
X39018425Y-42089675D02*
X38609625Y-42089675D01*
X35828425Y-42089675D02*
X35818425Y-42099675D01*
X38609625Y-42089675D02*
X35828425Y-42089675D01*
X38609625Y-42089675D02*
X38609625Y-34526575D01*
X38609625Y-34526575D02*
X38609625Y-34164975D01*
X38609625Y-34164975D02*
X38609625Y-33984175D01*
X38609625Y-33984175D02*
X38609625Y-33893775D01*
X38609625Y-33893775D02*
X38609625Y-33848575D01*
X38609625Y-33848575D02*
X38609625Y-33825975D01*
X38609625Y-33825975D02*
X38609625Y-33814675D01*
X38609625Y-33814675D02*
X38609625Y-33809075D01*
X38609625Y-33809075D02*
X38609625Y-33806275D01*
X38609625Y-33806275D02*
X38609625Y-33804875D01*
X38609625Y-33804875D02*
X38609625Y-33804175D01*
X38609625Y-33804175D02*
X38609625Y-33803775D01*
X38609625Y-33803775D02*
X38609625Y-33803575D01*
X38609625Y-33803575D02*
X38609625Y-33803475D01*
X38609625Y-31370875D02*
X38358425Y-31119675D01*
X38609625Y-33803475D02*
X38609625Y-31370875D01*
%TO.N,PY4*%
X37333425Y-28074675D02*
X38783425Y-28074675D01*
X54213225Y-19629775D02*
X55138325Y-18704675D01*
X49921625Y-19629775D02*
X54213225Y-19629775D01*
X45723625Y-23827775D02*
X49921625Y-19629775D01*
X45723625Y-26472975D02*
X45723625Y-23827775D01*
X44121925Y-28074675D02*
X45723625Y-26472975D01*
X38783425Y-28074675D02*
X44121925Y-28074675D01*
X51323425Y-56344675D02*
X52773425Y-56344675D01*
X32798425Y-66014675D02*
X34248425Y-66014675D01*
X44098425Y-75009675D02*
X44098425Y-75714675D01*
X41617925Y-72529175D02*
X44098425Y-75009675D01*
X38893125Y-72529175D02*
X41617925Y-72529175D01*
X34248425Y-67884475D02*
X38893125Y-72529175D01*
X34248425Y-66014675D02*
X34248425Y-67884475D01*
X55600925Y-18704675D02*
X55138325Y-18704675D01*
X55600925Y-18704675D02*
X56063425Y-18704675D01*
X56063425Y-18704675D02*
X57513425Y-18704675D01*
X43958425Y-56588075D02*
X43958425Y-57084675D01*
X44591125Y-55955375D02*
X43958425Y-56588075D01*
X50934125Y-55955375D02*
X44591125Y-55955375D01*
X51323425Y-56344675D02*
X50934125Y-55955375D01*
X34248425Y-66014675D02*
X35173525Y-66014675D01*
X43958425Y-59770475D02*
X43958425Y-57084675D01*
X40784125Y-62944775D02*
X43958425Y-59770475D01*
X38243425Y-62944775D02*
X40784125Y-62944775D01*
X35173525Y-66014675D02*
X38243425Y-62944775D01*
%TD*%
M02*
