%TF.GenerationSoftware,KiCad,Pcbnew,(7.0.0-0)*%
%TF.CreationDate,2023-03-19T19:43:54+09:00*%
%TF.ProjectId,pangaea-pcb-pinkey-k2-0.5ushift,70616e67-6165-4612-9d70-63622d70696e,rev?*%
%TF.SameCoordinates,Original*%
%TF.FileFunction,Copper,L1,Top*%
%TF.FilePolarity,Positive*%
%FSLAX46Y46*%
G04 Gerber Fmt 4.6, Leading zero omitted, Abs format (unit mm)*
G04 Created by KiCad (PCBNEW (7.0.0-0)) date 2023-03-19 19:43:54*
%MOMM*%
%LPD*%
G01*
G04 APERTURE LIST*
G04 Aperture macros list*
%AMRoundRect*
0 Rectangle with rounded corners*
0 $1 Rounding radius*
0 $2 $3 $4 $5 $6 $7 $8 $9 X,Y pos of 4 corners*
0 Add a 4 corners polygon primitive as box body*
4,1,4,$2,$3,$4,$5,$6,$7,$8,$9,$2,$3,0*
0 Add four circle primitives for the rounded corners*
1,1,$1+$1,$2,$3*
1,1,$1+$1,$4,$5*
1,1,$1+$1,$6,$7*
1,1,$1+$1,$8,$9*
0 Add four rect primitives between the rounded corners*
20,1,$1+$1,$2,$3,$4,$5,0*
20,1,$1+$1,$4,$5,$6,$7,0*
20,1,$1+$1,$6,$7,$8,$9,0*
20,1,$1+$1,$8,$9,$2,$3,0*%
G04 Aperture macros list end*
%TA.AperFunction,ComponentPad*%
%ADD10RoundRect,0.249600X-0.350400X-0.850400X0.350400X-0.850400X0.350400X0.850400X-0.350400X0.850400X0*%
%TD*%
%TA.AperFunction,ComponentPad*%
%ADD11C,3.800000*%
%TD*%
%TA.AperFunction,ComponentPad*%
%ADD12R,1.200000X1.200000*%
%TD*%
%TA.AperFunction,ComponentPad*%
%ADD13C,1.200000*%
%TD*%
%TA.AperFunction,Conductor*%
%ADD14C,0.250000*%
%TD*%
G04 APERTURE END LIST*
D10*
%TO.P,J8,MP*%
%TO.N,N/C*%
X40798425Y-79014675D03*
X46398425Y-79014675D03*
%TD*%
%TO.P,J9,MP*%
%TO.N,N/C*%
X40658425Y-60384675D03*
X46258425Y-60384675D03*
%TD*%
D11*
%TO.P,SW14,1,1*%
%TO.N,PX2*%
X49908425Y-30474675D03*
X51098425Y-24234675D03*
%TO.P,SW14,2,2*%
%TO.N,Net-(D14-A)*%
X54908425Y-32674675D03*
X57448425Y-21694675D03*
%TD*%
%TO.P,SW37,1,1*%
%TO.N,PX1*%
X30818425Y-96449675D03*
X32008425Y-90209675D03*
%TO.P,SW37,2,2*%
%TO.N,Net-(D37-K)*%
X35818425Y-98649675D03*
X38358425Y-87669675D03*
%TD*%
D12*
%TO.P,D14,1,K*%
%TO.N,PY4*%
X57513424Y-18704674D03*
D13*
%TO.P,D14,2,A*%
%TO.N,Net-(D14-A)*%
X51163425Y-18704675D03*
%TD*%
D12*
%TO.P,D37,1,K*%
%TO.N,Net-(D37-K)*%
X38913424Y-84844674D03*
D13*
%TO.P,D37,2,A*%
%TO.N,PY5*%
X32563425Y-84844675D03*
%TD*%
D12*
%TO.P,D18,1,K*%
%TO.N,PY5*%
X58028424Y-37744674D03*
D13*
%TO.P,D18,2,A*%
%TO.N,Net-(D18-A)*%
X51678425Y-37744675D03*
%TD*%
D12*
%TO.P,D17,1,K*%
%TO.N,PY5*%
X38733424Y-47024674D03*
D13*
%TO.P,D17,2,A*%
%TO.N,Net-(D17-A)*%
X32383425Y-47024675D03*
%TD*%
D11*
%TO.P,SW33,1,1*%
%TO.N,PX1*%
X30818425Y-77599675D03*
X32008425Y-71359675D03*
%TO.P,SW33,2,2*%
%TO.N,Net-(D33-K)*%
X35818425Y-79799675D03*
X38358425Y-68819675D03*
%TD*%
%TO.P,SW34,1,1*%
%TO.N,PX2*%
X49908425Y-68174675D03*
X51098425Y-61934675D03*
%TO.P,SW34,2,2*%
%TO.N,Net-(D34-K)*%
X54908425Y-70374675D03*
X57448425Y-59394675D03*
%TD*%
D12*
%TO.P,D33,1,K*%
%TO.N,Net-(D33-K)*%
X39148424Y-66014674D03*
D13*
%TO.P,D33,2,A*%
%TO.N,PY4*%
X32798425Y-66014675D03*
%TD*%
D12*
%TO.P,D34,1,K*%
%TO.N,Net-(D34-K)*%
X57673424Y-56344674D03*
D13*
%TO.P,D34,2,A*%
%TO.N,PY4*%
X51323425Y-56344675D03*
%TD*%
D12*
%TO.P,D13,1,K*%
%TO.N,PY4*%
X38783424Y-28074674D03*
D13*
%TO.P,D13,2,A*%
%TO.N,Net-(D13-A)*%
X32433425Y-28074675D03*
%TD*%
D12*
%TO.P,D38,1,K*%
%TO.N,Net-(D38-K)*%
X57543424Y-75204674D03*
D13*
%TO.P,D38,2,A*%
%TO.N,PY5*%
X51193425Y-75204675D03*
%TD*%
D11*
%TO.P,SW18,2,2*%
%TO.N,Net-(D18-A)*%
X57448425Y-40544675D03*
X54908425Y-51524675D03*
%TO.P,SW18,1,1*%
%TO.N,PX2*%
X51098425Y-43084675D03*
X49908425Y-49324675D03*
%TD*%
%TO.P,SW38,1,1*%
%TO.N,PX2*%
X49908425Y-87024675D03*
X51098425Y-80784675D03*
%TO.P,SW38,2,2*%
%TO.N,Net-(D38-K)*%
X54908425Y-89224675D03*
X57448425Y-78244675D03*
%TD*%
%TO.P,SW17,1,1*%
%TO.N,PX1*%
X30818425Y-58749675D03*
X32008425Y-52509675D03*
%TO.P,SW17,2,2*%
%TO.N,Net-(D17-A)*%
X35818425Y-60949675D03*
X38358425Y-49969675D03*
%TD*%
%TO.P,SW13,1,1*%
%TO.N,PX1*%
X30818425Y-39899675D03*
X32008425Y-33659675D03*
%TO.P,SW13,2,2*%
%TO.N,Net-(D13-A)*%
X35818425Y-42099675D03*
X38358425Y-31119675D03*
%TD*%
D14*
%TO.N,PX2*%
X49908425Y-79594675D02*
X49908425Y-68174675D01*
X51098425Y-80784675D02*
X49908425Y-79594675D01*
X49908425Y-41894675D02*
X51098425Y-43084675D01*
X49908425Y-30474675D02*
X49908425Y-41894675D01*
X52253125Y-60779975D02*
X51098425Y-61934675D01*
X52253125Y-51669375D02*
X52253125Y-60779975D01*
X49908425Y-49324675D02*
X52253125Y-51669375D01*
%TO.N,PX1*%
X33314825Y-51203275D02*
X32008425Y-52509675D01*
X33314825Y-42396075D02*
X33314825Y-51203275D01*
X30818425Y-39899675D02*
X33314825Y-42396075D01*
X30818425Y-70169675D02*
X32008425Y-71359675D01*
X30818425Y-58749675D02*
X30818425Y-70169675D01*
X33494125Y-80275375D02*
X30818425Y-77599675D01*
X33494125Y-88723975D02*
X33494125Y-80275375D01*
X32008425Y-90209675D02*
X33494125Y-88723975D01*
%TO.N,Net-(D38-K)*%
X57448425Y-76224775D02*
X57448425Y-78244675D01*
X57543425Y-76129775D02*
X57448425Y-76224775D01*
X57543425Y-75204675D02*
X57543425Y-76129775D01*
%TO.N,Net-(D37-K)*%
X38358425Y-86324775D02*
X38358425Y-87669675D01*
X38913425Y-85769775D02*
X38358425Y-86324775D01*
X38913425Y-84844675D02*
X38913425Y-85769775D01*
%TO.N,Net-(D34-K)*%
X57448425Y-57494775D02*
X57448425Y-59394675D01*
X57673425Y-57269775D02*
X57448425Y-57494775D01*
X57673425Y-56344675D02*
X57673425Y-57269775D01*
%TO.N,Net-(D33-K)*%
X39148425Y-66014675D02*
X39148425Y-66939775D01*
X38358425Y-67729775D02*
X38358425Y-68819675D01*
X39148425Y-66939775D02*
X38358425Y-67729775D01*
X38620725Y-69081975D02*
X38358425Y-68819675D01*
X38620725Y-76997375D02*
X38620725Y-69081975D01*
X35818425Y-79799675D02*
X38620725Y-76997375D01*
%TO.N,PY4*%
X47184625Y-52205875D02*
X51323425Y-56344675D01*
X47184625Y-35550775D02*
X47184625Y-52205875D01*
X39708525Y-28074675D02*
X47184625Y-35550775D01*
X38783425Y-28074675D02*
X39708525Y-28074675D01*
%TD*%
M02*
