%TF.GenerationSoftware,KiCad,Pcbnew,(7.0.0-0)*%
%TF.CreationDate,2023-03-19T19:43:52+09:00*%
%TF.ProjectId,pangaea-pcb-pinkey-k2-0.5ushift,70616e67-6165-4612-9d70-63622d70696e,rev?*%
%TF.SameCoordinates,Original*%
%TF.FileFunction,Drillmap*%
%TF.FilePolarity,Positive*%
%FSLAX45Y45*%
G04 Gerber Fmt 4.5, Leading zero omitted, Abs format (unit mm)*
G04 Created by KiCad (PCBNEW (7.0.0-0)) date 2023-03-19 19:43:52*
%MOMM*%
%LPD*%
G01*
G04 APERTURE LIST*
%ADD10C,0.150000*%
%ADD11C,0.200000*%
%ADD12C,0.050000*%
%ADD13C,0.168000*%
%ADD14C,0.170000*%
%ADD15C,0.420000*%
%ADD16C,0.490000*%
G04 APERTURE END LIST*
D10*
X4533843Y-9341468D02*
X4534235Y-10176661D01*
X6362842Y-1724467D02*
X4617968Y-1724218D01*
X2704908Y-10237468D02*
X4454777Y-10237468D01*
X2628254Y-2755006D02*
X2628186Y-10157491D01*
X4465358Y-2678468D02*
X2709519Y-2677631D01*
X4606122Y-9282113D02*
G75*
G03*
X4533843Y-9341468I22720J-101355D01*
G01*
X4454777Y-10237467D02*
G75*
G03*
X4534235Y-10176661I-21705J110680D01*
G01*
X4538593Y-1803593D02*
X4538843Y-2598468D01*
X6444590Y-1804376D02*
G75*
G03*
X6362842Y-1724468I-82658J-2792D01*
G01*
X4465358Y-2678468D02*
G75*
G03*
X4538843Y-2598468I-6792J79989D01*
G01*
X6442850Y-1804434D02*
X6442806Y-9228839D01*
X4617968Y-1724218D02*
G75*
G03*
X4538593Y-1803593I4J-79379D01*
G01*
X4606122Y-9282113D02*
X6391846Y-9282468D01*
X2709519Y-2677631D02*
G75*
G03*
X2628254Y-2755006I-2010J-79252D01*
G01*
X2628186Y-10157491D02*
G75*
G03*
X2704908Y-10237467I76183J-3705D01*
G01*
X6391846Y-9282468D02*
G75*
G03*
X6442806Y-9228839I-4722J55514D01*
G01*
D11*
D12*
X4056842Y-3049967D02*
X4106842Y-3099967D01*
X4106842Y-3049967D02*
X4056842Y-3099967D01*
D11*
X4116842Y-3049967D02*
X4046842Y-3049967D01*
X4046842Y-3049967D02*
G75*
G03*
X4046842Y-3099967I0J-25000D01*
G01*
X4046842Y-3099967D02*
X4116842Y-3099967D01*
X4116842Y-3099967D02*
G75*
G03*
X4116842Y-3049967I0J25000D01*
G01*
D12*
X4056842Y-4934968D02*
X4106842Y-4984968D01*
X4106842Y-4934968D02*
X4056842Y-4984968D01*
D11*
X4116842Y-4934968D02*
X4046842Y-4934968D01*
X4046842Y-4934968D02*
G75*
G03*
X4046842Y-4984968I0J-25000D01*
G01*
X4046842Y-4984968D02*
X4116842Y-4984968D01*
X4116842Y-4984968D02*
G75*
G03*
X4116842Y-4934968I0J25000D01*
G01*
D12*
X4056842Y-6819967D02*
X4106842Y-6869967D01*
X4106842Y-6819967D02*
X4056842Y-6869967D01*
D11*
X4116842Y-6819967D02*
X4046842Y-6819967D01*
X4046842Y-6819967D02*
G75*
G03*
X4046842Y-6869967I0J-25000D01*
G01*
X4046842Y-6869967D02*
X4116842Y-6869967D01*
X4116842Y-6869967D02*
G75*
G03*
X4116842Y-6819967I0J25000D01*
G01*
D12*
X4056842Y-8704968D02*
X4106842Y-8754968D01*
X4106842Y-8704968D02*
X4056842Y-8754968D01*
D11*
X4116842Y-8704968D02*
X4046842Y-8704968D01*
X4046842Y-8704968D02*
G75*
G03*
X4046842Y-8754968I0J-25000D01*
G01*
X4046842Y-8754968D02*
X4116842Y-8754968D01*
X4116842Y-8754968D02*
G75*
G03*
X4116842Y-8704968I0J25000D01*
G01*
D12*
X5965842Y-2107468D02*
X6015842Y-2157468D01*
X6015842Y-2107468D02*
X5965842Y-2157468D01*
D11*
X6025842Y-2107468D02*
X5955842Y-2107468D01*
X5955842Y-2107468D02*
G75*
G03*
X5955842Y-2157468I0J-25000D01*
G01*
X5955842Y-2157468D02*
X6025842Y-2157468D01*
X6025842Y-2157468D02*
G75*
G03*
X6025842Y-2107468I0J25000D01*
G01*
D12*
X5965842Y-3992467D02*
X6015842Y-4042467D01*
X6015842Y-3992467D02*
X5965842Y-4042467D01*
D11*
X6025842Y-3992467D02*
X5955842Y-3992467D01*
X5955842Y-3992467D02*
G75*
G03*
X5955842Y-4042467I0J-25000D01*
G01*
X5955842Y-4042467D02*
X6025842Y-4042467D01*
X6025842Y-4042467D02*
G75*
G03*
X6025842Y-3992467I0J25000D01*
G01*
D12*
X5965842Y-5877467D02*
X6015842Y-5927467D01*
X6015842Y-5877467D02*
X5965842Y-5927467D01*
D11*
X6025842Y-5877467D02*
X5955842Y-5877467D01*
X5955842Y-5877467D02*
G75*
G03*
X5955842Y-5927467I0J-25000D01*
G01*
X5955842Y-5927467D02*
X6025842Y-5927467D01*
X6025842Y-5927467D02*
G75*
G03*
X6025842Y-5877467I0J25000D01*
G01*
D12*
X5965842Y-7762467D02*
X6015842Y-7812467D01*
X6015842Y-7762467D02*
X5965842Y-7812467D01*
D11*
X6025842Y-7762467D02*
X5955842Y-7762467D01*
X5955842Y-7762467D02*
G75*
G03*
X5955842Y-7812467I0J-25000D01*
G01*
X5955842Y-7812467D02*
X6025842Y-7812467D01*
X6025842Y-7812467D02*
G75*
G03*
X6025842Y-7762467I0J25000D01*
G01*
D13*
X3115842Y-3619967D02*
G75*
G03*
X3115842Y-3619967I-84000J0D01*
G01*
X3115842Y-5504968D02*
G75*
G03*
X3115842Y-5504968I-84000J0D01*
G01*
X3115842Y-7389967D02*
G75*
G03*
X3115842Y-7389967I-84000J0D01*
G01*
X3115842Y-9274968D02*
G75*
G03*
X3115842Y-9274968I-84000J0D01*
G01*
X4215843Y-3619967D02*
G75*
G03*
X4215843Y-3619967I-84000J0D01*
G01*
X4215843Y-5504968D02*
G75*
G03*
X4215843Y-5504968I-84000J0D01*
G01*
X4215843Y-7389967D02*
G75*
G03*
X4215843Y-7389967I-84000J0D01*
G01*
X4215843Y-9274968D02*
G75*
G03*
X4215843Y-9274968I-84000J0D01*
G01*
X5024843Y-2677468D02*
G75*
G03*
X5024843Y-2677468I-84000J0D01*
G01*
X5024843Y-4562468D02*
G75*
G03*
X5024843Y-4562468I-84000J0D01*
G01*
X5024843Y-6447467D02*
G75*
G03*
X5024843Y-6447467I-84000J0D01*
G01*
X5024843Y-8332467D02*
G75*
G03*
X5024843Y-8332467I-84000J0D01*
G01*
X6124842Y-2677468D02*
G75*
G03*
X6124842Y-2677468I-84000J0D01*
G01*
X6124842Y-4562468D02*
G75*
G03*
X6124842Y-4562468I-84000J0D01*
G01*
X6124842Y-6447467D02*
G75*
G03*
X6124842Y-6447467I-84000J0D01*
G01*
X6124842Y-8332467D02*
G75*
G03*
X6124842Y-8332467I-84000J0D01*
G01*
D14*
X3073842Y-3534967D02*
X3073842Y-3704967D01*
X2988842Y-3619967D02*
X3158842Y-3619967D01*
X3073842Y-5419968D02*
X3073842Y-5589968D01*
X2988842Y-5504968D02*
X3158842Y-5504968D01*
X3073842Y-7304967D02*
X3073842Y-7474967D01*
X2988842Y-7389967D02*
X3158842Y-7389967D01*
X3073842Y-9189968D02*
X3073842Y-9359968D01*
X2988842Y-9274968D02*
X3158842Y-9274968D01*
X4089842Y-3534967D02*
X4089842Y-3704967D01*
X4004842Y-3619967D02*
X4174842Y-3619967D01*
X4089842Y-5419968D02*
X4089842Y-5589968D01*
X4004842Y-5504968D02*
X4174842Y-5504968D01*
X4089842Y-7304967D02*
X4089842Y-7474967D01*
X4004842Y-7389967D02*
X4174842Y-7389967D01*
X4089842Y-9189968D02*
X4089842Y-9359968D01*
X4004842Y-9274968D02*
X4174842Y-9274968D01*
X4982843Y-2592468D02*
X4982843Y-2762468D01*
X4897843Y-2677468D02*
X5067843Y-2677468D01*
X4982843Y-4477468D02*
X4982843Y-4647468D01*
X4897843Y-4562468D02*
X5067843Y-4562468D01*
X4982843Y-6362467D02*
X4982843Y-6532467D01*
X4897843Y-6447467D02*
X5067843Y-6447467D01*
X4982843Y-8247467D02*
X4982843Y-8417468D01*
X4897843Y-8332467D02*
X5067843Y-8332467D01*
X5998842Y-2592468D02*
X5998842Y-2762468D01*
X5913842Y-2677468D02*
X6083842Y-2677468D01*
X5998842Y-4477468D02*
X5998842Y-4647468D01*
X5913842Y-4562468D02*
X6083842Y-4562468D01*
X5998842Y-6362467D02*
X5998842Y-6532467D01*
X5913842Y-6447467D02*
X6083842Y-6447467D01*
X5998842Y-8247467D02*
X5998842Y-8417468D01*
X5913842Y-8332467D02*
X6083842Y-8332467D01*
D15*
X3009336Y-8478461D02*
X3009336Y-8181474D01*
X2712349Y-8181474D01*
X2712349Y-8478461D01*
X3009336Y-8478461D01*
D11*
X2770843Y-8539968D02*
X2950842Y-8539968D01*
X2950842Y-8539968D02*
G75*
G03*
X2950842Y-8119967I0J210000D01*
G01*
X2950842Y-8119967D02*
X2770843Y-8119967D01*
X2770843Y-8119967D02*
G75*
G03*
X2770843Y-8539968I0J-210000D01*
G01*
D15*
X3011836Y-4708461D02*
X3011836Y-4411474D01*
X2714849Y-4411474D01*
X2714849Y-4708461D01*
X3011836Y-4708461D01*
D11*
X2773343Y-4769968D02*
X2953342Y-4769968D01*
X2953342Y-4769968D02*
G75*
G03*
X2953342Y-4349968I0J210000D01*
G01*
X2953342Y-4349968D02*
X2773343Y-4349968D01*
X2773343Y-4349968D02*
G75*
G03*
X2773343Y-4769968I0J-210000D01*
G01*
D15*
X6359336Y-3766961D02*
X6359336Y-3469974D01*
X6062349Y-3469974D01*
X6062349Y-3766961D01*
X6359336Y-3766961D01*
D11*
X6120842Y-3828467D02*
X6300842Y-3828467D01*
X6300842Y-3828467D02*
G75*
G03*
X6300842Y-3408467I0J210000D01*
G01*
X6300842Y-3408467D02*
X6120842Y-3408467D01*
X6120842Y-3408467D02*
G75*
G03*
X6120842Y-3828467I0J-210000D01*
G01*
D15*
X6361336Y-7534961D02*
X6361336Y-7237974D01*
X6064349Y-7237974D01*
X6064349Y-7534961D01*
X6361336Y-7534961D01*
D11*
X6122842Y-7596467D02*
X6302842Y-7596467D01*
X6302842Y-7596467D02*
G75*
G03*
X6302842Y-7176467I0J210000D01*
G01*
X6302842Y-7176467D02*
X6122842Y-7176467D01*
X6122842Y-7176467D02*
G75*
G03*
X6122842Y-7596467I0J-210000D01*
G01*
D16*
X3581842Y-3864967D02*
X3826842Y-3619967D01*
X3581842Y-3374967D01*
X3336842Y-3619967D01*
X3581842Y-3864967D01*
X3581842Y-5749967D02*
X3826842Y-5504968D01*
X3581842Y-5259968D01*
X3336842Y-5504968D01*
X3581842Y-5749967D01*
X3581842Y-7634967D02*
X3826842Y-7389967D01*
X3581842Y-7144967D01*
X3336842Y-7389967D01*
X3581842Y-7634967D01*
X3581842Y-9519968D02*
X3826842Y-9274968D01*
X3581842Y-9029968D01*
X3336842Y-9274968D01*
X3581842Y-9519968D01*
X5490843Y-2922467D02*
X5735842Y-2677468D01*
X5490843Y-2432468D01*
X5245843Y-2677468D01*
X5490843Y-2922467D01*
X5490843Y-4807468D02*
X5735842Y-4562468D01*
X5490843Y-4317468D01*
X5245843Y-4562468D01*
X5490843Y-4807468D01*
X5490843Y-6692467D02*
X5735842Y-6447467D01*
X5490843Y-6202467D01*
X5245843Y-6447467D01*
X5490843Y-6692467D01*
X5490843Y-8577468D02*
X5735842Y-8332467D01*
X5490843Y-8087467D01*
X5245843Y-8332467D01*
X5490843Y-8577468D01*
D11*
X2868215Y-10538445D02*
X2868215Y-10338445D01*
X2868215Y-10338445D02*
X2915834Y-10338445D01*
X2915834Y-10338445D02*
X2944405Y-10347969D01*
X2944405Y-10347969D02*
X2963453Y-10367017D01*
X2963453Y-10367017D02*
X2972977Y-10386065D01*
X2972977Y-10386065D02*
X2982500Y-10424160D01*
X2982500Y-10424160D02*
X2982500Y-10452731D01*
X2982500Y-10452731D02*
X2972977Y-10490826D01*
X2972977Y-10490826D02*
X2963453Y-10509874D01*
X2963453Y-10509874D02*
X2944405Y-10528922D01*
X2944405Y-10528922D02*
X2915834Y-10538445D01*
X2915834Y-10538445D02*
X2868215Y-10538445D01*
X3068215Y-10538445D02*
X3068215Y-10405112D01*
X3068215Y-10443207D02*
X3077739Y-10424160D01*
X3077739Y-10424160D02*
X3087262Y-10414636D01*
X3087262Y-10414636D02*
X3106310Y-10405112D01*
X3106310Y-10405112D02*
X3125358Y-10405112D01*
X3192024Y-10538445D02*
X3192024Y-10405112D01*
X3192024Y-10338445D02*
X3182500Y-10347969D01*
X3182500Y-10347969D02*
X3192024Y-10357493D01*
X3192024Y-10357493D02*
X3201548Y-10347969D01*
X3201548Y-10347969D02*
X3192024Y-10338445D01*
X3192024Y-10338445D02*
X3192024Y-10357493D01*
X3315834Y-10538445D02*
X3296786Y-10528922D01*
X3296786Y-10528922D02*
X3287262Y-10509874D01*
X3287262Y-10509874D02*
X3287262Y-10338445D01*
X3420596Y-10538445D02*
X3401548Y-10528922D01*
X3401548Y-10528922D02*
X3392024Y-10509874D01*
X3392024Y-10509874D02*
X3392024Y-10338445D01*
X3616786Y-10538445D02*
X3616786Y-10338445D01*
X3616786Y-10338445D02*
X3683453Y-10481303D01*
X3683453Y-10481303D02*
X3750119Y-10338445D01*
X3750119Y-10338445D02*
X3750119Y-10538445D01*
X3931072Y-10538445D02*
X3931072Y-10433684D01*
X3931072Y-10433684D02*
X3921548Y-10414636D01*
X3921548Y-10414636D02*
X3902500Y-10405112D01*
X3902500Y-10405112D02*
X3864405Y-10405112D01*
X3864405Y-10405112D02*
X3845358Y-10414636D01*
X3931072Y-10528922D02*
X3912024Y-10538445D01*
X3912024Y-10538445D02*
X3864405Y-10538445D01*
X3864405Y-10538445D02*
X3845358Y-10528922D01*
X3845358Y-10528922D02*
X3835834Y-10509874D01*
X3835834Y-10509874D02*
X3835834Y-10490826D01*
X3835834Y-10490826D02*
X3845358Y-10471779D01*
X3845358Y-10471779D02*
X3864405Y-10462255D01*
X3864405Y-10462255D02*
X3912024Y-10462255D01*
X3912024Y-10462255D02*
X3931072Y-10452731D01*
X4026310Y-10405112D02*
X4026310Y-10605112D01*
X4026310Y-10414636D02*
X4045358Y-10405112D01*
X4045358Y-10405112D02*
X4083453Y-10405112D01*
X4083453Y-10405112D02*
X4102500Y-10414636D01*
X4102500Y-10414636D02*
X4112024Y-10424160D01*
X4112024Y-10424160D02*
X4121548Y-10443207D01*
X4121548Y-10443207D02*
X4121548Y-10500350D01*
X4121548Y-10500350D02*
X4112024Y-10519398D01*
X4112024Y-10519398D02*
X4102500Y-10528922D01*
X4102500Y-10528922D02*
X4083453Y-10538445D01*
X4083453Y-10538445D02*
X4045358Y-10538445D01*
X4045358Y-10538445D02*
X4026310Y-10528922D01*
X4207262Y-10519398D02*
X4216786Y-10528922D01*
X4216786Y-10528922D02*
X4207262Y-10538445D01*
X4207262Y-10538445D02*
X4197739Y-10528922D01*
X4197739Y-10528922D02*
X4207262Y-10519398D01*
X4207262Y-10519398D02*
X4207262Y-10538445D01*
X4207262Y-10414636D02*
X4216786Y-10424160D01*
X4216786Y-10424160D02*
X4207262Y-10433684D01*
X4207262Y-10433684D02*
X4197739Y-10424160D01*
X4197739Y-10424160D02*
X4207262Y-10414636D01*
X4207262Y-10414636D02*
X4207262Y-10433684D01*
D12*
X2570596Y-10859969D02*
X2620596Y-10909969D01*
X2620596Y-10859969D02*
X2570596Y-10909969D01*
D11*
X2906310Y-10758445D02*
X2925358Y-10758445D01*
X2925358Y-10758445D02*
X2944405Y-10767969D01*
X2944405Y-10767969D02*
X2953929Y-10777493D01*
X2953929Y-10777493D02*
X2963453Y-10796541D01*
X2963453Y-10796541D02*
X2972977Y-10834636D01*
X2972977Y-10834636D02*
X2972977Y-10882255D01*
X2972977Y-10882255D02*
X2963453Y-10920350D01*
X2963453Y-10920350D02*
X2953929Y-10939398D01*
X2953929Y-10939398D02*
X2944405Y-10948922D01*
X2944405Y-10948922D02*
X2925358Y-10958445D01*
X2925358Y-10958445D02*
X2906310Y-10958445D01*
X2906310Y-10958445D02*
X2887262Y-10948922D01*
X2887262Y-10948922D02*
X2877739Y-10939398D01*
X2877739Y-10939398D02*
X2868215Y-10920350D01*
X2868215Y-10920350D02*
X2858691Y-10882255D01*
X2858691Y-10882255D02*
X2858691Y-10834636D01*
X2858691Y-10834636D02*
X2868215Y-10796541D01*
X2868215Y-10796541D02*
X2877739Y-10777493D01*
X2877739Y-10777493D02*
X2887262Y-10767969D01*
X2887262Y-10767969D02*
X2906310Y-10758445D01*
X3058691Y-10939398D02*
X3068215Y-10948922D01*
X3068215Y-10948922D02*
X3058691Y-10958445D01*
X3058691Y-10958445D02*
X3049167Y-10948922D01*
X3049167Y-10948922D02*
X3058691Y-10939398D01*
X3058691Y-10939398D02*
X3058691Y-10958445D01*
X3249167Y-10758445D02*
X3153929Y-10758445D01*
X3153929Y-10758445D02*
X3144405Y-10853684D01*
X3144405Y-10853684D02*
X3153929Y-10844160D01*
X3153929Y-10844160D02*
X3172977Y-10834636D01*
X3172977Y-10834636D02*
X3220596Y-10834636D01*
X3220596Y-10834636D02*
X3239643Y-10844160D01*
X3239643Y-10844160D02*
X3249167Y-10853684D01*
X3249167Y-10853684D02*
X3258691Y-10872731D01*
X3258691Y-10872731D02*
X3258691Y-10920350D01*
X3258691Y-10920350D02*
X3249167Y-10939398D01*
X3249167Y-10939398D02*
X3239643Y-10948922D01*
X3239643Y-10948922D02*
X3220596Y-10958445D01*
X3220596Y-10958445D02*
X3172977Y-10958445D01*
X3172977Y-10958445D02*
X3153929Y-10948922D01*
X3153929Y-10948922D02*
X3144405Y-10939398D01*
X3382500Y-10758445D02*
X3401548Y-10758445D01*
X3401548Y-10758445D02*
X3420596Y-10767969D01*
X3420596Y-10767969D02*
X3430120Y-10777493D01*
X3430120Y-10777493D02*
X3439643Y-10796541D01*
X3439643Y-10796541D02*
X3449167Y-10834636D01*
X3449167Y-10834636D02*
X3449167Y-10882255D01*
X3449167Y-10882255D02*
X3439643Y-10920350D01*
X3439643Y-10920350D02*
X3430120Y-10939398D01*
X3430120Y-10939398D02*
X3420596Y-10948922D01*
X3420596Y-10948922D02*
X3401548Y-10958445D01*
X3401548Y-10958445D02*
X3382500Y-10958445D01*
X3382500Y-10958445D02*
X3363453Y-10948922D01*
X3363453Y-10948922D02*
X3353929Y-10939398D01*
X3353929Y-10939398D02*
X3344405Y-10920350D01*
X3344405Y-10920350D02*
X3334881Y-10882255D01*
X3334881Y-10882255D02*
X3334881Y-10834636D01*
X3334881Y-10834636D02*
X3344405Y-10796541D01*
X3344405Y-10796541D02*
X3353929Y-10777493D01*
X3353929Y-10777493D02*
X3363453Y-10767969D01*
X3363453Y-10767969D02*
X3382500Y-10758445D01*
X3572977Y-10758445D02*
X3592024Y-10758445D01*
X3592024Y-10758445D02*
X3611072Y-10767969D01*
X3611072Y-10767969D02*
X3620596Y-10777493D01*
X3620596Y-10777493D02*
X3630120Y-10796541D01*
X3630120Y-10796541D02*
X3639643Y-10834636D01*
X3639643Y-10834636D02*
X3639643Y-10882255D01*
X3639643Y-10882255D02*
X3630120Y-10920350D01*
X3630120Y-10920350D02*
X3620596Y-10939398D01*
X3620596Y-10939398D02*
X3611072Y-10948922D01*
X3611072Y-10948922D02*
X3592024Y-10958445D01*
X3592024Y-10958445D02*
X3572977Y-10958445D01*
X3572977Y-10958445D02*
X3553929Y-10948922D01*
X3553929Y-10948922D02*
X3544405Y-10939398D01*
X3544405Y-10939398D02*
X3534881Y-10920350D01*
X3534881Y-10920350D02*
X3525358Y-10882255D01*
X3525358Y-10882255D02*
X3525358Y-10834636D01*
X3525358Y-10834636D02*
X3534881Y-10796541D01*
X3534881Y-10796541D02*
X3544405Y-10777493D01*
X3544405Y-10777493D02*
X3553929Y-10767969D01*
X3553929Y-10767969D02*
X3572977Y-10758445D01*
X3725358Y-10958445D02*
X3725358Y-10825112D01*
X3725358Y-10844160D02*
X3734881Y-10834636D01*
X3734881Y-10834636D02*
X3753929Y-10825112D01*
X3753929Y-10825112D02*
X3782501Y-10825112D01*
X3782501Y-10825112D02*
X3801548Y-10834636D01*
X3801548Y-10834636D02*
X3811072Y-10853684D01*
X3811072Y-10853684D02*
X3811072Y-10958445D01*
X3811072Y-10853684D02*
X3820596Y-10834636D01*
X3820596Y-10834636D02*
X3839643Y-10825112D01*
X3839643Y-10825112D02*
X3868215Y-10825112D01*
X3868215Y-10825112D02*
X3887262Y-10834636D01*
X3887262Y-10834636D02*
X3896786Y-10853684D01*
X3896786Y-10853684D02*
X3896786Y-10958445D01*
X3992024Y-10958445D02*
X3992024Y-10825112D01*
X3992024Y-10844160D02*
X4001548Y-10834636D01*
X4001548Y-10834636D02*
X4020596Y-10825112D01*
X4020596Y-10825112D02*
X4049167Y-10825112D01*
X4049167Y-10825112D02*
X4068215Y-10834636D01*
X4068215Y-10834636D02*
X4077739Y-10853684D01*
X4077739Y-10853684D02*
X4077739Y-10958445D01*
X4077739Y-10853684D02*
X4087262Y-10834636D01*
X4087262Y-10834636D02*
X4106310Y-10825112D01*
X4106310Y-10825112D02*
X4134881Y-10825112D01*
X4134881Y-10825112D02*
X4153929Y-10834636D01*
X4153929Y-10834636D02*
X4163453Y-10853684D01*
X4163453Y-10853684D02*
X4163453Y-10958445D01*
X4521548Y-10748922D02*
X4350120Y-11006065D01*
X4746310Y-10758445D02*
X4765358Y-10758445D01*
X4765358Y-10758445D02*
X4784405Y-10767969D01*
X4784405Y-10767969D02*
X4793929Y-10777493D01*
X4793929Y-10777493D02*
X4803453Y-10796541D01*
X4803453Y-10796541D02*
X4812977Y-10834636D01*
X4812977Y-10834636D02*
X4812977Y-10882255D01*
X4812977Y-10882255D02*
X4803453Y-10920350D01*
X4803453Y-10920350D02*
X4793929Y-10939398D01*
X4793929Y-10939398D02*
X4784405Y-10948922D01*
X4784405Y-10948922D02*
X4765358Y-10958445D01*
X4765358Y-10958445D02*
X4746310Y-10958445D01*
X4746310Y-10958445D02*
X4727263Y-10948922D01*
X4727263Y-10948922D02*
X4717739Y-10939398D01*
X4717739Y-10939398D02*
X4708215Y-10920350D01*
X4708215Y-10920350D02*
X4698691Y-10882255D01*
X4698691Y-10882255D02*
X4698691Y-10834636D01*
X4698691Y-10834636D02*
X4708215Y-10796541D01*
X4708215Y-10796541D02*
X4717739Y-10777493D01*
X4717739Y-10777493D02*
X4727263Y-10767969D01*
X4727263Y-10767969D02*
X4746310Y-10758445D01*
X4898691Y-10939398D02*
X4908215Y-10948922D01*
X4908215Y-10948922D02*
X4898691Y-10958445D01*
X4898691Y-10958445D02*
X4889167Y-10948922D01*
X4889167Y-10948922D02*
X4898691Y-10939398D01*
X4898691Y-10939398D02*
X4898691Y-10958445D01*
X5032024Y-10758445D02*
X5051072Y-10758445D01*
X5051072Y-10758445D02*
X5070120Y-10767969D01*
X5070120Y-10767969D02*
X5079644Y-10777493D01*
X5079644Y-10777493D02*
X5089167Y-10796541D01*
X5089167Y-10796541D02*
X5098691Y-10834636D01*
X5098691Y-10834636D02*
X5098691Y-10882255D01*
X5098691Y-10882255D02*
X5089167Y-10920350D01*
X5089167Y-10920350D02*
X5079644Y-10939398D01*
X5079644Y-10939398D02*
X5070120Y-10948922D01*
X5070120Y-10948922D02*
X5051072Y-10958445D01*
X5051072Y-10958445D02*
X5032024Y-10958445D01*
X5032024Y-10958445D02*
X5012977Y-10948922D01*
X5012977Y-10948922D02*
X5003453Y-10939398D01*
X5003453Y-10939398D02*
X4993929Y-10920350D01*
X4993929Y-10920350D02*
X4984405Y-10882255D01*
X4984405Y-10882255D02*
X4984405Y-10834636D01*
X4984405Y-10834636D02*
X4993929Y-10796541D01*
X4993929Y-10796541D02*
X5003453Y-10777493D01*
X5003453Y-10777493D02*
X5012977Y-10767969D01*
X5012977Y-10767969D02*
X5032024Y-10758445D01*
X5289167Y-10958445D02*
X5174882Y-10958445D01*
X5232024Y-10958445D02*
X5232024Y-10758445D01*
X5232024Y-10758445D02*
X5212977Y-10787017D01*
X5212977Y-10787017D02*
X5193929Y-10806065D01*
X5193929Y-10806065D02*
X5174882Y-10815588D01*
X5384405Y-10958445D02*
X5422501Y-10958445D01*
X5422501Y-10958445D02*
X5441548Y-10948922D01*
X5441548Y-10948922D02*
X5451072Y-10939398D01*
X5451072Y-10939398D02*
X5470120Y-10910826D01*
X5470120Y-10910826D02*
X5479644Y-10872731D01*
X5479644Y-10872731D02*
X5479644Y-10796541D01*
X5479644Y-10796541D02*
X5470120Y-10777493D01*
X5470120Y-10777493D02*
X5460596Y-10767969D01*
X5460596Y-10767969D02*
X5441548Y-10758445D01*
X5441548Y-10758445D02*
X5403453Y-10758445D01*
X5403453Y-10758445D02*
X5384405Y-10767969D01*
X5384405Y-10767969D02*
X5374882Y-10777493D01*
X5374882Y-10777493D02*
X5365358Y-10796541D01*
X5365358Y-10796541D02*
X5365358Y-10844160D01*
X5365358Y-10844160D02*
X5374882Y-10863207D01*
X5374882Y-10863207D02*
X5384405Y-10872731D01*
X5384405Y-10872731D02*
X5403453Y-10882255D01*
X5403453Y-10882255D02*
X5441548Y-10882255D01*
X5441548Y-10882255D02*
X5460596Y-10872731D01*
X5460596Y-10872731D02*
X5470120Y-10863207D01*
X5470120Y-10863207D02*
X5479644Y-10844160D01*
X5546310Y-10758445D02*
X5679643Y-10758445D01*
X5679643Y-10758445D02*
X5593929Y-10958445D01*
X5746310Y-10758445D02*
X5746310Y-10796541D01*
X5822501Y-10758445D02*
X5822501Y-10796541D01*
X6085358Y-11034636D02*
X6075834Y-11025112D01*
X6075834Y-11025112D02*
X6056786Y-10996541D01*
X6056786Y-10996541D02*
X6047263Y-10977493D01*
X6047263Y-10977493D02*
X6037739Y-10948922D01*
X6037739Y-10948922D02*
X6028215Y-10901303D01*
X6028215Y-10901303D02*
X6028215Y-10863207D01*
X6028215Y-10863207D02*
X6037739Y-10815588D01*
X6037739Y-10815588D02*
X6047263Y-10787017D01*
X6047263Y-10787017D02*
X6056786Y-10767969D01*
X6056786Y-10767969D02*
X6075834Y-10739398D01*
X6075834Y-10739398D02*
X6085358Y-10729874D01*
X6199643Y-10758445D02*
X6218691Y-10758445D01*
X6218691Y-10758445D02*
X6237739Y-10767969D01*
X6237739Y-10767969D02*
X6247263Y-10777493D01*
X6247263Y-10777493D02*
X6256786Y-10796541D01*
X6256786Y-10796541D02*
X6266310Y-10834636D01*
X6266310Y-10834636D02*
X6266310Y-10882255D01*
X6266310Y-10882255D02*
X6256786Y-10920350D01*
X6256786Y-10920350D02*
X6247263Y-10939398D01*
X6247263Y-10939398D02*
X6237739Y-10948922D01*
X6237739Y-10948922D02*
X6218691Y-10958445D01*
X6218691Y-10958445D02*
X6199643Y-10958445D01*
X6199643Y-10958445D02*
X6180596Y-10948922D01*
X6180596Y-10948922D02*
X6171072Y-10939398D01*
X6171072Y-10939398D02*
X6161548Y-10920350D01*
X6161548Y-10920350D02*
X6152024Y-10882255D01*
X6152024Y-10882255D02*
X6152024Y-10834636D01*
X6152024Y-10834636D02*
X6161548Y-10796541D01*
X6161548Y-10796541D02*
X6171072Y-10777493D01*
X6171072Y-10777493D02*
X6180596Y-10767969D01*
X6180596Y-10767969D02*
X6199643Y-10758445D01*
X6472024Y-10958445D02*
X6472024Y-10758445D01*
X6557739Y-10958445D02*
X6557739Y-10853684D01*
X6557739Y-10853684D02*
X6548215Y-10834636D01*
X6548215Y-10834636D02*
X6529167Y-10825112D01*
X6529167Y-10825112D02*
X6500596Y-10825112D01*
X6500596Y-10825112D02*
X6481548Y-10834636D01*
X6481548Y-10834636D02*
X6472024Y-10844160D01*
X6681548Y-10958445D02*
X6662501Y-10948922D01*
X6662501Y-10948922D02*
X6652977Y-10939398D01*
X6652977Y-10939398D02*
X6643453Y-10920350D01*
X6643453Y-10920350D02*
X6643453Y-10863207D01*
X6643453Y-10863207D02*
X6652977Y-10844160D01*
X6652977Y-10844160D02*
X6662501Y-10834636D01*
X6662501Y-10834636D02*
X6681548Y-10825112D01*
X6681548Y-10825112D02*
X6710120Y-10825112D01*
X6710120Y-10825112D02*
X6729167Y-10834636D01*
X6729167Y-10834636D02*
X6738691Y-10844160D01*
X6738691Y-10844160D02*
X6748215Y-10863207D01*
X6748215Y-10863207D02*
X6748215Y-10920350D01*
X6748215Y-10920350D02*
X6738691Y-10939398D01*
X6738691Y-10939398D02*
X6729167Y-10948922D01*
X6729167Y-10948922D02*
X6710120Y-10958445D01*
X6710120Y-10958445D02*
X6681548Y-10958445D01*
X6862501Y-10958445D02*
X6843453Y-10948922D01*
X6843453Y-10948922D02*
X6833929Y-10929874D01*
X6833929Y-10929874D02*
X6833929Y-10758445D01*
X7014882Y-10948922D02*
X6995834Y-10958445D01*
X6995834Y-10958445D02*
X6957739Y-10958445D01*
X6957739Y-10958445D02*
X6938691Y-10948922D01*
X6938691Y-10948922D02*
X6929167Y-10929874D01*
X6929167Y-10929874D02*
X6929167Y-10853684D01*
X6929167Y-10853684D02*
X6938691Y-10834636D01*
X6938691Y-10834636D02*
X6957739Y-10825112D01*
X6957739Y-10825112D02*
X6995834Y-10825112D01*
X6995834Y-10825112D02*
X7014882Y-10834636D01*
X7014882Y-10834636D02*
X7024405Y-10853684D01*
X7024405Y-10853684D02*
X7024405Y-10872731D01*
X7024405Y-10872731D02*
X6929167Y-10891779D01*
X7100596Y-10948922D02*
X7119644Y-10958445D01*
X7119644Y-10958445D02*
X7157739Y-10958445D01*
X7157739Y-10958445D02*
X7176786Y-10948922D01*
X7176786Y-10948922D02*
X7186310Y-10929874D01*
X7186310Y-10929874D02*
X7186310Y-10920350D01*
X7186310Y-10920350D02*
X7176786Y-10901303D01*
X7176786Y-10901303D02*
X7157739Y-10891779D01*
X7157739Y-10891779D02*
X7129167Y-10891779D01*
X7129167Y-10891779D02*
X7110120Y-10882255D01*
X7110120Y-10882255D02*
X7100596Y-10863207D01*
X7100596Y-10863207D02*
X7100596Y-10853684D01*
X7100596Y-10853684D02*
X7110120Y-10834636D01*
X7110120Y-10834636D02*
X7129167Y-10825112D01*
X7129167Y-10825112D02*
X7157739Y-10825112D01*
X7157739Y-10825112D02*
X7176786Y-10834636D01*
X7392025Y-10882255D02*
X7544406Y-10882255D01*
X7468215Y-10958445D02*
X7468215Y-10806065D01*
X7788215Y-10844160D02*
X7769167Y-10834636D01*
X7769167Y-10834636D02*
X7759644Y-10825112D01*
X7759644Y-10825112D02*
X7750120Y-10806065D01*
X7750120Y-10806065D02*
X7750120Y-10796541D01*
X7750120Y-10796541D02*
X7759644Y-10777493D01*
X7759644Y-10777493D02*
X7769167Y-10767969D01*
X7769167Y-10767969D02*
X7788215Y-10758445D01*
X7788215Y-10758445D02*
X7826310Y-10758445D01*
X7826310Y-10758445D02*
X7845358Y-10767969D01*
X7845358Y-10767969D02*
X7854882Y-10777493D01*
X7854882Y-10777493D02*
X7864405Y-10796541D01*
X7864405Y-10796541D02*
X7864405Y-10806065D01*
X7864405Y-10806065D02*
X7854882Y-10825112D01*
X7854882Y-10825112D02*
X7845358Y-10834636D01*
X7845358Y-10834636D02*
X7826310Y-10844160D01*
X7826310Y-10844160D02*
X7788215Y-10844160D01*
X7788215Y-10844160D02*
X7769167Y-10853684D01*
X7769167Y-10853684D02*
X7759644Y-10863207D01*
X7759644Y-10863207D02*
X7750120Y-10882255D01*
X7750120Y-10882255D02*
X7750120Y-10920350D01*
X7750120Y-10920350D02*
X7759644Y-10939398D01*
X7759644Y-10939398D02*
X7769167Y-10948922D01*
X7769167Y-10948922D02*
X7788215Y-10958445D01*
X7788215Y-10958445D02*
X7826310Y-10958445D01*
X7826310Y-10958445D02*
X7845358Y-10948922D01*
X7845358Y-10948922D02*
X7854882Y-10939398D01*
X7854882Y-10939398D02*
X7864405Y-10920350D01*
X7864405Y-10920350D02*
X7864405Y-10882255D01*
X7864405Y-10882255D02*
X7854882Y-10863207D01*
X7854882Y-10863207D02*
X7845358Y-10853684D01*
X7845358Y-10853684D02*
X7826310Y-10844160D01*
X8060596Y-10948922D02*
X8079644Y-10958445D01*
X8079644Y-10958445D02*
X8117739Y-10958445D01*
X8117739Y-10958445D02*
X8136786Y-10948922D01*
X8136786Y-10948922D02*
X8146310Y-10929874D01*
X8146310Y-10929874D02*
X8146310Y-10920350D01*
X8146310Y-10920350D02*
X8136786Y-10901303D01*
X8136786Y-10901303D02*
X8117739Y-10891779D01*
X8117739Y-10891779D02*
X8089167Y-10891779D01*
X8089167Y-10891779D02*
X8070120Y-10882255D01*
X8070120Y-10882255D02*
X8060596Y-10863207D01*
X8060596Y-10863207D02*
X8060596Y-10853684D01*
X8060596Y-10853684D02*
X8070120Y-10834636D01*
X8070120Y-10834636D02*
X8089167Y-10825112D01*
X8089167Y-10825112D02*
X8117739Y-10825112D01*
X8117739Y-10825112D02*
X8136786Y-10834636D01*
X8260596Y-10958445D02*
X8241548Y-10948922D01*
X8241548Y-10948922D02*
X8232025Y-10929874D01*
X8232025Y-10929874D02*
X8232025Y-10758445D01*
X8365358Y-10958445D02*
X8346310Y-10948922D01*
X8346310Y-10948922D02*
X8336786Y-10939398D01*
X8336786Y-10939398D02*
X8327263Y-10920350D01*
X8327263Y-10920350D02*
X8327263Y-10863207D01*
X8327263Y-10863207D02*
X8336786Y-10844160D01*
X8336786Y-10844160D02*
X8346310Y-10834636D01*
X8346310Y-10834636D02*
X8365358Y-10825112D01*
X8365358Y-10825112D02*
X8393929Y-10825112D01*
X8393929Y-10825112D02*
X8412977Y-10834636D01*
X8412977Y-10834636D02*
X8422501Y-10844160D01*
X8422501Y-10844160D02*
X8432025Y-10863207D01*
X8432025Y-10863207D02*
X8432025Y-10920350D01*
X8432025Y-10920350D02*
X8422501Y-10939398D01*
X8422501Y-10939398D02*
X8412977Y-10948922D01*
X8412977Y-10948922D02*
X8393929Y-10958445D01*
X8393929Y-10958445D02*
X8365358Y-10958445D01*
X8489168Y-10825112D02*
X8565358Y-10825112D01*
X8517739Y-10758445D02*
X8517739Y-10929874D01*
X8517739Y-10929874D02*
X8527263Y-10948922D01*
X8527263Y-10948922D02*
X8546310Y-10958445D01*
X8546310Y-10958445D02*
X8565358Y-10958445D01*
X8622501Y-10948922D02*
X8641548Y-10958445D01*
X8641548Y-10958445D02*
X8679644Y-10958445D01*
X8679644Y-10958445D02*
X8698691Y-10948922D01*
X8698691Y-10948922D02*
X8708215Y-10929874D01*
X8708215Y-10929874D02*
X8708215Y-10920350D01*
X8708215Y-10920350D02*
X8698691Y-10901303D01*
X8698691Y-10901303D02*
X8679644Y-10891779D01*
X8679644Y-10891779D02*
X8651072Y-10891779D01*
X8651072Y-10891779D02*
X8632025Y-10882255D01*
X8632025Y-10882255D02*
X8622501Y-10863207D01*
X8622501Y-10863207D02*
X8622501Y-10853684D01*
X8622501Y-10853684D02*
X8632025Y-10834636D01*
X8632025Y-10834636D02*
X8651072Y-10825112D01*
X8651072Y-10825112D02*
X8679644Y-10825112D01*
X8679644Y-10825112D02*
X8698691Y-10834636D01*
X8774882Y-11034636D02*
X8784406Y-11025112D01*
X8784406Y-11025112D02*
X8803453Y-10996541D01*
X8803453Y-10996541D02*
X8812977Y-10977493D01*
X8812977Y-10977493D02*
X8822501Y-10948922D01*
X8822501Y-10948922D02*
X8832025Y-10901303D01*
X8832025Y-10901303D02*
X8832025Y-10863207D01*
X8832025Y-10863207D02*
X8822501Y-10815588D01*
X8822501Y-10815588D02*
X8812977Y-10787017D01*
X8812977Y-10787017D02*
X8803453Y-10767969D01*
X8803453Y-10767969D02*
X8784406Y-10739398D01*
X8784406Y-10739398D02*
X8774882Y-10729874D01*
X9104406Y-11034636D02*
X9094882Y-11025112D01*
X9094882Y-11025112D02*
X9075834Y-10996541D01*
X9075834Y-10996541D02*
X9066310Y-10977493D01*
X9066310Y-10977493D02*
X9056787Y-10948922D01*
X9056787Y-10948922D02*
X9047263Y-10901303D01*
X9047263Y-10901303D02*
X9047263Y-10863207D01*
X9047263Y-10863207D02*
X9056787Y-10815588D01*
X9056787Y-10815588D02*
X9066310Y-10787017D01*
X9066310Y-10787017D02*
X9075834Y-10767969D01*
X9075834Y-10767969D02*
X9094882Y-10739398D01*
X9094882Y-10739398D02*
X9104406Y-10729874D01*
X9180596Y-10825112D02*
X9180596Y-10958445D01*
X9180596Y-10844160D02*
X9190120Y-10834636D01*
X9190120Y-10834636D02*
X9209167Y-10825112D01*
X9209167Y-10825112D02*
X9237739Y-10825112D01*
X9237739Y-10825112D02*
X9256787Y-10834636D01*
X9256787Y-10834636D02*
X9266310Y-10853684D01*
X9266310Y-10853684D02*
X9266310Y-10958445D01*
X9390120Y-10958445D02*
X9371072Y-10948922D01*
X9371072Y-10948922D02*
X9361548Y-10939398D01*
X9361548Y-10939398D02*
X9352025Y-10920350D01*
X9352025Y-10920350D02*
X9352025Y-10863207D01*
X9352025Y-10863207D02*
X9361548Y-10844160D01*
X9361548Y-10844160D02*
X9371072Y-10834636D01*
X9371072Y-10834636D02*
X9390120Y-10825112D01*
X9390120Y-10825112D02*
X9418691Y-10825112D01*
X9418691Y-10825112D02*
X9437739Y-10834636D01*
X9437739Y-10834636D02*
X9447263Y-10844160D01*
X9447263Y-10844160D02*
X9456787Y-10863207D01*
X9456787Y-10863207D02*
X9456787Y-10920350D01*
X9456787Y-10920350D02*
X9447263Y-10939398D01*
X9447263Y-10939398D02*
X9437739Y-10948922D01*
X9437739Y-10948922D02*
X9418691Y-10958445D01*
X9418691Y-10958445D02*
X9390120Y-10958445D01*
X9513929Y-10825112D02*
X9590120Y-10825112D01*
X9542501Y-10758445D02*
X9542501Y-10929874D01*
X9542501Y-10929874D02*
X9552025Y-10948922D01*
X9552025Y-10948922D02*
X9571072Y-10958445D01*
X9571072Y-10958445D02*
X9590120Y-10958445D01*
X9776787Y-10825112D02*
X9776787Y-11025112D01*
X9776787Y-10834636D02*
X9795834Y-10825112D01*
X9795834Y-10825112D02*
X9833929Y-10825112D01*
X9833929Y-10825112D02*
X9852977Y-10834636D01*
X9852977Y-10834636D02*
X9862501Y-10844160D01*
X9862501Y-10844160D02*
X9872025Y-10863207D01*
X9872025Y-10863207D02*
X9872025Y-10920350D01*
X9872025Y-10920350D02*
X9862501Y-10939398D01*
X9862501Y-10939398D02*
X9852977Y-10948922D01*
X9852977Y-10948922D02*
X9833929Y-10958445D01*
X9833929Y-10958445D02*
X9795834Y-10958445D01*
X9795834Y-10958445D02*
X9776787Y-10948922D01*
X9986310Y-10958445D02*
X9967263Y-10948922D01*
X9967263Y-10948922D02*
X9957739Y-10929874D01*
X9957739Y-10929874D02*
X9957739Y-10758445D01*
X10148215Y-10958445D02*
X10148215Y-10853684D01*
X10148215Y-10853684D02*
X10138691Y-10834636D01*
X10138691Y-10834636D02*
X10119644Y-10825112D01*
X10119644Y-10825112D02*
X10081548Y-10825112D01*
X10081548Y-10825112D02*
X10062501Y-10834636D01*
X10148215Y-10948922D02*
X10129168Y-10958445D01*
X10129168Y-10958445D02*
X10081548Y-10958445D01*
X10081548Y-10958445D02*
X10062501Y-10948922D01*
X10062501Y-10948922D02*
X10052977Y-10929874D01*
X10052977Y-10929874D02*
X10052977Y-10910826D01*
X10052977Y-10910826D02*
X10062501Y-10891779D01*
X10062501Y-10891779D02*
X10081548Y-10882255D01*
X10081548Y-10882255D02*
X10129168Y-10882255D01*
X10129168Y-10882255D02*
X10148215Y-10872731D01*
X10214882Y-10825112D02*
X10291072Y-10825112D01*
X10243453Y-10758445D02*
X10243453Y-10929874D01*
X10243453Y-10929874D02*
X10252977Y-10948922D01*
X10252977Y-10948922D02*
X10272025Y-10958445D01*
X10272025Y-10958445D02*
X10291072Y-10958445D01*
X10433929Y-10948922D02*
X10414882Y-10958445D01*
X10414882Y-10958445D02*
X10376787Y-10958445D01*
X10376787Y-10958445D02*
X10357739Y-10948922D01*
X10357739Y-10948922D02*
X10348215Y-10929874D01*
X10348215Y-10929874D02*
X10348215Y-10853684D01*
X10348215Y-10853684D02*
X10357739Y-10834636D01*
X10357739Y-10834636D02*
X10376787Y-10825112D01*
X10376787Y-10825112D02*
X10414882Y-10825112D01*
X10414882Y-10825112D02*
X10433929Y-10834636D01*
X10433929Y-10834636D02*
X10443453Y-10853684D01*
X10443453Y-10853684D02*
X10443453Y-10872731D01*
X10443453Y-10872731D02*
X10348215Y-10891779D01*
X10614882Y-10958445D02*
X10614882Y-10758445D01*
X10614882Y-10948922D02*
X10595834Y-10958445D01*
X10595834Y-10958445D02*
X10557739Y-10958445D01*
X10557739Y-10958445D02*
X10538691Y-10948922D01*
X10538691Y-10948922D02*
X10529168Y-10939398D01*
X10529168Y-10939398D02*
X10519644Y-10920350D01*
X10519644Y-10920350D02*
X10519644Y-10863207D01*
X10519644Y-10863207D02*
X10529168Y-10844160D01*
X10529168Y-10844160D02*
X10538691Y-10834636D01*
X10538691Y-10834636D02*
X10557739Y-10825112D01*
X10557739Y-10825112D02*
X10595834Y-10825112D01*
X10595834Y-10825112D02*
X10614882Y-10834636D01*
X10691072Y-11034636D02*
X10700596Y-11025112D01*
X10700596Y-11025112D02*
X10719644Y-10996541D01*
X10719644Y-10996541D02*
X10729168Y-10977493D01*
X10729168Y-10977493D02*
X10738691Y-10948922D01*
X10738691Y-10948922D02*
X10748215Y-10901303D01*
X10748215Y-10901303D02*
X10748215Y-10863207D01*
X10748215Y-10863207D02*
X10738691Y-10815588D01*
X10738691Y-10815588D02*
X10729168Y-10787017D01*
X10729168Y-10787017D02*
X10719644Y-10767969D01*
X10719644Y-10767969D02*
X10700596Y-10739398D01*
X10700596Y-10739398D02*
X10691072Y-10729874D01*
D13*
X2620596Y-11148969D02*
G75*
G03*
X2620596Y-11148969I-84000J0D01*
G01*
D11*
X2972977Y-11222445D02*
X2858691Y-11222445D01*
X2915834Y-11222445D02*
X2915834Y-11022445D01*
X2915834Y-11022445D02*
X2896786Y-11051017D01*
X2896786Y-11051017D02*
X2877739Y-11070065D01*
X2877739Y-11070065D02*
X2858691Y-11079588D01*
X3058691Y-11203398D02*
X3068215Y-11212922D01*
X3068215Y-11212922D02*
X3058691Y-11222445D01*
X3058691Y-11222445D02*
X3049167Y-11212922D01*
X3049167Y-11212922D02*
X3058691Y-11203398D01*
X3058691Y-11203398D02*
X3058691Y-11222445D01*
X3239643Y-11022445D02*
X3201548Y-11022445D01*
X3201548Y-11022445D02*
X3182500Y-11031969D01*
X3182500Y-11031969D02*
X3172977Y-11041493D01*
X3172977Y-11041493D02*
X3153929Y-11070065D01*
X3153929Y-11070065D02*
X3144405Y-11108160D01*
X3144405Y-11108160D02*
X3144405Y-11184350D01*
X3144405Y-11184350D02*
X3153929Y-11203398D01*
X3153929Y-11203398D02*
X3163453Y-11212922D01*
X3163453Y-11212922D02*
X3182500Y-11222445D01*
X3182500Y-11222445D02*
X3220596Y-11222445D01*
X3220596Y-11222445D02*
X3239643Y-11212922D01*
X3239643Y-11212922D02*
X3249167Y-11203398D01*
X3249167Y-11203398D02*
X3258691Y-11184350D01*
X3258691Y-11184350D02*
X3258691Y-11136731D01*
X3258691Y-11136731D02*
X3249167Y-11117684D01*
X3249167Y-11117684D02*
X3239643Y-11108160D01*
X3239643Y-11108160D02*
X3220596Y-11098636D01*
X3220596Y-11098636D02*
X3182500Y-11098636D01*
X3182500Y-11098636D02*
X3163453Y-11108160D01*
X3163453Y-11108160D02*
X3153929Y-11117684D01*
X3153929Y-11117684D02*
X3144405Y-11136731D01*
X3372977Y-11108160D02*
X3353929Y-11098636D01*
X3353929Y-11098636D02*
X3344405Y-11089112D01*
X3344405Y-11089112D02*
X3334881Y-11070065D01*
X3334881Y-11070065D02*
X3334881Y-11060541D01*
X3334881Y-11060541D02*
X3344405Y-11041493D01*
X3344405Y-11041493D02*
X3353929Y-11031969D01*
X3353929Y-11031969D02*
X3372977Y-11022445D01*
X3372977Y-11022445D02*
X3411072Y-11022445D01*
X3411072Y-11022445D02*
X3430120Y-11031969D01*
X3430120Y-11031969D02*
X3439643Y-11041493D01*
X3439643Y-11041493D02*
X3449167Y-11060541D01*
X3449167Y-11060541D02*
X3449167Y-11070065D01*
X3449167Y-11070065D02*
X3439643Y-11089112D01*
X3439643Y-11089112D02*
X3430120Y-11098636D01*
X3430120Y-11098636D02*
X3411072Y-11108160D01*
X3411072Y-11108160D02*
X3372977Y-11108160D01*
X3372977Y-11108160D02*
X3353929Y-11117684D01*
X3353929Y-11117684D02*
X3344405Y-11127207D01*
X3344405Y-11127207D02*
X3334881Y-11146255D01*
X3334881Y-11146255D02*
X3334881Y-11184350D01*
X3334881Y-11184350D02*
X3344405Y-11203398D01*
X3344405Y-11203398D02*
X3353929Y-11212922D01*
X3353929Y-11212922D02*
X3372977Y-11222445D01*
X3372977Y-11222445D02*
X3411072Y-11222445D01*
X3411072Y-11222445D02*
X3430120Y-11212922D01*
X3430120Y-11212922D02*
X3439643Y-11203398D01*
X3439643Y-11203398D02*
X3449167Y-11184350D01*
X3449167Y-11184350D02*
X3449167Y-11146255D01*
X3449167Y-11146255D02*
X3439643Y-11127207D01*
X3439643Y-11127207D02*
X3430120Y-11117684D01*
X3430120Y-11117684D02*
X3411072Y-11108160D01*
X3572977Y-11022445D02*
X3592024Y-11022445D01*
X3592024Y-11022445D02*
X3611072Y-11031969D01*
X3611072Y-11031969D02*
X3620596Y-11041493D01*
X3620596Y-11041493D02*
X3630120Y-11060541D01*
X3630120Y-11060541D02*
X3639643Y-11098636D01*
X3639643Y-11098636D02*
X3639643Y-11146255D01*
X3639643Y-11146255D02*
X3630120Y-11184350D01*
X3630120Y-11184350D02*
X3620596Y-11203398D01*
X3620596Y-11203398D02*
X3611072Y-11212922D01*
X3611072Y-11212922D02*
X3592024Y-11222445D01*
X3592024Y-11222445D02*
X3572977Y-11222445D01*
X3572977Y-11222445D02*
X3553929Y-11212922D01*
X3553929Y-11212922D02*
X3544405Y-11203398D01*
X3544405Y-11203398D02*
X3534881Y-11184350D01*
X3534881Y-11184350D02*
X3525358Y-11146255D01*
X3525358Y-11146255D02*
X3525358Y-11098636D01*
X3525358Y-11098636D02*
X3534881Y-11060541D01*
X3534881Y-11060541D02*
X3544405Y-11041493D01*
X3544405Y-11041493D02*
X3553929Y-11031969D01*
X3553929Y-11031969D02*
X3572977Y-11022445D01*
X3725358Y-11222445D02*
X3725358Y-11089112D01*
X3725358Y-11108160D02*
X3734881Y-11098636D01*
X3734881Y-11098636D02*
X3753929Y-11089112D01*
X3753929Y-11089112D02*
X3782501Y-11089112D01*
X3782501Y-11089112D02*
X3801548Y-11098636D01*
X3801548Y-11098636D02*
X3811072Y-11117684D01*
X3811072Y-11117684D02*
X3811072Y-11222445D01*
X3811072Y-11117684D02*
X3820596Y-11098636D01*
X3820596Y-11098636D02*
X3839643Y-11089112D01*
X3839643Y-11089112D02*
X3868215Y-11089112D01*
X3868215Y-11089112D02*
X3887262Y-11098636D01*
X3887262Y-11098636D02*
X3896786Y-11117684D01*
X3896786Y-11117684D02*
X3896786Y-11222445D01*
X3992024Y-11222445D02*
X3992024Y-11089112D01*
X3992024Y-11108160D02*
X4001548Y-11098636D01*
X4001548Y-11098636D02*
X4020596Y-11089112D01*
X4020596Y-11089112D02*
X4049167Y-11089112D01*
X4049167Y-11089112D02*
X4068215Y-11098636D01*
X4068215Y-11098636D02*
X4077739Y-11117684D01*
X4077739Y-11117684D02*
X4077739Y-11222445D01*
X4077739Y-11117684D02*
X4087262Y-11098636D01*
X4087262Y-11098636D02*
X4106310Y-11089112D01*
X4106310Y-11089112D02*
X4134881Y-11089112D01*
X4134881Y-11089112D02*
X4153929Y-11098636D01*
X4153929Y-11098636D02*
X4163453Y-11117684D01*
X4163453Y-11117684D02*
X4163453Y-11222445D01*
X4521548Y-11012922D02*
X4350120Y-11270064D01*
X4746310Y-11022445D02*
X4765358Y-11022445D01*
X4765358Y-11022445D02*
X4784405Y-11031969D01*
X4784405Y-11031969D02*
X4793929Y-11041493D01*
X4793929Y-11041493D02*
X4803453Y-11060541D01*
X4803453Y-11060541D02*
X4812977Y-11098636D01*
X4812977Y-11098636D02*
X4812977Y-11146255D01*
X4812977Y-11146255D02*
X4803453Y-11184350D01*
X4803453Y-11184350D02*
X4793929Y-11203398D01*
X4793929Y-11203398D02*
X4784405Y-11212922D01*
X4784405Y-11212922D02*
X4765358Y-11222445D01*
X4765358Y-11222445D02*
X4746310Y-11222445D01*
X4746310Y-11222445D02*
X4727263Y-11212922D01*
X4727263Y-11212922D02*
X4717739Y-11203398D01*
X4717739Y-11203398D02*
X4708215Y-11184350D01*
X4708215Y-11184350D02*
X4698691Y-11146255D01*
X4698691Y-11146255D02*
X4698691Y-11098636D01*
X4698691Y-11098636D02*
X4708215Y-11060541D01*
X4708215Y-11060541D02*
X4717739Y-11041493D01*
X4717739Y-11041493D02*
X4727263Y-11031969D01*
X4727263Y-11031969D02*
X4746310Y-11022445D01*
X4898691Y-11203398D02*
X4908215Y-11212922D01*
X4908215Y-11212922D02*
X4898691Y-11222445D01*
X4898691Y-11222445D02*
X4889167Y-11212922D01*
X4889167Y-11212922D02*
X4898691Y-11203398D01*
X4898691Y-11203398D02*
X4898691Y-11222445D01*
X5032024Y-11022445D02*
X5051072Y-11022445D01*
X5051072Y-11022445D02*
X5070120Y-11031969D01*
X5070120Y-11031969D02*
X5079644Y-11041493D01*
X5079644Y-11041493D02*
X5089167Y-11060541D01*
X5089167Y-11060541D02*
X5098691Y-11098636D01*
X5098691Y-11098636D02*
X5098691Y-11146255D01*
X5098691Y-11146255D02*
X5089167Y-11184350D01*
X5089167Y-11184350D02*
X5079644Y-11203398D01*
X5079644Y-11203398D02*
X5070120Y-11212922D01*
X5070120Y-11212922D02*
X5051072Y-11222445D01*
X5051072Y-11222445D02*
X5032024Y-11222445D01*
X5032024Y-11222445D02*
X5012977Y-11212922D01*
X5012977Y-11212922D02*
X5003453Y-11203398D01*
X5003453Y-11203398D02*
X4993929Y-11184350D01*
X4993929Y-11184350D02*
X4984405Y-11146255D01*
X4984405Y-11146255D02*
X4984405Y-11098636D01*
X4984405Y-11098636D02*
X4993929Y-11060541D01*
X4993929Y-11060541D02*
X5003453Y-11041493D01*
X5003453Y-11041493D02*
X5012977Y-11031969D01*
X5012977Y-11031969D02*
X5032024Y-11022445D01*
X5270120Y-11022445D02*
X5232024Y-11022445D01*
X5232024Y-11022445D02*
X5212977Y-11031969D01*
X5212977Y-11031969D02*
X5203453Y-11041493D01*
X5203453Y-11041493D02*
X5184405Y-11070065D01*
X5184405Y-11070065D02*
X5174882Y-11108160D01*
X5174882Y-11108160D02*
X5174882Y-11184350D01*
X5174882Y-11184350D02*
X5184405Y-11203398D01*
X5184405Y-11203398D02*
X5193929Y-11212922D01*
X5193929Y-11212922D02*
X5212977Y-11222445D01*
X5212977Y-11222445D02*
X5251072Y-11222445D01*
X5251072Y-11222445D02*
X5270120Y-11212922D01*
X5270120Y-11212922D02*
X5279644Y-11203398D01*
X5279644Y-11203398D02*
X5289167Y-11184350D01*
X5289167Y-11184350D02*
X5289167Y-11136731D01*
X5289167Y-11136731D02*
X5279644Y-11117684D01*
X5279644Y-11117684D02*
X5270120Y-11108160D01*
X5270120Y-11108160D02*
X5251072Y-11098636D01*
X5251072Y-11098636D02*
X5212977Y-11098636D01*
X5212977Y-11098636D02*
X5193929Y-11108160D01*
X5193929Y-11108160D02*
X5184405Y-11117684D01*
X5184405Y-11117684D02*
X5174882Y-11136731D01*
X5460596Y-11022445D02*
X5422501Y-11022445D01*
X5422501Y-11022445D02*
X5403453Y-11031969D01*
X5403453Y-11031969D02*
X5393929Y-11041493D01*
X5393929Y-11041493D02*
X5374882Y-11070065D01*
X5374882Y-11070065D02*
X5365358Y-11108160D01*
X5365358Y-11108160D02*
X5365358Y-11184350D01*
X5365358Y-11184350D02*
X5374882Y-11203398D01*
X5374882Y-11203398D02*
X5384405Y-11212922D01*
X5384405Y-11212922D02*
X5403453Y-11222445D01*
X5403453Y-11222445D02*
X5441548Y-11222445D01*
X5441548Y-11222445D02*
X5460596Y-11212922D01*
X5460596Y-11212922D02*
X5470120Y-11203398D01*
X5470120Y-11203398D02*
X5479644Y-11184350D01*
X5479644Y-11184350D02*
X5479644Y-11136731D01*
X5479644Y-11136731D02*
X5470120Y-11117684D01*
X5470120Y-11117684D02*
X5460596Y-11108160D01*
X5460596Y-11108160D02*
X5441548Y-11098636D01*
X5441548Y-11098636D02*
X5403453Y-11098636D01*
X5403453Y-11098636D02*
X5384405Y-11108160D01*
X5384405Y-11108160D02*
X5374882Y-11117684D01*
X5374882Y-11117684D02*
X5365358Y-11136731D01*
X5670120Y-11222445D02*
X5555834Y-11222445D01*
X5612977Y-11222445D02*
X5612977Y-11022445D01*
X5612977Y-11022445D02*
X5593929Y-11051017D01*
X5593929Y-11051017D02*
X5574882Y-11070065D01*
X5574882Y-11070065D02*
X5555834Y-11079588D01*
X5746310Y-11022445D02*
X5746310Y-11060541D01*
X5822501Y-11022445D02*
X5822501Y-11060541D01*
X6085358Y-11298636D02*
X6075834Y-11289112D01*
X6075834Y-11289112D02*
X6056786Y-11260541D01*
X6056786Y-11260541D02*
X6047263Y-11241493D01*
X6047263Y-11241493D02*
X6037739Y-11212922D01*
X6037739Y-11212922D02*
X6028215Y-11165303D01*
X6028215Y-11165303D02*
X6028215Y-11127207D01*
X6028215Y-11127207D02*
X6037739Y-11079588D01*
X6037739Y-11079588D02*
X6047263Y-11051017D01*
X6047263Y-11051017D02*
X6056786Y-11031969D01*
X6056786Y-11031969D02*
X6075834Y-11003398D01*
X6075834Y-11003398D02*
X6085358Y-10993874D01*
X6266310Y-11222445D02*
X6152024Y-11222445D01*
X6209167Y-11222445D02*
X6209167Y-11022445D01*
X6209167Y-11022445D02*
X6190120Y-11051017D01*
X6190120Y-11051017D02*
X6171072Y-11070065D01*
X6171072Y-11070065D02*
X6152024Y-11079588D01*
X6437739Y-11022445D02*
X6399643Y-11022445D01*
X6399643Y-11022445D02*
X6380596Y-11031969D01*
X6380596Y-11031969D02*
X6371072Y-11041493D01*
X6371072Y-11041493D02*
X6352024Y-11070065D01*
X6352024Y-11070065D02*
X6342501Y-11108160D01*
X6342501Y-11108160D02*
X6342501Y-11184350D01*
X6342501Y-11184350D02*
X6352024Y-11203398D01*
X6352024Y-11203398D02*
X6361548Y-11212922D01*
X6361548Y-11212922D02*
X6380596Y-11222445D01*
X6380596Y-11222445D02*
X6418691Y-11222445D01*
X6418691Y-11222445D02*
X6437739Y-11212922D01*
X6437739Y-11212922D02*
X6447263Y-11203398D01*
X6447263Y-11203398D02*
X6456786Y-11184350D01*
X6456786Y-11184350D02*
X6456786Y-11136731D01*
X6456786Y-11136731D02*
X6447263Y-11117684D01*
X6447263Y-11117684D02*
X6437739Y-11108160D01*
X6437739Y-11108160D02*
X6418691Y-11098636D01*
X6418691Y-11098636D02*
X6380596Y-11098636D01*
X6380596Y-11098636D02*
X6361548Y-11108160D01*
X6361548Y-11108160D02*
X6352024Y-11117684D01*
X6352024Y-11117684D02*
X6342501Y-11136731D01*
X6662501Y-11222445D02*
X6662501Y-11022445D01*
X6748215Y-11222445D02*
X6748215Y-11117684D01*
X6748215Y-11117684D02*
X6738691Y-11098636D01*
X6738691Y-11098636D02*
X6719644Y-11089112D01*
X6719644Y-11089112D02*
X6691072Y-11089112D01*
X6691072Y-11089112D02*
X6672024Y-11098636D01*
X6672024Y-11098636D02*
X6662501Y-11108160D01*
X6872024Y-11222445D02*
X6852977Y-11212922D01*
X6852977Y-11212922D02*
X6843453Y-11203398D01*
X6843453Y-11203398D02*
X6833929Y-11184350D01*
X6833929Y-11184350D02*
X6833929Y-11127207D01*
X6833929Y-11127207D02*
X6843453Y-11108160D01*
X6843453Y-11108160D02*
X6852977Y-11098636D01*
X6852977Y-11098636D02*
X6872024Y-11089112D01*
X6872024Y-11089112D02*
X6900596Y-11089112D01*
X6900596Y-11089112D02*
X6919644Y-11098636D01*
X6919644Y-11098636D02*
X6929167Y-11108160D01*
X6929167Y-11108160D02*
X6938691Y-11127207D01*
X6938691Y-11127207D02*
X6938691Y-11184350D01*
X6938691Y-11184350D02*
X6929167Y-11203398D01*
X6929167Y-11203398D02*
X6919644Y-11212922D01*
X6919644Y-11212922D02*
X6900596Y-11222445D01*
X6900596Y-11222445D02*
X6872024Y-11222445D01*
X7052977Y-11222445D02*
X7033929Y-11212922D01*
X7033929Y-11212922D02*
X7024405Y-11193874D01*
X7024405Y-11193874D02*
X7024405Y-11022445D01*
X7205358Y-11212922D02*
X7186310Y-11222445D01*
X7186310Y-11222445D02*
X7148215Y-11222445D01*
X7148215Y-11222445D02*
X7129167Y-11212922D01*
X7129167Y-11212922D02*
X7119644Y-11193874D01*
X7119644Y-11193874D02*
X7119644Y-11117684D01*
X7119644Y-11117684D02*
X7129167Y-11098636D01*
X7129167Y-11098636D02*
X7148215Y-11089112D01*
X7148215Y-11089112D02*
X7186310Y-11089112D01*
X7186310Y-11089112D02*
X7205358Y-11098636D01*
X7205358Y-11098636D02*
X7214882Y-11117684D01*
X7214882Y-11117684D02*
X7214882Y-11136731D01*
X7214882Y-11136731D02*
X7119644Y-11155779D01*
X7291072Y-11212922D02*
X7310120Y-11222445D01*
X7310120Y-11222445D02*
X7348215Y-11222445D01*
X7348215Y-11222445D02*
X7367263Y-11212922D01*
X7367263Y-11212922D02*
X7376786Y-11193874D01*
X7376786Y-11193874D02*
X7376786Y-11184350D01*
X7376786Y-11184350D02*
X7367263Y-11165303D01*
X7367263Y-11165303D02*
X7348215Y-11155779D01*
X7348215Y-11155779D02*
X7319644Y-11155779D01*
X7319644Y-11155779D02*
X7300596Y-11146255D01*
X7300596Y-11146255D02*
X7291072Y-11127207D01*
X7291072Y-11127207D02*
X7291072Y-11117684D01*
X7291072Y-11117684D02*
X7300596Y-11098636D01*
X7300596Y-11098636D02*
X7319644Y-11089112D01*
X7319644Y-11089112D02*
X7348215Y-11089112D01*
X7348215Y-11089112D02*
X7367263Y-11098636D01*
X7443453Y-11298636D02*
X7452977Y-11289112D01*
X7452977Y-11289112D02*
X7472025Y-11260541D01*
X7472025Y-11260541D02*
X7481548Y-11241493D01*
X7481548Y-11241493D02*
X7491072Y-11212922D01*
X7491072Y-11212922D02*
X7500596Y-11165303D01*
X7500596Y-11165303D02*
X7500596Y-11127207D01*
X7500596Y-11127207D02*
X7491072Y-11079588D01*
X7491072Y-11079588D02*
X7481548Y-11051017D01*
X7481548Y-11051017D02*
X7472025Y-11031969D01*
X7472025Y-11031969D02*
X7452977Y-11003398D01*
X7452977Y-11003398D02*
X7443453Y-10993874D01*
X7772977Y-11298636D02*
X7763453Y-11289112D01*
X7763453Y-11289112D02*
X7744405Y-11260541D01*
X7744405Y-11260541D02*
X7734882Y-11241493D01*
X7734882Y-11241493D02*
X7725358Y-11212922D01*
X7725358Y-11212922D02*
X7715834Y-11165303D01*
X7715834Y-11165303D02*
X7715834Y-11127207D01*
X7715834Y-11127207D02*
X7725358Y-11079588D01*
X7725358Y-11079588D02*
X7734882Y-11051017D01*
X7734882Y-11051017D02*
X7744405Y-11031969D01*
X7744405Y-11031969D02*
X7763453Y-11003398D01*
X7763453Y-11003398D02*
X7772977Y-10993874D01*
X7849167Y-11089112D02*
X7849167Y-11222445D01*
X7849167Y-11108160D02*
X7858691Y-11098636D01*
X7858691Y-11098636D02*
X7877739Y-11089112D01*
X7877739Y-11089112D02*
X7906310Y-11089112D01*
X7906310Y-11089112D02*
X7925358Y-11098636D01*
X7925358Y-11098636D02*
X7934882Y-11117684D01*
X7934882Y-11117684D02*
X7934882Y-11222445D01*
X8058691Y-11222445D02*
X8039644Y-11212922D01*
X8039644Y-11212922D02*
X8030120Y-11203398D01*
X8030120Y-11203398D02*
X8020596Y-11184350D01*
X8020596Y-11184350D02*
X8020596Y-11127207D01*
X8020596Y-11127207D02*
X8030120Y-11108160D01*
X8030120Y-11108160D02*
X8039644Y-11098636D01*
X8039644Y-11098636D02*
X8058691Y-11089112D01*
X8058691Y-11089112D02*
X8087263Y-11089112D01*
X8087263Y-11089112D02*
X8106310Y-11098636D01*
X8106310Y-11098636D02*
X8115834Y-11108160D01*
X8115834Y-11108160D02*
X8125358Y-11127207D01*
X8125358Y-11127207D02*
X8125358Y-11184350D01*
X8125358Y-11184350D02*
X8115834Y-11203398D01*
X8115834Y-11203398D02*
X8106310Y-11212922D01*
X8106310Y-11212922D02*
X8087263Y-11222445D01*
X8087263Y-11222445D02*
X8058691Y-11222445D01*
X8182501Y-11089112D02*
X8258691Y-11089112D01*
X8211072Y-11022445D02*
X8211072Y-11193874D01*
X8211072Y-11193874D02*
X8220596Y-11212922D01*
X8220596Y-11212922D02*
X8239644Y-11222445D01*
X8239644Y-11222445D02*
X8258691Y-11222445D01*
X8445358Y-11089112D02*
X8445358Y-11289112D01*
X8445358Y-11098636D02*
X8464406Y-11089112D01*
X8464406Y-11089112D02*
X8502501Y-11089112D01*
X8502501Y-11089112D02*
X8521548Y-11098636D01*
X8521548Y-11098636D02*
X8531072Y-11108160D01*
X8531072Y-11108160D02*
X8540596Y-11127207D01*
X8540596Y-11127207D02*
X8540596Y-11184350D01*
X8540596Y-11184350D02*
X8531072Y-11203398D01*
X8531072Y-11203398D02*
X8521548Y-11212922D01*
X8521548Y-11212922D02*
X8502501Y-11222445D01*
X8502501Y-11222445D02*
X8464406Y-11222445D01*
X8464406Y-11222445D02*
X8445358Y-11212922D01*
X8654882Y-11222445D02*
X8635834Y-11212922D01*
X8635834Y-11212922D02*
X8626310Y-11193874D01*
X8626310Y-11193874D02*
X8626310Y-11022445D01*
X8816787Y-11222445D02*
X8816787Y-11117684D01*
X8816787Y-11117684D02*
X8807263Y-11098636D01*
X8807263Y-11098636D02*
X8788215Y-11089112D01*
X8788215Y-11089112D02*
X8750120Y-11089112D01*
X8750120Y-11089112D02*
X8731072Y-11098636D01*
X8816787Y-11212922D02*
X8797739Y-11222445D01*
X8797739Y-11222445D02*
X8750120Y-11222445D01*
X8750120Y-11222445D02*
X8731072Y-11212922D01*
X8731072Y-11212922D02*
X8721548Y-11193874D01*
X8721548Y-11193874D02*
X8721548Y-11174826D01*
X8721548Y-11174826D02*
X8731072Y-11155779D01*
X8731072Y-11155779D02*
X8750120Y-11146255D01*
X8750120Y-11146255D02*
X8797739Y-11146255D01*
X8797739Y-11146255D02*
X8816787Y-11136731D01*
X8883453Y-11089112D02*
X8959644Y-11089112D01*
X8912025Y-11022445D02*
X8912025Y-11193874D01*
X8912025Y-11193874D02*
X8921548Y-11212922D01*
X8921548Y-11212922D02*
X8940596Y-11222445D01*
X8940596Y-11222445D02*
X8959644Y-11222445D01*
X9102501Y-11212922D02*
X9083453Y-11222445D01*
X9083453Y-11222445D02*
X9045358Y-11222445D01*
X9045358Y-11222445D02*
X9026310Y-11212922D01*
X9026310Y-11212922D02*
X9016787Y-11193874D01*
X9016787Y-11193874D02*
X9016787Y-11117684D01*
X9016787Y-11117684D02*
X9026310Y-11098636D01*
X9026310Y-11098636D02*
X9045358Y-11089112D01*
X9045358Y-11089112D02*
X9083453Y-11089112D01*
X9083453Y-11089112D02*
X9102501Y-11098636D01*
X9102501Y-11098636D02*
X9112025Y-11117684D01*
X9112025Y-11117684D02*
X9112025Y-11136731D01*
X9112025Y-11136731D02*
X9016787Y-11155779D01*
X9283453Y-11222445D02*
X9283453Y-11022445D01*
X9283453Y-11212922D02*
X9264406Y-11222445D01*
X9264406Y-11222445D02*
X9226310Y-11222445D01*
X9226310Y-11222445D02*
X9207263Y-11212922D01*
X9207263Y-11212922D02*
X9197739Y-11203398D01*
X9197739Y-11203398D02*
X9188215Y-11184350D01*
X9188215Y-11184350D02*
X9188215Y-11127207D01*
X9188215Y-11127207D02*
X9197739Y-11108160D01*
X9197739Y-11108160D02*
X9207263Y-11098636D01*
X9207263Y-11098636D02*
X9226310Y-11089112D01*
X9226310Y-11089112D02*
X9264406Y-11089112D01*
X9264406Y-11089112D02*
X9283453Y-11098636D01*
X9359644Y-11298636D02*
X9369168Y-11289112D01*
X9369168Y-11289112D02*
X9388215Y-11260541D01*
X9388215Y-11260541D02*
X9397739Y-11241493D01*
X9397739Y-11241493D02*
X9407263Y-11212922D01*
X9407263Y-11212922D02*
X9416787Y-11165303D01*
X9416787Y-11165303D02*
X9416787Y-11127207D01*
X9416787Y-11127207D02*
X9407263Y-11079588D01*
X9407263Y-11079588D02*
X9397739Y-11051017D01*
X9397739Y-11051017D02*
X9388215Y-11031969D01*
X9388215Y-11031969D02*
X9369168Y-11003398D01*
X9369168Y-11003398D02*
X9359644Y-10993874D01*
D14*
X2535596Y-11351969D02*
X2535596Y-11521969D01*
X2450596Y-11436969D02*
X2620596Y-11436969D01*
D11*
X2972977Y-11510445D02*
X2858691Y-11510445D01*
X2915834Y-11510445D02*
X2915834Y-11310445D01*
X2915834Y-11310445D02*
X2896786Y-11339017D01*
X2896786Y-11339017D02*
X2877739Y-11358064D01*
X2877739Y-11358064D02*
X2858691Y-11367588D01*
X3058691Y-11491398D02*
X3068215Y-11500922D01*
X3068215Y-11500922D02*
X3058691Y-11510445D01*
X3058691Y-11510445D02*
X3049167Y-11500922D01*
X3049167Y-11500922D02*
X3058691Y-11491398D01*
X3058691Y-11491398D02*
X3058691Y-11510445D01*
X3134881Y-11310445D02*
X3268215Y-11310445D01*
X3268215Y-11310445D02*
X3182500Y-11510445D01*
X3382500Y-11310445D02*
X3401548Y-11310445D01*
X3401548Y-11310445D02*
X3420596Y-11319969D01*
X3420596Y-11319969D02*
X3430120Y-11329493D01*
X3430120Y-11329493D02*
X3439643Y-11348541D01*
X3439643Y-11348541D02*
X3449167Y-11386636D01*
X3449167Y-11386636D02*
X3449167Y-11434255D01*
X3449167Y-11434255D02*
X3439643Y-11472350D01*
X3439643Y-11472350D02*
X3430120Y-11491398D01*
X3430120Y-11491398D02*
X3420596Y-11500922D01*
X3420596Y-11500922D02*
X3401548Y-11510445D01*
X3401548Y-11510445D02*
X3382500Y-11510445D01*
X3382500Y-11510445D02*
X3363453Y-11500922D01*
X3363453Y-11500922D02*
X3353929Y-11491398D01*
X3353929Y-11491398D02*
X3344405Y-11472350D01*
X3344405Y-11472350D02*
X3334881Y-11434255D01*
X3334881Y-11434255D02*
X3334881Y-11386636D01*
X3334881Y-11386636D02*
X3344405Y-11348541D01*
X3344405Y-11348541D02*
X3353929Y-11329493D01*
X3353929Y-11329493D02*
X3363453Y-11319969D01*
X3363453Y-11319969D02*
X3382500Y-11310445D01*
X3572977Y-11310445D02*
X3592024Y-11310445D01*
X3592024Y-11310445D02*
X3611072Y-11319969D01*
X3611072Y-11319969D02*
X3620596Y-11329493D01*
X3620596Y-11329493D02*
X3630120Y-11348541D01*
X3630120Y-11348541D02*
X3639643Y-11386636D01*
X3639643Y-11386636D02*
X3639643Y-11434255D01*
X3639643Y-11434255D02*
X3630120Y-11472350D01*
X3630120Y-11472350D02*
X3620596Y-11491398D01*
X3620596Y-11491398D02*
X3611072Y-11500922D01*
X3611072Y-11500922D02*
X3592024Y-11510445D01*
X3592024Y-11510445D02*
X3572977Y-11510445D01*
X3572977Y-11510445D02*
X3553929Y-11500922D01*
X3553929Y-11500922D02*
X3544405Y-11491398D01*
X3544405Y-11491398D02*
X3534881Y-11472350D01*
X3534881Y-11472350D02*
X3525358Y-11434255D01*
X3525358Y-11434255D02*
X3525358Y-11386636D01*
X3525358Y-11386636D02*
X3534881Y-11348541D01*
X3534881Y-11348541D02*
X3544405Y-11329493D01*
X3544405Y-11329493D02*
X3553929Y-11319969D01*
X3553929Y-11319969D02*
X3572977Y-11310445D01*
X3725358Y-11510445D02*
X3725358Y-11377112D01*
X3725358Y-11396160D02*
X3734881Y-11386636D01*
X3734881Y-11386636D02*
X3753929Y-11377112D01*
X3753929Y-11377112D02*
X3782501Y-11377112D01*
X3782501Y-11377112D02*
X3801548Y-11386636D01*
X3801548Y-11386636D02*
X3811072Y-11405683D01*
X3811072Y-11405683D02*
X3811072Y-11510445D01*
X3811072Y-11405683D02*
X3820596Y-11386636D01*
X3820596Y-11386636D02*
X3839643Y-11377112D01*
X3839643Y-11377112D02*
X3868215Y-11377112D01*
X3868215Y-11377112D02*
X3887262Y-11386636D01*
X3887262Y-11386636D02*
X3896786Y-11405683D01*
X3896786Y-11405683D02*
X3896786Y-11510445D01*
X3992024Y-11510445D02*
X3992024Y-11377112D01*
X3992024Y-11396160D02*
X4001548Y-11386636D01*
X4001548Y-11386636D02*
X4020596Y-11377112D01*
X4020596Y-11377112D02*
X4049167Y-11377112D01*
X4049167Y-11377112D02*
X4068215Y-11386636D01*
X4068215Y-11386636D02*
X4077739Y-11405683D01*
X4077739Y-11405683D02*
X4077739Y-11510445D01*
X4077739Y-11405683D02*
X4087262Y-11386636D01*
X4087262Y-11386636D02*
X4106310Y-11377112D01*
X4106310Y-11377112D02*
X4134881Y-11377112D01*
X4134881Y-11377112D02*
X4153929Y-11386636D01*
X4153929Y-11386636D02*
X4163453Y-11405683D01*
X4163453Y-11405683D02*
X4163453Y-11510445D01*
X4521548Y-11300922D02*
X4350120Y-11558064D01*
X4746310Y-11310445D02*
X4765358Y-11310445D01*
X4765358Y-11310445D02*
X4784405Y-11319969D01*
X4784405Y-11319969D02*
X4793929Y-11329493D01*
X4793929Y-11329493D02*
X4803453Y-11348541D01*
X4803453Y-11348541D02*
X4812977Y-11386636D01*
X4812977Y-11386636D02*
X4812977Y-11434255D01*
X4812977Y-11434255D02*
X4803453Y-11472350D01*
X4803453Y-11472350D02*
X4793929Y-11491398D01*
X4793929Y-11491398D02*
X4784405Y-11500922D01*
X4784405Y-11500922D02*
X4765358Y-11510445D01*
X4765358Y-11510445D02*
X4746310Y-11510445D01*
X4746310Y-11510445D02*
X4727263Y-11500922D01*
X4727263Y-11500922D02*
X4717739Y-11491398D01*
X4717739Y-11491398D02*
X4708215Y-11472350D01*
X4708215Y-11472350D02*
X4698691Y-11434255D01*
X4698691Y-11434255D02*
X4698691Y-11386636D01*
X4698691Y-11386636D02*
X4708215Y-11348541D01*
X4708215Y-11348541D02*
X4717739Y-11329493D01*
X4717739Y-11329493D02*
X4727263Y-11319969D01*
X4727263Y-11319969D02*
X4746310Y-11310445D01*
X4898691Y-11491398D02*
X4908215Y-11500922D01*
X4908215Y-11500922D02*
X4898691Y-11510445D01*
X4898691Y-11510445D02*
X4889167Y-11500922D01*
X4889167Y-11500922D02*
X4898691Y-11491398D01*
X4898691Y-11491398D02*
X4898691Y-11510445D01*
X5032024Y-11310445D02*
X5051072Y-11310445D01*
X5051072Y-11310445D02*
X5070120Y-11319969D01*
X5070120Y-11319969D02*
X5079644Y-11329493D01*
X5079644Y-11329493D02*
X5089167Y-11348541D01*
X5089167Y-11348541D02*
X5098691Y-11386636D01*
X5098691Y-11386636D02*
X5098691Y-11434255D01*
X5098691Y-11434255D02*
X5089167Y-11472350D01*
X5089167Y-11472350D02*
X5079644Y-11491398D01*
X5079644Y-11491398D02*
X5070120Y-11500922D01*
X5070120Y-11500922D02*
X5051072Y-11510445D01*
X5051072Y-11510445D02*
X5032024Y-11510445D01*
X5032024Y-11510445D02*
X5012977Y-11500922D01*
X5012977Y-11500922D02*
X5003453Y-11491398D01*
X5003453Y-11491398D02*
X4993929Y-11472350D01*
X4993929Y-11472350D02*
X4984405Y-11434255D01*
X4984405Y-11434255D02*
X4984405Y-11386636D01*
X4984405Y-11386636D02*
X4993929Y-11348541D01*
X4993929Y-11348541D02*
X5003453Y-11329493D01*
X5003453Y-11329493D02*
X5012977Y-11319969D01*
X5012977Y-11319969D02*
X5032024Y-11310445D01*
X5270120Y-11310445D02*
X5232024Y-11310445D01*
X5232024Y-11310445D02*
X5212977Y-11319969D01*
X5212977Y-11319969D02*
X5203453Y-11329493D01*
X5203453Y-11329493D02*
X5184405Y-11358064D01*
X5184405Y-11358064D02*
X5174882Y-11396160D01*
X5174882Y-11396160D02*
X5174882Y-11472350D01*
X5174882Y-11472350D02*
X5184405Y-11491398D01*
X5184405Y-11491398D02*
X5193929Y-11500922D01*
X5193929Y-11500922D02*
X5212977Y-11510445D01*
X5212977Y-11510445D02*
X5251072Y-11510445D01*
X5251072Y-11510445D02*
X5270120Y-11500922D01*
X5270120Y-11500922D02*
X5279644Y-11491398D01*
X5279644Y-11491398D02*
X5289167Y-11472350D01*
X5289167Y-11472350D02*
X5289167Y-11424731D01*
X5289167Y-11424731D02*
X5279644Y-11405683D01*
X5279644Y-11405683D02*
X5270120Y-11396160D01*
X5270120Y-11396160D02*
X5251072Y-11386636D01*
X5251072Y-11386636D02*
X5212977Y-11386636D01*
X5212977Y-11386636D02*
X5193929Y-11396160D01*
X5193929Y-11396160D02*
X5184405Y-11405683D01*
X5184405Y-11405683D02*
X5174882Y-11424731D01*
X5460596Y-11310445D02*
X5422501Y-11310445D01*
X5422501Y-11310445D02*
X5403453Y-11319969D01*
X5403453Y-11319969D02*
X5393929Y-11329493D01*
X5393929Y-11329493D02*
X5374882Y-11358064D01*
X5374882Y-11358064D02*
X5365358Y-11396160D01*
X5365358Y-11396160D02*
X5365358Y-11472350D01*
X5365358Y-11472350D02*
X5374882Y-11491398D01*
X5374882Y-11491398D02*
X5384405Y-11500922D01*
X5384405Y-11500922D02*
X5403453Y-11510445D01*
X5403453Y-11510445D02*
X5441548Y-11510445D01*
X5441548Y-11510445D02*
X5460596Y-11500922D01*
X5460596Y-11500922D02*
X5470120Y-11491398D01*
X5470120Y-11491398D02*
X5479644Y-11472350D01*
X5479644Y-11472350D02*
X5479644Y-11424731D01*
X5479644Y-11424731D02*
X5470120Y-11405683D01*
X5470120Y-11405683D02*
X5460596Y-11396160D01*
X5460596Y-11396160D02*
X5441548Y-11386636D01*
X5441548Y-11386636D02*
X5403453Y-11386636D01*
X5403453Y-11386636D02*
X5384405Y-11396160D01*
X5384405Y-11396160D02*
X5374882Y-11405683D01*
X5374882Y-11405683D02*
X5365358Y-11424731D01*
X5574882Y-11510445D02*
X5612977Y-11510445D01*
X5612977Y-11510445D02*
X5632024Y-11500922D01*
X5632024Y-11500922D02*
X5641548Y-11491398D01*
X5641548Y-11491398D02*
X5660596Y-11462826D01*
X5660596Y-11462826D02*
X5670120Y-11424731D01*
X5670120Y-11424731D02*
X5670120Y-11348541D01*
X5670120Y-11348541D02*
X5660596Y-11329493D01*
X5660596Y-11329493D02*
X5651072Y-11319969D01*
X5651072Y-11319969D02*
X5632024Y-11310445D01*
X5632024Y-11310445D02*
X5593929Y-11310445D01*
X5593929Y-11310445D02*
X5574882Y-11319969D01*
X5574882Y-11319969D02*
X5565358Y-11329493D01*
X5565358Y-11329493D02*
X5555834Y-11348541D01*
X5555834Y-11348541D02*
X5555834Y-11396160D01*
X5555834Y-11396160D02*
X5565358Y-11415207D01*
X5565358Y-11415207D02*
X5574882Y-11424731D01*
X5574882Y-11424731D02*
X5593929Y-11434255D01*
X5593929Y-11434255D02*
X5632024Y-11434255D01*
X5632024Y-11434255D02*
X5651072Y-11424731D01*
X5651072Y-11424731D02*
X5660596Y-11415207D01*
X5660596Y-11415207D02*
X5670120Y-11396160D01*
X5746310Y-11310445D02*
X5746310Y-11348541D01*
X5822501Y-11310445D02*
X5822501Y-11348541D01*
X6085358Y-11586636D02*
X6075834Y-11577112D01*
X6075834Y-11577112D02*
X6056786Y-11548541D01*
X6056786Y-11548541D02*
X6047263Y-11529493D01*
X6047263Y-11529493D02*
X6037739Y-11500922D01*
X6037739Y-11500922D02*
X6028215Y-11453303D01*
X6028215Y-11453303D02*
X6028215Y-11415207D01*
X6028215Y-11415207D02*
X6037739Y-11367588D01*
X6037739Y-11367588D02*
X6047263Y-11339017D01*
X6047263Y-11339017D02*
X6056786Y-11319969D01*
X6056786Y-11319969D02*
X6075834Y-11291398D01*
X6075834Y-11291398D02*
X6085358Y-11281874D01*
X6266310Y-11510445D02*
X6152024Y-11510445D01*
X6209167Y-11510445D02*
X6209167Y-11310445D01*
X6209167Y-11310445D02*
X6190120Y-11339017D01*
X6190120Y-11339017D02*
X6171072Y-11358064D01*
X6171072Y-11358064D02*
X6152024Y-11367588D01*
X6437739Y-11310445D02*
X6399643Y-11310445D01*
X6399643Y-11310445D02*
X6380596Y-11319969D01*
X6380596Y-11319969D02*
X6371072Y-11329493D01*
X6371072Y-11329493D02*
X6352024Y-11358064D01*
X6352024Y-11358064D02*
X6342501Y-11396160D01*
X6342501Y-11396160D02*
X6342501Y-11472350D01*
X6342501Y-11472350D02*
X6352024Y-11491398D01*
X6352024Y-11491398D02*
X6361548Y-11500922D01*
X6361548Y-11500922D02*
X6380596Y-11510445D01*
X6380596Y-11510445D02*
X6418691Y-11510445D01*
X6418691Y-11510445D02*
X6437739Y-11500922D01*
X6437739Y-11500922D02*
X6447263Y-11491398D01*
X6447263Y-11491398D02*
X6456786Y-11472350D01*
X6456786Y-11472350D02*
X6456786Y-11424731D01*
X6456786Y-11424731D02*
X6447263Y-11405683D01*
X6447263Y-11405683D02*
X6437739Y-11396160D01*
X6437739Y-11396160D02*
X6418691Y-11386636D01*
X6418691Y-11386636D02*
X6380596Y-11386636D01*
X6380596Y-11386636D02*
X6361548Y-11396160D01*
X6361548Y-11396160D02*
X6352024Y-11405683D01*
X6352024Y-11405683D02*
X6342501Y-11424731D01*
X6662501Y-11510445D02*
X6662501Y-11310445D01*
X6748215Y-11510445D02*
X6748215Y-11405683D01*
X6748215Y-11405683D02*
X6738691Y-11386636D01*
X6738691Y-11386636D02*
X6719644Y-11377112D01*
X6719644Y-11377112D02*
X6691072Y-11377112D01*
X6691072Y-11377112D02*
X6672024Y-11386636D01*
X6672024Y-11386636D02*
X6662501Y-11396160D01*
X6872024Y-11510445D02*
X6852977Y-11500922D01*
X6852977Y-11500922D02*
X6843453Y-11491398D01*
X6843453Y-11491398D02*
X6833929Y-11472350D01*
X6833929Y-11472350D02*
X6833929Y-11415207D01*
X6833929Y-11415207D02*
X6843453Y-11396160D01*
X6843453Y-11396160D02*
X6852977Y-11386636D01*
X6852977Y-11386636D02*
X6872024Y-11377112D01*
X6872024Y-11377112D02*
X6900596Y-11377112D01*
X6900596Y-11377112D02*
X6919644Y-11386636D01*
X6919644Y-11386636D02*
X6929167Y-11396160D01*
X6929167Y-11396160D02*
X6938691Y-11415207D01*
X6938691Y-11415207D02*
X6938691Y-11472350D01*
X6938691Y-11472350D02*
X6929167Y-11491398D01*
X6929167Y-11491398D02*
X6919644Y-11500922D01*
X6919644Y-11500922D02*
X6900596Y-11510445D01*
X6900596Y-11510445D02*
X6872024Y-11510445D01*
X7052977Y-11510445D02*
X7033929Y-11500922D01*
X7033929Y-11500922D02*
X7024405Y-11481874D01*
X7024405Y-11481874D02*
X7024405Y-11310445D01*
X7205358Y-11500922D02*
X7186310Y-11510445D01*
X7186310Y-11510445D02*
X7148215Y-11510445D01*
X7148215Y-11510445D02*
X7129167Y-11500922D01*
X7129167Y-11500922D02*
X7119644Y-11481874D01*
X7119644Y-11481874D02*
X7119644Y-11405683D01*
X7119644Y-11405683D02*
X7129167Y-11386636D01*
X7129167Y-11386636D02*
X7148215Y-11377112D01*
X7148215Y-11377112D02*
X7186310Y-11377112D01*
X7186310Y-11377112D02*
X7205358Y-11386636D01*
X7205358Y-11386636D02*
X7214882Y-11405683D01*
X7214882Y-11405683D02*
X7214882Y-11424731D01*
X7214882Y-11424731D02*
X7119644Y-11443779D01*
X7291072Y-11500922D02*
X7310120Y-11510445D01*
X7310120Y-11510445D02*
X7348215Y-11510445D01*
X7348215Y-11510445D02*
X7367263Y-11500922D01*
X7367263Y-11500922D02*
X7376786Y-11481874D01*
X7376786Y-11481874D02*
X7376786Y-11472350D01*
X7376786Y-11472350D02*
X7367263Y-11453303D01*
X7367263Y-11453303D02*
X7348215Y-11443779D01*
X7348215Y-11443779D02*
X7319644Y-11443779D01*
X7319644Y-11443779D02*
X7300596Y-11434255D01*
X7300596Y-11434255D02*
X7291072Y-11415207D01*
X7291072Y-11415207D02*
X7291072Y-11405683D01*
X7291072Y-11405683D02*
X7300596Y-11386636D01*
X7300596Y-11386636D02*
X7319644Y-11377112D01*
X7319644Y-11377112D02*
X7348215Y-11377112D01*
X7348215Y-11377112D02*
X7367263Y-11386636D01*
X7443453Y-11586636D02*
X7452977Y-11577112D01*
X7452977Y-11577112D02*
X7472025Y-11548541D01*
X7472025Y-11548541D02*
X7481548Y-11529493D01*
X7481548Y-11529493D02*
X7491072Y-11500922D01*
X7491072Y-11500922D02*
X7500596Y-11453303D01*
X7500596Y-11453303D02*
X7500596Y-11415207D01*
X7500596Y-11415207D02*
X7491072Y-11367588D01*
X7491072Y-11367588D02*
X7481548Y-11339017D01*
X7481548Y-11339017D02*
X7472025Y-11319969D01*
X7472025Y-11319969D02*
X7452977Y-11291398D01*
X7452977Y-11291398D02*
X7443453Y-11281874D01*
X7772977Y-11586636D02*
X7763453Y-11577112D01*
X7763453Y-11577112D02*
X7744405Y-11548541D01*
X7744405Y-11548541D02*
X7734882Y-11529493D01*
X7734882Y-11529493D02*
X7725358Y-11500922D01*
X7725358Y-11500922D02*
X7715834Y-11453303D01*
X7715834Y-11453303D02*
X7715834Y-11415207D01*
X7715834Y-11415207D02*
X7725358Y-11367588D01*
X7725358Y-11367588D02*
X7734882Y-11339017D01*
X7734882Y-11339017D02*
X7744405Y-11319969D01*
X7744405Y-11319969D02*
X7763453Y-11291398D01*
X7763453Y-11291398D02*
X7772977Y-11281874D01*
X7849167Y-11377112D02*
X7849167Y-11510445D01*
X7849167Y-11396160D02*
X7858691Y-11386636D01*
X7858691Y-11386636D02*
X7877739Y-11377112D01*
X7877739Y-11377112D02*
X7906310Y-11377112D01*
X7906310Y-11377112D02*
X7925358Y-11386636D01*
X7925358Y-11386636D02*
X7934882Y-11405683D01*
X7934882Y-11405683D02*
X7934882Y-11510445D01*
X8058691Y-11510445D02*
X8039644Y-11500922D01*
X8039644Y-11500922D02*
X8030120Y-11491398D01*
X8030120Y-11491398D02*
X8020596Y-11472350D01*
X8020596Y-11472350D02*
X8020596Y-11415207D01*
X8020596Y-11415207D02*
X8030120Y-11396160D01*
X8030120Y-11396160D02*
X8039644Y-11386636D01*
X8039644Y-11386636D02*
X8058691Y-11377112D01*
X8058691Y-11377112D02*
X8087263Y-11377112D01*
X8087263Y-11377112D02*
X8106310Y-11386636D01*
X8106310Y-11386636D02*
X8115834Y-11396160D01*
X8115834Y-11396160D02*
X8125358Y-11415207D01*
X8125358Y-11415207D02*
X8125358Y-11472350D01*
X8125358Y-11472350D02*
X8115834Y-11491398D01*
X8115834Y-11491398D02*
X8106310Y-11500922D01*
X8106310Y-11500922D02*
X8087263Y-11510445D01*
X8087263Y-11510445D02*
X8058691Y-11510445D01*
X8182501Y-11377112D02*
X8258691Y-11377112D01*
X8211072Y-11310445D02*
X8211072Y-11481874D01*
X8211072Y-11481874D02*
X8220596Y-11500922D01*
X8220596Y-11500922D02*
X8239644Y-11510445D01*
X8239644Y-11510445D02*
X8258691Y-11510445D01*
X8445358Y-11377112D02*
X8445358Y-11577112D01*
X8445358Y-11386636D02*
X8464406Y-11377112D01*
X8464406Y-11377112D02*
X8502501Y-11377112D01*
X8502501Y-11377112D02*
X8521548Y-11386636D01*
X8521548Y-11386636D02*
X8531072Y-11396160D01*
X8531072Y-11396160D02*
X8540596Y-11415207D01*
X8540596Y-11415207D02*
X8540596Y-11472350D01*
X8540596Y-11472350D02*
X8531072Y-11491398D01*
X8531072Y-11491398D02*
X8521548Y-11500922D01*
X8521548Y-11500922D02*
X8502501Y-11510445D01*
X8502501Y-11510445D02*
X8464406Y-11510445D01*
X8464406Y-11510445D02*
X8445358Y-11500922D01*
X8654882Y-11510445D02*
X8635834Y-11500922D01*
X8635834Y-11500922D02*
X8626310Y-11481874D01*
X8626310Y-11481874D02*
X8626310Y-11310445D01*
X8816787Y-11510445D02*
X8816787Y-11405683D01*
X8816787Y-11405683D02*
X8807263Y-11386636D01*
X8807263Y-11386636D02*
X8788215Y-11377112D01*
X8788215Y-11377112D02*
X8750120Y-11377112D01*
X8750120Y-11377112D02*
X8731072Y-11386636D01*
X8816787Y-11500922D02*
X8797739Y-11510445D01*
X8797739Y-11510445D02*
X8750120Y-11510445D01*
X8750120Y-11510445D02*
X8731072Y-11500922D01*
X8731072Y-11500922D02*
X8721548Y-11481874D01*
X8721548Y-11481874D02*
X8721548Y-11462826D01*
X8721548Y-11462826D02*
X8731072Y-11443779D01*
X8731072Y-11443779D02*
X8750120Y-11434255D01*
X8750120Y-11434255D02*
X8797739Y-11434255D01*
X8797739Y-11434255D02*
X8816787Y-11424731D01*
X8883453Y-11377112D02*
X8959644Y-11377112D01*
X8912025Y-11310445D02*
X8912025Y-11481874D01*
X8912025Y-11481874D02*
X8921548Y-11500922D01*
X8921548Y-11500922D02*
X8940596Y-11510445D01*
X8940596Y-11510445D02*
X8959644Y-11510445D01*
X9102501Y-11500922D02*
X9083453Y-11510445D01*
X9083453Y-11510445D02*
X9045358Y-11510445D01*
X9045358Y-11510445D02*
X9026310Y-11500922D01*
X9026310Y-11500922D02*
X9016787Y-11481874D01*
X9016787Y-11481874D02*
X9016787Y-11405683D01*
X9016787Y-11405683D02*
X9026310Y-11386636D01*
X9026310Y-11386636D02*
X9045358Y-11377112D01*
X9045358Y-11377112D02*
X9083453Y-11377112D01*
X9083453Y-11377112D02*
X9102501Y-11386636D01*
X9102501Y-11386636D02*
X9112025Y-11405683D01*
X9112025Y-11405683D02*
X9112025Y-11424731D01*
X9112025Y-11424731D02*
X9016787Y-11443779D01*
X9283453Y-11510445D02*
X9283453Y-11310445D01*
X9283453Y-11500922D02*
X9264406Y-11510445D01*
X9264406Y-11510445D02*
X9226310Y-11510445D01*
X9226310Y-11510445D02*
X9207263Y-11500922D01*
X9207263Y-11500922D02*
X9197739Y-11491398D01*
X9197739Y-11491398D02*
X9188215Y-11472350D01*
X9188215Y-11472350D02*
X9188215Y-11415207D01*
X9188215Y-11415207D02*
X9197739Y-11396160D01*
X9197739Y-11396160D02*
X9207263Y-11386636D01*
X9207263Y-11386636D02*
X9226310Y-11377112D01*
X9226310Y-11377112D02*
X9264406Y-11377112D01*
X9264406Y-11377112D02*
X9283453Y-11386636D01*
X9359644Y-11586636D02*
X9369168Y-11577112D01*
X9369168Y-11577112D02*
X9388215Y-11548541D01*
X9388215Y-11548541D02*
X9397739Y-11529493D01*
X9397739Y-11529493D02*
X9407263Y-11500922D01*
X9407263Y-11500922D02*
X9416787Y-11453303D01*
X9416787Y-11453303D02*
X9416787Y-11415207D01*
X9416787Y-11415207D02*
X9407263Y-11367588D01*
X9407263Y-11367588D02*
X9397739Y-11339017D01*
X9397739Y-11339017D02*
X9388215Y-11319969D01*
X9388215Y-11319969D02*
X9369168Y-11291398D01*
X9369168Y-11291398D02*
X9359644Y-11281874D01*
X2591307Y-11797681D02*
X2591307Y-11656258D01*
X2449884Y-11656258D01*
X2449884Y-11797681D01*
X2591307Y-11797681D01*
X2953929Y-11667112D02*
X2953929Y-11800445D01*
X2906310Y-11590922D02*
X2858691Y-11733779D01*
X2858691Y-11733779D02*
X2982500Y-11733779D01*
X3058691Y-11781398D02*
X3068215Y-11790922D01*
X3068215Y-11790922D02*
X3058691Y-11800445D01*
X3058691Y-11800445D02*
X3049167Y-11790922D01*
X3049167Y-11790922D02*
X3058691Y-11781398D01*
X3058691Y-11781398D02*
X3058691Y-11800445D01*
X3144405Y-11619493D02*
X3153929Y-11609969D01*
X3153929Y-11609969D02*
X3172977Y-11600445D01*
X3172977Y-11600445D02*
X3220596Y-11600445D01*
X3220596Y-11600445D02*
X3239643Y-11609969D01*
X3239643Y-11609969D02*
X3249167Y-11619493D01*
X3249167Y-11619493D02*
X3258691Y-11638541D01*
X3258691Y-11638541D02*
X3258691Y-11657588D01*
X3258691Y-11657588D02*
X3249167Y-11686160D01*
X3249167Y-11686160D02*
X3134881Y-11800445D01*
X3134881Y-11800445D02*
X3258691Y-11800445D01*
X3382500Y-11600445D02*
X3401548Y-11600445D01*
X3401548Y-11600445D02*
X3420596Y-11609969D01*
X3420596Y-11609969D02*
X3430120Y-11619493D01*
X3430120Y-11619493D02*
X3439643Y-11638541D01*
X3439643Y-11638541D02*
X3449167Y-11676636D01*
X3449167Y-11676636D02*
X3449167Y-11724255D01*
X3449167Y-11724255D02*
X3439643Y-11762350D01*
X3439643Y-11762350D02*
X3430120Y-11781398D01*
X3430120Y-11781398D02*
X3420596Y-11790922D01*
X3420596Y-11790922D02*
X3401548Y-11800445D01*
X3401548Y-11800445D02*
X3382500Y-11800445D01*
X3382500Y-11800445D02*
X3363453Y-11790922D01*
X3363453Y-11790922D02*
X3353929Y-11781398D01*
X3353929Y-11781398D02*
X3344405Y-11762350D01*
X3344405Y-11762350D02*
X3334881Y-11724255D01*
X3334881Y-11724255D02*
X3334881Y-11676636D01*
X3334881Y-11676636D02*
X3344405Y-11638541D01*
X3344405Y-11638541D02*
X3353929Y-11619493D01*
X3353929Y-11619493D02*
X3363453Y-11609969D01*
X3363453Y-11609969D02*
X3382500Y-11600445D01*
X3572977Y-11600445D02*
X3592024Y-11600445D01*
X3592024Y-11600445D02*
X3611072Y-11609969D01*
X3611072Y-11609969D02*
X3620596Y-11619493D01*
X3620596Y-11619493D02*
X3630120Y-11638541D01*
X3630120Y-11638541D02*
X3639643Y-11676636D01*
X3639643Y-11676636D02*
X3639643Y-11724255D01*
X3639643Y-11724255D02*
X3630120Y-11762350D01*
X3630120Y-11762350D02*
X3620596Y-11781398D01*
X3620596Y-11781398D02*
X3611072Y-11790922D01*
X3611072Y-11790922D02*
X3592024Y-11800445D01*
X3592024Y-11800445D02*
X3572977Y-11800445D01*
X3572977Y-11800445D02*
X3553929Y-11790922D01*
X3553929Y-11790922D02*
X3544405Y-11781398D01*
X3544405Y-11781398D02*
X3534881Y-11762350D01*
X3534881Y-11762350D02*
X3525358Y-11724255D01*
X3525358Y-11724255D02*
X3525358Y-11676636D01*
X3525358Y-11676636D02*
X3534881Y-11638541D01*
X3534881Y-11638541D02*
X3544405Y-11619493D01*
X3544405Y-11619493D02*
X3553929Y-11609969D01*
X3553929Y-11609969D02*
X3572977Y-11600445D01*
X3725358Y-11800445D02*
X3725358Y-11667112D01*
X3725358Y-11686160D02*
X3734881Y-11676636D01*
X3734881Y-11676636D02*
X3753929Y-11667112D01*
X3753929Y-11667112D02*
X3782501Y-11667112D01*
X3782501Y-11667112D02*
X3801548Y-11676636D01*
X3801548Y-11676636D02*
X3811072Y-11695683D01*
X3811072Y-11695683D02*
X3811072Y-11800445D01*
X3811072Y-11695683D02*
X3820596Y-11676636D01*
X3820596Y-11676636D02*
X3839643Y-11667112D01*
X3839643Y-11667112D02*
X3868215Y-11667112D01*
X3868215Y-11667112D02*
X3887262Y-11676636D01*
X3887262Y-11676636D02*
X3896786Y-11695683D01*
X3896786Y-11695683D02*
X3896786Y-11800445D01*
X3992024Y-11800445D02*
X3992024Y-11667112D01*
X3992024Y-11686160D02*
X4001548Y-11676636D01*
X4001548Y-11676636D02*
X4020596Y-11667112D01*
X4020596Y-11667112D02*
X4049167Y-11667112D01*
X4049167Y-11667112D02*
X4068215Y-11676636D01*
X4068215Y-11676636D02*
X4077739Y-11695683D01*
X4077739Y-11695683D02*
X4077739Y-11800445D01*
X4077739Y-11695683D02*
X4087262Y-11676636D01*
X4087262Y-11676636D02*
X4106310Y-11667112D01*
X4106310Y-11667112D02*
X4134881Y-11667112D01*
X4134881Y-11667112D02*
X4153929Y-11676636D01*
X4153929Y-11676636D02*
X4163453Y-11695683D01*
X4163453Y-11695683D02*
X4163453Y-11800445D01*
X4521548Y-11590922D02*
X4350120Y-11848064D01*
X4746310Y-11600445D02*
X4765358Y-11600445D01*
X4765358Y-11600445D02*
X4784405Y-11609969D01*
X4784405Y-11609969D02*
X4793929Y-11619493D01*
X4793929Y-11619493D02*
X4803453Y-11638541D01*
X4803453Y-11638541D02*
X4812977Y-11676636D01*
X4812977Y-11676636D02*
X4812977Y-11724255D01*
X4812977Y-11724255D02*
X4803453Y-11762350D01*
X4803453Y-11762350D02*
X4793929Y-11781398D01*
X4793929Y-11781398D02*
X4784405Y-11790922D01*
X4784405Y-11790922D02*
X4765358Y-11800445D01*
X4765358Y-11800445D02*
X4746310Y-11800445D01*
X4746310Y-11800445D02*
X4727263Y-11790922D01*
X4727263Y-11790922D02*
X4717739Y-11781398D01*
X4717739Y-11781398D02*
X4708215Y-11762350D01*
X4708215Y-11762350D02*
X4698691Y-11724255D01*
X4698691Y-11724255D02*
X4698691Y-11676636D01*
X4698691Y-11676636D02*
X4708215Y-11638541D01*
X4708215Y-11638541D02*
X4717739Y-11619493D01*
X4717739Y-11619493D02*
X4727263Y-11609969D01*
X4727263Y-11609969D02*
X4746310Y-11600445D01*
X4898691Y-11781398D02*
X4908215Y-11790922D01*
X4908215Y-11790922D02*
X4898691Y-11800445D01*
X4898691Y-11800445D02*
X4889167Y-11790922D01*
X4889167Y-11790922D02*
X4898691Y-11781398D01*
X4898691Y-11781398D02*
X4898691Y-11800445D01*
X5098691Y-11800445D02*
X4984405Y-11800445D01*
X5041548Y-11800445D02*
X5041548Y-11600445D01*
X5041548Y-11600445D02*
X5022501Y-11629017D01*
X5022501Y-11629017D02*
X5003453Y-11648064D01*
X5003453Y-11648064D02*
X4984405Y-11657588D01*
X5270120Y-11600445D02*
X5232024Y-11600445D01*
X5232024Y-11600445D02*
X5212977Y-11609969D01*
X5212977Y-11609969D02*
X5203453Y-11619493D01*
X5203453Y-11619493D02*
X5184405Y-11648064D01*
X5184405Y-11648064D02*
X5174882Y-11686160D01*
X5174882Y-11686160D02*
X5174882Y-11762350D01*
X5174882Y-11762350D02*
X5184405Y-11781398D01*
X5184405Y-11781398D02*
X5193929Y-11790922D01*
X5193929Y-11790922D02*
X5212977Y-11800445D01*
X5212977Y-11800445D02*
X5251072Y-11800445D01*
X5251072Y-11800445D02*
X5270120Y-11790922D01*
X5270120Y-11790922D02*
X5279644Y-11781398D01*
X5279644Y-11781398D02*
X5289167Y-11762350D01*
X5289167Y-11762350D02*
X5289167Y-11714731D01*
X5289167Y-11714731D02*
X5279644Y-11695683D01*
X5279644Y-11695683D02*
X5270120Y-11686160D01*
X5270120Y-11686160D02*
X5251072Y-11676636D01*
X5251072Y-11676636D02*
X5212977Y-11676636D01*
X5212977Y-11676636D02*
X5193929Y-11686160D01*
X5193929Y-11686160D02*
X5184405Y-11695683D01*
X5184405Y-11695683D02*
X5174882Y-11714731D01*
X5470120Y-11600445D02*
X5374882Y-11600445D01*
X5374882Y-11600445D02*
X5365358Y-11695683D01*
X5365358Y-11695683D02*
X5374882Y-11686160D01*
X5374882Y-11686160D02*
X5393929Y-11676636D01*
X5393929Y-11676636D02*
X5441548Y-11676636D01*
X5441548Y-11676636D02*
X5460596Y-11686160D01*
X5460596Y-11686160D02*
X5470120Y-11695683D01*
X5470120Y-11695683D02*
X5479644Y-11714731D01*
X5479644Y-11714731D02*
X5479644Y-11762350D01*
X5479644Y-11762350D02*
X5470120Y-11781398D01*
X5470120Y-11781398D02*
X5460596Y-11790922D01*
X5460596Y-11790922D02*
X5441548Y-11800445D01*
X5441548Y-11800445D02*
X5393929Y-11800445D01*
X5393929Y-11800445D02*
X5374882Y-11790922D01*
X5374882Y-11790922D02*
X5365358Y-11781398D01*
X5651072Y-11667112D02*
X5651072Y-11800445D01*
X5603453Y-11590922D02*
X5555834Y-11733779D01*
X5555834Y-11733779D02*
X5679643Y-11733779D01*
X5746310Y-11600445D02*
X5746310Y-11638541D01*
X5822501Y-11600445D02*
X5822501Y-11638541D01*
X6085358Y-11876636D02*
X6075834Y-11867112D01*
X6075834Y-11867112D02*
X6056786Y-11838541D01*
X6056786Y-11838541D02*
X6047263Y-11819493D01*
X6047263Y-11819493D02*
X6037739Y-11790922D01*
X6037739Y-11790922D02*
X6028215Y-11743303D01*
X6028215Y-11743303D02*
X6028215Y-11705207D01*
X6028215Y-11705207D02*
X6037739Y-11657588D01*
X6037739Y-11657588D02*
X6047263Y-11629017D01*
X6047263Y-11629017D02*
X6056786Y-11609969D01*
X6056786Y-11609969D02*
X6075834Y-11581398D01*
X6075834Y-11581398D02*
X6085358Y-11571874D01*
X6199643Y-11600445D02*
X6218691Y-11600445D01*
X6218691Y-11600445D02*
X6237739Y-11609969D01*
X6237739Y-11609969D02*
X6247263Y-11619493D01*
X6247263Y-11619493D02*
X6256786Y-11638541D01*
X6256786Y-11638541D02*
X6266310Y-11676636D01*
X6266310Y-11676636D02*
X6266310Y-11724255D01*
X6266310Y-11724255D02*
X6256786Y-11762350D01*
X6256786Y-11762350D02*
X6247263Y-11781398D01*
X6247263Y-11781398D02*
X6237739Y-11790922D01*
X6237739Y-11790922D02*
X6218691Y-11800445D01*
X6218691Y-11800445D02*
X6199643Y-11800445D01*
X6199643Y-11800445D02*
X6180596Y-11790922D01*
X6180596Y-11790922D02*
X6171072Y-11781398D01*
X6171072Y-11781398D02*
X6161548Y-11762350D01*
X6161548Y-11762350D02*
X6152024Y-11724255D01*
X6152024Y-11724255D02*
X6152024Y-11676636D01*
X6152024Y-11676636D02*
X6161548Y-11638541D01*
X6161548Y-11638541D02*
X6171072Y-11619493D01*
X6171072Y-11619493D02*
X6180596Y-11609969D01*
X6180596Y-11609969D02*
X6199643Y-11600445D01*
X6472024Y-11800445D02*
X6472024Y-11600445D01*
X6557739Y-11800445D02*
X6557739Y-11695683D01*
X6557739Y-11695683D02*
X6548215Y-11676636D01*
X6548215Y-11676636D02*
X6529167Y-11667112D01*
X6529167Y-11667112D02*
X6500596Y-11667112D01*
X6500596Y-11667112D02*
X6481548Y-11676636D01*
X6481548Y-11676636D02*
X6472024Y-11686160D01*
X6681548Y-11800445D02*
X6662501Y-11790922D01*
X6662501Y-11790922D02*
X6652977Y-11781398D01*
X6652977Y-11781398D02*
X6643453Y-11762350D01*
X6643453Y-11762350D02*
X6643453Y-11705207D01*
X6643453Y-11705207D02*
X6652977Y-11686160D01*
X6652977Y-11686160D02*
X6662501Y-11676636D01*
X6662501Y-11676636D02*
X6681548Y-11667112D01*
X6681548Y-11667112D02*
X6710120Y-11667112D01*
X6710120Y-11667112D02*
X6729167Y-11676636D01*
X6729167Y-11676636D02*
X6738691Y-11686160D01*
X6738691Y-11686160D02*
X6748215Y-11705207D01*
X6748215Y-11705207D02*
X6748215Y-11762350D01*
X6748215Y-11762350D02*
X6738691Y-11781398D01*
X6738691Y-11781398D02*
X6729167Y-11790922D01*
X6729167Y-11790922D02*
X6710120Y-11800445D01*
X6710120Y-11800445D02*
X6681548Y-11800445D01*
X6862501Y-11800445D02*
X6843453Y-11790922D01*
X6843453Y-11790922D02*
X6833929Y-11771874D01*
X6833929Y-11771874D02*
X6833929Y-11600445D01*
X7014882Y-11790922D02*
X6995834Y-11800445D01*
X6995834Y-11800445D02*
X6957739Y-11800445D01*
X6957739Y-11800445D02*
X6938691Y-11790922D01*
X6938691Y-11790922D02*
X6929167Y-11771874D01*
X6929167Y-11771874D02*
X6929167Y-11695683D01*
X6929167Y-11695683D02*
X6938691Y-11676636D01*
X6938691Y-11676636D02*
X6957739Y-11667112D01*
X6957739Y-11667112D02*
X6995834Y-11667112D01*
X6995834Y-11667112D02*
X7014882Y-11676636D01*
X7014882Y-11676636D02*
X7024405Y-11695683D01*
X7024405Y-11695683D02*
X7024405Y-11714731D01*
X7024405Y-11714731D02*
X6929167Y-11733779D01*
X7100596Y-11790922D02*
X7119644Y-11800445D01*
X7119644Y-11800445D02*
X7157739Y-11800445D01*
X7157739Y-11800445D02*
X7176786Y-11790922D01*
X7176786Y-11790922D02*
X7186310Y-11771874D01*
X7186310Y-11771874D02*
X7186310Y-11762350D01*
X7186310Y-11762350D02*
X7176786Y-11743303D01*
X7176786Y-11743303D02*
X7157739Y-11733779D01*
X7157739Y-11733779D02*
X7129167Y-11733779D01*
X7129167Y-11733779D02*
X7110120Y-11724255D01*
X7110120Y-11724255D02*
X7100596Y-11705207D01*
X7100596Y-11705207D02*
X7100596Y-11695683D01*
X7100596Y-11695683D02*
X7110120Y-11676636D01*
X7110120Y-11676636D02*
X7129167Y-11667112D01*
X7129167Y-11667112D02*
X7157739Y-11667112D01*
X7157739Y-11667112D02*
X7176786Y-11676636D01*
X7392025Y-11724255D02*
X7544406Y-11724255D01*
X7468215Y-11800445D02*
X7468215Y-11648064D01*
X7845358Y-11667112D02*
X7845358Y-11800445D01*
X7797739Y-11590922D02*
X7750120Y-11733779D01*
X7750120Y-11733779D02*
X7873929Y-11733779D01*
X8060596Y-11790922D02*
X8079644Y-11800445D01*
X8079644Y-11800445D02*
X8117739Y-11800445D01*
X8117739Y-11800445D02*
X8136786Y-11790922D01*
X8136786Y-11790922D02*
X8146310Y-11771874D01*
X8146310Y-11771874D02*
X8146310Y-11762350D01*
X8146310Y-11762350D02*
X8136786Y-11743303D01*
X8136786Y-11743303D02*
X8117739Y-11733779D01*
X8117739Y-11733779D02*
X8089167Y-11733779D01*
X8089167Y-11733779D02*
X8070120Y-11724255D01*
X8070120Y-11724255D02*
X8060596Y-11705207D01*
X8060596Y-11705207D02*
X8060596Y-11695683D01*
X8060596Y-11695683D02*
X8070120Y-11676636D01*
X8070120Y-11676636D02*
X8089167Y-11667112D01*
X8089167Y-11667112D02*
X8117739Y-11667112D01*
X8117739Y-11667112D02*
X8136786Y-11676636D01*
X8260596Y-11800445D02*
X8241548Y-11790922D01*
X8241548Y-11790922D02*
X8232025Y-11771874D01*
X8232025Y-11771874D02*
X8232025Y-11600445D01*
X8365358Y-11800445D02*
X8346310Y-11790922D01*
X8346310Y-11790922D02*
X8336786Y-11781398D01*
X8336786Y-11781398D02*
X8327263Y-11762350D01*
X8327263Y-11762350D02*
X8327263Y-11705207D01*
X8327263Y-11705207D02*
X8336786Y-11686160D01*
X8336786Y-11686160D02*
X8346310Y-11676636D01*
X8346310Y-11676636D02*
X8365358Y-11667112D01*
X8365358Y-11667112D02*
X8393929Y-11667112D01*
X8393929Y-11667112D02*
X8412977Y-11676636D01*
X8412977Y-11676636D02*
X8422501Y-11686160D01*
X8422501Y-11686160D02*
X8432025Y-11705207D01*
X8432025Y-11705207D02*
X8432025Y-11762350D01*
X8432025Y-11762350D02*
X8422501Y-11781398D01*
X8422501Y-11781398D02*
X8412977Y-11790922D01*
X8412977Y-11790922D02*
X8393929Y-11800445D01*
X8393929Y-11800445D02*
X8365358Y-11800445D01*
X8489168Y-11667112D02*
X8565358Y-11667112D01*
X8517739Y-11600445D02*
X8517739Y-11771874D01*
X8517739Y-11771874D02*
X8527263Y-11790922D01*
X8527263Y-11790922D02*
X8546310Y-11800445D01*
X8546310Y-11800445D02*
X8565358Y-11800445D01*
X8622501Y-11790922D02*
X8641548Y-11800445D01*
X8641548Y-11800445D02*
X8679644Y-11800445D01*
X8679644Y-11800445D02*
X8698691Y-11790922D01*
X8698691Y-11790922D02*
X8708215Y-11771874D01*
X8708215Y-11771874D02*
X8708215Y-11762350D01*
X8708215Y-11762350D02*
X8698691Y-11743303D01*
X8698691Y-11743303D02*
X8679644Y-11733779D01*
X8679644Y-11733779D02*
X8651072Y-11733779D01*
X8651072Y-11733779D02*
X8632025Y-11724255D01*
X8632025Y-11724255D02*
X8622501Y-11705207D01*
X8622501Y-11705207D02*
X8622501Y-11695683D01*
X8622501Y-11695683D02*
X8632025Y-11676636D01*
X8632025Y-11676636D02*
X8651072Y-11667112D01*
X8651072Y-11667112D02*
X8679644Y-11667112D01*
X8679644Y-11667112D02*
X8698691Y-11676636D01*
X8774882Y-11876636D02*
X8784406Y-11867112D01*
X8784406Y-11867112D02*
X8803453Y-11838541D01*
X8803453Y-11838541D02*
X8812977Y-11819493D01*
X8812977Y-11819493D02*
X8822501Y-11790922D01*
X8822501Y-11790922D02*
X8832025Y-11743303D01*
X8832025Y-11743303D02*
X8832025Y-11705207D01*
X8832025Y-11705207D02*
X8822501Y-11657588D01*
X8822501Y-11657588D02*
X8812977Y-11629017D01*
X8812977Y-11629017D02*
X8803453Y-11609969D01*
X8803453Y-11609969D02*
X8784406Y-11581398D01*
X8784406Y-11581398D02*
X8774882Y-11571874D01*
X9104406Y-11876636D02*
X9094882Y-11867112D01*
X9094882Y-11867112D02*
X9075834Y-11838541D01*
X9075834Y-11838541D02*
X9066310Y-11819493D01*
X9066310Y-11819493D02*
X9056787Y-11790922D01*
X9056787Y-11790922D02*
X9047263Y-11743303D01*
X9047263Y-11743303D02*
X9047263Y-11705207D01*
X9047263Y-11705207D02*
X9056787Y-11657588D01*
X9056787Y-11657588D02*
X9066310Y-11629017D01*
X9066310Y-11629017D02*
X9075834Y-11609969D01*
X9075834Y-11609969D02*
X9094882Y-11581398D01*
X9094882Y-11581398D02*
X9104406Y-11571874D01*
X9180596Y-11667112D02*
X9180596Y-11800445D01*
X9180596Y-11686160D02*
X9190120Y-11676636D01*
X9190120Y-11676636D02*
X9209167Y-11667112D01*
X9209167Y-11667112D02*
X9237739Y-11667112D01*
X9237739Y-11667112D02*
X9256787Y-11676636D01*
X9256787Y-11676636D02*
X9266310Y-11695683D01*
X9266310Y-11695683D02*
X9266310Y-11800445D01*
X9390120Y-11800445D02*
X9371072Y-11790922D01*
X9371072Y-11790922D02*
X9361548Y-11781398D01*
X9361548Y-11781398D02*
X9352025Y-11762350D01*
X9352025Y-11762350D02*
X9352025Y-11705207D01*
X9352025Y-11705207D02*
X9361548Y-11686160D01*
X9361548Y-11686160D02*
X9371072Y-11676636D01*
X9371072Y-11676636D02*
X9390120Y-11667112D01*
X9390120Y-11667112D02*
X9418691Y-11667112D01*
X9418691Y-11667112D02*
X9437739Y-11676636D01*
X9437739Y-11676636D02*
X9447263Y-11686160D01*
X9447263Y-11686160D02*
X9456787Y-11705207D01*
X9456787Y-11705207D02*
X9456787Y-11762350D01*
X9456787Y-11762350D02*
X9447263Y-11781398D01*
X9447263Y-11781398D02*
X9437739Y-11790922D01*
X9437739Y-11790922D02*
X9418691Y-11800445D01*
X9418691Y-11800445D02*
X9390120Y-11800445D01*
X9513929Y-11667112D02*
X9590120Y-11667112D01*
X9542501Y-11600445D02*
X9542501Y-11771874D01*
X9542501Y-11771874D02*
X9552025Y-11790922D01*
X9552025Y-11790922D02*
X9571072Y-11800445D01*
X9571072Y-11800445D02*
X9590120Y-11800445D01*
X9776787Y-11667112D02*
X9776787Y-11867112D01*
X9776787Y-11676636D02*
X9795834Y-11667112D01*
X9795834Y-11667112D02*
X9833929Y-11667112D01*
X9833929Y-11667112D02*
X9852977Y-11676636D01*
X9852977Y-11676636D02*
X9862501Y-11686160D01*
X9862501Y-11686160D02*
X9872025Y-11705207D01*
X9872025Y-11705207D02*
X9872025Y-11762350D01*
X9872025Y-11762350D02*
X9862501Y-11781398D01*
X9862501Y-11781398D02*
X9852977Y-11790922D01*
X9852977Y-11790922D02*
X9833929Y-11800445D01*
X9833929Y-11800445D02*
X9795834Y-11800445D01*
X9795834Y-11800445D02*
X9776787Y-11790922D01*
X9986310Y-11800445D02*
X9967263Y-11790922D01*
X9967263Y-11790922D02*
X9957739Y-11771874D01*
X9957739Y-11771874D02*
X9957739Y-11600445D01*
X10148215Y-11800445D02*
X10148215Y-11695683D01*
X10148215Y-11695683D02*
X10138691Y-11676636D01*
X10138691Y-11676636D02*
X10119644Y-11667112D01*
X10119644Y-11667112D02*
X10081548Y-11667112D01*
X10081548Y-11667112D02*
X10062501Y-11676636D01*
X10148215Y-11790922D02*
X10129168Y-11800445D01*
X10129168Y-11800445D02*
X10081548Y-11800445D01*
X10081548Y-11800445D02*
X10062501Y-11790922D01*
X10062501Y-11790922D02*
X10052977Y-11771874D01*
X10052977Y-11771874D02*
X10052977Y-11752826D01*
X10052977Y-11752826D02*
X10062501Y-11733779D01*
X10062501Y-11733779D02*
X10081548Y-11724255D01*
X10081548Y-11724255D02*
X10129168Y-11724255D01*
X10129168Y-11724255D02*
X10148215Y-11714731D01*
X10214882Y-11667112D02*
X10291072Y-11667112D01*
X10243453Y-11600445D02*
X10243453Y-11771874D01*
X10243453Y-11771874D02*
X10252977Y-11790922D01*
X10252977Y-11790922D02*
X10272025Y-11800445D01*
X10272025Y-11800445D02*
X10291072Y-11800445D01*
X10433929Y-11790922D02*
X10414882Y-11800445D01*
X10414882Y-11800445D02*
X10376787Y-11800445D01*
X10376787Y-11800445D02*
X10357739Y-11790922D01*
X10357739Y-11790922D02*
X10348215Y-11771874D01*
X10348215Y-11771874D02*
X10348215Y-11695683D01*
X10348215Y-11695683D02*
X10357739Y-11676636D01*
X10357739Y-11676636D02*
X10376787Y-11667112D01*
X10376787Y-11667112D02*
X10414882Y-11667112D01*
X10414882Y-11667112D02*
X10433929Y-11676636D01*
X10433929Y-11676636D02*
X10443453Y-11695683D01*
X10443453Y-11695683D02*
X10443453Y-11714731D01*
X10443453Y-11714731D02*
X10348215Y-11733779D01*
X10614882Y-11800445D02*
X10614882Y-11600445D01*
X10614882Y-11790922D02*
X10595834Y-11800445D01*
X10595834Y-11800445D02*
X10557739Y-11800445D01*
X10557739Y-11800445D02*
X10538691Y-11790922D01*
X10538691Y-11790922D02*
X10529168Y-11781398D01*
X10529168Y-11781398D02*
X10519644Y-11762350D01*
X10519644Y-11762350D02*
X10519644Y-11705207D01*
X10519644Y-11705207D02*
X10529168Y-11686160D01*
X10529168Y-11686160D02*
X10538691Y-11676636D01*
X10538691Y-11676636D02*
X10557739Y-11667112D01*
X10557739Y-11667112D02*
X10595834Y-11667112D01*
X10595834Y-11667112D02*
X10614882Y-11676636D01*
X10691072Y-11876636D02*
X10700596Y-11867112D01*
X10700596Y-11867112D02*
X10719644Y-11838541D01*
X10719644Y-11838541D02*
X10729168Y-11819493D01*
X10729168Y-11819493D02*
X10738691Y-11790922D01*
X10738691Y-11790922D02*
X10748215Y-11743303D01*
X10748215Y-11743303D02*
X10748215Y-11705207D01*
X10748215Y-11705207D02*
X10738691Y-11657588D01*
X10738691Y-11657588D02*
X10729168Y-11629017D01*
X10729168Y-11629017D02*
X10719644Y-11609969D01*
X10719644Y-11609969D02*
X10700596Y-11581398D01*
X10700596Y-11581398D02*
X10691072Y-11571874D01*
X2520596Y-12146969D02*
X2620596Y-12046969D01*
X2520596Y-11946969D01*
X2420596Y-12046969D01*
X2520596Y-12146969D01*
X2953929Y-11987112D02*
X2953929Y-12120445D01*
X2906310Y-11910922D02*
X2858691Y-12053779D01*
X2858691Y-12053779D02*
X2982500Y-12053779D01*
X3058691Y-12101398D02*
X3068215Y-12110922D01*
X3068215Y-12110922D02*
X3058691Y-12120445D01*
X3058691Y-12120445D02*
X3049167Y-12110922D01*
X3049167Y-12110922D02*
X3058691Y-12101398D01*
X3058691Y-12101398D02*
X3058691Y-12120445D01*
X3163453Y-12120445D02*
X3201548Y-12120445D01*
X3201548Y-12120445D02*
X3220596Y-12110922D01*
X3220596Y-12110922D02*
X3230120Y-12101398D01*
X3230120Y-12101398D02*
X3249167Y-12072826D01*
X3249167Y-12072826D02*
X3258691Y-12034731D01*
X3258691Y-12034731D02*
X3258691Y-11958541D01*
X3258691Y-11958541D02*
X3249167Y-11939493D01*
X3249167Y-11939493D02*
X3239643Y-11929969D01*
X3239643Y-11929969D02*
X3220596Y-11920445D01*
X3220596Y-11920445D02*
X3182500Y-11920445D01*
X3182500Y-11920445D02*
X3163453Y-11929969D01*
X3163453Y-11929969D02*
X3153929Y-11939493D01*
X3153929Y-11939493D02*
X3144405Y-11958541D01*
X3144405Y-11958541D02*
X3144405Y-12006160D01*
X3144405Y-12006160D02*
X3153929Y-12025207D01*
X3153929Y-12025207D02*
X3163453Y-12034731D01*
X3163453Y-12034731D02*
X3182500Y-12044255D01*
X3182500Y-12044255D02*
X3220596Y-12044255D01*
X3220596Y-12044255D02*
X3239643Y-12034731D01*
X3239643Y-12034731D02*
X3249167Y-12025207D01*
X3249167Y-12025207D02*
X3258691Y-12006160D01*
X3382500Y-11920445D02*
X3401548Y-11920445D01*
X3401548Y-11920445D02*
X3420596Y-11929969D01*
X3420596Y-11929969D02*
X3430120Y-11939493D01*
X3430120Y-11939493D02*
X3439643Y-11958541D01*
X3439643Y-11958541D02*
X3449167Y-11996636D01*
X3449167Y-11996636D02*
X3449167Y-12044255D01*
X3449167Y-12044255D02*
X3439643Y-12082350D01*
X3439643Y-12082350D02*
X3430120Y-12101398D01*
X3430120Y-12101398D02*
X3420596Y-12110922D01*
X3420596Y-12110922D02*
X3401548Y-12120445D01*
X3401548Y-12120445D02*
X3382500Y-12120445D01*
X3382500Y-12120445D02*
X3363453Y-12110922D01*
X3363453Y-12110922D02*
X3353929Y-12101398D01*
X3353929Y-12101398D02*
X3344405Y-12082350D01*
X3344405Y-12082350D02*
X3334881Y-12044255D01*
X3334881Y-12044255D02*
X3334881Y-11996636D01*
X3334881Y-11996636D02*
X3344405Y-11958541D01*
X3344405Y-11958541D02*
X3353929Y-11939493D01*
X3353929Y-11939493D02*
X3363453Y-11929969D01*
X3363453Y-11929969D02*
X3382500Y-11920445D01*
X3572977Y-11920445D02*
X3592024Y-11920445D01*
X3592024Y-11920445D02*
X3611072Y-11929969D01*
X3611072Y-11929969D02*
X3620596Y-11939493D01*
X3620596Y-11939493D02*
X3630120Y-11958541D01*
X3630120Y-11958541D02*
X3639643Y-11996636D01*
X3639643Y-11996636D02*
X3639643Y-12044255D01*
X3639643Y-12044255D02*
X3630120Y-12082350D01*
X3630120Y-12082350D02*
X3620596Y-12101398D01*
X3620596Y-12101398D02*
X3611072Y-12110922D01*
X3611072Y-12110922D02*
X3592024Y-12120445D01*
X3592024Y-12120445D02*
X3572977Y-12120445D01*
X3572977Y-12120445D02*
X3553929Y-12110922D01*
X3553929Y-12110922D02*
X3544405Y-12101398D01*
X3544405Y-12101398D02*
X3534881Y-12082350D01*
X3534881Y-12082350D02*
X3525358Y-12044255D01*
X3525358Y-12044255D02*
X3525358Y-11996636D01*
X3525358Y-11996636D02*
X3534881Y-11958541D01*
X3534881Y-11958541D02*
X3544405Y-11939493D01*
X3544405Y-11939493D02*
X3553929Y-11929969D01*
X3553929Y-11929969D02*
X3572977Y-11920445D01*
X3725358Y-12120445D02*
X3725358Y-11987112D01*
X3725358Y-12006160D02*
X3734881Y-11996636D01*
X3734881Y-11996636D02*
X3753929Y-11987112D01*
X3753929Y-11987112D02*
X3782501Y-11987112D01*
X3782501Y-11987112D02*
X3801548Y-11996636D01*
X3801548Y-11996636D02*
X3811072Y-12015683D01*
X3811072Y-12015683D02*
X3811072Y-12120445D01*
X3811072Y-12015683D02*
X3820596Y-11996636D01*
X3820596Y-11996636D02*
X3839643Y-11987112D01*
X3839643Y-11987112D02*
X3868215Y-11987112D01*
X3868215Y-11987112D02*
X3887262Y-11996636D01*
X3887262Y-11996636D02*
X3896786Y-12015683D01*
X3896786Y-12015683D02*
X3896786Y-12120445D01*
X3992024Y-12120445D02*
X3992024Y-11987112D01*
X3992024Y-12006160D02*
X4001548Y-11996636D01*
X4001548Y-11996636D02*
X4020596Y-11987112D01*
X4020596Y-11987112D02*
X4049167Y-11987112D01*
X4049167Y-11987112D02*
X4068215Y-11996636D01*
X4068215Y-11996636D02*
X4077739Y-12015683D01*
X4077739Y-12015683D02*
X4077739Y-12120445D01*
X4077739Y-12015683D02*
X4087262Y-11996636D01*
X4087262Y-11996636D02*
X4106310Y-11987112D01*
X4106310Y-11987112D02*
X4134881Y-11987112D01*
X4134881Y-11987112D02*
X4153929Y-11996636D01*
X4153929Y-11996636D02*
X4163453Y-12015683D01*
X4163453Y-12015683D02*
X4163453Y-12120445D01*
X4521548Y-11910922D02*
X4350120Y-12168064D01*
X4746310Y-11920445D02*
X4765358Y-11920445D01*
X4765358Y-11920445D02*
X4784405Y-11929969D01*
X4784405Y-11929969D02*
X4793929Y-11939493D01*
X4793929Y-11939493D02*
X4803453Y-11958541D01*
X4803453Y-11958541D02*
X4812977Y-11996636D01*
X4812977Y-11996636D02*
X4812977Y-12044255D01*
X4812977Y-12044255D02*
X4803453Y-12082350D01*
X4803453Y-12082350D02*
X4793929Y-12101398D01*
X4793929Y-12101398D02*
X4784405Y-12110922D01*
X4784405Y-12110922D02*
X4765358Y-12120445D01*
X4765358Y-12120445D02*
X4746310Y-12120445D01*
X4746310Y-12120445D02*
X4727263Y-12110922D01*
X4727263Y-12110922D02*
X4717739Y-12101398D01*
X4717739Y-12101398D02*
X4708215Y-12082350D01*
X4708215Y-12082350D02*
X4698691Y-12044255D01*
X4698691Y-12044255D02*
X4698691Y-11996636D01*
X4698691Y-11996636D02*
X4708215Y-11958541D01*
X4708215Y-11958541D02*
X4717739Y-11939493D01*
X4717739Y-11939493D02*
X4727263Y-11929969D01*
X4727263Y-11929969D02*
X4746310Y-11920445D01*
X4898691Y-12101398D02*
X4908215Y-12110922D01*
X4908215Y-12110922D02*
X4898691Y-12120445D01*
X4898691Y-12120445D02*
X4889167Y-12110922D01*
X4889167Y-12110922D02*
X4898691Y-12101398D01*
X4898691Y-12101398D02*
X4898691Y-12120445D01*
X5098691Y-12120445D02*
X4984405Y-12120445D01*
X5041548Y-12120445D02*
X5041548Y-11920445D01*
X5041548Y-11920445D02*
X5022501Y-11949017D01*
X5022501Y-11949017D02*
X5003453Y-11968064D01*
X5003453Y-11968064D02*
X4984405Y-11977588D01*
X5193929Y-12120445D02*
X5232024Y-12120445D01*
X5232024Y-12120445D02*
X5251072Y-12110922D01*
X5251072Y-12110922D02*
X5260596Y-12101398D01*
X5260596Y-12101398D02*
X5279644Y-12072826D01*
X5279644Y-12072826D02*
X5289167Y-12034731D01*
X5289167Y-12034731D02*
X5289167Y-11958541D01*
X5289167Y-11958541D02*
X5279644Y-11939493D01*
X5279644Y-11939493D02*
X5270120Y-11929969D01*
X5270120Y-11929969D02*
X5251072Y-11920445D01*
X5251072Y-11920445D02*
X5212977Y-11920445D01*
X5212977Y-11920445D02*
X5193929Y-11929969D01*
X5193929Y-11929969D02*
X5184405Y-11939493D01*
X5184405Y-11939493D02*
X5174882Y-11958541D01*
X5174882Y-11958541D02*
X5174882Y-12006160D01*
X5174882Y-12006160D02*
X5184405Y-12025207D01*
X5184405Y-12025207D02*
X5193929Y-12034731D01*
X5193929Y-12034731D02*
X5212977Y-12044255D01*
X5212977Y-12044255D02*
X5251072Y-12044255D01*
X5251072Y-12044255D02*
X5270120Y-12034731D01*
X5270120Y-12034731D02*
X5279644Y-12025207D01*
X5279644Y-12025207D02*
X5289167Y-12006160D01*
X5365358Y-11939493D02*
X5374882Y-11929969D01*
X5374882Y-11929969D02*
X5393929Y-11920445D01*
X5393929Y-11920445D02*
X5441548Y-11920445D01*
X5441548Y-11920445D02*
X5460596Y-11929969D01*
X5460596Y-11929969D02*
X5470120Y-11939493D01*
X5470120Y-11939493D02*
X5479644Y-11958541D01*
X5479644Y-11958541D02*
X5479644Y-11977588D01*
X5479644Y-11977588D02*
X5470120Y-12006160D01*
X5470120Y-12006160D02*
X5355834Y-12120445D01*
X5355834Y-12120445D02*
X5479644Y-12120445D01*
X5574882Y-12120445D02*
X5612977Y-12120445D01*
X5612977Y-12120445D02*
X5632024Y-12110922D01*
X5632024Y-12110922D02*
X5641548Y-12101398D01*
X5641548Y-12101398D02*
X5660596Y-12072826D01*
X5660596Y-12072826D02*
X5670120Y-12034731D01*
X5670120Y-12034731D02*
X5670120Y-11958541D01*
X5670120Y-11958541D02*
X5660596Y-11939493D01*
X5660596Y-11939493D02*
X5651072Y-11929969D01*
X5651072Y-11929969D02*
X5632024Y-11920445D01*
X5632024Y-11920445D02*
X5593929Y-11920445D01*
X5593929Y-11920445D02*
X5574882Y-11929969D01*
X5574882Y-11929969D02*
X5565358Y-11939493D01*
X5565358Y-11939493D02*
X5555834Y-11958541D01*
X5555834Y-11958541D02*
X5555834Y-12006160D01*
X5555834Y-12006160D02*
X5565358Y-12025207D01*
X5565358Y-12025207D02*
X5574882Y-12034731D01*
X5574882Y-12034731D02*
X5593929Y-12044255D01*
X5593929Y-12044255D02*
X5632024Y-12044255D01*
X5632024Y-12044255D02*
X5651072Y-12034731D01*
X5651072Y-12034731D02*
X5660596Y-12025207D01*
X5660596Y-12025207D02*
X5670120Y-12006160D01*
X5746310Y-11920445D02*
X5746310Y-11958541D01*
X5822501Y-11920445D02*
X5822501Y-11958541D01*
X6085358Y-12196636D02*
X6075834Y-12187112D01*
X6075834Y-12187112D02*
X6056786Y-12158541D01*
X6056786Y-12158541D02*
X6047263Y-12139493D01*
X6047263Y-12139493D02*
X6037739Y-12110922D01*
X6037739Y-12110922D02*
X6028215Y-12063303D01*
X6028215Y-12063303D02*
X6028215Y-12025207D01*
X6028215Y-12025207D02*
X6037739Y-11977588D01*
X6037739Y-11977588D02*
X6047263Y-11949017D01*
X6047263Y-11949017D02*
X6056786Y-11929969D01*
X6056786Y-11929969D02*
X6075834Y-11901398D01*
X6075834Y-11901398D02*
X6085358Y-11891874D01*
X6190120Y-12006160D02*
X6171072Y-11996636D01*
X6171072Y-11996636D02*
X6161548Y-11987112D01*
X6161548Y-11987112D02*
X6152024Y-11968064D01*
X6152024Y-11968064D02*
X6152024Y-11958541D01*
X6152024Y-11958541D02*
X6161548Y-11939493D01*
X6161548Y-11939493D02*
X6171072Y-11929969D01*
X6171072Y-11929969D02*
X6190120Y-11920445D01*
X6190120Y-11920445D02*
X6228215Y-11920445D01*
X6228215Y-11920445D02*
X6247263Y-11929969D01*
X6247263Y-11929969D02*
X6256786Y-11939493D01*
X6256786Y-11939493D02*
X6266310Y-11958541D01*
X6266310Y-11958541D02*
X6266310Y-11968064D01*
X6266310Y-11968064D02*
X6256786Y-11987112D01*
X6256786Y-11987112D02*
X6247263Y-11996636D01*
X6247263Y-11996636D02*
X6228215Y-12006160D01*
X6228215Y-12006160D02*
X6190120Y-12006160D01*
X6190120Y-12006160D02*
X6171072Y-12015683D01*
X6171072Y-12015683D02*
X6161548Y-12025207D01*
X6161548Y-12025207D02*
X6152024Y-12044255D01*
X6152024Y-12044255D02*
X6152024Y-12082350D01*
X6152024Y-12082350D02*
X6161548Y-12101398D01*
X6161548Y-12101398D02*
X6171072Y-12110922D01*
X6171072Y-12110922D02*
X6190120Y-12120445D01*
X6190120Y-12120445D02*
X6228215Y-12120445D01*
X6228215Y-12120445D02*
X6247263Y-12110922D01*
X6247263Y-12110922D02*
X6256786Y-12101398D01*
X6256786Y-12101398D02*
X6266310Y-12082350D01*
X6266310Y-12082350D02*
X6266310Y-12044255D01*
X6266310Y-12044255D02*
X6256786Y-12025207D01*
X6256786Y-12025207D02*
X6247263Y-12015683D01*
X6247263Y-12015683D02*
X6228215Y-12006160D01*
X6472024Y-12120445D02*
X6472024Y-11920445D01*
X6557739Y-12120445D02*
X6557739Y-12015683D01*
X6557739Y-12015683D02*
X6548215Y-11996636D01*
X6548215Y-11996636D02*
X6529167Y-11987112D01*
X6529167Y-11987112D02*
X6500596Y-11987112D01*
X6500596Y-11987112D02*
X6481548Y-11996636D01*
X6481548Y-11996636D02*
X6472024Y-12006160D01*
X6681548Y-12120445D02*
X6662501Y-12110922D01*
X6662501Y-12110922D02*
X6652977Y-12101398D01*
X6652977Y-12101398D02*
X6643453Y-12082350D01*
X6643453Y-12082350D02*
X6643453Y-12025207D01*
X6643453Y-12025207D02*
X6652977Y-12006160D01*
X6652977Y-12006160D02*
X6662501Y-11996636D01*
X6662501Y-11996636D02*
X6681548Y-11987112D01*
X6681548Y-11987112D02*
X6710120Y-11987112D01*
X6710120Y-11987112D02*
X6729167Y-11996636D01*
X6729167Y-11996636D02*
X6738691Y-12006160D01*
X6738691Y-12006160D02*
X6748215Y-12025207D01*
X6748215Y-12025207D02*
X6748215Y-12082350D01*
X6748215Y-12082350D02*
X6738691Y-12101398D01*
X6738691Y-12101398D02*
X6729167Y-12110922D01*
X6729167Y-12110922D02*
X6710120Y-12120445D01*
X6710120Y-12120445D02*
X6681548Y-12120445D01*
X6862501Y-12120445D02*
X6843453Y-12110922D01*
X6843453Y-12110922D02*
X6833929Y-12091874D01*
X6833929Y-12091874D02*
X6833929Y-11920445D01*
X7014882Y-12110922D02*
X6995834Y-12120445D01*
X6995834Y-12120445D02*
X6957739Y-12120445D01*
X6957739Y-12120445D02*
X6938691Y-12110922D01*
X6938691Y-12110922D02*
X6929167Y-12091874D01*
X6929167Y-12091874D02*
X6929167Y-12015683D01*
X6929167Y-12015683D02*
X6938691Y-11996636D01*
X6938691Y-11996636D02*
X6957739Y-11987112D01*
X6957739Y-11987112D02*
X6995834Y-11987112D01*
X6995834Y-11987112D02*
X7014882Y-11996636D01*
X7014882Y-11996636D02*
X7024405Y-12015683D01*
X7024405Y-12015683D02*
X7024405Y-12034731D01*
X7024405Y-12034731D02*
X6929167Y-12053779D01*
X7100596Y-12110922D02*
X7119644Y-12120445D01*
X7119644Y-12120445D02*
X7157739Y-12120445D01*
X7157739Y-12120445D02*
X7176786Y-12110922D01*
X7176786Y-12110922D02*
X7186310Y-12091874D01*
X7186310Y-12091874D02*
X7186310Y-12082350D01*
X7186310Y-12082350D02*
X7176786Y-12063303D01*
X7176786Y-12063303D02*
X7157739Y-12053779D01*
X7157739Y-12053779D02*
X7129167Y-12053779D01*
X7129167Y-12053779D02*
X7110120Y-12044255D01*
X7110120Y-12044255D02*
X7100596Y-12025207D01*
X7100596Y-12025207D02*
X7100596Y-12015683D01*
X7100596Y-12015683D02*
X7110120Y-11996636D01*
X7110120Y-11996636D02*
X7129167Y-11987112D01*
X7129167Y-11987112D02*
X7157739Y-11987112D01*
X7157739Y-11987112D02*
X7176786Y-11996636D01*
X7252977Y-12196636D02*
X7262501Y-12187112D01*
X7262501Y-12187112D02*
X7281548Y-12158541D01*
X7281548Y-12158541D02*
X7291072Y-12139493D01*
X7291072Y-12139493D02*
X7300596Y-12110922D01*
X7300596Y-12110922D02*
X7310120Y-12063303D01*
X7310120Y-12063303D02*
X7310120Y-12025207D01*
X7310120Y-12025207D02*
X7300596Y-11977588D01*
X7300596Y-11977588D02*
X7291072Y-11949017D01*
X7291072Y-11949017D02*
X7281548Y-11929969D01*
X7281548Y-11929969D02*
X7262501Y-11901398D01*
X7262501Y-11901398D02*
X7252977Y-11891874D01*
X7582501Y-12196636D02*
X7572977Y-12187112D01*
X7572977Y-12187112D02*
X7553929Y-12158541D01*
X7553929Y-12158541D02*
X7544405Y-12139493D01*
X7544405Y-12139493D02*
X7534882Y-12110922D01*
X7534882Y-12110922D02*
X7525358Y-12063303D01*
X7525358Y-12063303D02*
X7525358Y-12025207D01*
X7525358Y-12025207D02*
X7534882Y-11977588D01*
X7534882Y-11977588D02*
X7544405Y-11949017D01*
X7544405Y-11949017D02*
X7553929Y-11929969D01*
X7553929Y-11929969D02*
X7572977Y-11901398D01*
X7572977Y-11901398D02*
X7582501Y-11891874D01*
X7658691Y-11987112D02*
X7658691Y-12120445D01*
X7658691Y-12006160D02*
X7668215Y-11996636D01*
X7668215Y-11996636D02*
X7687263Y-11987112D01*
X7687263Y-11987112D02*
X7715834Y-11987112D01*
X7715834Y-11987112D02*
X7734882Y-11996636D01*
X7734882Y-11996636D02*
X7744405Y-12015683D01*
X7744405Y-12015683D02*
X7744405Y-12120445D01*
X7868215Y-12120445D02*
X7849167Y-12110922D01*
X7849167Y-12110922D02*
X7839644Y-12101398D01*
X7839644Y-12101398D02*
X7830120Y-12082350D01*
X7830120Y-12082350D02*
X7830120Y-12025207D01*
X7830120Y-12025207D02*
X7839644Y-12006160D01*
X7839644Y-12006160D02*
X7849167Y-11996636D01*
X7849167Y-11996636D02*
X7868215Y-11987112D01*
X7868215Y-11987112D02*
X7896786Y-11987112D01*
X7896786Y-11987112D02*
X7915834Y-11996636D01*
X7915834Y-11996636D02*
X7925358Y-12006160D01*
X7925358Y-12006160D02*
X7934882Y-12025207D01*
X7934882Y-12025207D02*
X7934882Y-12082350D01*
X7934882Y-12082350D02*
X7925358Y-12101398D01*
X7925358Y-12101398D02*
X7915834Y-12110922D01*
X7915834Y-12110922D02*
X7896786Y-12120445D01*
X7896786Y-12120445D02*
X7868215Y-12120445D01*
X7992025Y-11987112D02*
X8068215Y-11987112D01*
X8020596Y-11920445D02*
X8020596Y-12091874D01*
X8020596Y-12091874D02*
X8030120Y-12110922D01*
X8030120Y-12110922D02*
X8049167Y-12120445D01*
X8049167Y-12120445D02*
X8068215Y-12120445D01*
X8254882Y-11987112D02*
X8254882Y-12187112D01*
X8254882Y-11996636D02*
X8273929Y-11987112D01*
X8273929Y-11987112D02*
X8312025Y-11987112D01*
X8312025Y-11987112D02*
X8331072Y-11996636D01*
X8331072Y-11996636D02*
X8340596Y-12006160D01*
X8340596Y-12006160D02*
X8350120Y-12025207D01*
X8350120Y-12025207D02*
X8350120Y-12082350D01*
X8350120Y-12082350D02*
X8340596Y-12101398D01*
X8340596Y-12101398D02*
X8331072Y-12110922D01*
X8331072Y-12110922D02*
X8312025Y-12120445D01*
X8312025Y-12120445D02*
X8273929Y-12120445D01*
X8273929Y-12120445D02*
X8254882Y-12110922D01*
X8464406Y-12120445D02*
X8445358Y-12110922D01*
X8445358Y-12110922D02*
X8435834Y-12091874D01*
X8435834Y-12091874D02*
X8435834Y-11920445D01*
X8626310Y-12120445D02*
X8626310Y-12015683D01*
X8626310Y-12015683D02*
X8616787Y-11996636D01*
X8616787Y-11996636D02*
X8597739Y-11987112D01*
X8597739Y-11987112D02*
X8559644Y-11987112D01*
X8559644Y-11987112D02*
X8540596Y-11996636D01*
X8626310Y-12110922D02*
X8607263Y-12120445D01*
X8607263Y-12120445D02*
X8559644Y-12120445D01*
X8559644Y-12120445D02*
X8540596Y-12110922D01*
X8540596Y-12110922D02*
X8531072Y-12091874D01*
X8531072Y-12091874D02*
X8531072Y-12072826D01*
X8531072Y-12072826D02*
X8540596Y-12053779D01*
X8540596Y-12053779D02*
X8559644Y-12044255D01*
X8559644Y-12044255D02*
X8607263Y-12044255D01*
X8607263Y-12044255D02*
X8626310Y-12034731D01*
X8692977Y-11987112D02*
X8769167Y-11987112D01*
X8721548Y-11920445D02*
X8721548Y-12091874D01*
X8721548Y-12091874D02*
X8731072Y-12110922D01*
X8731072Y-12110922D02*
X8750120Y-12120445D01*
X8750120Y-12120445D02*
X8769167Y-12120445D01*
X8912025Y-12110922D02*
X8892977Y-12120445D01*
X8892977Y-12120445D02*
X8854882Y-12120445D01*
X8854882Y-12120445D02*
X8835834Y-12110922D01*
X8835834Y-12110922D02*
X8826310Y-12091874D01*
X8826310Y-12091874D02*
X8826310Y-12015683D01*
X8826310Y-12015683D02*
X8835834Y-11996636D01*
X8835834Y-11996636D02*
X8854882Y-11987112D01*
X8854882Y-11987112D02*
X8892977Y-11987112D01*
X8892977Y-11987112D02*
X8912025Y-11996636D01*
X8912025Y-11996636D02*
X8921548Y-12015683D01*
X8921548Y-12015683D02*
X8921548Y-12034731D01*
X8921548Y-12034731D02*
X8826310Y-12053779D01*
X9092977Y-12120445D02*
X9092977Y-11920445D01*
X9092977Y-12110922D02*
X9073929Y-12120445D01*
X9073929Y-12120445D02*
X9035834Y-12120445D01*
X9035834Y-12120445D02*
X9016787Y-12110922D01*
X9016787Y-12110922D02*
X9007263Y-12101398D01*
X9007263Y-12101398D02*
X8997739Y-12082350D01*
X8997739Y-12082350D02*
X8997739Y-12025207D01*
X8997739Y-12025207D02*
X9007263Y-12006160D01*
X9007263Y-12006160D02*
X9016787Y-11996636D01*
X9016787Y-11996636D02*
X9035834Y-11987112D01*
X9035834Y-11987112D02*
X9073929Y-11987112D01*
X9073929Y-11987112D02*
X9092977Y-11996636D01*
X9169168Y-12196636D02*
X9178691Y-12187112D01*
X9178691Y-12187112D02*
X9197739Y-12158541D01*
X9197739Y-12158541D02*
X9207263Y-12139493D01*
X9207263Y-12139493D02*
X9216787Y-12110922D01*
X9216787Y-12110922D02*
X9226310Y-12063303D01*
X9226310Y-12063303D02*
X9226310Y-12025207D01*
X9226310Y-12025207D02*
X9216787Y-11977588D01*
X9216787Y-11977588D02*
X9207263Y-11949017D01*
X9207263Y-11949017D02*
X9197739Y-11929969D01*
X9197739Y-11929969D02*
X9178691Y-11901398D01*
X9178691Y-11901398D02*
X9169168Y-11891874D01*
M02*
