%TF.GenerationSoftware,KiCad,Pcbnew,(7.0.0-0)*%
%TF.CreationDate,2023-03-19T19:43:54+09:00*%
%TF.ProjectId,pangaea-pcb-pinkey-k2-0.5ushift,70616e67-6165-4612-9d70-63622d70696e,rev?*%
%TF.SameCoordinates,Original*%
%TF.FileFunction,Legend,Bot*%
%TF.FilePolarity,Positive*%
%FSLAX46Y46*%
G04 Gerber Fmt 4.6, Leading zero omitted, Abs format (unit mm)*
G04 Created by KiCad (PCBNEW (7.0.0-0)) date 2023-03-19 19:43:54*
%MOMM*%
%LPD*%
G01*
G04 APERTURE LIST*
%ADD10C,0.162500*%
%ADD11C,0.150000*%
%ADD12C,0.300000*%
%ADD13C,0.120000*%
%ADD14C,0.200000*%
G04 APERTURE END LIST*
D10*
X48723186Y-92061770D02*
X48846996Y-91999865D01*
X48846996Y-91999865D02*
X48908901Y-91876055D01*
X48908901Y-91876055D02*
X48908901Y-90761770D01*
X47732711Y-91999865D02*
X47856520Y-92061770D01*
X47856520Y-92061770D02*
X48104139Y-92061770D01*
X48104139Y-92061770D02*
X48227949Y-91999865D01*
X48227949Y-91999865D02*
X48289853Y-91876055D01*
X48289853Y-91876055D02*
X48289853Y-91380817D01*
X48289853Y-91380817D02*
X48227949Y-91257008D01*
X48227949Y-91257008D02*
X48104139Y-91195103D01*
X48104139Y-91195103D02*
X47856520Y-91195103D01*
X47856520Y-91195103D02*
X47732711Y-91257008D01*
X47732711Y-91257008D02*
X47670806Y-91380817D01*
X47670806Y-91380817D02*
X47670806Y-91504627D01*
X47670806Y-91504627D02*
X48289853Y-91628436D01*
X47299377Y-91195103D02*
X46804139Y-91195103D01*
X47113663Y-92061770D02*
X47113663Y-90947484D01*
X47113663Y-90947484D02*
X47051758Y-90823675D01*
X47051758Y-90823675D02*
X46927948Y-90761770D01*
X46927948Y-90761770D02*
X46804139Y-90761770D01*
X46556520Y-91195103D02*
X46061282Y-91195103D01*
X46370806Y-90761770D02*
X46370806Y-91876055D01*
X46370806Y-91876055D02*
X46308901Y-91999865D01*
X46308901Y-91999865D02*
X46185091Y-92061770D01*
X46185091Y-92061770D02*
X46061282Y-92061770D01*
D11*
X63659282Y-58457532D02*
X62459282Y-58457532D01*
X62459282Y-58457532D02*
X63316425Y-58857532D01*
X63316425Y-58857532D02*
X62459282Y-59257532D01*
X62459282Y-59257532D02*
X63659282Y-59257532D01*
X63659282Y-60343247D02*
X63030710Y-60343247D01*
X63030710Y-60343247D02*
X62916425Y-60286104D01*
X62916425Y-60286104D02*
X62859282Y-60171818D01*
X62859282Y-60171818D02*
X62859282Y-59943247D01*
X62859282Y-59943247D02*
X62916425Y-59828961D01*
X63602139Y-60343247D02*
X63659282Y-60228961D01*
X63659282Y-60228961D02*
X63659282Y-59943247D01*
X63659282Y-59943247D02*
X63602139Y-59828961D01*
X63602139Y-59828961D02*
X63487853Y-59771818D01*
X63487853Y-59771818D02*
X63373567Y-59771818D01*
X63373567Y-59771818D02*
X63259282Y-59828961D01*
X63259282Y-59828961D02*
X63202139Y-59943247D01*
X63202139Y-59943247D02*
X63202139Y-60228961D01*
X63202139Y-60228961D02*
X63144996Y-60343247D01*
X63659282Y-60914675D02*
X62859282Y-60914675D01*
X63087853Y-60914675D02*
X62973567Y-60971818D01*
X62973567Y-60971818D02*
X62916425Y-61028961D01*
X62916425Y-61028961D02*
X62859282Y-61143246D01*
X62859282Y-61143246D02*
X62859282Y-61257532D01*
X62459282Y-62263246D02*
X62459282Y-63063246D01*
X62459282Y-63063246D02*
X63659282Y-62548960D01*
X63602139Y-63577532D02*
X63659282Y-63577532D01*
X63659282Y-63577532D02*
X63773567Y-63520389D01*
X63773567Y-63520389D02*
X63830710Y-63463246D01*
X62573567Y-64754675D02*
X62516425Y-64811818D01*
X62516425Y-64811818D02*
X62459282Y-64926104D01*
X62459282Y-64926104D02*
X62459282Y-65211818D01*
X62459282Y-65211818D02*
X62516425Y-65326104D01*
X62516425Y-65326104D02*
X62573567Y-65383246D01*
X62573567Y-65383246D02*
X62687853Y-65440389D01*
X62687853Y-65440389D02*
X62802139Y-65440389D01*
X62802139Y-65440389D02*
X62973567Y-65383246D01*
X62973567Y-65383246D02*
X63659282Y-64697532D01*
X63659282Y-64697532D02*
X63659282Y-65440389D01*
X62459282Y-66183246D02*
X62459282Y-66297532D01*
X62459282Y-66297532D02*
X62516425Y-66411818D01*
X62516425Y-66411818D02*
X62573567Y-66468961D01*
X62573567Y-66468961D02*
X62687853Y-66526103D01*
X62687853Y-66526103D02*
X62916425Y-66583246D01*
X62916425Y-66583246D02*
X63202139Y-66583246D01*
X63202139Y-66583246D02*
X63430710Y-66526103D01*
X63430710Y-66526103D02*
X63544996Y-66468961D01*
X63544996Y-66468961D02*
X63602139Y-66411818D01*
X63602139Y-66411818D02*
X63659282Y-66297532D01*
X63659282Y-66297532D02*
X63659282Y-66183246D01*
X63659282Y-66183246D02*
X63602139Y-66068961D01*
X63602139Y-66068961D02*
X63544996Y-66011818D01*
X63544996Y-66011818D02*
X63430710Y-65954675D01*
X63430710Y-65954675D02*
X63202139Y-65897532D01*
X63202139Y-65897532D02*
X62916425Y-65897532D01*
X62916425Y-65897532D02*
X62687853Y-65954675D01*
X62687853Y-65954675D02*
X62573567Y-66011818D01*
X62573567Y-66011818D02*
X62516425Y-66068961D01*
X62516425Y-66068961D02*
X62459282Y-66183246D01*
X62573567Y-67040389D02*
X62516425Y-67097532D01*
X62516425Y-67097532D02*
X62459282Y-67211818D01*
X62459282Y-67211818D02*
X62459282Y-67497532D01*
X62459282Y-67497532D02*
X62516425Y-67611818D01*
X62516425Y-67611818D02*
X62573567Y-67668960D01*
X62573567Y-67668960D02*
X62687853Y-67726103D01*
X62687853Y-67726103D02*
X62802139Y-67726103D01*
X62802139Y-67726103D02*
X62973567Y-67668960D01*
X62973567Y-67668960D02*
X63659282Y-66983246D01*
X63659282Y-66983246D02*
X63659282Y-67726103D01*
X62459282Y-68126103D02*
X62459282Y-68868960D01*
X62459282Y-68868960D02*
X62916425Y-68468960D01*
X62916425Y-68468960D02*
X62916425Y-68640389D01*
X62916425Y-68640389D02*
X62973567Y-68754675D01*
X62973567Y-68754675D02*
X63030710Y-68811817D01*
X63030710Y-68811817D02*
X63144996Y-68868960D01*
X63144996Y-68868960D02*
X63430710Y-68868960D01*
X63430710Y-68868960D02*
X63544996Y-68811817D01*
X63544996Y-68811817D02*
X63602139Y-68754675D01*
X63602139Y-68754675D02*
X63659282Y-68640389D01*
X63659282Y-68640389D02*
X63659282Y-68297532D01*
X63659282Y-68297532D02*
X63602139Y-68183246D01*
X63602139Y-68183246D02*
X63544996Y-68126103D01*
G36*
X63057785Y-91428960D02*
G01*
X62878111Y-91428960D01*
X62816206Y-91150389D01*
X62995880Y-91150389D01*
X63057785Y-91428960D01*
G37*
G36*
X60202093Y-91279886D02*
G01*
X60232498Y-91310291D01*
X60266757Y-91378807D01*
X60266757Y-91533873D01*
X60232498Y-91602390D01*
X60202091Y-91632797D01*
X60133576Y-91667055D01*
X59978511Y-91667055D01*
X59909993Y-91632796D01*
X59879586Y-91602389D01*
X59845329Y-91533874D01*
X59845329Y-91378809D01*
X59879588Y-91310291D01*
X59909993Y-91279885D01*
X59978509Y-91245627D01*
X60133575Y-91245627D01*
X60202093Y-91279886D01*
G37*
G36*
X60202092Y-90851314D02*
G01*
X60232498Y-90881720D01*
X60266757Y-90950236D01*
X60266757Y-90962445D01*
X60232498Y-91030962D01*
X60202091Y-91061369D01*
X60133576Y-91095627D01*
X59978511Y-91095627D01*
X59909993Y-91061368D01*
X59879586Y-91030961D01*
X59845329Y-90962446D01*
X59845329Y-90950238D01*
X59879588Y-90881720D01*
X59909994Y-90851313D01*
X59978510Y-90817055D01*
X60133575Y-90817055D01*
X60202092Y-90851314D01*
G37*
G36*
X63892354Y-92430032D02*
G01*
X59124497Y-92430032D01*
X59124497Y-91369494D01*
X59692615Y-91369494D01*
X59695329Y-91376038D01*
X59695329Y-91547539D01*
X59693398Y-91565423D01*
X59700254Y-91579136D01*
X59704572Y-91593839D01*
X59709925Y-91598477D01*
X59746660Y-91671946D01*
X59749343Y-91684278D01*
X59763970Y-91698905D01*
X59778032Y-91714023D01*
X59779450Y-91714385D01*
X59805885Y-91740820D01*
X59812329Y-91751670D01*
X59830838Y-91760924D01*
X59848952Y-91770815D01*
X59850410Y-91770710D01*
X59923656Y-91807333D01*
X59938783Y-91817055D01*
X59954113Y-91817055D01*
X59969196Y-91819769D01*
X59975740Y-91817055D01*
X60147241Y-91817055D01*
X60165125Y-91818986D01*
X60178838Y-91812129D01*
X60193541Y-91807812D01*
X60198179Y-91802458D01*
X60271648Y-91765723D01*
X60283980Y-91763041D01*
X60298607Y-91748413D01*
X60313725Y-91734352D01*
X60314087Y-91732933D01*
X60340522Y-91706498D01*
X60351372Y-91700055D01*
X60360626Y-91681545D01*
X60370517Y-91663432D01*
X60370412Y-91661973D01*
X60407035Y-91588727D01*
X60416757Y-91573601D01*
X60416757Y-91558271D01*
X60419471Y-91543188D01*
X60416757Y-91536644D01*
X60416757Y-91365134D01*
X60418687Y-91347259D01*
X60411832Y-91333549D01*
X60408404Y-91321875D01*
X60644996Y-91321875D01*
X60647710Y-91328419D01*
X60647710Y-91547539D01*
X60645779Y-91565423D01*
X60652635Y-91579136D01*
X60656953Y-91593839D01*
X60662306Y-91598477D01*
X60699041Y-91671946D01*
X60701724Y-91684278D01*
X60716351Y-91698905D01*
X60730413Y-91714023D01*
X60731831Y-91714385D01*
X60758266Y-91740820D01*
X60764710Y-91751670D01*
X60783219Y-91760924D01*
X60801333Y-91770815D01*
X60802791Y-91770710D01*
X60876037Y-91807333D01*
X60891164Y-91817055D01*
X60906494Y-91817055D01*
X60921577Y-91819769D01*
X60928121Y-91817055D01*
X61147241Y-91817055D01*
X61165125Y-91818986D01*
X61178838Y-91812129D01*
X61193541Y-91807812D01*
X61198179Y-91802458D01*
X61271648Y-91765723D01*
X61283980Y-91763041D01*
X61293841Y-91753179D01*
X61597721Y-91753179D01*
X61616017Y-91793243D01*
X61653069Y-91817055D01*
X61955445Y-91817055D01*
X61971929Y-91819425D01*
X61977119Y-91817055D01*
X62257301Y-91817055D01*
X62288779Y-91807812D01*
X62317621Y-91774526D01*
X62323889Y-91730931D01*
X62305593Y-91690867D01*
X62268541Y-91667055D01*
X62035805Y-91667055D01*
X62035805Y-90970741D01*
X62091599Y-91026535D01*
X62098043Y-91037385D01*
X62116544Y-91046635D01*
X62134666Y-91056531D01*
X62136126Y-91056426D01*
X62222621Y-91099674D01*
X62254910Y-91105484D01*
X62295593Y-91088611D01*
X62297048Y-91086513D01*
X62454864Y-91086513D01*
X62473160Y-91126577D01*
X62510212Y-91150389D01*
X62662547Y-91150389D01*
X62724452Y-91428960D01*
X62616690Y-91428960D01*
X62585212Y-91438203D01*
X62556370Y-91471489D01*
X62550102Y-91515084D01*
X62568398Y-91555148D01*
X62605450Y-91578960D01*
X62757785Y-91578960D01*
X62842311Y-91959327D01*
X62858162Y-91988050D01*
X62896912Y-92008984D01*
X62940829Y-92005646D01*
X62975970Y-91979095D01*
X62991177Y-91937759D01*
X62911444Y-91578960D01*
X63091118Y-91578960D01*
X63175644Y-91959327D01*
X63191495Y-91988050D01*
X63230245Y-92008984D01*
X63274162Y-92005646D01*
X63309303Y-91979095D01*
X63324510Y-91937759D01*
X63244777Y-91578960D01*
X63352539Y-91578960D01*
X63384017Y-91569717D01*
X63412859Y-91536431D01*
X63419127Y-91492836D01*
X63400831Y-91452772D01*
X63363779Y-91428960D01*
X63211444Y-91428960D01*
X63149539Y-91150389D01*
X63257301Y-91150389D01*
X63288779Y-91141146D01*
X63317621Y-91107860D01*
X63323889Y-91064265D01*
X63305593Y-91024201D01*
X63268541Y-91000389D01*
X63116206Y-91000389D01*
X63031680Y-90620022D01*
X63015829Y-90591299D01*
X62977079Y-90570364D01*
X62933162Y-90573703D01*
X62898021Y-90600254D01*
X62882814Y-90641589D01*
X62962547Y-91000389D01*
X62782873Y-91000389D01*
X62698347Y-90620022D01*
X62682496Y-90591299D01*
X62643746Y-90570364D01*
X62599829Y-90573703D01*
X62564688Y-90600254D01*
X62549481Y-90641589D01*
X62629214Y-91000389D01*
X62521452Y-91000389D01*
X62489974Y-91009632D01*
X62461132Y-91042918D01*
X62454864Y-91086513D01*
X62297048Y-91086513D01*
X62320695Y-91052421D01*
X62322248Y-91008405D01*
X62299757Y-90970536D01*
X62195707Y-90918511D01*
X62114328Y-90837132D01*
X62029546Y-90709960D01*
X62026562Y-90699795D01*
X62017583Y-90692015D01*
X62017228Y-90691482D01*
X62009449Y-90684967D01*
X61993276Y-90670953D01*
X61992601Y-90670855D01*
X61992077Y-90670417D01*
X61970847Y-90667728D01*
X61949681Y-90664685D01*
X61949059Y-90664968D01*
X61948382Y-90664883D01*
X61929091Y-90674087D01*
X61909617Y-90682981D01*
X61909247Y-90683556D01*
X61908632Y-90683850D01*
X61897383Y-90702015D01*
X61885805Y-90720033D01*
X61885805Y-90720716D01*
X61885446Y-90721296D01*
X61885805Y-90742660D01*
X61885805Y-91667055D01*
X61664309Y-91667055D01*
X61632831Y-91676298D01*
X61603989Y-91709584D01*
X61597721Y-91753179D01*
X61293841Y-91753179D01*
X61298607Y-91748413D01*
X61313725Y-91734352D01*
X61314087Y-91732933D01*
X61354795Y-91692226D01*
X61370517Y-91663432D01*
X61367375Y-91619501D01*
X61340981Y-91584243D01*
X61299714Y-91568850D01*
X61256677Y-91578212D01*
X61202091Y-91632797D01*
X61133576Y-91667055D01*
X60930892Y-91667055D01*
X60862374Y-91632796D01*
X60831967Y-91602389D01*
X60797710Y-91533874D01*
X60797710Y-91331190D01*
X60831969Y-91262672D01*
X60862374Y-91232266D01*
X60930890Y-91198008D01*
X61133575Y-91198008D01*
X61202093Y-91232267D01*
X61230351Y-91260525D01*
X61232912Y-91266839D01*
X61245650Y-91275824D01*
X61248729Y-91278903D01*
X61254421Y-91282011D01*
X61268903Y-91292226D01*
X61273492Y-91292424D01*
X61277523Y-91294625D01*
X61295198Y-91293360D01*
X61312905Y-91294125D01*
X61316872Y-91291810D01*
X61321454Y-91291483D01*
X61335639Y-91280863D01*
X61350950Y-91271933D01*
X61353036Y-91267840D01*
X61356712Y-91265089D01*
X61362903Y-91248490D01*
X61370957Y-91232696D01*
X61370499Y-91228125D01*
X61372105Y-91223822D01*
X61368337Y-91206504D01*
X61322055Y-90743681D01*
X61323889Y-90730931D01*
X61315413Y-90712370D01*
X61307745Y-90693462D01*
X61306318Y-90692455D01*
X61305593Y-90690867D01*
X61288417Y-90679828D01*
X61271754Y-90668075D01*
X61270011Y-90667999D01*
X61268541Y-90667055D01*
X61248119Y-90667055D01*
X61227752Y-90666176D01*
X61226245Y-90667055D01*
X60759547Y-90667055D01*
X60728069Y-90676298D01*
X60699227Y-90709584D01*
X60692959Y-90753179D01*
X60711255Y-90793243D01*
X60748307Y-90817055D01*
X61178645Y-90817055D01*
X61203464Y-91065246D01*
X61188432Y-91057731D01*
X61173303Y-91048008D01*
X61157973Y-91048008D01*
X61142890Y-91045294D01*
X61136346Y-91048008D01*
X60917217Y-91048008D01*
X60899342Y-91046078D01*
X60885632Y-91052932D01*
X60870926Y-91057251D01*
X60866286Y-91062605D01*
X60792817Y-91099339D01*
X60780487Y-91102022D01*
X60765867Y-91116641D01*
X60750742Y-91130711D01*
X60750379Y-91132129D01*
X60723944Y-91158564D01*
X60713095Y-91165008D01*
X60703844Y-91183508D01*
X60693949Y-91201631D01*
X60694053Y-91203091D01*
X60657433Y-91276332D01*
X60647710Y-91291462D01*
X60647710Y-91306792D01*
X60644996Y-91321875D01*
X60408404Y-91321875D01*
X60407514Y-91318843D01*
X60402159Y-91314203D01*
X60365425Y-91240734D01*
X60362743Y-91228404D01*
X60348123Y-91213784D01*
X60334054Y-91198659D01*
X60332635Y-91198296D01*
X60306200Y-91171861D01*
X60305458Y-91170612D01*
X60313725Y-91162924D01*
X60314087Y-91161505D01*
X60340522Y-91135070D01*
X60351372Y-91128627D01*
X60360626Y-91110117D01*
X60370517Y-91092004D01*
X60370412Y-91090545D01*
X60407035Y-91017299D01*
X60416757Y-91002173D01*
X60416757Y-90986843D01*
X60419471Y-90971760D01*
X60416757Y-90965216D01*
X60416757Y-90936563D01*
X60418687Y-90918688D01*
X60411832Y-90904978D01*
X60407514Y-90890272D01*
X60402159Y-90885632D01*
X60365425Y-90812163D01*
X60362743Y-90799833D01*
X60348123Y-90785213D01*
X60334054Y-90770088D01*
X60332635Y-90769725D01*
X60306202Y-90743292D01*
X60299758Y-90732442D01*
X60281261Y-90723193D01*
X60263134Y-90713295D01*
X60261673Y-90713399D01*
X60188430Y-90676776D01*
X60173303Y-90667055D01*
X60157974Y-90667055D01*
X60142891Y-90664341D01*
X60136347Y-90667055D01*
X59964845Y-90667055D01*
X59946961Y-90665124D01*
X59933247Y-90671980D01*
X59918545Y-90676298D01*
X59913905Y-90681651D01*
X59840435Y-90718387D01*
X59828106Y-90721070D01*
X59813481Y-90735694D01*
X59798361Y-90749760D01*
X59797998Y-90751177D01*
X59771563Y-90777612D01*
X59760714Y-90784056D01*
X59751463Y-90802556D01*
X59741568Y-90820679D01*
X59741672Y-90822139D01*
X59705052Y-90895380D01*
X59695329Y-90910510D01*
X59695329Y-90925840D01*
X59692615Y-90940923D01*
X59695329Y-90947467D01*
X59695329Y-90976111D01*
X59693398Y-90993995D01*
X59700254Y-91007708D01*
X59704572Y-91022411D01*
X59709925Y-91027049D01*
X59746660Y-91100518D01*
X59749343Y-91112850D01*
X59763970Y-91127477D01*
X59778032Y-91142595D01*
X59779450Y-91142957D01*
X59805885Y-91169392D01*
X59806626Y-91170641D01*
X59798361Y-91178330D01*
X59797998Y-91179748D01*
X59771563Y-91206183D01*
X59760714Y-91212627D01*
X59751463Y-91231127D01*
X59741568Y-91249250D01*
X59741672Y-91250710D01*
X59705052Y-91323951D01*
X59695329Y-91339081D01*
X59695329Y-91354411D01*
X59692615Y-91369494D01*
X59124497Y-91369494D01*
X59124497Y-90319318D01*
X63892354Y-90319318D01*
X63892354Y-92430032D01*
G37*
X63879853Y-87242055D02*
X63879853Y-86575389D01*
X63879853Y-86765865D02*
X63832234Y-86670627D01*
X63832234Y-86670627D02*
X63784615Y-86623008D01*
X63784615Y-86623008D02*
X63689377Y-86575389D01*
X63689377Y-86575389D02*
X63594139Y-86575389D01*
X62879853Y-87194436D02*
X62975091Y-87242055D01*
X62975091Y-87242055D02*
X63165567Y-87242055D01*
X63165567Y-87242055D02*
X63260805Y-87194436D01*
X63260805Y-87194436D02*
X63308424Y-87099198D01*
X63308424Y-87099198D02*
X63308424Y-86718246D01*
X63308424Y-86718246D02*
X63260805Y-86623008D01*
X63260805Y-86623008D02*
X63165567Y-86575389D01*
X63165567Y-86575389D02*
X62975091Y-86575389D01*
X62975091Y-86575389D02*
X62879853Y-86623008D01*
X62879853Y-86623008D02*
X62832234Y-86718246D01*
X62832234Y-86718246D02*
X62832234Y-86813484D01*
X62832234Y-86813484D02*
X63308424Y-86908722D01*
X62498900Y-86575389D02*
X62260805Y-87242055D01*
X62260805Y-87242055D02*
X62022710Y-86575389D01*
X60517948Y-87242055D02*
X61089376Y-87242055D01*
X60803662Y-87242055D02*
X60803662Y-86242055D01*
X60803662Y-86242055D02*
X60898900Y-86384913D01*
X60898900Y-86384913D02*
X60994138Y-86480151D01*
X60994138Y-86480151D02*
X61089376Y-86527770D01*
X60089376Y-87146817D02*
X60041757Y-87194436D01*
X60041757Y-87194436D02*
X60089376Y-87242055D01*
X60089376Y-87242055D02*
X60136995Y-87194436D01*
X60136995Y-87194436D02*
X60089376Y-87146817D01*
X60089376Y-87146817D02*
X60089376Y-87242055D01*
X59660805Y-86337294D02*
X59613186Y-86289675D01*
X59613186Y-86289675D02*
X59517948Y-86242055D01*
X59517948Y-86242055D02*
X59279853Y-86242055D01*
X59279853Y-86242055D02*
X59184615Y-86289675D01*
X59184615Y-86289675D02*
X59136996Y-86337294D01*
X59136996Y-86337294D02*
X59089377Y-86432532D01*
X59089377Y-86432532D02*
X59089377Y-86527770D01*
X59089377Y-86527770D02*
X59136996Y-86670627D01*
X59136996Y-86670627D02*
X59708424Y-87242055D01*
X59708424Y-87242055D02*
X59089377Y-87242055D01*
D12*
X47146996Y-64429246D02*
X47204139Y-64486389D01*
X47204139Y-64486389D02*
X47375567Y-64543532D01*
X47375567Y-64543532D02*
X47489853Y-64543532D01*
X47489853Y-64543532D02*
X47661282Y-64486389D01*
X47661282Y-64486389D02*
X47775567Y-64372103D01*
X47775567Y-64372103D02*
X47832710Y-64257817D01*
X47832710Y-64257817D02*
X47889853Y-64029246D01*
X47889853Y-64029246D02*
X47889853Y-63857817D01*
X47889853Y-63857817D02*
X47832710Y-63629246D01*
X47832710Y-63629246D02*
X47775567Y-63514960D01*
X47775567Y-63514960D02*
X47661282Y-63400675D01*
X47661282Y-63400675D02*
X47489853Y-63343532D01*
X47489853Y-63343532D02*
X47375567Y-63343532D01*
X47375567Y-63343532D02*
X47204139Y-63400675D01*
X47204139Y-63400675D02*
X47146996Y-63457817D01*
X46632710Y-64543532D02*
X46632710Y-63343532D01*
X46118425Y-64543532D02*
X46118425Y-63914960D01*
X46118425Y-63914960D02*
X46175567Y-63800675D01*
X46175567Y-63800675D02*
X46289853Y-63743532D01*
X46289853Y-63743532D02*
X46461282Y-63743532D01*
X46461282Y-63743532D02*
X46575567Y-63800675D01*
X46575567Y-63800675D02*
X46632710Y-63857817D01*
X45089853Y-64486389D02*
X45204139Y-64543532D01*
X45204139Y-64543532D02*
X45432711Y-64543532D01*
X45432711Y-64543532D02*
X45546996Y-64486389D01*
X45546996Y-64486389D02*
X45604139Y-64372103D01*
X45604139Y-64372103D02*
X45604139Y-63914960D01*
X45604139Y-63914960D02*
X45546996Y-63800675D01*
X45546996Y-63800675D02*
X45432711Y-63743532D01*
X45432711Y-63743532D02*
X45204139Y-63743532D01*
X45204139Y-63743532D02*
X45089853Y-63800675D01*
X45089853Y-63800675D02*
X45032711Y-63914960D01*
X45032711Y-63914960D02*
X45032711Y-64029246D01*
X45032711Y-64029246D02*
X45604139Y-64143532D01*
X44518425Y-64543532D02*
X44518425Y-63743532D01*
X44518425Y-63972103D02*
X44461282Y-63857817D01*
X44461282Y-63857817D02*
X44404140Y-63800675D01*
X44404140Y-63800675D02*
X44289854Y-63743532D01*
X44289854Y-63743532D02*
X44175568Y-63743532D01*
X43775568Y-64543532D02*
X43775568Y-63743532D01*
X43775568Y-63972103D02*
X43718425Y-63857817D01*
X43718425Y-63857817D02*
X43661283Y-63800675D01*
X43661283Y-63800675D02*
X43546997Y-63743532D01*
X43546997Y-63743532D02*
X43432711Y-63743532D01*
X43146997Y-63743532D02*
X42861283Y-64543532D01*
X42575568Y-63743532D02*
X42861283Y-64543532D01*
X42861283Y-64543532D02*
X42975568Y-64829246D01*
X42975568Y-64829246D02*
X43032711Y-64886389D01*
X43032711Y-64886389D02*
X43146997Y-64943532D01*
X41398425Y-64543532D02*
X41398425Y-63343532D01*
X41398425Y-63343532D02*
X40998425Y-64200675D01*
X40998425Y-64200675D02*
X40598425Y-63343532D01*
X40598425Y-63343532D02*
X40598425Y-64543532D01*
X40141282Y-63343532D02*
X39341282Y-64543532D01*
X39341282Y-63343532D02*
X40141282Y-64543532D01*
X44936996Y-81809246D02*
X44994139Y-81866389D01*
X44994139Y-81866389D02*
X45165567Y-81923532D01*
X45165567Y-81923532D02*
X45279853Y-81923532D01*
X45279853Y-81923532D02*
X45451282Y-81866389D01*
X45451282Y-81866389D02*
X45565567Y-81752103D01*
X45565567Y-81752103D02*
X45622710Y-81637817D01*
X45622710Y-81637817D02*
X45679853Y-81409246D01*
X45679853Y-81409246D02*
X45679853Y-81237817D01*
X45679853Y-81237817D02*
X45622710Y-81009246D01*
X45622710Y-81009246D02*
X45565567Y-80894960D01*
X45565567Y-80894960D02*
X45451282Y-80780675D01*
X45451282Y-80780675D02*
X45279853Y-80723532D01*
X45279853Y-80723532D02*
X45165567Y-80723532D01*
X45165567Y-80723532D02*
X44994139Y-80780675D01*
X44994139Y-80780675D02*
X44936996Y-80837817D01*
X44422710Y-81923532D02*
X44422710Y-80723532D01*
X43908425Y-81923532D02*
X43908425Y-81294960D01*
X43908425Y-81294960D02*
X43965567Y-81180675D01*
X43965567Y-81180675D02*
X44079853Y-81123532D01*
X44079853Y-81123532D02*
X44251282Y-81123532D01*
X44251282Y-81123532D02*
X44365567Y-81180675D01*
X44365567Y-81180675D02*
X44422710Y-81237817D01*
X43165568Y-81923532D02*
X43279853Y-81866389D01*
X43279853Y-81866389D02*
X43336996Y-81809246D01*
X43336996Y-81809246D02*
X43394139Y-81694960D01*
X43394139Y-81694960D02*
X43394139Y-81352103D01*
X43394139Y-81352103D02*
X43336996Y-81237817D01*
X43336996Y-81237817D02*
X43279853Y-81180675D01*
X43279853Y-81180675D02*
X43165568Y-81123532D01*
X43165568Y-81123532D02*
X42994139Y-81123532D01*
X42994139Y-81123532D02*
X42879853Y-81180675D01*
X42879853Y-81180675D02*
X42822711Y-81237817D01*
X42822711Y-81237817D02*
X42765568Y-81352103D01*
X42765568Y-81352103D02*
X42765568Y-81694960D01*
X42765568Y-81694960D02*
X42822711Y-81809246D01*
X42822711Y-81809246D02*
X42879853Y-81866389D01*
X42879853Y-81866389D02*
X42994139Y-81923532D01*
X42994139Y-81923532D02*
X43165568Y-81923532D01*
X41736997Y-81866389D02*
X41851282Y-81923532D01*
X41851282Y-81923532D02*
X42079854Y-81923532D01*
X42079854Y-81923532D02*
X42194139Y-81866389D01*
X42194139Y-81866389D02*
X42251282Y-81809246D01*
X42251282Y-81809246D02*
X42308425Y-81694960D01*
X42308425Y-81694960D02*
X42308425Y-81352103D01*
X42308425Y-81352103D02*
X42251282Y-81237817D01*
X42251282Y-81237817D02*
X42194139Y-81180675D01*
X42194139Y-81180675D02*
X42079854Y-81123532D01*
X42079854Y-81123532D02*
X41851282Y-81123532D01*
X41851282Y-81123532D02*
X41736997Y-81180675D01*
D11*
X26717811Y-43836917D02*
X56880387Y-43836917D01*
D13*
%TO.C,J8*%
X40488425Y-76404675D02*
X41538425Y-76404675D01*
X40488425Y-77554675D02*
X40488425Y-76404675D01*
X41538425Y-76404675D02*
X41538425Y-75414675D01*
X41658425Y-80214675D02*
X45538425Y-80214675D01*
X46708425Y-76404675D02*
X45658425Y-76404675D01*
X46708425Y-77554675D02*
X46708425Y-76404675D01*
%TO.C,J9*%
X40348425Y-57774675D02*
X41398425Y-57774675D01*
X40348425Y-58924675D02*
X40348425Y-57774675D01*
X41398425Y-57774675D02*
X41398425Y-56784675D01*
X41518425Y-61584675D02*
X45398425Y-61584675D01*
X46568425Y-57774675D02*
X45518425Y-57774675D01*
X46568425Y-58924675D02*
X46568425Y-57774675D01*
D11*
%TO.C,SW14*%
X47608425Y-28174675D02*
X47608425Y-32774675D01*
X48808425Y-21924675D02*
X48808425Y-25869675D01*
X48808425Y-25878675D02*
X52418425Y-25878675D01*
X51408425Y-32799675D02*
X47633425Y-32799675D01*
X52333425Y-28149675D02*
X47608425Y-28149675D01*
X52628425Y-34074675D02*
X53508425Y-34974675D01*
X56308425Y-34974675D02*
X53508425Y-34974675D01*
X57183425Y-30349675D02*
X54633425Y-30349675D01*
X57208425Y-30374675D02*
X57208425Y-34074675D01*
X57208425Y-34074675D02*
X56308425Y-34974675D01*
X59708425Y-19970675D02*
X51083425Y-19970675D01*
X59708425Y-23974675D02*
X54308425Y-23974675D01*
X59708425Y-23974675D02*
X59708425Y-19970675D01*
X51083425Y-19970675D02*
G75*
G03*
X48808425Y-21924675I-102171J-2182411D01*
G01*
X52628425Y-34074675D02*
G75*
G03*
X51408425Y-32799675I-1275736J482D01*
G01*
X54308425Y-23974675D02*
G75*
G03*
X52418425Y-25878675I-61523J-1828981D01*
G01*
X52333426Y-28149675D02*
G75*
G03*
X54633425Y-30349675I2277996J79269D01*
G01*
%TO.C,SW37*%
X28518425Y-94149675D02*
X28518425Y-98749675D01*
X29718425Y-87899675D02*
X29718425Y-91844675D01*
X29718425Y-91853675D02*
X33328425Y-91853675D01*
X32318425Y-98774675D02*
X28543425Y-98774675D01*
X33243425Y-94124675D02*
X28518425Y-94124675D01*
X33538425Y-100049675D02*
X34418425Y-100949675D01*
X37218425Y-100949675D02*
X34418425Y-100949675D01*
X38093425Y-96324675D02*
X35543425Y-96324675D01*
X38118425Y-96349675D02*
X38118425Y-100049675D01*
X38118425Y-100049675D02*
X37218425Y-100949675D01*
X40618425Y-85945675D02*
X31993425Y-85945675D01*
X40618425Y-89949675D02*
X35218425Y-89949675D01*
X40618425Y-89949675D02*
X40618425Y-85945675D01*
X31993425Y-85945675D02*
G75*
G03*
X29718425Y-87899675I-102171J-2182411D01*
G01*
X33538425Y-100049675D02*
G75*
G03*
X32318425Y-98774675I-1275736J482D01*
G01*
X35218425Y-89949675D02*
G75*
G03*
X33328425Y-91853675I-61523J-1828981D01*
G01*
X33243426Y-94124675D02*
G75*
G03*
X35543425Y-96324675I2277996J79269D01*
G01*
D14*
%TO.C,D14*%
X55330607Y-18704675D02*
X55132169Y-18704675D01*
X55132169Y-19299989D02*
X55132169Y-18109361D01*
X55132169Y-18109361D02*
X53544665Y-18109361D01*
X54735293Y-18109361D02*
X54735293Y-19299989D01*
X53544665Y-19299989D02*
X55132169Y-19299989D01*
X53544665Y-18704675D02*
X53346227Y-18704675D01*
X53544665Y-18109361D02*
X53544665Y-19299989D01*
%TO.C,D37*%
X36730607Y-84844675D02*
X36532169Y-84844675D01*
X36532169Y-85439989D02*
X36532169Y-84249361D01*
X36532169Y-84249361D02*
X34944665Y-84249361D01*
X36135293Y-84249361D02*
X36135293Y-85439989D01*
X34944665Y-85439989D02*
X36532169Y-85439989D01*
X34944665Y-84844675D02*
X34746227Y-84844675D01*
X34944665Y-84249361D02*
X34944665Y-85439989D01*
%TO.C,D18*%
X55845607Y-37744675D02*
X55647169Y-37744675D01*
X55647169Y-38339989D02*
X55647169Y-37149361D01*
X55647169Y-37149361D02*
X54059665Y-37149361D01*
X55250293Y-37149361D02*
X55250293Y-38339989D01*
X54059665Y-38339989D02*
X55647169Y-38339989D01*
X54059665Y-37744675D02*
X53861227Y-37744675D01*
X54059665Y-37149361D02*
X54059665Y-38339989D01*
%TO.C,D17*%
X36550607Y-47024675D02*
X36352169Y-47024675D01*
X36352169Y-47619989D02*
X36352169Y-46429361D01*
X36352169Y-46429361D02*
X34764665Y-46429361D01*
X35955293Y-46429361D02*
X35955293Y-47619989D01*
X34764665Y-47619989D02*
X36352169Y-47619989D01*
X34764665Y-47024675D02*
X34566227Y-47024675D01*
X34764665Y-46429361D02*
X34764665Y-47619989D01*
D11*
%TO.C,SW33*%
X28518425Y-75299675D02*
X28518425Y-79899675D01*
X29718425Y-69049675D02*
X29718425Y-72994675D01*
X29718425Y-73003675D02*
X33328425Y-73003675D01*
X32318425Y-79924675D02*
X28543425Y-79924675D01*
X33243425Y-75274675D02*
X28518425Y-75274675D01*
X33538425Y-81199675D02*
X34418425Y-82099675D01*
X37218425Y-82099675D02*
X34418425Y-82099675D01*
X38093425Y-77474675D02*
X35543425Y-77474675D01*
X38118425Y-77499675D02*
X38118425Y-81199675D01*
X38118425Y-81199675D02*
X37218425Y-82099675D01*
X40618425Y-67095675D02*
X31993425Y-67095675D01*
X40618425Y-71099675D02*
X35218425Y-71099675D01*
X40618425Y-71099675D02*
X40618425Y-67095675D01*
X31993425Y-67095675D02*
G75*
G03*
X29718425Y-69049675I-102171J-2182411D01*
G01*
X33538425Y-81199675D02*
G75*
G03*
X32318425Y-79924675I-1275736J482D01*
G01*
X35218425Y-71099675D02*
G75*
G03*
X33328425Y-73003675I-61523J-1828981D01*
G01*
X33243426Y-75274675D02*
G75*
G03*
X35543425Y-77474675I2277996J79269D01*
G01*
%TO.C,SW34*%
X47608425Y-65874675D02*
X47608425Y-70474675D01*
X48808425Y-59624675D02*
X48808425Y-63569675D01*
X48808425Y-63578675D02*
X52418425Y-63578675D01*
X51408425Y-70499675D02*
X47633425Y-70499675D01*
X52333425Y-65849675D02*
X47608425Y-65849675D01*
X52628425Y-71774675D02*
X53508425Y-72674675D01*
X56308425Y-72674675D02*
X53508425Y-72674675D01*
X57183425Y-68049675D02*
X54633425Y-68049675D01*
X57208425Y-68074675D02*
X57208425Y-71774675D01*
X57208425Y-71774675D02*
X56308425Y-72674675D01*
X59708425Y-57670675D02*
X51083425Y-57670675D01*
X59708425Y-61674675D02*
X54308425Y-61674675D01*
X59708425Y-61674675D02*
X59708425Y-57670675D01*
X51083425Y-57670675D02*
G75*
G03*
X48808425Y-59624675I-102171J-2182411D01*
G01*
X52628425Y-71774675D02*
G75*
G03*
X51408425Y-70499675I-1275736J482D01*
G01*
X54308425Y-61674675D02*
G75*
G03*
X52418425Y-63578675I-61523J-1828981D01*
G01*
X52333426Y-65849675D02*
G75*
G03*
X54633425Y-68049675I2277996J79269D01*
G01*
D14*
%TO.C,D33*%
X36965607Y-66014675D02*
X36767169Y-66014675D01*
X36767169Y-66609989D02*
X36767169Y-65419361D01*
X36767169Y-65419361D02*
X35179665Y-65419361D01*
X36370293Y-65419361D02*
X36370293Y-66609989D01*
X35179665Y-66609989D02*
X36767169Y-66609989D01*
X35179665Y-66014675D02*
X34981227Y-66014675D01*
X35179665Y-65419361D02*
X35179665Y-66609989D01*
%TO.C,D34*%
X55490607Y-56344675D02*
X55292169Y-56344675D01*
X55292169Y-56939989D02*
X55292169Y-55749361D01*
X55292169Y-55749361D02*
X53704665Y-55749361D01*
X54895293Y-55749361D02*
X54895293Y-56939989D01*
X53704665Y-56939989D02*
X55292169Y-56939989D01*
X53704665Y-56344675D02*
X53506227Y-56344675D01*
X53704665Y-55749361D02*
X53704665Y-56939989D01*
%TO.C,D13*%
X36600607Y-28074675D02*
X36402169Y-28074675D01*
X36402169Y-28669989D02*
X36402169Y-27479361D01*
X36402169Y-27479361D02*
X34814665Y-27479361D01*
X36005293Y-27479361D02*
X36005293Y-28669989D01*
X34814665Y-28669989D02*
X36402169Y-28669989D01*
X34814665Y-28074675D02*
X34616227Y-28074675D01*
X34814665Y-27479361D02*
X34814665Y-28669989D01*
%TO.C,D38*%
X55360607Y-75204675D02*
X55162169Y-75204675D01*
X55162169Y-75799989D02*
X55162169Y-74609361D01*
X55162169Y-74609361D02*
X53574665Y-74609361D01*
X54765293Y-74609361D02*
X54765293Y-75799989D01*
X53574665Y-75799989D02*
X55162169Y-75799989D01*
X53574665Y-75204675D02*
X53376227Y-75204675D01*
X53574665Y-74609361D02*
X53574665Y-75799989D01*
D11*
%TO.C,SW18*%
X52333426Y-46999675D02*
G75*
G03*
X54633425Y-49199675I2277996J79269D01*
G01*
X54308425Y-42824675D02*
G75*
G03*
X52418425Y-44728675I-61523J-1828981D01*
G01*
X52628425Y-52924675D02*
G75*
G03*
X51408425Y-51649675I-1275736J482D01*
G01*
X51083425Y-38820675D02*
G75*
G03*
X48808425Y-40774675I-102171J-2182411D01*
G01*
X59708425Y-42824675D02*
X59708425Y-38820675D01*
X59708425Y-42824675D02*
X54308425Y-42824675D01*
X59708425Y-38820675D02*
X51083425Y-38820675D01*
X57208425Y-52924675D02*
X56308425Y-53824675D01*
X57208425Y-49224675D02*
X57208425Y-52924675D01*
X57183425Y-49199675D02*
X54633425Y-49199675D01*
X56308425Y-53824675D02*
X53508425Y-53824675D01*
X52628425Y-52924675D02*
X53508425Y-53824675D01*
X52333425Y-46999675D02*
X47608425Y-46999675D01*
X51408425Y-51649675D02*
X47633425Y-51649675D01*
X48808425Y-44728675D02*
X52418425Y-44728675D01*
X48808425Y-40774675D02*
X48808425Y-44719675D01*
X47608425Y-47024675D02*
X47608425Y-51624675D01*
%TO.C,SW38*%
X47608425Y-84724675D02*
X47608425Y-89324675D01*
X48808425Y-78474675D02*
X48808425Y-82419675D01*
X48808425Y-82428675D02*
X52418425Y-82428675D01*
X51408425Y-89349675D02*
X47633425Y-89349675D01*
X52333425Y-84699675D02*
X47608425Y-84699675D01*
X52628425Y-90624675D02*
X53508425Y-91524675D01*
X56308425Y-91524675D02*
X53508425Y-91524675D01*
X57183425Y-86899675D02*
X54633425Y-86899675D01*
X57208425Y-86924675D02*
X57208425Y-90624675D01*
X57208425Y-90624675D02*
X56308425Y-91524675D01*
X59708425Y-76520675D02*
X51083425Y-76520675D01*
X59708425Y-80524675D02*
X54308425Y-80524675D01*
X59708425Y-80524675D02*
X59708425Y-76520675D01*
X51083425Y-76520675D02*
G75*
G03*
X48808425Y-78474675I-102171J-2182411D01*
G01*
X52628425Y-90624675D02*
G75*
G03*
X51408425Y-89349675I-1275736J482D01*
G01*
X54308425Y-80524675D02*
G75*
G03*
X52418425Y-82428675I-61523J-1828981D01*
G01*
X52333426Y-84699675D02*
G75*
G03*
X54633425Y-86899675I2277996J79269D01*
G01*
%TO.C,SW17*%
X28518425Y-56449675D02*
X28518425Y-61049675D01*
X29718425Y-50199675D02*
X29718425Y-54144675D01*
X29718425Y-54153675D02*
X33328425Y-54153675D01*
X32318425Y-61074675D02*
X28543425Y-61074675D01*
X33243425Y-56424675D02*
X28518425Y-56424675D01*
X33538425Y-62349675D02*
X34418425Y-63249675D01*
X37218425Y-63249675D02*
X34418425Y-63249675D01*
X38093425Y-58624675D02*
X35543425Y-58624675D01*
X38118425Y-58649675D02*
X38118425Y-62349675D01*
X38118425Y-62349675D02*
X37218425Y-63249675D01*
X40618425Y-48245675D02*
X31993425Y-48245675D01*
X40618425Y-52249675D02*
X35218425Y-52249675D01*
X40618425Y-52249675D02*
X40618425Y-48245675D01*
X31993425Y-48245675D02*
G75*
G03*
X29718425Y-50199675I-102171J-2182411D01*
G01*
X33538425Y-62349675D02*
G75*
G03*
X32318425Y-61074675I-1275736J482D01*
G01*
X35218425Y-52249675D02*
G75*
G03*
X33328425Y-54153675I-61523J-1828981D01*
G01*
X33243426Y-56424675D02*
G75*
G03*
X35543425Y-58624675I2277996J79269D01*
G01*
%TO.C,SW13*%
X28518425Y-37599675D02*
X28518425Y-42199675D01*
X29718425Y-31349675D02*
X29718425Y-35294675D01*
X29718425Y-35303675D02*
X33328425Y-35303675D01*
X32318425Y-42224675D02*
X28543425Y-42224675D01*
X33243425Y-37574675D02*
X28518425Y-37574675D01*
X33538425Y-43499675D02*
X34418425Y-44399675D01*
X37218425Y-44399675D02*
X34418425Y-44399675D01*
X38093425Y-39774675D02*
X35543425Y-39774675D01*
X38118425Y-39799675D02*
X38118425Y-43499675D01*
X38118425Y-43499675D02*
X37218425Y-44399675D01*
X40618425Y-29395675D02*
X31993425Y-29395675D01*
X40618425Y-33399675D02*
X35218425Y-33399675D01*
X40618425Y-33399675D02*
X40618425Y-29395675D01*
X31993425Y-29395675D02*
G75*
G03*
X29718425Y-31349675I-102171J-2182411D01*
G01*
X33538425Y-43499675D02*
G75*
G03*
X32318425Y-42224675I-1275736J482D01*
G01*
X35218425Y-33399675D02*
G75*
G03*
X33328425Y-35303675I-61523J-1828981D01*
G01*
X33243426Y-37574675D02*
G75*
G03*
X35543425Y-39774675I2277996J79269D01*
G01*
%TD*%
M02*
