M48
; DRILL file {KiCad (7.0.0-0)} date Sunday, 19 March 2023 at 19:43:51
; FORMAT={-:-/ absolute / inch / decimal}
; #@! TF.CreationDate,2023-03-19T19:43:51+09:00
; #@! TF.GenerationSoftware,Kicad,Pcbnew,(7.0.0-0)
; #@! TF.FileFunction,Plated,1,2,PTH
FMAT,2
INCH
; #@! TA.AperFunction,Plated,PTH,ComponentDrill
T1C0.0295
; #@! TA.AperFunction,Plated,PTH,ComponentDrill
T2C0.0394
; #@! TA.AperFunction,Plated,PTH,ComponentDrill
T3C0.1181
%
G90
G05
T1
X1.2749Y-1.8514
X1.2769Y-1.1053
X1.282Y-3.3403
X1.2913Y-2.599
X1.5249Y-1.8514
X1.5269Y-1.1053
X1.532Y-3.3403
X1.5413Y-2.599
X2.0143Y-0.7364
X2.0155Y-2.9608
X2.0206Y-2.2183
X2.0346Y-1.486
X2.2643Y-0.7364
X2.2655Y-2.9608
X2.2706Y-2.2183
X2.2846Y-1.486
T2
X1.6007Y-2.3773
X1.6062Y-3.1108
X1.8212Y-2.3773
X1.8267Y-3.1108
T3
X1.2133Y-1.5709
X1.2133Y-2.313
X1.2133Y-3.0551
X1.2133Y-3.7972
X1.2602Y-1.3252
X1.2602Y-2.0673
X1.2602Y-2.8094
X1.2602Y-3.5516
X1.4102Y-1.6575
X1.4102Y-2.3996
X1.4102Y-3.1417
X1.4102Y-3.8838
X1.5102Y-1.2252
X1.5102Y-1.9673
X1.5102Y-2.7094
X1.5102Y-3.4516
X1.9649Y-1.1998
X1.9649Y-1.9419
X1.9649Y-2.684
X1.9649Y-3.4262
X2.0117Y-0.9541
X2.0117Y-1.6962
X2.0117Y-2.4384
X2.0117Y-3.1805
X2.1617Y-1.2864
X2.1617Y-2.0285
X2.1617Y-2.7707
X2.1617Y-3.5128
X2.2617Y-0.8541
X2.2617Y-1.5962
X2.2617Y-2.3384
X2.2617Y-3.0805
T0
M30
