G04 #@! TF.GenerationSoftware,KiCad,Pcbnew,(7.0.0-0)*
G04 #@! TF.CreationDate,2023-03-21T21:29:09+09:00*
G04 #@! TF.ProjectId,pangaea-top-pinkey-0.25u,70616e67-6165-4612-9d74-6f702d70696e,1*
G04 #@! TF.SameCoordinates,Original*
G04 #@! TF.FileFunction,Legend,Bot*
G04 #@! TF.FilePolarity,Positive*
%FSLAX46Y46*%
G04 Gerber Fmt 4.6, Leading zero omitted, Abs format (unit mm)*
G04 Created by KiCad (PCBNEW (7.0.0-0)) date 2023-03-21 21:29:09*
%MOMM*%
%LPD*%
G01*
G04 APERTURE LIST*
%ADD10C,0.150000*%
%ADD11C,2.350000*%
G04 APERTURE END LIST*
D10*
X149570857Y-78594286D02*
X148770857Y-78594286D01*
X148999428Y-78594286D02*
X148885142Y-78651429D01*
X148885142Y-78651429D02*
X148828000Y-78708572D01*
X148828000Y-78708572D02*
X148770857Y-78822857D01*
X148770857Y-78822857D02*
X148770857Y-78937143D01*
X149513714Y-79794286D02*
X149570857Y-79680000D01*
X149570857Y-79680000D02*
X149570857Y-79451429D01*
X149570857Y-79451429D02*
X149513714Y-79337143D01*
X149513714Y-79337143D02*
X149399428Y-79280000D01*
X149399428Y-79280000D02*
X148942285Y-79280000D01*
X148942285Y-79280000D02*
X148828000Y-79337143D01*
X148828000Y-79337143D02*
X148770857Y-79451429D01*
X148770857Y-79451429D02*
X148770857Y-79680000D01*
X148770857Y-79680000D02*
X148828000Y-79794286D01*
X148828000Y-79794286D02*
X148942285Y-79851429D01*
X148942285Y-79851429D02*
X149056571Y-79851429D01*
X149056571Y-79851429D02*
X149170857Y-79280000D01*
X148770857Y-80251428D02*
X149570857Y-80537142D01*
X149570857Y-80537142D02*
X148770857Y-80822857D01*
X149570857Y-82628571D02*
X149570857Y-81942857D01*
X149570857Y-82285714D02*
X148370857Y-82285714D01*
X148370857Y-82285714D02*
X148542285Y-82171428D01*
X148542285Y-82171428D02*
X148656571Y-82057143D01*
X148656571Y-82057143D02*
X148713714Y-81942857D01*
X149456571Y-83142857D02*
X149513714Y-83200000D01*
X149513714Y-83200000D02*
X149570857Y-83142857D01*
X149570857Y-83142857D02*
X149513714Y-83085714D01*
X149513714Y-83085714D02*
X149456571Y-83142857D01*
X149456571Y-83142857D02*
X149570857Y-83142857D01*
X148370857Y-83942857D02*
X148370857Y-84057143D01*
X148370857Y-84057143D02*
X148428000Y-84171429D01*
X148428000Y-84171429D02*
X148485142Y-84228572D01*
X148485142Y-84228572D02*
X148599428Y-84285714D01*
X148599428Y-84285714D02*
X148828000Y-84342857D01*
X148828000Y-84342857D02*
X149113714Y-84342857D01*
X149113714Y-84342857D02*
X149342285Y-84285714D01*
X149342285Y-84285714D02*
X149456571Y-84228572D01*
X149456571Y-84228572D02*
X149513714Y-84171429D01*
X149513714Y-84171429D02*
X149570857Y-84057143D01*
X149570857Y-84057143D02*
X149570857Y-83942857D01*
X149570857Y-83942857D02*
X149513714Y-83828572D01*
X149513714Y-83828572D02*
X149456571Y-83771429D01*
X149456571Y-83771429D02*
X149342285Y-83714286D01*
X149342285Y-83714286D02*
X149113714Y-83657143D01*
X149113714Y-83657143D02*
X148828000Y-83657143D01*
X148828000Y-83657143D02*
X148599428Y-83714286D01*
X148599428Y-83714286D02*
X148485142Y-83771429D01*
X148485142Y-83771429D02*
X148428000Y-83828572D01*
X148428000Y-83828572D02*
X148370857Y-83942857D01*
X149513714Y-84914286D02*
X149570857Y-84914286D01*
X149570857Y-84914286D02*
X149685142Y-84857143D01*
X149685142Y-84857143D02*
X149742285Y-84800000D01*
X149570857Y-86148572D02*
X148370857Y-86148572D01*
X148370857Y-86148572D02*
X149228000Y-86548572D01*
X149228000Y-86548572D02*
X148370857Y-86948572D01*
X148370857Y-86948572D02*
X149570857Y-86948572D01*
X149570857Y-88034287D02*
X148942285Y-88034287D01*
X148942285Y-88034287D02*
X148828000Y-87977144D01*
X148828000Y-87977144D02*
X148770857Y-87862858D01*
X148770857Y-87862858D02*
X148770857Y-87634287D01*
X148770857Y-87634287D02*
X148828000Y-87520001D01*
X149513714Y-88034287D02*
X149570857Y-87920001D01*
X149570857Y-87920001D02*
X149570857Y-87634287D01*
X149570857Y-87634287D02*
X149513714Y-87520001D01*
X149513714Y-87520001D02*
X149399428Y-87462858D01*
X149399428Y-87462858D02*
X149285142Y-87462858D01*
X149285142Y-87462858D02*
X149170857Y-87520001D01*
X149170857Y-87520001D02*
X149113714Y-87634287D01*
X149113714Y-87634287D02*
X149113714Y-87920001D01*
X149113714Y-87920001D02*
X149056571Y-88034287D01*
X149570857Y-88605715D02*
X148770857Y-88605715D01*
X148999428Y-88605715D02*
X148885142Y-88662858D01*
X148885142Y-88662858D02*
X148828000Y-88720001D01*
X148828000Y-88720001D02*
X148770857Y-88834286D01*
X148770857Y-88834286D02*
X148770857Y-88948572D01*
X148485142Y-90011429D02*
X148428000Y-90068572D01*
X148428000Y-90068572D02*
X148370857Y-90182858D01*
X148370857Y-90182858D02*
X148370857Y-90468572D01*
X148370857Y-90468572D02*
X148428000Y-90582858D01*
X148428000Y-90582858D02*
X148485142Y-90640000D01*
X148485142Y-90640000D02*
X148599428Y-90697143D01*
X148599428Y-90697143D02*
X148713714Y-90697143D01*
X148713714Y-90697143D02*
X148885142Y-90640000D01*
X148885142Y-90640000D02*
X149570857Y-89954286D01*
X149570857Y-89954286D02*
X149570857Y-90697143D01*
X149570857Y-91840000D02*
X149570857Y-91154286D01*
X149570857Y-91497143D02*
X148370857Y-91497143D01*
X148370857Y-91497143D02*
X148542285Y-91382857D01*
X148542285Y-91382857D02*
X148656571Y-91268572D01*
X148656571Y-91268572D02*
X148713714Y-91154286D01*
X149513714Y-92411429D02*
X149570857Y-92411429D01*
X149570857Y-92411429D02*
X149685142Y-92354286D01*
X149685142Y-92354286D02*
X149742285Y-92297143D01*
X148485142Y-93588572D02*
X148428000Y-93645715D01*
X148428000Y-93645715D02*
X148370857Y-93760001D01*
X148370857Y-93760001D02*
X148370857Y-94045715D01*
X148370857Y-94045715D02*
X148428000Y-94160001D01*
X148428000Y-94160001D02*
X148485142Y-94217143D01*
X148485142Y-94217143D02*
X148599428Y-94274286D01*
X148599428Y-94274286D02*
X148713714Y-94274286D01*
X148713714Y-94274286D02*
X148885142Y-94217143D01*
X148885142Y-94217143D02*
X149570857Y-93531429D01*
X149570857Y-93531429D02*
X149570857Y-94274286D01*
X148370857Y-95017143D02*
X148370857Y-95131429D01*
X148370857Y-95131429D02*
X148428000Y-95245715D01*
X148428000Y-95245715D02*
X148485142Y-95302858D01*
X148485142Y-95302858D02*
X148599428Y-95360000D01*
X148599428Y-95360000D02*
X148828000Y-95417143D01*
X148828000Y-95417143D02*
X149113714Y-95417143D01*
X149113714Y-95417143D02*
X149342285Y-95360000D01*
X149342285Y-95360000D02*
X149456571Y-95302858D01*
X149456571Y-95302858D02*
X149513714Y-95245715D01*
X149513714Y-95245715D02*
X149570857Y-95131429D01*
X149570857Y-95131429D02*
X149570857Y-95017143D01*
X149570857Y-95017143D02*
X149513714Y-94902858D01*
X149513714Y-94902858D02*
X149456571Y-94845715D01*
X149456571Y-94845715D02*
X149342285Y-94788572D01*
X149342285Y-94788572D02*
X149113714Y-94731429D01*
X149113714Y-94731429D02*
X148828000Y-94731429D01*
X148828000Y-94731429D02*
X148599428Y-94788572D01*
X148599428Y-94788572D02*
X148485142Y-94845715D01*
X148485142Y-94845715D02*
X148428000Y-94902858D01*
X148428000Y-94902858D02*
X148370857Y-95017143D01*
X148485142Y-95874286D02*
X148428000Y-95931429D01*
X148428000Y-95931429D02*
X148370857Y-96045715D01*
X148370857Y-96045715D02*
X148370857Y-96331429D01*
X148370857Y-96331429D02*
X148428000Y-96445715D01*
X148428000Y-96445715D02*
X148485142Y-96502857D01*
X148485142Y-96502857D02*
X148599428Y-96560000D01*
X148599428Y-96560000D02*
X148713714Y-96560000D01*
X148713714Y-96560000D02*
X148885142Y-96502857D01*
X148885142Y-96502857D02*
X149570857Y-95817143D01*
X149570857Y-95817143D02*
X149570857Y-96560000D01*
X148370857Y-96960000D02*
X148370857Y-97702857D01*
X148370857Y-97702857D02*
X148828000Y-97302857D01*
X148828000Y-97302857D02*
X148828000Y-97474286D01*
X148828000Y-97474286D02*
X148885142Y-97588572D01*
X148885142Y-97588572D02*
X148942285Y-97645714D01*
X148942285Y-97645714D02*
X149056571Y-97702857D01*
X149056571Y-97702857D02*
X149342285Y-97702857D01*
X149342285Y-97702857D02*
X149456571Y-97645714D01*
X149456571Y-97645714D02*
X149513714Y-97588572D01*
X149513714Y-97588572D02*
X149570857Y-97474286D01*
X149570857Y-97474286D02*
X149570857Y-97131429D01*
X149570857Y-97131429D02*
X149513714Y-97017143D01*
X149513714Y-97017143D02*
X149456571Y-96960000D01*
G36*
X116669360Y-132094285D02*
G01*
X116489686Y-132094285D01*
X116427781Y-131815714D01*
X116607455Y-131815714D01*
X116669360Y-132094285D01*
G37*
G36*
X114766049Y-131897592D02*
G01*
X114796454Y-131927997D01*
X114830713Y-131996513D01*
X114830713Y-132199198D01*
X114796454Y-132267715D01*
X114766047Y-132298122D01*
X114697532Y-132332380D01*
X114542467Y-132332380D01*
X114473949Y-132298121D01*
X114443542Y-132267714D01*
X114409285Y-132199199D01*
X114409285Y-131996515D01*
X114443544Y-131927997D01*
X114473949Y-131897591D01*
X114542465Y-131863333D01*
X114697531Y-131863333D01*
X114766049Y-131897592D01*
G37*
G36*
X113813668Y-131897592D02*
G01*
X113844073Y-131927997D01*
X113878332Y-131996513D01*
X113878332Y-132199198D01*
X113844073Y-132267715D01*
X113813666Y-132298122D01*
X113745151Y-132332380D01*
X113590086Y-132332380D01*
X113521568Y-132298121D01*
X113491161Y-132267714D01*
X113456904Y-132199199D01*
X113456904Y-131996515D01*
X113491163Y-131927997D01*
X113521568Y-131897591D01*
X113590084Y-131863333D01*
X113745150Y-131863333D01*
X113813668Y-131897592D01*
G37*
G36*
X117503929Y-133095357D02*
G01*
X112736072Y-133095357D01*
X112736072Y-131987200D01*
X113304190Y-131987200D01*
X113306904Y-131993744D01*
X113306904Y-132212864D01*
X113304973Y-132230748D01*
X113311829Y-132244461D01*
X113316147Y-132259164D01*
X113321500Y-132263802D01*
X113358235Y-132337271D01*
X113360918Y-132349603D01*
X113375545Y-132364230D01*
X113389607Y-132379348D01*
X113391025Y-132379710D01*
X113417460Y-132406145D01*
X113423904Y-132416995D01*
X113442413Y-132426249D01*
X113460527Y-132436140D01*
X113461985Y-132436035D01*
X113535231Y-132472658D01*
X113550358Y-132482380D01*
X113565688Y-132482380D01*
X113580771Y-132485094D01*
X113587315Y-132482380D01*
X113758816Y-132482380D01*
X113776700Y-132484311D01*
X113790413Y-132477454D01*
X113805116Y-132473137D01*
X113809754Y-132467783D01*
X113883223Y-132431048D01*
X113895555Y-132428366D01*
X113910182Y-132413738D01*
X113925300Y-132399677D01*
X113925662Y-132398258D01*
X113952097Y-132371823D01*
X113962947Y-132365380D01*
X113972201Y-132346870D01*
X113982092Y-132328757D01*
X113981987Y-132327298D01*
X114018610Y-132254052D01*
X114028332Y-132238926D01*
X114028332Y-132223596D01*
X114031046Y-132208513D01*
X114028332Y-132201969D01*
X114028332Y-131987200D01*
X114256571Y-131987200D01*
X114259285Y-131993744D01*
X114259285Y-132212864D01*
X114257354Y-132230748D01*
X114264210Y-132244461D01*
X114268528Y-132259164D01*
X114273881Y-132263802D01*
X114310616Y-132337271D01*
X114313299Y-132349603D01*
X114327926Y-132364230D01*
X114341988Y-132379348D01*
X114343406Y-132379710D01*
X114369841Y-132406145D01*
X114376285Y-132416995D01*
X114394794Y-132426249D01*
X114412908Y-132436140D01*
X114414366Y-132436035D01*
X114487612Y-132472658D01*
X114502739Y-132482380D01*
X114518069Y-132482380D01*
X114533152Y-132485094D01*
X114539696Y-132482380D01*
X114711197Y-132482380D01*
X114729081Y-132484311D01*
X114742794Y-132477454D01*
X114757497Y-132473137D01*
X114762135Y-132467783D01*
X114835604Y-132431048D01*
X114847936Y-132428366D01*
X114857797Y-132418504D01*
X115209296Y-132418504D01*
X115227592Y-132458568D01*
X115264644Y-132482380D01*
X115567020Y-132482380D01*
X115583504Y-132484750D01*
X115588694Y-132482380D01*
X115868876Y-132482380D01*
X115900354Y-132473137D01*
X115929196Y-132439851D01*
X115935464Y-132396256D01*
X115917168Y-132356192D01*
X115880116Y-132332380D01*
X115647380Y-132332380D01*
X115647380Y-131636066D01*
X115703174Y-131691860D01*
X115709618Y-131702710D01*
X115728119Y-131711960D01*
X115746241Y-131721856D01*
X115747701Y-131721751D01*
X115834196Y-131764999D01*
X115866485Y-131770809D01*
X115907168Y-131753936D01*
X115908623Y-131751838D01*
X116066439Y-131751838D01*
X116084735Y-131791902D01*
X116121787Y-131815714D01*
X116274122Y-131815714D01*
X116336027Y-132094285D01*
X116228265Y-132094285D01*
X116196787Y-132103528D01*
X116167945Y-132136814D01*
X116161677Y-132180409D01*
X116179973Y-132220473D01*
X116217025Y-132244285D01*
X116369360Y-132244285D01*
X116453886Y-132624652D01*
X116469737Y-132653375D01*
X116508487Y-132674309D01*
X116552404Y-132670971D01*
X116587545Y-132644420D01*
X116602752Y-132603084D01*
X116523019Y-132244285D01*
X116702693Y-132244285D01*
X116787219Y-132624652D01*
X116803070Y-132653375D01*
X116841820Y-132674309D01*
X116885737Y-132670971D01*
X116920878Y-132644420D01*
X116936085Y-132603084D01*
X116856352Y-132244285D01*
X116964114Y-132244285D01*
X116995592Y-132235042D01*
X117024434Y-132201756D01*
X117030702Y-132158161D01*
X117012406Y-132118097D01*
X116975354Y-132094285D01*
X116823019Y-132094285D01*
X116761114Y-131815714D01*
X116868876Y-131815714D01*
X116900354Y-131806471D01*
X116929196Y-131773185D01*
X116935464Y-131729590D01*
X116917168Y-131689526D01*
X116880116Y-131665714D01*
X116727781Y-131665714D01*
X116643255Y-131285347D01*
X116627404Y-131256624D01*
X116588654Y-131235689D01*
X116544737Y-131239028D01*
X116509596Y-131265579D01*
X116494389Y-131306914D01*
X116574122Y-131665714D01*
X116394448Y-131665714D01*
X116309922Y-131285347D01*
X116294071Y-131256624D01*
X116255321Y-131235689D01*
X116211404Y-131239028D01*
X116176263Y-131265579D01*
X116161056Y-131306914D01*
X116240789Y-131665714D01*
X116133027Y-131665714D01*
X116101549Y-131674957D01*
X116072707Y-131708243D01*
X116066439Y-131751838D01*
X115908623Y-131751838D01*
X115932270Y-131717746D01*
X115933823Y-131673730D01*
X115911332Y-131635861D01*
X115807282Y-131583836D01*
X115725903Y-131502457D01*
X115641121Y-131375285D01*
X115638137Y-131365120D01*
X115629158Y-131357340D01*
X115628803Y-131356807D01*
X115621024Y-131350292D01*
X115604851Y-131336278D01*
X115604176Y-131336180D01*
X115603652Y-131335742D01*
X115582422Y-131333053D01*
X115561256Y-131330010D01*
X115560634Y-131330293D01*
X115559957Y-131330208D01*
X115540666Y-131339412D01*
X115521192Y-131348306D01*
X115520822Y-131348881D01*
X115520207Y-131349175D01*
X115508958Y-131367340D01*
X115497380Y-131385358D01*
X115497380Y-131386041D01*
X115497021Y-131386621D01*
X115497380Y-131407985D01*
X115497380Y-132332380D01*
X115275884Y-132332380D01*
X115244406Y-132341623D01*
X115215564Y-132374909D01*
X115209296Y-132418504D01*
X114857797Y-132418504D01*
X114862563Y-132413738D01*
X114877681Y-132399677D01*
X114878043Y-132398258D01*
X114904478Y-132371823D01*
X114915328Y-132365380D01*
X114924582Y-132346870D01*
X114934473Y-132328757D01*
X114934368Y-132327298D01*
X114970991Y-132254052D01*
X114980713Y-132238926D01*
X114980713Y-132223596D01*
X114983427Y-132208513D01*
X114980713Y-132201969D01*
X114980713Y-131982840D01*
X114982643Y-131964965D01*
X114980713Y-131961105D01*
X114980713Y-131848295D01*
X114983815Y-131839126D01*
X114980713Y-131826718D01*
X114980713Y-131825170D01*
X114978108Y-131816300D01*
X114932939Y-131635623D01*
X114932714Y-131622197D01*
X114921685Y-131605654D01*
X114911638Y-131588529D01*
X114909570Y-131587481D01*
X114833127Y-131472817D01*
X114831461Y-131465158D01*
X114821141Y-131454838D01*
X114819279Y-131452045D01*
X114813549Y-131447246D01*
X114774920Y-131408617D01*
X114768476Y-131397767D01*
X114749979Y-131388518D01*
X114731852Y-131378620D01*
X114730391Y-131378724D01*
X114657148Y-131342101D01*
X114642021Y-131332380D01*
X114626692Y-131332380D01*
X114611609Y-131329666D01*
X114605065Y-131332380D01*
X114418741Y-131332380D01*
X114387263Y-131341623D01*
X114358421Y-131374909D01*
X114352153Y-131418504D01*
X114370449Y-131458568D01*
X114407501Y-131482380D01*
X114602293Y-131482380D01*
X114670810Y-131516639D01*
X114704572Y-131550401D01*
X114788483Y-131676269D01*
X114807007Y-131750365D01*
X114752388Y-131723056D01*
X114737259Y-131713333D01*
X114721929Y-131713333D01*
X114706846Y-131710619D01*
X114700302Y-131713333D01*
X114528792Y-131713333D01*
X114510917Y-131711403D01*
X114497207Y-131718257D01*
X114482501Y-131722576D01*
X114477861Y-131727930D01*
X114404392Y-131764664D01*
X114392062Y-131767347D01*
X114377442Y-131781966D01*
X114362317Y-131796036D01*
X114361954Y-131797454D01*
X114335519Y-131823889D01*
X114324670Y-131830333D01*
X114315419Y-131848833D01*
X114305524Y-131866956D01*
X114305628Y-131868416D01*
X114269008Y-131941657D01*
X114259285Y-131956787D01*
X114259285Y-131972117D01*
X114256571Y-131987200D01*
X114028332Y-131987200D01*
X114028332Y-131982840D01*
X114030262Y-131964965D01*
X114028332Y-131961105D01*
X114028332Y-131848295D01*
X114031434Y-131839126D01*
X114028332Y-131826718D01*
X114028332Y-131825170D01*
X114025727Y-131816300D01*
X113980558Y-131635623D01*
X113980333Y-131622197D01*
X113969304Y-131605654D01*
X113959257Y-131588529D01*
X113957189Y-131587481D01*
X113880746Y-131472817D01*
X113879080Y-131465158D01*
X113868760Y-131454838D01*
X113866898Y-131452045D01*
X113861168Y-131447246D01*
X113822539Y-131408617D01*
X113816095Y-131397767D01*
X113797598Y-131388518D01*
X113779471Y-131378620D01*
X113778010Y-131378724D01*
X113704767Y-131342101D01*
X113689640Y-131332380D01*
X113674311Y-131332380D01*
X113659228Y-131329666D01*
X113652684Y-131332380D01*
X113466360Y-131332380D01*
X113434882Y-131341623D01*
X113406040Y-131374909D01*
X113399772Y-131418504D01*
X113418068Y-131458568D01*
X113455120Y-131482380D01*
X113649912Y-131482380D01*
X113718429Y-131516639D01*
X113752191Y-131550401D01*
X113836102Y-131676269D01*
X113854626Y-131750365D01*
X113800007Y-131723056D01*
X113784878Y-131713333D01*
X113769548Y-131713333D01*
X113754465Y-131710619D01*
X113747921Y-131713333D01*
X113576411Y-131713333D01*
X113558536Y-131711403D01*
X113544826Y-131718257D01*
X113530120Y-131722576D01*
X113525480Y-131727930D01*
X113452011Y-131764664D01*
X113439681Y-131767347D01*
X113425061Y-131781966D01*
X113409936Y-131796036D01*
X113409573Y-131797454D01*
X113383138Y-131823889D01*
X113372289Y-131830333D01*
X113363038Y-131848833D01*
X113353143Y-131866956D01*
X113353247Y-131868416D01*
X113316627Y-131941657D01*
X113306904Y-131956787D01*
X113306904Y-131972117D01*
X113304190Y-131987200D01*
X112736072Y-131987200D01*
X112736072Y-130984643D01*
X117503929Y-130984643D01*
X117503929Y-133095357D01*
G37*
X114160857Y-87047144D02*
X112960857Y-87047144D01*
X112960857Y-87047144D02*
X112960857Y-87504287D01*
X112960857Y-87504287D02*
X113018000Y-87618572D01*
X113018000Y-87618572D02*
X113075142Y-87675715D01*
X113075142Y-87675715D02*
X113189428Y-87732858D01*
X113189428Y-87732858D02*
X113360857Y-87732858D01*
X113360857Y-87732858D02*
X113475142Y-87675715D01*
X113475142Y-87675715D02*
X113532285Y-87618572D01*
X113532285Y-87618572D02*
X113589428Y-87504287D01*
X113589428Y-87504287D02*
X113589428Y-87047144D01*
X114160857Y-88761430D02*
X113532285Y-88761430D01*
X113532285Y-88761430D02*
X113418000Y-88704287D01*
X113418000Y-88704287D02*
X113360857Y-88590001D01*
X113360857Y-88590001D02*
X113360857Y-88361430D01*
X113360857Y-88361430D02*
X113418000Y-88247144D01*
X114103714Y-88761430D02*
X114160857Y-88647144D01*
X114160857Y-88647144D02*
X114160857Y-88361430D01*
X114160857Y-88361430D02*
X114103714Y-88247144D01*
X114103714Y-88247144D02*
X113989428Y-88190001D01*
X113989428Y-88190001D02*
X113875142Y-88190001D01*
X113875142Y-88190001D02*
X113760857Y-88247144D01*
X113760857Y-88247144D02*
X113703714Y-88361430D01*
X113703714Y-88361430D02*
X113703714Y-88647144D01*
X113703714Y-88647144D02*
X113646571Y-88761430D01*
X113360857Y-89332858D02*
X114160857Y-89332858D01*
X113475142Y-89332858D02*
X113418000Y-89390001D01*
X113418000Y-89390001D02*
X113360857Y-89504286D01*
X113360857Y-89504286D02*
X113360857Y-89675715D01*
X113360857Y-89675715D02*
X113418000Y-89790001D01*
X113418000Y-89790001D02*
X113532285Y-89847144D01*
X113532285Y-89847144D02*
X114160857Y-89847144D01*
X113360857Y-90932858D02*
X114332285Y-90932858D01*
X114332285Y-90932858D02*
X114446571Y-90875715D01*
X114446571Y-90875715D02*
X114503714Y-90818572D01*
X114503714Y-90818572D02*
X114560857Y-90704286D01*
X114560857Y-90704286D02*
X114560857Y-90532858D01*
X114560857Y-90532858D02*
X114503714Y-90418572D01*
X114103714Y-90932858D02*
X114160857Y-90818572D01*
X114160857Y-90818572D02*
X114160857Y-90590000D01*
X114160857Y-90590000D02*
X114103714Y-90475715D01*
X114103714Y-90475715D02*
X114046571Y-90418572D01*
X114046571Y-90418572D02*
X113932285Y-90361429D01*
X113932285Y-90361429D02*
X113589428Y-90361429D01*
X113589428Y-90361429D02*
X113475142Y-90418572D01*
X113475142Y-90418572D02*
X113418000Y-90475715D01*
X113418000Y-90475715D02*
X113360857Y-90590000D01*
X113360857Y-90590000D02*
X113360857Y-90818572D01*
X113360857Y-90818572D02*
X113418000Y-90932858D01*
X114160857Y-92018572D02*
X113532285Y-92018572D01*
X113532285Y-92018572D02*
X113418000Y-91961429D01*
X113418000Y-91961429D02*
X113360857Y-91847143D01*
X113360857Y-91847143D02*
X113360857Y-91618572D01*
X113360857Y-91618572D02*
X113418000Y-91504286D01*
X114103714Y-92018572D02*
X114160857Y-91904286D01*
X114160857Y-91904286D02*
X114160857Y-91618572D01*
X114160857Y-91618572D02*
X114103714Y-91504286D01*
X114103714Y-91504286D02*
X113989428Y-91447143D01*
X113989428Y-91447143D02*
X113875142Y-91447143D01*
X113875142Y-91447143D02*
X113760857Y-91504286D01*
X113760857Y-91504286D02*
X113703714Y-91618572D01*
X113703714Y-91618572D02*
X113703714Y-91904286D01*
X113703714Y-91904286D02*
X113646571Y-92018572D01*
X114103714Y-93047143D02*
X114160857Y-92932857D01*
X114160857Y-92932857D02*
X114160857Y-92704286D01*
X114160857Y-92704286D02*
X114103714Y-92590000D01*
X114103714Y-92590000D02*
X113989428Y-92532857D01*
X113989428Y-92532857D02*
X113532285Y-92532857D01*
X113532285Y-92532857D02*
X113418000Y-92590000D01*
X113418000Y-92590000D02*
X113360857Y-92704286D01*
X113360857Y-92704286D02*
X113360857Y-92932857D01*
X113360857Y-92932857D02*
X113418000Y-93047143D01*
X113418000Y-93047143D02*
X113532285Y-93104286D01*
X113532285Y-93104286D02*
X113646571Y-93104286D01*
X113646571Y-93104286D02*
X113760857Y-92532857D01*
X114160857Y-94132857D02*
X113532285Y-94132857D01*
X113532285Y-94132857D02*
X113418000Y-94075714D01*
X113418000Y-94075714D02*
X113360857Y-93961428D01*
X113360857Y-93961428D02*
X113360857Y-93732857D01*
X113360857Y-93732857D02*
X113418000Y-93618571D01*
X114103714Y-94132857D02*
X114160857Y-94018571D01*
X114160857Y-94018571D02*
X114160857Y-93732857D01*
X114160857Y-93732857D02*
X114103714Y-93618571D01*
X114103714Y-93618571D02*
X113989428Y-93561428D01*
X113989428Y-93561428D02*
X113875142Y-93561428D01*
X113875142Y-93561428D02*
X113760857Y-93618571D01*
X113760857Y-93618571D02*
X113703714Y-93732857D01*
X113703714Y-93732857D02*
X113703714Y-94018571D01*
X113703714Y-94018571D02*
X113646571Y-94132857D01*
X114160857Y-96109999D02*
X113589428Y-95709999D01*
X114160857Y-95424285D02*
X112960857Y-95424285D01*
X112960857Y-95424285D02*
X112960857Y-95881428D01*
X112960857Y-95881428D02*
X113018000Y-95995713D01*
X113018000Y-95995713D02*
X113075142Y-96052856D01*
X113075142Y-96052856D02*
X113189428Y-96109999D01*
X113189428Y-96109999D02*
X113360857Y-96109999D01*
X113360857Y-96109999D02*
X113475142Y-96052856D01*
X113475142Y-96052856D02*
X113532285Y-95995713D01*
X113532285Y-95995713D02*
X113589428Y-95881428D01*
X113589428Y-95881428D02*
X113589428Y-95424285D01*
X114160857Y-96624285D02*
X112960857Y-96624285D01*
X114160857Y-98544285D02*
X114160857Y-97858571D01*
X114160857Y-98201428D02*
X112960857Y-98201428D01*
X112960857Y-98201428D02*
X113132285Y-98087142D01*
X113132285Y-98087142D02*
X113246571Y-97972857D01*
X113246571Y-97972857D02*
X113303714Y-97858571D01*
X114046571Y-99058571D02*
X114103714Y-99115714D01*
X114103714Y-99115714D02*
X114160857Y-99058571D01*
X114160857Y-99058571D02*
X114103714Y-99001428D01*
X114103714Y-99001428D02*
X114046571Y-99058571D01*
X114046571Y-99058571D02*
X114160857Y-99058571D01*
X113075142Y-99572857D02*
X113018000Y-99630000D01*
X113018000Y-99630000D02*
X112960857Y-99744286D01*
X112960857Y-99744286D02*
X112960857Y-100030000D01*
X112960857Y-100030000D02*
X113018000Y-100144286D01*
X113018000Y-100144286D02*
X113075142Y-100201428D01*
X113075142Y-100201428D02*
X113189428Y-100258571D01*
X113189428Y-100258571D02*
X113303714Y-100258571D01*
X113303714Y-100258571D02*
X113475142Y-100201428D01*
X113475142Y-100201428D02*
X114160857Y-99515714D01*
X114160857Y-99515714D02*
X114160857Y-100258571D01*
X113703714Y-101492857D02*
X113703714Y-102407143D01*
X112960857Y-103207142D02*
X112960857Y-103321428D01*
X112960857Y-103321428D02*
X113018000Y-103435714D01*
X113018000Y-103435714D02*
X113075142Y-103492857D01*
X113075142Y-103492857D02*
X113189428Y-103549999D01*
X113189428Y-103549999D02*
X113418000Y-103607142D01*
X113418000Y-103607142D02*
X113703714Y-103607142D01*
X113703714Y-103607142D02*
X113932285Y-103549999D01*
X113932285Y-103549999D02*
X114046571Y-103492857D01*
X114046571Y-103492857D02*
X114103714Y-103435714D01*
X114103714Y-103435714D02*
X114160857Y-103321428D01*
X114160857Y-103321428D02*
X114160857Y-103207142D01*
X114160857Y-103207142D02*
X114103714Y-103092857D01*
X114103714Y-103092857D02*
X114046571Y-103035714D01*
X114046571Y-103035714D02*
X113932285Y-102978571D01*
X113932285Y-102978571D02*
X113703714Y-102921428D01*
X113703714Y-102921428D02*
X113418000Y-102921428D01*
X113418000Y-102921428D02*
X113189428Y-102978571D01*
X113189428Y-102978571D02*
X113075142Y-103035714D01*
X113075142Y-103035714D02*
X113018000Y-103092857D01*
X113018000Y-103092857D02*
X112960857Y-103207142D01*
X114046571Y-104121428D02*
X114103714Y-104178571D01*
X114103714Y-104178571D02*
X114160857Y-104121428D01*
X114160857Y-104121428D02*
X114103714Y-104064285D01*
X114103714Y-104064285D02*
X114046571Y-104121428D01*
X114046571Y-104121428D02*
X114160857Y-104121428D01*
X113075142Y-104635714D02*
X113018000Y-104692857D01*
X113018000Y-104692857D02*
X112960857Y-104807143D01*
X112960857Y-104807143D02*
X112960857Y-105092857D01*
X112960857Y-105092857D02*
X113018000Y-105207143D01*
X113018000Y-105207143D02*
X113075142Y-105264285D01*
X113075142Y-105264285D02*
X113189428Y-105321428D01*
X113189428Y-105321428D02*
X113303714Y-105321428D01*
X113303714Y-105321428D02*
X113475142Y-105264285D01*
X113475142Y-105264285D02*
X114160857Y-104578571D01*
X114160857Y-104578571D02*
X114160857Y-105321428D01*
X112960857Y-106407142D02*
X112960857Y-105835714D01*
X112960857Y-105835714D02*
X113532285Y-105778571D01*
X113532285Y-105778571D02*
X113475142Y-105835714D01*
X113475142Y-105835714D02*
X113418000Y-105950000D01*
X113418000Y-105950000D02*
X113418000Y-106235714D01*
X113418000Y-106235714D02*
X113475142Y-106350000D01*
X113475142Y-106350000D02*
X113532285Y-106407142D01*
X113532285Y-106407142D02*
X113646571Y-106464285D01*
X113646571Y-106464285D02*
X113932285Y-106464285D01*
X113932285Y-106464285D02*
X114046571Y-106407142D01*
X114046571Y-106407142D02*
X114103714Y-106350000D01*
X114103714Y-106350000D02*
X114160857Y-106235714D01*
X114160857Y-106235714D02*
X114160857Y-105950000D01*
X114160857Y-105950000D02*
X114103714Y-105835714D01*
X114103714Y-105835714D02*
X114046571Y-105778571D01*
X113360857Y-107492857D02*
X114160857Y-107492857D01*
X113360857Y-106978571D02*
X113989428Y-106978571D01*
X113989428Y-106978571D02*
X114103714Y-107035714D01*
X114103714Y-107035714D02*
X114160857Y-107149999D01*
X114160857Y-107149999D02*
X114160857Y-107321428D01*
X114160857Y-107321428D02*
X114103714Y-107435714D01*
X114103714Y-107435714D02*
X114046571Y-107492857D01*
%LPC*%
D11*
X114696900Y-114300000D03*
X148034425Y-71437500D03*
X148034425Y-109537500D03*
X114696900Y-76200000D03*
M02*
