%TF.GenerationSoftware,KiCad,Pcbnew,(7.0.0-0)*%
%TF.CreationDate,2023-03-21T21:29:08+09:00*%
%TF.ProjectId,pangaea-top-pinkey-0.25u,70616e67-6165-4612-9d74-6f702d70696e,1*%
%TF.SameCoordinates,Original*%
%TF.FileFunction,Drillmap*%
%TF.FilePolarity,Positive*%
%FSLAX45Y45*%
G04 Gerber Fmt 4.5, Leading zero omitted, Abs format (unit mm)*
G04 Created by KiCad (PCBNEW (7.0.0-0)) date 2023-03-21 21:29:08*
%MOMM*%
%LPD*%
G01*
G04 APERTURE LIST*
%ADD10C,0.150000*%
%ADD11C,0.200000*%
G04 APERTURE END LIST*
D10*
X15041570Y-5318125D02*
G75*
G03*
X14962187Y-5238750I-79380J-5D01*
G01*
X11231560Y-13255625D02*
G75*
G03*
X11310937Y-13335000I79380J5D01*
G01*
X14962187Y-5238750D02*
X13215937Y-5238750D01*
X13058260Y-13334897D02*
G75*
G03*
X13136978Y-13254874I-1320J80027D01*
G01*
X14962187Y-12858802D02*
G75*
G03*
X15041562Y-12779437I3J79373D01*
G01*
X13215937Y-5238753D02*
G75*
G03*
X13136562Y-5318125I3J-79378D01*
G01*
X13057187Y-5714992D02*
G75*
G03*
X13136562Y-5635625I3J79373D01*
G01*
X15041562Y-5318125D02*
X15041562Y-12779437D01*
X11231562Y-5794375D02*
X11231562Y-13255625D01*
X13057187Y-5715000D02*
X11310937Y-5715000D01*
X11310937Y-5715002D02*
G75*
G03*
X11231562Y-5794375I3J-79378D01*
G01*
X13058260Y-13334898D02*
X11310937Y-13335000D01*
X13216127Y-12857977D02*
X14962187Y-12858812D01*
X13216127Y-12857978D02*
G75*
G03*
X13136978Y-12937126I3J-79152D01*
G01*
X13136562Y-5318125D02*
X13136562Y-5635625D01*
X13136978Y-12937126D02*
X13136978Y-13254874D01*
D11*
X11471681Y-13635976D02*
X11471681Y-13435976D01*
X11471681Y-13435976D02*
X11519300Y-13435976D01*
X11519300Y-13435976D02*
X11547872Y-13445500D01*
X11547872Y-13445500D02*
X11566920Y-13464548D01*
X11566920Y-13464548D02*
X11576443Y-13483595D01*
X11576443Y-13483595D02*
X11585967Y-13521690D01*
X11585967Y-13521690D02*
X11585967Y-13550262D01*
X11585967Y-13550262D02*
X11576443Y-13588357D01*
X11576443Y-13588357D02*
X11566920Y-13607405D01*
X11566920Y-13607405D02*
X11547872Y-13626452D01*
X11547872Y-13626452D02*
X11519300Y-13635976D01*
X11519300Y-13635976D02*
X11471681Y-13635976D01*
X11671681Y-13635976D02*
X11671681Y-13502643D01*
X11671681Y-13540738D02*
X11681205Y-13521690D01*
X11681205Y-13521690D02*
X11690729Y-13512167D01*
X11690729Y-13512167D02*
X11709777Y-13502643D01*
X11709777Y-13502643D02*
X11728824Y-13502643D01*
X11795491Y-13635976D02*
X11795491Y-13502643D01*
X11795491Y-13435976D02*
X11785967Y-13445500D01*
X11785967Y-13445500D02*
X11795491Y-13455024D01*
X11795491Y-13455024D02*
X11805015Y-13445500D01*
X11805015Y-13445500D02*
X11795491Y-13435976D01*
X11795491Y-13435976D02*
X11795491Y-13455024D01*
X11919300Y-13635976D02*
X11900253Y-13626452D01*
X11900253Y-13626452D02*
X11890729Y-13607405D01*
X11890729Y-13607405D02*
X11890729Y-13435976D01*
X12024062Y-13635976D02*
X12005015Y-13626452D01*
X12005015Y-13626452D02*
X11995491Y-13607405D01*
X11995491Y-13607405D02*
X11995491Y-13435976D01*
X12220253Y-13635976D02*
X12220253Y-13435976D01*
X12220253Y-13435976D02*
X12286920Y-13578833D01*
X12286920Y-13578833D02*
X12353586Y-13435976D01*
X12353586Y-13435976D02*
X12353586Y-13635976D01*
X12534539Y-13635976D02*
X12534539Y-13531214D01*
X12534539Y-13531214D02*
X12525015Y-13512167D01*
X12525015Y-13512167D02*
X12505967Y-13502643D01*
X12505967Y-13502643D02*
X12467872Y-13502643D01*
X12467872Y-13502643D02*
X12448824Y-13512167D01*
X12534539Y-13626452D02*
X12515491Y-13635976D01*
X12515491Y-13635976D02*
X12467872Y-13635976D01*
X12467872Y-13635976D02*
X12448824Y-13626452D01*
X12448824Y-13626452D02*
X12439300Y-13607405D01*
X12439300Y-13607405D02*
X12439300Y-13588357D01*
X12439300Y-13588357D02*
X12448824Y-13569309D01*
X12448824Y-13569309D02*
X12467872Y-13559786D01*
X12467872Y-13559786D02*
X12515491Y-13559786D01*
X12515491Y-13559786D02*
X12534539Y-13550262D01*
X12629777Y-13502643D02*
X12629777Y-13702643D01*
X12629777Y-13512167D02*
X12648824Y-13502643D01*
X12648824Y-13502643D02*
X12686920Y-13502643D01*
X12686920Y-13502643D02*
X12705967Y-13512167D01*
X12705967Y-13512167D02*
X12715491Y-13521690D01*
X12715491Y-13521690D02*
X12725015Y-13540738D01*
X12725015Y-13540738D02*
X12725015Y-13597881D01*
X12725015Y-13597881D02*
X12715491Y-13616928D01*
X12715491Y-13616928D02*
X12705967Y-13626452D01*
X12705967Y-13626452D02*
X12686920Y-13635976D01*
X12686920Y-13635976D02*
X12648824Y-13635976D01*
X12648824Y-13635976D02*
X12629777Y-13626452D01*
X12810729Y-13616928D02*
X12820253Y-13626452D01*
X12820253Y-13626452D02*
X12810729Y-13635976D01*
X12810729Y-13635976D02*
X12801205Y-13626452D01*
X12801205Y-13626452D02*
X12810729Y-13616928D01*
X12810729Y-13616928D02*
X12810729Y-13635976D01*
X12810729Y-13512167D02*
X12820253Y-13521690D01*
X12820253Y-13521690D02*
X12810729Y-13531214D01*
X12810729Y-13531214D02*
X12801205Y-13521690D01*
X12801205Y-13521690D02*
X12810729Y-13512167D01*
X12810729Y-13512167D02*
X12810729Y-13531214D01*
M02*
