G04 #@! TF.GenerationSoftware,KiCad,Pcbnew,(7.0.0-0)*
G04 #@! TF.CreationDate,2023-03-21T21:29:09+09:00*
G04 #@! TF.ProjectId,pangaea-top-pinkey-0.25u,70616e67-6165-4612-9d74-6f702d70696e,1*
G04 #@! TF.SameCoordinates,Original*
G04 #@! TF.FileFunction,Profile,NP*
%FSLAX46Y46*%
G04 Gerber Fmt 4.6, Leading zero omitted, Abs format (unit mm)*
G04 Created by KiCad (PCBNEW (7.0.0-0)) date 2023-03-21 21:29:09*
%MOMM*%
%LPD*%
G01*
G04 APERTURE LIST*
G04 #@! TA.AperFunction,Profile*
%ADD10C,0.150000*%
G04 #@! TD*
G04 APERTURE END LIST*
D10*
X150415700Y-53181250D02*
G75*
G03*
X149621875Y-52387500I-793800J-50D01*
G01*
X112315600Y-132556250D02*
G75*
G03*
X113109375Y-133350000I793800J50D01*
G01*
X149621875Y-52387500D02*
X132159375Y-52387500D01*
X130582597Y-133348972D02*
G75*
G03*
X131369781Y-132548742I-13197J800272D01*
G01*
X149621875Y-128588025D02*
G75*
G03*
X150415625Y-127794367I25J793725D01*
G01*
X132159375Y-52387525D02*
G75*
G03*
X131365625Y-53181250I25J-793775D01*
G01*
X130571875Y-57149925D02*
G75*
G03*
X131365625Y-56356250I25J793725D01*
G01*
X150415625Y-53181250D02*
X150415625Y-127794367D01*
X112315625Y-57943750D02*
X112315625Y-132556250D01*
X130571875Y-57150000D02*
X113109375Y-57150000D01*
X113109375Y-57150025D02*
G75*
G03*
X112315625Y-57943750I25J-793775D01*
G01*
X130582597Y-133348983D02*
X113109375Y-133350000D01*
X132161266Y-128579771D02*
X149621875Y-128588117D01*
X132161266Y-128579781D02*
G75*
G03*
X131369781Y-129371256I34J-791519D01*
G01*
X131365625Y-53181250D02*
X131365625Y-56356250D01*
X131369781Y-129371256D02*
X131369781Y-132548742D01*
X114840625Y-97775000D02*
X114840625Y-111775000D01*
X128840625Y-97775000D02*
X114840625Y-97775000D01*
X128840625Y-97775000D02*
X128840625Y-111775000D01*
X128840625Y-111775000D02*
X114840625Y-111775000D01*
X133890625Y-73962500D02*
X133890625Y-87962500D01*
X147890625Y-73962500D02*
X133890625Y-73962500D01*
X147890625Y-73962500D02*
X147890625Y-87962500D01*
X147890625Y-87962500D02*
X133890625Y-87962500D01*
X114840625Y-116825000D02*
X114840625Y-130825000D01*
X128840625Y-116825000D02*
X114840625Y-116825000D01*
X128840625Y-116825000D02*
X128840625Y-130825000D01*
X128840625Y-130825000D02*
X114840625Y-130825000D01*
X133890625Y-93012500D02*
X133890625Y-107012500D01*
X147890625Y-93012500D02*
X133890625Y-93012500D01*
X147890625Y-93012500D02*
X147890625Y-107012500D01*
X147890625Y-107012500D02*
X133890625Y-107012500D01*
X114840625Y-78725000D02*
X114840625Y-92725000D01*
X128840625Y-78725000D02*
X114840625Y-78725000D01*
X128840625Y-78725000D02*
X128840625Y-92725000D01*
X128840625Y-92725000D02*
X114840625Y-92725000D01*
X114840625Y-59675000D02*
X114840625Y-73675000D01*
X128840625Y-59675000D02*
X114840625Y-59675000D01*
X128840625Y-59675000D02*
X128840625Y-73675000D01*
X128840625Y-73675000D02*
X114840625Y-73675000D01*
X133890625Y-112062500D02*
X133890625Y-126062500D01*
X147890625Y-112062500D02*
X133890625Y-112062500D01*
X147890625Y-112062500D02*
X147890625Y-126062500D01*
X147890625Y-126062500D02*
X133890625Y-126062500D01*
X133890625Y-54912500D02*
X133890625Y-68912500D01*
X147890625Y-54912500D02*
X133890625Y-54912500D01*
X147890625Y-54912500D02*
X147890625Y-68912500D01*
X147890625Y-68912500D02*
X133890625Y-68912500D01*
M02*
