%TF.GenerationSoftware,KiCad,Pcbnew,(7.0.0-0)*%
%TF.CreationDate,2023-03-21T21:29:08+09:00*%
%TF.ProjectId,pangaea-top-pinkey-0.25u,70616e67-6165-4612-9d74-6f702d70696e,1*%
%TF.SameCoordinates,Original*%
%TF.FileFunction,Drillmap*%
%TF.FilePolarity,Positive*%
%FSLAX45Y45*%
G04 Gerber Fmt 4.5, Leading zero omitted, Abs format (unit mm)*
G04 Created by KiCad (PCBNEW (7.0.0-0)) date 2023-03-21 21:29:08*
%MOMM*%
%LPD*%
G01*
G04 APERTURE LIST*
%ADD10C,0.150000*%
%ADD11C,0.200000*%
%ADD12C,0.195000*%
G04 APERTURE END LIST*
D10*
X15041570Y-5318125D02*
G75*
G03*
X14962187Y-5238750I-79380J-5D01*
G01*
X11231560Y-13255625D02*
G75*
G03*
X11310937Y-13335000I79380J5D01*
G01*
X14962187Y-5238750D02*
X13215937Y-5238750D01*
X13058260Y-13334897D02*
G75*
G03*
X13136978Y-13254874I-1320J80027D01*
G01*
X14962187Y-12858802D02*
G75*
G03*
X15041562Y-12779437I3J79373D01*
G01*
X13215937Y-5238753D02*
G75*
G03*
X13136562Y-5318125I3J-79378D01*
G01*
X13057187Y-5714992D02*
G75*
G03*
X13136562Y-5635625I3J79373D01*
G01*
X15041562Y-5318125D02*
X15041562Y-12779437D01*
X11231562Y-5794375D02*
X11231562Y-13255625D01*
X13057187Y-5715000D02*
X11310937Y-5715000D01*
X11310937Y-5715002D02*
G75*
G03*
X11231562Y-5794375I3J-79378D01*
G01*
X13058260Y-13334898D02*
X11310937Y-13335000D01*
X13216127Y-12857977D02*
X14962187Y-12858812D01*
X13216127Y-12857978D02*
G75*
G03*
X13136978Y-12937126I3J-79152D01*
G01*
X13136562Y-5318125D02*
X13136562Y-5635625D01*
X13136978Y-12937126D02*
X13136978Y-13254874D01*
D11*
D12*
X11372190Y-7522500D02*
X11567190Y-7717500D01*
X11567190Y-7522500D02*
X11372190Y-7717500D01*
X11372190Y-11332500D02*
X11567190Y-11527500D01*
X11567190Y-11332500D02*
X11372190Y-11527500D01*
X14705942Y-7046250D02*
X14900942Y-7241250D01*
X14900942Y-7046250D02*
X14705942Y-7241250D01*
X14705942Y-10856250D02*
X14900942Y-11051250D01*
X14900942Y-10856250D02*
X14705942Y-11051250D01*
D11*
X11471681Y-13635976D02*
X11471681Y-13435976D01*
X11471681Y-13435976D02*
X11519300Y-13435976D01*
X11519300Y-13435976D02*
X11547872Y-13445500D01*
X11547872Y-13445500D02*
X11566920Y-13464548D01*
X11566920Y-13464548D02*
X11576443Y-13483595D01*
X11576443Y-13483595D02*
X11585967Y-13521690D01*
X11585967Y-13521690D02*
X11585967Y-13550262D01*
X11585967Y-13550262D02*
X11576443Y-13588357D01*
X11576443Y-13588357D02*
X11566920Y-13607405D01*
X11566920Y-13607405D02*
X11547872Y-13626452D01*
X11547872Y-13626452D02*
X11519300Y-13635976D01*
X11519300Y-13635976D02*
X11471681Y-13635976D01*
X11671681Y-13635976D02*
X11671681Y-13502643D01*
X11671681Y-13540738D02*
X11681205Y-13521690D01*
X11681205Y-13521690D02*
X11690729Y-13512167D01*
X11690729Y-13512167D02*
X11709777Y-13502643D01*
X11709777Y-13502643D02*
X11728824Y-13502643D01*
X11795491Y-13635976D02*
X11795491Y-13502643D01*
X11795491Y-13435976D02*
X11785967Y-13445500D01*
X11785967Y-13445500D02*
X11795491Y-13455024D01*
X11795491Y-13455024D02*
X11805015Y-13445500D01*
X11805015Y-13445500D02*
X11795491Y-13435976D01*
X11795491Y-13435976D02*
X11795491Y-13455024D01*
X11919300Y-13635976D02*
X11900253Y-13626452D01*
X11900253Y-13626452D02*
X11890729Y-13607405D01*
X11890729Y-13607405D02*
X11890729Y-13435976D01*
X12024062Y-13635976D02*
X12005015Y-13626452D01*
X12005015Y-13626452D02*
X11995491Y-13607405D01*
X11995491Y-13607405D02*
X11995491Y-13435976D01*
X12220253Y-13635976D02*
X12220253Y-13435976D01*
X12220253Y-13435976D02*
X12286920Y-13578833D01*
X12286920Y-13578833D02*
X12353586Y-13435976D01*
X12353586Y-13435976D02*
X12353586Y-13635976D01*
X12534539Y-13635976D02*
X12534539Y-13531214D01*
X12534539Y-13531214D02*
X12525015Y-13512167D01*
X12525015Y-13512167D02*
X12505967Y-13502643D01*
X12505967Y-13502643D02*
X12467872Y-13502643D01*
X12467872Y-13502643D02*
X12448824Y-13512167D01*
X12534539Y-13626452D02*
X12515491Y-13635976D01*
X12515491Y-13635976D02*
X12467872Y-13635976D01*
X12467872Y-13635976D02*
X12448824Y-13626452D01*
X12448824Y-13626452D02*
X12439300Y-13607405D01*
X12439300Y-13607405D02*
X12439300Y-13588357D01*
X12439300Y-13588357D02*
X12448824Y-13569309D01*
X12448824Y-13569309D02*
X12467872Y-13559786D01*
X12467872Y-13559786D02*
X12515491Y-13559786D01*
X12515491Y-13559786D02*
X12534539Y-13550262D01*
X12629777Y-13502643D02*
X12629777Y-13702643D01*
X12629777Y-13512167D02*
X12648824Y-13502643D01*
X12648824Y-13502643D02*
X12686920Y-13502643D01*
X12686920Y-13502643D02*
X12705967Y-13512167D01*
X12705967Y-13512167D02*
X12715491Y-13521690D01*
X12715491Y-13521690D02*
X12725015Y-13540738D01*
X12725015Y-13540738D02*
X12725015Y-13597881D01*
X12725015Y-13597881D02*
X12715491Y-13616928D01*
X12715491Y-13616928D02*
X12705967Y-13626452D01*
X12705967Y-13626452D02*
X12686920Y-13635976D01*
X12686920Y-13635976D02*
X12648824Y-13635976D01*
X12648824Y-13635976D02*
X12629777Y-13626452D01*
X12810729Y-13616928D02*
X12820253Y-13626452D01*
X12820253Y-13626452D02*
X12810729Y-13635976D01*
X12810729Y-13635976D02*
X12801205Y-13626452D01*
X12801205Y-13626452D02*
X12810729Y-13616928D01*
X12810729Y-13616928D02*
X12810729Y-13635976D01*
X12810729Y-13512167D02*
X12820253Y-13521690D01*
X12820253Y-13521690D02*
X12810729Y-13531214D01*
X12810729Y-13531214D02*
X12801205Y-13521690D01*
X12801205Y-13521690D02*
X12810729Y-13512167D01*
X12810729Y-13512167D02*
X12810729Y-13531214D01*
D12*
X11029063Y-13885000D02*
X11224062Y-14080000D01*
X11224062Y-13885000D02*
X11029063Y-14080000D01*
D11*
X11576443Y-14055976D02*
X11462158Y-14055976D01*
X11519300Y-14055976D02*
X11519300Y-13855976D01*
X11519300Y-13855976D02*
X11500253Y-13884548D01*
X11500253Y-13884548D02*
X11481205Y-13903595D01*
X11481205Y-13903595D02*
X11462158Y-13913119D01*
X11662158Y-14036928D02*
X11671681Y-14046452D01*
X11671681Y-14046452D02*
X11662158Y-14055976D01*
X11662158Y-14055976D02*
X11652634Y-14046452D01*
X11652634Y-14046452D02*
X11662158Y-14036928D01*
X11662158Y-14036928D02*
X11662158Y-14055976D01*
X11766920Y-14055976D02*
X11805015Y-14055976D01*
X11805015Y-14055976D02*
X11824062Y-14046452D01*
X11824062Y-14046452D02*
X11833586Y-14036928D01*
X11833586Y-14036928D02*
X11852634Y-14008357D01*
X11852634Y-14008357D02*
X11862158Y-13970262D01*
X11862158Y-13970262D02*
X11862158Y-13894071D01*
X11862158Y-13894071D02*
X11852634Y-13875024D01*
X11852634Y-13875024D02*
X11843110Y-13865500D01*
X11843110Y-13865500D02*
X11824062Y-13855976D01*
X11824062Y-13855976D02*
X11785967Y-13855976D01*
X11785967Y-13855976D02*
X11766920Y-13865500D01*
X11766920Y-13865500D02*
X11757396Y-13875024D01*
X11757396Y-13875024D02*
X11747872Y-13894071D01*
X11747872Y-13894071D02*
X11747872Y-13941690D01*
X11747872Y-13941690D02*
X11757396Y-13960738D01*
X11757396Y-13960738D02*
X11766920Y-13970262D01*
X11766920Y-13970262D02*
X11785967Y-13979786D01*
X11785967Y-13979786D02*
X11824062Y-13979786D01*
X11824062Y-13979786D02*
X11843110Y-13970262D01*
X11843110Y-13970262D02*
X11852634Y-13960738D01*
X11852634Y-13960738D02*
X11862158Y-13941690D01*
X12043110Y-13855976D02*
X11947872Y-13855976D01*
X11947872Y-13855976D02*
X11938348Y-13951214D01*
X11938348Y-13951214D02*
X11947872Y-13941690D01*
X11947872Y-13941690D02*
X11966920Y-13932167D01*
X11966920Y-13932167D02*
X12014539Y-13932167D01*
X12014539Y-13932167D02*
X12033586Y-13941690D01*
X12033586Y-13941690D02*
X12043110Y-13951214D01*
X12043110Y-13951214D02*
X12052634Y-13970262D01*
X12052634Y-13970262D02*
X12052634Y-14017881D01*
X12052634Y-14017881D02*
X12043110Y-14036928D01*
X12043110Y-14036928D02*
X12033586Y-14046452D01*
X12033586Y-14046452D02*
X12014539Y-14055976D01*
X12014539Y-14055976D02*
X11966920Y-14055976D01*
X11966920Y-14055976D02*
X11947872Y-14046452D01*
X11947872Y-14046452D02*
X11938348Y-14036928D01*
X12176443Y-13855976D02*
X12195491Y-13855976D01*
X12195491Y-13855976D02*
X12214539Y-13865500D01*
X12214539Y-13865500D02*
X12224062Y-13875024D01*
X12224062Y-13875024D02*
X12233586Y-13894071D01*
X12233586Y-13894071D02*
X12243110Y-13932167D01*
X12243110Y-13932167D02*
X12243110Y-13979786D01*
X12243110Y-13979786D02*
X12233586Y-14017881D01*
X12233586Y-14017881D02*
X12224062Y-14036928D01*
X12224062Y-14036928D02*
X12214539Y-14046452D01*
X12214539Y-14046452D02*
X12195491Y-14055976D01*
X12195491Y-14055976D02*
X12176443Y-14055976D01*
X12176443Y-14055976D02*
X12157396Y-14046452D01*
X12157396Y-14046452D02*
X12147872Y-14036928D01*
X12147872Y-14036928D02*
X12138348Y-14017881D01*
X12138348Y-14017881D02*
X12128824Y-13979786D01*
X12128824Y-13979786D02*
X12128824Y-13932167D01*
X12128824Y-13932167D02*
X12138348Y-13894071D01*
X12138348Y-13894071D02*
X12147872Y-13875024D01*
X12147872Y-13875024D02*
X12157396Y-13865500D01*
X12157396Y-13865500D02*
X12176443Y-13855976D01*
X12328824Y-14055976D02*
X12328824Y-13922643D01*
X12328824Y-13941690D02*
X12338348Y-13932167D01*
X12338348Y-13932167D02*
X12357396Y-13922643D01*
X12357396Y-13922643D02*
X12385967Y-13922643D01*
X12385967Y-13922643D02*
X12405015Y-13932167D01*
X12405015Y-13932167D02*
X12414539Y-13951214D01*
X12414539Y-13951214D02*
X12414539Y-14055976D01*
X12414539Y-13951214D02*
X12424062Y-13932167D01*
X12424062Y-13932167D02*
X12443110Y-13922643D01*
X12443110Y-13922643D02*
X12471681Y-13922643D01*
X12471681Y-13922643D02*
X12490729Y-13932167D01*
X12490729Y-13932167D02*
X12500253Y-13951214D01*
X12500253Y-13951214D02*
X12500253Y-14055976D01*
X12595491Y-14055976D02*
X12595491Y-13922643D01*
X12595491Y-13941690D02*
X12605015Y-13932167D01*
X12605015Y-13932167D02*
X12624062Y-13922643D01*
X12624062Y-13922643D02*
X12652634Y-13922643D01*
X12652634Y-13922643D02*
X12671682Y-13932167D01*
X12671682Y-13932167D02*
X12681205Y-13951214D01*
X12681205Y-13951214D02*
X12681205Y-14055976D01*
X12681205Y-13951214D02*
X12690729Y-13932167D01*
X12690729Y-13932167D02*
X12709777Y-13922643D01*
X12709777Y-13922643D02*
X12738348Y-13922643D01*
X12738348Y-13922643D02*
X12757396Y-13932167D01*
X12757396Y-13932167D02*
X12766920Y-13951214D01*
X12766920Y-13951214D02*
X12766920Y-14055976D01*
X13125015Y-13846452D02*
X12953586Y-14103595D01*
X13349777Y-13855976D02*
X13368824Y-13855976D01*
X13368824Y-13855976D02*
X13387872Y-13865500D01*
X13387872Y-13865500D02*
X13397396Y-13875024D01*
X13397396Y-13875024D02*
X13406920Y-13894071D01*
X13406920Y-13894071D02*
X13416443Y-13932167D01*
X13416443Y-13932167D02*
X13416443Y-13979786D01*
X13416443Y-13979786D02*
X13406920Y-14017881D01*
X13406920Y-14017881D02*
X13397396Y-14036928D01*
X13397396Y-14036928D02*
X13387872Y-14046452D01*
X13387872Y-14046452D02*
X13368824Y-14055976D01*
X13368824Y-14055976D02*
X13349777Y-14055976D01*
X13349777Y-14055976D02*
X13330729Y-14046452D01*
X13330729Y-14046452D02*
X13321205Y-14036928D01*
X13321205Y-14036928D02*
X13311682Y-14017881D01*
X13311682Y-14017881D02*
X13302158Y-13979786D01*
X13302158Y-13979786D02*
X13302158Y-13932167D01*
X13302158Y-13932167D02*
X13311682Y-13894071D01*
X13311682Y-13894071D02*
X13321205Y-13875024D01*
X13321205Y-13875024D02*
X13330729Y-13865500D01*
X13330729Y-13865500D02*
X13349777Y-13855976D01*
X13502158Y-14036928D02*
X13511682Y-14046452D01*
X13511682Y-14046452D02*
X13502158Y-14055976D01*
X13502158Y-14055976D02*
X13492634Y-14046452D01*
X13492634Y-14046452D02*
X13502158Y-14036928D01*
X13502158Y-14036928D02*
X13502158Y-14055976D01*
X13635491Y-13855976D02*
X13654539Y-13855976D01*
X13654539Y-13855976D02*
X13673586Y-13865500D01*
X13673586Y-13865500D02*
X13683110Y-13875024D01*
X13683110Y-13875024D02*
X13692634Y-13894071D01*
X13692634Y-13894071D02*
X13702158Y-13932167D01*
X13702158Y-13932167D02*
X13702158Y-13979786D01*
X13702158Y-13979786D02*
X13692634Y-14017881D01*
X13692634Y-14017881D02*
X13683110Y-14036928D01*
X13683110Y-14036928D02*
X13673586Y-14046452D01*
X13673586Y-14046452D02*
X13654539Y-14055976D01*
X13654539Y-14055976D02*
X13635491Y-14055976D01*
X13635491Y-14055976D02*
X13616443Y-14046452D01*
X13616443Y-14046452D02*
X13606920Y-14036928D01*
X13606920Y-14036928D02*
X13597396Y-14017881D01*
X13597396Y-14017881D02*
X13587872Y-13979786D01*
X13587872Y-13979786D02*
X13587872Y-13932167D01*
X13587872Y-13932167D02*
X13597396Y-13894071D01*
X13597396Y-13894071D02*
X13606920Y-13875024D01*
X13606920Y-13875024D02*
X13616443Y-13865500D01*
X13616443Y-13865500D02*
X13635491Y-13855976D01*
X13768824Y-13855976D02*
X13902158Y-13855976D01*
X13902158Y-13855976D02*
X13816443Y-14055976D01*
X14064063Y-13855976D02*
X14025967Y-13855976D01*
X14025967Y-13855976D02*
X14006920Y-13865500D01*
X14006920Y-13865500D02*
X13997396Y-13875024D01*
X13997396Y-13875024D02*
X13978348Y-13903595D01*
X13978348Y-13903595D02*
X13968824Y-13941690D01*
X13968824Y-13941690D02*
X13968824Y-14017881D01*
X13968824Y-14017881D02*
X13978348Y-14036928D01*
X13978348Y-14036928D02*
X13987872Y-14046452D01*
X13987872Y-14046452D02*
X14006920Y-14055976D01*
X14006920Y-14055976D02*
X14045015Y-14055976D01*
X14045015Y-14055976D02*
X14064063Y-14046452D01*
X14064063Y-14046452D02*
X14073586Y-14036928D01*
X14073586Y-14036928D02*
X14083110Y-14017881D01*
X14083110Y-14017881D02*
X14083110Y-13970262D01*
X14083110Y-13970262D02*
X14073586Y-13951214D01*
X14073586Y-13951214D02*
X14064063Y-13941690D01*
X14064063Y-13941690D02*
X14045015Y-13932167D01*
X14045015Y-13932167D02*
X14006920Y-13932167D01*
X14006920Y-13932167D02*
X13987872Y-13941690D01*
X13987872Y-13941690D02*
X13978348Y-13951214D01*
X13978348Y-13951214D02*
X13968824Y-13970262D01*
X14197396Y-13941690D02*
X14178348Y-13932167D01*
X14178348Y-13932167D02*
X14168824Y-13922643D01*
X14168824Y-13922643D02*
X14159301Y-13903595D01*
X14159301Y-13903595D02*
X14159301Y-13894071D01*
X14159301Y-13894071D02*
X14168824Y-13875024D01*
X14168824Y-13875024D02*
X14178348Y-13865500D01*
X14178348Y-13865500D02*
X14197396Y-13855976D01*
X14197396Y-13855976D02*
X14235491Y-13855976D01*
X14235491Y-13855976D02*
X14254539Y-13865500D01*
X14254539Y-13865500D02*
X14264063Y-13875024D01*
X14264063Y-13875024D02*
X14273586Y-13894071D01*
X14273586Y-13894071D02*
X14273586Y-13903595D01*
X14273586Y-13903595D02*
X14264063Y-13922643D01*
X14264063Y-13922643D02*
X14254539Y-13932167D01*
X14254539Y-13932167D02*
X14235491Y-13941690D01*
X14235491Y-13941690D02*
X14197396Y-13941690D01*
X14197396Y-13941690D02*
X14178348Y-13951214D01*
X14178348Y-13951214D02*
X14168824Y-13960738D01*
X14168824Y-13960738D02*
X14159301Y-13979786D01*
X14159301Y-13979786D02*
X14159301Y-14017881D01*
X14159301Y-14017881D02*
X14168824Y-14036928D01*
X14168824Y-14036928D02*
X14178348Y-14046452D01*
X14178348Y-14046452D02*
X14197396Y-14055976D01*
X14197396Y-14055976D02*
X14235491Y-14055976D01*
X14235491Y-14055976D02*
X14254539Y-14046452D01*
X14254539Y-14046452D02*
X14264063Y-14036928D01*
X14264063Y-14036928D02*
X14273586Y-14017881D01*
X14273586Y-14017881D02*
X14273586Y-13979786D01*
X14273586Y-13979786D02*
X14264063Y-13960738D01*
X14264063Y-13960738D02*
X14254539Y-13951214D01*
X14254539Y-13951214D02*
X14235491Y-13941690D01*
X14349777Y-13855976D02*
X14349777Y-13894071D01*
X14425967Y-13855976D02*
X14425967Y-13894071D01*
X14688825Y-14132167D02*
X14679301Y-14122643D01*
X14679301Y-14122643D02*
X14660253Y-14094071D01*
X14660253Y-14094071D02*
X14650729Y-14075024D01*
X14650729Y-14075024D02*
X14641205Y-14046452D01*
X14641205Y-14046452D02*
X14631682Y-13998833D01*
X14631682Y-13998833D02*
X14631682Y-13960738D01*
X14631682Y-13960738D02*
X14641205Y-13913119D01*
X14641205Y-13913119D02*
X14650729Y-13884548D01*
X14650729Y-13884548D02*
X14660253Y-13865500D01*
X14660253Y-13865500D02*
X14679301Y-13836928D01*
X14679301Y-13836928D02*
X14688825Y-13827405D01*
X14850729Y-13922643D02*
X14850729Y-14055976D01*
X14803110Y-13846452D02*
X14755491Y-13989309D01*
X14755491Y-13989309D02*
X14879301Y-13989309D01*
X15075491Y-14055976D02*
X15075491Y-13855976D01*
X15161205Y-14055976D02*
X15161205Y-13951214D01*
X15161205Y-13951214D02*
X15151682Y-13932167D01*
X15151682Y-13932167D02*
X15132634Y-13922643D01*
X15132634Y-13922643D02*
X15104063Y-13922643D01*
X15104063Y-13922643D02*
X15085015Y-13932167D01*
X15085015Y-13932167D02*
X15075491Y-13941690D01*
X15285015Y-14055976D02*
X15265967Y-14046452D01*
X15265967Y-14046452D02*
X15256444Y-14036928D01*
X15256444Y-14036928D02*
X15246920Y-14017881D01*
X15246920Y-14017881D02*
X15246920Y-13960738D01*
X15246920Y-13960738D02*
X15256444Y-13941690D01*
X15256444Y-13941690D02*
X15265967Y-13932167D01*
X15265967Y-13932167D02*
X15285015Y-13922643D01*
X15285015Y-13922643D02*
X15313586Y-13922643D01*
X15313586Y-13922643D02*
X15332634Y-13932167D01*
X15332634Y-13932167D02*
X15342158Y-13941690D01*
X15342158Y-13941690D02*
X15351682Y-13960738D01*
X15351682Y-13960738D02*
X15351682Y-14017881D01*
X15351682Y-14017881D02*
X15342158Y-14036928D01*
X15342158Y-14036928D02*
X15332634Y-14046452D01*
X15332634Y-14046452D02*
X15313586Y-14055976D01*
X15313586Y-14055976D02*
X15285015Y-14055976D01*
X15465967Y-14055976D02*
X15446920Y-14046452D01*
X15446920Y-14046452D02*
X15437396Y-14027405D01*
X15437396Y-14027405D02*
X15437396Y-13855976D01*
X15618348Y-14046452D02*
X15599301Y-14055976D01*
X15599301Y-14055976D02*
X15561205Y-14055976D01*
X15561205Y-14055976D02*
X15542158Y-14046452D01*
X15542158Y-14046452D02*
X15532634Y-14027405D01*
X15532634Y-14027405D02*
X15532634Y-13951214D01*
X15532634Y-13951214D02*
X15542158Y-13932167D01*
X15542158Y-13932167D02*
X15561205Y-13922643D01*
X15561205Y-13922643D02*
X15599301Y-13922643D01*
X15599301Y-13922643D02*
X15618348Y-13932167D01*
X15618348Y-13932167D02*
X15627872Y-13951214D01*
X15627872Y-13951214D02*
X15627872Y-13970262D01*
X15627872Y-13970262D02*
X15532634Y-13989309D01*
X15704063Y-14046452D02*
X15723110Y-14055976D01*
X15723110Y-14055976D02*
X15761205Y-14055976D01*
X15761205Y-14055976D02*
X15780253Y-14046452D01*
X15780253Y-14046452D02*
X15789777Y-14027405D01*
X15789777Y-14027405D02*
X15789777Y-14017881D01*
X15789777Y-14017881D02*
X15780253Y-13998833D01*
X15780253Y-13998833D02*
X15761205Y-13989309D01*
X15761205Y-13989309D02*
X15732634Y-13989309D01*
X15732634Y-13989309D02*
X15713586Y-13979786D01*
X15713586Y-13979786D02*
X15704063Y-13960738D01*
X15704063Y-13960738D02*
X15704063Y-13951214D01*
X15704063Y-13951214D02*
X15713586Y-13932167D01*
X15713586Y-13932167D02*
X15732634Y-13922643D01*
X15732634Y-13922643D02*
X15761205Y-13922643D01*
X15761205Y-13922643D02*
X15780253Y-13932167D01*
X15856444Y-14132167D02*
X15865967Y-14122643D01*
X15865967Y-14122643D02*
X15885015Y-14094071D01*
X15885015Y-14094071D02*
X15894539Y-14075024D01*
X15894539Y-14075024D02*
X15904063Y-14046452D01*
X15904063Y-14046452D02*
X15913586Y-13998833D01*
X15913586Y-13998833D02*
X15913586Y-13960738D01*
X15913586Y-13960738D02*
X15904063Y-13913119D01*
X15904063Y-13913119D02*
X15894539Y-13884548D01*
X15894539Y-13884548D02*
X15885015Y-13865500D01*
X15885015Y-13865500D02*
X15865967Y-13836928D01*
X15865967Y-13836928D02*
X15856444Y-13827405D01*
X16185967Y-14132167D02*
X16176444Y-14122643D01*
X16176444Y-14122643D02*
X16157396Y-14094071D01*
X16157396Y-14094071D02*
X16147872Y-14075024D01*
X16147872Y-14075024D02*
X16138348Y-14046452D01*
X16138348Y-14046452D02*
X16128825Y-13998833D01*
X16128825Y-13998833D02*
X16128825Y-13960738D01*
X16128825Y-13960738D02*
X16138348Y-13913119D01*
X16138348Y-13913119D02*
X16147872Y-13884548D01*
X16147872Y-13884548D02*
X16157396Y-13865500D01*
X16157396Y-13865500D02*
X16176444Y-13836928D01*
X16176444Y-13836928D02*
X16185967Y-13827405D01*
X16262158Y-13922643D02*
X16262158Y-14055976D01*
X16262158Y-13941690D02*
X16271682Y-13932167D01*
X16271682Y-13932167D02*
X16290729Y-13922643D01*
X16290729Y-13922643D02*
X16319301Y-13922643D01*
X16319301Y-13922643D02*
X16338348Y-13932167D01*
X16338348Y-13932167D02*
X16347872Y-13951214D01*
X16347872Y-13951214D02*
X16347872Y-14055976D01*
X16471682Y-14055976D02*
X16452634Y-14046452D01*
X16452634Y-14046452D02*
X16443110Y-14036928D01*
X16443110Y-14036928D02*
X16433586Y-14017881D01*
X16433586Y-14017881D02*
X16433586Y-13960738D01*
X16433586Y-13960738D02*
X16443110Y-13941690D01*
X16443110Y-13941690D02*
X16452634Y-13932167D01*
X16452634Y-13932167D02*
X16471682Y-13922643D01*
X16471682Y-13922643D02*
X16500253Y-13922643D01*
X16500253Y-13922643D02*
X16519301Y-13932167D01*
X16519301Y-13932167D02*
X16528825Y-13941690D01*
X16528825Y-13941690D02*
X16538348Y-13960738D01*
X16538348Y-13960738D02*
X16538348Y-14017881D01*
X16538348Y-14017881D02*
X16528825Y-14036928D01*
X16528825Y-14036928D02*
X16519301Y-14046452D01*
X16519301Y-14046452D02*
X16500253Y-14055976D01*
X16500253Y-14055976D02*
X16471682Y-14055976D01*
X16595491Y-13922643D02*
X16671682Y-13922643D01*
X16624063Y-13855976D02*
X16624063Y-14027405D01*
X16624063Y-14027405D02*
X16633586Y-14046452D01*
X16633586Y-14046452D02*
X16652634Y-14055976D01*
X16652634Y-14055976D02*
X16671682Y-14055976D01*
X16858348Y-13922643D02*
X16858348Y-14122643D01*
X16858348Y-13932167D02*
X16877396Y-13922643D01*
X16877396Y-13922643D02*
X16915491Y-13922643D01*
X16915491Y-13922643D02*
X16934539Y-13932167D01*
X16934539Y-13932167D02*
X16944063Y-13941690D01*
X16944063Y-13941690D02*
X16953587Y-13960738D01*
X16953587Y-13960738D02*
X16953587Y-14017881D01*
X16953587Y-14017881D02*
X16944063Y-14036928D01*
X16944063Y-14036928D02*
X16934539Y-14046452D01*
X16934539Y-14046452D02*
X16915491Y-14055976D01*
X16915491Y-14055976D02*
X16877396Y-14055976D01*
X16877396Y-14055976D02*
X16858348Y-14046452D01*
X17067872Y-14055976D02*
X17048825Y-14046452D01*
X17048825Y-14046452D02*
X17039301Y-14027405D01*
X17039301Y-14027405D02*
X17039301Y-13855976D01*
X17229777Y-14055976D02*
X17229777Y-13951214D01*
X17229777Y-13951214D02*
X17220253Y-13932167D01*
X17220253Y-13932167D02*
X17201206Y-13922643D01*
X17201206Y-13922643D02*
X17163110Y-13922643D01*
X17163110Y-13922643D02*
X17144063Y-13932167D01*
X17229777Y-14046452D02*
X17210729Y-14055976D01*
X17210729Y-14055976D02*
X17163110Y-14055976D01*
X17163110Y-14055976D02*
X17144063Y-14046452D01*
X17144063Y-14046452D02*
X17134539Y-14027405D01*
X17134539Y-14027405D02*
X17134539Y-14008357D01*
X17134539Y-14008357D02*
X17144063Y-13989309D01*
X17144063Y-13989309D02*
X17163110Y-13979786D01*
X17163110Y-13979786D02*
X17210729Y-13979786D01*
X17210729Y-13979786D02*
X17229777Y-13970262D01*
X17296444Y-13922643D02*
X17372634Y-13922643D01*
X17325015Y-13855976D02*
X17325015Y-14027405D01*
X17325015Y-14027405D02*
X17334539Y-14046452D01*
X17334539Y-14046452D02*
X17353587Y-14055976D01*
X17353587Y-14055976D02*
X17372634Y-14055976D01*
X17515491Y-14046452D02*
X17496444Y-14055976D01*
X17496444Y-14055976D02*
X17458348Y-14055976D01*
X17458348Y-14055976D02*
X17439301Y-14046452D01*
X17439301Y-14046452D02*
X17429777Y-14027405D01*
X17429777Y-14027405D02*
X17429777Y-13951214D01*
X17429777Y-13951214D02*
X17439301Y-13932167D01*
X17439301Y-13932167D02*
X17458348Y-13922643D01*
X17458348Y-13922643D02*
X17496444Y-13922643D01*
X17496444Y-13922643D02*
X17515491Y-13932167D01*
X17515491Y-13932167D02*
X17525015Y-13951214D01*
X17525015Y-13951214D02*
X17525015Y-13970262D01*
X17525015Y-13970262D02*
X17429777Y-13989309D01*
X17696444Y-14055976D02*
X17696444Y-13855976D01*
X17696444Y-14046452D02*
X17677396Y-14055976D01*
X17677396Y-14055976D02*
X17639301Y-14055976D01*
X17639301Y-14055976D02*
X17620253Y-14046452D01*
X17620253Y-14046452D02*
X17610729Y-14036928D01*
X17610729Y-14036928D02*
X17601206Y-14017881D01*
X17601206Y-14017881D02*
X17601206Y-13960738D01*
X17601206Y-13960738D02*
X17610729Y-13941690D01*
X17610729Y-13941690D02*
X17620253Y-13932167D01*
X17620253Y-13932167D02*
X17639301Y-13922643D01*
X17639301Y-13922643D02*
X17677396Y-13922643D01*
X17677396Y-13922643D02*
X17696444Y-13932167D01*
X17772634Y-14132167D02*
X17782158Y-14122643D01*
X17782158Y-14122643D02*
X17801206Y-14094071D01*
X17801206Y-14094071D02*
X17810729Y-14075024D01*
X17810729Y-14075024D02*
X17820253Y-14046452D01*
X17820253Y-14046452D02*
X17829777Y-13998833D01*
X17829777Y-13998833D02*
X17829777Y-13960738D01*
X17829777Y-13960738D02*
X17820253Y-13913119D01*
X17820253Y-13913119D02*
X17810729Y-13884548D01*
X17810729Y-13884548D02*
X17801206Y-13865500D01*
X17801206Y-13865500D02*
X17782158Y-13836928D01*
X17782158Y-13836928D02*
X17772634Y-13827405D01*
M02*
