G04 #@! TF.GenerationSoftware,KiCad,Pcbnew,(7.0.0-0)*
G04 #@! TF.CreationDate,2023-03-21T21:29:09+09:00*
G04 #@! TF.ProjectId,pangaea-top-pinkey-0.25u,70616e67-6165-4612-9d74-6f702d70696e,1*
G04 #@! TF.SameCoordinates,Original*
G04 #@! TF.FileFunction,Soldermask,Bot*
G04 #@! TF.FilePolarity,Negative*
%FSLAX46Y46*%
G04 Gerber Fmt 4.6, Leading zero omitted, Abs format (unit mm)*
G04 Created by KiCad (PCBNEW (7.0.0-0)) date 2023-03-21 21:29:09*
%MOMM*%
%LPD*%
G01*
G04 APERTURE LIST*
G04 #@! TA.AperFunction,Profile*
%ADD10C,0.150000*%
G04 #@! TD*
%ADD11C,2.350000*%
G04 APERTURE END LIST*
D10*
X114840625Y-97775000D02*
X114840625Y-111775000D01*
X128840625Y-97775000D02*
X114840625Y-97775000D01*
X128840625Y-97775000D02*
X128840625Y-111775000D01*
X128840625Y-111775000D02*
X114840625Y-111775000D01*
X133890625Y-73962500D02*
X133890625Y-87962500D01*
X147890625Y-73962500D02*
X133890625Y-73962500D01*
X147890625Y-73962500D02*
X147890625Y-87962500D01*
X147890625Y-87962500D02*
X133890625Y-87962500D01*
X114840625Y-116825000D02*
X114840625Y-130825000D01*
X128840625Y-116825000D02*
X114840625Y-116825000D01*
X128840625Y-116825000D02*
X128840625Y-130825000D01*
X128840625Y-130825000D02*
X114840625Y-130825000D01*
X133890625Y-93012500D02*
X133890625Y-107012500D01*
X147890625Y-93012500D02*
X133890625Y-93012500D01*
X147890625Y-93012500D02*
X147890625Y-107012500D01*
X147890625Y-107012500D02*
X133890625Y-107012500D01*
X114840625Y-78725000D02*
X114840625Y-92725000D01*
X128840625Y-78725000D02*
X114840625Y-78725000D01*
X128840625Y-78725000D02*
X128840625Y-92725000D01*
X128840625Y-92725000D02*
X114840625Y-92725000D01*
X114840625Y-59675000D02*
X114840625Y-73675000D01*
X128840625Y-59675000D02*
X114840625Y-59675000D01*
X128840625Y-59675000D02*
X128840625Y-73675000D01*
X128840625Y-73675000D02*
X114840625Y-73675000D01*
X133890625Y-112062500D02*
X133890625Y-126062500D01*
X147890625Y-112062500D02*
X133890625Y-112062500D01*
X147890625Y-112062500D02*
X147890625Y-126062500D01*
X147890625Y-126062500D02*
X133890625Y-126062500D01*
X133890625Y-54912500D02*
X133890625Y-68912500D01*
X147890625Y-54912500D02*
X133890625Y-54912500D01*
X147890625Y-54912500D02*
X147890625Y-68912500D01*
X147890625Y-68912500D02*
X133890625Y-68912500D01*
D11*
X114696900Y-114300000D03*
X148034425Y-71437500D03*
X148034425Y-109537500D03*
X114696900Y-76200000D03*
M02*
