G04 #@! TF.GenerationSoftware,KiCad,Pcbnew,(7.0.0-0)*
G04 #@! TF.CreationDate,2023-03-21T21:29:09+09:00*
G04 #@! TF.ProjectId,pangaea-top-pinkey-0.25u,70616e67-6165-4612-9d74-6f702d70696e,1*
G04 #@! TF.SameCoordinates,Original*
G04 #@! TF.FileFunction,Copper,L1,Top*
G04 #@! TF.FilePolarity,Positive*
%FSLAX46Y46*%
G04 Gerber Fmt 4.6, Leading zero omitted, Abs format (unit mm)*
G04 Created by KiCad (PCBNEW (7.0.0-0)) date 2023-03-21 21:29:09*
%MOMM*%
%LPD*%
G01*
G04 APERTURE LIST*
G04 APERTURE END LIST*
G04 #@! TA.AperFunction,NonConductor*
G36*
X149628029Y-52398606D02*
G01*
X149762336Y-52411829D01*
X149786562Y-52416647D01*
X149909751Y-52454011D01*
X149932570Y-52463461D01*
X150046112Y-52524145D01*
X150066638Y-52537859D01*
X150166156Y-52619523D01*
X150183622Y-52636987D01*
X150208728Y-52667576D01*
X150265295Y-52736497D01*
X150279018Y-52757033D01*
X150339708Y-52870561D01*
X150349161Y-52893380D01*
X150386535Y-53016560D01*
X150391355Y-53040785D01*
X150404517Y-53174331D01*
X150405125Y-53186689D01*
X150405125Y-127788174D01*
X150404517Y-127800535D01*
X150391281Y-127934807D01*
X150386461Y-127959031D01*
X150349086Y-128082207D01*
X150339632Y-128105025D01*
X150278951Y-128218533D01*
X150265227Y-128239070D01*
X150183565Y-128338563D01*
X150166099Y-128356027D01*
X150066596Y-128437677D01*
X150046059Y-128451398D01*
X149932537Y-128512070D01*
X149909717Y-128521521D01*
X149786548Y-128558878D01*
X149762323Y-128563696D01*
X149627130Y-128577007D01*
X149614724Y-128577613D01*
X132164679Y-128569272D01*
X132164680Y-128566555D01*
X132164677Y-128566556D01*
X132164677Y-128569271D01*
X132161275Y-128569271D01*
X132159183Y-128569270D01*
X132159184Y-128566355D01*
X132159155Y-128566354D01*
X132159156Y-128569281D01*
X132088471Y-128569283D01*
X132088463Y-128569283D01*
X132082278Y-128569284D01*
X132076209Y-128570491D01*
X132076202Y-128570492D01*
X131933415Y-128598899D01*
X131933409Y-128598900D01*
X131927341Y-128600108D01*
X131921627Y-128602474D01*
X131921620Y-128602477D01*
X131787113Y-128658194D01*
X131787107Y-128658196D01*
X131781393Y-128660564D01*
X131776254Y-128663997D01*
X131776246Y-128664002D01*
X131655185Y-128744894D01*
X131655177Y-128744900D01*
X131650043Y-128748331D01*
X131645673Y-128752700D01*
X131645668Y-128752705D01*
X131542712Y-128855659D01*
X131542707Y-128855665D01*
X131538337Y-128860035D01*
X131534906Y-128865168D01*
X131534899Y-128865178D01*
X131454004Y-128986242D01*
X131454000Y-128986248D01*
X131450569Y-128991384D01*
X131448205Y-128997090D01*
X131448201Y-128997098D01*
X131392479Y-129131610D01*
X131392476Y-129131618D01*
X131390110Y-129137331D01*
X131388903Y-129143393D01*
X131388901Y-129143403D01*
X131360493Y-129286194D01*
X131359285Y-129292268D01*
X131359284Y-129298453D01*
X131359284Y-129298460D01*
X131359281Y-129369167D01*
X131359281Y-132542617D01*
X131358686Y-132554844D01*
X131345604Y-132689016D01*
X131340884Y-132712997D01*
X131303912Y-132836228D01*
X131294652Y-132858846D01*
X131234581Y-132972628D01*
X131221127Y-132993034D01*
X131140221Y-133093074D01*
X131123081Y-133110497D01*
X131024385Y-133193035D01*
X131004204Y-133206823D01*
X130891427Y-133268755D01*
X130868964Y-133278386D01*
X130746352Y-133317380D01*
X130722452Y-133322493D01*
X130589465Y-133337670D01*
X130575185Y-133338483D01*
X113115567Y-133339498D01*
X113103207Y-133338891D01*
X112968921Y-133325662D01*
X112944696Y-133320843D01*
X112821511Y-133283473D01*
X112798694Y-133274021D01*
X112685170Y-133213342D01*
X112664632Y-133199620D01*
X112565125Y-133117958D01*
X112547661Y-133100494D01*
X112465993Y-133000986D01*
X112452270Y-132980449D01*
X112391587Y-132866927D01*
X112382134Y-132844109D01*
X112363547Y-132782847D01*
X112344761Y-132720928D01*
X112339942Y-132696706D01*
X112326732Y-132562661D01*
X112326125Y-132550304D01*
X112326125Y-130825000D01*
X114829260Y-130825000D01*
X114830125Y-130827088D01*
X114832589Y-130833036D01*
X114840625Y-130836365D01*
X114842713Y-130835500D01*
X128838537Y-130835500D01*
X128840625Y-130836365D01*
X128848661Y-130833036D01*
X128851125Y-130827088D01*
X128851990Y-130825000D01*
X128851125Y-130822912D01*
X128851125Y-126062500D01*
X133879260Y-126062500D01*
X133880125Y-126064588D01*
X133882589Y-126070536D01*
X133890625Y-126073865D01*
X133892713Y-126073000D01*
X147888537Y-126073000D01*
X147890625Y-126073865D01*
X147898661Y-126070536D01*
X147901125Y-126064588D01*
X147901990Y-126062500D01*
X147901125Y-126060412D01*
X147901125Y-112064588D01*
X147901990Y-112062500D01*
X147898661Y-112054464D01*
X147892713Y-112052000D01*
X147890625Y-112051135D01*
X147888537Y-112052000D01*
X133892713Y-112052000D01*
X133890625Y-112051135D01*
X133888537Y-112052000D01*
X133882589Y-112054464D01*
X133879260Y-112062500D01*
X133880125Y-112064588D01*
X133880125Y-126060412D01*
X133879260Y-126062500D01*
X128851125Y-126062500D01*
X128851125Y-116827088D01*
X128851990Y-116825000D01*
X128848661Y-116816964D01*
X128842713Y-116814500D01*
X128840625Y-116813635D01*
X128838537Y-116814500D01*
X114842713Y-116814500D01*
X114840625Y-116813635D01*
X114838537Y-116814500D01*
X114832589Y-116816964D01*
X114829260Y-116825000D01*
X114830125Y-116827088D01*
X114830125Y-130822912D01*
X114829260Y-130825000D01*
X112326125Y-130825000D01*
X112326125Y-111775000D01*
X114829260Y-111775000D01*
X114830125Y-111777088D01*
X114832589Y-111783036D01*
X114840625Y-111786365D01*
X114842713Y-111785500D01*
X128838537Y-111785500D01*
X128840625Y-111786365D01*
X128848661Y-111783036D01*
X128851125Y-111777088D01*
X128851990Y-111775000D01*
X128851125Y-111772912D01*
X128851125Y-107012500D01*
X133879260Y-107012500D01*
X133880125Y-107014588D01*
X133882589Y-107020536D01*
X133890625Y-107023865D01*
X133892713Y-107023000D01*
X147888537Y-107023000D01*
X147890625Y-107023865D01*
X147898661Y-107020536D01*
X147901125Y-107014588D01*
X147901990Y-107012500D01*
X147901125Y-107010412D01*
X147901125Y-93014588D01*
X147901990Y-93012500D01*
X147898661Y-93004464D01*
X147892713Y-93002000D01*
X147890625Y-93001135D01*
X147888537Y-93002000D01*
X133892713Y-93002000D01*
X133890625Y-93001135D01*
X133888537Y-93002000D01*
X133882589Y-93004464D01*
X133879260Y-93012500D01*
X133880125Y-93014588D01*
X133880125Y-107010412D01*
X133879260Y-107012500D01*
X128851125Y-107012500D01*
X128851125Y-97777088D01*
X128851990Y-97775000D01*
X128848661Y-97766964D01*
X128842713Y-97764500D01*
X128840625Y-97763635D01*
X128838537Y-97764500D01*
X114842713Y-97764500D01*
X114840625Y-97763635D01*
X114838537Y-97764500D01*
X114832589Y-97766964D01*
X114829260Y-97775000D01*
X114830125Y-97777088D01*
X114830125Y-111772912D01*
X114829260Y-111775000D01*
X112326125Y-111775000D01*
X112326125Y-92725000D01*
X114829260Y-92725000D01*
X114830125Y-92727088D01*
X114832589Y-92733036D01*
X114840625Y-92736365D01*
X114842713Y-92735500D01*
X128838537Y-92735500D01*
X128840625Y-92736365D01*
X128848661Y-92733036D01*
X128851125Y-92727088D01*
X128851990Y-92725000D01*
X128851125Y-92722912D01*
X128851125Y-87962500D01*
X133879260Y-87962500D01*
X133880125Y-87964588D01*
X133882589Y-87970536D01*
X133890625Y-87973865D01*
X133892713Y-87973000D01*
X147888537Y-87973000D01*
X147890625Y-87973865D01*
X147898661Y-87970536D01*
X147901125Y-87964588D01*
X147901990Y-87962500D01*
X147901125Y-87960412D01*
X147901125Y-73964588D01*
X147901990Y-73962500D01*
X147898661Y-73954464D01*
X147892713Y-73952000D01*
X147890625Y-73951135D01*
X147888537Y-73952000D01*
X133892713Y-73952000D01*
X133890625Y-73951135D01*
X133888537Y-73952000D01*
X133882589Y-73954464D01*
X133879260Y-73962500D01*
X133880125Y-73964588D01*
X133880125Y-87960412D01*
X133879260Y-87962500D01*
X128851125Y-87962500D01*
X128851125Y-78727088D01*
X128851990Y-78725000D01*
X128848661Y-78716964D01*
X128842713Y-78714500D01*
X128840625Y-78713635D01*
X128838537Y-78714500D01*
X114842713Y-78714500D01*
X114840625Y-78713635D01*
X114838537Y-78714500D01*
X114832589Y-78716964D01*
X114829260Y-78725000D01*
X114830125Y-78727088D01*
X114830125Y-92722912D01*
X114829260Y-92725000D01*
X112326125Y-92725000D01*
X112326125Y-73675000D01*
X114829260Y-73675000D01*
X114830125Y-73677088D01*
X114832589Y-73683036D01*
X114840625Y-73686365D01*
X114842713Y-73685500D01*
X128838537Y-73685500D01*
X128840625Y-73686365D01*
X128848661Y-73683036D01*
X128851125Y-73677088D01*
X128851990Y-73675000D01*
X128851125Y-73672912D01*
X128851125Y-68912500D01*
X133879260Y-68912500D01*
X133880125Y-68914588D01*
X133882589Y-68920536D01*
X133890625Y-68923865D01*
X133892713Y-68923000D01*
X147888537Y-68923000D01*
X147890625Y-68923865D01*
X147898661Y-68920536D01*
X147901125Y-68914588D01*
X147901990Y-68912500D01*
X147901125Y-68910412D01*
X147901125Y-54914588D01*
X147901990Y-54912500D01*
X147898661Y-54904464D01*
X147892713Y-54902000D01*
X147890625Y-54901135D01*
X147888537Y-54902000D01*
X133892713Y-54902000D01*
X133890625Y-54901135D01*
X133888537Y-54902000D01*
X133882589Y-54904464D01*
X133879260Y-54912500D01*
X133880125Y-54914588D01*
X133880125Y-68910412D01*
X133879260Y-68912500D01*
X128851125Y-68912500D01*
X128851125Y-59677088D01*
X128851990Y-59675000D01*
X128848661Y-59666964D01*
X128842713Y-59664500D01*
X128840625Y-59663635D01*
X128838537Y-59664500D01*
X114842713Y-59664500D01*
X114840625Y-59663635D01*
X114838537Y-59664500D01*
X114832589Y-59666964D01*
X114829260Y-59675000D01*
X114830125Y-59677088D01*
X114830125Y-73672912D01*
X114829260Y-73675000D01*
X112326125Y-73675000D01*
X112326125Y-57949947D01*
X112326732Y-57937590D01*
X112339966Y-57803299D01*
X112344786Y-57779075D01*
X112382157Y-57655900D01*
X112391610Y-57633081D01*
X112452297Y-57519553D01*
X112466006Y-57499036D01*
X112547685Y-57399514D01*
X112565135Y-57382065D01*
X112664651Y-57300396D01*
X112685184Y-57286678D01*
X112798704Y-57226001D01*
X112821521Y-57216549D01*
X112944705Y-57179179D01*
X112968922Y-57174361D01*
X113103467Y-57161106D01*
X113115820Y-57160500D01*
X130573585Y-57160500D01*
X130573963Y-57160500D01*
X130574081Y-57160450D01*
X130574339Y-57160425D01*
X130651082Y-57160427D01*
X130806455Y-57129528D01*
X130952814Y-57068910D01*
X131084535Y-56980905D01*
X131196557Y-56868894D01*
X131284574Y-56737181D01*
X131345205Y-56590828D01*
X131376120Y-56435458D01*
X131376125Y-56356251D01*
X131376125Y-56352839D01*
X131376125Y-53187447D01*
X131376732Y-53175090D01*
X131383931Y-53102040D01*
X131389966Y-53040797D01*
X131394786Y-53016575D01*
X131432157Y-52893400D01*
X131441610Y-52870581D01*
X131441621Y-52870561D01*
X131502297Y-52757053D01*
X131516006Y-52736536D01*
X131597685Y-52637014D01*
X131615135Y-52619565D01*
X131714651Y-52537896D01*
X131735184Y-52524178D01*
X131735254Y-52524141D01*
X131839308Y-52468523D01*
X131848704Y-52463501D01*
X131871521Y-52454049D01*
X131994705Y-52416679D01*
X132018922Y-52411861D01*
X132153467Y-52398606D01*
X132165820Y-52398000D01*
X149615684Y-52398000D01*
X149628029Y-52398606D01*
G37*
G04 #@! TD.AperFunction*
M02*
