%TF.GenerationSoftware,KiCad,Pcbnew,7.0.1-0*%
%TF.CreationDate,2023-03-29T21:14:19+09:00*%
%TF.ProjectId,pangaea-pcb-pinkey-0.25u,70616e67-6165-4612-9d70-63622d70696e,rev?*%
%TF.SameCoordinates,Original*%
%TF.FileFunction,Legend,Top*%
%TF.FilePolarity,Positive*%
%FSLAX46Y46*%
G04 Gerber Fmt 4.6, Leading zero omitted, Abs format (unit mm)*
G04 Created by KiCad (PCBNEW 7.0.1-0) date 2023-03-29 21:14:19*
%MOMM*%
%LPD*%
G01*
G04 APERTURE LIST*
%ADD10C,0.300000*%
%ADD11C,0.375000*%
%ADD12C,0.150000*%
G04 APERTURE END LIST*
D10*
X65703571Y-30276000D02*
X65875000Y-30333142D01*
X65875000Y-30333142D02*
X66160714Y-30333142D01*
X66160714Y-30333142D02*
X66275000Y-30276000D01*
X66275000Y-30276000D02*
X66332142Y-30218857D01*
X66332142Y-30218857D02*
X66389285Y-30104571D01*
X66389285Y-30104571D02*
X66389285Y-29990285D01*
X66389285Y-29990285D02*
X66332142Y-29876000D01*
X66332142Y-29876000D02*
X66275000Y-29818857D01*
X66275000Y-29818857D02*
X66160714Y-29761714D01*
X66160714Y-29761714D02*
X65932142Y-29704571D01*
X65932142Y-29704571D02*
X65817857Y-29647428D01*
X65817857Y-29647428D02*
X65760714Y-29590285D01*
X65760714Y-29590285D02*
X65703571Y-29476000D01*
X65703571Y-29476000D02*
X65703571Y-29361714D01*
X65703571Y-29361714D02*
X65760714Y-29247428D01*
X65760714Y-29247428D02*
X65817857Y-29190285D01*
X65817857Y-29190285D02*
X65932142Y-29133142D01*
X65932142Y-29133142D02*
X66217857Y-29133142D01*
X66217857Y-29133142D02*
X66389285Y-29190285D01*
X66789285Y-29133142D02*
X67074999Y-30333142D01*
X67074999Y-30333142D02*
X67303571Y-29476000D01*
X67303571Y-29476000D02*
X67532142Y-30333142D01*
X67532142Y-30333142D02*
X67817857Y-29133142D01*
X68903571Y-30333142D02*
X68217857Y-30333142D01*
X68560714Y-30333142D02*
X68560714Y-29133142D01*
X68560714Y-29133142D02*
X68446428Y-29304571D01*
X68446428Y-29304571D02*
X68332143Y-29418857D01*
X68332143Y-29418857D02*
X68217857Y-29476000D01*
X69932143Y-29533142D02*
X69932143Y-30333142D01*
X69646428Y-29076000D02*
X69360714Y-29933142D01*
X69360714Y-29933142D02*
X70103571Y-29933142D01*
D11*
X24060714Y-14870000D02*
X24275000Y-14965238D01*
X24275000Y-14965238D02*
X24632142Y-14965238D01*
X24632142Y-14965238D02*
X24775000Y-14870000D01*
X24775000Y-14870000D02*
X24846428Y-14774761D01*
X24846428Y-14774761D02*
X24917857Y-14584285D01*
X24917857Y-14584285D02*
X24917857Y-14393809D01*
X24917857Y-14393809D02*
X24846428Y-14203333D01*
X24846428Y-14203333D02*
X24775000Y-14108095D01*
X24775000Y-14108095D02*
X24632142Y-14012857D01*
X24632142Y-14012857D02*
X24346428Y-13917619D01*
X24346428Y-13917619D02*
X24203571Y-13822380D01*
X24203571Y-13822380D02*
X24132142Y-13727142D01*
X24132142Y-13727142D02*
X24060714Y-13536666D01*
X24060714Y-13536666D02*
X24060714Y-13346190D01*
X24060714Y-13346190D02*
X24132142Y-13155714D01*
X24132142Y-13155714D02*
X24203571Y-13060476D01*
X24203571Y-13060476D02*
X24346428Y-12965238D01*
X24346428Y-12965238D02*
X24703571Y-12965238D01*
X24703571Y-12965238D02*
X24917857Y-13060476D01*
X25417856Y-12965238D02*
X25774999Y-14965238D01*
X25774999Y-14965238D02*
X26060713Y-13536666D01*
X26060713Y-13536666D02*
X26346428Y-14965238D01*
X26346428Y-14965238D02*
X26703571Y-12965238D01*
X28060714Y-14965238D02*
X27203571Y-14965238D01*
X27632142Y-14965238D02*
X27632142Y-12965238D01*
X27632142Y-12965238D02*
X27489285Y-13250952D01*
X27489285Y-13250952D02*
X27346428Y-13441428D01*
X27346428Y-13441428D02*
X27203571Y-13536666D01*
X28560713Y-12965238D02*
X29489285Y-12965238D01*
X29489285Y-12965238D02*
X28989285Y-13727142D01*
X28989285Y-13727142D02*
X29203570Y-13727142D01*
X29203570Y-13727142D02*
X29346428Y-13822380D01*
X29346428Y-13822380D02*
X29417856Y-13917619D01*
X29417856Y-13917619D02*
X29489285Y-14108095D01*
X29489285Y-14108095D02*
X29489285Y-14584285D01*
X29489285Y-14584285D02*
X29417856Y-14774761D01*
X29417856Y-14774761D02*
X29346428Y-14870000D01*
X29346428Y-14870000D02*
X29203570Y-14965238D01*
X29203570Y-14965238D02*
X28774999Y-14965238D01*
X28774999Y-14965238D02*
X28632142Y-14870000D01*
X28632142Y-14870000D02*
X28560713Y-14774761D01*
X31203570Y-14870000D02*
X31417856Y-14965238D01*
X31417856Y-14965238D02*
X31774998Y-14965238D01*
X31774998Y-14965238D02*
X31917856Y-14870000D01*
X31917856Y-14870000D02*
X31989284Y-14774761D01*
X31989284Y-14774761D02*
X32060713Y-14584285D01*
X32060713Y-14584285D02*
X32060713Y-14393809D01*
X32060713Y-14393809D02*
X31989284Y-14203333D01*
X31989284Y-14203333D02*
X31917856Y-14108095D01*
X31917856Y-14108095D02*
X31774998Y-14012857D01*
X31774998Y-14012857D02*
X31489284Y-13917619D01*
X31489284Y-13917619D02*
X31346427Y-13822380D01*
X31346427Y-13822380D02*
X31274998Y-13727142D01*
X31274998Y-13727142D02*
X31203570Y-13536666D01*
X31203570Y-13536666D02*
X31203570Y-13346190D01*
X31203570Y-13346190D02*
X31274998Y-13155714D01*
X31274998Y-13155714D02*
X31346427Y-13060476D01*
X31346427Y-13060476D02*
X31489284Y-12965238D01*
X31489284Y-12965238D02*
X31846427Y-12965238D01*
X31846427Y-12965238D02*
X32060713Y-13060476D01*
X32560712Y-12965238D02*
X32917855Y-14965238D01*
X32917855Y-14965238D02*
X33203569Y-13536666D01*
X33203569Y-13536666D02*
X33489284Y-14965238D01*
X33489284Y-14965238D02*
X33846427Y-12965238D01*
X35203570Y-14965238D02*
X34346427Y-14965238D01*
X34774998Y-14965238D02*
X34774998Y-12965238D01*
X34774998Y-12965238D02*
X34632141Y-13250952D01*
X34632141Y-13250952D02*
X34489284Y-13441428D01*
X34489284Y-13441428D02*
X34346427Y-13536666D01*
X36489284Y-13631904D02*
X36489284Y-14965238D01*
X36132141Y-12870000D02*
X35774998Y-14298571D01*
X35774998Y-14298571D02*
X36703569Y-14298571D01*
X24060714Y-18110000D02*
X24275000Y-18205238D01*
X24275000Y-18205238D02*
X24632142Y-18205238D01*
X24632142Y-18205238D02*
X24775000Y-18110000D01*
X24775000Y-18110000D02*
X24846428Y-18014761D01*
X24846428Y-18014761D02*
X24917857Y-17824285D01*
X24917857Y-17824285D02*
X24917857Y-17633809D01*
X24917857Y-17633809D02*
X24846428Y-17443333D01*
X24846428Y-17443333D02*
X24775000Y-17348095D01*
X24775000Y-17348095D02*
X24632142Y-17252857D01*
X24632142Y-17252857D02*
X24346428Y-17157619D01*
X24346428Y-17157619D02*
X24203571Y-17062380D01*
X24203571Y-17062380D02*
X24132142Y-16967142D01*
X24132142Y-16967142D02*
X24060714Y-16776666D01*
X24060714Y-16776666D02*
X24060714Y-16586190D01*
X24060714Y-16586190D02*
X24132142Y-16395714D01*
X24132142Y-16395714D02*
X24203571Y-16300476D01*
X24203571Y-16300476D02*
X24346428Y-16205238D01*
X24346428Y-16205238D02*
X24703571Y-16205238D01*
X24703571Y-16205238D02*
X24917857Y-16300476D01*
X25417856Y-16205238D02*
X25774999Y-18205238D01*
X25774999Y-18205238D02*
X26060713Y-16776666D01*
X26060713Y-16776666D02*
X26346428Y-18205238D01*
X26346428Y-18205238D02*
X26703571Y-16205238D01*
X28060714Y-18205238D02*
X27203571Y-18205238D01*
X27632142Y-18205238D02*
X27632142Y-16205238D01*
X27632142Y-16205238D02*
X27489285Y-16490952D01*
X27489285Y-16490952D02*
X27346428Y-16681428D01*
X27346428Y-16681428D02*
X27203571Y-16776666D01*
X28560713Y-16205238D02*
X29560713Y-16205238D01*
X29560713Y-16205238D02*
X28917856Y-18205238D01*
X31203570Y-18110000D02*
X31417856Y-18205238D01*
X31417856Y-18205238D02*
X31774998Y-18205238D01*
X31774998Y-18205238D02*
X31917856Y-18110000D01*
X31917856Y-18110000D02*
X31989284Y-18014761D01*
X31989284Y-18014761D02*
X32060713Y-17824285D01*
X32060713Y-17824285D02*
X32060713Y-17633809D01*
X32060713Y-17633809D02*
X31989284Y-17443333D01*
X31989284Y-17443333D02*
X31917856Y-17348095D01*
X31917856Y-17348095D02*
X31774998Y-17252857D01*
X31774998Y-17252857D02*
X31489284Y-17157619D01*
X31489284Y-17157619D02*
X31346427Y-17062380D01*
X31346427Y-17062380D02*
X31274998Y-16967142D01*
X31274998Y-16967142D02*
X31203570Y-16776666D01*
X31203570Y-16776666D02*
X31203570Y-16586190D01*
X31203570Y-16586190D02*
X31274998Y-16395714D01*
X31274998Y-16395714D02*
X31346427Y-16300476D01*
X31346427Y-16300476D02*
X31489284Y-16205238D01*
X31489284Y-16205238D02*
X31846427Y-16205238D01*
X31846427Y-16205238D02*
X32060713Y-16300476D01*
X32560712Y-16205238D02*
X32917855Y-18205238D01*
X32917855Y-18205238D02*
X33203569Y-16776666D01*
X33203569Y-16776666D02*
X33489284Y-18205238D01*
X33489284Y-18205238D02*
X33846427Y-16205238D01*
X35203570Y-18205238D02*
X34346427Y-18205238D01*
X34774998Y-18205238D02*
X34774998Y-16205238D01*
X34774998Y-16205238D02*
X34632141Y-16490952D01*
X34632141Y-16490952D02*
X34489284Y-16681428D01*
X34489284Y-16681428D02*
X34346427Y-16776666D01*
X36060712Y-17062380D02*
X35917855Y-16967142D01*
X35917855Y-16967142D02*
X35846426Y-16871904D01*
X35846426Y-16871904D02*
X35774998Y-16681428D01*
X35774998Y-16681428D02*
X35774998Y-16586190D01*
X35774998Y-16586190D02*
X35846426Y-16395714D01*
X35846426Y-16395714D02*
X35917855Y-16300476D01*
X35917855Y-16300476D02*
X36060712Y-16205238D01*
X36060712Y-16205238D02*
X36346426Y-16205238D01*
X36346426Y-16205238D02*
X36489284Y-16300476D01*
X36489284Y-16300476D02*
X36560712Y-16395714D01*
X36560712Y-16395714D02*
X36632141Y-16586190D01*
X36632141Y-16586190D02*
X36632141Y-16681428D01*
X36632141Y-16681428D02*
X36560712Y-16871904D01*
X36560712Y-16871904D02*
X36489284Y-16967142D01*
X36489284Y-16967142D02*
X36346426Y-17062380D01*
X36346426Y-17062380D02*
X36060712Y-17062380D01*
X36060712Y-17062380D02*
X35917855Y-17157619D01*
X35917855Y-17157619D02*
X35846426Y-17252857D01*
X35846426Y-17252857D02*
X35774998Y-17443333D01*
X35774998Y-17443333D02*
X35774998Y-17824285D01*
X35774998Y-17824285D02*
X35846426Y-18014761D01*
X35846426Y-18014761D02*
X35917855Y-18110000D01*
X35917855Y-18110000D02*
X36060712Y-18205238D01*
X36060712Y-18205238D02*
X36346426Y-18205238D01*
X36346426Y-18205238D02*
X36489284Y-18110000D01*
X36489284Y-18110000D02*
X36560712Y-18014761D01*
X36560712Y-18014761D02*
X36632141Y-17824285D01*
X36632141Y-17824285D02*
X36632141Y-17443333D01*
X36632141Y-17443333D02*
X36560712Y-17252857D01*
X36560712Y-17252857D02*
X36489284Y-17157619D01*
X36489284Y-17157619D02*
X36346426Y-17062380D01*
X24060714Y-21350000D02*
X24275000Y-21445238D01*
X24275000Y-21445238D02*
X24632142Y-21445238D01*
X24632142Y-21445238D02*
X24775000Y-21350000D01*
X24775000Y-21350000D02*
X24846428Y-21254761D01*
X24846428Y-21254761D02*
X24917857Y-21064285D01*
X24917857Y-21064285D02*
X24917857Y-20873809D01*
X24917857Y-20873809D02*
X24846428Y-20683333D01*
X24846428Y-20683333D02*
X24775000Y-20588095D01*
X24775000Y-20588095D02*
X24632142Y-20492857D01*
X24632142Y-20492857D02*
X24346428Y-20397619D01*
X24346428Y-20397619D02*
X24203571Y-20302380D01*
X24203571Y-20302380D02*
X24132142Y-20207142D01*
X24132142Y-20207142D02*
X24060714Y-20016666D01*
X24060714Y-20016666D02*
X24060714Y-19826190D01*
X24060714Y-19826190D02*
X24132142Y-19635714D01*
X24132142Y-19635714D02*
X24203571Y-19540476D01*
X24203571Y-19540476D02*
X24346428Y-19445238D01*
X24346428Y-19445238D02*
X24703571Y-19445238D01*
X24703571Y-19445238D02*
X24917857Y-19540476D01*
X25417856Y-19445238D02*
X25774999Y-21445238D01*
X25774999Y-21445238D02*
X26060713Y-20016666D01*
X26060713Y-20016666D02*
X26346428Y-21445238D01*
X26346428Y-21445238D02*
X26703571Y-19445238D01*
X27132142Y-19445238D02*
X28060714Y-19445238D01*
X28060714Y-19445238D02*
X27560714Y-20207142D01*
X27560714Y-20207142D02*
X27774999Y-20207142D01*
X27774999Y-20207142D02*
X27917857Y-20302380D01*
X27917857Y-20302380D02*
X27989285Y-20397619D01*
X27989285Y-20397619D02*
X28060714Y-20588095D01*
X28060714Y-20588095D02*
X28060714Y-21064285D01*
X28060714Y-21064285D02*
X27989285Y-21254761D01*
X27989285Y-21254761D02*
X27917857Y-21350000D01*
X27917857Y-21350000D02*
X27774999Y-21445238D01*
X27774999Y-21445238D02*
X27346428Y-21445238D01*
X27346428Y-21445238D02*
X27203571Y-21350000D01*
X27203571Y-21350000D02*
X27132142Y-21254761D01*
X28560713Y-19445238D02*
X29489285Y-19445238D01*
X29489285Y-19445238D02*
X28989285Y-20207142D01*
X28989285Y-20207142D02*
X29203570Y-20207142D01*
X29203570Y-20207142D02*
X29346428Y-20302380D01*
X29346428Y-20302380D02*
X29417856Y-20397619D01*
X29417856Y-20397619D02*
X29489285Y-20588095D01*
X29489285Y-20588095D02*
X29489285Y-21064285D01*
X29489285Y-21064285D02*
X29417856Y-21254761D01*
X29417856Y-21254761D02*
X29346428Y-21350000D01*
X29346428Y-21350000D02*
X29203570Y-21445238D01*
X29203570Y-21445238D02*
X28774999Y-21445238D01*
X28774999Y-21445238D02*
X28632142Y-21350000D01*
X28632142Y-21350000D02*
X28560713Y-21254761D01*
X31203570Y-21350000D02*
X31417856Y-21445238D01*
X31417856Y-21445238D02*
X31774998Y-21445238D01*
X31774998Y-21445238D02*
X31917856Y-21350000D01*
X31917856Y-21350000D02*
X31989284Y-21254761D01*
X31989284Y-21254761D02*
X32060713Y-21064285D01*
X32060713Y-21064285D02*
X32060713Y-20873809D01*
X32060713Y-20873809D02*
X31989284Y-20683333D01*
X31989284Y-20683333D02*
X31917856Y-20588095D01*
X31917856Y-20588095D02*
X31774998Y-20492857D01*
X31774998Y-20492857D02*
X31489284Y-20397619D01*
X31489284Y-20397619D02*
X31346427Y-20302380D01*
X31346427Y-20302380D02*
X31274998Y-20207142D01*
X31274998Y-20207142D02*
X31203570Y-20016666D01*
X31203570Y-20016666D02*
X31203570Y-19826190D01*
X31203570Y-19826190D02*
X31274998Y-19635714D01*
X31274998Y-19635714D02*
X31346427Y-19540476D01*
X31346427Y-19540476D02*
X31489284Y-19445238D01*
X31489284Y-19445238D02*
X31846427Y-19445238D01*
X31846427Y-19445238D02*
X32060713Y-19540476D01*
X32560712Y-19445238D02*
X32917855Y-21445238D01*
X32917855Y-21445238D02*
X33203569Y-20016666D01*
X33203569Y-20016666D02*
X33489284Y-21445238D01*
X33489284Y-21445238D02*
X33846427Y-19445238D01*
X34274998Y-19445238D02*
X35203570Y-19445238D01*
X35203570Y-19445238D02*
X34703570Y-20207142D01*
X34703570Y-20207142D02*
X34917855Y-20207142D01*
X34917855Y-20207142D02*
X35060713Y-20302380D01*
X35060713Y-20302380D02*
X35132141Y-20397619D01*
X35132141Y-20397619D02*
X35203570Y-20588095D01*
X35203570Y-20588095D02*
X35203570Y-21064285D01*
X35203570Y-21064285D02*
X35132141Y-21254761D01*
X35132141Y-21254761D02*
X35060713Y-21350000D01*
X35060713Y-21350000D02*
X34917855Y-21445238D01*
X34917855Y-21445238D02*
X34489284Y-21445238D01*
X34489284Y-21445238D02*
X34346427Y-21350000D01*
X34346427Y-21350000D02*
X34274998Y-21254761D01*
X36489284Y-20111904D02*
X36489284Y-21445238D01*
X36132141Y-19350000D02*
X35774998Y-20778571D01*
X35774998Y-20778571D02*
X36703569Y-20778571D01*
X24060714Y-24590000D02*
X24275000Y-24685238D01*
X24275000Y-24685238D02*
X24632142Y-24685238D01*
X24632142Y-24685238D02*
X24775000Y-24590000D01*
X24775000Y-24590000D02*
X24846428Y-24494761D01*
X24846428Y-24494761D02*
X24917857Y-24304285D01*
X24917857Y-24304285D02*
X24917857Y-24113809D01*
X24917857Y-24113809D02*
X24846428Y-23923333D01*
X24846428Y-23923333D02*
X24775000Y-23828095D01*
X24775000Y-23828095D02*
X24632142Y-23732857D01*
X24632142Y-23732857D02*
X24346428Y-23637619D01*
X24346428Y-23637619D02*
X24203571Y-23542380D01*
X24203571Y-23542380D02*
X24132142Y-23447142D01*
X24132142Y-23447142D02*
X24060714Y-23256666D01*
X24060714Y-23256666D02*
X24060714Y-23066190D01*
X24060714Y-23066190D02*
X24132142Y-22875714D01*
X24132142Y-22875714D02*
X24203571Y-22780476D01*
X24203571Y-22780476D02*
X24346428Y-22685238D01*
X24346428Y-22685238D02*
X24703571Y-22685238D01*
X24703571Y-22685238D02*
X24917857Y-22780476D01*
X25417856Y-22685238D02*
X25774999Y-24685238D01*
X25774999Y-24685238D02*
X26060713Y-23256666D01*
X26060713Y-23256666D02*
X26346428Y-24685238D01*
X26346428Y-24685238D02*
X26703571Y-22685238D01*
X27132142Y-22685238D02*
X28060714Y-22685238D01*
X28060714Y-22685238D02*
X27560714Y-23447142D01*
X27560714Y-23447142D02*
X27774999Y-23447142D01*
X27774999Y-23447142D02*
X27917857Y-23542380D01*
X27917857Y-23542380D02*
X27989285Y-23637619D01*
X27989285Y-23637619D02*
X28060714Y-23828095D01*
X28060714Y-23828095D02*
X28060714Y-24304285D01*
X28060714Y-24304285D02*
X27989285Y-24494761D01*
X27989285Y-24494761D02*
X27917857Y-24590000D01*
X27917857Y-24590000D02*
X27774999Y-24685238D01*
X27774999Y-24685238D02*
X27346428Y-24685238D01*
X27346428Y-24685238D02*
X27203571Y-24590000D01*
X27203571Y-24590000D02*
X27132142Y-24494761D01*
X28560713Y-22685238D02*
X29560713Y-22685238D01*
X29560713Y-22685238D02*
X28917856Y-24685238D01*
X31203570Y-24590000D02*
X31417856Y-24685238D01*
X31417856Y-24685238D02*
X31774998Y-24685238D01*
X31774998Y-24685238D02*
X31917856Y-24590000D01*
X31917856Y-24590000D02*
X31989284Y-24494761D01*
X31989284Y-24494761D02*
X32060713Y-24304285D01*
X32060713Y-24304285D02*
X32060713Y-24113809D01*
X32060713Y-24113809D02*
X31989284Y-23923333D01*
X31989284Y-23923333D02*
X31917856Y-23828095D01*
X31917856Y-23828095D02*
X31774998Y-23732857D01*
X31774998Y-23732857D02*
X31489284Y-23637619D01*
X31489284Y-23637619D02*
X31346427Y-23542380D01*
X31346427Y-23542380D02*
X31274998Y-23447142D01*
X31274998Y-23447142D02*
X31203570Y-23256666D01*
X31203570Y-23256666D02*
X31203570Y-23066190D01*
X31203570Y-23066190D02*
X31274998Y-22875714D01*
X31274998Y-22875714D02*
X31346427Y-22780476D01*
X31346427Y-22780476D02*
X31489284Y-22685238D01*
X31489284Y-22685238D02*
X31846427Y-22685238D01*
X31846427Y-22685238D02*
X32060713Y-22780476D01*
X32560712Y-22685238D02*
X32917855Y-24685238D01*
X32917855Y-24685238D02*
X33203569Y-23256666D01*
X33203569Y-23256666D02*
X33489284Y-24685238D01*
X33489284Y-24685238D02*
X33846427Y-22685238D01*
X34274998Y-22685238D02*
X35203570Y-22685238D01*
X35203570Y-22685238D02*
X34703570Y-23447142D01*
X34703570Y-23447142D02*
X34917855Y-23447142D01*
X34917855Y-23447142D02*
X35060713Y-23542380D01*
X35060713Y-23542380D02*
X35132141Y-23637619D01*
X35132141Y-23637619D02*
X35203570Y-23828095D01*
X35203570Y-23828095D02*
X35203570Y-24304285D01*
X35203570Y-24304285D02*
X35132141Y-24494761D01*
X35132141Y-24494761D02*
X35060713Y-24590000D01*
X35060713Y-24590000D02*
X34917855Y-24685238D01*
X34917855Y-24685238D02*
X34489284Y-24685238D01*
X34489284Y-24685238D02*
X34346427Y-24590000D01*
X34346427Y-24590000D02*
X34274998Y-24494761D01*
X36060712Y-23542380D02*
X35917855Y-23447142D01*
X35917855Y-23447142D02*
X35846426Y-23351904D01*
X35846426Y-23351904D02*
X35774998Y-23161428D01*
X35774998Y-23161428D02*
X35774998Y-23066190D01*
X35774998Y-23066190D02*
X35846426Y-22875714D01*
X35846426Y-22875714D02*
X35917855Y-22780476D01*
X35917855Y-22780476D02*
X36060712Y-22685238D01*
X36060712Y-22685238D02*
X36346426Y-22685238D01*
X36346426Y-22685238D02*
X36489284Y-22780476D01*
X36489284Y-22780476D02*
X36560712Y-22875714D01*
X36560712Y-22875714D02*
X36632141Y-23066190D01*
X36632141Y-23066190D02*
X36632141Y-23161428D01*
X36632141Y-23161428D02*
X36560712Y-23351904D01*
X36560712Y-23351904D02*
X36489284Y-23447142D01*
X36489284Y-23447142D02*
X36346426Y-23542380D01*
X36346426Y-23542380D02*
X36060712Y-23542380D01*
X36060712Y-23542380D02*
X35917855Y-23637619D01*
X35917855Y-23637619D02*
X35846426Y-23732857D01*
X35846426Y-23732857D02*
X35774998Y-23923333D01*
X35774998Y-23923333D02*
X35774998Y-24304285D01*
X35774998Y-24304285D02*
X35846426Y-24494761D01*
X35846426Y-24494761D02*
X35917855Y-24590000D01*
X35917855Y-24590000D02*
X36060712Y-24685238D01*
X36060712Y-24685238D02*
X36346426Y-24685238D01*
X36346426Y-24685238D02*
X36489284Y-24590000D01*
X36489284Y-24590000D02*
X36560712Y-24494761D01*
X36560712Y-24494761D02*
X36632141Y-24304285D01*
X36632141Y-24304285D02*
X36632141Y-23923333D01*
X36632141Y-23923333D02*
X36560712Y-23732857D01*
X36560712Y-23732857D02*
X36489284Y-23637619D01*
X36489284Y-23637619D02*
X36346426Y-23542380D01*
D10*
X65863571Y-49326000D02*
X66035000Y-49383142D01*
X66035000Y-49383142D02*
X66320714Y-49383142D01*
X66320714Y-49383142D02*
X66435000Y-49326000D01*
X66435000Y-49326000D02*
X66492142Y-49268857D01*
X66492142Y-49268857D02*
X66549285Y-49154571D01*
X66549285Y-49154571D02*
X66549285Y-49040285D01*
X66549285Y-49040285D02*
X66492142Y-48926000D01*
X66492142Y-48926000D02*
X66435000Y-48868857D01*
X66435000Y-48868857D02*
X66320714Y-48811714D01*
X66320714Y-48811714D02*
X66092142Y-48754571D01*
X66092142Y-48754571D02*
X65977857Y-48697428D01*
X65977857Y-48697428D02*
X65920714Y-48640285D01*
X65920714Y-48640285D02*
X65863571Y-48526000D01*
X65863571Y-48526000D02*
X65863571Y-48411714D01*
X65863571Y-48411714D02*
X65920714Y-48297428D01*
X65920714Y-48297428D02*
X65977857Y-48240285D01*
X65977857Y-48240285D02*
X66092142Y-48183142D01*
X66092142Y-48183142D02*
X66377857Y-48183142D01*
X66377857Y-48183142D02*
X66549285Y-48240285D01*
X66949285Y-48183142D02*
X67234999Y-49383142D01*
X67234999Y-49383142D02*
X67463571Y-48526000D01*
X67463571Y-48526000D02*
X67692142Y-49383142D01*
X67692142Y-49383142D02*
X67977857Y-48183142D01*
X69063571Y-49383142D02*
X68377857Y-49383142D01*
X68720714Y-49383142D02*
X68720714Y-48183142D01*
X68720714Y-48183142D02*
X68606428Y-48354571D01*
X68606428Y-48354571D02*
X68492143Y-48468857D01*
X68492143Y-48468857D02*
X68377857Y-48526000D01*
X69749285Y-48697428D02*
X69635000Y-48640285D01*
X69635000Y-48640285D02*
X69577857Y-48583142D01*
X69577857Y-48583142D02*
X69520714Y-48468857D01*
X69520714Y-48468857D02*
X69520714Y-48411714D01*
X69520714Y-48411714D02*
X69577857Y-48297428D01*
X69577857Y-48297428D02*
X69635000Y-48240285D01*
X69635000Y-48240285D02*
X69749285Y-48183142D01*
X69749285Y-48183142D02*
X69977857Y-48183142D01*
X69977857Y-48183142D02*
X70092143Y-48240285D01*
X70092143Y-48240285D02*
X70149285Y-48297428D01*
X70149285Y-48297428D02*
X70206428Y-48411714D01*
X70206428Y-48411714D02*
X70206428Y-48468857D01*
X70206428Y-48468857D02*
X70149285Y-48583142D01*
X70149285Y-48583142D02*
X70092143Y-48640285D01*
X70092143Y-48640285D02*
X69977857Y-48697428D01*
X69977857Y-48697428D02*
X69749285Y-48697428D01*
X69749285Y-48697428D02*
X69635000Y-48754571D01*
X69635000Y-48754571D02*
X69577857Y-48811714D01*
X69577857Y-48811714D02*
X69520714Y-48926000D01*
X69520714Y-48926000D02*
X69520714Y-49154571D01*
X69520714Y-49154571D02*
X69577857Y-49268857D01*
X69577857Y-49268857D02*
X69635000Y-49326000D01*
X69635000Y-49326000D02*
X69749285Y-49383142D01*
X69749285Y-49383142D02*
X69977857Y-49383142D01*
X69977857Y-49383142D02*
X70092143Y-49326000D01*
X70092143Y-49326000D02*
X70149285Y-49268857D01*
X70149285Y-49268857D02*
X70206428Y-49154571D01*
X70206428Y-49154571D02*
X70206428Y-48926000D01*
X70206428Y-48926000D02*
X70149285Y-48811714D01*
X70149285Y-48811714D02*
X70092143Y-48754571D01*
X70092143Y-48754571D02*
X69977857Y-48697428D01*
X47023571Y-91686000D02*
X47195000Y-91743142D01*
X47195000Y-91743142D02*
X47480714Y-91743142D01*
X47480714Y-91743142D02*
X47595000Y-91686000D01*
X47595000Y-91686000D02*
X47652142Y-91628857D01*
X47652142Y-91628857D02*
X47709285Y-91514571D01*
X47709285Y-91514571D02*
X47709285Y-91400285D01*
X47709285Y-91400285D02*
X47652142Y-91286000D01*
X47652142Y-91286000D02*
X47595000Y-91228857D01*
X47595000Y-91228857D02*
X47480714Y-91171714D01*
X47480714Y-91171714D02*
X47252142Y-91114571D01*
X47252142Y-91114571D02*
X47137857Y-91057428D01*
X47137857Y-91057428D02*
X47080714Y-91000285D01*
X47080714Y-91000285D02*
X47023571Y-90886000D01*
X47023571Y-90886000D02*
X47023571Y-90771714D01*
X47023571Y-90771714D02*
X47080714Y-90657428D01*
X47080714Y-90657428D02*
X47137857Y-90600285D01*
X47137857Y-90600285D02*
X47252142Y-90543142D01*
X47252142Y-90543142D02*
X47537857Y-90543142D01*
X47537857Y-90543142D02*
X47709285Y-90600285D01*
X48109285Y-90543142D02*
X48394999Y-91743142D01*
X48394999Y-91743142D02*
X48623571Y-90886000D01*
X48623571Y-90886000D02*
X48852142Y-91743142D01*
X48852142Y-91743142D02*
X49137857Y-90543142D01*
X49480714Y-90543142D02*
X50223571Y-90543142D01*
X50223571Y-90543142D02*
X49823571Y-91000285D01*
X49823571Y-91000285D02*
X49995000Y-91000285D01*
X49995000Y-91000285D02*
X50109286Y-91057428D01*
X50109286Y-91057428D02*
X50166428Y-91114571D01*
X50166428Y-91114571D02*
X50223571Y-91228857D01*
X50223571Y-91228857D02*
X50223571Y-91514571D01*
X50223571Y-91514571D02*
X50166428Y-91628857D01*
X50166428Y-91628857D02*
X50109286Y-91686000D01*
X50109286Y-91686000D02*
X49995000Y-91743142D01*
X49995000Y-91743142D02*
X49652143Y-91743142D01*
X49652143Y-91743142D02*
X49537857Y-91686000D01*
X49537857Y-91686000D02*
X49480714Y-91628857D01*
X50623571Y-90543142D02*
X51423571Y-90543142D01*
X51423571Y-90543142D02*
X50909285Y-91743142D01*
D12*
X35815142Y-80027141D02*
X34615142Y-80027141D01*
X34615142Y-80027141D02*
X34615142Y-79569998D01*
X34615142Y-79569998D02*
X34672285Y-79455713D01*
X34672285Y-79455713D02*
X34729428Y-79398570D01*
X34729428Y-79398570D02*
X34843714Y-79341427D01*
X34843714Y-79341427D02*
X35015142Y-79341427D01*
X35015142Y-79341427D02*
X35129428Y-79398570D01*
X35129428Y-79398570D02*
X35186571Y-79455713D01*
X35186571Y-79455713D02*
X35243714Y-79569998D01*
X35243714Y-79569998D02*
X35243714Y-80027141D01*
X35815142Y-78312856D02*
X35186571Y-78312856D01*
X35186571Y-78312856D02*
X35072285Y-78369998D01*
X35072285Y-78369998D02*
X35015142Y-78484284D01*
X35015142Y-78484284D02*
X35015142Y-78712856D01*
X35015142Y-78712856D02*
X35072285Y-78827141D01*
X35758000Y-78312856D02*
X35815142Y-78427141D01*
X35815142Y-78427141D02*
X35815142Y-78712856D01*
X35815142Y-78712856D02*
X35758000Y-78827141D01*
X35758000Y-78827141D02*
X35643714Y-78884284D01*
X35643714Y-78884284D02*
X35529428Y-78884284D01*
X35529428Y-78884284D02*
X35415142Y-78827141D01*
X35415142Y-78827141D02*
X35358000Y-78712856D01*
X35358000Y-78712856D02*
X35358000Y-78427141D01*
X35358000Y-78427141D02*
X35300857Y-78312856D01*
X35015142Y-77741427D02*
X35815142Y-77741427D01*
X35129428Y-77741427D02*
X35072285Y-77684284D01*
X35072285Y-77684284D02*
X35015142Y-77569999D01*
X35015142Y-77569999D02*
X35015142Y-77398570D01*
X35015142Y-77398570D02*
X35072285Y-77284284D01*
X35072285Y-77284284D02*
X35186571Y-77227142D01*
X35186571Y-77227142D02*
X35815142Y-77227142D01*
X35015142Y-76141428D02*
X35986571Y-76141428D01*
X35986571Y-76141428D02*
X36100857Y-76198570D01*
X36100857Y-76198570D02*
X36158000Y-76255713D01*
X36158000Y-76255713D02*
X36215142Y-76369999D01*
X36215142Y-76369999D02*
X36215142Y-76541428D01*
X36215142Y-76541428D02*
X36158000Y-76655713D01*
X35758000Y-76141428D02*
X35815142Y-76255713D01*
X35815142Y-76255713D02*
X35815142Y-76484285D01*
X35815142Y-76484285D02*
X35758000Y-76598570D01*
X35758000Y-76598570D02*
X35700857Y-76655713D01*
X35700857Y-76655713D02*
X35586571Y-76712856D01*
X35586571Y-76712856D02*
X35243714Y-76712856D01*
X35243714Y-76712856D02*
X35129428Y-76655713D01*
X35129428Y-76655713D02*
X35072285Y-76598570D01*
X35072285Y-76598570D02*
X35015142Y-76484285D01*
X35015142Y-76484285D02*
X35015142Y-76255713D01*
X35015142Y-76255713D02*
X35072285Y-76141428D01*
X35815142Y-75055714D02*
X35186571Y-75055714D01*
X35186571Y-75055714D02*
X35072285Y-75112856D01*
X35072285Y-75112856D02*
X35015142Y-75227142D01*
X35015142Y-75227142D02*
X35015142Y-75455714D01*
X35015142Y-75455714D02*
X35072285Y-75569999D01*
X35758000Y-75055714D02*
X35815142Y-75169999D01*
X35815142Y-75169999D02*
X35815142Y-75455714D01*
X35815142Y-75455714D02*
X35758000Y-75569999D01*
X35758000Y-75569999D02*
X35643714Y-75627142D01*
X35643714Y-75627142D02*
X35529428Y-75627142D01*
X35529428Y-75627142D02*
X35415142Y-75569999D01*
X35415142Y-75569999D02*
X35358000Y-75455714D01*
X35358000Y-75455714D02*
X35358000Y-75169999D01*
X35358000Y-75169999D02*
X35300857Y-75055714D01*
X35758000Y-74027142D02*
X35815142Y-74141428D01*
X35815142Y-74141428D02*
X35815142Y-74370000D01*
X35815142Y-74370000D02*
X35758000Y-74484285D01*
X35758000Y-74484285D02*
X35643714Y-74541428D01*
X35643714Y-74541428D02*
X35186571Y-74541428D01*
X35186571Y-74541428D02*
X35072285Y-74484285D01*
X35072285Y-74484285D02*
X35015142Y-74370000D01*
X35015142Y-74370000D02*
X35015142Y-74141428D01*
X35015142Y-74141428D02*
X35072285Y-74027142D01*
X35072285Y-74027142D02*
X35186571Y-73970000D01*
X35186571Y-73970000D02*
X35300857Y-73970000D01*
X35300857Y-73970000D02*
X35415142Y-74541428D01*
X35815142Y-72941429D02*
X35186571Y-72941429D01*
X35186571Y-72941429D02*
X35072285Y-72998571D01*
X35072285Y-72998571D02*
X35015142Y-73112857D01*
X35015142Y-73112857D02*
X35015142Y-73341429D01*
X35015142Y-73341429D02*
X35072285Y-73455714D01*
X35758000Y-72941429D02*
X35815142Y-73055714D01*
X35815142Y-73055714D02*
X35815142Y-73341429D01*
X35815142Y-73341429D02*
X35758000Y-73455714D01*
X35758000Y-73455714D02*
X35643714Y-73512857D01*
X35643714Y-73512857D02*
X35529428Y-73512857D01*
X35529428Y-73512857D02*
X35415142Y-73455714D01*
X35415142Y-73455714D02*
X35358000Y-73341429D01*
X35358000Y-73341429D02*
X35358000Y-73055714D01*
X35358000Y-73055714D02*
X35300857Y-72941429D01*
X35815142Y-70770000D02*
X35243714Y-71170000D01*
X35815142Y-71455714D02*
X34615142Y-71455714D01*
X34615142Y-71455714D02*
X34615142Y-70998571D01*
X34615142Y-70998571D02*
X34672285Y-70884286D01*
X34672285Y-70884286D02*
X34729428Y-70827143D01*
X34729428Y-70827143D02*
X34843714Y-70770000D01*
X34843714Y-70770000D02*
X35015142Y-70770000D01*
X35015142Y-70770000D02*
X35129428Y-70827143D01*
X35129428Y-70827143D02*
X35186571Y-70884286D01*
X35186571Y-70884286D02*
X35243714Y-70998571D01*
X35243714Y-70998571D02*
X35243714Y-71455714D01*
X35815142Y-70255714D02*
X34615142Y-70255714D01*
X35815142Y-68141428D02*
X35815142Y-68827142D01*
X35815142Y-68484285D02*
X34615142Y-68484285D01*
X34615142Y-68484285D02*
X34786571Y-68598571D01*
X34786571Y-68598571D02*
X34900857Y-68712856D01*
X34900857Y-68712856D02*
X34958000Y-68827142D01*
X35700857Y-67627142D02*
X35758000Y-67569999D01*
X35758000Y-67569999D02*
X35815142Y-67627142D01*
X35815142Y-67627142D02*
X35758000Y-67684285D01*
X35758000Y-67684285D02*
X35700857Y-67627142D01*
X35700857Y-67627142D02*
X35815142Y-67627142D01*
X34729428Y-67112856D02*
X34672285Y-67055713D01*
X34672285Y-67055713D02*
X34615142Y-66941428D01*
X34615142Y-66941428D02*
X34615142Y-66655713D01*
X34615142Y-66655713D02*
X34672285Y-66541428D01*
X34672285Y-66541428D02*
X34729428Y-66484285D01*
X34729428Y-66484285D02*
X34843714Y-66427142D01*
X34843714Y-66427142D02*
X34958000Y-66427142D01*
X34958000Y-66427142D02*
X35129428Y-66484285D01*
X35129428Y-66484285D02*
X35815142Y-67169999D01*
X35815142Y-67169999D02*
X35815142Y-66427142D01*
X35186571Y-64998570D02*
X35186571Y-64598570D01*
X35815142Y-64427142D02*
X35815142Y-64998570D01*
X35815142Y-64998570D02*
X34615142Y-64998570D01*
X34615142Y-64998570D02*
X34615142Y-64427142D01*
X35815142Y-64027142D02*
X35015142Y-63398571D01*
X35015142Y-64027142D02*
X35815142Y-63398571D01*
X35015142Y-63112856D02*
X35015142Y-62655713D01*
X34615142Y-62941427D02*
X35643714Y-62941427D01*
X35643714Y-62941427D02*
X35758000Y-62884284D01*
X35758000Y-62884284D02*
X35815142Y-62769999D01*
X35815142Y-62769999D02*
X35815142Y-62655713D01*
X35758000Y-61798570D02*
X35815142Y-61912856D01*
X35815142Y-61912856D02*
X35815142Y-62141428D01*
X35815142Y-62141428D02*
X35758000Y-62255713D01*
X35758000Y-62255713D02*
X35643714Y-62312856D01*
X35643714Y-62312856D02*
X35186571Y-62312856D01*
X35186571Y-62312856D02*
X35072285Y-62255713D01*
X35072285Y-62255713D02*
X35015142Y-62141428D01*
X35015142Y-62141428D02*
X35015142Y-61912856D01*
X35015142Y-61912856D02*
X35072285Y-61798570D01*
X35072285Y-61798570D02*
X35186571Y-61741428D01*
X35186571Y-61741428D02*
X35300857Y-61741428D01*
X35300857Y-61741428D02*
X35415142Y-62312856D01*
X35015142Y-61227142D02*
X35815142Y-61227142D01*
X35129428Y-61227142D02*
X35072285Y-61169999D01*
X35072285Y-61169999D02*
X35015142Y-61055714D01*
X35015142Y-61055714D02*
X35015142Y-60884285D01*
X35015142Y-60884285D02*
X35072285Y-60769999D01*
X35072285Y-60769999D02*
X35186571Y-60712857D01*
X35186571Y-60712857D02*
X35815142Y-60712857D01*
X35758000Y-60198571D02*
X35815142Y-60084285D01*
X35815142Y-60084285D02*
X35815142Y-59855714D01*
X35815142Y-59855714D02*
X35758000Y-59741428D01*
X35758000Y-59741428D02*
X35643714Y-59684285D01*
X35643714Y-59684285D02*
X35586571Y-59684285D01*
X35586571Y-59684285D02*
X35472285Y-59741428D01*
X35472285Y-59741428D02*
X35415142Y-59855714D01*
X35415142Y-59855714D02*
X35415142Y-60027143D01*
X35415142Y-60027143D02*
X35358000Y-60141428D01*
X35358000Y-60141428D02*
X35243714Y-60198571D01*
X35243714Y-60198571D02*
X35186571Y-60198571D01*
X35186571Y-60198571D02*
X35072285Y-60141428D01*
X35072285Y-60141428D02*
X35015142Y-60027143D01*
X35015142Y-60027143D02*
X35015142Y-59855714D01*
X35015142Y-59855714D02*
X35072285Y-59741428D01*
X35815142Y-59169999D02*
X35015142Y-59169999D01*
X34615142Y-59169999D02*
X34672285Y-59227142D01*
X34672285Y-59227142D02*
X34729428Y-59169999D01*
X34729428Y-59169999D02*
X34672285Y-59112856D01*
X34672285Y-59112856D02*
X34615142Y-59169999D01*
X34615142Y-59169999D02*
X34729428Y-59169999D01*
X35815142Y-58427142D02*
X35758000Y-58541427D01*
X35758000Y-58541427D02*
X35700857Y-58598570D01*
X35700857Y-58598570D02*
X35586571Y-58655713D01*
X35586571Y-58655713D02*
X35243714Y-58655713D01*
X35243714Y-58655713D02*
X35129428Y-58598570D01*
X35129428Y-58598570D02*
X35072285Y-58541427D01*
X35072285Y-58541427D02*
X35015142Y-58427142D01*
X35015142Y-58427142D02*
X35015142Y-58255713D01*
X35015142Y-58255713D02*
X35072285Y-58141427D01*
X35072285Y-58141427D02*
X35129428Y-58084285D01*
X35129428Y-58084285D02*
X35243714Y-58027142D01*
X35243714Y-58027142D02*
X35586571Y-58027142D01*
X35586571Y-58027142D02*
X35700857Y-58084285D01*
X35700857Y-58084285D02*
X35758000Y-58141427D01*
X35758000Y-58141427D02*
X35815142Y-58255713D01*
X35815142Y-58255713D02*
X35815142Y-58427142D01*
X35015142Y-57512856D02*
X35815142Y-57512856D01*
X35129428Y-57512856D02*
X35072285Y-57455713D01*
X35072285Y-57455713D02*
X35015142Y-57341428D01*
X35015142Y-57341428D02*
X35015142Y-57169999D01*
X35015142Y-57169999D02*
X35072285Y-57055713D01*
X35072285Y-57055713D02*
X35186571Y-56998571D01*
X35186571Y-56998571D02*
X35815142Y-56998571D01*
X35358000Y-55512856D02*
X35358000Y-54598571D01*
X34615142Y-53798571D02*
X34615142Y-53684285D01*
X34615142Y-53684285D02*
X34672285Y-53569999D01*
X34672285Y-53569999D02*
X34729428Y-53512857D01*
X34729428Y-53512857D02*
X34843714Y-53455714D01*
X34843714Y-53455714D02*
X35072285Y-53398571D01*
X35072285Y-53398571D02*
X35358000Y-53398571D01*
X35358000Y-53398571D02*
X35586571Y-53455714D01*
X35586571Y-53455714D02*
X35700857Y-53512857D01*
X35700857Y-53512857D02*
X35758000Y-53569999D01*
X35758000Y-53569999D02*
X35815142Y-53684285D01*
X35815142Y-53684285D02*
X35815142Y-53798571D01*
X35815142Y-53798571D02*
X35758000Y-53912857D01*
X35758000Y-53912857D02*
X35700857Y-53969999D01*
X35700857Y-53969999D02*
X35586571Y-54027142D01*
X35586571Y-54027142D02*
X35358000Y-54084285D01*
X35358000Y-54084285D02*
X35072285Y-54084285D01*
X35072285Y-54084285D02*
X34843714Y-54027142D01*
X34843714Y-54027142D02*
X34729428Y-53969999D01*
X34729428Y-53969999D02*
X34672285Y-53912857D01*
X34672285Y-53912857D02*
X34615142Y-53798571D01*
X35700857Y-52884285D02*
X35758000Y-52827142D01*
X35758000Y-52827142D02*
X35815142Y-52884285D01*
X35815142Y-52884285D02*
X35758000Y-52941428D01*
X35758000Y-52941428D02*
X35700857Y-52884285D01*
X35700857Y-52884285D02*
X35815142Y-52884285D01*
X34729428Y-52369999D02*
X34672285Y-52312856D01*
X34672285Y-52312856D02*
X34615142Y-52198571D01*
X34615142Y-52198571D02*
X34615142Y-51912856D01*
X34615142Y-51912856D02*
X34672285Y-51798571D01*
X34672285Y-51798571D02*
X34729428Y-51741428D01*
X34729428Y-51741428D02*
X34843714Y-51684285D01*
X34843714Y-51684285D02*
X34958000Y-51684285D01*
X34958000Y-51684285D02*
X35129428Y-51741428D01*
X35129428Y-51741428D02*
X35815142Y-52427142D01*
X35815142Y-52427142D02*
X35815142Y-51684285D01*
X34615142Y-50598571D02*
X34615142Y-51169999D01*
X34615142Y-51169999D02*
X35186571Y-51227142D01*
X35186571Y-51227142D02*
X35129428Y-51169999D01*
X35129428Y-51169999D02*
X35072285Y-51055714D01*
X35072285Y-51055714D02*
X35072285Y-50769999D01*
X35072285Y-50769999D02*
X35129428Y-50655714D01*
X35129428Y-50655714D02*
X35186571Y-50598571D01*
X35186571Y-50598571D02*
X35300857Y-50541428D01*
X35300857Y-50541428D02*
X35586571Y-50541428D01*
X35586571Y-50541428D02*
X35700857Y-50598571D01*
X35700857Y-50598571D02*
X35758000Y-50655714D01*
X35758000Y-50655714D02*
X35815142Y-50769999D01*
X35815142Y-50769999D02*
X35815142Y-51055714D01*
X35815142Y-51055714D02*
X35758000Y-51169999D01*
X35758000Y-51169999D02*
X35700857Y-51227142D01*
X35015142Y-49512857D02*
X35815142Y-49512857D01*
X35015142Y-50027142D02*
X35643714Y-50027142D01*
X35643714Y-50027142D02*
X35758000Y-49969999D01*
X35758000Y-49969999D02*
X35815142Y-49855714D01*
X35815142Y-49855714D02*
X35815142Y-49684285D01*
X35815142Y-49684285D02*
X35758000Y-49569999D01*
X35758000Y-49569999D02*
X35700857Y-49512857D01*
D10*
X46873571Y-72806000D02*
X47045000Y-72863142D01*
X47045000Y-72863142D02*
X47330714Y-72863142D01*
X47330714Y-72863142D02*
X47445000Y-72806000D01*
X47445000Y-72806000D02*
X47502142Y-72748857D01*
X47502142Y-72748857D02*
X47559285Y-72634571D01*
X47559285Y-72634571D02*
X47559285Y-72520285D01*
X47559285Y-72520285D02*
X47502142Y-72406000D01*
X47502142Y-72406000D02*
X47445000Y-72348857D01*
X47445000Y-72348857D02*
X47330714Y-72291714D01*
X47330714Y-72291714D02*
X47102142Y-72234571D01*
X47102142Y-72234571D02*
X46987857Y-72177428D01*
X46987857Y-72177428D02*
X46930714Y-72120285D01*
X46930714Y-72120285D02*
X46873571Y-72006000D01*
X46873571Y-72006000D02*
X46873571Y-71891714D01*
X46873571Y-71891714D02*
X46930714Y-71777428D01*
X46930714Y-71777428D02*
X46987857Y-71720285D01*
X46987857Y-71720285D02*
X47102142Y-71663142D01*
X47102142Y-71663142D02*
X47387857Y-71663142D01*
X47387857Y-71663142D02*
X47559285Y-71720285D01*
X47959285Y-71663142D02*
X48244999Y-72863142D01*
X48244999Y-72863142D02*
X48473571Y-72006000D01*
X48473571Y-72006000D02*
X48702142Y-72863142D01*
X48702142Y-72863142D02*
X48987857Y-71663142D01*
X49330714Y-71663142D02*
X50073571Y-71663142D01*
X50073571Y-71663142D02*
X49673571Y-72120285D01*
X49673571Y-72120285D02*
X49845000Y-72120285D01*
X49845000Y-72120285D02*
X49959286Y-72177428D01*
X49959286Y-72177428D02*
X50016428Y-72234571D01*
X50016428Y-72234571D02*
X50073571Y-72348857D01*
X50073571Y-72348857D02*
X50073571Y-72634571D01*
X50073571Y-72634571D02*
X50016428Y-72748857D01*
X50016428Y-72748857D02*
X49959286Y-72806000D01*
X49959286Y-72806000D02*
X49845000Y-72863142D01*
X49845000Y-72863142D02*
X49502143Y-72863142D01*
X49502143Y-72863142D02*
X49387857Y-72806000D01*
X49387857Y-72806000D02*
X49330714Y-72748857D01*
X50473571Y-71663142D02*
X51216428Y-71663142D01*
X51216428Y-71663142D02*
X50816428Y-72120285D01*
X50816428Y-72120285D02*
X50987857Y-72120285D01*
X50987857Y-72120285D02*
X51102143Y-72177428D01*
X51102143Y-72177428D02*
X51159285Y-72234571D01*
X51159285Y-72234571D02*
X51216428Y-72348857D01*
X51216428Y-72348857D02*
X51216428Y-72634571D01*
X51216428Y-72634571D02*
X51159285Y-72748857D01*
X51159285Y-72748857D02*
X51102143Y-72806000D01*
X51102143Y-72806000D02*
X50987857Y-72863142D01*
X50987857Y-72863142D02*
X50645000Y-72863142D01*
X50645000Y-72863142D02*
X50530714Y-72806000D01*
X50530714Y-72806000D02*
X50473571Y-72748857D01*
X46723571Y-35056000D02*
X46895000Y-35113142D01*
X46895000Y-35113142D02*
X47180714Y-35113142D01*
X47180714Y-35113142D02*
X47295000Y-35056000D01*
X47295000Y-35056000D02*
X47352142Y-34998857D01*
X47352142Y-34998857D02*
X47409285Y-34884571D01*
X47409285Y-34884571D02*
X47409285Y-34770285D01*
X47409285Y-34770285D02*
X47352142Y-34656000D01*
X47352142Y-34656000D02*
X47295000Y-34598857D01*
X47295000Y-34598857D02*
X47180714Y-34541714D01*
X47180714Y-34541714D02*
X46952142Y-34484571D01*
X46952142Y-34484571D02*
X46837857Y-34427428D01*
X46837857Y-34427428D02*
X46780714Y-34370285D01*
X46780714Y-34370285D02*
X46723571Y-34256000D01*
X46723571Y-34256000D02*
X46723571Y-34141714D01*
X46723571Y-34141714D02*
X46780714Y-34027428D01*
X46780714Y-34027428D02*
X46837857Y-33970285D01*
X46837857Y-33970285D02*
X46952142Y-33913142D01*
X46952142Y-33913142D02*
X47237857Y-33913142D01*
X47237857Y-33913142D02*
X47409285Y-33970285D01*
X47809285Y-33913142D02*
X48094999Y-35113142D01*
X48094999Y-35113142D02*
X48323571Y-34256000D01*
X48323571Y-34256000D02*
X48552142Y-35113142D01*
X48552142Y-35113142D02*
X48837857Y-33913142D01*
X49923571Y-35113142D02*
X49237857Y-35113142D01*
X49580714Y-35113142D02*
X49580714Y-33913142D01*
X49580714Y-33913142D02*
X49466428Y-34084571D01*
X49466428Y-34084571D02*
X49352143Y-34198857D01*
X49352143Y-34198857D02*
X49237857Y-34256000D01*
X50323571Y-33913142D02*
X51066428Y-33913142D01*
X51066428Y-33913142D02*
X50666428Y-34370285D01*
X50666428Y-34370285D02*
X50837857Y-34370285D01*
X50837857Y-34370285D02*
X50952143Y-34427428D01*
X50952143Y-34427428D02*
X51009285Y-34484571D01*
X51009285Y-34484571D02*
X51066428Y-34598857D01*
X51066428Y-34598857D02*
X51066428Y-34884571D01*
X51066428Y-34884571D02*
X51009285Y-34998857D01*
X51009285Y-34998857D02*
X50952143Y-35056000D01*
X50952143Y-35056000D02*
X50837857Y-35113142D01*
X50837857Y-35113142D02*
X50495000Y-35113142D01*
X50495000Y-35113142D02*
X50380714Y-35056000D01*
X50380714Y-35056000D02*
X50323571Y-34998857D01*
X47173571Y-54086000D02*
X47345000Y-54143142D01*
X47345000Y-54143142D02*
X47630714Y-54143142D01*
X47630714Y-54143142D02*
X47745000Y-54086000D01*
X47745000Y-54086000D02*
X47802142Y-54028857D01*
X47802142Y-54028857D02*
X47859285Y-53914571D01*
X47859285Y-53914571D02*
X47859285Y-53800285D01*
X47859285Y-53800285D02*
X47802142Y-53686000D01*
X47802142Y-53686000D02*
X47745000Y-53628857D01*
X47745000Y-53628857D02*
X47630714Y-53571714D01*
X47630714Y-53571714D02*
X47402142Y-53514571D01*
X47402142Y-53514571D02*
X47287857Y-53457428D01*
X47287857Y-53457428D02*
X47230714Y-53400285D01*
X47230714Y-53400285D02*
X47173571Y-53286000D01*
X47173571Y-53286000D02*
X47173571Y-53171714D01*
X47173571Y-53171714D02*
X47230714Y-53057428D01*
X47230714Y-53057428D02*
X47287857Y-53000285D01*
X47287857Y-53000285D02*
X47402142Y-52943142D01*
X47402142Y-52943142D02*
X47687857Y-52943142D01*
X47687857Y-52943142D02*
X47859285Y-53000285D01*
X48259285Y-52943142D02*
X48544999Y-54143142D01*
X48544999Y-54143142D02*
X48773571Y-53286000D01*
X48773571Y-53286000D02*
X49002142Y-54143142D01*
X49002142Y-54143142D02*
X49287857Y-52943142D01*
X50373571Y-54143142D02*
X49687857Y-54143142D01*
X50030714Y-54143142D02*
X50030714Y-52943142D01*
X50030714Y-52943142D02*
X49916428Y-53114571D01*
X49916428Y-53114571D02*
X49802143Y-53228857D01*
X49802143Y-53228857D02*
X49687857Y-53286000D01*
X50773571Y-52943142D02*
X51573571Y-52943142D01*
X51573571Y-52943142D02*
X51059285Y-54143142D01*
X65333571Y-68086000D02*
X65505000Y-68143142D01*
X65505000Y-68143142D02*
X65790714Y-68143142D01*
X65790714Y-68143142D02*
X65905000Y-68086000D01*
X65905000Y-68086000D02*
X65962142Y-68028857D01*
X65962142Y-68028857D02*
X66019285Y-67914571D01*
X66019285Y-67914571D02*
X66019285Y-67800285D01*
X66019285Y-67800285D02*
X65962142Y-67686000D01*
X65962142Y-67686000D02*
X65905000Y-67628857D01*
X65905000Y-67628857D02*
X65790714Y-67571714D01*
X65790714Y-67571714D02*
X65562142Y-67514571D01*
X65562142Y-67514571D02*
X65447857Y-67457428D01*
X65447857Y-67457428D02*
X65390714Y-67400285D01*
X65390714Y-67400285D02*
X65333571Y-67286000D01*
X65333571Y-67286000D02*
X65333571Y-67171714D01*
X65333571Y-67171714D02*
X65390714Y-67057428D01*
X65390714Y-67057428D02*
X65447857Y-67000285D01*
X65447857Y-67000285D02*
X65562142Y-66943142D01*
X65562142Y-66943142D02*
X65847857Y-66943142D01*
X65847857Y-66943142D02*
X66019285Y-67000285D01*
X66419285Y-66943142D02*
X66704999Y-68143142D01*
X66704999Y-68143142D02*
X66933571Y-67286000D01*
X66933571Y-67286000D02*
X67162142Y-68143142D01*
X67162142Y-68143142D02*
X67447857Y-66943142D01*
X67790714Y-66943142D02*
X68533571Y-66943142D01*
X68533571Y-66943142D02*
X68133571Y-67400285D01*
X68133571Y-67400285D02*
X68305000Y-67400285D01*
X68305000Y-67400285D02*
X68419286Y-67457428D01*
X68419286Y-67457428D02*
X68476428Y-67514571D01*
X68476428Y-67514571D02*
X68533571Y-67628857D01*
X68533571Y-67628857D02*
X68533571Y-67914571D01*
X68533571Y-67914571D02*
X68476428Y-68028857D01*
X68476428Y-68028857D02*
X68419286Y-68086000D01*
X68419286Y-68086000D02*
X68305000Y-68143142D01*
X68305000Y-68143142D02*
X67962143Y-68143142D01*
X67962143Y-68143142D02*
X67847857Y-68086000D01*
X67847857Y-68086000D02*
X67790714Y-68028857D01*
X69562143Y-67343142D02*
X69562143Y-68143142D01*
X69276428Y-66886000D02*
X68990714Y-67743142D01*
X68990714Y-67743142D02*
X69733571Y-67743142D01*
X66083571Y-87216000D02*
X66255000Y-87273142D01*
X66255000Y-87273142D02*
X66540714Y-87273142D01*
X66540714Y-87273142D02*
X66655000Y-87216000D01*
X66655000Y-87216000D02*
X66712142Y-87158857D01*
X66712142Y-87158857D02*
X66769285Y-87044571D01*
X66769285Y-87044571D02*
X66769285Y-86930285D01*
X66769285Y-86930285D02*
X66712142Y-86816000D01*
X66712142Y-86816000D02*
X66655000Y-86758857D01*
X66655000Y-86758857D02*
X66540714Y-86701714D01*
X66540714Y-86701714D02*
X66312142Y-86644571D01*
X66312142Y-86644571D02*
X66197857Y-86587428D01*
X66197857Y-86587428D02*
X66140714Y-86530285D01*
X66140714Y-86530285D02*
X66083571Y-86416000D01*
X66083571Y-86416000D02*
X66083571Y-86301714D01*
X66083571Y-86301714D02*
X66140714Y-86187428D01*
X66140714Y-86187428D02*
X66197857Y-86130285D01*
X66197857Y-86130285D02*
X66312142Y-86073142D01*
X66312142Y-86073142D02*
X66597857Y-86073142D01*
X66597857Y-86073142D02*
X66769285Y-86130285D01*
X67169285Y-86073142D02*
X67454999Y-87273142D01*
X67454999Y-87273142D02*
X67683571Y-86416000D01*
X67683571Y-86416000D02*
X67912142Y-87273142D01*
X67912142Y-87273142D02*
X68197857Y-86073142D01*
X68540714Y-86073142D02*
X69283571Y-86073142D01*
X69283571Y-86073142D02*
X68883571Y-86530285D01*
X68883571Y-86530285D02*
X69055000Y-86530285D01*
X69055000Y-86530285D02*
X69169286Y-86587428D01*
X69169286Y-86587428D02*
X69226428Y-86644571D01*
X69226428Y-86644571D02*
X69283571Y-86758857D01*
X69283571Y-86758857D02*
X69283571Y-87044571D01*
X69283571Y-87044571D02*
X69226428Y-87158857D01*
X69226428Y-87158857D02*
X69169286Y-87216000D01*
X69169286Y-87216000D02*
X69055000Y-87273142D01*
X69055000Y-87273142D02*
X68712143Y-87273142D01*
X68712143Y-87273142D02*
X68597857Y-87216000D01*
X68597857Y-87216000D02*
X68540714Y-87158857D01*
X69969285Y-86587428D02*
X69855000Y-86530285D01*
X69855000Y-86530285D02*
X69797857Y-86473142D01*
X69797857Y-86473142D02*
X69740714Y-86358857D01*
X69740714Y-86358857D02*
X69740714Y-86301714D01*
X69740714Y-86301714D02*
X69797857Y-86187428D01*
X69797857Y-86187428D02*
X69855000Y-86130285D01*
X69855000Y-86130285D02*
X69969285Y-86073142D01*
X69969285Y-86073142D02*
X70197857Y-86073142D01*
X70197857Y-86073142D02*
X70312143Y-86130285D01*
X70312143Y-86130285D02*
X70369285Y-86187428D01*
X70369285Y-86187428D02*
X70426428Y-86301714D01*
X70426428Y-86301714D02*
X70426428Y-86358857D01*
X70426428Y-86358857D02*
X70369285Y-86473142D01*
X70369285Y-86473142D02*
X70312143Y-86530285D01*
X70312143Y-86530285D02*
X70197857Y-86587428D01*
X70197857Y-86587428D02*
X69969285Y-86587428D01*
X69969285Y-86587428D02*
X69855000Y-86644571D01*
X69855000Y-86644571D02*
X69797857Y-86701714D01*
X69797857Y-86701714D02*
X69740714Y-86816000D01*
X69740714Y-86816000D02*
X69740714Y-87044571D01*
X69740714Y-87044571D02*
X69797857Y-87158857D01*
X69797857Y-87158857D02*
X69855000Y-87216000D01*
X69855000Y-87216000D02*
X69969285Y-87273142D01*
X69969285Y-87273142D02*
X70197857Y-87273142D01*
X70197857Y-87273142D02*
X70312143Y-87216000D01*
X70312143Y-87216000D02*
X70369285Y-87158857D01*
X70369285Y-87158857D02*
X70426428Y-87044571D01*
X70426428Y-87044571D02*
X70426428Y-86816000D01*
X70426428Y-86816000D02*
X70369285Y-86701714D01*
X70369285Y-86701714D02*
X70312143Y-86644571D01*
X70312143Y-86644571D02*
X70197857Y-86587428D01*
D11*
X38967857Y-25622857D02*
X38967857Y-26575238D01*
X38467857Y-24575238D02*
X38967857Y-25622857D01*
X38967857Y-25622857D02*
X39467857Y-24575238D01*
X39967856Y-25813333D02*
X41110714Y-25813333D01*
X41753571Y-24765714D02*
X41824999Y-24670476D01*
X41824999Y-24670476D02*
X41967857Y-24575238D01*
X41967857Y-24575238D02*
X42324999Y-24575238D01*
X42324999Y-24575238D02*
X42467857Y-24670476D01*
X42467857Y-24670476D02*
X42539285Y-24765714D01*
X42539285Y-24765714D02*
X42610714Y-24956190D01*
X42610714Y-24956190D02*
X42610714Y-25146666D01*
X42610714Y-25146666D02*
X42539285Y-25432380D01*
X42539285Y-25432380D02*
X41682142Y-26575238D01*
X41682142Y-26575238D02*
X42610714Y-26575238D01*
X43539285Y-24575238D02*
X43682142Y-24575238D01*
X43682142Y-24575238D02*
X43824999Y-24670476D01*
X43824999Y-24670476D02*
X43896428Y-24765714D01*
X43896428Y-24765714D02*
X43967856Y-24956190D01*
X43967856Y-24956190D02*
X44039285Y-25337142D01*
X44039285Y-25337142D02*
X44039285Y-25813333D01*
X44039285Y-25813333D02*
X43967856Y-26194285D01*
X43967856Y-26194285D02*
X43896428Y-26384761D01*
X43896428Y-26384761D02*
X43824999Y-26480000D01*
X43824999Y-26480000D02*
X43682142Y-26575238D01*
X43682142Y-26575238D02*
X43539285Y-26575238D01*
X43539285Y-26575238D02*
X43396428Y-26480000D01*
X43396428Y-26480000D02*
X43324999Y-26384761D01*
X43324999Y-26384761D02*
X43253570Y-26194285D01*
X43253570Y-26194285D02*
X43182142Y-25813333D01*
X43182142Y-25813333D02*
X43182142Y-25337142D01*
X43182142Y-25337142D02*
X43253570Y-24956190D01*
X43253570Y-24956190D02*
X43324999Y-24765714D01*
X43324999Y-24765714D02*
X43396428Y-24670476D01*
X43396428Y-24670476D02*
X43539285Y-24575238D01*
X44682141Y-26384761D02*
X44753570Y-26480000D01*
X44753570Y-26480000D02*
X44682141Y-26575238D01*
X44682141Y-26575238D02*
X44610713Y-26480000D01*
X44610713Y-26480000D02*
X44682141Y-26384761D01*
X44682141Y-26384761D02*
X44682141Y-26575238D01*
X46110713Y-24575238D02*
X45396427Y-24575238D01*
X45396427Y-24575238D02*
X45324999Y-25527619D01*
X45324999Y-25527619D02*
X45396427Y-25432380D01*
X45396427Y-25432380D02*
X45539285Y-25337142D01*
X45539285Y-25337142D02*
X45896427Y-25337142D01*
X45896427Y-25337142D02*
X46039285Y-25432380D01*
X46039285Y-25432380D02*
X46110713Y-25527619D01*
X46110713Y-25527619D02*
X46182142Y-25718095D01*
X46182142Y-25718095D02*
X46182142Y-26194285D01*
X46182142Y-26194285D02*
X46110713Y-26384761D01*
X46110713Y-26384761D02*
X46039285Y-26480000D01*
X46039285Y-26480000D02*
X45896427Y-26575238D01*
X45896427Y-26575238D02*
X45539285Y-26575238D01*
X45539285Y-26575238D02*
X45396427Y-26480000D01*
X45396427Y-26480000D02*
X45324999Y-26384761D01*
X47039284Y-25432380D02*
X46896427Y-25337142D01*
X46896427Y-25337142D02*
X46824998Y-25241904D01*
X46824998Y-25241904D02*
X46753570Y-25051428D01*
X46753570Y-25051428D02*
X46753570Y-24956190D01*
X46753570Y-24956190D02*
X46824998Y-24765714D01*
X46824998Y-24765714D02*
X46896427Y-24670476D01*
X46896427Y-24670476D02*
X47039284Y-24575238D01*
X47039284Y-24575238D02*
X47324998Y-24575238D01*
X47324998Y-24575238D02*
X47467856Y-24670476D01*
X47467856Y-24670476D02*
X47539284Y-24765714D01*
X47539284Y-24765714D02*
X47610713Y-24956190D01*
X47610713Y-24956190D02*
X47610713Y-25051428D01*
X47610713Y-25051428D02*
X47539284Y-25241904D01*
X47539284Y-25241904D02*
X47467856Y-25337142D01*
X47467856Y-25337142D02*
X47324998Y-25432380D01*
X47324998Y-25432380D02*
X47039284Y-25432380D01*
X47039284Y-25432380D02*
X46896427Y-25527619D01*
X46896427Y-25527619D02*
X46824998Y-25622857D01*
X46824998Y-25622857D02*
X46753570Y-25813333D01*
X46753570Y-25813333D02*
X46753570Y-26194285D01*
X46753570Y-26194285D02*
X46824998Y-26384761D01*
X46824998Y-26384761D02*
X46896427Y-26480000D01*
X46896427Y-26480000D02*
X47039284Y-26575238D01*
X47039284Y-26575238D02*
X47324998Y-26575238D01*
X47324998Y-26575238D02*
X47467856Y-26480000D01*
X47467856Y-26480000D02*
X47539284Y-26384761D01*
X47539284Y-26384761D02*
X47610713Y-26194285D01*
X47610713Y-26194285D02*
X47610713Y-25813333D01*
X47610713Y-25813333D02*
X47539284Y-25622857D01*
X47539284Y-25622857D02*
X47467856Y-25527619D01*
X47467856Y-25527619D02*
X47324998Y-25432380D01*
X48182141Y-24765714D02*
X48253569Y-24670476D01*
X48253569Y-24670476D02*
X48396427Y-24575238D01*
X48396427Y-24575238D02*
X48753569Y-24575238D01*
X48753569Y-24575238D02*
X48896427Y-24670476D01*
X48896427Y-24670476D02*
X48967855Y-24765714D01*
X48967855Y-24765714D02*
X49039284Y-24956190D01*
X49039284Y-24956190D02*
X49039284Y-25146666D01*
X49039284Y-25146666D02*
X48967855Y-25432380D01*
X48967855Y-25432380D02*
X48110712Y-26575238D01*
X48110712Y-26575238D02*
X49039284Y-26575238D01*
X50396426Y-24575238D02*
X49682140Y-24575238D01*
X49682140Y-24575238D02*
X49610712Y-25527619D01*
X49610712Y-25527619D02*
X49682140Y-25432380D01*
X49682140Y-25432380D02*
X49824998Y-25337142D01*
X49824998Y-25337142D02*
X50182140Y-25337142D01*
X50182140Y-25337142D02*
X50324998Y-25432380D01*
X50324998Y-25432380D02*
X50396426Y-25527619D01*
X50396426Y-25527619D02*
X50467855Y-25718095D01*
X50467855Y-25718095D02*
X50467855Y-26194285D01*
X50467855Y-26194285D02*
X50396426Y-26384761D01*
X50396426Y-26384761D02*
X50324998Y-26480000D01*
X50324998Y-26480000D02*
X50182140Y-26575238D01*
X50182140Y-26575238D02*
X49824998Y-26575238D01*
X49824998Y-26575238D02*
X49682140Y-26480000D01*
X49682140Y-26480000D02*
X49610712Y-26384761D01*
D12*
%TO.C,H11*%
X34861905Y-83372619D02*
X34861905Y-82372619D01*
X34861905Y-82848809D02*
X35433333Y-82848809D01*
X35433333Y-83372619D02*
X35433333Y-82372619D01*
X36433333Y-83372619D02*
X35861905Y-83372619D01*
X36147619Y-83372619D02*
X36147619Y-82372619D01*
X36147619Y-82372619D02*
X36052381Y-82515476D01*
X36052381Y-82515476D02*
X35957143Y-82610714D01*
X35957143Y-82610714D02*
X35861905Y-82658333D01*
X37385714Y-83372619D02*
X36814286Y-83372619D01*
X37100000Y-83372619D02*
X37100000Y-82372619D01*
X37100000Y-82372619D02*
X37004762Y-82515476D01*
X37004762Y-82515476D02*
X36909524Y-82610714D01*
X36909524Y-82610714D02*
X36814286Y-82658333D01*
%TO.C,H10*%
X68326905Y-78592619D02*
X68326905Y-77592619D01*
X68326905Y-78068809D02*
X68898333Y-78068809D01*
X68898333Y-78592619D02*
X68898333Y-77592619D01*
X69898333Y-78592619D02*
X69326905Y-78592619D01*
X69612619Y-78592619D02*
X69612619Y-77592619D01*
X69612619Y-77592619D02*
X69517381Y-77735476D01*
X69517381Y-77735476D02*
X69422143Y-77830714D01*
X69422143Y-77830714D02*
X69326905Y-77878333D01*
X70517381Y-77592619D02*
X70612619Y-77592619D01*
X70612619Y-77592619D02*
X70707857Y-77640238D01*
X70707857Y-77640238D02*
X70755476Y-77687857D01*
X70755476Y-77687857D02*
X70803095Y-77783095D01*
X70803095Y-77783095D02*
X70850714Y-77973571D01*
X70850714Y-77973571D02*
X70850714Y-78211666D01*
X70850714Y-78211666D02*
X70803095Y-78402142D01*
X70803095Y-78402142D02*
X70755476Y-78497380D01*
X70755476Y-78497380D02*
X70707857Y-78545000D01*
X70707857Y-78545000D02*
X70612619Y-78592619D01*
X70612619Y-78592619D02*
X70517381Y-78592619D01*
X70517381Y-78592619D02*
X70422143Y-78545000D01*
X70422143Y-78545000D02*
X70374524Y-78497380D01*
X70374524Y-78497380D02*
X70326905Y-78402142D01*
X70326905Y-78402142D02*
X70279286Y-78211666D01*
X70279286Y-78211666D02*
X70279286Y-77973571D01*
X70279286Y-77973571D02*
X70326905Y-77783095D01*
X70326905Y-77783095D02*
X70374524Y-77687857D01*
X70374524Y-77687857D02*
X70422143Y-77640238D01*
X70422143Y-77640238D02*
X70517381Y-77592619D01*
%TO.C,H12*%
X35001905Y-45822619D02*
X35001905Y-44822619D01*
X35001905Y-45298809D02*
X35573333Y-45298809D01*
X35573333Y-45822619D02*
X35573333Y-44822619D01*
X36573333Y-45822619D02*
X36001905Y-45822619D01*
X36287619Y-45822619D02*
X36287619Y-44822619D01*
X36287619Y-44822619D02*
X36192381Y-44965476D01*
X36192381Y-44965476D02*
X36097143Y-45060714D01*
X36097143Y-45060714D02*
X36001905Y-45108333D01*
X36954286Y-44917857D02*
X37001905Y-44870238D01*
X37001905Y-44870238D02*
X37097143Y-44822619D01*
X37097143Y-44822619D02*
X37335238Y-44822619D01*
X37335238Y-44822619D02*
X37430476Y-44870238D01*
X37430476Y-44870238D02*
X37478095Y-44917857D01*
X37478095Y-44917857D02*
X37525714Y-45013095D01*
X37525714Y-45013095D02*
X37525714Y-45108333D01*
X37525714Y-45108333D02*
X37478095Y-45251190D01*
X37478095Y-45251190D02*
X36906667Y-45822619D01*
X36906667Y-45822619D02*
X37525714Y-45822619D01*
%TO.C,H9*%
X68813095Y-40932619D02*
X68813095Y-39932619D01*
X68813095Y-40408809D02*
X69384523Y-40408809D01*
X69384523Y-40932619D02*
X69384523Y-39932619D01*
X69908333Y-40932619D02*
X70098809Y-40932619D01*
X70098809Y-40932619D02*
X70194047Y-40885000D01*
X70194047Y-40885000D02*
X70241666Y-40837380D01*
X70241666Y-40837380D02*
X70336904Y-40694523D01*
X70336904Y-40694523D02*
X70384523Y-40504047D01*
X70384523Y-40504047D02*
X70384523Y-40123095D01*
X70384523Y-40123095D02*
X70336904Y-40027857D01*
X70336904Y-40027857D02*
X70289285Y-39980238D01*
X70289285Y-39980238D02*
X70194047Y-39932619D01*
X70194047Y-39932619D02*
X70003571Y-39932619D01*
X70003571Y-39932619D02*
X69908333Y-39980238D01*
X69908333Y-39980238D02*
X69860714Y-40027857D01*
X69860714Y-40027857D02*
X69813095Y-40123095D01*
X69813095Y-40123095D02*
X69813095Y-40361190D01*
X69813095Y-40361190D02*
X69860714Y-40456428D01*
X69860714Y-40456428D02*
X69908333Y-40504047D01*
X69908333Y-40504047D02*
X70003571Y-40551666D01*
X70003571Y-40551666D02*
X70194047Y-40551666D01*
X70194047Y-40551666D02*
X70289285Y-40504047D01*
X70289285Y-40504047D02*
X70336904Y-40456428D01*
X70336904Y-40456428D02*
X70384523Y-40361190D01*
%TO.C,SW13*%
X36508125Y-29555625D02*
X38095625Y-29555625D01*
X36508125Y-31143125D02*
X36508125Y-29555625D01*
X36508125Y-43049375D02*
X36508125Y-41461875D01*
X38095625Y-43049375D02*
X36508125Y-43049375D01*
X48414375Y-29555625D02*
X50001875Y-29555625D01*
X50001875Y-29555625D02*
X50001875Y-31143125D01*
X50001875Y-41461875D02*
X50001875Y-43049375D01*
X50001875Y-43049375D02*
X48414375Y-43049375D01*
%TO.C,SW18*%
X55598125Y-43693125D02*
X57185625Y-43693125D01*
X55598125Y-45280625D02*
X55598125Y-43693125D01*
X55598125Y-57186875D02*
X55598125Y-55599375D01*
X57185625Y-57186875D02*
X55598125Y-57186875D01*
X67504375Y-43693125D02*
X69091875Y-43693125D01*
X69091875Y-43693125D02*
X69091875Y-45280625D01*
X69091875Y-55599375D02*
X69091875Y-57186875D01*
X69091875Y-57186875D02*
X67504375Y-57186875D01*
%TO.C,SW34*%
X55598125Y-62543125D02*
X57185625Y-62543125D01*
X55598125Y-64130625D02*
X55598125Y-62543125D01*
X55598125Y-76036875D02*
X55598125Y-74449375D01*
X57185625Y-76036875D02*
X55598125Y-76036875D01*
X67504375Y-62543125D02*
X69091875Y-62543125D01*
X69091875Y-62543125D02*
X69091875Y-64130625D01*
X69091875Y-74449375D02*
X69091875Y-76036875D01*
X69091875Y-76036875D02*
X67504375Y-76036875D01*
%TO.C,SW17*%
X36508125Y-48405625D02*
X38095625Y-48405625D01*
X36508125Y-49993125D02*
X36508125Y-48405625D01*
X36508125Y-61899375D02*
X36508125Y-60311875D01*
X38095625Y-61899375D02*
X36508125Y-61899375D01*
X48414375Y-48405625D02*
X50001875Y-48405625D01*
X50001875Y-48405625D02*
X50001875Y-49993125D01*
X50001875Y-60311875D02*
X50001875Y-61899375D01*
X50001875Y-61899375D02*
X48414375Y-61899375D01*
%TO.C,SW38*%
X55598125Y-81393125D02*
X57185625Y-81393125D01*
X55598125Y-82980625D02*
X55598125Y-81393125D01*
X55598125Y-94886875D02*
X55598125Y-93299375D01*
X57185625Y-94886875D02*
X55598125Y-94886875D01*
X67504375Y-81393125D02*
X69091875Y-81393125D01*
X69091875Y-81393125D02*
X69091875Y-82980625D01*
X69091875Y-93299375D02*
X69091875Y-94886875D01*
X69091875Y-94886875D02*
X67504375Y-94886875D01*
%TO.C,SW33*%
X36508125Y-67255625D02*
X38095625Y-67255625D01*
X36508125Y-68843125D02*
X36508125Y-67255625D01*
X36508125Y-80749375D02*
X36508125Y-79161875D01*
X38095625Y-80749375D02*
X36508125Y-80749375D01*
X48414375Y-67255625D02*
X50001875Y-67255625D01*
X50001875Y-67255625D02*
X50001875Y-68843125D01*
X50001875Y-79161875D02*
X50001875Y-80749375D01*
X50001875Y-80749375D02*
X48414375Y-80749375D01*
%TO.C,SW37*%
X36508125Y-86105625D02*
X38095625Y-86105625D01*
X36508125Y-87693125D02*
X36508125Y-86105625D01*
X36508125Y-99599375D02*
X36508125Y-98011875D01*
X38095625Y-99599375D02*
X36508125Y-99599375D01*
X48414375Y-86105625D02*
X50001875Y-86105625D01*
X50001875Y-86105625D02*
X50001875Y-87693125D01*
X50001875Y-98011875D02*
X50001875Y-99599375D01*
X50001875Y-99599375D02*
X48414375Y-99599375D01*
%TO.C,SW14*%
X55598125Y-24843125D02*
X57185625Y-24843125D01*
X55598125Y-26430625D02*
X55598125Y-24843125D01*
X55598125Y-38336875D02*
X55598125Y-36749375D01*
X57185625Y-38336875D02*
X55598125Y-38336875D01*
X67504375Y-24843125D02*
X69091875Y-24843125D01*
X69091875Y-24843125D02*
X69091875Y-26430625D01*
X69091875Y-36749375D02*
X69091875Y-38336875D01*
X69091875Y-38336875D02*
X67504375Y-38336875D01*
%TD*%
M02*
