%TF.GenerationSoftware,KiCad,Pcbnew,7.0.1-0*%
%TF.CreationDate,2023-03-29T21:14:19+09:00*%
%TF.ProjectId,pangaea-pcb-pinkey-0.25u,70616e67-6165-4612-9d70-63622d70696e,rev?*%
%TF.SameCoordinates,Original*%
%TF.FileFunction,Legend,Bot*%
%TF.FilePolarity,Positive*%
%FSLAX46Y46*%
G04 Gerber Fmt 4.6, Leading zero omitted, Abs format (unit mm)*
G04 Created by KiCad (PCBNEW 7.0.1-0) date 2023-03-29 21:14:19*
%MOMM*%
%LPD*%
G01*
G04 APERTURE LIST*
%ADD10C,0.300000*%
%ADD11C,0.150000*%
%ADD12C,0.162500*%
%ADD13C,0.200000*%
%ADD14C,0.120000*%
G04 APERTURE END LIST*
D10*
X51938857Y-87571428D02*
X51996000Y-87514285D01*
X51996000Y-87514285D02*
X52053142Y-87342857D01*
X52053142Y-87342857D02*
X52053142Y-87228571D01*
X52053142Y-87228571D02*
X51996000Y-87057142D01*
X51996000Y-87057142D02*
X51881714Y-86942857D01*
X51881714Y-86942857D02*
X51767428Y-86885714D01*
X51767428Y-86885714D02*
X51538857Y-86828571D01*
X51538857Y-86828571D02*
X51367428Y-86828571D01*
X51367428Y-86828571D02*
X51138857Y-86885714D01*
X51138857Y-86885714D02*
X51024571Y-86942857D01*
X51024571Y-86942857D02*
X50910285Y-87057142D01*
X50910285Y-87057142D02*
X50853142Y-87228571D01*
X50853142Y-87228571D02*
X50853142Y-87342857D01*
X50853142Y-87342857D02*
X50910285Y-87514285D01*
X50910285Y-87514285D02*
X50967428Y-87571428D01*
X52053142Y-88085714D02*
X50853142Y-88085714D01*
X52053142Y-88600000D02*
X51424571Y-88600000D01*
X51424571Y-88600000D02*
X51310285Y-88542857D01*
X51310285Y-88542857D02*
X51253142Y-88428571D01*
X51253142Y-88428571D02*
X51253142Y-88257142D01*
X51253142Y-88257142D02*
X51310285Y-88142857D01*
X51310285Y-88142857D02*
X51367428Y-88085714D01*
X52053142Y-89342856D02*
X51996000Y-89228571D01*
X51996000Y-89228571D02*
X51938857Y-89171428D01*
X51938857Y-89171428D02*
X51824571Y-89114285D01*
X51824571Y-89114285D02*
X51481714Y-89114285D01*
X51481714Y-89114285D02*
X51367428Y-89171428D01*
X51367428Y-89171428D02*
X51310285Y-89228571D01*
X51310285Y-89228571D02*
X51253142Y-89342856D01*
X51253142Y-89342856D02*
X51253142Y-89514285D01*
X51253142Y-89514285D02*
X51310285Y-89628571D01*
X51310285Y-89628571D02*
X51367428Y-89685714D01*
X51367428Y-89685714D02*
X51481714Y-89742856D01*
X51481714Y-89742856D02*
X51824571Y-89742856D01*
X51824571Y-89742856D02*
X51938857Y-89685714D01*
X51938857Y-89685714D02*
X51996000Y-89628571D01*
X51996000Y-89628571D02*
X52053142Y-89514285D01*
X52053142Y-89514285D02*
X52053142Y-89342856D01*
X51996000Y-90771428D02*
X52053142Y-90657142D01*
X52053142Y-90657142D02*
X52053142Y-90428570D01*
X52053142Y-90428570D02*
X51996000Y-90314285D01*
X51996000Y-90314285D02*
X51938857Y-90257142D01*
X51938857Y-90257142D02*
X51824571Y-90199999D01*
X51824571Y-90199999D02*
X51481714Y-90199999D01*
X51481714Y-90199999D02*
X51367428Y-90257142D01*
X51367428Y-90257142D02*
X51310285Y-90314285D01*
X51310285Y-90314285D02*
X51253142Y-90428570D01*
X51253142Y-90428570D02*
X51253142Y-90657142D01*
X51253142Y-90657142D02*
X51310285Y-90771428D01*
X51938857Y-68371428D02*
X51996000Y-68314285D01*
X51996000Y-68314285D02*
X52053142Y-68142857D01*
X52053142Y-68142857D02*
X52053142Y-68028571D01*
X52053142Y-68028571D02*
X51996000Y-67857142D01*
X51996000Y-67857142D02*
X51881714Y-67742857D01*
X51881714Y-67742857D02*
X51767428Y-67685714D01*
X51767428Y-67685714D02*
X51538857Y-67628571D01*
X51538857Y-67628571D02*
X51367428Y-67628571D01*
X51367428Y-67628571D02*
X51138857Y-67685714D01*
X51138857Y-67685714D02*
X51024571Y-67742857D01*
X51024571Y-67742857D02*
X50910285Y-67857142D01*
X50910285Y-67857142D02*
X50853142Y-68028571D01*
X50853142Y-68028571D02*
X50853142Y-68142857D01*
X50853142Y-68142857D02*
X50910285Y-68314285D01*
X50910285Y-68314285D02*
X50967428Y-68371428D01*
X52053142Y-68885714D02*
X50853142Y-68885714D01*
X52053142Y-69400000D02*
X51424571Y-69400000D01*
X51424571Y-69400000D02*
X51310285Y-69342857D01*
X51310285Y-69342857D02*
X51253142Y-69228571D01*
X51253142Y-69228571D02*
X51253142Y-69057142D01*
X51253142Y-69057142D02*
X51310285Y-68942857D01*
X51310285Y-68942857D02*
X51367428Y-68885714D01*
X51996000Y-70428571D02*
X52053142Y-70314285D01*
X52053142Y-70314285D02*
X52053142Y-70085714D01*
X52053142Y-70085714D02*
X51996000Y-69971428D01*
X51996000Y-69971428D02*
X51881714Y-69914285D01*
X51881714Y-69914285D02*
X51424571Y-69914285D01*
X51424571Y-69914285D02*
X51310285Y-69971428D01*
X51310285Y-69971428D02*
X51253142Y-70085714D01*
X51253142Y-70085714D02*
X51253142Y-70314285D01*
X51253142Y-70314285D02*
X51310285Y-70428571D01*
X51310285Y-70428571D02*
X51424571Y-70485714D01*
X51424571Y-70485714D02*
X51538857Y-70485714D01*
X51538857Y-70485714D02*
X51653142Y-69914285D01*
X52053142Y-70999999D02*
X51253142Y-70999999D01*
X51481714Y-70999999D02*
X51367428Y-71057142D01*
X51367428Y-71057142D02*
X51310285Y-71114285D01*
X51310285Y-71114285D02*
X51253142Y-71228570D01*
X51253142Y-71228570D02*
X51253142Y-71342856D01*
X52053142Y-71742856D02*
X51253142Y-71742856D01*
X51481714Y-71742856D02*
X51367428Y-71799999D01*
X51367428Y-71799999D02*
X51310285Y-71857142D01*
X51310285Y-71857142D02*
X51253142Y-71971427D01*
X51253142Y-71971427D02*
X51253142Y-72085713D01*
X51253142Y-72371427D02*
X52053142Y-72657141D01*
X51253142Y-72942856D02*
X52053142Y-72657141D01*
X52053142Y-72657141D02*
X52338857Y-72542856D01*
X52338857Y-72542856D02*
X52396000Y-72485713D01*
X52396000Y-72485713D02*
X52453142Y-72371427D01*
X52053142Y-74314285D02*
X50853142Y-74314285D01*
X50853142Y-74314285D02*
X51710285Y-74714285D01*
X51710285Y-74714285D02*
X50853142Y-75114285D01*
X50853142Y-75114285D02*
X52053142Y-75114285D01*
X50853142Y-75571428D02*
X52053142Y-76371428D01*
X50853142Y-76371428D02*
X52053142Y-75571428D01*
G36*
X53755865Y-95681691D02*
G01*
X53496516Y-95681691D01*
X53401278Y-95253120D01*
X53660627Y-95253120D01*
X53755865Y-95681691D01*
G37*
G36*
X50534956Y-95388303D02*
G01*
X50581483Y-95434830D01*
X50635714Y-95543292D01*
X50635714Y-95877233D01*
X50581483Y-95985695D01*
X50534955Y-96032222D01*
X50426493Y-96086453D01*
X50173505Y-96086453D01*
X50065042Y-96032221D01*
X50018515Y-95985694D01*
X49964285Y-95877234D01*
X49964285Y-95543291D01*
X50018517Y-95434829D01*
X50065042Y-95388303D01*
X50173506Y-95334072D01*
X50426494Y-95334072D01*
X50534956Y-95388303D01*
G37*
G36*
X48915908Y-95388303D02*
G01*
X48962435Y-95434830D01*
X49016666Y-95543292D01*
X49016666Y-95877233D01*
X48962435Y-95985695D01*
X48915907Y-96032222D01*
X48807445Y-96086453D01*
X48554457Y-96086453D01*
X48445994Y-96032221D01*
X48399467Y-95985694D01*
X48345237Y-95877234D01*
X48345237Y-95543291D01*
X48399469Y-95434829D01*
X48445994Y-95388303D01*
X48554458Y-95334072D01*
X48807446Y-95334072D01*
X48915908Y-95388303D01*
G37*
G36*
X55326429Y-97367857D02*
G01*
X46973571Y-97367857D01*
X46973571Y-95524661D01*
X48039807Y-95524661D01*
X48045237Y-95537753D01*
X48045237Y-95904568D01*
X48041376Y-95940331D01*
X48055083Y-95967746D01*
X48063721Y-95997163D01*
X48074433Y-96006444D01*
X48133615Y-96124808D01*
X48138980Y-96149469D01*
X48168190Y-96178679D01*
X48196358Y-96208961D01*
X48199197Y-96209686D01*
X48237777Y-96248267D01*
X48250666Y-96269968D01*
X48287626Y-96288448D01*
X48323910Y-96308261D01*
X48326833Y-96308051D01*
X48444744Y-96367007D01*
X48475003Y-96386453D01*
X48505654Y-96386453D01*
X48535829Y-96391883D01*
X48548921Y-96386453D01*
X48834780Y-96386453D01*
X48870544Y-96390314D01*
X48897959Y-96376606D01*
X48927376Y-96367969D01*
X48936657Y-96357257D01*
X49055022Y-96298075D01*
X49079683Y-96292711D01*
X49108899Y-96263494D01*
X49139173Y-96235334D01*
X49139898Y-96232495D01*
X49178481Y-96193912D01*
X49200181Y-96181024D01*
X49218656Y-96144072D01*
X49238475Y-96107779D01*
X49238265Y-96104854D01*
X49297220Y-95986945D01*
X49316666Y-95956687D01*
X49316666Y-95926036D01*
X49322096Y-95895861D01*
X49316666Y-95882769D01*
X49316666Y-95524661D01*
X49658855Y-95524661D01*
X49664285Y-95537753D01*
X49664285Y-95904568D01*
X49660424Y-95940331D01*
X49674131Y-95967746D01*
X49682769Y-95997163D01*
X49693481Y-96006444D01*
X49752663Y-96124808D01*
X49758028Y-96149469D01*
X49787238Y-96178679D01*
X49815406Y-96208961D01*
X49818245Y-96209686D01*
X49856825Y-96248267D01*
X49869714Y-96269968D01*
X49906674Y-96288448D01*
X49942958Y-96308261D01*
X49945881Y-96308051D01*
X50063792Y-96367007D01*
X50094051Y-96386453D01*
X50124702Y-96386453D01*
X50154877Y-96391883D01*
X50167969Y-96386453D01*
X50453828Y-96386453D01*
X50489592Y-96390314D01*
X50517007Y-96376606D01*
X50546424Y-96367969D01*
X50555705Y-96357257D01*
X50674070Y-96298075D01*
X50698731Y-96292711D01*
X50727947Y-96263494D01*
X50733099Y-96258702D01*
X51278591Y-96258702D01*
X51315184Y-96338829D01*
X51389289Y-96386453D01*
X51908317Y-96386453D01*
X51941297Y-96391195D01*
X51951680Y-96386453D01*
X52426330Y-96386453D01*
X52489282Y-96367969D01*
X52546967Y-96301396D01*
X52559504Y-96214204D01*
X52522911Y-96134077D01*
X52448806Y-96086453D01*
X52069048Y-96086453D01*
X52069048Y-94979538D01*
X52123492Y-95033982D01*
X52136381Y-95055682D01*
X52173340Y-95074161D01*
X52209626Y-95093975D01*
X52212548Y-95093765D01*
X52356971Y-95165977D01*
X52421544Y-95177597D01*
X52502911Y-95143850D01*
X52515730Y-95125369D01*
X52735734Y-95125369D01*
X52772327Y-95205496D01*
X52846432Y-95253120D01*
X53093960Y-95253120D01*
X53189198Y-95681691D01*
X53030813Y-95681691D01*
X52967861Y-95700175D01*
X52910176Y-95766748D01*
X52897639Y-95853940D01*
X52934232Y-95934067D01*
X53008337Y-95981691D01*
X53255865Y-95981691D01*
X53396346Y-96613856D01*
X53428046Y-96671299D01*
X53505547Y-96713169D01*
X53593382Y-96706493D01*
X53663663Y-96653389D01*
X53694078Y-96570718D01*
X53563183Y-95981691D01*
X53822532Y-95981691D01*
X53963013Y-96613856D01*
X53994713Y-96671299D01*
X54072214Y-96713169D01*
X54160049Y-96706493D01*
X54230330Y-96653389D01*
X54260745Y-96570718D01*
X54129850Y-95981691D01*
X54288235Y-95981691D01*
X54351187Y-95963207D01*
X54408872Y-95896634D01*
X54421409Y-95809442D01*
X54384816Y-95729315D01*
X54310711Y-95681691D01*
X54063183Y-95681691D01*
X53967945Y-95253120D01*
X54126330Y-95253120D01*
X54189282Y-95234636D01*
X54246967Y-95168063D01*
X54259504Y-95080871D01*
X54222911Y-95000744D01*
X54148806Y-94953120D01*
X53901278Y-94953120D01*
X53760797Y-94320954D01*
X53729097Y-94263511D01*
X53651596Y-94221641D01*
X53563761Y-94228317D01*
X53493480Y-94281421D01*
X53463065Y-94364092D01*
X53593960Y-94953120D01*
X53334611Y-94953120D01*
X53194130Y-94320954D01*
X53162430Y-94263511D01*
X53084929Y-94221641D01*
X52997094Y-94228317D01*
X52926813Y-94281421D01*
X52896398Y-94364092D01*
X53027293Y-94953120D01*
X52868908Y-94953120D01*
X52805956Y-94971604D01*
X52748271Y-95038177D01*
X52735734Y-95125369D01*
X52515730Y-95125369D01*
X52553118Y-95071469D01*
X52556221Y-94983437D01*
X52511238Y-94907700D01*
X52331710Y-94817936D01*
X52197521Y-94683747D01*
X52056534Y-94472266D01*
X52050564Y-94451933D01*
X52032603Y-94436370D01*
X52031892Y-94435303D01*
X52016324Y-94422264D01*
X51983991Y-94394248D01*
X51982641Y-94394053D01*
X51981593Y-94393176D01*
X51939126Y-94387797D01*
X51896799Y-94381711D01*
X51895556Y-94382278D01*
X51894203Y-94382107D01*
X51855608Y-94400522D01*
X51816672Y-94418304D01*
X51815933Y-94419452D01*
X51814701Y-94420041D01*
X51792169Y-94456431D01*
X51769048Y-94492409D01*
X51769048Y-94493774D01*
X51768329Y-94494935D01*
X51769048Y-94537723D01*
X51769048Y-96086453D01*
X51411765Y-96086453D01*
X51348813Y-96104937D01*
X51291128Y-96171510D01*
X51278591Y-96258702D01*
X50733099Y-96258702D01*
X50758221Y-96235334D01*
X50758946Y-96232495D01*
X50797529Y-96193912D01*
X50819229Y-96181024D01*
X50837704Y-96144072D01*
X50857523Y-96107779D01*
X50857313Y-96104854D01*
X50916268Y-95986945D01*
X50935714Y-95956687D01*
X50935714Y-95926036D01*
X50941144Y-95895861D01*
X50935714Y-95882769D01*
X50935714Y-95515957D01*
X50939575Y-95480193D01*
X50935714Y-95472471D01*
X50935714Y-95289712D01*
X50941918Y-95271373D01*
X50935714Y-95246557D01*
X50935714Y-95243456D01*
X50930495Y-95225682D01*
X50854452Y-94921511D01*
X50854001Y-94894657D01*
X50831960Y-94861595D01*
X50811852Y-94827321D01*
X50807711Y-94825223D01*
X50683399Y-94638754D01*
X50680067Y-94623436D01*
X50659427Y-94602796D01*
X50655701Y-94597207D01*
X50644235Y-94587604D01*
X50581267Y-94524636D01*
X50568380Y-94502938D01*
X50531427Y-94484461D01*
X50495135Y-94464644D01*
X50492210Y-94464853D01*
X50374302Y-94405898D01*
X50344044Y-94386453D01*
X50313393Y-94386453D01*
X50283219Y-94381023D01*
X50270127Y-94386453D01*
X49954622Y-94386453D01*
X49891670Y-94404937D01*
X49833985Y-94471510D01*
X49821448Y-94558702D01*
X49858041Y-94638829D01*
X49932146Y-94686453D01*
X50264590Y-94686453D01*
X50373050Y-94740683D01*
X50426288Y-94793921D01*
X50565542Y-95002802D01*
X50584223Y-95077526D01*
X50536206Y-95053517D01*
X50505948Y-95034072D01*
X50475297Y-95034072D01*
X50445122Y-95028642D01*
X50432030Y-95034072D01*
X50146171Y-95034072D01*
X50110407Y-95030211D01*
X50082991Y-95043918D01*
X50053575Y-95052556D01*
X50044293Y-95063267D01*
X49925927Y-95122450D01*
X49901267Y-95127815D01*
X49872062Y-95157019D01*
X49841777Y-95185191D01*
X49841050Y-95188032D01*
X49802471Y-95226611D01*
X49780772Y-95239500D01*
X49762292Y-95276458D01*
X49742477Y-95312747D01*
X49742686Y-95315670D01*
X49683733Y-95433574D01*
X49664285Y-95463837D01*
X49664285Y-95494489D01*
X49658855Y-95524661D01*
X49316666Y-95524661D01*
X49316666Y-95515957D01*
X49320527Y-95480193D01*
X49316666Y-95472471D01*
X49316666Y-95289712D01*
X49322870Y-95271373D01*
X49316666Y-95246557D01*
X49316666Y-95243456D01*
X49311447Y-95225682D01*
X49235404Y-94921511D01*
X49234953Y-94894657D01*
X49212912Y-94861595D01*
X49192804Y-94827321D01*
X49188663Y-94825223D01*
X49064351Y-94638754D01*
X49061019Y-94623436D01*
X49040379Y-94602796D01*
X49036653Y-94597207D01*
X49025187Y-94587604D01*
X48962219Y-94524636D01*
X48949332Y-94502938D01*
X48912379Y-94484461D01*
X48876087Y-94464644D01*
X48873162Y-94464853D01*
X48755254Y-94405898D01*
X48724996Y-94386453D01*
X48694345Y-94386453D01*
X48664171Y-94381023D01*
X48651079Y-94386453D01*
X48335574Y-94386453D01*
X48272622Y-94404937D01*
X48214937Y-94471510D01*
X48202400Y-94558702D01*
X48238993Y-94638829D01*
X48313098Y-94686453D01*
X48645542Y-94686453D01*
X48754002Y-94740683D01*
X48807240Y-94793921D01*
X48946494Y-95002802D01*
X48965175Y-95077526D01*
X48917158Y-95053517D01*
X48886900Y-95034072D01*
X48856249Y-95034072D01*
X48826074Y-95028642D01*
X48812982Y-95034072D01*
X48527123Y-95034072D01*
X48491359Y-95030211D01*
X48463943Y-95043918D01*
X48434527Y-95052556D01*
X48425245Y-95063267D01*
X48306879Y-95122450D01*
X48282219Y-95127815D01*
X48253014Y-95157019D01*
X48222729Y-95185191D01*
X48222002Y-95188032D01*
X48183423Y-95226611D01*
X48161724Y-95239500D01*
X48143244Y-95276458D01*
X48123429Y-95312747D01*
X48123638Y-95315670D01*
X48064685Y-95433574D01*
X48045237Y-95463837D01*
X48045237Y-95494489D01*
X48039807Y-95524661D01*
X46973571Y-95524661D01*
X46973571Y-93532143D01*
X55326429Y-93532143D01*
X55326429Y-97367857D01*
G37*
D11*
X71155142Y-51999999D02*
X70355142Y-51999999D01*
X70583714Y-51999999D02*
X70469428Y-52057142D01*
X70469428Y-52057142D02*
X70412285Y-52114285D01*
X70412285Y-52114285D02*
X70355142Y-52228570D01*
X70355142Y-52228570D02*
X70355142Y-52342856D01*
X71098000Y-53199999D02*
X71155142Y-53085713D01*
X71155142Y-53085713D02*
X71155142Y-52857142D01*
X71155142Y-52857142D02*
X71098000Y-52742856D01*
X71098000Y-52742856D02*
X70983714Y-52685713D01*
X70983714Y-52685713D02*
X70526571Y-52685713D01*
X70526571Y-52685713D02*
X70412285Y-52742856D01*
X70412285Y-52742856D02*
X70355142Y-52857142D01*
X70355142Y-52857142D02*
X70355142Y-53085713D01*
X70355142Y-53085713D02*
X70412285Y-53199999D01*
X70412285Y-53199999D02*
X70526571Y-53257142D01*
X70526571Y-53257142D02*
X70640857Y-53257142D01*
X70640857Y-53257142D02*
X70755142Y-52685713D01*
X70355142Y-53657141D02*
X71155142Y-53942855D01*
X71155142Y-53942855D02*
X70355142Y-54228570D01*
X71155142Y-56228570D02*
X71155142Y-55542856D01*
X71155142Y-55885713D02*
X69955142Y-55885713D01*
X69955142Y-55885713D02*
X70126571Y-55771427D01*
X70126571Y-55771427D02*
X70240857Y-55657142D01*
X70240857Y-55657142D02*
X70298000Y-55542856D01*
X71040857Y-56742856D02*
X71098000Y-56799999D01*
X71098000Y-56799999D02*
X71155142Y-56742856D01*
X71155142Y-56742856D02*
X71098000Y-56685713D01*
X71098000Y-56685713D02*
X71040857Y-56742856D01*
X71040857Y-56742856D02*
X71155142Y-56742856D01*
X71155142Y-57942856D02*
X71155142Y-57257142D01*
X71155142Y-57599999D02*
X69955142Y-57599999D01*
X69955142Y-57599999D02*
X70126571Y-57485713D01*
X70126571Y-57485713D02*
X70240857Y-57371428D01*
X70240857Y-57371428D02*
X70298000Y-57257142D01*
X71098000Y-58514285D02*
X71155142Y-58514285D01*
X71155142Y-58514285D02*
X71269428Y-58457142D01*
X71269428Y-58457142D02*
X71326571Y-58399999D01*
X71155142Y-59942857D02*
X69955142Y-59942857D01*
X69955142Y-59942857D02*
X70812285Y-60342857D01*
X70812285Y-60342857D02*
X69955142Y-60742857D01*
X69955142Y-60742857D02*
X71155142Y-60742857D01*
X71155142Y-61828572D02*
X70526571Y-61828572D01*
X70526571Y-61828572D02*
X70412285Y-61771429D01*
X70412285Y-61771429D02*
X70355142Y-61657143D01*
X70355142Y-61657143D02*
X70355142Y-61428572D01*
X70355142Y-61428572D02*
X70412285Y-61314286D01*
X71098000Y-61828572D02*
X71155142Y-61714286D01*
X71155142Y-61714286D02*
X71155142Y-61428572D01*
X71155142Y-61428572D02*
X71098000Y-61314286D01*
X71098000Y-61314286D02*
X70983714Y-61257143D01*
X70983714Y-61257143D02*
X70869428Y-61257143D01*
X70869428Y-61257143D02*
X70755142Y-61314286D01*
X70755142Y-61314286D02*
X70698000Y-61428572D01*
X70698000Y-61428572D02*
X70698000Y-61714286D01*
X70698000Y-61714286D02*
X70640857Y-61828572D01*
X71155142Y-62400000D02*
X70355142Y-62400000D01*
X70583714Y-62400000D02*
X70469428Y-62457143D01*
X70469428Y-62457143D02*
X70412285Y-62514286D01*
X70412285Y-62514286D02*
X70355142Y-62628571D01*
X70355142Y-62628571D02*
X70355142Y-62742857D01*
X70069428Y-64000000D02*
X70012285Y-64057143D01*
X70012285Y-64057143D02*
X69955142Y-64171429D01*
X69955142Y-64171429D02*
X69955142Y-64457143D01*
X69955142Y-64457143D02*
X70012285Y-64571429D01*
X70012285Y-64571429D02*
X70069428Y-64628571D01*
X70069428Y-64628571D02*
X70183714Y-64685714D01*
X70183714Y-64685714D02*
X70298000Y-64685714D01*
X70298000Y-64685714D02*
X70469428Y-64628571D01*
X70469428Y-64628571D02*
X71155142Y-63942857D01*
X71155142Y-63942857D02*
X71155142Y-64685714D01*
X71155142Y-65257143D02*
X71155142Y-65485714D01*
X71155142Y-65485714D02*
X71098000Y-65600000D01*
X71098000Y-65600000D02*
X71040857Y-65657143D01*
X71040857Y-65657143D02*
X70869428Y-65771428D01*
X70869428Y-65771428D02*
X70640857Y-65828571D01*
X70640857Y-65828571D02*
X70183714Y-65828571D01*
X70183714Y-65828571D02*
X70069428Y-65771428D01*
X70069428Y-65771428D02*
X70012285Y-65714286D01*
X70012285Y-65714286D02*
X69955142Y-65600000D01*
X69955142Y-65600000D02*
X69955142Y-65371428D01*
X69955142Y-65371428D02*
X70012285Y-65257143D01*
X70012285Y-65257143D02*
X70069428Y-65200000D01*
X70069428Y-65200000D02*
X70183714Y-65142857D01*
X70183714Y-65142857D02*
X70469428Y-65142857D01*
X70469428Y-65142857D02*
X70583714Y-65200000D01*
X70583714Y-65200000D02*
X70640857Y-65257143D01*
X70640857Y-65257143D02*
X70698000Y-65371428D01*
X70698000Y-65371428D02*
X70698000Y-65600000D01*
X70698000Y-65600000D02*
X70640857Y-65714286D01*
X70640857Y-65714286D02*
X70583714Y-65771428D01*
X70583714Y-65771428D02*
X70469428Y-65828571D01*
X71098000Y-66400000D02*
X71155142Y-66400000D01*
X71155142Y-66400000D02*
X71269428Y-66342857D01*
X71269428Y-66342857D02*
X71326571Y-66285714D01*
X70069428Y-67771429D02*
X70012285Y-67828572D01*
X70012285Y-67828572D02*
X69955142Y-67942858D01*
X69955142Y-67942858D02*
X69955142Y-68228572D01*
X69955142Y-68228572D02*
X70012285Y-68342858D01*
X70012285Y-68342858D02*
X70069428Y-68400000D01*
X70069428Y-68400000D02*
X70183714Y-68457143D01*
X70183714Y-68457143D02*
X70298000Y-68457143D01*
X70298000Y-68457143D02*
X70469428Y-68400000D01*
X70469428Y-68400000D02*
X71155142Y-67714286D01*
X71155142Y-67714286D02*
X71155142Y-68457143D01*
X69955142Y-69200000D02*
X69955142Y-69314286D01*
X69955142Y-69314286D02*
X70012285Y-69428572D01*
X70012285Y-69428572D02*
X70069428Y-69485715D01*
X70069428Y-69485715D02*
X70183714Y-69542857D01*
X70183714Y-69542857D02*
X70412285Y-69600000D01*
X70412285Y-69600000D02*
X70698000Y-69600000D01*
X70698000Y-69600000D02*
X70926571Y-69542857D01*
X70926571Y-69542857D02*
X71040857Y-69485715D01*
X71040857Y-69485715D02*
X71098000Y-69428572D01*
X71098000Y-69428572D02*
X71155142Y-69314286D01*
X71155142Y-69314286D02*
X71155142Y-69200000D01*
X71155142Y-69200000D02*
X71098000Y-69085715D01*
X71098000Y-69085715D02*
X71040857Y-69028572D01*
X71040857Y-69028572D02*
X70926571Y-68971429D01*
X70926571Y-68971429D02*
X70698000Y-68914286D01*
X70698000Y-68914286D02*
X70412285Y-68914286D01*
X70412285Y-68914286D02*
X70183714Y-68971429D01*
X70183714Y-68971429D02*
X70069428Y-69028572D01*
X70069428Y-69028572D02*
X70012285Y-69085715D01*
X70012285Y-69085715D02*
X69955142Y-69200000D01*
X70069428Y-70057143D02*
X70012285Y-70114286D01*
X70012285Y-70114286D02*
X69955142Y-70228572D01*
X69955142Y-70228572D02*
X69955142Y-70514286D01*
X69955142Y-70514286D02*
X70012285Y-70628572D01*
X70012285Y-70628572D02*
X70069428Y-70685714D01*
X70069428Y-70685714D02*
X70183714Y-70742857D01*
X70183714Y-70742857D02*
X70298000Y-70742857D01*
X70298000Y-70742857D02*
X70469428Y-70685714D01*
X70469428Y-70685714D02*
X71155142Y-70000000D01*
X71155142Y-70000000D02*
X71155142Y-70742857D01*
X69955142Y-71142857D02*
X69955142Y-71885714D01*
X69955142Y-71885714D02*
X70412285Y-71485714D01*
X70412285Y-71485714D02*
X70412285Y-71657143D01*
X70412285Y-71657143D02*
X70469428Y-71771429D01*
X70469428Y-71771429D02*
X70526571Y-71828571D01*
X70526571Y-71828571D02*
X70640857Y-71885714D01*
X70640857Y-71885714D02*
X70926571Y-71885714D01*
X70926571Y-71885714D02*
X71040857Y-71828571D01*
X71040857Y-71828571D02*
X71098000Y-71771429D01*
X71098000Y-71771429D02*
X71155142Y-71657143D01*
X71155142Y-71657143D02*
X71155142Y-71314286D01*
X71155142Y-71314286D02*
X71098000Y-71200000D01*
X71098000Y-71200000D02*
X71040857Y-71142857D01*
X71040857Y-72400000D02*
X71098000Y-72457143D01*
X71098000Y-72457143D02*
X71155142Y-72400000D01*
X71155142Y-72400000D02*
X71098000Y-72342857D01*
X71098000Y-72342857D02*
X71040857Y-72400000D01*
X71040857Y-72400000D02*
X71155142Y-72400000D01*
D12*
X70104761Y-96690904D02*
X70228571Y-96629000D01*
X70228571Y-96629000D02*
X70290476Y-96505190D01*
X70290476Y-96505190D02*
X70290476Y-95390904D01*
X69114286Y-96629000D02*
X69238095Y-96690904D01*
X69238095Y-96690904D02*
X69485714Y-96690904D01*
X69485714Y-96690904D02*
X69609524Y-96629000D01*
X69609524Y-96629000D02*
X69671428Y-96505190D01*
X69671428Y-96505190D02*
X69671428Y-96009952D01*
X69671428Y-96009952D02*
X69609524Y-95886142D01*
X69609524Y-95886142D02*
X69485714Y-95824238D01*
X69485714Y-95824238D02*
X69238095Y-95824238D01*
X69238095Y-95824238D02*
X69114286Y-95886142D01*
X69114286Y-95886142D02*
X69052381Y-96009952D01*
X69052381Y-96009952D02*
X69052381Y-96133761D01*
X69052381Y-96133761D02*
X69671428Y-96257571D01*
X68680952Y-95824238D02*
X68185714Y-95824238D01*
X68495238Y-96690904D02*
X68495238Y-95576619D01*
X68495238Y-95576619D02*
X68433333Y-95452809D01*
X68433333Y-95452809D02*
X68309523Y-95390904D01*
X68309523Y-95390904D02*
X68185714Y-95390904D01*
X67938095Y-95824238D02*
X67442857Y-95824238D01*
X67752381Y-95390904D02*
X67752381Y-96505190D01*
X67752381Y-96505190D02*
X67690476Y-96629000D01*
X67690476Y-96629000D02*
X67566666Y-96690904D01*
X67566666Y-96690904D02*
X67442857Y-96690904D01*
D13*
%TO.C,D38*%
X62797182Y-80020000D02*
X62598744Y-80020000D01*
X62598744Y-80615314D02*
X62598744Y-79424686D01*
X62598744Y-79424686D02*
X61011240Y-79424686D01*
X62201868Y-79424686D02*
X62201868Y-80615314D01*
X61011240Y-80615314D02*
X62598744Y-80615314D01*
X61011240Y-80020000D02*
X60812802Y-80020000D01*
X61011240Y-79424686D02*
X61011240Y-80615314D01*
D11*
%TO.C,SW13*%
X35955000Y-37702500D02*
X35955000Y-42302500D01*
X37155000Y-31452500D02*
X37155000Y-35397500D01*
X37155000Y-35406500D02*
X40765000Y-35406500D01*
X39755000Y-42327500D02*
X35980000Y-42327500D01*
X40680000Y-37677500D02*
X35955000Y-37677500D01*
X40975000Y-43602500D02*
X41855000Y-44502500D01*
X44655000Y-44502500D02*
X41855000Y-44502500D01*
X45530000Y-39877500D02*
X42980000Y-39877500D01*
X45555000Y-39902500D02*
X45555000Y-43602500D01*
X45555000Y-43602500D02*
X44655000Y-44502500D01*
X48055000Y-29498500D02*
X39430000Y-29498500D01*
X48055000Y-33502500D02*
X42655000Y-33502500D01*
X48055000Y-33502500D02*
X48055000Y-29498500D01*
X39430000Y-29498500D02*
G75*
G03*
X37155000Y-31452500I-102171J-2182411D01*
G01*
X40975000Y-43602500D02*
G75*
G03*
X39755000Y-42327500I-1275736J482D01*
G01*
X42655000Y-33502500D02*
G75*
G03*
X40765000Y-35406500I-61523J-1828981D01*
G01*
X40680001Y-37677500D02*
G75*
G03*
X42980000Y-39877500I2277996J79269D01*
G01*
D13*
%TO.C,D13*%
X43632182Y-28070000D02*
X43433744Y-28070000D01*
X43433744Y-28665314D02*
X43433744Y-27474686D01*
X43433744Y-27474686D02*
X41846240Y-27474686D01*
X43036868Y-27474686D02*
X43036868Y-28665314D01*
X41846240Y-28665314D02*
X43433744Y-28665314D01*
X41846240Y-28070000D02*
X41647802Y-28070000D01*
X41846240Y-27474686D02*
X41846240Y-28665314D01*
%TO.C,D34*%
X62927182Y-61160000D02*
X62728744Y-61160000D01*
X62728744Y-61755314D02*
X62728744Y-60564686D01*
X62728744Y-60564686D02*
X61141240Y-60564686D01*
X62331868Y-60564686D02*
X62331868Y-61755314D01*
X61141240Y-61755314D02*
X62728744Y-61755314D01*
X61141240Y-61160000D02*
X60942802Y-61160000D01*
X61141240Y-60564686D02*
X61141240Y-61755314D01*
D11*
%TO.C,SW18*%
X55045000Y-51840000D02*
X55045000Y-56440000D01*
X56245000Y-45590000D02*
X56245000Y-49535000D01*
X56245000Y-49544000D02*
X59855000Y-49544000D01*
X58845000Y-56465000D02*
X55070000Y-56465000D01*
X59770000Y-51815000D02*
X55045000Y-51815000D01*
X60065000Y-57740000D02*
X60945000Y-58640000D01*
X63745000Y-58640000D02*
X60945000Y-58640000D01*
X64620000Y-54015000D02*
X62070000Y-54015000D01*
X64645000Y-54040000D02*
X64645000Y-57740000D01*
X64645000Y-57740000D02*
X63745000Y-58640000D01*
X67145000Y-43636000D02*
X58520000Y-43636000D01*
X67145000Y-47640000D02*
X61745000Y-47640000D01*
X67145000Y-47640000D02*
X67145000Y-43636000D01*
X58520000Y-43636000D02*
G75*
G03*
X56245000Y-45590000I-102171J-2182411D01*
G01*
X60065000Y-57740000D02*
G75*
G03*
X58845000Y-56465000I-1275736J482D01*
G01*
X61745000Y-47640000D02*
G75*
G03*
X59855000Y-49544000I-61523J-1828981D01*
G01*
X59770001Y-51815000D02*
G75*
G03*
X62070000Y-54015000I2277996J79269D01*
G01*
D13*
%TO.C,D33*%
X43632182Y-65650000D02*
X43433744Y-65650000D01*
X43433744Y-66245314D02*
X43433744Y-65054686D01*
X43433744Y-65054686D02*
X41846240Y-65054686D01*
X43036868Y-65054686D02*
X43036868Y-66245314D01*
X41846240Y-66245314D02*
X43433744Y-66245314D01*
X41846240Y-65650000D02*
X41647802Y-65650000D01*
X41846240Y-65054686D02*
X41846240Y-66245314D01*
D11*
%TO.C,SW34*%
X55045000Y-70690000D02*
X55045000Y-75290000D01*
X56245000Y-64440000D02*
X56245000Y-68385000D01*
X56245000Y-68394000D02*
X59855000Y-68394000D01*
X58845000Y-75315000D02*
X55070000Y-75315000D01*
X59770000Y-70665000D02*
X55045000Y-70665000D01*
X60065000Y-76590000D02*
X60945000Y-77490000D01*
X63745000Y-77490000D02*
X60945000Y-77490000D01*
X64620000Y-72865000D02*
X62070000Y-72865000D01*
X64645000Y-72890000D02*
X64645000Y-76590000D01*
X64645000Y-76590000D02*
X63745000Y-77490000D01*
X67145000Y-62486000D02*
X58520000Y-62486000D01*
X67145000Y-66490000D02*
X61745000Y-66490000D01*
X67145000Y-66490000D02*
X67145000Y-62486000D01*
X58520000Y-62486000D02*
G75*
G03*
X56245000Y-64440000I-102171J-2182411D01*
G01*
X60065000Y-76590000D02*
G75*
G03*
X58845000Y-75315000I-1275736J482D01*
G01*
X61745000Y-66490000D02*
G75*
G03*
X59855000Y-68394000I-61523J-1828981D01*
G01*
X59770001Y-70665000D02*
G75*
G03*
X62070000Y-72865000I2277996J79269D01*
G01*
%TO.C,SW17*%
X35955000Y-56552500D02*
X35955000Y-61152500D01*
X37155000Y-50302500D02*
X37155000Y-54247500D01*
X37155000Y-54256500D02*
X40765000Y-54256500D01*
X39755000Y-61177500D02*
X35980000Y-61177500D01*
X40680000Y-56527500D02*
X35955000Y-56527500D01*
X40975000Y-62452500D02*
X41855000Y-63352500D01*
X44655000Y-63352500D02*
X41855000Y-63352500D01*
X45530000Y-58727500D02*
X42980000Y-58727500D01*
X45555000Y-58752500D02*
X45555000Y-62452500D01*
X45555000Y-62452500D02*
X44655000Y-63352500D01*
X48055000Y-48348500D02*
X39430000Y-48348500D01*
X48055000Y-52352500D02*
X42655000Y-52352500D01*
X48055000Y-52352500D02*
X48055000Y-48348500D01*
X39430000Y-48348500D02*
G75*
G03*
X37155000Y-50302500I-102171J-2182411D01*
G01*
X40975000Y-62452500D02*
G75*
G03*
X39755000Y-61177500I-1275736J482D01*
G01*
X42655000Y-52352500D02*
G75*
G03*
X40765000Y-54256500I-61523J-1828981D01*
G01*
X40680001Y-56527500D02*
G75*
G03*
X42980000Y-58727500I2277996J79269D01*
G01*
%TO.C,SW38*%
X55045000Y-89540000D02*
X55045000Y-94140000D01*
X56245000Y-83290000D02*
X56245000Y-87235000D01*
X56245000Y-87244000D02*
X59855000Y-87244000D01*
X58845000Y-94165000D02*
X55070000Y-94165000D01*
X59770000Y-89515000D02*
X55045000Y-89515000D01*
X60065000Y-95440000D02*
X60945000Y-96340000D01*
X63745000Y-96340000D02*
X60945000Y-96340000D01*
X64620000Y-91715000D02*
X62070000Y-91715000D01*
X64645000Y-91740000D02*
X64645000Y-95440000D01*
X64645000Y-95440000D02*
X63745000Y-96340000D01*
X67145000Y-81336000D02*
X58520000Y-81336000D01*
X67145000Y-85340000D02*
X61745000Y-85340000D01*
X67145000Y-85340000D02*
X67145000Y-81336000D01*
X58520000Y-81336000D02*
G75*
G03*
X56245000Y-83290000I-102171J-2182411D01*
G01*
X60065000Y-95440000D02*
G75*
G03*
X58845000Y-94165000I-1275736J482D01*
G01*
X61745000Y-85340000D02*
G75*
G03*
X59855000Y-87244000I-61523J-1828981D01*
G01*
X59770001Y-89515000D02*
G75*
G03*
X62070000Y-91715000I2277996J79269D01*
G01*
%TO.C,SW33*%
X35955000Y-75402500D02*
X35955000Y-80002500D01*
X37155000Y-69152500D02*
X37155000Y-73097500D01*
X37155000Y-73106500D02*
X40765000Y-73106500D01*
X39755000Y-80027500D02*
X35980000Y-80027500D01*
X40680000Y-75377500D02*
X35955000Y-75377500D01*
X40975000Y-81302500D02*
X41855000Y-82202500D01*
X44655000Y-82202500D02*
X41855000Y-82202500D01*
X45530000Y-77577500D02*
X42980000Y-77577500D01*
X45555000Y-77602500D02*
X45555000Y-81302500D01*
X45555000Y-81302500D02*
X44655000Y-82202500D01*
X48055000Y-67198500D02*
X39430000Y-67198500D01*
X48055000Y-71202500D02*
X42655000Y-71202500D01*
X48055000Y-71202500D02*
X48055000Y-67198500D01*
X39430000Y-67198500D02*
G75*
G03*
X37155000Y-69152500I-102171J-2182411D01*
G01*
X40975000Y-81302500D02*
G75*
G03*
X39755000Y-80027500I-1275736J482D01*
G01*
X42655000Y-71202500D02*
G75*
G03*
X40765000Y-73106500I-61523J-1828981D01*
G01*
X40680001Y-75377500D02*
G75*
G03*
X42980000Y-77577500I2277996J79269D01*
G01*
D13*
%TO.C,D17*%
X43632182Y-47250000D02*
X43433744Y-47250000D01*
X43433744Y-47845314D02*
X43433744Y-46654686D01*
X43433744Y-46654686D02*
X41846240Y-46654686D01*
X43036868Y-46654686D02*
X43036868Y-47845314D01*
X41846240Y-47845314D02*
X43433744Y-47845314D01*
X41846240Y-47250000D02*
X41647802Y-47250000D01*
X41846240Y-46654686D02*
X41846240Y-47845314D01*
%TO.C,D18*%
X63282182Y-42560000D02*
X63083744Y-42560000D01*
X63083744Y-43155314D02*
X63083744Y-41964686D01*
X63083744Y-41964686D02*
X61496240Y-41964686D01*
X62686868Y-41964686D02*
X62686868Y-43155314D01*
X61496240Y-43155314D02*
X63083744Y-43155314D01*
X61496240Y-42560000D02*
X61297802Y-42560000D01*
X61496240Y-41964686D02*
X61496240Y-43155314D01*
%TO.C,D37*%
X43632182Y-84730000D02*
X43433744Y-84730000D01*
X43433744Y-85325314D02*
X43433744Y-84134686D01*
X43433744Y-84134686D02*
X41846240Y-84134686D01*
X43036868Y-84134686D02*
X43036868Y-85325314D01*
X41846240Y-85325314D02*
X43433744Y-85325314D01*
X41846240Y-84730000D02*
X41647802Y-84730000D01*
X41846240Y-84134686D02*
X41846240Y-85325314D01*
%TO.C,D14*%
X62767182Y-23520000D02*
X62568744Y-23520000D01*
X62568744Y-24115314D02*
X62568744Y-22924686D01*
X62568744Y-22924686D02*
X60981240Y-22924686D01*
X62171868Y-22924686D02*
X62171868Y-24115314D01*
X60981240Y-24115314D02*
X62568744Y-24115314D01*
X60981240Y-23520000D02*
X60782802Y-23520000D01*
X60981240Y-22924686D02*
X60981240Y-24115314D01*
D11*
%TO.C,SW37*%
X35955000Y-94252500D02*
X35955000Y-98852500D01*
X37155000Y-88002500D02*
X37155000Y-91947500D01*
X37155000Y-91956500D02*
X40765000Y-91956500D01*
X39755000Y-98877500D02*
X35980000Y-98877500D01*
X40680000Y-94227500D02*
X35955000Y-94227500D01*
X40975000Y-100152500D02*
X41855000Y-101052500D01*
X44655000Y-101052500D02*
X41855000Y-101052500D01*
X45530000Y-96427500D02*
X42980000Y-96427500D01*
X45555000Y-96452500D02*
X45555000Y-100152500D01*
X45555000Y-100152500D02*
X44655000Y-101052500D01*
X48055000Y-86048500D02*
X39430000Y-86048500D01*
X48055000Y-90052500D02*
X42655000Y-90052500D01*
X48055000Y-90052500D02*
X48055000Y-86048500D01*
X39430000Y-86048500D02*
G75*
G03*
X37155000Y-88002500I-102171J-2182411D01*
G01*
X40975000Y-100152500D02*
G75*
G03*
X39755000Y-98877500I-1275736J482D01*
G01*
X42655000Y-90052500D02*
G75*
G03*
X40765000Y-91956500I-61523J-1828981D01*
G01*
X40680001Y-94227500D02*
G75*
G03*
X42980000Y-96427500I2277996J79269D01*
G01*
%TO.C,SW14*%
X55045000Y-32990000D02*
X55045000Y-37590000D01*
X56245000Y-26740000D02*
X56245000Y-30685000D01*
X56245000Y-30694000D02*
X59855000Y-30694000D01*
X58845000Y-37615000D02*
X55070000Y-37615000D01*
X59770000Y-32965000D02*
X55045000Y-32965000D01*
X60065000Y-38890000D02*
X60945000Y-39790000D01*
X63745000Y-39790000D02*
X60945000Y-39790000D01*
X64620000Y-35165000D02*
X62070000Y-35165000D01*
X64645000Y-35190000D02*
X64645000Y-38890000D01*
X64645000Y-38890000D02*
X63745000Y-39790000D01*
X67145000Y-24786000D02*
X58520000Y-24786000D01*
X67145000Y-28790000D02*
X61745000Y-28790000D01*
X67145000Y-28790000D02*
X67145000Y-24786000D01*
X58520000Y-24786000D02*
G75*
G03*
X56245000Y-26740000I-102171J-2182411D01*
G01*
X60065000Y-38890000D02*
G75*
G03*
X58845000Y-37615000I-1275736J482D01*
G01*
X61745000Y-28790000D02*
G75*
G03*
X59855000Y-30694000I-61523J-1828981D01*
G01*
X59770001Y-32965000D02*
G75*
G03*
X62070000Y-35165000I2277996J79269D01*
G01*
D14*
%TO.C,J9*%
X55110000Y-63710000D02*
X54060000Y-63710000D01*
X55110000Y-62560000D02*
X55110000Y-63710000D01*
X54060000Y-63710000D02*
X54060000Y-64700000D01*
X53940000Y-59900000D02*
X50060000Y-59900000D01*
X48890000Y-63710000D02*
X49940000Y-63710000D01*
X48890000Y-62560000D02*
X48890000Y-63710000D01*
%TO.C,J8*%
X55110000Y-82560000D02*
X54060000Y-82560000D01*
X55110000Y-81410000D02*
X55110000Y-82560000D01*
X54060000Y-82560000D02*
X54060000Y-83550000D01*
X53940000Y-78750000D02*
X50060000Y-78750000D01*
X48890000Y-82560000D02*
X49940000Y-82560000D01*
X48890000Y-81410000D02*
X48890000Y-82560000D01*
%TD*%
M02*
