%TF.GenerationSoftware,KiCad,Pcbnew,7.0.1-0*%
%TF.CreationDate,2023-03-29T21:14:19+09:00*%
%TF.ProjectId,pangaea-pcb-pinkey-0.25u,70616e67-6165-4612-9d70-63622d70696e,rev?*%
%TF.SameCoordinates,Original*%
%TF.FileFunction,Copper,L1,Top*%
%TF.FilePolarity,Positive*%
%FSLAX46Y46*%
G04 Gerber Fmt 4.6, Leading zero omitted, Abs format (unit mm)*
G04 Created by KiCad (PCBNEW 7.0.1-0) date 2023-03-29 21:14:19*
%MOMM*%
%LPD*%
G01*
G04 APERTURE LIST*
G04 Aperture macros list*
%AMRoundRect*
0 Rectangle with rounded corners*
0 $1 Rounding radius*
0 $2 $3 $4 $5 $6 $7 $8 $9 X,Y pos of 4 corners*
0 Add a 4 corners polygon primitive as box body*
4,1,4,$2,$3,$4,$5,$6,$7,$8,$9,$2,$3,0*
0 Add four circle primitives for the rounded corners*
1,1,$1+$1,$2,$3*
1,1,$1+$1,$4,$5*
1,1,$1+$1,$6,$7*
1,1,$1+$1,$8,$9*
0 Add four rect primitives between the rounded corners*
20,1,$1+$1,$2,$3,$4,$5,0*
20,1,$1+$1,$4,$5,$6,$7,0*
20,1,$1+$1,$6,$7,$8,$9,0*
20,1,$1+$1,$8,$9,$2,$3,0*%
G04 Aperture macros list end*
%TA.AperFunction,ComponentPad*%
%ADD10R,1.200000X1.200000*%
%TD*%
%TA.AperFunction,ComponentPad*%
%ADD11C,1.200000*%
%TD*%
%TA.AperFunction,ComponentPad*%
%ADD12C,3.800000*%
%TD*%
%TA.AperFunction,ComponentPad*%
%ADD13RoundRect,0.249600X0.350400X0.850400X-0.350400X0.850400X-0.350400X-0.850400X0.350400X-0.850400X0*%
%TD*%
%TA.AperFunction,ViaPad*%
%ADD14C,0.800000*%
%TD*%
%TA.AperFunction,Conductor*%
%ADD15C,0.250000*%
%TD*%
G04 APERTURE END LIST*
D10*
%TO.P,D38,1,K*%
%TO.N,Net-(D38-K)*%
X64980000Y-80020000D03*
D11*
%TO.P,D38,2,A*%
%TO.N,PY5*%
X58630000Y-80020000D03*
%TD*%
D12*
%TO.P,SW13,1,1*%
%TO.N,PX1*%
X38255000Y-40002500D03*
X39445000Y-33762500D03*
%TO.P,SW13,2,2*%
%TO.N,Net-(D13-A)*%
X43255000Y-42202500D03*
X45795000Y-31222500D03*
%TD*%
D10*
%TO.P,D13,1,K*%
%TO.N,PY4*%
X45815000Y-28070000D03*
D11*
%TO.P,D13,2,A*%
%TO.N,Net-(D13-A)*%
X39465000Y-28070000D03*
%TD*%
D10*
%TO.P,D34,1,K*%
%TO.N,Net-(D34-K)*%
X65110000Y-61160000D03*
D11*
%TO.P,D34,2,A*%
%TO.N,PY4*%
X58760000Y-61160000D03*
%TD*%
D12*
%TO.P,SW18,1,1*%
%TO.N,PX2*%
X57345000Y-54140000D03*
X58535000Y-47900000D03*
%TO.P,SW18,2,2*%
%TO.N,Net-(D18-A)*%
X62345000Y-56340000D03*
X64885000Y-45360000D03*
%TD*%
D10*
%TO.P,D33,1,K*%
%TO.N,Net-(D33-K)*%
X45815000Y-65650000D03*
D11*
%TO.P,D33,2,A*%
%TO.N,PY4*%
X39465000Y-65650000D03*
%TD*%
D12*
%TO.P,SW34,1,1*%
%TO.N,PX2*%
X57345000Y-72990000D03*
X58535000Y-66750000D03*
%TO.P,SW34,2,2*%
%TO.N,Net-(D34-K)*%
X62345000Y-75190000D03*
X64885000Y-64210000D03*
%TD*%
%TO.P,SW17,1,1*%
%TO.N,PX1*%
X38255000Y-58852500D03*
X39445000Y-52612500D03*
%TO.P,SW17,2,2*%
%TO.N,Net-(D17-A)*%
X43255000Y-61052500D03*
X45795000Y-50072500D03*
%TD*%
%TO.P,SW38,1,1*%
%TO.N,PX2*%
X57345000Y-91840000D03*
X58535000Y-85600000D03*
%TO.P,SW38,2,2*%
%TO.N,Net-(D38-K)*%
X62345000Y-94040000D03*
X64885000Y-83060000D03*
%TD*%
%TO.P,SW33,1,1*%
%TO.N,PX1*%
X38255000Y-77702500D03*
X39445000Y-71462500D03*
%TO.P,SW33,2,2*%
%TO.N,Net-(D33-K)*%
X43255000Y-79902500D03*
X45795000Y-68922500D03*
%TD*%
D10*
%TO.P,D17,1,K*%
%TO.N,PY5*%
X45815000Y-47250000D03*
D11*
%TO.P,D17,2,A*%
%TO.N,Net-(D17-A)*%
X39465000Y-47250000D03*
%TD*%
D10*
%TO.P,D18,1,K*%
%TO.N,PY5*%
X65465000Y-42560000D03*
D11*
%TO.P,D18,2,A*%
%TO.N,Net-(D18-A)*%
X59115000Y-42560000D03*
%TD*%
D10*
%TO.P,D37,1,K*%
%TO.N,Net-(D37-K)*%
X45815000Y-84730000D03*
D11*
%TO.P,D37,2,A*%
%TO.N,PY5*%
X39465000Y-84730000D03*
%TD*%
D10*
%TO.P,D14,1,K*%
%TO.N,PY4*%
X64950000Y-23520000D03*
D11*
%TO.P,D14,2,A*%
%TO.N,Net-(D14-A)*%
X58600000Y-23520000D03*
%TD*%
D12*
%TO.P,SW37,1,1*%
%TO.N,PX1*%
X38255000Y-96552500D03*
X39445000Y-90312500D03*
%TO.P,SW37,2,2*%
%TO.N,Net-(D37-K)*%
X43255000Y-98752500D03*
X45795000Y-87772500D03*
%TD*%
%TO.P,SW14,1,1*%
%TO.N,PX2*%
X57345000Y-35290000D03*
X58535000Y-29050000D03*
%TO.P,SW14,2,2*%
%TO.N,Net-(D14-A)*%
X62345000Y-37490000D03*
X64885000Y-26510000D03*
%TD*%
D13*
%TO.P,J9,MP*%
%TO.N,N/C*%
X54800000Y-61100000D03*
X49200000Y-61100000D03*
%TD*%
%TO.P,J8,MP*%
%TO.N,N/C*%
X54800000Y-79950000D03*
X49200000Y-79950000D03*
%TD*%
D14*
%TO.N,PY4*%
X51653500Y-62524400D03*
%TD*%
D15*
%TO.N,PY4*%
X51653500Y-32983400D02*
X51653500Y-62524400D01*
X45815000Y-28070000D02*
X46740100Y-28070000D01*
X46740100Y-28070000D02*
X51653500Y-32983400D01*
%TO.N,Net-(D17-A)*%
X43255000Y-61052500D02*
X46064600Y-58242900D01*
X46064600Y-50342100D02*
X45795000Y-50072500D01*
X46064600Y-58242900D02*
X46064600Y-50342100D01*
%TO.N,Net-(D33-K)*%
X43255000Y-79902500D02*
X46064600Y-77092900D01*
X45815000Y-65650000D02*
X45815000Y-68902500D01*
X45815000Y-68902500D02*
X45795000Y-68922500D01*
X46064600Y-69192100D02*
X45795000Y-68922500D01*
X46064600Y-77092900D02*
X46064600Y-69192100D01*
%TO.N,Net-(D34-K)*%
X65110000Y-62085100D02*
X64885000Y-62310100D01*
X64885000Y-62310100D02*
X64885000Y-64210000D01*
X65110000Y-61160000D02*
X65110000Y-62085100D01*
%TO.N,Net-(D37-K)*%
X45815000Y-85655100D02*
X45795000Y-85675100D01*
X45795000Y-85675100D02*
X45795000Y-87772500D01*
X45815000Y-84730000D02*
X45815000Y-85655100D01*
%TO.N,Net-(D38-K)*%
X64980000Y-82965000D02*
X64980000Y-80020000D01*
X64885000Y-83060000D02*
X64980000Y-82965000D01*
%TO.N,PX1*%
X38255000Y-58852500D02*
X39445000Y-57662500D01*
X39445000Y-38812500D02*
X38255000Y-40002500D01*
X38255000Y-77702500D02*
X39445000Y-76512500D01*
X40435500Y-42183000D02*
X38255000Y-40002500D01*
X39445000Y-76512500D02*
X39445000Y-71462500D01*
X40435500Y-79883000D02*
X38255000Y-77702500D01*
X39445000Y-52612500D02*
X40435500Y-51622000D01*
X39445000Y-71462500D02*
X38255000Y-70272500D01*
X39445000Y-95362500D02*
X39445000Y-90312500D01*
X40435500Y-51622000D02*
X40435500Y-42183000D01*
X38255000Y-70272500D02*
X38255000Y-58852500D01*
X39445000Y-90312500D02*
X40435500Y-89322000D01*
X39445000Y-33762500D02*
X39445000Y-38812500D01*
X39445000Y-57662500D02*
X39445000Y-52612500D01*
X40435500Y-89322000D02*
X40435500Y-79883000D01*
X38255000Y-96552500D02*
X39445000Y-95362500D01*
%TO.N,PX2*%
X57345000Y-84410000D02*
X57345000Y-72990000D01*
X58535000Y-47900000D02*
X58535000Y-52950000D01*
X57940000Y-35290000D02*
X57345000Y-35290000D01*
X57940000Y-35290000D02*
X57940000Y-47305000D01*
X58535000Y-85600000D02*
X57345000Y-84410000D01*
X57345000Y-72990000D02*
X58535000Y-71800000D01*
X58535000Y-71800000D02*
X58535000Y-66750000D01*
X57345000Y-65560000D02*
X57345000Y-54140000D01*
X57940000Y-47305000D02*
X58535000Y-47900000D01*
X58535000Y-52950000D02*
X57345000Y-54140000D01*
X58535000Y-29050000D02*
X58535000Y-34695000D01*
X58535000Y-34695000D02*
X57940000Y-35290000D01*
X57345000Y-91840000D02*
X58535000Y-90650000D01*
X58535000Y-66750000D02*
X57345000Y-65560000D01*
X58535000Y-90650000D02*
X58535000Y-85600000D01*
%TD*%
M02*
