M48
; DRILL file {KiCad 7.0.1-0} date 2023 March 29, Wednesday 21:12:32
; FORMAT={-:-/ absolute / inch / decimal}
; #@! TF.CreationDate,2023-03-29T21:12:32+09:00
; #@! TF.GenerationSoftware,Kicad,Pcbnew,7.0.1-0
; #@! TF.FileFunction,NonPlated,1,2,NPTH
FMAT,2
INCH
; #@! TA.AperFunction,NonPlated,NPTH,ComponentDrill
T1C0.0197
; #@! TA.AperFunction,NonPlated,NPTH,ComponentDrill
T2C0.0661
; #@! TA.AperFunction,NonPlated,NPTH,ComponentDrill
T3C0.0669
; #@! TA.AperFunction,NonPlated,NPTH,ComponentDrill
T4C0.1654
; #@! TA.AperFunction,NonPlated,NPTH,ComponentDrill
T5C0.1929
%
G90
G05
T2
X1.4864Y-1.4292
X1.4864Y-2.1714
X1.4864Y-2.9135
X1.4864Y-3.6556
X1.9195Y-1.4292
X1.9195Y-2.1714
X1.9195Y-2.9135
X1.9195Y-3.6556
X2.238Y-1.2437
X2.238Y-1.9858
X2.238Y-2.728
X2.238Y-3.4701
X2.6711Y-1.2437
X2.6711Y-1.9858
X2.6711Y-2.728
X2.6711Y-3.4701
T3
X1.503Y-1.4292
X1.503Y-2.1714
X1.503Y-2.9135
X1.503Y-3.6556
X1.903Y-1.4292
X1.903Y-2.1714
X1.903Y-2.9135
X1.903Y-3.6556
X2.2545Y-1.2437
X2.2545Y-1.9858
X2.2545Y-2.728
X2.2545Y-3.4701
X2.6545Y-1.2437
X2.6545Y-1.9858
X2.6545Y-2.728
X2.6545Y-3.4701
T5
X1.703Y-1.4292
X1.703Y-2.1714
X1.703Y-2.9135
X1.703Y-3.6556
X2.4545Y-1.2437
X2.4545Y-1.9858
X2.4545Y-2.728
X2.4545Y-3.4701
T1
G00X1.9136Y-1.2147
M15
G01X1.886Y-1.2147
M16
G05
G00X1.9136Y-1.9568
M15
G01X1.886Y-1.9568
M16
G05
G00X1.9136Y-2.6989
M15
G01X1.886Y-2.6989
M16
G05
G00X1.9136Y-3.441
M15
G01X1.886Y-3.441
M16
G05
G00X2.6652Y-1.0291
M15
G01X2.6376Y-1.0291
M16
G05
G00X2.6652Y-1.7713
M15
G01X2.6376Y-1.7713
M16
G05
G00X2.6652Y-2.5134
M15
G01X2.6376Y-2.5134
M16
G05
G00X2.6652Y-3.2555
M15
G01X2.6376Y-3.2555
M16
G05
T4
G00X1.3846Y-1.7996
M15
G01X1.4555Y-1.7996
M16
G05
G00X1.3858Y-3.2839
M15
G01X1.4567Y-3.2839
M16
G05
G00X2.7033Y-3.0957
M15
G01X2.7742Y-3.0957
M16
G05
G00X2.7037Y-1.613
M15
G01X2.7746Y-1.613
M16
G05
T0
M30
