%TF.GenerationSoftware,KiCad,Pcbnew,7.0.1-0*%
%TF.CreationDate,2023-03-29T21:12:30+09:00*%
%TF.ProjectId,pangaea-pcb-pinkey-0.25u,70616e67-6165-4612-9d70-63622d70696e,rev?*%
%TF.SameCoordinates,Original*%
%TF.FileFunction,Drillmap*%
%TF.FilePolarity,Positive*%
%FSLAX45Y45*%
G04 Gerber Fmt 4.5, Leading zero omitted, Abs format (unit mm)*
G04 Created by KiCad (PCBNEW 7.0.1-0) date 2023-03-29 21:12:30*
%MOMM*%
%LPD*%
G01*
G04 APERTURE LIST*
%ADD10C,0.150000*%
%ADD11C,0.200000*%
%ADD12C,0.050000*%
%ADD13C,0.168000*%
%ADD14C,0.170000*%
%ADD15C,0.420000*%
%ADD16C,0.490000*%
G04 APERTURE END LIST*
D10*
X7135503Y-9764000D02*
G75*
G03*
X7186468Y-9710372I-4713J55510D01*
G01*
X3453177Y-2677255D02*
G75*
G03*
X3371911Y-2754625I-2017J-79245D01*
G01*
X5349780Y-9764000D02*
X7135503Y-9764000D01*
X5361626Y-2206000D02*
G75*
G03*
X5282500Y-2285126I4J-79130D01*
G01*
X7186508Y-2285967D02*
X7186464Y-9710372D01*
X5209138Y-2677284D02*
G75*
G03*
X5282251Y-2597683I-6768J79594D01*
G01*
X3371911Y-10137274D02*
G75*
G03*
X3447260Y-10218494I79589J-1726D01*
G01*
X7186508Y-2285967D02*
G75*
G03*
X7106481Y-2207741I-80918J-2733D01*
G01*
X5282500Y-2285126D02*
X5282251Y-2597683D01*
X5198506Y-10217616D02*
G75*
G03*
X5277500Y-10156500I-21166J108966D01*
G01*
X5349780Y-9764000D02*
G75*
G03*
X5277817Y-9823140I22720J-101000D01*
G01*
X5209138Y-2677281D02*
X3453177Y-2677250D01*
X3371911Y-2754625D02*
X3371911Y-10137274D01*
X3447260Y-10218494D02*
X5198506Y-10217616D01*
X7106481Y-2207741D02*
X5361626Y-2206000D01*
X5277817Y-9823140D02*
X5277500Y-10156500D01*
D11*
D12*
X4800500Y-3060250D02*
X4850500Y-3110250D01*
X4850500Y-3060250D02*
X4800500Y-3110250D01*
D11*
X4860500Y-3060250D02*
X4790500Y-3060250D01*
X4790500Y-3060250D02*
G75*
G03*
X4790500Y-3110250I0J-25000D01*
G01*
X4790500Y-3110250D02*
X4860500Y-3110250D01*
X4860500Y-3110250D02*
G75*
G03*
X4860500Y-3060250I0J25000D01*
G01*
D12*
X4800500Y-4945250D02*
X4850500Y-4995250D01*
X4850500Y-4945250D02*
X4800500Y-4995250D01*
D11*
X4860500Y-4945250D02*
X4790500Y-4945250D01*
X4790500Y-4945250D02*
G75*
G03*
X4790500Y-4995250I0J-25000D01*
G01*
X4790500Y-4995250D02*
X4860500Y-4995250D01*
X4860500Y-4995250D02*
G75*
G03*
X4860500Y-4945250I0J25000D01*
G01*
D12*
X4800500Y-6830250D02*
X4850500Y-6880250D01*
X4850500Y-6830250D02*
X4800500Y-6880250D01*
D11*
X4860500Y-6830250D02*
X4790500Y-6830250D01*
X4790500Y-6830250D02*
G75*
G03*
X4790500Y-6880250I0J-25000D01*
G01*
X4790500Y-6880250D02*
X4860500Y-6880250D01*
X4860500Y-6880250D02*
G75*
G03*
X4860500Y-6830250I0J25000D01*
G01*
D12*
X4800500Y-8715250D02*
X4850500Y-8765250D01*
X4850500Y-8715250D02*
X4800500Y-8765250D01*
D11*
X4860500Y-8715250D02*
X4790500Y-8715250D01*
X4790500Y-8715250D02*
G75*
G03*
X4790500Y-8765250I0J-25000D01*
G01*
X4790500Y-8765250D02*
X4860500Y-8765250D01*
X4860500Y-8765250D02*
G75*
G03*
X4860500Y-8715250I0J25000D01*
G01*
D12*
X6709500Y-2589000D02*
X6759500Y-2639000D01*
X6759500Y-2589000D02*
X6709500Y-2639000D01*
D11*
X6769500Y-2589000D02*
X6699500Y-2589000D01*
X6699500Y-2589000D02*
G75*
G03*
X6699500Y-2639000I0J-25000D01*
G01*
X6699500Y-2639000D02*
X6769500Y-2639000D01*
X6769500Y-2639000D02*
G75*
G03*
X6769500Y-2589000I0J25000D01*
G01*
D12*
X6709500Y-4474000D02*
X6759500Y-4524000D01*
X6759500Y-4474000D02*
X6709500Y-4524000D01*
D11*
X6769500Y-4474000D02*
X6699500Y-4474000D01*
X6699500Y-4474000D02*
G75*
G03*
X6699500Y-4524000I0J-25000D01*
G01*
X6699500Y-4524000D02*
X6769500Y-4524000D01*
X6769500Y-4524000D02*
G75*
G03*
X6769500Y-4474000I0J25000D01*
G01*
D12*
X6709500Y-6359000D02*
X6759500Y-6409000D01*
X6759500Y-6359000D02*
X6709500Y-6409000D01*
D11*
X6769500Y-6359000D02*
X6699500Y-6359000D01*
X6699500Y-6359000D02*
G75*
G03*
X6699500Y-6409000I0J-25000D01*
G01*
X6699500Y-6409000D02*
X6769500Y-6409000D01*
X6769500Y-6409000D02*
G75*
G03*
X6769500Y-6359000I0J25000D01*
G01*
D12*
X6709500Y-8244000D02*
X6759500Y-8294000D01*
X6759500Y-8244000D02*
X6709500Y-8294000D01*
D11*
X6769500Y-8244000D02*
X6699500Y-8244000D01*
X6699500Y-8244000D02*
G75*
G03*
X6699500Y-8294000I0J-25000D01*
G01*
X6699500Y-8294000D02*
X6769500Y-8294000D01*
X6769500Y-8294000D02*
G75*
G03*
X6769500Y-8244000I0J25000D01*
G01*
D13*
X3859500Y-3630250D02*
G75*
G03*
X3859500Y-3630250I-84000J0D01*
G01*
X3859500Y-5515250D02*
G75*
G03*
X3859500Y-5515250I-84000J0D01*
G01*
X3859500Y-7400250D02*
G75*
G03*
X3859500Y-7400250I-84000J0D01*
G01*
X3859500Y-9285250D02*
G75*
G03*
X3859500Y-9285250I-84000J0D01*
G01*
X4959500Y-3630250D02*
G75*
G03*
X4959500Y-3630250I-84000J0D01*
G01*
X4959500Y-5515250D02*
G75*
G03*
X4959500Y-5515250I-84000J0D01*
G01*
X4959500Y-7400250D02*
G75*
G03*
X4959500Y-7400250I-84000J0D01*
G01*
X4959500Y-9285250D02*
G75*
G03*
X4959500Y-9285250I-84000J0D01*
G01*
X5768500Y-3159000D02*
G75*
G03*
X5768500Y-3159000I-84000J0D01*
G01*
X5768500Y-5044000D02*
G75*
G03*
X5768500Y-5044000I-84000J0D01*
G01*
X5768500Y-6929000D02*
G75*
G03*
X5768500Y-6929000I-84000J0D01*
G01*
X5768500Y-8814000D02*
G75*
G03*
X5768500Y-8814000I-84000J0D01*
G01*
X6868500Y-3159000D02*
G75*
G03*
X6868500Y-3159000I-84000J0D01*
G01*
X6868500Y-5044000D02*
G75*
G03*
X6868500Y-5044000I-84000J0D01*
G01*
X6868500Y-6929000D02*
G75*
G03*
X6868500Y-6929000I-84000J0D01*
G01*
X6868500Y-8814000D02*
G75*
G03*
X6868500Y-8814000I-84000J0D01*
G01*
D14*
X3817500Y-3545250D02*
X3817500Y-3715250D01*
X3732500Y-3630250D02*
X3902500Y-3630250D01*
X3817500Y-5430250D02*
X3817500Y-5600250D01*
X3732500Y-5515250D02*
X3902500Y-5515250D01*
X3817500Y-7315250D02*
X3817500Y-7485250D01*
X3732500Y-7400250D02*
X3902500Y-7400250D01*
X3817500Y-9200250D02*
X3817500Y-9370250D01*
X3732500Y-9285250D02*
X3902500Y-9285250D01*
X4833500Y-3545250D02*
X4833500Y-3715250D01*
X4748500Y-3630250D02*
X4918500Y-3630250D01*
X4833500Y-5430250D02*
X4833500Y-5600250D01*
X4748500Y-5515250D02*
X4918500Y-5515250D01*
X4833500Y-7315250D02*
X4833500Y-7485250D01*
X4748500Y-7400250D02*
X4918500Y-7400250D01*
X4833500Y-9200250D02*
X4833500Y-9370250D01*
X4748500Y-9285250D02*
X4918500Y-9285250D01*
X5726500Y-3074000D02*
X5726500Y-3244000D01*
X5641500Y-3159000D02*
X5811500Y-3159000D01*
X5726500Y-4959000D02*
X5726500Y-5129000D01*
X5641500Y-5044000D02*
X5811500Y-5044000D01*
X5726500Y-6844000D02*
X5726500Y-7014000D01*
X5641500Y-6929000D02*
X5811500Y-6929000D01*
X5726500Y-8729000D02*
X5726500Y-8899000D01*
X5641500Y-8814000D02*
X5811500Y-8814000D01*
X6742500Y-3074000D02*
X6742500Y-3244000D01*
X6657500Y-3159000D02*
X6827500Y-3159000D01*
X6742500Y-4959000D02*
X6742500Y-5129000D01*
X6657500Y-5044000D02*
X6827500Y-5044000D01*
X6742500Y-6844000D02*
X6742500Y-7014000D01*
X6657500Y-6929000D02*
X6827500Y-6929000D01*
X6742500Y-8729000D02*
X6742500Y-8899000D01*
X6657500Y-8814000D02*
X6827500Y-8814000D01*
D15*
X3755494Y-4719494D02*
X3755494Y-4422506D01*
X3458506Y-4422506D01*
X3458506Y-4719494D01*
X3755494Y-4719494D01*
D11*
X3517000Y-4781000D02*
X3697000Y-4781000D01*
X3697000Y-4781000D02*
G75*
G03*
X3697000Y-4361000I0J210000D01*
G01*
X3697000Y-4361000D02*
X3517000Y-4361000D01*
X3517000Y-4361000D02*
G75*
G03*
X3517000Y-4781000I0J-210000D01*
G01*
D15*
X3758494Y-8489494D02*
X3758494Y-8192506D01*
X3461506Y-8192506D01*
X3461506Y-8489494D01*
X3758494Y-8489494D01*
D11*
X3520000Y-8551000D02*
X3700000Y-8551000D01*
X3700000Y-8551000D02*
G75*
G03*
X3700000Y-8131000I0J210000D01*
G01*
X3700000Y-8131000D02*
X3520000Y-8131000D01*
X3520000Y-8131000D02*
G75*
G03*
X3520000Y-8551000I0J-210000D01*
G01*
D15*
X7104994Y-8011494D02*
X7104994Y-7714506D01*
X6808006Y-7714506D01*
X6808006Y-8011494D01*
X7104994Y-8011494D01*
D11*
X6866500Y-8073000D02*
X7046500Y-8073000D01*
X7046500Y-8073000D02*
G75*
G03*
X7046500Y-7653000I0J210000D01*
G01*
X7046500Y-7653000D02*
X6866500Y-7653000D01*
X6866500Y-7653000D02*
G75*
G03*
X6866500Y-8073000I0J-210000D01*
G01*
D15*
X7105994Y-4245494D02*
X7105994Y-3948506D01*
X6809006Y-3948506D01*
X6809006Y-4245494D01*
X7105994Y-4245494D01*
D11*
X6867500Y-4307000D02*
X7047500Y-4307000D01*
X7047500Y-4307000D02*
G75*
G03*
X7047500Y-3887000I0J210000D01*
G01*
X7047500Y-3887000D02*
X6867500Y-3887000D01*
X6867500Y-3887000D02*
G75*
G03*
X6867500Y-4307000I0J-210000D01*
G01*
D16*
X4325500Y-3875250D02*
X4570500Y-3630250D01*
X4325500Y-3385250D01*
X4080500Y-3630250D01*
X4325500Y-3875250D01*
X4325500Y-5760250D02*
X4570500Y-5515250D01*
X4325500Y-5270250D01*
X4080500Y-5515250D01*
X4325500Y-5760250D01*
X4325500Y-7645250D02*
X4570500Y-7400250D01*
X4325500Y-7155250D01*
X4080500Y-7400250D01*
X4325500Y-7645250D01*
X4325500Y-9530250D02*
X4570500Y-9285250D01*
X4325500Y-9040250D01*
X4080500Y-9285250D01*
X4325500Y-9530250D01*
X6234500Y-3404000D02*
X6479500Y-3159000D01*
X6234500Y-2914000D01*
X5989500Y-3159000D01*
X6234500Y-3404000D01*
X6234500Y-5289000D02*
X6479500Y-5044000D01*
X6234500Y-4799000D01*
X5989500Y-5044000D01*
X6234500Y-5289000D01*
X6234500Y-7174000D02*
X6479500Y-6929000D01*
X6234500Y-6684000D01*
X5989500Y-6929000D01*
X6234500Y-7174000D01*
X6234500Y-9059000D02*
X6479500Y-8814000D01*
X6234500Y-8569000D01*
X5989500Y-8814000D01*
X6234500Y-9059000D01*
D11*
X3612012Y-10538518D02*
X3612012Y-10338518D01*
X3612012Y-10338518D02*
X3659631Y-10338518D01*
X3659631Y-10338518D02*
X3688202Y-10348042D01*
X3688202Y-10348042D02*
X3707250Y-10367090D01*
X3707250Y-10367090D02*
X3716773Y-10386137D01*
X3716773Y-10386137D02*
X3726297Y-10424232D01*
X3726297Y-10424232D02*
X3726297Y-10452804D01*
X3726297Y-10452804D02*
X3716773Y-10490899D01*
X3716773Y-10490899D02*
X3707250Y-10509947D01*
X3707250Y-10509947D02*
X3688202Y-10528994D01*
X3688202Y-10528994D02*
X3659631Y-10538518D01*
X3659631Y-10538518D02*
X3612012Y-10538518D01*
X3812012Y-10538518D02*
X3812012Y-10405185D01*
X3812012Y-10443280D02*
X3821535Y-10424232D01*
X3821535Y-10424232D02*
X3831059Y-10414709D01*
X3831059Y-10414709D02*
X3850107Y-10405185D01*
X3850107Y-10405185D02*
X3869154Y-10405185D01*
X3935821Y-10538518D02*
X3935821Y-10405185D01*
X3935821Y-10338518D02*
X3926297Y-10348042D01*
X3926297Y-10348042D02*
X3935821Y-10357566D01*
X3935821Y-10357566D02*
X3945345Y-10348042D01*
X3945345Y-10348042D02*
X3935821Y-10338518D01*
X3935821Y-10338518D02*
X3935821Y-10357566D01*
X4059631Y-10538518D02*
X4040583Y-10528994D01*
X4040583Y-10528994D02*
X4031059Y-10509947D01*
X4031059Y-10509947D02*
X4031059Y-10338518D01*
X4164392Y-10538518D02*
X4145345Y-10528994D01*
X4145345Y-10528994D02*
X4135821Y-10509947D01*
X4135821Y-10509947D02*
X4135821Y-10338518D01*
X4392964Y-10538518D02*
X4392964Y-10338518D01*
X4392964Y-10338518D02*
X4459631Y-10481375D01*
X4459631Y-10481375D02*
X4526297Y-10338518D01*
X4526297Y-10338518D02*
X4526297Y-10538518D01*
X4707250Y-10538518D02*
X4707250Y-10433756D01*
X4707250Y-10433756D02*
X4697726Y-10414709D01*
X4697726Y-10414709D02*
X4678678Y-10405185D01*
X4678678Y-10405185D02*
X4640583Y-10405185D01*
X4640583Y-10405185D02*
X4621535Y-10414709D01*
X4707250Y-10528994D02*
X4688202Y-10538518D01*
X4688202Y-10538518D02*
X4640583Y-10538518D01*
X4640583Y-10538518D02*
X4621535Y-10528994D01*
X4621535Y-10528994D02*
X4612012Y-10509947D01*
X4612012Y-10509947D02*
X4612012Y-10490899D01*
X4612012Y-10490899D02*
X4621535Y-10471852D01*
X4621535Y-10471852D02*
X4640583Y-10462328D01*
X4640583Y-10462328D02*
X4688202Y-10462328D01*
X4688202Y-10462328D02*
X4707250Y-10452804D01*
X4802488Y-10405185D02*
X4802488Y-10605185D01*
X4802488Y-10414709D02*
X4821535Y-10405185D01*
X4821535Y-10405185D02*
X4859631Y-10405185D01*
X4859631Y-10405185D02*
X4878678Y-10414709D01*
X4878678Y-10414709D02*
X4888202Y-10424232D01*
X4888202Y-10424232D02*
X4897726Y-10443280D01*
X4897726Y-10443280D02*
X4897726Y-10500423D01*
X4897726Y-10500423D02*
X4888202Y-10519471D01*
X4888202Y-10519471D02*
X4878678Y-10528994D01*
X4878678Y-10528994D02*
X4859631Y-10538518D01*
X4859631Y-10538518D02*
X4821535Y-10538518D01*
X4821535Y-10538518D02*
X4802488Y-10528994D01*
X4983440Y-10519471D02*
X4992964Y-10528994D01*
X4992964Y-10528994D02*
X4983440Y-10538518D01*
X4983440Y-10538518D02*
X4973916Y-10528994D01*
X4973916Y-10528994D02*
X4983440Y-10519471D01*
X4983440Y-10519471D02*
X4983440Y-10538518D01*
X4983440Y-10414709D02*
X4992964Y-10424232D01*
X4992964Y-10424232D02*
X4983440Y-10433756D01*
X4983440Y-10433756D02*
X4973916Y-10424232D01*
X4973916Y-10424232D02*
X4983440Y-10414709D01*
X4983440Y-10414709D02*
X4983440Y-10433756D01*
D12*
X3314393Y-10840994D02*
X3364393Y-10890994D01*
X3364393Y-10840994D02*
X3314393Y-10890994D01*
D11*
X3650107Y-10758518D02*
X3669154Y-10758518D01*
X3669154Y-10758518D02*
X3688202Y-10768042D01*
X3688202Y-10768042D02*
X3697726Y-10777566D01*
X3697726Y-10777566D02*
X3707250Y-10796613D01*
X3707250Y-10796613D02*
X3716773Y-10834709D01*
X3716773Y-10834709D02*
X3716773Y-10882328D01*
X3716773Y-10882328D02*
X3707250Y-10920423D01*
X3707250Y-10920423D02*
X3697726Y-10939471D01*
X3697726Y-10939471D02*
X3688202Y-10948994D01*
X3688202Y-10948994D02*
X3669154Y-10958518D01*
X3669154Y-10958518D02*
X3650107Y-10958518D01*
X3650107Y-10958518D02*
X3631059Y-10948994D01*
X3631059Y-10948994D02*
X3621535Y-10939471D01*
X3621535Y-10939471D02*
X3612012Y-10920423D01*
X3612012Y-10920423D02*
X3602488Y-10882328D01*
X3602488Y-10882328D02*
X3602488Y-10834709D01*
X3602488Y-10834709D02*
X3612012Y-10796613D01*
X3612012Y-10796613D02*
X3621535Y-10777566D01*
X3621535Y-10777566D02*
X3631059Y-10768042D01*
X3631059Y-10768042D02*
X3650107Y-10758518D01*
X3802488Y-10939471D02*
X3812012Y-10948994D01*
X3812012Y-10948994D02*
X3802488Y-10958518D01*
X3802488Y-10958518D02*
X3792964Y-10948994D01*
X3792964Y-10948994D02*
X3802488Y-10939471D01*
X3802488Y-10939471D02*
X3802488Y-10958518D01*
X3992964Y-10758518D02*
X3897726Y-10758518D01*
X3897726Y-10758518D02*
X3888202Y-10853756D01*
X3888202Y-10853756D02*
X3897726Y-10844232D01*
X3897726Y-10844232D02*
X3916773Y-10834709D01*
X3916773Y-10834709D02*
X3964393Y-10834709D01*
X3964393Y-10834709D02*
X3983440Y-10844232D01*
X3983440Y-10844232D02*
X3992964Y-10853756D01*
X3992964Y-10853756D02*
X4002488Y-10872804D01*
X4002488Y-10872804D02*
X4002488Y-10920423D01*
X4002488Y-10920423D02*
X3992964Y-10939471D01*
X3992964Y-10939471D02*
X3983440Y-10948994D01*
X3983440Y-10948994D02*
X3964393Y-10958518D01*
X3964393Y-10958518D02*
X3916773Y-10958518D01*
X3916773Y-10958518D02*
X3897726Y-10948994D01*
X3897726Y-10948994D02*
X3888202Y-10939471D01*
X4126297Y-10758518D02*
X4145345Y-10758518D01*
X4145345Y-10758518D02*
X4164393Y-10768042D01*
X4164393Y-10768042D02*
X4173916Y-10777566D01*
X4173916Y-10777566D02*
X4183440Y-10796613D01*
X4183440Y-10796613D02*
X4192964Y-10834709D01*
X4192964Y-10834709D02*
X4192964Y-10882328D01*
X4192964Y-10882328D02*
X4183440Y-10920423D01*
X4183440Y-10920423D02*
X4173916Y-10939471D01*
X4173916Y-10939471D02*
X4164393Y-10948994D01*
X4164393Y-10948994D02*
X4145345Y-10958518D01*
X4145345Y-10958518D02*
X4126297Y-10958518D01*
X4126297Y-10958518D02*
X4107250Y-10948994D01*
X4107250Y-10948994D02*
X4097726Y-10939471D01*
X4097726Y-10939471D02*
X4088202Y-10920423D01*
X4088202Y-10920423D02*
X4078678Y-10882328D01*
X4078678Y-10882328D02*
X4078678Y-10834709D01*
X4078678Y-10834709D02*
X4088202Y-10796613D01*
X4088202Y-10796613D02*
X4097726Y-10777566D01*
X4097726Y-10777566D02*
X4107250Y-10768042D01*
X4107250Y-10768042D02*
X4126297Y-10758518D01*
X4316774Y-10758518D02*
X4335821Y-10758518D01*
X4335821Y-10758518D02*
X4354869Y-10768042D01*
X4354869Y-10768042D02*
X4364393Y-10777566D01*
X4364393Y-10777566D02*
X4373916Y-10796613D01*
X4373916Y-10796613D02*
X4383440Y-10834709D01*
X4383440Y-10834709D02*
X4383440Y-10882328D01*
X4383440Y-10882328D02*
X4373916Y-10920423D01*
X4373916Y-10920423D02*
X4364393Y-10939471D01*
X4364393Y-10939471D02*
X4354869Y-10948994D01*
X4354869Y-10948994D02*
X4335821Y-10958518D01*
X4335821Y-10958518D02*
X4316774Y-10958518D01*
X4316774Y-10958518D02*
X4297726Y-10948994D01*
X4297726Y-10948994D02*
X4288202Y-10939471D01*
X4288202Y-10939471D02*
X4278678Y-10920423D01*
X4278678Y-10920423D02*
X4269155Y-10882328D01*
X4269155Y-10882328D02*
X4269155Y-10834709D01*
X4269155Y-10834709D02*
X4278678Y-10796613D01*
X4278678Y-10796613D02*
X4288202Y-10777566D01*
X4288202Y-10777566D02*
X4297726Y-10768042D01*
X4297726Y-10768042D02*
X4316774Y-10758518D01*
X4469155Y-10958518D02*
X4469155Y-10825185D01*
X4469155Y-10844232D02*
X4478678Y-10834709D01*
X4478678Y-10834709D02*
X4497726Y-10825185D01*
X4497726Y-10825185D02*
X4526297Y-10825185D01*
X4526297Y-10825185D02*
X4545345Y-10834709D01*
X4545345Y-10834709D02*
X4554869Y-10853756D01*
X4554869Y-10853756D02*
X4554869Y-10958518D01*
X4554869Y-10853756D02*
X4564393Y-10834709D01*
X4564393Y-10834709D02*
X4583440Y-10825185D01*
X4583440Y-10825185D02*
X4612012Y-10825185D01*
X4612012Y-10825185D02*
X4631059Y-10834709D01*
X4631059Y-10834709D02*
X4640583Y-10853756D01*
X4640583Y-10853756D02*
X4640583Y-10958518D01*
X4735821Y-10958518D02*
X4735821Y-10825185D01*
X4735821Y-10844232D02*
X4745345Y-10834709D01*
X4745345Y-10834709D02*
X4764393Y-10825185D01*
X4764393Y-10825185D02*
X4792964Y-10825185D01*
X4792964Y-10825185D02*
X4812012Y-10834709D01*
X4812012Y-10834709D02*
X4821536Y-10853756D01*
X4821536Y-10853756D02*
X4821536Y-10958518D01*
X4821536Y-10853756D02*
X4831059Y-10834709D01*
X4831059Y-10834709D02*
X4850107Y-10825185D01*
X4850107Y-10825185D02*
X4878678Y-10825185D01*
X4878678Y-10825185D02*
X4897726Y-10834709D01*
X4897726Y-10834709D02*
X4907250Y-10853756D01*
X4907250Y-10853756D02*
X4907250Y-10958518D01*
X5297726Y-10748994D02*
X5126298Y-11006137D01*
X5554869Y-10758518D02*
X5573917Y-10758518D01*
X5573917Y-10758518D02*
X5592964Y-10768042D01*
X5592964Y-10768042D02*
X5602488Y-10777566D01*
X5602488Y-10777566D02*
X5612012Y-10796613D01*
X5612012Y-10796613D02*
X5621536Y-10834709D01*
X5621536Y-10834709D02*
X5621536Y-10882328D01*
X5621536Y-10882328D02*
X5612012Y-10920423D01*
X5612012Y-10920423D02*
X5602488Y-10939471D01*
X5602488Y-10939471D02*
X5592964Y-10948994D01*
X5592964Y-10948994D02*
X5573917Y-10958518D01*
X5573917Y-10958518D02*
X5554869Y-10958518D01*
X5554869Y-10958518D02*
X5535821Y-10948994D01*
X5535821Y-10948994D02*
X5526298Y-10939471D01*
X5526298Y-10939471D02*
X5516774Y-10920423D01*
X5516774Y-10920423D02*
X5507250Y-10882328D01*
X5507250Y-10882328D02*
X5507250Y-10834709D01*
X5507250Y-10834709D02*
X5516774Y-10796613D01*
X5516774Y-10796613D02*
X5526298Y-10777566D01*
X5526298Y-10777566D02*
X5535821Y-10768042D01*
X5535821Y-10768042D02*
X5554869Y-10758518D01*
X5707250Y-10939471D02*
X5716774Y-10948994D01*
X5716774Y-10948994D02*
X5707250Y-10958518D01*
X5707250Y-10958518D02*
X5697726Y-10948994D01*
X5697726Y-10948994D02*
X5707250Y-10939471D01*
X5707250Y-10939471D02*
X5707250Y-10958518D01*
X5840583Y-10758518D02*
X5859631Y-10758518D01*
X5859631Y-10758518D02*
X5878678Y-10768042D01*
X5878678Y-10768042D02*
X5888202Y-10777566D01*
X5888202Y-10777566D02*
X5897726Y-10796613D01*
X5897726Y-10796613D02*
X5907250Y-10834709D01*
X5907250Y-10834709D02*
X5907250Y-10882328D01*
X5907250Y-10882328D02*
X5897726Y-10920423D01*
X5897726Y-10920423D02*
X5888202Y-10939471D01*
X5888202Y-10939471D02*
X5878678Y-10948994D01*
X5878678Y-10948994D02*
X5859631Y-10958518D01*
X5859631Y-10958518D02*
X5840583Y-10958518D01*
X5840583Y-10958518D02*
X5821536Y-10948994D01*
X5821536Y-10948994D02*
X5812012Y-10939471D01*
X5812012Y-10939471D02*
X5802488Y-10920423D01*
X5802488Y-10920423D02*
X5792964Y-10882328D01*
X5792964Y-10882328D02*
X5792964Y-10834709D01*
X5792964Y-10834709D02*
X5802488Y-10796613D01*
X5802488Y-10796613D02*
X5812012Y-10777566D01*
X5812012Y-10777566D02*
X5821536Y-10768042D01*
X5821536Y-10768042D02*
X5840583Y-10758518D01*
X6097726Y-10958518D02*
X5983440Y-10958518D01*
X6040583Y-10958518D02*
X6040583Y-10758518D01*
X6040583Y-10758518D02*
X6021536Y-10787090D01*
X6021536Y-10787090D02*
X6002488Y-10806137D01*
X6002488Y-10806137D02*
X5983440Y-10815661D01*
X6192964Y-10958518D02*
X6231059Y-10958518D01*
X6231059Y-10958518D02*
X6250107Y-10948994D01*
X6250107Y-10948994D02*
X6259631Y-10939471D01*
X6259631Y-10939471D02*
X6278678Y-10910899D01*
X6278678Y-10910899D02*
X6288202Y-10872804D01*
X6288202Y-10872804D02*
X6288202Y-10796613D01*
X6288202Y-10796613D02*
X6278678Y-10777566D01*
X6278678Y-10777566D02*
X6269155Y-10768042D01*
X6269155Y-10768042D02*
X6250107Y-10758518D01*
X6250107Y-10758518D02*
X6212012Y-10758518D01*
X6212012Y-10758518D02*
X6192964Y-10768042D01*
X6192964Y-10768042D02*
X6183440Y-10777566D01*
X6183440Y-10777566D02*
X6173917Y-10796613D01*
X6173917Y-10796613D02*
X6173917Y-10844232D01*
X6173917Y-10844232D02*
X6183440Y-10863280D01*
X6183440Y-10863280D02*
X6192964Y-10872804D01*
X6192964Y-10872804D02*
X6212012Y-10882328D01*
X6212012Y-10882328D02*
X6250107Y-10882328D01*
X6250107Y-10882328D02*
X6269155Y-10872804D01*
X6269155Y-10872804D02*
X6278678Y-10863280D01*
X6278678Y-10863280D02*
X6288202Y-10844232D01*
X6354869Y-10758518D02*
X6488202Y-10758518D01*
X6488202Y-10758518D02*
X6402488Y-10958518D01*
X6554869Y-10758518D02*
X6554869Y-10796613D01*
X6631059Y-10758518D02*
X6631059Y-10796613D01*
X6926298Y-11034709D02*
X6916774Y-11025185D01*
X6916774Y-11025185D02*
X6897726Y-10996613D01*
X6897726Y-10996613D02*
X6888202Y-10977566D01*
X6888202Y-10977566D02*
X6878679Y-10948994D01*
X6878679Y-10948994D02*
X6869155Y-10901375D01*
X6869155Y-10901375D02*
X6869155Y-10863280D01*
X6869155Y-10863280D02*
X6878679Y-10815661D01*
X6878679Y-10815661D02*
X6888202Y-10787090D01*
X6888202Y-10787090D02*
X6897726Y-10768042D01*
X6897726Y-10768042D02*
X6916774Y-10739471D01*
X6916774Y-10739471D02*
X6926298Y-10729947D01*
X7040583Y-10758518D02*
X7059631Y-10758518D01*
X7059631Y-10758518D02*
X7078679Y-10768042D01*
X7078679Y-10768042D02*
X7088202Y-10777566D01*
X7088202Y-10777566D02*
X7097726Y-10796613D01*
X7097726Y-10796613D02*
X7107250Y-10834709D01*
X7107250Y-10834709D02*
X7107250Y-10882328D01*
X7107250Y-10882328D02*
X7097726Y-10920423D01*
X7097726Y-10920423D02*
X7088202Y-10939471D01*
X7088202Y-10939471D02*
X7078679Y-10948994D01*
X7078679Y-10948994D02*
X7059631Y-10958518D01*
X7059631Y-10958518D02*
X7040583Y-10958518D01*
X7040583Y-10958518D02*
X7021536Y-10948994D01*
X7021536Y-10948994D02*
X7012012Y-10939471D01*
X7012012Y-10939471D02*
X7002488Y-10920423D01*
X7002488Y-10920423D02*
X6992964Y-10882328D01*
X6992964Y-10882328D02*
X6992964Y-10834709D01*
X6992964Y-10834709D02*
X7002488Y-10796613D01*
X7002488Y-10796613D02*
X7012012Y-10777566D01*
X7012012Y-10777566D02*
X7021536Y-10768042D01*
X7021536Y-10768042D02*
X7040583Y-10758518D01*
X7345345Y-10958518D02*
X7345345Y-10758518D01*
X7431060Y-10958518D02*
X7431060Y-10853756D01*
X7431060Y-10853756D02*
X7421536Y-10834709D01*
X7421536Y-10834709D02*
X7402488Y-10825185D01*
X7402488Y-10825185D02*
X7373917Y-10825185D01*
X7373917Y-10825185D02*
X7354869Y-10834709D01*
X7354869Y-10834709D02*
X7345345Y-10844232D01*
X7554869Y-10958518D02*
X7535821Y-10948994D01*
X7535821Y-10948994D02*
X7526298Y-10939471D01*
X7526298Y-10939471D02*
X7516774Y-10920423D01*
X7516774Y-10920423D02*
X7516774Y-10863280D01*
X7516774Y-10863280D02*
X7526298Y-10844232D01*
X7526298Y-10844232D02*
X7535821Y-10834709D01*
X7535821Y-10834709D02*
X7554869Y-10825185D01*
X7554869Y-10825185D02*
X7583441Y-10825185D01*
X7583441Y-10825185D02*
X7602488Y-10834709D01*
X7602488Y-10834709D02*
X7612012Y-10844232D01*
X7612012Y-10844232D02*
X7621536Y-10863280D01*
X7621536Y-10863280D02*
X7621536Y-10920423D01*
X7621536Y-10920423D02*
X7612012Y-10939471D01*
X7612012Y-10939471D02*
X7602488Y-10948994D01*
X7602488Y-10948994D02*
X7583441Y-10958518D01*
X7583441Y-10958518D02*
X7554869Y-10958518D01*
X7735821Y-10958518D02*
X7716774Y-10948994D01*
X7716774Y-10948994D02*
X7707250Y-10929947D01*
X7707250Y-10929947D02*
X7707250Y-10758518D01*
X7888202Y-10948994D02*
X7869155Y-10958518D01*
X7869155Y-10958518D02*
X7831060Y-10958518D01*
X7831060Y-10958518D02*
X7812012Y-10948994D01*
X7812012Y-10948994D02*
X7802488Y-10929947D01*
X7802488Y-10929947D02*
X7802488Y-10853756D01*
X7802488Y-10853756D02*
X7812012Y-10834709D01*
X7812012Y-10834709D02*
X7831060Y-10825185D01*
X7831060Y-10825185D02*
X7869155Y-10825185D01*
X7869155Y-10825185D02*
X7888202Y-10834709D01*
X7888202Y-10834709D02*
X7897726Y-10853756D01*
X7897726Y-10853756D02*
X7897726Y-10872804D01*
X7897726Y-10872804D02*
X7802488Y-10891852D01*
X7973917Y-10948994D02*
X7992964Y-10958518D01*
X7992964Y-10958518D02*
X8031060Y-10958518D01*
X8031060Y-10958518D02*
X8050107Y-10948994D01*
X8050107Y-10948994D02*
X8059631Y-10929947D01*
X8059631Y-10929947D02*
X8059631Y-10920423D01*
X8059631Y-10920423D02*
X8050107Y-10901375D01*
X8050107Y-10901375D02*
X8031060Y-10891852D01*
X8031060Y-10891852D02*
X8002488Y-10891852D01*
X8002488Y-10891852D02*
X7983441Y-10882328D01*
X7983441Y-10882328D02*
X7973917Y-10863280D01*
X7973917Y-10863280D02*
X7973917Y-10853756D01*
X7973917Y-10853756D02*
X7983441Y-10834709D01*
X7983441Y-10834709D02*
X8002488Y-10825185D01*
X8002488Y-10825185D02*
X8031060Y-10825185D01*
X8031060Y-10825185D02*
X8050107Y-10834709D01*
X8297726Y-10882328D02*
X8450107Y-10882328D01*
X8373917Y-10958518D02*
X8373917Y-10806137D01*
X8726298Y-10844232D02*
X8707250Y-10834709D01*
X8707250Y-10834709D02*
X8697726Y-10825185D01*
X8697726Y-10825185D02*
X8688203Y-10806137D01*
X8688203Y-10806137D02*
X8688203Y-10796613D01*
X8688203Y-10796613D02*
X8697726Y-10777566D01*
X8697726Y-10777566D02*
X8707250Y-10768042D01*
X8707250Y-10768042D02*
X8726298Y-10758518D01*
X8726298Y-10758518D02*
X8764393Y-10758518D01*
X8764393Y-10758518D02*
X8783441Y-10768042D01*
X8783441Y-10768042D02*
X8792965Y-10777566D01*
X8792965Y-10777566D02*
X8802488Y-10796613D01*
X8802488Y-10796613D02*
X8802488Y-10806137D01*
X8802488Y-10806137D02*
X8792965Y-10825185D01*
X8792965Y-10825185D02*
X8783441Y-10834709D01*
X8783441Y-10834709D02*
X8764393Y-10844232D01*
X8764393Y-10844232D02*
X8726298Y-10844232D01*
X8726298Y-10844232D02*
X8707250Y-10853756D01*
X8707250Y-10853756D02*
X8697726Y-10863280D01*
X8697726Y-10863280D02*
X8688203Y-10882328D01*
X8688203Y-10882328D02*
X8688203Y-10920423D01*
X8688203Y-10920423D02*
X8697726Y-10939471D01*
X8697726Y-10939471D02*
X8707250Y-10948994D01*
X8707250Y-10948994D02*
X8726298Y-10958518D01*
X8726298Y-10958518D02*
X8764393Y-10958518D01*
X8764393Y-10958518D02*
X8783441Y-10948994D01*
X8783441Y-10948994D02*
X8792965Y-10939471D01*
X8792965Y-10939471D02*
X8802488Y-10920423D01*
X8802488Y-10920423D02*
X8802488Y-10882328D01*
X8802488Y-10882328D02*
X8792965Y-10863280D01*
X8792965Y-10863280D02*
X8783441Y-10853756D01*
X8783441Y-10853756D02*
X8764393Y-10844232D01*
X9031060Y-10948994D02*
X9050107Y-10958518D01*
X9050107Y-10958518D02*
X9088203Y-10958518D01*
X9088203Y-10958518D02*
X9107250Y-10948994D01*
X9107250Y-10948994D02*
X9116774Y-10929947D01*
X9116774Y-10929947D02*
X9116774Y-10920423D01*
X9116774Y-10920423D02*
X9107250Y-10901375D01*
X9107250Y-10901375D02*
X9088203Y-10891852D01*
X9088203Y-10891852D02*
X9059631Y-10891852D01*
X9059631Y-10891852D02*
X9040584Y-10882328D01*
X9040584Y-10882328D02*
X9031060Y-10863280D01*
X9031060Y-10863280D02*
X9031060Y-10853756D01*
X9031060Y-10853756D02*
X9040584Y-10834709D01*
X9040584Y-10834709D02*
X9059631Y-10825185D01*
X9059631Y-10825185D02*
X9088203Y-10825185D01*
X9088203Y-10825185D02*
X9107250Y-10834709D01*
X9231060Y-10958518D02*
X9212012Y-10948994D01*
X9212012Y-10948994D02*
X9202488Y-10929947D01*
X9202488Y-10929947D02*
X9202488Y-10758518D01*
X9335822Y-10958518D02*
X9316774Y-10948994D01*
X9316774Y-10948994D02*
X9307250Y-10939471D01*
X9307250Y-10939471D02*
X9297727Y-10920423D01*
X9297727Y-10920423D02*
X9297727Y-10863280D01*
X9297727Y-10863280D02*
X9307250Y-10844232D01*
X9307250Y-10844232D02*
X9316774Y-10834709D01*
X9316774Y-10834709D02*
X9335822Y-10825185D01*
X9335822Y-10825185D02*
X9364393Y-10825185D01*
X9364393Y-10825185D02*
X9383441Y-10834709D01*
X9383441Y-10834709D02*
X9392965Y-10844232D01*
X9392965Y-10844232D02*
X9402488Y-10863280D01*
X9402488Y-10863280D02*
X9402488Y-10920423D01*
X9402488Y-10920423D02*
X9392965Y-10939471D01*
X9392965Y-10939471D02*
X9383441Y-10948994D01*
X9383441Y-10948994D02*
X9364393Y-10958518D01*
X9364393Y-10958518D02*
X9335822Y-10958518D01*
X9459631Y-10825185D02*
X9535822Y-10825185D01*
X9488203Y-10758518D02*
X9488203Y-10929947D01*
X9488203Y-10929947D02*
X9497727Y-10948994D01*
X9497727Y-10948994D02*
X9516774Y-10958518D01*
X9516774Y-10958518D02*
X9535822Y-10958518D01*
X9592965Y-10948994D02*
X9612012Y-10958518D01*
X9612012Y-10958518D02*
X9650107Y-10958518D01*
X9650107Y-10958518D02*
X9669155Y-10948994D01*
X9669155Y-10948994D02*
X9678679Y-10929947D01*
X9678679Y-10929947D02*
X9678679Y-10920423D01*
X9678679Y-10920423D02*
X9669155Y-10901375D01*
X9669155Y-10901375D02*
X9650107Y-10891852D01*
X9650107Y-10891852D02*
X9621536Y-10891852D01*
X9621536Y-10891852D02*
X9602488Y-10882328D01*
X9602488Y-10882328D02*
X9592965Y-10863280D01*
X9592965Y-10863280D02*
X9592965Y-10853756D01*
X9592965Y-10853756D02*
X9602488Y-10834709D01*
X9602488Y-10834709D02*
X9621536Y-10825185D01*
X9621536Y-10825185D02*
X9650107Y-10825185D01*
X9650107Y-10825185D02*
X9669155Y-10834709D01*
X9745346Y-11034709D02*
X9754869Y-11025185D01*
X9754869Y-11025185D02*
X9773917Y-10996613D01*
X9773917Y-10996613D02*
X9783441Y-10977566D01*
X9783441Y-10977566D02*
X9792965Y-10948994D01*
X9792965Y-10948994D02*
X9802488Y-10901375D01*
X9802488Y-10901375D02*
X9802488Y-10863280D01*
X9802488Y-10863280D02*
X9792965Y-10815661D01*
X9792965Y-10815661D02*
X9783441Y-10787090D01*
X9783441Y-10787090D02*
X9773917Y-10768042D01*
X9773917Y-10768042D02*
X9754869Y-10739471D01*
X9754869Y-10739471D02*
X9745346Y-10729947D01*
X10107250Y-11034709D02*
X10097727Y-11025185D01*
X10097727Y-11025185D02*
X10078679Y-10996613D01*
X10078679Y-10996613D02*
X10069155Y-10977566D01*
X10069155Y-10977566D02*
X10059631Y-10948994D01*
X10059631Y-10948994D02*
X10050108Y-10901375D01*
X10050108Y-10901375D02*
X10050108Y-10863280D01*
X10050108Y-10863280D02*
X10059631Y-10815661D01*
X10059631Y-10815661D02*
X10069155Y-10787090D01*
X10069155Y-10787090D02*
X10078679Y-10768042D01*
X10078679Y-10768042D02*
X10097727Y-10739471D01*
X10097727Y-10739471D02*
X10107250Y-10729947D01*
X10183441Y-10825185D02*
X10183441Y-10958518D01*
X10183441Y-10844232D02*
X10192965Y-10834709D01*
X10192965Y-10834709D02*
X10212012Y-10825185D01*
X10212012Y-10825185D02*
X10240584Y-10825185D01*
X10240584Y-10825185D02*
X10259631Y-10834709D01*
X10259631Y-10834709D02*
X10269155Y-10853756D01*
X10269155Y-10853756D02*
X10269155Y-10958518D01*
X10392965Y-10958518D02*
X10373917Y-10948994D01*
X10373917Y-10948994D02*
X10364393Y-10939471D01*
X10364393Y-10939471D02*
X10354869Y-10920423D01*
X10354869Y-10920423D02*
X10354869Y-10863280D01*
X10354869Y-10863280D02*
X10364393Y-10844232D01*
X10364393Y-10844232D02*
X10373917Y-10834709D01*
X10373917Y-10834709D02*
X10392965Y-10825185D01*
X10392965Y-10825185D02*
X10421536Y-10825185D01*
X10421536Y-10825185D02*
X10440584Y-10834709D01*
X10440584Y-10834709D02*
X10450108Y-10844232D01*
X10450108Y-10844232D02*
X10459631Y-10863280D01*
X10459631Y-10863280D02*
X10459631Y-10920423D01*
X10459631Y-10920423D02*
X10450108Y-10939471D01*
X10450108Y-10939471D02*
X10440584Y-10948994D01*
X10440584Y-10948994D02*
X10421536Y-10958518D01*
X10421536Y-10958518D02*
X10392965Y-10958518D01*
X10516774Y-10825185D02*
X10592965Y-10825185D01*
X10545346Y-10758518D02*
X10545346Y-10929947D01*
X10545346Y-10929947D02*
X10554869Y-10948994D01*
X10554869Y-10948994D02*
X10573917Y-10958518D01*
X10573917Y-10958518D02*
X10592965Y-10958518D01*
X10812012Y-10825185D02*
X10812012Y-11025185D01*
X10812012Y-10834709D02*
X10831060Y-10825185D01*
X10831060Y-10825185D02*
X10869155Y-10825185D01*
X10869155Y-10825185D02*
X10888203Y-10834709D01*
X10888203Y-10834709D02*
X10897727Y-10844232D01*
X10897727Y-10844232D02*
X10907250Y-10863280D01*
X10907250Y-10863280D02*
X10907250Y-10920423D01*
X10907250Y-10920423D02*
X10897727Y-10939471D01*
X10897727Y-10939471D02*
X10888203Y-10948994D01*
X10888203Y-10948994D02*
X10869155Y-10958518D01*
X10869155Y-10958518D02*
X10831060Y-10958518D01*
X10831060Y-10958518D02*
X10812012Y-10948994D01*
X11021536Y-10958518D02*
X11002489Y-10948994D01*
X11002489Y-10948994D02*
X10992965Y-10929947D01*
X10992965Y-10929947D02*
X10992965Y-10758518D01*
X11183441Y-10958518D02*
X11183441Y-10853756D01*
X11183441Y-10853756D02*
X11173917Y-10834709D01*
X11173917Y-10834709D02*
X11154870Y-10825185D01*
X11154870Y-10825185D02*
X11116774Y-10825185D01*
X11116774Y-10825185D02*
X11097727Y-10834709D01*
X11183441Y-10948994D02*
X11164393Y-10958518D01*
X11164393Y-10958518D02*
X11116774Y-10958518D01*
X11116774Y-10958518D02*
X11097727Y-10948994D01*
X11097727Y-10948994D02*
X11088203Y-10929947D01*
X11088203Y-10929947D02*
X11088203Y-10910899D01*
X11088203Y-10910899D02*
X11097727Y-10891852D01*
X11097727Y-10891852D02*
X11116774Y-10882328D01*
X11116774Y-10882328D02*
X11164393Y-10882328D01*
X11164393Y-10882328D02*
X11183441Y-10872804D01*
X11250108Y-10825185D02*
X11326298Y-10825185D01*
X11278679Y-10758518D02*
X11278679Y-10929947D01*
X11278679Y-10929947D02*
X11288203Y-10948994D01*
X11288203Y-10948994D02*
X11307250Y-10958518D01*
X11307250Y-10958518D02*
X11326298Y-10958518D01*
X11469155Y-10948994D02*
X11450108Y-10958518D01*
X11450108Y-10958518D02*
X11412012Y-10958518D01*
X11412012Y-10958518D02*
X11392965Y-10948994D01*
X11392965Y-10948994D02*
X11383441Y-10929947D01*
X11383441Y-10929947D02*
X11383441Y-10853756D01*
X11383441Y-10853756D02*
X11392965Y-10834709D01*
X11392965Y-10834709D02*
X11412012Y-10825185D01*
X11412012Y-10825185D02*
X11450108Y-10825185D01*
X11450108Y-10825185D02*
X11469155Y-10834709D01*
X11469155Y-10834709D02*
X11478679Y-10853756D01*
X11478679Y-10853756D02*
X11478679Y-10872804D01*
X11478679Y-10872804D02*
X11383441Y-10891852D01*
X11650108Y-10958518D02*
X11650108Y-10758518D01*
X11650108Y-10948994D02*
X11631060Y-10958518D01*
X11631060Y-10958518D02*
X11592965Y-10958518D01*
X11592965Y-10958518D02*
X11573917Y-10948994D01*
X11573917Y-10948994D02*
X11564393Y-10939471D01*
X11564393Y-10939471D02*
X11554869Y-10920423D01*
X11554869Y-10920423D02*
X11554869Y-10863280D01*
X11554869Y-10863280D02*
X11564393Y-10844232D01*
X11564393Y-10844232D02*
X11573917Y-10834709D01*
X11573917Y-10834709D02*
X11592965Y-10825185D01*
X11592965Y-10825185D02*
X11631060Y-10825185D01*
X11631060Y-10825185D02*
X11650108Y-10834709D01*
X11726298Y-11034709D02*
X11735822Y-11025185D01*
X11735822Y-11025185D02*
X11754869Y-10996613D01*
X11754869Y-10996613D02*
X11764393Y-10977566D01*
X11764393Y-10977566D02*
X11773917Y-10948994D01*
X11773917Y-10948994D02*
X11783441Y-10901375D01*
X11783441Y-10901375D02*
X11783441Y-10863280D01*
X11783441Y-10863280D02*
X11773917Y-10815661D01*
X11773917Y-10815661D02*
X11764393Y-10787090D01*
X11764393Y-10787090D02*
X11754869Y-10768042D01*
X11754869Y-10768042D02*
X11735822Y-10739471D01*
X11735822Y-10739471D02*
X11726298Y-10729947D01*
D13*
X3364393Y-11129994D02*
G75*
G03*
X3364393Y-11129994I-84000J0D01*
G01*
D11*
X3716773Y-11222518D02*
X3602488Y-11222518D01*
X3659631Y-11222518D02*
X3659631Y-11022518D01*
X3659631Y-11022518D02*
X3640583Y-11051090D01*
X3640583Y-11051090D02*
X3621535Y-11070137D01*
X3621535Y-11070137D02*
X3602488Y-11079661D01*
X3802488Y-11203470D02*
X3812012Y-11212994D01*
X3812012Y-11212994D02*
X3802488Y-11222518D01*
X3802488Y-11222518D02*
X3792964Y-11212994D01*
X3792964Y-11212994D02*
X3802488Y-11203470D01*
X3802488Y-11203470D02*
X3802488Y-11222518D01*
X3983440Y-11022518D02*
X3945345Y-11022518D01*
X3945345Y-11022518D02*
X3926297Y-11032042D01*
X3926297Y-11032042D02*
X3916773Y-11041566D01*
X3916773Y-11041566D02*
X3897726Y-11070137D01*
X3897726Y-11070137D02*
X3888202Y-11108232D01*
X3888202Y-11108232D02*
X3888202Y-11184423D01*
X3888202Y-11184423D02*
X3897726Y-11203470D01*
X3897726Y-11203470D02*
X3907250Y-11212994D01*
X3907250Y-11212994D02*
X3926297Y-11222518D01*
X3926297Y-11222518D02*
X3964393Y-11222518D01*
X3964393Y-11222518D02*
X3983440Y-11212994D01*
X3983440Y-11212994D02*
X3992964Y-11203470D01*
X3992964Y-11203470D02*
X4002488Y-11184423D01*
X4002488Y-11184423D02*
X4002488Y-11136804D01*
X4002488Y-11136804D02*
X3992964Y-11117756D01*
X3992964Y-11117756D02*
X3983440Y-11108232D01*
X3983440Y-11108232D02*
X3964393Y-11098709D01*
X3964393Y-11098709D02*
X3926297Y-11098709D01*
X3926297Y-11098709D02*
X3907250Y-11108232D01*
X3907250Y-11108232D02*
X3897726Y-11117756D01*
X3897726Y-11117756D02*
X3888202Y-11136804D01*
X4116773Y-11108232D02*
X4097726Y-11098709D01*
X4097726Y-11098709D02*
X4088202Y-11089185D01*
X4088202Y-11089185D02*
X4078678Y-11070137D01*
X4078678Y-11070137D02*
X4078678Y-11060613D01*
X4078678Y-11060613D02*
X4088202Y-11041566D01*
X4088202Y-11041566D02*
X4097726Y-11032042D01*
X4097726Y-11032042D02*
X4116773Y-11022518D01*
X4116773Y-11022518D02*
X4154869Y-11022518D01*
X4154869Y-11022518D02*
X4173916Y-11032042D01*
X4173916Y-11032042D02*
X4183440Y-11041566D01*
X4183440Y-11041566D02*
X4192964Y-11060613D01*
X4192964Y-11060613D02*
X4192964Y-11070137D01*
X4192964Y-11070137D02*
X4183440Y-11089185D01*
X4183440Y-11089185D02*
X4173916Y-11098709D01*
X4173916Y-11098709D02*
X4154869Y-11108232D01*
X4154869Y-11108232D02*
X4116773Y-11108232D01*
X4116773Y-11108232D02*
X4097726Y-11117756D01*
X4097726Y-11117756D02*
X4088202Y-11127280D01*
X4088202Y-11127280D02*
X4078678Y-11146328D01*
X4078678Y-11146328D02*
X4078678Y-11184423D01*
X4078678Y-11184423D02*
X4088202Y-11203470D01*
X4088202Y-11203470D02*
X4097726Y-11212994D01*
X4097726Y-11212994D02*
X4116773Y-11222518D01*
X4116773Y-11222518D02*
X4154869Y-11222518D01*
X4154869Y-11222518D02*
X4173916Y-11212994D01*
X4173916Y-11212994D02*
X4183440Y-11203470D01*
X4183440Y-11203470D02*
X4192964Y-11184423D01*
X4192964Y-11184423D02*
X4192964Y-11146328D01*
X4192964Y-11146328D02*
X4183440Y-11127280D01*
X4183440Y-11127280D02*
X4173916Y-11117756D01*
X4173916Y-11117756D02*
X4154869Y-11108232D01*
X4316774Y-11022518D02*
X4335821Y-11022518D01*
X4335821Y-11022518D02*
X4354869Y-11032042D01*
X4354869Y-11032042D02*
X4364393Y-11041566D01*
X4364393Y-11041566D02*
X4373916Y-11060613D01*
X4373916Y-11060613D02*
X4383440Y-11098709D01*
X4383440Y-11098709D02*
X4383440Y-11146328D01*
X4383440Y-11146328D02*
X4373916Y-11184423D01*
X4373916Y-11184423D02*
X4364393Y-11203470D01*
X4364393Y-11203470D02*
X4354869Y-11212994D01*
X4354869Y-11212994D02*
X4335821Y-11222518D01*
X4335821Y-11222518D02*
X4316774Y-11222518D01*
X4316774Y-11222518D02*
X4297726Y-11212994D01*
X4297726Y-11212994D02*
X4288202Y-11203470D01*
X4288202Y-11203470D02*
X4278678Y-11184423D01*
X4278678Y-11184423D02*
X4269155Y-11146328D01*
X4269155Y-11146328D02*
X4269155Y-11098709D01*
X4269155Y-11098709D02*
X4278678Y-11060613D01*
X4278678Y-11060613D02*
X4288202Y-11041566D01*
X4288202Y-11041566D02*
X4297726Y-11032042D01*
X4297726Y-11032042D02*
X4316774Y-11022518D01*
X4469155Y-11222518D02*
X4469155Y-11089185D01*
X4469155Y-11108232D02*
X4478678Y-11098709D01*
X4478678Y-11098709D02*
X4497726Y-11089185D01*
X4497726Y-11089185D02*
X4526297Y-11089185D01*
X4526297Y-11089185D02*
X4545345Y-11098709D01*
X4545345Y-11098709D02*
X4554869Y-11117756D01*
X4554869Y-11117756D02*
X4554869Y-11222518D01*
X4554869Y-11117756D02*
X4564393Y-11098709D01*
X4564393Y-11098709D02*
X4583440Y-11089185D01*
X4583440Y-11089185D02*
X4612012Y-11089185D01*
X4612012Y-11089185D02*
X4631059Y-11098709D01*
X4631059Y-11098709D02*
X4640583Y-11117756D01*
X4640583Y-11117756D02*
X4640583Y-11222518D01*
X4735821Y-11222518D02*
X4735821Y-11089185D01*
X4735821Y-11108232D02*
X4745345Y-11098709D01*
X4745345Y-11098709D02*
X4764393Y-11089185D01*
X4764393Y-11089185D02*
X4792964Y-11089185D01*
X4792964Y-11089185D02*
X4812012Y-11098709D01*
X4812012Y-11098709D02*
X4821536Y-11117756D01*
X4821536Y-11117756D02*
X4821536Y-11222518D01*
X4821536Y-11117756D02*
X4831059Y-11098709D01*
X4831059Y-11098709D02*
X4850107Y-11089185D01*
X4850107Y-11089185D02*
X4878678Y-11089185D01*
X4878678Y-11089185D02*
X4897726Y-11098709D01*
X4897726Y-11098709D02*
X4907250Y-11117756D01*
X4907250Y-11117756D02*
X4907250Y-11222518D01*
X5297726Y-11012994D02*
X5126298Y-11270137D01*
X5554869Y-11022518D02*
X5573917Y-11022518D01*
X5573917Y-11022518D02*
X5592964Y-11032042D01*
X5592964Y-11032042D02*
X5602488Y-11041566D01*
X5602488Y-11041566D02*
X5612012Y-11060613D01*
X5612012Y-11060613D02*
X5621536Y-11098709D01*
X5621536Y-11098709D02*
X5621536Y-11146328D01*
X5621536Y-11146328D02*
X5612012Y-11184423D01*
X5612012Y-11184423D02*
X5602488Y-11203470D01*
X5602488Y-11203470D02*
X5592964Y-11212994D01*
X5592964Y-11212994D02*
X5573917Y-11222518D01*
X5573917Y-11222518D02*
X5554869Y-11222518D01*
X5554869Y-11222518D02*
X5535821Y-11212994D01*
X5535821Y-11212994D02*
X5526298Y-11203470D01*
X5526298Y-11203470D02*
X5516774Y-11184423D01*
X5516774Y-11184423D02*
X5507250Y-11146328D01*
X5507250Y-11146328D02*
X5507250Y-11098709D01*
X5507250Y-11098709D02*
X5516774Y-11060613D01*
X5516774Y-11060613D02*
X5526298Y-11041566D01*
X5526298Y-11041566D02*
X5535821Y-11032042D01*
X5535821Y-11032042D02*
X5554869Y-11022518D01*
X5707250Y-11203470D02*
X5716774Y-11212994D01*
X5716774Y-11212994D02*
X5707250Y-11222518D01*
X5707250Y-11222518D02*
X5697726Y-11212994D01*
X5697726Y-11212994D02*
X5707250Y-11203470D01*
X5707250Y-11203470D02*
X5707250Y-11222518D01*
X5840583Y-11022518D02*
X5859631Y-11022518D01*
X5859631Y-11022518D02*
X5878678Y-11032042D01*
X5878678Y-11032042D02*
X5888202Y-11041566D01*
X5888202Y-11041566D02*
X5897726Y-11060613D01*
X5897726Y-11060613D02*
X5907250Y-11098709D01*
X5907250Y-11098709D02*
X5907250Y-11146328D01*
X5907250Y-11146328D02*
X5897726Y-11184423D01*
X5897726Y-11184423D02*
X5888202Y-11203470D01*
X5888202Y-11203470D02*
X5878678Y-11212994D01*
X5878678Y-11212994D02*
X5859631Y-11222518D01*
X5859631Y-11222518D02*
X5840583Y-11222518D01*
X5840583Y-11222518D02*
X5821536Y-11212994D01*
X5821536Y-11212994D02*
X5812012Y-11203470D01*
X5812012Y-11203470D02*
X5802488Y-11184423D01*
X5802488Y-11184423D02*
X5792964Y-11146328D01*
X5792964Y-11146328D02*
X5792964Y-11098709D01*
X5792964Y-11098709D02*
X5802488Y-11060613D01*
X5802488Y-11060613D02*
X5812012Y-11041566D01*
X5812012Y-11041566D02*
X5821536Y-11032042D01*
X5821536Y-11032042D02*
X5840583Y-11022518D01*
X6078678Y-11022518D02*
X6040583Y-11022518D01*
X6040583Y-11022518D02*
X6021536Y-11032042D01*
X6021536Y-11032042D02*
X6012012Y-11041566D01*
X6012012Y-11041566D02*
X5992964Y-11070137D01*
X5992964Y-11070137D02*
X5983440Y-11108232D01*
X5983440Y-11108232D02*
X5983440Y-11184423D01*
X5983440Y-11184423D02*
X5992964Y-11203470D01*
X5992964Y-11203470D02*
X6002488Y-11212994D01*
X6002488Y-11212994D02*
X6021536Y-11222518D01*
X6021536Y-11222518D02*
X6059631Y-11222518D01*
X6059631Y-11222518D02*
X6078678Y-11212994D01*
X6078678Y-11212994D02*
X6088202Y-11203470D01*
X6088202Y-11203470D02*
X6097726Y-11184423D01*
X6097726Y-11184423D02*
X6097726Y-11136804D01*
X6097726Y-11136804D02*
X6088202Y-11117756D01*
X6088202Y-11117756D02*
X6078678Y-11108232D01*
X6078678Y-11108232D02*
X6059631Y-11098709D01*
X6059631Y-11098709D02*
X6021536Y-11098709D01*
X6021536Y-11098709D02*
X6002488Y-11108232D01*
X6002488Y-11108232D02*
X5992964Y-11117756D01*
X5992964Y-11117756D02*
X5983440Y-11136804D01*
X6269155Y-11022518D02*
X6231059Y-11022518D01*
X6231059Y-11022518D02*
X6212012Y-11032042D01*
X6212012Y-11032042D02*
X6202488Y-11041566D01*
X6202488Y-11041566D02*
X6183440Y-11070137D01*
X6183440Y-11070137D02*
X6173917Y-11108232D01*
X6173917Y-11108232D02*
X6173917Y-11184423D01*
X6173917Y-11184423D02*
X6183440Y-11203470D01*
X6183440Y-11203470D02*
X6192964Y-11212994D01*
X6192964Y-11212994D02*
X6212012Y-11222518D01*
X6212012Y-11222518D02*
X6250107Y-11222518D01*
X6250107Y-11222518D02*
X6269155Y-11212994D01*
X6269155Y-11212994D02*
X6278678Y-11203470D01*
X6278678Y-11203470D02*
X6288202Y-11184423D01*
X6288202Y-11184423D02*
X6288202Y-11136804D01*
X6288202Y-11136804D02*
X6278678Y-11117756D01*
X6278678Y-11117756D02*
X6269155Y-11108232D01*
X6269155Y-11108232D02*
X6250107Y-11098709D01*
X6250107Y-11098709D02*
X6212012Y-11098709D01*
X6212012Y-11098709D02*
X6192964Y-11108232D01*
X6192964Y-11108232D02*
X6183440Y-11117756D01*
X6183440Y-11117756D02*
X6173917Y-11136804D01*
X6478678Y-11222518D02*
X6364393Y-11222518D01*
X6421536Y-11222518D02*
X6421536Y-11022518D01*
X6421536Y-11022518D02*
X6402488Y-11051090D01*
X6402488Y-11051090D02*
X6383440Y-11070137D01*
X6383440Y-11070137D02*
X6364393Y-11079661D01*
X6554869Y-11022518D02*
X6554869Y-11060613D01*
X6631059Y-11022518D02*
X6631059Y-11060613D01*
X6926298Y-11298709D02*
X6916774Y-11289185D01*
X6916774Y-11289185D02*
X6897726Y-11260613D01*
X6897726Y-11260613D02*
X6888202Y-11241566D01*
X6888202Y-11241566D02*
X6878679Y-11212994D01*
X6878679Y-11212994D02*
X6869155Y-11165375D01*
X6869155Y-11165375D02*
X6869155Y-11127280D01*
X6869155Y-11127280D02*
X6878679Y-11079661D01*
X6878679Y-11079661D02*
X6888202Y-11051090D01*
X6888202Y-11051090D02*
X6897726Y-11032042D01*
X6897726Y-11032042D02*
X6916774Y-11003471D01*
X6916774Y-11003471D02*
X6926298Y-10993947D01*
X7107250Y-11222518D02*
X6992964Y-11222518D01*
X7050107Y-11222518D02*
X7050107Y-11022518D01*
X7050107Y-11022518D02*
X7031059Y-11051090D01*
X7031059Y-11051090D02*
X7012012Y-11070137D01*
X7012012Y-11070137D02*
X6992964Y-11079661D01*
X7278679Y-11022518D02*
X7240583Y-11022518D01*
X7240583Y-11022518D02*
X7221536Y-11032042D01*
X7221536Y-11032042D02*
X7212012Y-11041566D01*
X7212012Y-11041566D02*
X7192964Y-11070137D01*
X7192964Y-11070137D02*
X7183440Y-11108232D01*
X7183440Y-11108232D02*
X7183440Y-11184423D01*
X7183440Y-11184423D02*
X7192964Y-11203470D01*
X7192964Y-11203470D02*
X7202488Y-11212994D01*
X7202488Y-11212994D02*
X7221536Y-11222518D01*
X7221536Y-11222518D02*
X7259631Y-11222518D01*
X7259631Y-11222518D02*
X7278679Y-11212994D01*
X7278679Y-11212994D02*
X7288202Y-11203470D01*
X7288202Y-11203470D02*
X7297726Y-11184423D01*
X7297726Y-11184423D02*
X7297726Y-11136804D01*
X7297726Y-11136804D02*
X7288202Y-11117756D01*
X7288202Y-11117756D02*
X7278679Y-11108232D01*
X7278679Y-11108232D02*
X7259631Y-11098709D01*
X7259631Y-11098709D02*
X7221536Y-11098709D01*
X7221536Y-11098709D02*
X7202488Y-11108232D01*
X7202488Y-11108232D02*
X7192964Y-11117756D01*
X7192964Y-11117756D02*
X7183440Y-11136804D01*
X7535821Y-11222518D02*
X7535821Y-11022518D01*
X7621536Y-11222518D02*
X7621536Y-11117756D01*
X7621536Y-11117756D02*
X7612012Y-11098709D01*
X7612012Y-11098709D02*
X7592964Y-11089185D01*
X7592964Y-11089185D02*
X7564393Y-11089185D01*
X7564393Y-11089185D02*
X7545345Y-11098709D01*
X7545345Y-11098709D02*
X7535821Y-11108232D01*
X7745345Y-11222518D02*
X7726298Y-11212994D01*
X7726298Y-11212994D02*
X7716774Y-11203470D01*
X7716774Y-11203470D02*
X7707250Y-11184423D01*
X7707250Y-11184423D02*
X7707250Y-11127280D01*
X7707250Y-11127280D02*
X7716774Y-11108232D01*
X7716774Y-11108232D02*
X7726298Y-11098709D01*
X7726298Y-11098709D02*
X7745345Y-11089185D01*
X7745345Y-11089185D02*
X7773917Y-11089185D01*
X7773917Y-11089185D02*
X7792964Y-11098709D01*
X7792964Y-11098709D02*
X7802488Y-11108232D01*
X7802488Y-11108232D02*
X7812012Y-11127280D01*
X7812012Y-11127280D02*
X7812012Y-11184423D01*
X7812012Y-11184423D02*
X7802488Y-11203470D01*
X7802488Y-11203470D02*
X7792964Y-11212994D01*
X7792964Y-11212994D02*
X7773917Y-11222518D01*
X7773917Y-11222518D02*
X7745345Y-11222518D01*
X7926298Y-11222518D02*
X7907250Y-11212994D01*
X7907250Y-11212994D02*
X7897726Y-11193947D01*
X7897726Y-11193947D02*
X7897726Y-11022518D01*
X8078679Y-11212994D02*
X8059631Y-11222518D01*
X8059631Y-11222518D02*
X8021536Y-11222518D01*
X8021536Y-11222518D02*
X8002488Y-11212994D01*
X8002488Y-11212994D02*
X7992964Y-11193947D01*
X7992964Y-11193947D02*
X7992964Y-11117756D01*
X7992964Y-11117756D02*
X8002488Y-11098709D01*
X8002488Y-11098709D02*
X8021536Y-11089185D01*
X8021536Y-11089185D02*
X8059631Y-11089185D01*
X8059631Y-11089185D02*
X8078679Y-11098709D01*
X8078679Y-11098709D02*
X8088202Y-11117756D01*
X8088202Y-11117756D02*
X8088202Y-11136804D01*
X8088202Y-11136804D02*
X7992964Y-11155852D01*
X8164393Y-11212994D02*
X8183441Y-11222518D01*
X8183441Y-11222518D02*
X8221536Y-11222518D01*
X8221536Y-11222518D02*
X8240583Y-11212994D01*
X8240583Y-11212994D02*
X8250107Y-11193947D01*
X8250107Y-11193947D02*
X8250107Y-11184423D01*
X8250107Y-11184423D02*
X8240583Y-11165375D01*
X8240583Y-11165375D02*
X8221536Y-11155852D01*
X8221536Y-11155852D02*
X8192964Y-11155852D01*
X8192964Y-11155852D02*
X8173917Y-11146328D01*
X8173917Y-11146328D02*
X8164393Y-11127280D01*
X8164393Y-11127280D02*
X8164393Y-11117756D01*
X8164393Y-11117756D02*
X8173917Y-11098709D01*
X8173917Y-11098709D02*
X8192964Y-11089185D01*
X8192964Y-11089185D02*
X8221536Y-11089185D01*
X8221536Y-11089185D02*
X8240583Y-11098709D01*
X8316774Y-11298709D02*
X8326298Y-11289185D01*
X8326298Y-11289185D02*
X8345345Y-11260613D01*
X8345345Y-11260613D02*
X8354869Y-11241566D01*
X8354869Y-11241566D02*
X8364393Y-11212994D01*
X8364393Y-11212994D02*
X8373917Y-11165375D01*
X8373917Y-11165375D02*
X8373917Y-11127280D01*
X8373917Y-11127280D02*
X8364393Y-11079661D01*
X8364393Y-11079661D02*
X8354869Y-11051090D01*
X8354869Y-11051090D02*
X8345345Y-11032042D01*
X8345345Y-11032042D02*
X8326298Y-11003471D01*
X8326298Y-11003471D02*
X8316774Y-10993947D01*
X8678679Y-11298709D02*
X8669155Y-11289185D01*
X8669155Y-11289185D02*
X8650107Y-11260613D01*
X8650107Y-11260613D02*
X8640584Y-11241566D01*
X8640584Y-11241566D02*
X8631060Y-11212994D01*
X8631060Y-11212994D02*
X8621536Y-11165375D01*
X8621536Y-11165375D02*
X8621536Y-11127280D01*
X8621536Y-11127280D02*
X8631060Y-11079661D01*
X8631060Y-11079661D02*
X8640584Y-11051090D01*
X8640584Y-11051090D02*
X8650107Y-11032042D01*
X8650107Y-11032042D02*
X8669155Y-11003471D01*
X8669155Y-11003471D02*
X8678679Y-10993947D01*
X8754869Y-11089185D02*
X8754869Y-11222518D01*
X8754869Y-11108232D02*
X8764393Y-11098709D01*
X8764393Y-11098709D02*
X8783441Y-11089185D01*
X8783441Y-11089185D02*
X8812012Y-11089185D01*
X8812012Y-11089185D02*
X8831060Y-11098709D01*
X8831060Y-11098709D02*
X8840584Y-11117756D01*
X8840584Y-11117756D02*
X8840584Y-11222518D01*
X8964393Y-11222518D02*
X8945345Y-11212994D01*
X8945345Y-11212994D02*
X8935822Y-11203470D01*
X8935822Y-11203470D02*
X8926298Y-11184423D01*
X8926298Y-11184423D02*
X8926298Y-11127280D01*
X8926298Y-11127280D02*
X8935822Y-11108232D01*
X8935822Y-11108232D02*
X8945345Y-11098709D01*
X8945345Y-11098709D02*
X8964393Y-11089185D01*
X8964393Y-11089185D02*
X8992965Y-11089185D01*
X8992965Y-11089185D02*
X9012012Y-11098709D01*
X9012012Y-11098709D02*
X9021536Y-11108232D01*
X9021536Y-11108232D02*
X9031060Y-11127280D01*
X9031060Y-11127280D02*
X9031060Y-11184423D01*
X9031060Y-11184423D02*
X9021536Y-11203470D01*
X9021536Y-11203470D02*
X9012012Y-11212994D01*
X9012012Y-11212994D02*
X8992965Y-11222518D01*
X8992965Y-11222518D02*
X8964393Y-11222518D01*
X9088203Y-11089185D02*
X9164393Y-11089185D01*
X9116774Y-11022518D02*
X9116774Y-11193947D01*
X9116774Y-11193947D02*
X9126298Y-11212994D01*
X9126298Y-11212994D02*
X9145345Y-11222518D01*
X9145345Y-11222518D02*
X9164393Y-11222518D01*
X9383441Y-11089185D02*
X9383441Y-11289185D01*
X9383441Y-11098709D02*
X9402488Y-11089185D01*
X9402488Y-11089185D02*
X9440584Y-11089185D01*
X9440584Y-11089185D02*
X9459631Y-11098709D01*
X9459631Y-11098709D02*
X9469155Y-11108232D01*
X9469155Y-11108232D02*
X9478679Y-11127280D01*
X9478679Y-11127280D02*
X9478679Y-11184423D01*
X9478679Y-11184423D02*
X9469155Y-11203470D01*
X9469155Y-11203470D02*
X9459631Y-11212994D01*
X9459631Y-11212994D02*
X9440584Y-11222518D01*
X9440584Y-11222518D02*
X9402488Y-11222518D01*
X9402488Y-11222518D02*
X9383441Y-11212994D01*
X9592965Y-11222518D02*
X9573917Y-11212994D01*
X9573917Y-11212994D02*
X9564393Y-11193947D01*
X9564393Y-11193947D02*
X9564393Y-11022518D01*
X9754869Y-11222518D02*
X9754869Y-11117756D01*
X9754869Y-11117756D02*
X9745346Y-11098709D01*
X9745346Y-11098709D02*
X9726298Y-11089185D01*
X9726298Y-11089185D02*
X9688203Y-11089185D01*
X9688203Y-11089185D02*
X9669155Y-11098709D01*
X9754869Y-11212994D02*
X9735822Y-11222518D01*
X9735822Y-11222518D02*
X9688203Y-11222518D01*
X9688203Y-11222518D02*
X9669155Y-11212994D01*
X9669155Y-11212994D02*
X9659631Y-11193947D01*
X9659631Y-11193947D02*
X9659631Y-11174899D01*
X9659631Y-11174899D02*
X9669155Y-11155852D01*
X9669155Y-11155852D02*
X9688203Y-11146328D01*
X9688203Y-11146328D02*
X9735822Y-11146328D01*
X9735822Y-11146328D02*
X9754869Y-11136804D01*
X9821536Y-11089185D02*
X9897726Y-11089185D01*
X9850107Y-11022518D02*
X9850107Y-11193947D01*
X9850107Y-11193947D02*
X9859631Y-11212994D01*
X9859631Y-11212994D02*
X9878679Y-11222518D01*
X9878679Y-11222518D02*
X9897726Y-11222518D01*
X10040584Y-11212994D02*
X10021536Y-11222518D01*
X10021536Y-11222518D02*
X9983441Y-11222518D01*
X9983441Y-11222518D02*
X9964393Y-11212994D01*
X9964393Y-11212994D02*
X9954869Y-11193947D01*
X9954869Y-11193947D02*
X9954869Y-11117756D01*
X9954869Y-11117756D02*
X9964393Y-11098709D01*
X9964393Y-11098709D02*
X9983441Y-11089185D01*
X9983441Y-11089185D02*
X10021536Y-11089185D01*
X10021536Y-11089185D02*
X10040584Y-11098709D01*
X10040584Y-11098709D02*
X10050107Y-11117756D01*
X10050107Y-11117756D02*
X10050107Y-11136804D01*
X10050107Y-11136804D02*
X9954869Y-11155852D01*
X10221536Y-11222518D02*
X10221536Y-11022518D01*
X10221536Y-11212994D02*
X10202488Y-11222518D01*
X10202488Y-11222518D02*
X10164393Y-11222518D01*
X10164393Y-11222518D02*
X10145346Y-11212994D01*
X10145346Y-11212994D02*
X10135822Y-11203470D01*
X10135822Y-11203470D02*
X10126298Y-11184423D01*
X10126298Y-11184423D02*
X10126298Y-11127280D01*
X10126298Y-11127280D02*
X10135822Y-11108232D01*
X10135822Y-11108232D02*
X10145346Y-11098709D01*
X10145346Y-11098709D02*
X10164393Y-11089185D01*
X10164393Y-11089185D02*
X10202488Y-11089185D01*
X10202488Y-11089185D02*
X10221536Y-11098709D01*
X10297727Y-11298709D02*
X10307250Y-11289185D01*
X10307250Y-11289185D02*
X10326298Y-11260613D01*
X10326298Y-11260613D02*
X10335822Y-11241566D01*
X10335822Y-11241566D02*
X10345346Y-11212994D01*
X10345346Y-11212994D02*
X10354869Y-11165375D01*
X10354869Y-11165375D02*
X10354869Y-11127280D01*
X10354869Y-11127280D02*
X10345346Y-11079661D01*
X10345346Y-11079661D02*
X10335822Y-11051090D01*
X10335822Y-11051090D02*
X10326298Y-11032042D01*
X10326298Y-11032042D02*
X10307250Y-11003471D01*
X10307250Y-11003471D02*
X10297727Y-10993947D01*
D14*
X3279393Y-11332994D02*
X3279393Y-11502994D01*
X3194393Y-11417994D02*
X3364393Y-11417994D01*
D11*
X3716773Y-11510518D02*
X3602488Y-11510518D01*
X3659631Y-11510518D02*
X3659631Y-11310518D01*
X3659631Y-11310518D02*
X3640583Y-11339090D01*
X3640583Y-11339090D02*
X3621535Y-11358137D01*
X3621535Y-11358137D02*
X3602488Y-11367661D01*
X3802488Y-11491470D02*
X3812012Y-11500994D01*
X3812012Y-11500994D02*
X3802488Y-11510518D01*
X3802488Y-11510518D02*
X3792964Y-11500994D01*
X3792964Y-11500994D02*
X3802488Y-11491470D01*
X3802488Y-11491470D02*
X3802488Y-11510518D01*
X3878678Y-11310518D02*
X4012012Y-11310518D01*
X4012012Y-11310518D02*
X3926297Y-11510518D01*
X4126297Y-11310518D02*
X4145345Y-11310518D01*
X4145345Y-11310518D02*
X4164393Y-11320042D01*
X4164393Y-11320042D02*
X4173916Y-11329566D01*
X4173916Y-11329566D02*
X4183440Y-11348613D01*
X4183440Y-11348613D02*
X4192964Y-11386709D01*
X4192964Y-11386709D02*
X4192964Y-11434328D01*
X4192964Y-11434328D02*
X4183440Y-11472423D01*
X4183440Y-11472423D02*
X4173916Y-11491470D01*
X4173916Y-11491470D02*
X4164393Y-11500994D01*
X4164393Y-11500994D02*
X4145345Y-11510518D01*
X4145345Y-11510518D02*
X4126297Y-11510518D01*
X4126297Y-11510518D02*
X4107250Y-11500994D01*
X4107250Y-11500994D02*
X4097726Y-11491470D01*
X4097726Y-11491470D02*
X4088202Y-11472423D01*
X4088202Y-11472423D02*
X4078678Y-11434328D01*
X4078678Y-11434328D02*
X4078678Y-11386709D01*
X4078678Y-11386709D02*
X4088202Y-11348613D01*
X4088202Y-11348613D02*
X4097726Y-11329566D01*
X4097726Y-11329566D02*
X4107250Y-11320042D01*
X4107250Y-11320042D02*
X4126297Y-11310518D01*
X4316774Y-11310518D02*
X4335821Y-11310518D01*
X4335821Y-11310518D02*
X4354869Y-11320042D01*
X4354869Y-11320042D02*
X4364393Y-11329566D01*
X4364393Y-11329566D02*
X4373916Y-11348613D01*
X4373916Y-11348613D02*
X4383440Y-11386709D01*
X4383440Y-11386709D02*
X4383440Y-11434328D01*
X4383440Y-11434328D02*
X4373916Y-11472423D01*
X4373916Y-11472423D02*
X4364393Y-11491470D01*
X4364393Y-11491470D02*
X4354869Y-11500994D01*
X4354869Y-11500994D02*
X4335821Y-11510518D01*
X4335821Y-11510518D02*
X4316774Y-11510518D01*
X4316774Y-11510518D02*
X4297726Y-11500994D01*
X4297726Y-11500994D02*
X4288202Y-11491470D01*
X4288202Y-11491470D02*
X4278678Y-11472423D01*
X4278678Y-11472423D02*
X4269155Y-11434328D01*
X4269155Y-11434328D02*
X4269155Y-11386709D01*
X4269155Y-11386709D02*
X4278678Y-11348613D01*
X4278678Y-11348613D02*
X4288202Y-11329566D01*
X4288202Y-11329566D02*
X4297726Y-11320042D01*
X4297726Y-11320042D02*
X4316774Y-11310518D01*
X4469155Y-11510518D02*
X4469155Y-11377185D01*
X4469155Y-11396232D02*
X4478678Y-11386709D01*
X4478678Y-11386709D02*
X4497726Y-11377185D01*
X4497726Y-11377185D02*
X4526297Y-11377185D01*
X4526297Y-11377185D02*
X4545345Y-11386709D01*
X4545345Y-11386709D02*
X4554869Y-11405756D01*
X4554869Y-11405756D02*
X4554869Y-11510518D01*
X4554869Y-11405756D02*
X4564393Y-11386709D01*
X4564393Y-11386709D02*
X4583440Y-11377185D01*
X4583440Y-11377185D02*
X4612012Y-11377185D01*
X4612012Y-11377185D02*
X4631059Y-11386709D01*
X4631059Y-11386709D02*
X4640583Y-11405756D01*
X4640583Y-11405756D02*
X4640583Y-11510518D01*
X4735821Y-11510518D02*
X4735821Y-11377185D01*
X4735821Y-11396232D02*
X4745345Y-11386709D01*
X4745345Y-11386709D02*
X4764393Y-11377185D01*
X4764393Y-11377185D02*
X4792964Y-11377185D01*
X4792964Y-11377185D02*
X4812012Y-11386709D01*
X4812012Y-11386709D02*
X4821536Y-11405756D01*
X4821536Y-11405756D02*
X4821536Y-11510518D01*
X4821536Y-11405756D02*
X4831059Y-11386709D01*
X4831059Y-11386709D02*
X4850107Y-11377185D01*
X4850107Y-11377185D02*
X4878678Y-11377185D01*
X4878678Y-11377185D02*
X4897726Y-11386709D01*
X4897726Y-11386709D02*
X4907250Y-11405756D01*
X4907250Y-11405756D02*
X4907250Y-11510518D01*
X5297726Y-11300994D02*
X5126298Y-11558137D01*
X5554869Y-11310518D02*
X5573917Y-11310518D01*
X5573917Y-11310518D02*
X5592964Y-11320042D01*
X5592964Y-11320042D02*
X5602488Y-11329566D01*
X5602488Y-11329566D02*
X5612012Y-11348613D01*
X5612012Y-11348613D02*
X5621536Y-11386709D01*
X5621536Y-11386709D02*
X5621536Y-11434328D01*
X5621536Y-11434328D02*
X5612012Y-11472423D01*
X5612012Y-11472423D02*
X5602488Y-11491470D01*
X5602488Y-11491470D02*
X5592964Y-11500994D01*
X5592964Y-11500994D02*
X5573917Y-11510518D01*
X5573917Y-11510518D02*
X5554869Y-11510518D01*
X5554869Y-11510518D02*
X5535821Y-11500994D01*
X5535821Y-11500994D02*
X5526298Y-11491470D01*
X5526298Y-11491470D02*
X5516774Y-11472423D01*
X5516774Y-11472423D02*
X5507250Y-11434328D01*
X5507250Y-11434328D02*
X5507250Y-11386709D01*
X5507250Y-11386709D02*
X5516774Y-11348613D01*
X5516774Y-11348613D02*
X5526298Y-11329566D01*
X5526298Y-11329566D02*
X5535821Y-11320042D01*
X5535821Y-11320042D02*
X5554869Y-11310518D01*
X5707250Y-11491470D02*
X5716774Y-11500994D01*
X5716774Y-11500994D02*
X5707250Y-11510518D01*
X5707250Y-11510518D02*
X5697726Y-11500994D01*
X5697726Y-11500994D02*
X5707250Y-11491470D01*
X5707250Y-11491470D02*
X5707250Y-11510518D01*
X5840583Y-11310518D02*
X5859631Y-11310518D01*
X5859631Y-11310518D02*
X5878678Y-11320042D01*
X5878678Y-11320042D02*
X5888202Y-11329566D01*
X5888202Y-11329566D02*
X5897726Y-11348613D01*
X5897726Y-11348613D02*
X5907250Y-11386709D01*
X5907250Y-11386709D02*
X5907250Y-11434328D01*
X5907250Y-11434328D02*
X5897726Y-11472423D01*
X5897726Y-11472423D02*
X5888202Y-11491470D01*
X5888202Y-11491470D02*
X5878678Y-11500994D01*
X5878678Y-11500994D02*
X5859631Y-11510518D01*
X5859631Y-11510518D02*
X5840583Y-11510518D01*
X5840583Y-11510518D02*
X5821536Y-11500994D01*
X5821536Y-11500994D02*
X5812012Y-11491470D01*
X5812012Y-11491470D02*
X5802488Y-11472423D01*
X5802488Y-11472423D02*
X5792964Y-11434328D01*
X5792964Y-11434328D02*
X5792964Y-11386709D01*
X5792964Y-11386709D02*
X5802488Y-11348613D01*
X5802488Y-11348613D02*
X5812012Y-11329566D01*
X5812012Y-11329566D02*
X5821536Y-11320042D01*
X5821536Y-11320042D02*
X5840583Y-11310518D01*
X6078678Y-11310518D02*
X6040583Y-11310518D01*
X6040583Y-11310518D02*
X6021536Y-11320042D01*
X6021536Y-11320042D02*
X6012012Y-11329566D01*
X6012012Y-11329566D02*
X5992964Y-11358137D01*
X5992964Y-11358137D02*
X5983440Y-11396232D01*
X5983440Y-11396232D02*
X5983440Y-11472423D01*
X5983440Y-11472423D02*
X5992964Y-11491470D01*
X5992964Y-11491470D02*
X6002488Y-11500994D01*
X6002488Y-11500994D02*
X6021536Y-11510518D01*
X6021536Y-11510518D02*
X6059631Y-11510518D01*
X6059631Y-11510518D02*
X6078678Y-11500994D01*
X6078678Y-11500994D02*
X6088202Y-11491470D01*
X6088202Y-11491470D02*
X6097726Y-11472423D01*
X6097726Y-11472423D02*
X6097726Y-11424804D01*
X6097726Y-11424804D02*
X6088202Y-11405756D01*
X6088202Y-11405756D02*
X6078678Y-11396232D01*
X6078678Y-11396232D02*
X6059631Y-11386709D01*
X6059631Y-11386709D02*
X6021536Y-11386709D01*
X6021536Y-11386709D02*
X6002488Y-11396232D01*
X6002488Y-11396232D02*
X5992964Y-11405756D01*
X5992964Y-11405756D02*
X5983440Y-11424804D01*
X6269155Y-11310518D02*
X6231059Y-11310518D01*
X6231059Y-11310518D02*
X6212012Y-11320042D01*
X6212012Y-11320042D02*
X6202488Y-11329566D01*
X6202488Y-11329566D02*
X6183440Y-11358137D01*
X6183440Y-11358137D02*
X6173917Y-11396232D01*
X6173917Y-11396232D02*
X6173917Y-11472423D01*
X6173917Y-11472423D02*
X6183440Y-11491470D01*
X6183440Y-11491470D02*
X6192964Y-11500994D01*
X6192964Y-11500994D02*
X6212012Y-11510518D01*
X6212012Y-11510518D02*
X6250107Y-11510518D01*
X6250107Y-11510518D02*
X6269155Y-11500994D01*
X6269155Y-11500994D02*
X6278678Y-11491470D01*
X6278678Y-11491470D02*
X6288202Y-11472423D01*
X6288202Y-11472423D02*
X6288202Y-11424804D01*
X6288202Y-11424804D02*
X6278678Y-11405756D01*
X6278678Y-11405756D02*
X6269155Y-11396232D01*
X6269155Y-11396232D02*
X6250107Y-11386709D01*
X6250107Y-11386709D02*
X6212012Y-11386709D01*
X6212012Y-11386709D02*
X6192964Y-11396232D01*
X6192964Y-11396232D02*
X6183440Y-11405756D01*
X6183440Y-11405756D02*
X6173917Y-11424804D01*
X6383440Y-11510518D02*
X6421536Y-11510518D01*
X6421536Y-11510518D02*
X6440583Y-11500994D01*
X6440583Y-11500994D02*
X6450107Y-11491470D01*
X6450107Y-11491470D02*
X6469155Y-11462899D01*
X6469155Y-11462899D02*
X6478678Y-11424804D01*
X6478678Y-11424804D02*
X6478678Y-11348613D01*
X6478678Y-11348613D02*
X6469155Y-11329566D01*
X6469155Y-11329566D02*
X6459631Y-11320042D01*
X6459631Y-11320042D02*
X6440583Y-11310518D01*
X6440583Y-11310518D02*
X6402488Y-11310518D01*
X6402488Y-11310518D02*
X6383440Y-11320042D01*
X6383440Y-11320042D02*
X6373917Y-11329566D01*
X6373917Y-11329566D02*
X6364393Y-11348613D01*
X6364393Y-11348613D02*
X6364393Y-11396232D01*
X6364393Y-11396232D02*
X6373917Y-11415280D01*
X6373917Y-11415280D02*
X6383440Y-11424804D01*
X6383440Y-11424804D02*
X6402488Y-11434328D01*
X6402488Y-11434328D02*
X6440583Y-11434328D01*
X6440583Y-11434328D02*
X6459631Y-11424804D01*
X6459631Y-11424804D02*
X6469155Y-11415280D01*
X6469155Y-11415280D02*
X6478678Y-11396232D01*
X6554869Y-11310518D02*
X6554869Y-11348613D01*
X6631059Y-11310518D02*
X6631059Y-11348613D01*
X6926298Y-11586709D02*
X6916774Y-11577185D01*
X6916774Y-11577185D02*
X6897726Y-11548613D01*
X6897726Y-11548613D02*
X6888202Y-11529566D01*
X6888202Y-11529566D02*
X6878679Y-11500994D01*
X6878679Y-11500994D02*
X6869155Y-11453375D01*
X6869155Y-11453375D02*
X6869155Y-11415280D01*
X6869155Y-11415280D02*
X6878679Y-11367661D01*
X6878679Y-11367661D02*
X6888202Y-11339090D01*
X6888202Y-11339090D02*
X6897726Y-11320042D01*
X6897726Y-11320042D02*
X6916774Y-11291470D01*
X6916774Y-11291470D02*
X6926298Y-11281947D01*
X7107250Y-11510518D02*
X6992964Y-11510518D01*
X7050107Y-11510518D02*
X7050107Y-11310518D01*
X7050107Y-11310518D02*
X7031059Y-11339090D01*
X7031059Y-11339090D02*
X7012012Y-11358137D01*
X7012012Y-11358137D02*
X6992964Y-11367661D01*
X7278679Y-11310518D02*
X7240583Y-11310518D01*
X7240583Y-11310518D02*
X7221536Y-11320042D01*
X7221536Y-11320042D02*
X7212012Y-11329566D01*
X7212012Y-11329566D02*
X7192964Y-11358137D01*
X7192964Y-11358137D02*
X7183440Y-11396232D01*
X7183440Y-11396232D02*
X7183440Y-11472423D01*
X7183440Y-11472423D02*
X7192964Y-11491470D01*
X7192964Y-11491470D02*
X7202488Y-11500994D01*
X7202488Y-11500994D02*
X7221536Y-11510518D01*
X7221536Y-11510518D02*
X7259631Y-11510518D01*
X7259631Y-11510518D02*
X7278679Y-11500994D01*
X7278679Y-11500994D02*
X7288202Y-11491470D01*
X7288202Y-11491470D02*
X7297726Y-11472423D01*
X7297726Y-11472423D02*
X7297726Y-11424804D01*
X7297726Y-11424804D02*
X7288202Y-11405756D01*
X7288202Y-11405756D02*
X7278679Y-11396232D01*
X7278679Y-11396232D02*
X7259631Y-11386709D01*
X7259631Y-11386709D02*
X7221536Y-11386709D01*
X7221536Y-11386709D02*
X7202488Y-11396232D01*
X7202488Y-11396232D02*
X7192964Y-11405756D01*
X7192964Y-11405756D02*
X7183440Y-11424804D01*
X7535821Y-11510518D02*
X7535821Y-11310518D01*
X7621536Y-11510518D02*
X7621536Y-11405756D01*
X7621536Y-11405756D02*
X7612012Y-11386709D01*
X7612012Y-11386709D02*
X7592964Y-11377185D01*
X7592964Y-11377185D02*
X7564393Y-11377185D01*
X7564393Y-11377185D02*
X7545345Y-11386709D01*
X7545345Y-11386709D02*
X7535821Y-11396232D01*
X7745345Y-11510518D02*
X7726298Y-11500994D01*
X7726298Y-11500994D02*
X7716774Y-11491470D01*
X7716774Y-11491470D02*
X7707250Y-11472423D01*
X7707250Y-11472423D02*
X7707250Y-11415280D01*
X7707250Y-11415280D02*
X7716774Y-11396232D01*
X7716774Y-11396232D02*
X7726298Y-11386709D01*
X7726298Y-11386709D02*
X7745345Y-11377185D01*
X7745345Y-11377185D02*
X7773917Y-11377185D01*
X7773917Y-11377185D02*
X7792964Y-11386709D01*
X7792964Y-11386709D02*
X7802488Y-11396232D01*
X7802488Y-11396232D02*
X7812012Y-11415280D01*
X7812012Y-11415280D02*
X7812012Y-11472423D01*
X7812012Y-11472423D02*
X7802488Y-11491470D01*
X7802488Y-11491470D02*
X7792964Y-11500994D01*
X7792964Y-11500994D02*
X7773917Y-11510518D01*
X7773917Y-11510518D02*
X7745345Y-11510518D01*
X7926298Y-11510518D02*
X7907250Y-11500994D01*
X7907250Y-11500994D02*
X7897726Y-11481947D01*
X7897726Y-11481947D02*
X7897726Y-11310518D01*
X8078679Y-11500994D02*
X8059631Y-11510518D01*
X8059631Y-11510518D02*
X8021536Y-11510518D01*
X8021536Y-11510518D02*
X8002488Y-11500994D01*
X8002488Y-11500994D02*
X7992964Y-11481947D01*
X7992964Y-11481947D02*
X7992964Y-11405756D01*
X7992964Y-11405756D02*
X8002488Y-11386709D01*
X8002488Y-11386709D02*
X8021536Y-11377185D01*
X8021536Y-11377185D02*
X8059631Y-11377185D01*
X8059631Y-11377185D02*
X8078679Y-11386709D01*
X8078679Y-11386709D02*
X8088202Y-11405756D01*
X8088202Y-11405756D02*
X8088202Y-11424804D01*
X8088202Y-11424804D02*
X7992964Y-11443851D01*
X8164393Y-11500994D02*
X8183441Y-11510518D01*
X8183441Y-11510518D02*
X8221536Y-11510518D01*
X8221536Y-11510518D02*
X8240583Y-11500994D01*
X8240583Y-11500994D02*
X8250107Y-11481947D01*
X8250107Y-11481947D02*
X8250107Y-11472423D01*
X8250107Y-11472423D02*
X8240583Y-11453375D01*
X8240583Y-11453375D02*
X8221536Y-11443851D01*
X8221536Y-11443851D02*
X8192964Y-11443851D01*
X8192964Y-11443851D02*
X8173917Y-11434328D01*
X8173917Y-11434328D02*
X8164393Y-11415280D01*
X8164393Y-11415280D02*
X8164393Y-11405756D01*
X8164393Y-11405756D02*
X8173917Y-11386709D01*
X8173917Y-11386709D02*
X8192964Y-11377185D01*
X8192964Y-11377185D02*
X8221536Y-11377185D01*
X8221536Y-11377185D02*
X8240583Y-11386709D01*
X8316774Y-11586709D02*
X8326298Y-11577185D01*
X8326298Y-11577185D02*
X8345345Y-11548613D01*
X8345345Y-11548613D02*
X8354869Y-11529566D01*
X8354869Y-11529566D02*
X8364393Y-11500994D01*
X8364393Y-11500994D02*
X8373917Y-11453375D01*
X8373917Y-11453375D02*
X8373917Y-11415280D01*
X8373917Y-11415280D02*
X8364393Y-11367661D01*
X8364393Y-11367661D02*
X8354869Y-11339090D01*
X8354869Y-11339090D02*
X8345345Y-11320042D01*
X8345345Y-11320042D02*
X8326298Y-11291470D01*
X8326298Y-11291470D02*
X8316774Y-11281947D01*
X8678679Y-11586709D02*
X8669155Y-11577185D01*
X8669155Y-11577185D02*
X8650107Y-11548613D01*
X8650107Y-11548613D02*
X8640584Y-11529566D01*
X8640584Y-11529566D02*
X8631060Y-11500994D01*
X8631060Y-11500994D02*
X8621536Y-11453375D01*
X8621536Y-11453375D02*
X8621536Y-11415280D01*
X8621536Y-11415280D02*
X8631060Y-11367661D01*
X8631060Y-11367661D02*
X8640584Y-11339090D01*
X8640584Y-11339090D02*
X8650107Y-11320042D01*
X8650107Y-11320042D02*
X8669155Y-11291470D01*
X8669155Y-11291470D02*
X8678679Y-11281947D01*
X8754869Y-11377185D02*
X8754869Y-11510518D01*
X8754869Y-11396232D02*
X8764393Y-11386709D01*
X8764393Y-11386709D02*
X8783441Y-11377185D01*
X8783441Y-11377185D02*
X8812012Y-11377185D01*
X8812012Y-11377185D02*
X8831060Y-11386709D01*
X8831060Y-11386709D02*
X8840584Y-11405756D01*
X8840584Y-11405756D02*
X8840584Y-11510518D01*
X8964393Y-11510518D02*
X8945345Y-11500994D01*
X8945345Y-11500994D02*
X8935822Y-11491470D01*
X8935822Y-11491470D02*
X8926298Y-11472423D01*
X8926298Y-11472423D02*
X8926298Y-11415280D01*
X8926298Y-11415280D02*
X8935822Y-11396232D01*
X8935822Y-11396232D02*
X8945345Y-11386709D01*
X8945345Y-11386709D02*
X8964393Y-11377185D01*
X8964393Y-11377185D02*
X8992965Y-11377185D01*
X8992965Y-11377185D02*
X9012012Y-11386709D01*
X9012012Y-11386709D02*
X9021536Y-11396232D01*
X9021536Y-11396232D02*
X9031060Y-11415280D01*
X9031060Y-11415280D02*
X9031060Y-11472423D01*
X9031060Y-11472423D02*
X9021536Y-11491470D01*
X9021536Y-11491470D02*
X9012012Y-11500994D01*
X9012012Y-11500994D02*
X8992965Y-11510518D01*
X8992965Y-11510518D02*
X8964393Y-11510518D01*
X9088203Y-11377185D02*
X9164393Y-11377185D01*
X9116774Y-11310518D02*
X9116774Y-11481947D01*
X9116774Y-11481947D02*
X9126298Y-11500994D01*
X9126298Y-11500994D02*
X9145345Y-11510518D01*
X9145345Y-11510518D02*
X9164393Y-11510518D01*
X9383441Y-11377185D02*
X9383441Y-11577185D01*
X9383441Y-11386709D02*
X9402488Y-11377185D01*
X9402488Y-11377185D02*
X9440584Y-11377185D01*
X9440584Y-11377185D02*
X9459631Y-11386709D01*
X9459631Y-11386709D02*
X9469155Y-11396232D01*
X9469155Y-11396232D02*
X9478679Y-11415280D01*
X9478679Y-11415280D02*
X9478679Y-11472423D01*
X9478679Y-11472423D02*
X9469155Y-11491470D01*
X9469155Y-11491470D02*
X9459631Y-11500994D01*
X9459631Y-11500994D02*
X9440584Y-11510518D01*
X9440584Y-11510518D02*
X9402488Y-11510518D01*
X9402488Y-11510518D02*
X9383441Y-11500994D01*
X9592965Y-11510518D02*
X9573917Y-11500994D01*
X9573917Y-11500994D02*
X9564393Y-11481947D01*
X9564393Y-11481947D02*
X9564393Y-11310518D01*
X9754869Y-11510518D02*
X9754869Y-11405756D01*
X9754869Y-11405756D02*
X9745346Y-11386709D01*
X9745346Y-11386709D02*
X9726298Y-11377185D01*
X9726298Y-11377185D02*
X9688203Y-11377185D01*
X9688203Y-11377185D02*
X9669155Y-11386709D01*
X9754869Y-11500994D02*
X9735822Y-11510518D01*
X9735822Y-11510518D02*
X9688203Y-11510518D01*
X9688203Y-11510518D02*
X9669155Y-11500994D01*
X9669155Y-11500994D02*
X9659631Y-11481947D01*
X9659631Y-11481947D02*
X9659631Y-11462899D01*
X9659631Y-11462899D02*
X9669155Y-11443851D01*
X9669155Y-11443851D02*
X9688203Y-11434328D01*
X9688203Y-11434328D02*
X9735822Y-11434328D01*
X9735822Y-11434328D02*
X9754869Y-11424804D01*
X9821536Y-11377185D02*
X9897726Y-11377185D01*
X9850107Y-11310518D02*
X9850107Y-11481947D01*
X9850107Y-11481947D02*
X9859631Y-11500994D01*
X9859631Y-11500994D02*
X9878679Y-11510518D01*
X9878679Y-11510518D02*
X9897726Y-11510518D01*
X10040584Y-11500994D02*
X10021536Y-11510518D01*
X10021536Y-11510518D02*
X9983441Y-11510518D01*
X9983441Y-11510518D02*
X9964393Y-11500994D01*
X9964393Y-11500994D02*
X9954869Y-11481947D01*
X9954869Y-11481947D02*
X9954869Y-11405756D01*
X9954869Y-11405756D02*
X9964393Y-11386709D01*
X9964393Y-11386709D02*
X9983441Y-11377185D01*
X9983441Y-11377185D02*
X10021536Y-11377185D01*
X10021536Y-11377185D02*
X10040584Y-11386709D01*
X10040584Y-11386709D02*
X10050107Y-11405756D01*
X10050107Y-11405756D02*
X10050107Y-11424804D01*
X10050107Y-11424804D02*
X9954869Y-11443851D01*
X10221536Y-11510518D02*
X10221536Y-11310518D01*
X10221536Y-11500994D02*
X10202488Y-11510518D01*
X10202488Y-11510518D02*
X10164393Y-11510518D01*
X10164393Y-11510518D02*
X10145346Y-11500994D01*
X10145346Y-11500994D02*
X10135822Y-11491470D01*
X10135822Y-11491470D02*
X10126298Y-11472423D01*
X10126298Y-11472423D02*
X10126298Y-11415280D01*
X10126298Y-11415280D02*
X10135822Y-11396232D01*
X10135822Y-11396232D02*
X10145346Y-11386709D01*
X10145346Y-11386709D02*
X10164393Y-11377185D01*
X10164393Y-11377185D02*
X10202488Y-11377185D01*
X10202488Y-11377185D02*
X10221536Y-11386709D01*
X10297727Y-11586709D02*
X10307250Y-11577185D01*
X10307250Y-11577185D02*
X10326298Y-11548613D01*
X10326298Y-11548613D02*
X10335822Y-11529566D01*
X10335822Y-11529566D02*
X10345346Y-11500994D01*
X10345346Y-11500994D02*
X10354869Y-11453375D01*
X10354869Y-11453375D02*
X10354869Y-11415280D01*
X10354869Y-11415280D02*
X10345346Y-11367661D01*
X10345346Y-11367661D02*
X10335822Y-11339090D01*
X10335822Y-11339090D02*
X10326298Y-11320042D01*
X10326298Y-11320042D02*
X10307250Y-11291470D01*
X10307250Y-11291470D02*
X10297727Y-11281947D01*
X3335104Y-11778706D02*
X3335104Y-11637283D01*
X3193681Y-11637283D01*
X3193681Y-11778706D01*
X3335104Y-11778706D01*
X3697726Y-11667185D02*
X3697726Y-11800518D01*
X3650107Y-11590994D02*
X3602488Y-11733851D01*
X3602488Y-11733851D02*
X3726297Y-11733851D01*
X3802488Y-11781470D02*
X3812012Y-11790994D01*
X3812012Y-11790994D02*
X3802488Y-11800518D01*
X3802488Y-11800518D02*
X3792964Y-11790994D01*
X3792964Y-11790994D02*
X3802488Y-11781470D01*
X3802488Y-11781470D02*
X3802488Y-11800518D01*
X3888202Y-11619566D02*
X3897726Y-11610042D01*
X3897726Y-11610042D02*
X3916773Y-11600518D01*
X3916773Y-11600518D02*
X3964393Y-11600518D01*
X3964393Y-11600518D02*
X3983440Y-11610042D01*
X3983440Y-11610042D02*
X3992964Y-11619566D01*
X3992964Y-11619566D02*
X4002488Y-11638613D01*
X4002488Y-11638613D02*
X4002488Y-11657661D01*
X4002488Y-11657661D02*
X3992964Y-11686232D01*
X3992964Y-11686232D02*
X3878678Y-11800518D01*
X3878678Y-11800518D02*
X4002488Y-11800518D01*
X4126297Y-11600518D02*
X4145345Y-11600518D01*
X4145345Y-11600518D02*
X4164393Y-11610042D01*
X4164393Y-11610042D02*
X4173916Y-11619566D01*
X4173916Y-11619566D02*
X4183440Y-11638613D01*
X4183440Y-11638613D02*
X4192964Y-11676709D01*
X4192964Y-11676709D02*
X4192964Y-11724328D01*
X4192964Y-11724328D02*
X4183440Y-11762423D01*
X4183440Y-11762423D02*
X4173916Y-11781470D01*
X4173916Y-11781470D02*
X4164393Y-11790994D01*
X4164393Y-11790994D02*
X4145345Y-11800518D01*
X4145345Y-11800518D02*
X4126297Y-11800518D01*
X4126297Y-11800518D02*
X4107250Y-11790994D01*
X4107250Y-11790994D02*
X4097726Y-11781470D01*
X4097726Y-11781470D02*
X4088202Y-11762423D01*
X4088202Y-11762423D02*
X4078678Y-11724328D01*
X4078678Y-11724328D02*
X4078678Y-11676709D01*
X4078678Y-11676709D02*
X4088202Y-11638613D01*
X4088202Y-11638613D02*
X4097726Y-11619566D01*
X4097726Y-11619566D02*
X4107250Y-11610042D01*
X4107250Y-11610042D02*
X4126297Y-11600518D01*
X4316774Y-11600518D02*
X4335821Y-11600518D01*
X4335821Y-11600518D02*
X4354869Y-11610042D01*
X4354869Y-11610042D02*
X4364393Y-11619566D01*
X4364393Y-11619566D02*
X4373916Y-11638613D01*
X4373916Y-11638613D02*
X4383440Y-11676709D01*
X4383440Y-11676709D02*
X4383440Y-11724328D01*
X4383440Y-11724328D02*
X4373916Y-11762423D01*
X4373916Y-11762423D02*
X4364393Y-11781470D01*
X4364393Y-11781470D02*
X4354869Y-11790994D01*
X4354869Y-11790994D02*
X4335821Y-11800518D01*
X4335821Y-11800518D02*
X4316774Y-11800518D01*
X4316774Y-11800518D02*
X4297726Y-11790994D01*
X4297726Y-11790994D02*
X4288202Y-11781470D01*
X4288202Y-11781470D02*
X4278678Y-11762423D01*
X4278678Y-11762423D02*
X4269155Y-11724328D01*
X4269155Y-11724328D02*
X4269155Y-11676709D01*
X4269155Y-11676709D02*
X4278678Y-11638613D01*
X4278678Y-11638613D02*
X4288202Y-11619566D01*
X4288202Y-11619566D02*
X4297726Y-11610042D01*
X4297726Y-11610042D02*
X4316774Y-11600518D01*
X4469155Y-11800518D02*
X4469155Y-11667185D01*
X4469155Y-11686232D02*
X4478678Y-11676709D01*
X4478678Y-11676709D02*
X4497726Y-11667185D01*
X4497726Y-11667185D02*
X4526297Y-11667185D01*
X4526297Y-11667185D02*
X4545345Y-11676709D01*
X4545345Y-11676709D02*
X4554869Y-11695756D01*
X4554869Y-11695756D02*
X4554869Y-11800518D01*
X4554869Y-11695756D02*
X4564393Y-11676709D01*
X4564393Y-11676709D02*
X4583440Y-11667185D01*
X4583440Y-11667185D02*
X4612012Y-11667185D01*
X4612012Y-11667185D02*
X4631059Y-11676709D01*
X4631059Y-11676709D02*
X4640583Y-11695756D01*
X4640583Y-11695756D02*
X4640583Y-11800518D01*
X4735821Y-11800518D02*
X4735821Y-11667185D01*
X4735821Y-11686232D02*
X4745345Y-11676709D01*
X4745345Y-11676709D02*
X4764393Y-11667185D01*
X4764393Y-11667185D02*
X4792964Y-11667185D01*
X4792964Y-11667185D02*
X4812012Y-11676709D01*
X4812012Y-11676709D02*
X4821536Y-11695756D01*
X4821536Y-11695756D02*
X4821536Y-11800518D01*
X4821536Y-11695756D02*
X4831059Y-11676709D01*
X4831059Y-11676709D02*
X4850107Y-11667185D01*
X4850107Y-11667185D02*
X4878678Y-11667185D01*
X4878678Y-11667185D02*
X4897726Y-11676709D01*
X4897726Y-11676709D02*
X4907250Y-11695756D01*
X4907250Y-11695756D02*
X4907250Y-11800518D01*
X5297726Y-11590994D02*
X5126298Y-11848137D01*
X5554869Y-11600518D02*
X5573917Y-11600518D01*
X5573917Y-11600518D02*
X5592964Y-11610042D01*
X5592964Y-11610042D02*
X5602488Y-11619566D01*
X5602488Y-11619566D02*
X5612012Y-11638613D01*
X5612012Y-11638613D02*
X5621536Y-11676709D01*
X5621536Y-11676709D02*
X5621536Y-11724328D01*
X5621536Y-11724328D02*
X5612012Y-11762423D01*
X5612012Y-11762423D02*
X5602488Y-11781470D01*
X5602488Y-11781470D02*
X5592964Y-11790994D01*
X5592964Y-11790994D02*
X5573917Y-11800518D01*
X5573917Y-11800518D02*
X5554869Y-11800518D01*
X5554869Y-11800518D02*
X5535821Y-11790994D01*
X5535821Y-11790994D02*
X5526298Y-11781470D01*
X5526298Y-11781470D02*
X5516774Y-11762423D01*
X5516774Y-11762423D02*
X5507250Y-11724328D01*
X5507250Y-11724328D02*
X5507250Y-11676709D01*
X5507250Y-11676709D02*
X5516774Y-11638613D01*
X5516774Y-11638613D02*
X5526298Y-11619566D01*
X5526298Y-11619566D02*
X5535821Y-11610042D01*
X5535821Y-11610042D02*
X5554869Y-11600518D01*
X5707250Y-11781470D02*
X5716774Y-11790994D01*
X5716774Y-11790994D02*
X5707250Y-11800518D01*
X5707250Y-11800518D02*
X5697726Y-11790994D01*
X5697726Y-11790994D02*
X5707250Y-11781470D01*
X5707250Y-11781470D02*
X5707250Y-11800518D01*
X5907250Y-11800518D02*
X5792964Y-11800518D01*
X5850107Y-11800518D02*
X5850107Y-11600518D01*
X5850107Y-11600518D02*
X5831059Y-11629090D01*
X5831059Y-11629090D02*
X5812012Y-11648137D01*
X5812012Y-11648137D02*
X5792964Y-11657661D01*
X6078678Y-11600518D02*
X6040583Y-11600518D01*
X6040583Y-11600518D02*
X6021536Y-11610042D01*
X6021536Y-11610042D02*
X6012012Y-11619566D01*
X6012012Y-11619566D02*
X5992964Y-11648137D01*
X5992964Y-11648137D02*
X5983440Y-11686232D01*
X5983440Y-11686232D02*
X5983440Y-11762423D01*
X5983440Y-11762423D02*
X5992964Y-11781470D01*
X5992964Y-11781470D02*
X6002488Y-11790994D01*
X6002488Y-11790994D02*
X6021536Y-11800518D01*
X6021536Y-11800518D02*
X6059631Y-11800518D01*
X6059631Y-11800518D02*
X6078678Y-11790994D01*
X6078678Y-11790994D02*
X6088202Y-11781470D01*
X6088202Y-11781470D02*
X6097726Y-11762423D01*
X6097726Y-11762423D02*
X6097726Y-11714804D01*
X6097726Y-11714804D02*
X6088202Y-11695756D01*
X6088202Y-11695756D02*
X6078678Y-11686232D01*
X6078678Y-11686232D02*
X6059631Y-11676709D01*
X6059631Y-11676709D02*
X6021536Y-11676709D01*
X6021536Y-11676709D02*
X6002488Y-11686232D01*
X6002488Y-11686232D02*
X5992964Y-11695756D01*
X5992964Y-11695756D02*
X5983440Y-11714804D01*
X6278678Y-11600518D02*
X6183440Y-11600518D01*
X6183440Y-11600518D02*
X6173917Y-11695756D01*
X6173917Y-11695756D02*
X6183440Y-11686232D01*
X6183440Y-11686232D02*
X6202488Y-11676709D01*
X6202488Y-11676709D02*
X6250107Y-11676709D01*
X6250107Y-11676709D02*
X6269155Y-11686232D01*
X6269155Y-11686232D02*
X6278678Y-11695756D01*
X6278678Y-11695756D02*
X6288202Y-11714804D01*
X6288202Y-11714804D02*
X6288202Y-11762423D01*
X6288202Y-11762423D02*
X6278678Y-11781470D01*
X6278678Y-11781470D02*
X6269155Y-11790994D01*
X6269155Y-11790994D02*
X6250107Y-11800518D01*
X6250107Y-11800518D02*
X6202488Y-11800518D01*
X6202488Y-11800518D02*
X6183440Y-11790994D01*
X6183440Y-11790994D02*
X6173917Y-11781470D01*
X6459631Y-11667185D02*
X6459631Y-11800518D01*
X6412012Y-11590994D02*
X6364393Y-11733851D01*
X6364393Y-11733851D02*
X6488202Y-11733851D01*
X6554869Y-11600518D02*
X6554869Y-11638613D01*
X6631059Y-11600518D02*
X6631059Y-11638613D01*
X6926298Y-11876709D02*
X6916774Y-11867185D01*
X6916774Y-11867185D02*
X6897726Y-11838613D01*
X6897726Y-11838613D02*
X6888202Y-11819566D01*
X6888202Y-11819566D02*
X6878679Y-11790994D01*
X6878679Y-11790994D02*
X6869155Y-11743375D01*
X6869155Y-11743375D02*
X6869155Y-11705280D01*
X6869155Y-11705280D02*
X6878679Y-11657661D01*
X6878679Y-11657661D02*
X6888202Y-11629090D01*
X6888202Y-11629090D02*
X6897726Y-11610042D01*
X6897726Y-11610042D02*
X6916774Y-11581470D01*
X6916774Y-11581470D02*
X6926298Y-11571947D01*
X7040583Y-11600518D02*
X7059631Y-11600518D01*
X7059631Y-11600518D02*
X7078679Y-11610042D01*
X7078679Y-11610042D02*
X7088202Y-11619566D01*
X7088202Y-11619566D02*
X7097726Y-11638613D01*
X7097726Y-11638613D02*
X7107250Y-11676709D01*
X7107250Y-11676709D02*
X7107250Y-11724328D01*
X7107250Y-11724328D02*
X7097726Y-11762423D01*
X7097726Y-11762423D02*
X7088202Y-11781470D01*
X7088202Y-11781470D02*
X7078679Y-11790994D01*
X7078679Y-11790994D02*
X7059631Y-11800518D01*
X7059631Y-11800518D02*
X7040583Y-11800518D01*
X7040583Y-11800518D02*
X7021536Y-11790994D01*
X7021536Y-11790994D02*
X7012012Y-11781470D01*
X7012012Y-11781470D02*
X7002488Y-11762423D01*
X7002488Y-11762423D02*
X6992964Y-11724328D01*
X6992964Y-11724328D02*
X6992964Y-11676709D01*
X6992964Y-11676709D02*
X7002488Y-11638613D01*
X7002488Y-11638613D02*
X7012012Y-11619566D01*
X7012012Y-11619566D02*
X7021536Y-11610042D01*
X7021536Y-11610042D02*
X7040583Y-11600518D01*
X7345345Y-11800518D02*
X7345345Y-11600518D01*
X7431060Y-11800518D02*
X7431060Y-11695756D01*
X7431060Y-11695756D02*
X7421536Y-11676709D01*
X7421536Y-11676709D02*
X7402488Y-11667185D01*
X7402488Y-11667185D02*
X7373917Y-11667185D01*
X7373917Y-11667185D02*
X7354869Y-11676709D01*
X7354869Y-11676709D02*
X7345345Y-11686232D01*
X7554869Y-11800518D02*
X7535821Y-11790994D01*
X7535821Y-11790994D02*
X7526298Y-11781470D01*
X7526298Y-11781470D02*
X7516774Y-11762423D01*
X7516774Y-11762423D02*
X7516774Y-11705280D01*
X7516774Y-11705280D02*
X7526298Y-11686232D01*
X7526298Y-11686232D02*
X7535821Y-11676709D01*
X7535821Y-11676709D02*
X7554869Y-11667185D01*
X7554869Y-11667185D02*
X7583441Y-11667185D01*
X7583441Y-11667185D02*
X7602488Y-11676709D01*
X7602488Y-11676709D02*
X7612012Y-11686232D01*
X7612012Y-11686232D02*
X7621536Y-11705280D01*
X7621536Y-11705280D02*
X7621536Y-11762423D01*
X7621536Y-11762423D02*
X7612012Y-11781470D01*
X7612012Y-11781470D02*
X7602488Y-11790994D01*
X7602488Y-11790994D02*
X7583441Y-11800518D01*
X7583441Y-11800518D02*
X7554869Y-11800518D01*
X7735821Y-11800518D02*
X7716774Y-11790994D01*
X7716774Y-11790994D02*
X7707250Y-11771947D01*
X7707250Y-11771947D02*
X7707250Y-11600518D01*
X7888202Y-11790994D02*
X7869155Y-11800518D01*
X7869155Y-11800518D02*
X7831060Y-11800518D01*
X7831060Y-11800518D02*
X7812012Y-11790994D01*
X7812012Y-11790994D02*
X7802488Y-11771947D01*
X7802488Y-11771947D02*
X7802488Y-11695756D01*
X7802488Y-11695756D02*
X7812012Y-11676709D01*
X7812012Y-11676709D02*
X7831060Y-11667185D01*
X7831060Y-11667185D02*
X7869155Y-11667185D01*
X7869155Y-11667185D02*
X7888202Y-11676709D01*
X7888202Y-11676709D02*
X7897726Y-11695756D01*
X7897726Y-11695756D02*
X7897726Y-11714804D01*
X7897726Y-11714804D02*
X7802488Y-11733851D01*
X7973917Y-11790994D02*
X7992964Y-11800518D01*
X7992964Y-11800518D02*
X8031060Y-11800518D01*
X8031060Y-11800518D02*
X8050107Y-11790994D01*
X8050107Y-11790994D02*
X8059631Y-11771947D01*
X8059631Y-11771947D02*
X8059631Y-11762423D01*
X8059631Y-11762423D02*
X8050107Y-11743375D01*
X8050107Y-11743375D02*
X8031060Y-11733851D01*
X8031060Y-11733851D02*
X8002488Y-11733851D01*
X8002488Y-11733851D02*
X7983441Y-11724328D01*
X7983441Y-11724328D02*
X7973917Y-11705280D01*
X7973917Y-11705280D02*
X7973917Y-11695756D01*
X7973917Y-11695756D02*
X7983441Y-11676709D01*
X7983441Y-11676709D02*
X8002488Y-11667185D01*
X8002488Y-11667185D02*
X8031060Y-11667185D01*
X8031060Y-11667185D02*
X8050107Y-11676709D01*
X8297726Y-11724328D02*
X8450107Y-11724328D01*
X8373917Y-11800518D02*
X8373917Y-11648137D01*
X8783441Y-11667185D02*
X8783441Y-11800518D01*
X8735822Y-11590994D02*
X8688203Y-11733851D01*
X8688203Y-11733851D02*
X8812012Y-11733851D01*
X9031060Y-11790994D02*
X9050107Y-11800518D01*
X9050107Y-11800518D02*
X9088203Y-11800518D01*
X9088203Y-11800518D02*
X9107250Y-11790994D01*
X9107250Y-11790994D02*
X9116774Y-11771947D01*
X9116774Y-11771947D02*
X9116774Y-11762423D01*
X9116774Y-11762423D02*
X9107250Y-11743375D01*
X9107250Y-11743375D02*
X9088203Y-11733851D01*
X9088203Y-11733851D02*
X9059631Y-11733851D01*
X9059631Y-11733851D02*
X9040584Y-11724328D01*
X9040584Y-11724328D02*
X9031060Y-11705280D01*
X9031060Y-11705280D02*
X9031060Y-11695756D01*
X9031060Y-11695756D02*
X9040584Y-11676709D01*
X9040584Y-11676709D02*
X9059631Y-11667185D01*
X9059631Y-11667185D02*
X9088203Y-11667185D01*
X9088203Y-11667185D02*
X9107250Y-11676709D01*
X9231060Y-11800518D02*
X9212012Y-11790994D01*
X9212012Y-11790994D02*
X9202488Y-11771947D01*
X9202488Y-11771947D02*
X9202488Y-11600518D01*
X9335822Y-11800518D02*
X9316774Y-11790994D01*
X9316774Y-11790994D02*
X9307250Y-11781470D01*
X9307250Y-11781470D02*
X9297727Y-11762423D01*
X9297727Y-11762423D02*
X9297727Y-11705280D01*
X9297727Y-11705280D02*
X9307250Y-11686232D01*
X9307250Y-11686232D02*
X9316774Y-11676709D01*
X9316774Y-11676709D02*
X9335822Y-11667185D01*
X9335822Y-11667185D02*
X9364393Y-11667185D01*
X9364393Y-11667185D02*
X9383441Y-11676709D01*
X9383441Y-11676709D02*
X9392965Y-11686232D01*
X9392965Y-11686232D02*
X9402488Y-11705280D01*
X9402488Y-11705280D02*
X9402488Y-11762423D01*
X9402488Y-11762423D02*
X9392965Y-11781470D01*
X9392965Y-11781470D02*
X9383441Y-11790994D01*
X9383441Y-11790994D02*
X9364393Y-11800518D01*
X9364393Y-11800518D02*
X9335822Y-11800518D01*
X9459631Y-11667185D02*
X9535822Y-11667185D01*
X9488203Y-11600518D02*
X9488203Y-11771947D01*
X9488203Y-11771947D02*
X9497727Y-11790994D01*
X9497727Y-11790994D02*
X9516774Y-11800518D01*
X9516774Y-11800518D02*
X9535822Y-11800518D01*
X9592965Y-11790994D02*
X9612012Y-11800518D01*
X9612012Y-11800518D02*
X9650107Y-11800518D01*
X9650107Y-11800518D02*
X9669155Y-11790994D01*
X9669155Y-11790994D02*
X9678679Y-11771947D01*
X9678679Y-11771947D02*
X9678679Y-11762423D01*
X9678679Y-11762423D02*
X9669155Y-11743375D01*
X9669155Y-11743375D02*
X9650107Y-11733851D01*
X9650107Y-11733851D02*
X9621536Y-11733851D01*
X9621536Y-11733851D02*
X9602488Y-11724328D01*
X9602488Y-11724328D02*
X9592965Y-11705280D01*
X9592965Y-11705280D02*
X9592965Y-11695756D01*
X9592965Y-11695756D02*
X9602488Y-11676709D01*
X9602488Y-11676709D02*
X9621536Y-11667185D01*
X9621536Y-11667185D02*
X9650107Y-11667185D01*
X9650107Y-11667185D02*
X9669155Y-11676709D01*
X9745346Y-11876709D02*
X9754869Y-11867185D01*
X9754869Y-11867185D02*
X9773917Y-11838613D01*
X9773917Y-11838613D02*
X9783441Y-11819566D01*
X9783441Y-11819566D02*
X9792965Y-11790994D01*
X9792965Y-11790994D02*
X9802488Y-11743375D01*
X9802488Y-11743375D02*
X9802488Y-11705280D01*
X9802488Y-11705280D02*
X9792965Y-11657661D01*
X9792965Y-11657661D02*
X9783441Y-11629090D01*
X9783441Y-11629090D02*
X9773917Y-11610042D01*
X9773917Y-11610042D02*
X9754869Y-11581470D01*
X9754869Y-11581470D02*
X9745346Y-11571947D01*
X10107250Y-11876709D02*
X10097727Y-11867185D01*
X10097727Y-11867185D02*
X10078679Y-11838613D01*
X10078679Y-11838613D02*
X10069155Y-11819566D01*
X10069155Y-11819566D02*
X10059631Y-11790994D01*
X10059631Y-11790994D02*
X10050108Y-11743375D01*
X10050108Y-11743375D02*
X10050108Y-11705280D01*
X10050108Y-11705280D02*
X10059631Y-11657661D01*
X10059631Y-11657661D02*
X10069155Y-11629090D01*
X10069155Y-11629090D02*
X10078679Y-11610042D01*
X10078679Y-11610042D02*
X10097727Y-11581470D01*
X10097727Y-11581470D02*
X10107250Y-11571947D01*
X10183441Y-11667185D02*
X10183441Y-11800518D01*
X10183441Y-11686232D02*
X10192965Y-11676709D01*
X10192965Y-11676709D02*
X10212012Y-11667185D01*
X10212012Y-11667185D02*
X10240584Y-11667185D01*
X10240584Y-11667185D02*
X10259631Y-11676709D01*
X10259631Y-11676709D02*
X10269155Y-11695756D01*
X10269155Y-11695756D02*
X10269155Y-11800518D01*
X10392965Y-11800518D02*
X10373917Y-11790994D01*
X10373917Y-11790994D02*
X10364393Y-11781470D01*
X10364393Y-11781470D02*
X10354869Y-11762423D01*
X10354869Y-11762423D02*
X10354869Y-11705280D01*
X10354869Y-11705280D02*
X10364393Y-11686232D01*
X10364393Y-11686232D02*
X10373917Y-11676709D01*
X10373917Y-11676709D02*
X10392965Y-11667185D01*
X10392965Y-11667185D02*
X10421536Y-11667185D01*
X10421536Y-11667185D02*
X10440584Y-11676709D01*
X10440584Y-11676709D02*
X10450108Y-11686232D01*
X10450108Y-11686232D02*
X10459631Y-11705280D01*
X10459631Y-11705280D02*
X10459631Y-11762423D01*
X10459631Y-11762423D02*
X10450108Y-11781470D01*
X10450108Y-11781470D02*
X10440584Y-11790994D01*
X10440584Y-11790994D02*
X10421536Y-11800518D01*
X10421536Y-11800518D02*
X10392965Y-11800518D01*
X10516774Y-11667185D02*
X10592965Y-11667185D01*
X10545346Y-11600518D02*
X10545346Y-11771947D01*
X10545346Y-11771947D02*
X10554869Y-11790994D01*
X10554869Y-11790994D02*
X10573917Y-11800518D01*
X10573917Y-11800518D02*
X10592965Y-11800518D01*
X10812012Y-11667185D02*
X10812012Y-11867185D01*
X10812012Y-11676709D02*
X10831060Y-11667185D01*
X10831060Y-11667185D02*
X10869155Y-11667185D01*
X10869155Y-11667185D02*
X10888203Y-11676709D01*
X10888203Y-11676709D02*
X10897727Y-11686232D01*
X10897727Y-11686232D02*
X10907250Y-11705280D01*
X10907250Y-11705280D02*
X10907250Y-11762423D01*
X10907250Y-11762423D02*
X10897727Y-11781470D01*
X10897727Y-11781470D02*
X10888203Y-11790994D01*
X10888203Y-11790994D02*
X10869155Y-11800518D01*
X10869155Y-11800518D02*
X10831060Y-11800518D01*
X10831060Y-11800518D02*
X10812012Y-11790994D01*
X11021536Y-11800518D02*
X11002489Y-11790994D01*
X11002489Y-11790994D02*
X10992965Y-11771947D01*
X10992965Y-11771947D02*
X10992965Y-11600518D01*
X11183441Y-11800518D02*
X11183441Y-11695756D01*
X11183441Y-11695756D02*
X11173917Y-11676709D01*
X11173917Y-11676709D02*
X11154870Y-11667185D01*
X11154870Y-11667185D02*
X11116774Y-11667185D01*
X11116774Y-11667185D02*
X11097727Y-11676709D01*
X11183441Y-11790994D02*
X11164393Y-11800518D01*
X11164393Y-11800518D02*
X11116774Y-11800518D01*
X11116774Y-11800518D02*
X11097727Y-11790994D01*
X11097727Y-11790994D02*
X11088203Y-11771947D01*
X11088203Y-11771947D02*
X11088203Y-11752899D01*
X11088203Y-11752899D02*
X11097727Y-11733851D01*
X11097727Y-11733851D02*
X11116774Y-11724328D01*
X11116774Y-11724328D02*
X11164393Y-11724328D01*
X11164393Y-11724328D02*
X11183441Y-11714804D01*
X11250108Y-11667185D02*
X11326298Y-11667185D01*
X11278679Y-11600518D02*
X11278679Y-11771947D01*
X11278679Y-11771947D02*
X11288203Y-11790994D01*
X11288203Y-11790994D02*
X11307250Y-11800518D01*
X11307250Y-11800518D02*
X11326298Y-11800518D01*
X11469155Y-11790994D02*
X11450108Y-11800518D01*
X11450108Y-11800518D02*
X11412012Y-11800518D01*
X11412012Y-11800518D02*
X11392965Y-11790994D01*
X11392965Y-11790994D02*
X11383441Y-11771947D01*
X11383441Y-11771947D02*
X11383441Y-11695756D01*
X11383441Y-11695756D02*
X11392965Y-11676709D01*
X11392965Y-11676709D02*
X11412012Y-11667185D01*
X11412012Y-11667185D02*
X11450108Y-11667185D01*
X11450108Y-11667185D02*
X11469155Y-11676709D01*
X11469155Y-11676709D02*
X11478679Y-11695756D01*
X11478679Y-11695756D02*
X11478679Y-11714804D01*
X11478679Y-11714804D02*
X11383441Y-11733851D01*
X11650108Y-11800518D02*
X11650108Y-11600518D01*
X11650108Y-11790994D02*
X11631060Y-11800518D01*
X11631060Y-11800518D02*
X11592965Y-11800518D01*
X11592965Y-11800518D02*
X11573917Y-11790994D01*
X11573917Y-11790994D02*
X11564393Y-11781470D01*
X11564393Y-11781470D02*
X11554869Y-11762423D01*
X11554869Y-11762423D02*
X11554869Y-11705280D01*
X11554869Y-11705280D02*
X11564393Y-11686232D01*
X11564393Y-11686232D02*
X11573917Y-11676709D01*
X11573917Y-11676709D02*
X11592965Y-11667185D01*
X11592965Y-11667185D02*
X11631060Y-11667185D01*
X11631060Y-11667185D02*
X11650108Y-11676709D01*
X11726298Y-11876709D02*
X11735822Y-11867185D01*
X11735822Y-11867185D02*
X11754869Y-11838613D01*
X11754869Y-11838613D02*
X11764393Y-11819566D01*
X11764393Y-11819566D02*
X11773917Y-11790994D01*
X11773917Y-11790994D02*
X11783441Y-11743375D01*
X11783441Y-11743375D02*
X11783441Y-11705280D01*
X11783441Y-11705280D02*
X11773917Y-11657661D01*
X11773917Y-11657661D02*
X11764393Y-11629090D01*
X11764393Y-11629090D02*
X11754869Y-11610042D01*
X11754869Y-11610042D02*
X11735822Y-11581470D01*
X11735822Y-11581470D02*
X11726298Y-11571947D01*
X3264393Y-12127994D02*
X3364393Y-12027994D01*
X3264393Y-11927994D01*
X3164393Y-12027994D01*
X3264393Y-12127994D01*
X3697726Y-11987185D02*
X3697726Y-12120518D01*
X3650107Y-11910994D02*
X3602488Y-12053851D01*
X3602488Y-12053851D02*
X3726297Y-12053851D01*
X3802488Y-12101470D02*
X3812012Y-12110994D01*
X3812012Y-12110994D02*
X3802488Y-12120518D01*
X3802488Y-12120518D02*
X3792964Y-12110994D01*
X3792964Y-12110994D02*
X3802488Y-12101470D01*
X3802488Y-12101470D02*
X3802488Y-12120518D01*
X3907250Y-12120518D02*
X3945345Y-12120518D01*
X3945345Y-12120518D02*
X3964393Y-12110994D01*
X3964393Y-12110994D02*
X3973916Y-12101470D01*
X3973916Y-12101470D02*
X3992964Y-12072899D01*
X3992964Y-12072899D02*
X4002488Y-12034804D01*
X4002488Y-12034804D02*
X4002488Y-11958613D01*
X4002488Y-11958613D02*
X3992964Y-11939566D01*
X3992964Y-11939566D02*
X3983440Y-11930042D01*
X3983440Y-11930042D02*
X3964393Y-11920518D01*
X3964393Y-11920518D02*
X3926297Y-11920518D01*
X3926297Y-11920518D02*
X3907250Y-11930042D01*
X3907250Y-11930042D02*
X3897726Y-11939566D01*
X3897726Y-11939566D02*
X3888202Y-11958613D01*
X3888202Y-11958613D02*
X3888202Y-12006232D01*
X3888202Y-12006232D02*
X3897726Y-12025280D01*
X3897726Y-12025280D02*
X3907250Y-12034804D01*
X3907250Y-12034804D02*
X3926297Y-12044328D01*
X3926297Y-12044328D02*
X3964393Y-12044328D01*
X3964393Y-12044328D02*
X3983440Y-12034804D01*
X3983440Y-12034804D02*
X3992964Y-12025280D01*
X3992964Y-12025280D02*
X4002488Y-12006232D01*
X4126297Y-11920518D02*
X4145345Y-11920518D01*
X4145345Y-11920518D02*
X4164393Y-11930042D01*
X4164393Y-11930042D02*
X4173916Y-11939566D01*
X4173916Y-11939566D02*
X4183440Y-11958613D01*
X4183440Y-11958613D02*
X4192964Y-11996709D01*
X4192964Y-11996709D02*
X4192964Y-12044328D01*
X4192964Y-12044328D02*
X4183440Y-12082423D01*
X4183440Y-12082423D02*
X4173916Y-12101470D01*
X4173916Y-12101470D02*
X4164393Y-12110994D01*
X4164393Y-12110994D02*
X4145345Y-12120518D01*
X4145345Y-12120518D02*
X4126297Y-12120518D01*
X4126297Y-12120518D02*
X4107250Y-12110994D01*
X4107250Y-12110994D02*
X4097726Y-12101470D01*
X4097726Y-12101470D02*
X4088202Y-12082423D01*
X4088202Y-12082423D02*
X4078678Y-12044328D01*
X4078678Y-12044328D02*
X4078678Y-11996709D01*
X4078678Y-11996709D02*
X4088202Y-11958613D01*
X4088202Y-11958613D02*
X4097726Y-11939566D01*
X4097726Y-11939566D02*
X4107250Y-11930042D01*
X4107250Y-11930042D02*
X4126297Y-11920518D01*
X4316774Y-11920518D02*
X4335821Y-11920518D01*
X4335821Y-11920518D02*
X4354869Y-11930042D01*
X4354869Y-11930042D02*
X4364393Y-11939566D01*
X4364393Y-11939566D02*
X4373916Y-11958613D01*
X4373916Y-11958613D02*
X4383440Y-11996709D01*
X4383440Y-11996709D02*
X4383440Y-12044328D01*
X4383440Y-12044328D02*
X4373916Y-12082423D01*
X4373916Y-12082423D02*
X4364393Y-12101470D01*
X4364393Y-12101470D02*
X4354869Y-12110994D01*
X4354869Y-12110994D02*
X4335821Y-12120518D01*
X4335821Y-12120518D02*
X4316774Y-12120518D01*
X4316774Y-12120518D02*
X4297726Y-12110994D01*
X4297726Y-12110994D02*
X4288202Y-12101470D01*
X4288202Y-12101470D02*
X4278678Y-12082423D01*
X4278678Y-12082423D02*
X4269155Y-12044328D01*
X4269155Y-12044328D02*
X4269155Y-11996709D01*
X4269155Y-11996709D02*
X4278678Y-11958613D01*
X4278678Y-11958613D02*
X4288202Y-11939566D01*
X4288202Y-11939566D02*
X4297726Y-11930042D01*
X4297726Y-11930042D02*
X4316774Y-11920518D01*
X4469155Y-12120518D02*
X4469155Y-11987185D01*
X4469155Y-12006232D02*
X4478678Y-11996709D01*
X4478678Y-11996709D02*
X4497726Y-11987185D01*
X4497726Y-11987185D02*
X4526297Y-11987185D01*
X4526297Y-11987185D02*
X4545345Y-11996709D01*
X4545345Y-11996709D02*
X4554869Y-12015756D01*
X4554869Y-12015756D02*
X4554869Y-12120518D01*
X4554869Y-12015756D02*
X4564393Y-11996709D01*
X4564393Y-11996709D02*
X4583440Y-11987185D01*
X4583440Y-11987185D02*
X4612012Y-11987185D01*
X4612012Y-11987185D02*
X4631059Y-11996709D01*
X4631059Y-11996709D02*
X4640583Y-12015756D01*
X4640583Y-12015756D02*
X4640583Y-12120518D01*
X4735821Y-12120518D02*
X4735821Y-11987185D01*
X4735821Y-12006232D02*
X4745345Y-11996709D01*
X4745345Y-11996709D02*
X4764393Y-11987185D01*
X4764393Y-11987185D02*
X4792964Y-11987185D01*
X4792964Y-11987185D02*
X4812012Y-11996709D01*
X4812012Y-11996709D02*
X4821536Y-12015756D01*
X4821536Y-12015756D02*
X4821536Y-12120518D01*
X4821536Y-12015756D02*
X4831059Y-11996709D01*
X4831059Y-11996709D02*
X4850107Y-11987185D01*
X4850107Y-11987185D02*
X4878678Y-11987185D01*
X4878678Y-11987185D02*
X4897726Y-11996709D01*
X4897726Y-11996709D02*
X4907250Y-12015756D01*
X4907250Y-12015756D02*
X4907250Y-12120518D01*
X5297726Y-11910994D02*
X5126298Y-12168137D01*
X5554869Y-11920518D02*
X5573917Y-11920518D01*
X5573917Y-11920518D02*
X5592964Y-11930042D01*
X5592964Y-11930042D02*
X5602488Y-11939566D01*
X5602488Y-11939566D02*
X5612012Y-11958613D01*
X5612012Y-11958613D02*
X5621536Y-11996709D01*
X5621536Y-11996709D02*
X5621536Y-12044328D01*
X5621536Y-12044328D02*
X5612012Y-12082423D01*
X5612012Y-12082423D02*
X5602488Y-12101470D01*
X5602488Y-12101470D02*
X5592964Y-12110994D01*
X5592964Y-12110994D02*
X5573917Y-12120518D01*
X5573917Y-12120518D02*
X5554869Y-12120518D01*
X5554869Y-12120518D02*
X5535821Y-12110994D01*
X5535821Y-12110994D02*
X5526298Y-12101470D01*
X5526298Y-12101470D02*
X5516774Y-12082423D01*
X5516774Y-12082423D02*
X5507250Y-12044328D01*
X5507250Y-12044328D02*
X5507250Y-11996709D01*
X5507250Y-11996709D02*
X5516774Y-11958613D01*
X5516774Y-11958613D02*
X5526298Y-11939566D01*
X5526298Y-11939566D02*
X5535821Y-11930042D01*
X5535821Y-11930042D02*
X5554869Y-11920518D01*
X5707250Y-12101470D02*
X5716774Y-12110994D01*
X5716774Y-12110994D02*
X5707250Y-12120518D01*
X5707250Y-12120518D02*
X5697726Y-12110994D01*
X5697726Y-12110994D02*
X5707250Y-12101470D01*
X5707250Y-12101470D02*
X5707250Y-12120518D01*
X5907250Y-12120518D02*
X5792964Y-12120518D01*
X5850107Y-12120518D02*
X5850107Y-11920518D01*
X5850107Y-11920518D02*
X5831059Y-11949090D01*
X5831059Y-11949090D02*
X5812012Y-11968137D01*
X5812012Y-11968137D02*
X5792964Y-11977661D01*
X6002488Y-12120518D02*
X6040583Y-12120518D01*
X6040583Y-12120518D02*
X6059631Y-12110994D01*
X6059631Y-12110994D02*
X6069155Y-12101470D01*
X6069155Y-12101470D02*
X6088202Y-12072899D01*
X6088202Y-12072899D02*
X6097726Y-12034804D01*
X6097726Y-12034804D02*
X6097726Y-11958613D01*
X6097726Y-11958613D02*
X6088202Y-11939566D01*
X6088202Y-11939566D02*
X6078678Y-11930042D01*
X6078678Y-11930042D02*
X6059631Y-11920518D01*
X6059631Y-11920518D02*
X6021536Y-11920518D01*
X6021536Y-11920518D02*
X6002488Y-11930042D01*
X6002488Y-11930042D02*
X5992964Y-11939566D01*
X5992964Y-11939566D02*
X5983440Y-11958613D01*
X5983440Y-11958613D02*
X5983440Y-12006232D01*
X5983440Y-12006232D02*
X5992964Y-12025280D01*
X5992964Y-12025280D02*
X6002488Y-12034804D01*
X6002488Y-12034804D02*
X6021536Y-12044328D01*
X6021536Y-12044328D02*
X6059631Y-12044328D01*
X6059631Y-12044328D02*
X6078678Y-12034804D01*
X6078678Y-12034804D02*
X6088202Y-12025280D01*
X6088202Y-12025280D02*
X6097726Y-12006232D01*
X6173917Y-11939566D02*
X6183440Y-11930042D01*
X6183440Y-11930042D02*
X6202488Y-11920518D01*
X6202488Y-11920518D02*
X6250107Y-11920518D01*
X6250107Y-11920518D02*
X6269155Y-11930042D01*
X6269155Y-11930042D02*
X6278678Y-11939566D01*
X6278678Y-11939566D02*
X6288202Y-11958613D01*
X6288202Y-11958613D02*
X6288202Y-11977661D01*
X6288202Y-11977661D02*
X6278678Y-12006232D01*
X6278678Y-12006232D02*
X6164393Y-12120518D01*
X6164393Y-12120518D02*
X6288202Y-12120518D01*
X6383440Y-12120518D02*
X6421536Y-12120518D01*
X6421536Y-12120518D02*
X6440583Y-12110994D01*
X6440583Y-12110994D02*
X6450107Y-12101470D01*
X6450107Y-12101470D02*
X6469155Y-12072899D01*
X6469155Y-12072899D02*
X6478678Y-12034804D01*
X6478678Y-12034804D02*
X6478678Y-11958613D01*
X6478678Y-11958613D02*
X6469155Y-11939566D01*
X6469155Y-11939566D02*
X6459631Y-11930042D01*
X6459631Y-11930042D02*
X6440583Y-11920518D01*
X6440583Y-11920518D02*
X6402488Y-11920518D01*
X6402488Y-11920518D02*
X6383440Y-11930042D01*
X6383440Y-11930042D02*
X6373917Y-11939566D01*
X6373917Y-11939566D02*
X6364393Y-11958613D01*
X6364393Y-11958613D02*
X6364393Y-12006232D01*
X6364393Y-12006232D02*
X6373917Y-12025280D01*
X6373917Y-12025280D02*
X6383440Y-12034804D01*
X6383440Y-12034804D02*
X6402488Y-12044328D01*
X6402488Y-12044328D02*
X6440583Y-12044328D01*
X6440583Y-12044328D02*
X6459631Y-12034804D01*
X6459631Y-12034804D02*
X6469155Y-12025280D01*
X6469155Y-12025280D02*
X6478678Y-12006232D01*
X6554869Y-11920518D02*
X6554869Y-11958613D01*
X6631059Y-11920518D02*
X6631059Y-11958613D01*
X6926298Y-12196709D02*
X6916774Y-12187185D01*
X6916774Y-12187185D02*
X6897726Y-12158613D01*
X6897726Y-12158613D02*
X6888202Y-12139566D01*
X6888202Y-12139566D02*
X6878679Y-12110994D01*
X6878679Y-12110994D02*
X6869155Y-12063375D01*
X6869155Y-12063375D02*
X6869155Y-12025280D01*
X6869155Y-12025280D02*
X6878679Y-11977661D01*
X6878679Y-11977661D02*
X6888202Y-11949090D01*
X6888202Y-11949090D02*
X6897726Y-11930042D01*
X6897726Y-11930042D02*
X6916774Y-11901470D01*
X6916774Y-11901470D02*
X6926298Y-11891947D01*
X7031059Y-12006232D02*
X7012012Y-11996709D01*
X7012012Y-11996709D02*
X7002488Y-11987185D01*
X7002488Y-11987185D02*
X6992964Y-11968137D01*
X6992964Y-11968137D02*
X6992964Y-11958613D01*
X6992964Y-11958613D02*
X7002488Y-11939566D01*
X7002488Y-11939566D02*
X7012012Y-11930042D01*
X7012012Y-11930042D02*
X7031059Y-11920518D01*
X7031059Y-11920518D02*
X7069155Y-11920518D01*
X7069155Y-11920518D02*
X7088202Y-11930042D01*
X7088202Y-11930042D02*
X7097726Y-11939566D01*
X7097726Y-11939566D02*
X7107250Y-11958613D01*
X7107250Y-11958613D02*
X7107250Y-11968137D01*
X7107250Y-11968137D02*
X7097726Y-11987185D01*
X7097726Y-11987185D02*
X7088202Y-11996709D01*
X7088202Y-11996709D02*
X7069155Y-12006232D01*
X7069155Y-12006232D02*
X7031059Y-12006232D01*
X7031059Y-12006232D02*
X7012012Y-12015756D01*
X7012012Y-12015756D02*
X7002488Y-12025280D01*
X7002488Y-12025280D02*
X6992964Y-12044328D01*
X6992964Y-12044328D02*
X6992964Y-12082423D01*
X6992964Y-12082423D02*
X7002488Y-12101470D01*
X7002488Y-12101470D02*
X7012012Y-12110994D01*
X7012012Y-12110994D02*
X7031059Y-12120518D01*
X7031059Y-12120518D02*
X7069155Y-12120518D01*
X7069155Y-12120518D02*
X7088202Y-12110994D01*
X7088202Y-12110994D02*
X7097726Y-12101470D01*
X7097726Y-12101470D02*
X7107250Y-12082423D01*
X7107250Y-12082423D02*
X7107250Y-12044328D01*
X7107250Y-12044328D02*
X7097726Y-12025280D01*
X7097726Y-12025280D02*
X7088202Y-12015756D01*
X7088202Y-12015756D02*
X7069155Y-12006232D01*
X7345345Y-12120518D02*
X7345345Y-11920518D01*
X7431060Y-12120518D02*
X7431060Y-12015756D01*
X7431060Y-12015756D02*
X7421536Y-11996709D01*
X7421536Y-11996709D02*
X7402488Y-11987185D01*
X7402488Y-11987185D02*
X7373917Y-11987185D01*
X7373917Y-11987185D02*
X7354869Y-11996709D01*
X7354869Y-11996709D02*
X7345345Y-12006232D01*
X7554869Y-12120518D02*
X7535821Y-12110994D01*
X7535821Y-12110994D02*
X7526298Y-12101470D01*
X7526298Y-12101470D02*
X7516774Y-12082423D01*
X7516774Y-12082423D02*
X7516774Y-12025280D01*
X7516774Y-12025280D02*
X7526298Y-12006232D01*
X7526298Y-12006232D02*
X7535821Y-11996709D01*
X7535821Y-11996709D02*
X7554869Y-11987185D01*
X7554869Y-11987185D02*
X7583441Y-11987185D01*
X7583441Y-11987185D02*
X7602488Y-11996709D01*
X7602488Y-11996709D02*
X7612012Y-12006232D01*
X7612012Y-12006232D02*
X7621536Y-12025280D01*
X7621536Y-12025280D02*
X7621536Y-12082423D01*
X7621536Y-12082423D02*
X7612012Y-12101470D01*
X7612012Y-12101470D02*
X7602488Y-12110994D01*
X7602488Y-12110994D02*
X7583441Y-12120518D01*
X7583441Y-12120518D02*
X7554869Y-12120518D01*
X7735821Y-12120518D02*
X7716774Y-12110994D01*
X7716774Y-12110994D02*
X7707250Y-12091947D01*
X7707250Y-12091947D02*
X7707250Y-11920518D01*
X7888202Y-12110994D02*
X7869155Y-12120518D01*
X7869155Y-12120518D02*
X7831060Y-12120518D01*
X7831060Y-12120518D02*
X7812012Y-12110994D01*
X7812012Y-12110994D02*
X7802488Y-12091947D01*
X7802488Y-12091947D02*
X7802488Y-12015756D01*
X7802488Y-12015756D02*
X7812012Y-11996709D01*
X7812012Y-11996709D02*
X7831060Y-11987185D01*
X7831060Y-11987185D02*
X7869155Y-11987185D01*
X7869155Y-11987185D02*
X7888202Y-11996709D01*
X7888202Y-11996709D02*
X7897726Y-12015756D01*
X7897726Y-12015756D02*
X7897726Y-12034804D01*
X7897726Y-12034804D02*
X7802488Y-12053851D01*
X7973917Y-12110994D02*
X7992964Y-12120518D01*
X7992964Y-12120518D02*
X8031060Y-12120518D01*
X8031060Y-12120518D02*
X8050107Y-12110994D01*
X8050107Y-12110994D02*
X8059631Y-12091947D01*
X8059631Y-12091947D02*
X8059631Y-12082423D01*
X8059631Y-12082423D02*
X8050107Y-12063375D01*
X8050107Y-12063375D02*
X8031060Y-12053851D01*
X8031060Y-12053851D02*
X8002488Y-12053851D01*
X8002488Y-12053851D02*
X7983441Y-12044328D01*
X7983441Y-12044328D02*
X7973917Y-12025280D01*
X7973917Y-12025280D02*
X7973917Y-12015756D01*
X7973917Y-12015756D02*
X7983441Y-11996709D01*
X7983441Y-11996709D02*
X8002488Y-11987185D01*
X8002488Y-11987185D02*
X8031060Y-11987185D01*
X8031060Y-11987185D02*
X8050107Y-11996709D01*
X8126298Y-12196709D02*
X8135822Y-12187185D01*
X8135822Y-12187185D02*
X8154869Y-12158613D01*
X8154869Y-12158613D02*
X8164393Y-12139566D01*
X8164393Y-12139566D02*
X8173917Y-12110994D01*
X8173917Y-12110994D02*
X8183441Y-12063375D01*
X8183441Y-12063375D02*
X8183441Y-12025280D01*
X8183441Y-12025280D02*
X8173917Y-11977661D01*
X8173917Y-11977661D02*
X8164393Y-11949090D01*
X8164393Y-11949090D02*
X8154869Y-11930042D01*
X8154869Y-11930042D02*
X8135822Y-11901470D01*
X8135822Y-11901470D02*
X8126298Y-11891947D01*
X8488203Y-12196709D02*
X8478679Y-12187185D01*
X8478679Y-12187185D02*
X8459631Y-12158613D01*
X8459631Y-12158613D02*
X8450107Y-12139566D01*
X8450107Y-12139566D02*
X8440584Y-12110994D01*
X8440584Y-12110994D02*
X8431060Y-12063375D01*
X8431060Y-12063375D02*
X8431060Y-12025280D01*
X8431060Y-12025280D02*
X8440584Y-11977661D01*
X8440584Y-11977661D02*
X8450107Y-11949090D01*
X8450107Y-11949090D02*
X8459631Y-11930042D01*
X8459631Y-11930042D02*
X8478679Y-11901470D01*
X8478679Y-11901470D02*
X8488203Y-11891947D01*
X8564393Y-11987185D02*
X8564393Y-12120518D01*
X8564393Y-12006232D02*
X8573917Y-11996709D01*
X8573917Y-11996709D02*
X8592964Y-11987185D01*
X8592964Y-11987185D02*
X8621536Y-11987185D01*
X8621536Y-11987185D02*
X8640584Y-11996709D01*
X8640584Y-11996709D02*
X8650107Y-12015756D01*
X8650107Y-12015756D02*
X8650107Y-12120518D01*
X8773917Y-12120518D02*
X8754869Y-12110994D01*
X8754869Y-12110994D02*
X8745345Y-12101470D01*
X8745345Y-12101470D02*
X8735822Y-12082423D01*
X8735822Y-12082423D02*
X8735822Y-12025280D01*
X8735822Y-12025280D02*
X8745345Y-12006232D01*
X8745345Y-12006232D02*
X8754869Y-11996709D01*
X8754869Y-11996709D02*
X8773917Y-11987185D01*
X8773917Y-11987185D02*
X8802488Y-11987185D01*
X8802488Y-11987185D02*
X8821536Y-11996709D01*
X8821536Y-11996709D02*
X8831060Y-12006232D01*
X8831060Y-12006232D02*
X8840584Y-12025280D01*
X8840584Y-12025280D02*
X8840584Y-12082423D01*
X8840584Y-12082423D02*
X8831060Y-12101470D01*
X8831060Y-12101470D02*
X8821536Y-12110994D01*
X8821536Y-12110994D02*
X8802488Y-12120518D01*
X8802488Y-12120518D02*
X8773917Y-12120518D01*
X8897726Y-11987185D02*
X8973917Y-11987185D01*
X8926298Y-11920518D02*
X8926298Y-12091947D01*
X8926298Y-12091947D02*
X8935822Y-12110994D01*
X8935822Y-12110994D02*
X8954869Y-12120518D01*
X8954869Y-12120518D02*
X8973917Y-12120518D01*
X9192965Y-11987185D02*
X9192965Y-12187185D01*
X9192965Y-11996709D02*
X9212012Y-11987185D01*
X9212012Y-11987185D02*
X9250107Y-11987185D01*
X9250107Y-11987185D02*
X9269155Y-11996709D01*
X9269155Y-11996709D02*
X9278679Y-12006232D01*
X9278679Y-12006232D02*
X9288203Y-12025280D01*
X9288203Y-12025280D02*
X9288203Y-12082423D01*
X9288203Y-12082423D02*
X9278679Y-12101470D01*
X9278679Y-12101470D02*
X9269155Y-12110994D01*
X9269155Y-12110994D02*
X9250107Y-12120518D01*
X9250107Y-12120518D02*
X9212012Y-12120518D01*
X9212012Y-12120518D02*
X9192965Y-12110994D01*
X9402488Y-12120518D02*
X9383441Y-12110994D01*
X9383441Y-12110994D02*
X9373917Y-12091947D01*
X9373917Y-12091947D02*
X9373917Y-11920518D01*
X9564393Y-12120518D02*
X9564393Y-12015756D01*
X9564393Y-12015756D02*
X9554869Y-11996709D01*
X9554869Y-11996709D02*
X9535822Y-11987185D01*
X9535822Y-11987185D02*
X9497726Y-11987185D01*
X9497726Y-11987185D02*
X9478679Y-11996709D01*
X9564393Y-12110994D02*
X9545346Y-12120518D01*
X9545346Y-12120518D02*
X9497726Y-12120518D01*
X9497726Y-12120518D02*
X9478679Y-12110994D01*
X9478679Y-12110994D02*
X9469155Y-12091947D01*
X9469155Y-12091947D02*
X9469155Y-12072899D01*
X9469155Y-12072899D02*
X9478679Y-12053851D01*
X9478679Y-12053851D02*
X9497726Y-12044328D01*
X9497726Y-12044328D02*
X9545346Y-12044328D01*
X9545346Y-12044328D02*
X9564393Y-12034804D01*
X9631060Y-11987185D02*
X9707250Y-11987185D01*
X9659631Y-11920518D02*
X9659631Y-12091947D01*
X9659631Y-12091947D02*
X9669155Y-12110994D01*
X9669155Y-12110994D02*
X9688203Y-12120518D01*
X9688203Y-12120518D02*
X9707250Y-12120518D01*
X9850107Y-12110994D02*
X9831060Y-12120518D01*
X9831060Y-12120518D02*
X9792965Y-12120518D01*
X9792965Y-12120518D02*
X9773917Y-12110994D01*
X9773917Y-12110994D02*
X9764393Y-12091947D01*
X9764393Y-12091947D02*
X9764393Y-12015756D01*
X9764393Y-12015756D02*
X9773917Y-11996709D01*
X9773917Y-11996709D02*
X9792965Y-11987185D01*
X9792965Y-11987185D02*
X9831060Y-11987185D01*
X9831060Y-11987185D02*
X9850107Y-11996709D01*
X9850107Y-11996709D02*
X9859631Y-12015756D01*
X9859631Y-12015756D02*
X9859631Y-12034804D01*
X9859631Y-12034804D02*
X9764393Y-12053851D01*
X10031060Y-12120518D02*
X10031060Y-11920518D01*
X10031060Y-12110994D02*
X10012012Y-12120518D01*
X10012012Y-12120518D02*
X9973917Y-12120518D01*
X9973917Y-12120518D02*
X9954869Y-12110994D01*
X9954869Y-12110994D02*
X9945346Y-12101470D01*
X9945346Y-12101470D02*
X9935822Y-12082423D01*
X9935822Y-12082423D02*
X9935822Y-12025280D01*
X9935822Y-12025280D02*
X9945346Y-12006232D01*
X9945346Y-12006232D02*
X9954869Y-11996709D01*
X9954869Y-11996709D02*
X9973917Y-11987185D01*
X9973917Y-11987185D02*
X10012012Y-11987185D01*
X10012012Y-11987185D02*
X10031060Y-11996709D01*
X10107250Y-12196709D02*
X10116774Y-12187185D01*
X10116774Y-12187185D02*
X10135822Y-12158613D01*
X10135822Y-12158613D02*
X10145346Y-12139566D01*
X10145346Y-12139566D02*
X10154869Y-12110994D01*
X10154869Y-12110994D02*
X10164393Y-12063375D01*
X10164393Y-12063375D02*
X10164393Y-12025280D01*
X10164393Y-12025280D02*
X10154869Y-11977661D01*
X10154869Y-11977661D02*
X10145346Y-11949090D01*
X10145346Y-11949090D02*
X10135822Y-11930042D01*
X10135822Y-11930042D02*
X10116774Y-11901470D01*
X10116774Y-11901470D02*
X10107250Y-11891947D01*
M02*
