M48
; DRILL file {KiCad 7.0.1-0} date 2023 March 29, Wednesday 21:12:32
; FORMAT={-:-/ absolute / inch / decimal}
; #@! TF.CreationDate,2023-03-29T21:12:32+09:00
; #@! TF.GenerationSoftware,Kicad,Pcbnew,7.0.1-0
; #@! TF.FileFunction,Plated,1,2,PTH
FMAT,2
INCH
; #@! TA.AperFunction,Plated,PTH,ViaDrill
T1C0.0157
; #@! TA.AperFunction,Plated,PTH,ComponentDrill
T2C0.0295
; #@! TA.AperFunction,Plated,PTH,ComponentDrill
T3C0.0394
; #@! TA.AperFunction,Plated,PTH,ComponentDrill
T4C0.1181
%
G90
G05
T1
X2.0336Y-2.4616
T2
X1.5537Y-1.1051
X1.5537Y-1.8602
X1.5537Y-2.5846
X1.5537Y-3.3358
X1.8037Y-1.1051
X1.8037Y-1.8602
X1.8037Y-2.5846
X1.8037Y-3.3358
X2.3071Y-0.926
X2.3083Y-3.1504
X2.3134Y-2.4079
X2.3274Y-1.6756
X2.5571Y-0.926
X2.5583Y-3.1504
X2.5634Y-2.4079
X2.5774Y-1.6756
T3
X1.937Y-2.4055
X1.937Y-3.1476
X2.1575Y-2.4055
X2.1575Y-3.1476
T4
X1.5061Y-1.5749
X1.5061Y-2.317
X1.5061Y-3.0592
X1.5061Y-3.8013
X1.553Y-1.3292
X1.553Y-2.0714
X1.553Y-2.8135
X1.553Y-3.5556
X1.703Y-1.6615
X1.703Y-2.4036
X1.703Y-3.1458
X1.703Y-3.8879
X1.803Y-1.2292
X1.803Y-1.9714
X1.803Y-2.7135
X1.803Y-3.4556
X2.2577Y-1.3894
X2.2577Y-2.1315
X2.2577Y-2.8736
X2.2577Y-3.6157
X2.3045Y-1.1437
X2.3045Y-1.8858
X2.3045Y-2.628
X2.3045Y-3.3701
X2.4545Y-1.476
X2.4545Y-2.2181
X2.4545Y-2.9602
X2.4545Y-3.7024
X2.5545Y-1.0437
X2.5545Y-1.7858
X2.5545Y-2.528
X2.5545Y-3.2701
T0
M30
