%TF.GenerationSoftware,KiCad,Pcbnew,7.0.1-0*%
%TF.CreationDate,2023-03-29T21:14:19+09:00*%
%TF.ProjectId,pangaea-pcb-pinkey-0.25u,70616e67-6165-4612-9d70-63622d70696e,rev?*%
%TF.SameCoordinates,Original*%
%TF.FileFunction,Copper,L2,Bot*%
%TF.FilePolarity,Positive*%
%FSLAX46Y46*%
G04 Gerber Fmt 4.6, Leading zero omitted, Abs format (unit mm)*
G04 Created by KiCad (PCBNEW 7.0.1-0) date 2023-03-29 21:14:19*
%MOMM*%
%LPD*%
G01*
G04 APERTURE LIST*
G04 Aperture macros list*
%AMRoundRect*
0 Rectangle with rounded corners*
0 $1 Rounding radius*
0 $2 $3 $4 $5 $6 $7 $8 $9 X,Y pos of 4 corners*
0 Add a 4 corners polygon primitive as box body*
4,1,4,$2,$3,$4,$5,$6,$7,$8,$9,$2,$3,0*
0 Add four circle primitives for the rounded corners*
1,1,$1+$1,$2,$3*
1,1,$1+$1,$4,$5*
1,1,$1+$1,$6,$7*
1,1,$1+$1,$8,$9*
0 Add four rect primitives between the rounded corners*
20,1,$1+$1,$2,$3,$4,$5,0*
20,1,$1+$1,$4,$5,$6,$7,0*
20,1,$1+$1,$6,$7,$8,$9,0*
20,1,$1+$1,$8,$9,$2,$3,0*%
G04 Aperture macros list end*
%TA.AperFunction,ComponentPad*%
%ADD10R,1.200000X1.200000*%
%TD*%
%TA.AperFunction,SMDPad,CuDef*%
%ADD11R,1.200000X1.200000*%
%TD*%
%TA.AperFunction,ComponentPad*%
%ADD12C,1.200000*%
%TD*%
%TA.AperFunction,SMDPad,CuDef*%
%ADD13R,2.200000X2.000000*%
%TD*%
%TA.AperFunction,ComponentPad*%
%ADD14C,3.800000*%
%TD*%
%TA.AperFunction,SMDPad,CuDef*%
%ADD15RoundRect,0.150000X0.150000X0.650000X-0.150000X0.650000X-0.150000X-0.650000X0.150000X-0.650000X0*%
%TD*%
%TA.AperFunction,ComponentPad*%
%ADD16RoundRect,0.249600X0.350400X0.850400X-0.350400X0.850400X-0.350400X-0.850400X0.350400X-0.850400X0*%
%TD*%
%TA.AperFunction,ViaPad*%
%ADD17C,0.800000*%
%TD*%
%TA.AperFunction,Conductor*%
%ADD18C,0.250000*%
%TD*%
G04 APERTURE END LIST*
D10*
%TO.P,D38,1,K*%
%TO.N,Net-(D38-K)*%
X64980000Y-80020000D03*
D11*
X63530000Y-80020000D03*
%TO.P,D38,2,A*%
%TO.N,PY5*%
X60080000Y-80020000D03*
D12*
X58630000Y-80020000D03*
%TD*%
D13*
%TO.P,SW13,1,1*%
%TO.N,PX1*%
X35055000Y-40002500D03*
X36255000Y-33762500D03*
D14*
X38255000Y-40002500D03*
X39445000Y-33762500D03*
%TO.P,SW13,2,2*%
%TO.N,Net-(D13-A)*%
X43255000Y-42202500D03*
X45795000Y-31222500D03*
D13*
X46455000Y-42192500D03*
X48955000Y-31222500D03*
%TD*%
D10*
%TO.P,D13,1,K*%
%TO.N,PY4*%
X45815000Y-28070000D03*
D11*
X44365000Y-28070000D03*
%TO.P,D13,2,A*%
%TO.N,Net-(D13-A)*%
X40915000Y-28070000D03*
D12*
X39465000Y-28070000D03*
%TD*%
D10*
%TO.P,D34,1,K*%
%TO.N,Net-(D34-K)*%
X65110000Y-61160000D03*
D11*
X63660000Y-61160000D03*
%TO.P,D34,2,A*%
%TO.N,PY4*%
X60210000Y-61160000D03*
D12*
X58760000Y-61160000D03*
%TD*%
D13*
%TO.P,SW18,1,1*%
%TO.N,PX2*%
X54145000Y-54140000D03*
X55345000Y-47900000D03*
D14*
X57345000Y-54140000D03*
X58535000Y-47900000D03*
%TO.P,SW18,2,2*%
%TO.N,Net-(D18-A)*%
X62345000Y-56340000D03*
X64885000Y-45360000D03*
D13*
X65545000Y-56330000D03*
X68045000Y-45360000D03*
%TD*%
D10*
%TO.P,D33,1,K*%
%TO.N,Net-(D33-K)*%
X45815000Y-65650000D03*
D11*
X44365000Y-65650000D03*
%TO.P,D33,2,A*%
%TO.N,PY4*%
X40915000Y-65650000D03*
D12*
X39465000Y-65650000D03*
%TD*%
D13*
%TO.P,SW34,1,1*%
%TO.N,PX2*%
X54145000Y-72990000D03*
X55345000Y-66750000D03*
D14*
X57345000Y-72990000D03*
X58535000Y-66750000D03*
%TO.P,SW34,2,2*%
%TO.N,Net-(D34-K)*%
X62345000Y-75190000D03*
X64885000Y-64210000D03*
D13*
X65545000Y-75180000D03*
X68045000Y-64210000D03*
%TD*%
%TO.P,SW17,1,1*%
%TO.N,PX1*%
X35055000Y-58852500D03*
X36255000Y-52612500D03*
D14*
X38255000Y-58852500D03*
X39445000Y-52612500D03*
%TO.P,SW17,2,2*%
%TO.N,Net-(D17-A)*%
X43255000Y-61052500D03*
X45795000Y-50072500D03*
D13*
X46455000Y-61042500D03*
X48955000Y-50072500D03*
%TD*%
%TO.P,SW38,1,1*%
%TO.N,PX2*%
X54145000Y-91840000D03*
X55345000Y-85600000D03*
D14*
X57345000Y-91840000D03*
X58535000Y-85600000D03*
%TO.P,SW38,2,2*%
%TO.N,Net-(D38-K)*%
X62345000Y-94040000D03*
X64885000Y-83060000D03*
D13*
X65545000Y-94030000D03*
X68045000Y-83060000D03*
%TD*%
%TO.P,SW33,1,1*%
%TO.N,PX1*%
X35055000Y-77702500D03*
X36255000Y-71462500D03*
D14*
X38255000Y-77702500D03*
X39445000Y-71462500D03*
%TO.P,SW33,2,2*%
%TO.N,Net-(D33-K)*%
X43255000Y-79902500D03*
X45795000Y-68922500D03*
D13*
X46455000Y-79892500D03*
X48955000Y-68922500D03*
%TD*%
D10*
%TO.P,D17,1,K*%
%TO.N,PY5*%
X45815000Y-47250000D03*
D11*
X44365000Y-47250000D03*
%TO.P,D17,2,A*%
%TO.N,Net-(D17-A)*%
X40915000Y-47250000D03*
D12*
X39465000Y-47250000D03*
%TD*%
D10*
%TO.P,D18,1,K*%
%TO.N,PY5*%
X65465000Y-42560000D03*
D11*
X64015000Y-42560000D03*
%TO.P,D18,2,A*%
%TO.N,Net-(D18-A)*%
X60565000Y-42560000D03*
D12*
X59115000Y-42560000D03*
%TD*%
D10*
%TO.P,D37,1,K*%
%TO.N,Net-(D37-K)*%
X45815000Y-84730000D03*
D11*
X44365000Y-84730000D03*
%TO.P,D37,2,A*%
%TO.N,PY5*%
X40915000Y-84730000D03*
D12*
X39465000Y-84730000D03*
%TD*%
D10*
%TO.P,D14,1,K*%
%TO.N,PY4*%
X64950000Y-23520000D03*
D11*
X63500000Y-23520000D03*
%TO.P,D14,2,A*%
%TO.N,Net-(D14-A)*%
X60050000Y-23520000D03*
D12*
X58600000Y-23520000D03*
%TD*%
D13*
%TO.P,SW37,1,1*%
%TO.N,PX1*%
X35055000Y-96552500D03*
X36255000Y-90312500D03*
D14*
X38255000Y-96552500D03*
X39445000Y-90312500D03*
%TO.P,SW37,2,2*%
%TO.N,Net-(D37-K)*%
X43255000Y-98752500D03*
X45795000Y-87772500D03*
D13*
X46455000Y-98742500D03*
X48955000Y-87772500D03*
%TD*%
%TO.P,SW14,1,1*%
%TO.N,PX2*%
X54145000Y-35290000D03*
X55345000Y-29050000D03*
D14*
X57345000Y-35290000D03*
X58535000Y-29050000D03*
%TO.P,SW14,2,2*%
%TO.N,Net-(D14-A)*%
X62345000Y-37490000D03*
X64885000Y-26510000D03*
D13*
X65545000Y-37480000D03*
X68045000Y-26510000D03*
%TD*%
D15*
%TO.P,J9,1,Pin_1*%
%TO.N,PX1*%
X53500000Y-64400000D03*
%TO.P,J9,2,Pin_2*%
%TO.N,PX2*%
X52500000Y-64400000D03*
%TO.P,J9,3,Pin_3*%
%TO.N,PY4*%
X51500000Y-64400000D03*
%TO.P,J9,4,Pin_4*%
%TO.N,PY5*%
X50500000Y-64400000D03*
D16*
%TO.P,J9,MP*%
%TO.N,N/C*%
X54800000Y-61100000D03*
X49200000Y-61100000D03*
%TD*%
D15*
%TO.P,J8,1,Pin_1*%
%TO.N,PX1*%
X53500000Y-83250000D03*
%TO.P,J8,2,Pin_2*%
%TO.N,PX2*%
X52500000Y-83250000D03*
%TO.P,J8,3,Pin_3*%
%TO.N,PY4*%
X51500000Y-83250000D03*
%TO.P,J8,4,Pin_4*%
%TO.N,PY5*%
X50500000Y-83250000D03*
D16*
%TO.P,J8,MP*%
%TO.N,N/C*%
X54800000Y-79950000D03*
X49200000Y-79950000D03*
%TD*%
D17*
%TO.N,PY4*%
X51653500Y-62524400D03*
%TD*%
D18*
%TO.N,PY4*%
X51500000Y-63875300D02*
X52252200Y-63123100D01*
X39465000Y-65650000D02*
X40915000Y-65650000D01*
X51500000Y-64400000D02*
X51500000Y-63875300D01*
X62574900Y-23520000D02*
X61642200Y-22587300D01*
X44365000Y-28070000D02*
X45815000Y-28070000D01*
X58760000Y-61160000D02*
X59284900Y-61160000D01*
X52252200Y-63123100D02*
X51653500Y-62524400D01*
X49531800Y-66874400D02*
X49293400Y-66636100D01*
X52252200Y-63123100D02*
X52628400Y-62746900D01*
X60210000Y-61160000D02*
X59284900Y-61160000D01*
X61642200Y-22587300D02*
X58143500Y-22587300D01*
X52628400Y-62746900D02*
X57173100Y-62746900D01*
X63500000Y-23520000D02*
X62574900Y-23520000D01*
X51500000Y-83250000D02*
X51500000Y-68842700D01*
X57173100Y-62746900D02*
X58760000Y-61160000D01*
X58143500Y-22587300D02*
X52660800Y-28070000D01*
X40915000Y-65650000D02*
X41840100Y-65650000D01*
X42826200Y-66636100D02*
X41840100Y-65650000D01*
X49531800Y-66874400D02*
X51500000Y-64906200D01*
X52660800Y-28070000D02*
X45815000Y-28070000D01*
X51500000Y-68842700D02*
X49531800Y-66874400D01*
X49293400Y-66636100D02*
X42826200Y-66636100D01*
X51500000Y-64906200D02*
X51500000Y-64400000D01*
X63500000Y-23520000D02*
X64950000Y-23520000D01*
%TO.N,Net-(D13-A)*%
X39465000Y-28070000D02*
X40915000Y-28070000D01*
X46047400Y-33905200D02*
X46047400Y-33905100D01*
X46047400Y-33995500D02*
X46047400Y-33950300D01*
X46047400Y-31474900D02*
X45795000Y-31222500D01*
X46047400Y-33905800D02*
X46047400Y-33905400D01*
X48843173Y-31427500D02*
X49001587Y-31269086D01*
X46047400Y-33910700D02*
X46047400Y-33907900D01*
X41840100Y-28070000D02*
X44992600Y-31222500D01*
X46047400Y-34086000D02*
X46047400Y-33995500D01*
X46047400Y-42192500D02*
X43265000Y-42192500D01*
X46047400Y-33906500D02*
X46047400Y-33905800D01*
X46047400Y-33916400D02*
X46047400Y-33910700D01*
X44992600Y-31222500D02*
X45795000Y-31222500D01*
X46047400Y-42192500D02*
X46047400Y-34628800D01*
X40915000Y-28070000D02*
X41840100Y-28070000D01*
X46455000Y-42192500D02*
X46047400Y-42192500D01*
X46047400Y-33905400D02*
X46047400Y-33905200D01*
X46047400Y-33905100D02*
X46047400Y-31474900D01*
X46047400Y-33927700D02*
X46047400Y-33916400D01*
X43265000Y-42192500D02*
X43255000Y-42202500D01*
X45795000Y-31222500D02*
X46000000Y-31427500D01*
X46047400Y-34266900D02*
X46047400Y-34086000D01*
X46000000Y-31427500D02*
X48843173Y-31427500D01*
X46047400Y-33907900D02*
X46047400Y-33906500D01*
X46047400Y-34628800D02*
X46047400Y-34266900D01*
X46047400Y-33950300D02*
X46047400Y-33927700D01*
%TO.N,Net-(D14-A)*%
X65137400Y-29192700D02*
X65137400Y-29192600D01*
X65137400Y-29215200D02*
X65137400Y-29203900D01*
X65137400Y-29194000D02*
X65137400Y-29193300D01*
X65137400Y-29192900D02*
X65137400Y-29192700D01*
X65137400Y-29198200D02*
X65137400Y-29195400D01*
X67933173Y-26715000D02*
X68091587Y-26556586D01*
X65137400Y-29195400D02*
X65137400Y-29194000D01*
X58600000Y-23520000D02*
X60050000Y-23520000D01*
X65137400Y-29193300D02*
X65137400Y-29192900D01*
X60050000Y-23520000D02*
X60975100Y-23520000D01*
X65137400Y-29203900D02*
X65137400Y-29198200D01*
X65137400Y-29237800D02*
X65137400Y-29215200D01*
X65090000Y-26715000D02*
X67933173Y-26715000D01*
X63965100Y-26510000D02*
X64885000Y-26510000D01*
X65137400Y-26762400D02*
X64885000Y-26510000D01*
X65545000Y-37480000D02*
X65137400Y-37480000D01*
X65137400Y-29373500D02*
X65137400Y-29283000D01*
X65137400Y-37480000D02*
X65137400Y-29916300D01*
X62355000Y-37480000D02*
X62345000Y-37490000D01*
X65137400Y-29554400D02*
X65137400Y-29373500D01*
X65137400Y-29192600D02*
X65137400Y-26762400D01*
X60975100Y-23520000D02*
X63965100Y-26510000D01*
X64885000Y-26510000D02*
X65090000Y-26715000D01*
X65137400Y-37480000D02*
X62355000Y-37480000D01*
X65137400Y-29283000D02*
X65137400Y-29237800D01*
X65137400Y-29916300D02*
X65137400Y-29554400D01*
%TO.N,PY5*%
X46926500Y-73707500D02*
X39854900Y-66635900D01*
X38512300Y-65228700D02*
X39535700Y-64205300D01*
X50389800Y-48902200D02*
X50389800Y-64205300D01*
X53892700Y-84382000D02*
X58254700Y-80020000D01*
X58254700Y-80020000D02*
X58630000Y-80020000D01*
X63089900Y-42560000D02*
X62115300Y-41585400D01*
X47933200Y-83250000D02*
X47933200Y-77367600D01*
X39854900Y-66635900D02*
X39076500Y-66635900D01*
X58630000Y-80020000D02*
X60080000Y-80020000D01*
X50389800Y-64205300D02*
X50500000Y-64315500D01*
X64015000Y-42560000D02*
X65465000Y-42560000D01*
X46740100Y-47250000D02*
X48737600Y-47250000D01*
X39535700Y-64205300D02*
X50389800Y-64205300D01*
X50500000Y-83250000D02*
X50500000Y-83742500D01*
X45815000Y-47250000D02*
X46740100Y-47250000D01*
X40915000Y-84730000D02*
X41840100Y-84730000D01*
X39465000Y-84730000D02*
X40915000Y-84730000D01*
X62115300Y-41585400D02*
X57706600Y-41585400D01*
X39076500Y-66635900D02*
X38512300Y-66071700D01*
X38512300Y-66071700D02*
X38512300Y-65228700D01*
X50500000Y-64315500D02*
X50500000Y-64400000D01*
X50500000Y-83742500D02*
X51139500Y-84382000D01*
X51139500Y-84382000D02*
X53892700Y-84382000D01*
X43320100Y-83250000D02*
X47933200Y-83250000D01*
X57706600Y-41585400D02*
X50389800Y-48902200D01*
X46926500Y-76360900D02*
X46926500Y-73707500D01*
X47933200Y-83250000D02*
X50500000Y-83250000D01*
X41840100Y-84730000D02*
X43320100Y-83250000D01*
X64015000Y-42560000D02*
X63089900Y-42560000D01*
X48737600Y-47250000D02*
X50389800Y-48902200D01*
X44365000Y-47250000D02*
X45815000Y-47250000D01*
X47933200Y-77367600D02*
X46926500Y-76360900D01*
%TO.N,Net-(D17-A)*%
X45790600Y-50072500D02*
X45792800Y-50072500D01*
X45786200Y-50072500D02*
X45790600Y-50072500D01*
X45228800Y-50072500D02*
X45511900Y-50072500D01*
X45792800Y-50072500D02*
X45793900Y-50072500D01*
X45777400Y-50072500D02*
X45786200Y-50072500D01*
X45794800Y-50072500D02*
X45794900Y-50072500D01*
X46455000Y-61042500D02*
X43265000Y-61042500D01*
X45794900Y-50072500D02*
X45795000Y-50072500D01*
X39465000Y-47250000D02*
X40915000Y-47250000D01*
X44662600Y-50072500D02*
X45228800Y-50072500D01*
X48843173Y-50277500D02*
X49001587Y-50119086D01*
X45759700Y-50072500D02*
X45777400Y-50072500D01*
X45511900Y-50072500D02*
X45653500Y-50072500D01*
X45795000Y-50072500D02*
X46000000Y-50277500D01*
X43265000Y-61042500D02*
X43255000Y-61052500D01*
X45794500Y-50072500D02*
X45794800Y-50072500D01*
X45653500Y-50072500D02*
X45724300Y-50072500D01*
X45724300Y-50072500D02*
X45759700Y-50072500D01*
X40915000Y-47250000D02*
X41840100Y-47250000D01*
X45793900Y-50072500D02*
X45794500Y-50072500D01*
X41840100Y-47250000D02*
X44662600Y-50072500D01*
X46000000Y-50277500D02*
X48843173Y-50277500D01*
%TO.N,Net-(D18-A)*%
X59115000Y-42560000D02*
X60565000Y-42560000D01*
X65137400Y-48053900D02*
X65137400Y-48048200D01*
X65137400Y-48087800D02*
X65137400Y-48065200D01*
X65137400Y-48223500D02*
X65137400Y-48133000D01*
X60565000Y-42560000D02*
X61490100Y-42560000D01*
X65137400Y-48045400D02*
X65137400Y-48044000D01*
X64885000Y-45360000D02*
X65090000Y-45565000D01*
X65137400Y-48766300D02*
X65137400Y-48404400D01*
X65137400Y-48065200D02*
X65137400Y-48053900D01*
X64290100Y-45360000D02*
X64885000Y-45360000D01*
X65137400Y-48404400D02*
X65137400Y-48223500D01*
X62355000Y-56330000D02*
X62345000Y-56340000D01*
X67933173Y-45565000D02*
X68091587Y-45406586D01*
X65137400Y-56330000D02*
X65137400Y-48766300D01*
X61490100Y-42560000D02*
X64290100Y-45360000D01*
X65137400Y-48133000D02*
X65137400Y-48087800D01*
X65137400Y-48042900D02*
X65137400Y-48042700D01*
X65137400Y-48042700D02*
X65137400Y-48042600D01*
X65137400Y-56330000D02*
X62355000Y-56330000D01*
X65137400Y-48043300D02*
X65137400Y-48042900D01*
X65137400Y-48044000D02*
X65137400Y-48043300D01*
X65137400Y-48042600D02*
X65137400Y-45612400D01*
X65137400Y-48048200D02*
X65137400Y-48045400D01*
X65545000Y-56330000D02*
X65137400Y-56330000D01*
X65137400Y-45612400D02*
X64885000Y-45360000D01*
X65090000Y-45565000D02*
X67933173Y-45565000D01*
%TO.N,Net-(D33-K)*%
X48843173Y-69127500D02*
X49001587Y-68969086D01*
X44365000Y-65650000D02*
X45815000Y-65650000D01*
X46455000Y-79892500D02*
X43265000Y-79892500D01*
X46000000Y-69127500D02*
X48843173Y-69127500D01*
X45795000Y-68922500D02*
X46000000Y-69127500D01*
X43265000Y-79892500D02*
X43255000Y-79902500D01*
%TO.N,Net-(D34-K)*%
X65137400Y-66892700D02*
X65137400Y-66892600D01*
X65137400Y-75180000D02*
X65137400Y-67616300D01*
X65137400Y-66937800D02*
X65137400Y-66915200D01*
X65137400Y-66898200D02*
X65137400Y-66895400D01*
X65137400Y-66895400D02*
X65137400Y-66894000D01*
X64885000Y-64210000D02*
X65090000Y-64415000D01*
X65137400Y-66892900D02*
X65137400Y-66892700D01*
X65137400Y-64462400D02*
X64885000Y-64210000D01*
X65137400Y-67254400D02*
X65137400Y-67073500D01*
X65137400Y-66903900D02*
X65137400Y-66898200D01*
X62355000Y-75180000D02*
X62345000Y-75190000D01*
X65137400Y-67073500D02*
X65137400Y-66983000D01*
X65137400Y-66915200D02*
X65137400Y-66903900D01*
X65137400Y-75180000D02*
X62355000Y-75180000D01*
X65137400Y-66893300D02*
X65137400Y-66892900D01*
X65137400Y-67616300D02*
X65137400Y-67254400D01*
X65137400Y-66983000D02*
X65137400Y-66937800D01*
X65137400Y-66892600D02*
X65137400Y-64462400D01*
X67933173Y-64415000D02*
X68091587Y-64256586D01*
X65137400Y-66894000D02*
X65137400Y-66893300D01*
X65090000Y-64415000D02*
X67933173Y-64415000D01*
X65545000Y-75180000D02*
X65137400Y-75180000D01*
X63660000Y-61160000D02*
X65110000Y-61160000D01*
%TO.N,Net-(D37-K)*%
X46455000Y-98742500D02*
X46047400Y-98742500D01*
X43265000Y-98742500D02*
X43255000Y-98752500D01*
X46047400Y-90456500D02*
X46047400Y-90455800D01*
X46047400Y-90455100D02*
X46047400Y-88024900D01*
X46047400Y-90466400D02*
X46047400Y-90460700D01*
X46047400Y-88024900D02*
X45795000Y-87772500D01*
X46047400Y-90455400D02*
X46047400Y-90455200D01*
X46047400Y-90455200D02*
X46047400Y-90455100D01*
X46047400Y-90477700D02*
X46047400Y-90466400D01*
X46047400Y-90545500D02*
X46047400Y-90500300D01*
X46047400Y-98742500D02*
X46047400Y-91178800D01*
X46047400Y-91178800D02*
X46047400Y-90816900D01*
X45795000Y-87772500D02*
X46000000Y-87977500D01*
X46047400Y-90636000D02*
X46047400Y-90545500D01*
X44365000Y-84730000D02*
X45815000Y-84730000D01*
X48843173Y-87977500D02*
X49001587Y-87819086D01*
X46047400Y-90460700D02*
X46047400Y-90457900D01*
X46047400Y-90457900D02*
X46047400Y-90456500D01*
X46000000Y-87977500D02*
X48843173Y-87977500D01*
X46047400Y-90816900D02*
X46047400Y-90636000D01*
X46047400Y-90455800D02*
X46047400Y-90455400D01*
X46047400Y-98742500D02*
X43265000Y-98742500D01*
X46047400Y-90500300D02*
X46047400Y-90477700D01*
%TO.N,Net-(D38-K)*%
X64885000Y-83060000D02*
X65090000Y-83265000D01*
X65587500Y-85303700D02*
X65587500Y-85298100D01*
X65545000Y-94030000D02*
X62355000Y-94030000D01*
X65587500Y-83762500D02*
X64885000Y-83060000D01*
X65587500Y-85382300D02*
X65587500Y-85337400D01*
X65587500Y-85292600D02*
X65587500Y-85292500D01*
X65587500Y-85337400D02*
X65587500Y-85314900D01*
X65587500Y-85651900D02*
X65587500Y-85472200D01*
X63530000Y-80020000D02*
X64980000Y-80020000D01*
X65545000Y-92704900D02*
X65587500Y-92662400D01*
X65587500Y-85293200D02*
X65587500Y-85292800D01*
X65545000Y-94030000D02*
X65545000Y-92704900D01*
X65587500Y-86011300D02*
X65587500Y-85651900D01*
X65587500Y-85292500D02*
X65587500Y-83762500D01*
X65587500Y-85292800D02*
X65587500Y-85292600D01*
X65587500Y-85314900D02*
X65587500Y-85303700D01*
X62355000Y-94030000D02*
X62345000Y-94040000D01*
X65587500Y-92662400D02*
X65587500Y-86011300D01*
X65090000Y-83265000D02*
X67933173Y-83265000D01*
X65587500Y-85298100D02*
X65587500Y-85295300D01*
X65587500Y-85295300D02*
X65587500Y-85293900D01*
X65587500Y-85293900D02*
X65587500Y-85293200D01*
X65587500Y-85472200D02*
X65587500Y-85382300D01*
%TO.N,PX1*%
X52719800Y-80622900D02*
X53500000Y-81403100D01*
X58170000Y-79080000D02*
X60823000Y-79080000D01*
X61005200Y-79262200D02*
X61005200Y-82466100D01*
X39445000Y-90312500D02*
X36255000Y-90312500D01*
X62645200Y-91814800D02*
X61370200Y-91814800D01*
X53500000Y-81403100D02*
X53500000Y-83250000D01*
X38255000Y-40002500D02*
X35055000Y-40002500D01*
X38255000Y-96552500D02*
X35055000Y-96552500D01*
X65137400Y-86598300D02*
X65137400Y-89322600D01*
X53500000Y-70447100D02*
X52719800Y-71227300D01*
X42338200Y-101009700D02*
X38255000Y-96926500D01*
X61005200Y-82466100D02*
X65137400Y-86598300D01*
X65137400Y-89322600D02*
X62645200Y-91814800D01*
X53500000Y-64400000D02*
X53500000Y-70447100D01*
X39445000Y-33762500D02*
X36255000Y-33762500D01*
X51641200Y-97190400D02*
X47821900Y-101009700D01*
X55994600Y-97190400D02*
X51641200Y-97190400D01*
X39445000Y-52612500D02*
X36255000Y-52612500D01*
X60823000Y-79080000D02*
X61005200Y-79262200D01*
X53500000Y-81403100D02*
X55846900Y-81403100D01*
X38255000Y-77702500D02*
X35055000Y-77702500D01*
X36255000Y-71462500D02*
X37680100Y-71462500D01*
X55846900Y-81403100D02*
X58170000Y-79080000D01*
X38255000Y-96926500D02*
X38255000Y-96552500D01*
X39445000Y-71462500D02*
X37680100Y-71462500D01*
X38255000Y-58852500D02*
X35055000Y-58852500D01*
X61370200Y-91814800D02*
X55994600Y-97190400D01*
X47821900Y-101009700D02*
X42338200Y-101009700D01*
X52719800Y-71227300D02*
X52719800Y-80622900D01*
%TO.N,PX2*%
X52500000Y-63873600D02*
X53120400Y-63253200D01*
X53120400Y-63253200D02*
X53844400Y-63253200D01*
X58535000Y-47900000D02*
X55345000Y-47900000D01*
X57345000Y-72990000D02*
X54145000Y-72990000D01*
X52500000Y-83250000D02*
X52219300Y-82969300D01*
X58535000Y-85600000D02*
X55345000Y-85600000D01*
X52219300Y-82969300D02*
X52219300Y-64680700D01*
X52219300Y-64680700D02*
X52500000Y-64400000D01*
X52500000Y-64400000D02*
X52500000Y-63873600D01*
X55345000Y-64753800D02*
X55345000Y-66750000D01*
X58535000Y-66750000D02*
X55345000Y-66750000D01*
X58535000Y-29050000D02*
X55345000Y-29050000D01*
X53844400Y-63253200D02*
X55345000Y-64753800D01*
X57345000Y-91840000D02*
X54145000Y-91840000D01*
X57345000Y-54140000D02*
X54145000Y-54140000D01*
X57345000Y-35290000D02*
X54145000Y-35290000D01*
%TD*%
M02*
