%TF.GenerationSoftware,KiCad,Pcbnew,(7.0.0-0)*%
%TF.CreationDate,2023-03-21T10:01:05+09:00*%
%TF.ProjectId,pangaea-bottom-pinkey-0.25u,70616e67-6165-4612-9d62-6f74746f6d2d,1*%
%TF.SameCoordinates,Original*%
%TF.FileFunction,Drillmap*%
%TF.FilePolarity,Positive*%
%FSLAX45Y45*%
G04 Gerber Fmt 4.5, Leading zero omitted, Abs format (unit mm)*
G04 Created by KiCad (PCBNEW (7.0.0-0)) date 2023-03-21 10:01:05*
%MOMM*%
%LPD*%
G01*
G04 APERTURE LIST*
%ADD10C,0.150000*%
%ADD11C,0.200000*%
%ADD12C,0.128000*%
G04 APERTURE END LIST*
D10*
X8538500Y-13038625D02*
G75*
G03*
X8617875Y-13118000I79380J5D01*
G01*
X10365197Y-13117895D02*
G75*
G03*
X10443916Y-13037874I-1317J80025D01*
G01*
X10522875Y-5021750D02*
G75*
G03*
X10443500Y-5101125I5J-79380D01*
G01*
X10443916Y-13037874D02*
X10443689Y-12641627D01*
X8538500Y-5577375D02*
X8538500Y-13038625D01*
X10365197Y-13117898D02*
X8617875Y-13118000D01*
X10364125Y-5498000D02*
G75*
G03*
X10443500Y-5418625I-15J79390D01*
G01*
X10364125Y-5498000D02*
X8617875Y-5498000D01*
X10443500Y-5101125D02*
X10443500Y-5418625D01*
X10523064Y-12562252D02*
X12269125Y-12562375D01*
X12348500Y-5101125D02*
X12348500Y-12483000D01*
X10523064Y-12562249D02*
G75*
G03*
X10443689Y-12641627I6J-79381D01*
G01*
X12348500Y-5101125D02*
G75*
G03*
X12269125Y-5021750I-79370J5D01*
G01*
X8617875Y-5498000D02*
G75*
G03*
X8538500Y-5577375I5J-79380D01*
G01*
X12269125Y-5021750D02*
X10522875Y-5021750D01*
X12269125Y-12562380D02*
G75*
G03*
X12348500Y-12483000I-5J79380D01*
G01*
D11*
D12*
X8701250Y-9219875D02*
X8829250Y-9347875D01*
X8829250Y-9219875D02*
X8701250Y-9347875D01*
X8701255Y-5647995D02*
X8829255Y-5775995D01*
X8829255Y-5647995D02*
X8701255Y-5775995D01*
X8701255Y-12791745D02*
X8829255Y-12919745D01*
X8829255Y-12791745D02*
X8701255Y-12919745D01*
X10130000Y-5648000D02*
X10258000Y-5776000D01*
X10258000Y-5648000D02*
X10130000Y-5776000D01*
X10130000Y-12791750D02*
X10258000Y-12919750D01*
X10258000Y-12791750D02*
X10130000Y-12919750D01*
X10632000Y-5210250D02*
X10760000Y-5338250D01*
X10760000Y-5210250D02*
X10632000Y-5338250D01*
X10632005Y-12353995D02*
X10760005Y-12481995D01*
X10760005Y-12353995D02*
X10632005Y-12481995D01*
X12060755Y-5210245D02*
X12188755Y-5338245D01*
X12188755Y-5210245D02*
X12060755Y-5338245D01*
X12060755Y-12353995D02*
X12188755Y-12481995D01*
X12188755Y-12353995D02*
X12060755Y-12481995D01*
X12060776Y-8782137D02*
X12188776Y-8910137D01*
X12188776Y-8782137D02*
X12060776Y-8910137D01*
D11*
X8778619Y-13418976D02*
X8778619Y-13218976D01*
X8778619Y-13218976D02*
X8826238Y-13218976D01*
X8826238Y-13218976D02*
X8854810Y-13228500D01*
X8854810Y-13228500D02*
X8873857Y-13247548D01*
X8873857Y-13247548D02*
X8883381Y-13266595D01*
X8883381Y-13266595D02*
X8892905Y-13304690D01*
X8892905Y-13304690D02*
X8892905Y-13333262D01*
X8892905Y-13333262D02*
X8883381Y-13371357D01*
X8883381Y-13371357D02*
X8873857Y-13390405D01*
X8873857Y-13390405D02*
X8854810Y-13409452D01*
X8854810Y-13409452D02*
X8826238Y-13418976D01*
X8826238Y-13418976D02*
X8778619Y-13418976D01*
X8978619Y-13418976D02*
X8978619Y-13285643D01*
X8978619Y-13323738D02*
X8988143Y-13304690D01*
X8988143Y-13304690D02*
X8997667Y-13295167D01*
X8997667Y-13295167D02*
X9016714Y-13285643D01*
X9016714Y-13285643D02*
X9035762Y-13285643D01*
X9102429Y-13418976D02*
X9102429Y-13285643D01*
X9102429Y-13218976D02*
X9092905Y-13228500D01*
X9092905Y-13228500D02*
X9102429Y-13238024D01*
X9102429Y-13238024D02*
X9111952Y-13228500D01*
X9111952Y-13228500D02*
X9102429Y-13218976D01*
X9102429Y-13218976D02*
X9102429Y-13238024D01*
X9226238Y-13418976D02*
X9207190Y-13409452D01*
X9207190Y-13409452D02*
X9197667Y-13390405D01*
X9197667Y-13390405D02*
X9197667Y-13218976D01*
X9331000Y-13418976D02*
X9311952Y-13409452D01*
X9311952Y-13409452D02*
X9302429Y-13390405D01*
X9302429Y-13390405D02*
X9302429Y-13218976D01*
X9527190Y-13418976D02*
X9527190Y-13218976D01*
X9527190Y-13218976D02*
X9593857Y-13361833D01*
X9593857Y-13361833D02*
X9660524Y-13218976D01*
X9660524Y-13218976D02*
X9660524Y-13418976D01*
X9841476Y-13418976D02*
X9841476Y-13314214D01*
X9841476Y-13314214D02*
X9831952Y-13295167D01*
X9831952Y-13295167D02*
X9812905Y-13285643D01*
X9812905Y-13285643D02*
X9774809Y-13285643D01*
X9774809Y-13285643D02*
X9755762Y-13295167D01*
X9841476Y-13409452D02*
X9822429Y-13418976D01*
X9822429Y-13418976D02*
X9774809Y-13418976D01*
X9774809Y-13418976D02*
X9755762Y-13409452D01*
X9755762Y-13409452D02*
X9746238Y-13390405D01*
X9746238Y-13390405D02*
X9746238Y-13371357D01*
X9746238Y-13371357D02*
X9755762Y-13352309D01*
X9755762Y-13352309D02*
X9774809Y-13342786D01*
X9774809Y-13342786D02*
X9822429Y-13342786D01*
X9822429Y-13342786D02*
X9841476Y-13333262D01*
X9936714Y-13285643D02*
X9936714Y-13485643D01*
X9936714Y-13295167D02*
X9955762Y-13285643D01*
X9955762Y-13285643D02*
X9993857Y-13285643D01*
X9993857Y-13285643D02*
X10012905Y-13295167D01*
X10012905Y-13295167D02*
X10022429Y-13304690D01*
X10022429Y-13304690D02*
X10031952Y-13323738D01*
X10031952Y-13323738D02*
X10031952Y-13380881D01*
X10031952Y-13380881D02*
X10022429Y-13399928D01*
X10022429Y-13399928D02*
X10012905Y-13409452D01*
X10012905Y-13409452D02*
X9993857Y-13418976D01*
X9993857Y-13418976D02*
X9955762Y-13418976D01*
X9955762Y-13418976D02*
X9936714Y-13409452D01*
X10117667Y-13399928D02*
X10127190Y-13409452D01*
X10127190Y-13409452D02*
X10117667Y-13418976D01*
X10117667Y-13418976D02*
X10108143Y-13409452D01*
X10108143Y-13409452D02*
X10117667Y-13399928D01*
X10117667Y-13399928D02*
X10117667Y-13418976D01*
X10117667Y-13295167D02*
X10127190Y-13304690D01*
X10127190Y-13304690D02*
X10117667Y-13314214D01*
X10117667Y-13314214D02*
X10108143Y-13304690D01*
X10108143Y-13304690D02*
X10117667Y-13295167D01*
X10117667Y-13295167D02*
X10117667Y-13314214D01*
D12*
X8403000Y-13701500D02*
X8531000Y-13829500D01*
X8531000Y-13701500D02*
X8403000Y-13829500D01*
D11*
X8883381Y-13838976D02*
X8769095Y-13838976D01*
X8826238Y-13838976D02*
X8826238Y-13638976D01*
X8826238Y-13638976D02*
X8807190Y-13667548D01*
X8807190Y-13667548D02*
X8788143Y-13686595D01*
X8788143Y-13686595D02*
X8769095Y-13696119D01*
X8969095Y-13819928D02*
X8978619Y-13829452D01*
X8978619Y-13829452D02*
X8969095Y-13838976D01*
X8969095Y-13838976D02*
X8959571Y-13829452D01*
X8959571Y-13829452D02*
X8969095Y-13819928D01*
X8969095Y-13819928D02*
X8969095Y-13838976D01*
X9054810Y-13658024D02*
X9064333Y-13648500D01*
X9064333Y-13648500D02*
X9083381Y-13638976D01*
X9083381Y-13638976D02*
X9131000Y-13638976D01*
X9131000Y-13638976D02*
X9150048Y-13648500D01*
X9150048Y-13648500D02*
X9159571Y-13658024D01*
X9159571Y-13658024D02*
X9169095Y-13677071D01*
X9169095Y-13677071D02*
X9169095Y-13696119D01*
X9169095Y-13696119D02*
X9159571Y-13724690D01*
X9159571Y-13724690D02*
X9045286Y-13838976D01*
X9045286Y-13838976D02*
X9169095Y-13838976D01*
X9283381Y-13724690D02*
X9264333Y-13715167D01*
X9264333Y-13715167D02*
X9254810Y-13705643D01*
X9254810Y-13705643D02*
X9245286Y-13686595D01*
X9245286Y-13686595D02*
X9245286Y-13677071D01*
X9245286Y-13677071D02*
X9254810Y-13658024D01*
X9254810Y-13658024D02*
X9264333Y-13648500D01*
X9264333Y-13648500D02*
X9283381Y-13638976D01*
X9283381Y-13638976D02*
X9321476Y-13638976D01*
X9321476Y-13638976D02*
X9340524Y-13648500D01*
X9340524Y-13648500D02*
X9350048Y-13658024D01*
X9350048Y-13658024D02*
X9359571Y-13677071D01*
X9359571Y-13677071D02*
X9359571Y-13686595D01*
X9359571Y-13686595D02*
X9350048Y-13705643D01*
X9350048Y-13705643D02*
X9340524Y-13715167D01*
X9340524Y-13715167D02*
X9321476Y-13724690D01*
X9321476Y-13724690D02*
X9283381Y-13724690D01*
X9283381Y-13724690D02*
X9264333Y-13734214D01*
X9264333Y-13734214D02*
X9254810Y-13743738D01*
X9254810Y-13743738D02*
X9245286Y-13762786D01*
X9245286Y-13762786D02*
X9245286Y-13800881D01*
X9245286Y-13800881D02*
X9254810Y-13819928D01*
X9254810Y-13819928D02*
X9264333Y-13829452D01*
X9264333Y-13829452D02*
X9283381Y-13838976D01*
X9283381Y-13838976D02*
X9321476Y-13838976D01*
X9321476Y-13838976D02*
X9340524Y-13829452D01*
X9340524Y-13829452D02*
X9350048Y-13819928D01*
X9350048Y-13819928D02*
X9359571Y-13800881D01*
X9359571Y-13800881D02*
X9359571Y-13762786D01*
X9359571Y-13762786D02*
X9350048Y-13743738D01*
X9350048Y-13743738D02*
X9340524Y-13734214D01*
X9340524Y-13734214D02*
X9321476Y-13724690D01*
X9483381Y-13638976D02*
X9502429Y-13638976D01*
X9502429Y-13638976D02*
X9521476Y-13648500D01*
X9521476Y-13648500D02*
X9531000Y-13658024D01*
X9531000Y-13658024D02*
X9540524Y-13677071D01*
X9540524Y-13677071D02*
X9550048Y-13715167D01*
X9550048Y-13715167D02*
X9550048Y-13762786D01*
X9550048Y-13762786D02*
X9540524Y-13800881D01*
X9540524Y-13800881D02*
X9531000Y-13819928D01*
X9531000Y-13819928D02*
X9521476Y-13829452D01*
X9521476Y-13829452D02*
X9502429Y-13838976D01*
X9502429Y-13838976D02*
X9483381Y-13838976D01*
X9483381Y-13838976D02*
X9464333Y-13829452D01*
X9464333Y-13829452D02*
X9454810Y-13819928D01*
X9454810Y-13819928D02*
X9445286Y-13800881D01*
X9445286Y-13800881D02*
X9435762Y-13762786D01*
X9435762Y-13762786D02*
X9435762Y-13715167D01*
X9435762Y-13715167D02*
X9445286Y-13677071D01*
X9445286Y-13677071D02*
X9454810Y-13658024D01*
X9454810Y-13658024D02*
X9464333Y-13648500D01*
X9464333Y-13648500D02*
X9483381Y-13638976D01*
X9635762Y-13838976D02*
X9635762Y-13705643D01*
X9635762Y-13724690D02*
X9645286Y-13715167D01*
X9645286Y-13715167D02*
X9664333Y-13705643D01*
X9664333Y-13705643D02*
X9692905Y-13705643D01*
X9692905Y-13705643D02*
X9711952Y-13715167D01*
X9711952Y-13715167D02*
X9721476Y-13734214D01*
X9721476Y-13734214D02*
X9721476Y-13838976D01*
X9721476Y-13734214D02*
X9731000Y-13715167D01*
X9731000Y-13715167D02*
X9750048Y-13705643D01*
X9750048Y-13705643D02*
X9778619Y-13705643D01*
X9778619Y-13705643D02*
X9797667Y-13715167D01*
X9797667Y-13715167D02*
X9807191Y-13734214D01*
X9807191Y-13734214D02*
X9807191Y-13838976D01*
X9902429Y-13838976D02*
X9902429Y-13705643D01*
X9902429Y-13724690D02*
X9911952Y-13715167D01*
X9911952Y-13715167D02*
X9931000Y-13705643D01*
X9931000Y-13705643D02*
X9959572Y-13705643D01*
X9959572Y-13705643D02*
X9978619Y-13715167D01*
X9978619Y-13715167D02*
X9988143Y-13734214D01*
X9988143Y-13734214D02*
X9988143Y-13838976D01*
X9988143Y-13734214D02*
X9997667Y-13715167D01*
X9997667Y-13715167D02*
X10016714Y-13705643D01*
X10016714Y-13705643D02*
X10045286Y-13705643D01*
X10045286Y-13705643D02*
X10064333Y-13715167D01*
X10064333Y-13715167D02*
X10073857Y-13734214D01*
X10073857Y-13734214D02*
X10073857Y-13838976D01*
X10431952Y-13629452D02*
X10260524Y-13886595D01*
X10656714Y-13638976D02*
X10675762Y-13638976D01*
X10675762Y-13638976D02*
X10694810Y-13648500D01*
X10694810Y-13648500D02*
X10704333Y-13658024D01*
X10704333Y-13658024D02*
X10713857Y-13677071D01*
X10713857Y-13677071D02*
X10723381Y-13715167D01*
X10723381Y-13715167D02*
X10723381Y-13762786D01*
X10723381Y-13762786D02*
X10713857Y-13800881D01*
X10713857Y-13800881D02*
X10704333Y-13819928D01*
X10704333Y-13819928D02*
X10694810Y-13829452D01*
X10694810Y-13829452D02*
X10675762Y-13838976D01*
X10675762Y-13838976D02*
X10656714Y-13838976D01*
X10656714Y-13838976D02*
X10637667Y-13829452D01*
X10637667Y-13829452D02*
X10628143Y-13819928D01*
X10628143Y-13819928D02*
X10618619Y-13800881D01*
X10618619Y-13800881D02*
X10609095Y-13762786D01*
X10609095Y-13762786D02*
X10609095Y-13715167D01*
X10609095Y-13715167D02*
X10618619Y-13677071D01*
X10618619Y-13677071D02*
X10628143Y-13658024D01*
X10628143Y-13658024D02*
X10637667Y-13648500D01*
X10637667Y-13648500D02*
X10656714Y-13638976D01*
X10809095Y-13819928D02*
X10818619Y-13829452D01*
X10818619Y-13829452D02*
X10809095Y-13838976D01*
X10809095Y-13838976D02*
X10799572Y-13829452D01*
X10799572Y-13829452D02*
X10809095Y-13819928D01*
X10809095Y-13819928D02*
X10809095Y-13838976D01*
X10942429Y-13638976D02*
X10961476Y-13638976D01*
X10961476Y-13638976D02*
X10980524Y-13648500D01*
X10980524Y-13648500D02*
X10990048Y-13658024D01*
X10990048Y-13658024D02*
X10999572Y-13677071D01*
X10999572Y-13677071D02*
X11009095Y-13715167D01*
X11009095Y-13715167D02*
X11009095Y-13762786D01*
X11009095Y-13762786D02*
X10999572Y-13800881D01*
X10999572Y-13800881D02*
X10990048Y-13819928D01*
X10990048Y-13819928D02*
X10980524Y-13829452D01*
X10980524Y-13829452D02*
X10961476Y-13838976D01*
X10961476Y-13838976D02*
X10942429Y-13838976D01*
X10942429Y-13838976D02*
X10923381Y-13829452D01*
X10923381Y-13829452D02*
X10913857Y-13819928D01*
X10913857Y-13819928D02*
X10904333Y-13800881D01*
X10904333Y-13800881D02*
X10894810Y-13762786D01*
X10894810Y-13762786D02*
X10894810Y-13715167D01*
X10894810Y-13715167D02*
X10904333Y-13677071D01*
X10904333Y-13677071D02*
X10913857Y-13658024D01*
X10913857Y-13658024D02*
X10923381Y-13648500D01*
X10923381Y-13648500D02*
X10942429Y-13638976D01*
X11190048Y-13638976D02*
X11094810Y-13638976D01*
X11094810Y-13638976D02*
X11085286Y-13734214D01*
X11085286Y-13734214D02*
X11094810Y-13724690D01*
X11094810Y-13724690D02*
X11113857Y-13715167D01*
X11113857Y-13715167D02*
X11161476Y-13715167D01*
X11161476Y-13715167D02*
X11180524Y-13724690D01*
X11180524Y-13724690D02*
X11190048Y-13734214D01*
X11190048Y-13734214D02*
X11199571Y-13753262D01*
X11199571Y-13753262D02*
X11199571Y-13800881D01*
X11199571Y-13800881D02*
X11190048Y-13819928D01*
X11190048Y-13819928D02*
X11180524Y-13829452D01*
X11180524Y-13829452D02*
X11161476Y-13838976D01*
X11161476Y-13838976D02*
X11113857Y-13838976D01*
X11113857Y-13838976D02*
X11094810Y-13829452D01*
X11094810Y-13829452D02*
X11085286Y-13819928D01*
X11323381Y-13638976D02*
X11342429Y-13638976D01*
X11342429Y-13638976D02*
X11361476Y-13648500D01*
X11361476Y-13648500D02*
X11371000Y-13658024D01*
X11371000Y-13658024D02*
X11380524Y-13677071D01*
X11380524Y-13677071D02*
X11390048Y-13715167D01*
X11390048Y-13715167D02*
X11390048Y-13762786D01*
X11390048Y-13762786D02*
X11380524Y-13800881D01*
X11380524Y-13800881D02*
X11371000Y-13819928D01*
X11371000Y-13819928D02*
X11361476Y-13829452D01*
X11361476Y-13829452D02*
X11342429Y-13838976D01*
X11342429Y-13838976D02*
X11323381Y-13838976D01*
X11323381Y-13838976D02*
X11304333Y-13829452D01*
X11304333Y-13829452D02*
X11294810Y-13819928D01*
X11294810Y-13819928D02*
X11285286Y-13800881D01*
X11285286Y-13800881D02*
X11275762Y-13762786D01*
X11275762Y-13762786D02*
X11275762Y-13715167D01*
X11275762Y-13715167D02*
X11285286Y-13677071D01*
X11285286Y-13677071D02*
X11294810Y-13658024D01*
X11294810Y-13658024D02*
X11304333Y-13648500D01*
X11304333Y-13648500D02*
X11323381Y-13638976D01*
X11561476Y-13705643D02*
X11561476Y-13838976D01*
X11513857Y-13629452D02*
X11466238Y-13772309D01*
X11466238Y-13772309D02*
X11590048Y-13772309D01*
X11656714Y-13638976D02*
X11656714Y-13677071D01*
X11732905Y-13638976D02*
X11732905Y-13677071D01*
X11995762Y-13915167D02*
X11986238Y-13905643D01*
X11986238Y-13905643D02*
X11967191Y-13877071D01*
X11967191Y-13877071D02*
X11957667Y-13858024D01*
X11957667Y-13858024D02*
X11948143Y-13829452D01*
X11948143Y-13829452D02*
X11938619Y-13781833D01*
X11938619Y-13781833D02*
X11938619Y-13743738D01*
X11938619Y-13743738D02*
X11948143Y-13696119D01*
X11948143Y-13696119D02*
X11957667Y-13667548D01*
X11957667Y-13667548D02*
X11967191Y-13648500D01*
X11967191Y-13648500D02*
X11986238Y-13619928D01*
X11986238Y-13619928D02*
X11995762Y-13610405D01*
X12176714Y-13838976D02*
X12062429Y-13838976D01*
X12119571Y-13838976D02*
X12119571Y-13638976D01*
X12119571Y-13638976D02*
X12100524Y-13667548D01*
X12100524Y-13667548D02*
X12081476Y-13686595D01*
X12081476Y-13686595D02*
X12062429Y-13696119D01*
X12300524Y-13638976D02*
X12319572Y-13638976D01*
X12319572Y-13638976D02*
X12338619Y-13648500D01*
X12338619Y-13648500D02*
X12348143Y-13658024D01*
X12348143Y-13658024D02*
X12357667Y-13677071D01*
X12357667Y-13677071D02*
X12367191Y-13715167D01*
X12367191Y-13715167D02*
X12367191Y-13762786D01*
X12367191Y-13762786D02*
X12357667Y-13800881D01*
X12357667Y-13800881D02*
X12348143Y-13819928D01*
X12348143Y-13819928D02*
X12338619Y-13829452D01*
X12338619Y-13829452D02*
X12319572Y-13838976D01*
X12319572Y-13838976D02*
X12300524Y-13838976D01*
X12300524Y-13838976D02*
X12281476Y-13829452D01*
X12281476Y-13829452D02*
X12271952Y-13819928D01*
X12271952Y-13819928D02*
X12262429Y-13800881D01*
X12262429Y-13800881D02*
X12252905Y-13762786D01*
X12252905Y-13762786D02*
X12252905Y-13715167D01*
X12252905Y-13715167D02*
X12262429Y-13677071D01*
X12262429Y-13677071D02*
X12271952Y-13658024D01*
X12271952Y-13658024D02*
X12281476Y-13648500D01*
X12281476Y-13648500D02*
X12300524Y-13638976D01*
X12572905Y-13838976D02*
X12572905Y-13638976D01*
X12658619Y-13838976D02*
X12658619Y-13734214D01*
X12658619Y-13734214D02*
X12649095Y-13715167D01*
X12649095Y-13715167D02*
X12630048Y-13705643D01*
X12630048Y-13705643D02*
X12601476Y-13705643D01*
X12601476Y-13705643D02*
X12582429Y-13715167D01*
X12582429Y-13715167D02*
X12572905Y-13724690D01*
X12782429Y-13838976D02*
X12763381Y-13829452D01*
X12763381Y-13829452D02*
X12753857Y-13819928D01*
X12753857Y-13819928D02*
X12744333Y-13800881D01*
X12744333Y-13800881D02*
X12744333Y-13743738D01*
X12744333Y-13743738D02*
X12753857Y-13724690D01*
X12753857Y-13724690D02*
X12763381Y-13715167D01*
X12763381Y-13715167D02*
X12782429Y-13705643D01*
X12782429Y-13705643D02*
X12811000Y-13705643D01*
X12811000Y-13705643D02*
X12830048Y-13715167D01*
X12830048Y-13715167D02*
X12839572Y-13724690D01*
X12839572Y-13724690D02*
X12849095Y-13743738D01*
X12849095Y-13743738D02*
X12849095Y-13800881D01*
X12849095Y-13800881D02*
X12839572Y-13819928D01*
X12839572Y-13819928D02*
X12830048Y-13829452D01*
X12830048Y-13829452D02*
X12811000Y-13838976D01*
X12811000Y-13838976D02*
X12782429Y-13838976D01*
X12963381Y-13838976D02*
X12944333Y-13829452D01*
X12944333Y-13829452D02*
X12934810Y-13810405D01*
X12934810Y-13810405D02*
X12934810Y-13638976D01*
X13115762Y-13829452D02*
X13096714Y-13838976D01*
X13096714Y-13838976D02*
X13058619Y-13838976D01*
X13058619Y-13838976D02*
X13039572Y-13829452D01*
X13039572Y-13829452D02*
X13030048Y-13810405D01*
X13030048Y-13810405D02*
X13030048Y-13734214D01*
X13030048Y-13734214D02*
X13039572Y-13715167D01*
X13039572Y-13715167D02*
X13058619Y-13705643D01*
X13058619Y-13705643D02*
X13096714Y-13705643D01*
X13096714Y-13705643D02*
X13115762Y-13715167D01*
X13115762Y-13715167D02*
X13125286Y-13734214D01*
X13125286Y-13734214D02*
X13125286Y-13753262D01*
X13125286Y-13753262D02*
X13030048Y-13772309D01*
X13201476Y-13829452D02*
X13220524Y-13838976D01*
X13220524Y-13838976D02*
X13258619Y-13838976D01*
X13258619Y-13838976D02*
X13277667Y-13829452D01*
X13277667Y-13829452D02*
X13287191Y-13810405D01*
X13287191Y-13810405D02*
X13287191Y-13800881D01*
X13287191Y-13800881D02*
X13277667Y-13781833D01*
X13277667Y-13781833D02*
X13258619Y-13772309D01*
X13258619Y-13772309D02*
X13230048Y-13772309D01*
X13230048Y-13772309D02*
X13211000Y-13762786D01*
X13211000Y-13762786D02*
X13201476Y-13743738D01*
X13201476Y-13743738D02*
X13201476Y-13734214D01*
X13201476Y-13734214D02*
X13211000Y-13715167D01*
X13211000Y-13715167D02*
X13230048Y-13705643D01*
X13230048Y-13705643D02*
X13258619Y-13705643D01*
X13258619Y-13705643D02*
X13277667Y-13715167D01*
X13353857Y-13915167D02*
X13363381Y-13905643D01*
X13363381Y-13905643D02*
X13382429Y-13877071D01*
X13382429Y-13877071D02*
X13391953Y-13858024D01*
X13391953Y-13858024D02*
X13401476Y-13829452D01*
X13401476Y-13829452D02*
X13411000Y-13781833D01*
X13411000Y-13781833D02*
X13411000Y-13743738D01*
X13411000Y-13743738D02*
X13401476Y-13696119D01*
X13401476Y-13696119D02*
X13391953Y-13667548D01*
X13391953Y-13667548D02*
X13382429Y-13648500D01*
X13382429Y-13648500D02*
X13363381Y-13619928D01*
X13363381Y-13619928D02*
X13353857Y-13610405D01*
M02*
