%TF.GenerationSoftware,KiCad,Pcbnew,(7.0.0-0)*%
%TF.CreationDate,2023-03-21T10:01:05+09:00*%
%TF.ProjectId,pangaea-bottom-pinkey-0.25u,70616e67-6165-4612-9d62-6f74746f6d2d,1*%
%TF.SameCoordinates,Original*%
%TF.FileFunction,Drillmap*%
%TF.FilePolarity,Positive*%
%FSLAX45Y45*%
G04 Gerber Fmt 4.5, Leading zero omitted, Abs format (unit mm)*
G04 Created by KiCad (PCBNEW (7.0.0-0)) date 2023-03-21 10:01:05*
%MOMM*%
%LPD*%
G01*
G04 APERTURE LIST*
%ADD10C,0.150000*%
%ADD11C,0.200000*%
%ADD12C,0.195000*%
G04 APERTURE END LIST*
D10*
X8538500Y-13038625D02*
G75*
G03*
X8617875Y-13118000I79380J5D01*
G01*
X10365197Y-13117895D02*
G75*
G03*
X10443916Y-13037874I-1317J80025D01*
G01*
X10522875Y-5021750D02*
G75*
G03*
X10443500Y-5101125I5J-79380D01*
G01*
X10443916Y-13037874D02*
X10443689Y-12641627D01*
X8538500Y-5577375D02*
X8538500Y-13038625D01*
X10365197Y-13117898D02*
X8617875Y-13118000D01*
X10364125Y-5498000D02*
G75*
G03*
X10443500Y-5418625I-15J79390D01*
G01*
X10364125Y-5498000D02*
X8617875Y-5498000D01*
X10443500Y-5101125D02*
X10443500Y-5418625D01*
X10523064Y-12562252D02*
X12269125Y-12562375D01*
X12348500Y-5101125D02*
X12348500Y-12483000D01*
X10523064Y-12562249D02*
G75*
G03*
X10443689Y-12641627I6J-79381D01*
G01*
X12348500Y-5101125D02*
G75*
G03*
X12269125Y-5021750I-79370J5D01*
G01*
X8617875Y-5498000D02*
G75*
G03*
X8538500Y-5577375I5J-79380D01*
G01*
X12269125Y-5021750D02*
X10522875Y-5021750D01*
X12269125Y-12562380D02*
G75*
G03*
X12348500Y-12483000I-5J79380D01*
G01*
D11*
D12*
X8679128Y-7305500D02*
X8874128Y-7500500D01*
X8874128Y-7305500D02*
X8679128Y-7500500D01*
X8679128Y-11115500D02*
X8874128Y-11310500D01*
X8874128Y-11115500D02*
X8679128Y-11310500D01*
X12012880Y-6829250D02*
X12207880Y-7024250D01*
X12207880Y-6829250D02*
X12012880Y-7024250D01*
X12012880Y-10639250D02*
X12207880Y-10834250D01*
X12207880Y-10639250D02*
X12012880Y-10834250D01*
D11*
X8778619Y-13418976D02*
X8778619Y-13218976D01*
X8778619Y-13218976D02*
X8826238Y-13218976D01*
X8826238Y-13218976D02*
X8854810Y-13228500D01*
X8854810Y-13228500D02*
X8873857Y-13247548D01*
X8873857Y-13247548D02*
X8883381Y-13266595D01*
X8883381Y-13266595D02*
X8892905Y-13304690D01*
X8892905Y-13304690D02*
X8892905Y-13333262D01*
X8892905Y-13333262D02*
X8883381Y-13371357D01*
X8883381Y-13371357D02*
X8873857Y-13390405D01*
X8873857Y-13390405D02*
X8854810Y-13409452D01*
X8854810Y-13409452D02*
X8826238Y-13418976D01*
X8826238Y-13418976D02*
X8778619Y-13418976D01*
X8978619Y-13418976D02*
X8978619Y-13285643D01*
X8978619Y-13323738D02*
X8988143Y-13304690D01*
X8988143Y-13304690D02*
X8997667Y-13295167D01*
X8997667Y-13295167D02*
X9016714Y-13285643D01*
X9016714Y-13285643D02*
X9035762Y-13285643D01*
X9102429Y-13418976D02*
X9102429Y-13285643D01*
X9102429Y-13218976D02*
X9092905Y-13228500D01*
X9092905Y-13228500D02*
X9102429Y-13238024D01*
X9102429Y-13238024D02*
X9111952Y-13228500D01*
X9111952Y-13228500D02*
X9102429Y-13218976D01*
X9102429Y-13218976D02*
X9102429Y-13238024D01*
X9226238Y-13418976D02*
X9207190Y-13409452D01*
X9207190Y-13409452D02*
X9197667Y-13390405D01*
X9197667Y-13390405D02*
X9197667Y-13218976D01*
X9331000Y-13418976D02*
X9311952Y-13409452D01*
X9311952Y-13409452D02*
X9302429Y-13390405D01*
X9302429Y-13390405D02*
X9302429Y-13218976D01*
X9527190Y-13418976D02*
X9527190Y-13218976D01*
X9527190Y-13218976D02*
X9593857Y-13361833D01*
X9593857Y-13361833D02*
X9660524Y-13218976D01*
X9660524Y-13218976D02*
X9660524Y-13418976D01*
X9841476Y-13418976D02*
X9841476Y-13314214D01*
X9841476Y-13314214D02*
X9831952Y-13295167D01*
X9831952Y-13295167D02*
X9812905Y-13285643D01*
X9812905Y-13285643D02*
X9774809Y-13285643D01*
X9774809Y-13285643D02*
X9755762Y-13295167D01*
X9841476Y-13409452D02*
X9822429Y-13418976D01*
X9822429Y-13418976D02*
X9774809Y-13418976D01*
X9774809Y-13418976D02*
X9755762Y-13409452D01*
X9755762Y-13409452D02*
X9746238Y-13390405D01*
X9746238Y-13390405D02*
X9746238Y-13371357D01*
X9746238Y-13371357D02*
X9755762Y-13352309D01*
X9755762Y-13352309D02*
X9774809Y-13342786D01*
X9774809Y-13342786D02*
X9822429Y-13342786D01*
X9822429Y-13342786D02*
X9841476Y-13333262D01*
X9936714Y-13285643D02*
X9936714Y-13485643D01*
X9936714Y-13295167D02*
X9955762Y-13285643D01*
X9955762Y-13285643D02*
X9993857Y-13285643D01*
X9993857Y-13285643D02*
X10012905Y-13295167D01*
X10012905Y-13295167D02*
X10022429Y-13304690D01*
X10022429Y-13304690D02*
X10031952Y-13323738D01*
X10031952Y-13323738D02*
X10031952Y-13380881D01*
X10031952Y-13380881D02*
X10022429Y-13399928D01*
X10022429Y-13399928D02*
X10012905Y-13409452D01*
X10012905Y-13409452D02*
X9993857Y-13418976D01*
X9993857Y-13418976D02*
X9955762Y-13418976D01*
X9955762Y-13418976D02*
X9936714Y-13409452D01*
X10117667Y-13399928D02*
X10127190Y-13409452D01*
X10127190Y-13409452D02*
X10117667Y-13418976D01*
X10117667Y-13418976D02*
X10108143Y-13409452D01*
X10108143Y-13409452D02*
X10117667Y-13399928D01*
X10117667Y-13399928D02*
X10117667Y-13418976D01*
X10117667Y-13295167D02*
X10127190Y-13304690D01*
X10127190Y-13304690D02*
X10117667Y-13314214D01*
X10117667Y-13314214D02*
X10108143Y-13304690D01*
X10108143Y-13304690D02*
X10117667Y-13295167D01*
X10117667Y-13295167D02*
X10117667Y-13314214D01*
D12*
X8336000Y-13668000D02*
X8531000Y-13863000D01*
X8531000Y-13668000D02*
X8336000Y-13863000D01*
D11*
X8883381Y-13838976D02*
X8769095Y-13838976D01*
X8826238Y-13838976D02*
X8826238Y-13638976D01*
X8826238Y-13638976D02*
X8807190Y-13667548D01*
X8807190Y-13667548D02*
X8788143Y-13686595D01*
X8788143Y-13686595D02*
X8769095Y-13696119D01*
X8969095Y-13819928D02*
X8978619Y-13829452D01*
X8978619Y-13829452D02*
X8969095Y-13838976D01*
X8969095Y-13838976D02*
X8959571Y-13829452D01*
X8959571Y-13829452D02*
X8969095Y-13819928D01*
X8969095Y-13819928D02*
X8969095Y-13838976D01*
X9073857Y-13838976D02*
X9111952Y-13838976D01*
X9111952Y-13838976D02*
X9131000Y-13829452D01*
X9131000Y-13829452D02*
X9140524Y-13819928D01*
X9140524Y-13819928D02*
X9159571Y-13791357D01*
X9159571Y-13791357D02*
X9169095Y-13753262D01*
X9169095Y-13753262D02*
X9169095Y-13677071D01*
X9169095Y-13677071D02*
X9159571Y-13658024D01*
X9159571Y-13658024D02*
X9150048Y-13648500D01*
X9150048Y-13648500D02*
X9131000Y-13638976D01*
X9131000Y-13638976D02*
X9092905Y-13638976D01*
X9092905Y-13638976D02*
X9073857Y-13648500D01*
X9073857Y-13648500D02*
X9064333Y-13658024D01*
X9064333Y-13658024D02*
X9054810Y-13677071D01*
X9054810Y-13677071D02*
X9054810Y-13724690D01*
X9054810Y-13724690D02*
X9064333Y-13743738D01*
X9064333Y-13743738D02*
X9073857Y-13753262D01*
X9073857Y-13753262D02*
X9092905Y-13762786D01*
X9092905Y-13762786D02*
X9131000Y-13762786D01*
X9131000Y-13762786D02*
X9150048Y-13753262D01*
X9150048Y-13753262D02*
X9159571Y-13743738D01*
X9159571Y-13743738D02*
X9169095Y-13724690D01*
X9350048Y-13638976D02*
X9254810Y-13638976D01*
X9254810Y-13638976D02*
X9245286Y-13734214D01*
X9245286Y-13734214D02*
X9254810Y-13724690D01*
X9254810Y-13724690D02*
X9273857Y-13715167D01*
X9273857Y-13715167D02*
X9321476Y-13715167D01*
X9321476Y-13715167D02*
X9340524Y-13724690D01*
X9340524Y-13724690D02*
X9350048Y-13734214D01*
X9350048Y-13734214D02*
X9359571Y-13753262D01*
X9359571Y-13753262D02*
X9359571Y-13800881D01*
X9359571Y-13800881D02*
X9350048Y-13819928D01*
X9350048Y-13819928D02*
X9340524Y-13829452D01*
X9340524Y-13829452D02*
X9321476Y-13838976D01*
X9321476Y-13838976D02*
X9273857Y-13838976D01*
X9273857Y-13838976D02*
X9254810Y-13829452D01*
X9254810Y-13829452D02*
X9245286Y-13819928D01*
X9483381Y-13638976D02*
X9502429Y-13638976D01*
X9502429Y-13638976D02*
X9521476Y-13648500D01*
X9521476Y-13648500D02*
X9531000Y-13658024D01*
X9531000Y-13658024D02*
X9540524Y-13677071D01*
X9540524Y-13677071D02*
X9550048Y-13715167D01*
X9550048Y-13715167D02*
X9550048Y-13762786D01*
X9550048Y-13762786D02*
X9540524Y-13800881D01*
X9540524Y-13800881D02*
X9531000Y-13819928D01*
X9531000Y-13819928D02*
X9521476Y-13829452D01*
X9521476Y-13829452D02*
X9502429Y-13838976D01*
X9502429Y-13838976D02*
X9483381Y-13838976D01*
X9483381Y-13838976D02*
X9464333Y-13829452D01*
X9464333Y-13829452D02*
X9454810Y-13819928D01*
X9454810Y-13819928D02*
X9445286Y-13800881D01*
X9445286Y-13800881D02*
X9435762Y-13762786D01*
X9435762Y-13762786D02*
X9435762Y-13715167D01*
X9435762Y-13715167D02*
X9445286Y-13677071D01*
X9445286Y-13677071D02*
X9454810Y-13658024D01*
X9454810Y-13658024D02*
X9464333Y-13648500D01*
X9464333Y-13648500D02*
X9483381Y-13638976D01*
X9635762Y-13838976D02*
X9635762Y-13705643D01*
X9635762Y-13724690D02*
X9645286Y-13715167D01*
X9645286Y-13715167D02*
X9664333Y-13705643D01*
X9664333Y-13705643D02*
X9692905Y-13705643D01*
X9692905Y-13705643D02*
X9711952Y-13715167D01*
X9711952Y-13715167D02*
X9721476Y-13734214D01*
X9721476Y-13734214D02*
X9721476Y-13838976D01*
X9721476Y-13734214D02*
X9731000Y-13715167D01*
X9731000Y-13715167D02*
X9750048Y-13705643D01*
X9750048Y-13705643D02*
X9778619Y-13705643D01*
X9778619Y-13705643D02*
X9797667Y-13715167D01*
X9797667Y-13715167D02*
X9807191Y-13734214D01*
X9807191Y-13734214D02*
X9807191Y-13838976D01*
X9902429Y-13838976D02*
X9902429Y-13705643D01*
X9902429Y-13724690D02*
X9911952Y-13715167D01*
X9911952Y-13715167D02*
X9931000Y-13705643D01*
X9931000Y-13705643D02*
X9959572Y-13705643D01*
X9959572Y-13705643D02*
X9978619Y-13715167D01*
X9978619Y-13715167D02*
X9988143Y-13734214D01*
X9988143Y-13734214D02*
X9988143Y-13838976D01*
X9988143Y-13734214D02*
X9997667Y-13715167D01*
X9997667Y-13715167D02*
X10016714Y-13705643D01*
X10016714Y-13705643D02*
X10045286Y-13705643D01*
X10045286Y-13705643D02*
X10064333Y-13715167D01*
X10064333Y-13715167D02*
X10073857Y-13734214D01*
X10073857Y-13734214D02*
X10073857Y-13838976D01*
X10431952Y-13629452D02*
X10260524Y-13886595D01*
X10656714Y-13638976D02*
X10675762Y-13638976D01*
X10675762Y-13638976D02*
X10694810Y-13648500D01*
X10694810Y-13648500D02*
X10704333Y-13658024D01*
X10704333Y-13658024D02*
X10713857Y-13677071D01*
X10713857Y-13677071D02*
X10723381Y-13715167D01*
X10723381Y-13715167D02*
X10723381Y-13762786D01*
X10723381Y-13762786D02*
X10713857Y-13800881D01*
X10713857Y-13800881D02*
X10704333Y-13819928D01*
X10704333Y-13819928D02*
X10694810Y-13829452D01*
X10694810Y-13829452D02*
X10675762Y-13838976D01*
X10675762Y-13838976D02*
X10656714Y-13838976D01*
X10656714Y-13838976D02*
X10637667Y-13829452D01*
X10637667Y-13829452D02*
X10628143Y-13819928D01*
X10628143Y-13819928D02*
X10618619Y-13800881D01*
X10618619Y-13800881D02*
X10609095Y-13762786D01*
X10609095Y-13762786D02*
X10609095Y-13715167D01*
X10609095Y-13715167D02*
X10618619Y-13677071D01*
X10618619Y-13677071D02*
X10628143Y-13658024D01*
X10628143Y-13658024D02*
X10637667Y-13648500D01*
X10637667Y-13648500D02*
X10656714Y-13638976D01*
X10809095Y-13819928D02*
X10818619Y-13829452D01*
X10818619Y-13829452D02*
X10809095Y-13838976D01*
X10809095Y-13838976D02*
X10799572Y-13829452D01*
X10799572Y-13829452D02*
X10809095Y-13819928D01*
X10809095Y-13819928D02*
X10809095Y-13838976D01*
X10942429Y-13638976D02*
X10961476Y-13638976D01*
X10961476Y-13638976D02*
X10980524Y-13648500D01*
X10980524Y-13648500D02*
X10990048Y-13658024D01*
X10990048Y-13658024D02*
X10999572Y-13677071D01*
X10999572Y-13677071D02*
X11009095Y-13715167D01*
X11009095Y-13715167D02*
X11009095Y-13762786D01*
X11009095Y-13762786D02*
X10999572Y-13800881D01*
X10999572Y-13800881D02*
X10990048Y-13819928D01*
X10990048Y-13819928D02*
X10980524Y-13829452D01*
X10980524Y-13829452D02*
X10961476Y-13838976D01*
X10961476Y-13838976D02*
X10942429Y-13838976D01*
X10942429Y-13838976D02*
X10923381Y-13829452D01*
X10923381Y-13829452D02*
X10913857Y-13819928D01*
X10913857Y-13819928D02*
X10904333Y-13800881D01*
X10904333Y-13800881D02*
X10894810Y-13762786D01*
X10894810Y-13762786D02*
X10894810Y-13715167D01*
X10894810Y-13715167D02*
X10904333Y-13677071D01*
X10904333Y-13677071D02*
X10913857Y-13658024D01*
X10913857Y-13658024D02*
X10923381Y-13648500D01*
X10923381Y-13648500D02*
X10942429Y-13638976D01*
X11075762Y-13638976D02*
X11209095Y-13638976D01*
X11209095Y-13638976D02*
X11123381Y-13838976D01*
X11371000Y-13638976D02*
X11332905Y-13638976D01*
X11332905Y-13638976D02*
X11313857Y-13648500D01*
X11313857Y-13648500D02*
X11304333Y-13658024D01*
X11304333Y-13658024D02*
X11285286Y-13686595D01*
X11285286Y-13686595D02*
X11275762Y-13724690D01*
X11275762Y-13724690D02*
X11275762Y-13800881D01*
X11275762Y-13800881D02*
X11285286Y-13819928D01*
X11285286Y-13819928D02*
X11294810Y-13829452D01*
X11294810Y-13829452D02*
X11313857Y-13838976D01*
X11313857Y-13838976D02*
X11351952Y-13838976D01*
X11351952Y-13838976D02*
X11371000Y-13829452D01*
X11371000Y-13829452D02*
X11380524Y-13819928D01*
X11380524Y-13819928D02*
X11390048Y-13800881D01*
X11390048Y-13800881D02*
X11390048Y-13753262D01*
X11390048Y-13753262D02*
X11380524Y-13734214D01*
X11380524Y-13734214D02*
X11371000Y-13724690D01*
X11371000Y-13724690D02*
X11351952Y-13715167D01*
X11351952Y-13715167D02*
X11313857Y-13715167D01*
X11313857Y-13715167D02*
X11294810Y-13724690D01*
X11294810Y-13724690D02*
X11285286Y-13734214D01*
X11285286Y-13734214D02*
X11275762Y-13753262D01*
X11504333Y-13724690D02*
X11485286Y-13715167D01*
X11485286Y-13715167D02*
X11475762Y-13705643D01*
X11475762Y-13705643D02*
X11466238Y-13686595D01*
X11466238Y-13686595D02*
X11466238Y-13677071D01*
X11466238Y-13677071D02*
X11475762Y-13658024D01*
X11475762Y-13658024D02*
X11485286Y-13648500D01*
X11485286Y-13648500D02*
X11504333Y-13638976D01*
X11504333Y-13638976D02*
X11542429Y-13638976D01*
X11542429Y-13638976D02*
X11561476Y-13648500D01*
X11561476Y-13648500D02*
X11571000Y-13658024D01*
X11571000Y-13658024D02*
X11580524Y-13677071D01*
X11580524Y-13677071D02*
X11580524Y-13686595D01*
X11580524Y-13686595D02*
X11571000Y-13705643D01*
X11571000Y-13705643D02*
X11561476Y-13715167D01*
X11561476Y-13715167D02*
X11542429Y-13724690D01*
X11542429Y-13724690D02*
X11504333Y-13724690D01*
X11504333Y-13724690D02*
X11485286Y-13734214D01*
X11485286Y-13734214D02*
X11475762Y-13743738D01*
X11475762Y-13743738D02*
X11466238Y-13762786D01*
X11466238Y-13762786D02*
X11466238Y-13800881D01*
X11466238Y-13800881D02*
X11475762Y-13819928D01*
X11475762Y-13819928D02*
X11485286Y-13829452D01*
X11485286Y-13829452D02*
X11504333Y-13838976D01*
X11504333Y-13838976D02*
X11542429Y-13838976D01*
X11542429Y-13838976D02*
X11561476Y-13829452D01*
X11561476Y-13829452D02*
X11571000Y-13819928D01*
X11571000Y-13819928D02*
X11580524Y-13800881D01*
X11580524Y-13800881D02*
X11580524Y-13762786D01*
X11580524Y-13762786D02*
X11571000Y-13743738D01*
X11571000Y-13743738D02*
X11561476Y-13734214D01*
X11561476Y-13734214D02*
X11542429Y-13724690D01*
X11656714Y-13638976D02*
X11656714Y-13677071D01*
X11732905Y-13638976D02*
X11732905Y-13677071D01*
X11995762Y-13915167D02*
X11986238Y-13905643D01*
X11986238Y-13905643D02*
X11967191Y-13877071D01*
X11967191Y-13877071D02*
X11957667Y-13858024D01*
X11957667Y-13858024D02*
X11948143Y-13829452D01*
X11948143Y-13829452D02*
X11938619Y-13781833D01*
X11938619Y-13781833D02*
X11938619Y-13743738D01*
X11938619Y-13743738D02*
X11948143Y-13696119D01*
X11948143Y-13696119D02*
X11957667Y-13667548D01*
X11957667Y-13667548D02*
X11967191Y-13648500D01*
X11967191Y-13648500D02*
X11986238Y-13619928D01*
X11986238Y-13619928D02*
X11995762Y-13610405D01*
X12157667Y-13705643D02*
X12157667Y-13838976D01*
X12110048Y-13629452D02*
X12062429Y-13772309D01*
X12062429Y-13772309D02*
X12186238Y-13772309D01*
X12382429Y-13838976D02*
X12382429Y-13638976D01*
X12468143Y-13838976D02*
X12468143Y-13734214D01*
X12468143Y-13734214D02*
X12458619Y-13715167D01*
X12458619Y-13715167D02*
X12439572Y-13705643D01*
X12439572Y-13705643D02*
X12411000Y-13705643D01*
X12411000Y-13705643D02*
X12391952Y-13715167D01*
X12391952Y-13715167D02*
X12382429Y-13724690D01*
X12591952Y-13838976D02*
X12572905Y-13829452D01*
X12572905Y-13829452D02*
X12563381Y-13819928D01*
X12563381Y-13819928D02*
X12553857Y-13800881D01*
X12553857Y-13800881D02*
X12553857Y-13743738D01*
X12553857Y-13743738D02*
X12563381Y-13724690D01*
X12563381Y-13724690D02*
X12572905Y-13715167D01*
X12572905Y-13715167D02*
X12591952Y-13705643D01*
X12591952Y-13705643D02*
X12620524Y-13705643D01*
X12620524Y-13705643D02*
X12639572Y-13715167D01*
X12639572Y-13715167D02*
X12649095Y-13724690D01*
X12649095Y-13724690D02*
X12658619Y-13743738D01*
X12658619Y-13743738D02*
X12658619Y-13800881D01*
X12658619Y-13800881D02*
X12649095Y-13819928D01*
X12649095Y-13819928D02*
X12639572Y-13829452D01*
X12639572Y-13829452D02*
X12620524Y-13838976D01*
X12620524Y-13838976D02*
X12591952Y-13838976D01*
X12772905Y-13838976D02*
X12753857Y-13829452D01*
X12753857Y-13829452D02*
X12744333Y-13810405D01*
X12744333Y-13810405D02*
X12744333Y-13638976D01*
X12925286Y-13829452D02*
X12906238Y-13838976D01*
X12906238Y-13838976D02*
X12868143Y-13838976D01*
X12868143Y-13838976D02*
X12849095Y-13829452D01*
X12849095Y-13829452D02*
X12839572Y-13810405D01*
X12839572Y-13810405D02*
X12839572Y-13734214D01*
X12839572Y-13734214D02*
X12849095Y-13715167D01*
X12849095Y-13715167D02*
X12868143Y-13705643D01*
X12868143Y-13705643D02*
X12906238Y-13705643D01*
X12906238Y-13705643D02*
X12925286Y-13715167D01*
X12925286Y-13715167D02*
X12934810Y-13734214D01*
X12934810Y-13734214D02*
X12934810Y-13753262D01*
X12934810Y-13753262D02*
X12839572Y-13772309D01*
X13011000Y-13829452D02*
X13030048Y-13838976D01*
X13030048Y-13838976D02*
X13068143Y-13838976D01*
X13068143Y-13838976D02*
X13087191Y-13829452D01*
X13087191Y-13829452D02*
X13096714Y-13810405D01*
X13096714Y-13810405D02*
X13096714Y-13800881D01*
X13096714Y-13800881D02*
X13087191Y-13781833D01*
X13087191Y-13781833D02*
X13068143Y-13772309D01*
X13068143Y-13772309D02*
X13039572Y-13772309D01*
X13039572Y-13772309D02*
X13020524Y-13762786D01*
X13020524Y-13762786D02*
X13011000Y-13743738D01*
X13011000Y-13743738D02*
X13011000Y-13734214D01*
X13011000Y-13734214D02*
X13020524Y-13715167D01*
X13020524Y-13715167D02*
X13039572Y-13705643D01*
X13039572Y-13705643D02*
X13068143Y-13705643D01*
X13068143Y-13705643D02*
X13087191Y-13715167D01*
X13163381Y-13915167D02*
X13172905Y-13905643D01*
X13172905Y-13905643D02*
X13191953Y-13877071D01*
X13191953Y-13877071D02*
X13201476Y-13858024D01*
X13201476Y-13858024D02*
X13211000Y-13829452D01*
X13211000Y-13829452D02*
X13220524Y-13781833D01*
X13220524Y-13781833D02*
X13220524Y-13743738D01*
X13220524Y-13743738D02*
X13211000Y-13696119D01*
X13211000Y-13696119D02*
X13201476Y-13667548D01*
X13201476Y-13667548D02*
X13191953Y-13648500D01*
X13191953Y-13648500D02*
X13172905Y-13619928D01*
X13172905Y-13619928D02*
X13163381Y-13610405D01*
X13492905Y-13915167D02*
X13483381Y-13905643D01*
X13483381Y-13905643D02*
X13464333Y-13877071D01*
X13464333Y-13877071D02*
X13454810Y-13858024D01*
X13454810Y-13858024D02*
X13445286Y-13829452D01*
X13445286Y-13829452D02*
X13435762Y-13781833D01*
X13435762Y-13781833D02*
X13435762Y-13743738D01*
X13435762Y-13743738D02*
X13445286Y-13696119D01*
X13445286Y-13696119D02*
X13454810Y-13667548D01*
X13454810Y-13667548D02*
X13464333Y-13648500D01*
X13464333Y-13648500D02*
X13483381Y-13619928D01*
X13483381Y-13619928D02*
X13492905Y-13610405D01*
X13569095Y-13705643D02*
X13569095Y-13838976D01*
X13569095Y-13724690D02*
X13578619Y-13715167D01*
X13578619Y-13715167D02*
X13597667Y-13705643D01*
X13597667Y-13705643D02*
X13626238Y-13705643D01*
X13626238Y-13705643D02*
X13645286Y-13715167D01*
X13645286Y-13715167D02*
X13654810Y-13734214D01*
X13654810Y-13734214D02*
X13654810Y-13838976D01*
X13778619Y-13838976D02*
X13759572Y-13829452D01*
X13759572Y-13829452D02*
X13750048Y-13819928D01*
X13750048Y-13819928D02*
X13740524Y-13800881D01*
X13740524Y-13800881D02*
X13740524Y-13743738D01*
X13740524Y-13743738D02*
X13750048Y-13724690D01*
X13750048Y-13724690D02*
X13759572Y-13715167D01*
X13759572Y-13715167D02*
X13778619Y-13705643D01*
X13778619Y-13705643D02*
X13807191Y-13705643D01*
X13807191Y-13705643D02*
X13826238Y-13715167D01*
X13826238Y-13715167D02*
X13835762Y-13724690D01*
X13835762Y-13724690D02*
X13845286Y-13743738D01*
X13845286Y-13743738D02*
X13845286Y-13800881D01*
X13845286Y-13800881D02*
X13835762Y-13819928D01*
X13835762Y-13819928D02*
X13826238Y-13829452D01*
X13826238Y-13829452D02*
X13807191Y-13838976D01*
X13807191Y-13838976D02*
X13778619Y-13838976D01*
X13902429Y-13705643D02*
X13978619Y-13705643D01*
X13931000Y-13638976D02*
X13931000Y-13810405D01*
X13931000Y-13810405D02*
X13940524Y-13829452D01*
X13940524Y-13829452D02*
X13959572Y-13838976D01*
X13959572Y-13838976D02*
X13978619Y-13838976D01*
X14165286Y-13705643D02*
X14165286Y-13905643D01*
X14165286Y-13715167D02*
X14184333Y-13705643D01*
X14184333Y-13705643D02*
X14222429Y-13705643D01*
X14222429Y-13705643D02*
X14241476Y-13715167D01*
X14241476Y-13715167D02*
X14251000Y-13724690D01*
X14251000Y-13724690D02*
X14260524Y-13743738D01*
X14260524Y-13743738D02*
X14260524Y-13800881D01*
X14260524Y-13800881D02*
X14251000Y-13819928D01*
X14251000Y-13819928D02*
X14241476Y-13829452D01*
X14241476Y-13829452D02*
X14222429Y-13838976D01*
X14222429Y-13838976D02*
X14184333Y-13838976D01*
X14184333Y-13838976D02*
X14165286Y-13829452D01*
X14374810Y-13838976D02*
X14355762Y-13829452D01*
X14355762Y-13829452D02*
X14346238Y-13810405D01*
X14346238Y-13810405D02*
X14346238Y-13638976D01*
X14536714Y-13838976D02*
X14536714Y-13734214D01*
X14536714Y-13734214D02*
X14527191Y-13715167D01*
X14527191Y-13715167D02*
X14508143Y-13705643D01*
X14508143Y-13705643D02*
X14470048Y-13705643D01*
X14470048Y-13705643D02*
X14451000Y-13715167D01*
X14536714Y-13829452D02*
X14517667Y-13838976D01*
X14517667Y-13838976D02*
X14470048Y-13838976D01*
X14470048Y-13838976D02*
X14451000Y-13829452D01*
X14451000Y-13829452D02*
X14441476Y-13810405D01*
X14441476Y-13810405D02*
X14441476Y-13791357D01*
X14441476Y-13791357D02*
X14451000Y-13772309D01*
X14451000Y-13772309D02*
X14470048Y-13762786D01*
X14470048Y-13762786D02*
X14517667Y-13762786D01*
X14517667Y-13762786D02*
X14536714Y-13753262D01*
X14603381Y-13705643D02*
X14679572Y-13705643D01*
X14631953Y-13638976D02*
X14631953Y-13810405D01*
X14631953Y-13810405D02*
X14641476Y-13829452D01*
X14641476Y-13829452D02*
X14660524Y-13838976D01*
X14660524Y-13838976D02*
X14679572Y-13838976D01*
X14822429Y-13829452D02*
X14803381Y-13838976D01*
X14803381Y-13838976D02*
X14765286Y-13838976D01*
X14765286Y-13838976D02*
X14746238Y-13829452D01*
X14746238Y-13829452D02*
X14736714Y-13810405D01*
X14736714Y-13810405D02*
X14736714Y-13734214D01*
X14736714Y-13734214D02*
X14746238Y-13715167D01*
X14746238Y-13715167D02*
X14765286Y-13705643D01*
X14765286Y-13705643D02*
X14803381Y-13705643D01*
X14803381Y-13705643D02*
X14822429Y-13715167D01*
X14822429Y-13715167D02*
X14831953Y-13734214D01*
X14831953Y-13734214D02*
X14831953Y-13753262D01*
X14831953Y-13753262D02*
X14736714Y-13772309D01*
X15003381Y-13838976D02*
X15003381Y-13638976D01*
X15003381Y-13829452D02*
X14984334Y-13838976D01*
X14984334Y-13838976D02*
X14946238Y-13838976D01*
X14946238Y-13838976D02*
X14927191Y-13829452D01*
X14927191Y-13829452D02*
X14917667Y-13819928D01*
X14917667Y-13819928D02*
X14908143Y-13800881D01*
X14908143Y-13800881D02*
X14908143Y-13743738D01*
X14908143Y-13743738D02*
X14917667Y-13724690D01*
X14917667Y-13724690D02*
X14927191Y-13715167D01*
X14927191Y-13715167D02*
X14946238Y-13705643D01*
X14946238Y-13705643D02*
X14984334Y-13705643D01*
X14984334Y-13705643D02*
X15003381Y-13715167D01*
X15079572Y-13915167D02*
X15089095Y-13905643D01*
X15089095Y-13905643D02*
X15108143Y-13877071D01*
X15108143Y-13877071D02*
X15117667Y-13858024D01*
X15117667Y-13858024D02*
X15127191Y-13829452D01*
X15127191Y-13829452D02*
X15136714Y-13781833D01*
X15136714Y-13781833D02*
X15136714Y-13743738D01*
X15136714Y-13743738D02*
X15127191Y-13696119D01*
X15127191Y-13696119D02*
X15117667Y-13667548D01*
X15117667Y-13667548D02*
X15108143Y-13648500D01*
X15108143Y-13648500D02*
X15089095Y-13619928D01*
X15089095Y-13619928D02*
X15079572Y-13610405D01*
M02*
