M48
; DRILL file {KiCad (7.0.0-0)} date Friday, 24 February 2023 at 23:09:14
; FORMAT={-:-/ absolute / inch / decimal}
; #@! TF.CreationDate,2023-02-24T23:09:14+09:00
; #@! TF.GenerationSoftware,Kicad,Pcbnew,(7.0.0-0)
; #@! TF.FileFunction,NonPlated,1,2,NPTH
FMAT,2
INCH
; #@! TA.AperFunction,NonPlated,NPTH,ComponentDrill
T1C0.0197
; #@! TA.AperFunction,NonPlated,NPTH,ComponentDrill
T2C0.0661
; #@! TA.AperFunction,NonPlated,NPTH,ComponentDrill
T3C0.0669
; #@! TA.AperFunction,NonPlated,NPTH,ComponentDrill
T4C0.1929
%
G90
G05
T2
X7.8445Y-2.2945
X7.8445Y-3.052
X7.8445Y-3.8094
X7.8445Y-4.5669
X8.2776Y-2.2945
X8.2776Y-3.052
X8.2776Y-3.8094
X8.2776Y-4.5669
X8.5945Y-2.6902
X8.5945Y-3.4449
X8.5945Y-4.2028
X8.5945Y-4.9508
X9.0276Y-2.6902
X9.0276Y-3.4449
X9.0276Y-4.2028
X9.0276Y-4.9508
T3
X7.861Y-2.2945
X7.861Y-3.052
X7.861Y-3.8094
X7.861Y-4.5669
X8.261Y-2.2945
X8.261Y-3.052
X8.261Y-3.8094
X8.261Y-4.5669
X8.611Y-2.6902
X8.611Y-3.4449
X8.611Y-4.2028
X8.611Y-4.9508
X9.011Y-2.6902
X9.011Y-3.4449
X9.011Y-4.2028
X9.011Y-4.9508
T4
X8.061Y-2.2945
X8.061Y-3.052
X8.061Y-3.8094
X8.061Y-4.5669
X8.811Y-2.6902
X8.811Y-3.4449
X8.811Y-4.2028
X8.811Y-4.9508
T1
G00X8.2717Y-2.0799
M15
G01X8.2441Y-2.0799
M16
G05
G00X8.2717Y-2.8374
M15
G01X8.2441Y-2.8374
M16
G05
G00X8.2717Y-3.5949
M15
G01X8.2441Y-3.5949
M16
G05
G00X8.2717Y-4.3524
M15
G01X8.2441Y-4.3524
M16
G05
G00X9.0217Y-2.4756
M15
G01X8.9941Y-2.4756
M16
G05
G00X9.0217Y-3.2303
M15
G01X8.9941Y-3.2303
M16
G05
G00X9.0217Y-3.9882
M15
G01X8.9941Y-3.9882
M16
G05
G00X9.0217Y-4.7362
M15
G01X8.9941Y-4.7362
M16
G05
T0
M30
