%TF.GenerationSoftware,KiCad,Pcbnew,(7.0.0-0)*%
%TF.CreationDate,2023-02-24T23:09:16+09:00*%
%TF.ProjectId,pangaea-pcb-pinkey-k2-0.5ushift-right,70616e67-6165-4612-9d70-63622d70696e,rev?*%
%TF.SameCoordinates,Original*%
%TF.FileFunction,Legend,Top*%
%TF.FilePolarity,Positive*%
%FSLAX46Y46*%
G04 Gerber Fmt 4.6, Leading zero omitted, Abs format (unit mm)*
G04 Created by KiCad (PCBNEW (7.0.0-0)) date 2023-02-24 23:09:16*
%MOMM*%
%LPD*%
G01*
G04 APERTURE LIST*
%ADD10C,0.150000*%
G04 APERTURE END LIST*
D10*
X232015357Y-128149998D02*
X232015357Y-128649998D01*
X232801071Y-128649998D02*
X231301071Y-128649998D01*
X231301071Y-128649998D02*
X231301071Y-127935712D01*
X232729642Y-126792855D02*
X232801071Y-126935712D01*
X232801071Y-126935712D02*
X232801071Y-127221427D01*
X232801071Y-127221427D02*
X232729642Y-127364284D01*
X232729642Y-127364284D02*
X232586785Y-127435712D01*
X232586785Y-127435712D02*
X232015357Y-127435712D01*
X232015357Y-127435712D02*
X231872500Y-127364284D01*
X231872500Y-127364284D02*
X231801071Y-127221427D01*
X231801071Y-127221427D02*
X231801071Y-126935712D01*
X231801071Y-126935712D02*
X231872500Y-126792855D01*
X231872500Y-126792855D02*
X232015357Y-126721427D01*
X232015357Y-126721427D02*
X232158214Y-126721427D01*
X232158214Y-126721427D02*
X232301071Y-127435712D01*
X232801071Y-126078570D02*
X231301071Y-126078570D01*
X231872500Y-126078570D02*
X231801071Y-125935713D01*
X231801071Y-125935713D02*
X231801071Y-125649998D01*
X231801071Y-125649998D02*
X231872500Y-125507141D01*
X231872500Y-125507141D02*
X231943928Y-125435713D01*
X231943928Y-125435713D02*
X232086785Y-125364284D01*
X232086785Y-125364284D02*
X232515357Y-125364284D01*
X232515357Y-125364284D02*
X232658214Y-125435713D01*
X232658214Y-125435713D02*
X232729642Y-125507141D01*
X232729642Y-125507141D02*
X232801071Y-125649998D01*
X232801071Y-125649998D02*
X232801071Y-125935713D01*
X232801071Y-125935713D02*
X232729642Y-126078570D01*
X231443928Y-123892855D02*
X231372500Y-123821427D01*
X231372500Y-123821427D02*
X231301071Y-123678570D01*
X231301071Y-123678570D02*
X231301071Y-123321427D01*
X231301071Y-123321427D02*
X231372500Y-123178570D01*
X231372500Y-123178570D02*
X231443928Y-123107141D01*
X231443928Y-123107141D02*
X231586785Y-123035712D01*
X231586785Y-123035712D02*
X231729642Y-123035712D01*
X231729642Y-123035712D02*
X231943928Y-123107141D01*
X231943928Y-123107141D02*
X232801071Y-123964284D01*
X232801071Y-123964284D02*
X232801071Y-123035712D01*
X231301071Y-122535713D02*
X231301071Y-121607141D01*
X231301071Y-121607141D02*
X231872500Y-122107141D01*
X231872500Y-122107141D02*
X231872500Y-121892856D01*
X231872500Y-121892856D02*
X231943928Y-121749999D01*
X231943928Y-121749999D02*
X232015357Y-121678570D01*
X232015357Y-121678570D02*
X232158214Y-121607141D01*
X232158214Y-121607141D02*
X232515357Y-121607141D01*
X232515357Y-121607141D02*
X232658214Y-121678570D01*
X232658214Y-121678570D02*
X232729642Y-121749999D01*
X232729642Y-121749999D02*
X232801071Y-121892856D01*
X232801071Y-121892856D02*
X232801071Y-122321427D01*
X232801071Y-122321427D02*
X232729642Y-122464284D01*
X232729642Y-122464284D02*
X232658214Y-122535713D01*
X232729642Y-120892856D02*
X232801071Y-120892856D01*
X232801071Y-120892856D02*
X232943928Y-120964285D01*
X232943928Y-120964285D02*
X233015357Y-121035713D01*
X231443928Y-119421427D02*
X231372500Y-119349999D01*
X231372500Y-119349999D02*
X231301071Y-119207142D01*
X231301071Y-119207142D02*
X231301071Y-118849999D01*
X231301071Y-118849999D02*
X231372500Y-118707142D01*
X231372500Y-118707142D02*
X231443928Y-118635713D01*
X231443928Y-118635713D02*
X231586785Y-118564284D01*
X231586785Y-118564284D02*
X231729642Y-118564284D01*
X231729642Y-118564284D02*
X231943928Y-118635713D01*
X231943928Y-118635713D02*
X232801071Y-119492856D01*
X232801071Y-119492856D02*
X232801071Y-118564284D01*
X231301071Y-117635713D02*
X231301071Y-117492856D01*
X231301071Y-117492856D02*
X231372500Y-117349999D01*
X231372500Y-117349999D02*
X231443928Y-117278571D01*
X231443928Y-117278571D02*
X231586785Y-117207142D01*
X231586785Y-117207142D02*
X231872500Y-117135713D01*
X231872500Y-117135713D02*
X232229642Y-117135713D01*
X232229642Y-117135713D02*
X232515357Y-117207142D01*
X232515357Y-117207142D02*
X232658214Y-117278571D01*
X232658214Y-117278571D02*
X232729642Y-117349999D01*
X232729642Y-117349999D02*
X232801071Y-117492856D01*
X232801071Y-117492856D02*
X232801071Y-117635713D01*
X232801071Y-117635713D02*
X232729642Y-117778571D01*
X232729642Y-117778571D02*
X232658214Y-117849999D01*
X232658214Y-117849999D02*
X232515357Y-117921428D01*
X232515357Y-117921428D02*
X232229642Y-117992856D01*
X232229642Y-117992856D02*
X231872500Y-117992856D01*
X231872500Y-117992856D02*
X231586785Y-117921428D01*
X231586785Y-117921428D02*
X231443928Y-117849999D01*
X231443928Y-117849999D02*
X231372500Y-117778571D01*
X231372500Y-117778571D02*
X231301071Y-117635713D01*
X231443928Y-116564285D02*
X231372500Y-116492857D01*
X231372500Y-116492857D02*
X231301071Y-116350000D01*
X231301071Y-116350000D02*
X231301071Y-115992857D01*
X231301071Y-115992857D02*
X231372500Y-115850000D01*
X231372500Y-115850000D02*
X231443928Y-115778571D01*
X231443928Y-115778571D02*
X231586785Y-115707142D01*
X231586785Y-115707142D02*
X231729642Y-115707142D01*
X231729642Y-115707142D02*
X231943928Y-115778571D01*
X231943928Y-115778571D02*
X232801071Y-116635714D01*
X232801071Y-116635714D02*
X232801071Y-115707142D01*
X231301071Y-115207143D02*
X231301071Y-114278571D01*
X231301071Y-114278571D02*
X231872500Y-114778571D01*
X231872500Y-114778571D02*
X231872500Y-114564286D01*
X231872500Y-114564286D02*
X231943928Y-114421429D01*
X231943928Y-114421429D02*
X232015357Y-114350000D01*
X232015357Y-114350000D02*
X232158214Y-114278571D01*
X232158214Y-114278571D02*
X232515357Y-114278571D01*
X232515357Y-114278571D02*
X232658214Y-114350000D01*
X232658214Y-114350000D02*
X232729642Y-114421429D01*
X232729642Y-114421429D02*
X232801071Y-114564286D01*
X232801071Y-114564286D02*
X232801071Y-114992857D01*
X232801071Y-114992857D02*
X232729642Y-115135714D01*
X232729642Y-115135714D02*
X232658214Y-115207143D01*
X231950714Y-133238094D02*
X231950714Y-132523809D01*
X231522142Y-132952380D02*
X232807857Y-133238094D01*
X232379285Y-132619047D02*
X232379285Y-133333332D01*
X232807857Y-132904761D02*
X231522142Y-132619047D01*
X232617380Y-131666666D02*
X232617380Y-132238094D01*
X232617380Y-131952380D02*
X231617380Y-131952380D01*
X231617380Y-131952380D02*
X231760238Y-132047618D01*
X231760238Y-132047618D02*
X231855476Y-132142856D01*
X231855476Y-132142856D02*
X231903095Y-132238094D01*
X231617380Y-130761904D02*
X231617380Y-131238094D01*
X231617380Y-131238094D02*
X232093571Y-131285713D01*
X232093571Y-131285713D02*
X232045952Y-131238094D01*
X232045952Y-131238094D02*
X231998333Y-131142856D01*
X231998333Y-131142856D02*
X231998333Y-130904761D01*
X231998333Y-130904761D02*
X232045952Y-130809523D01*
X232045952Y-130809523D02*
X232093571Y-130761904D01*
X232093571Y-130761904D02*
X232188809Y-130714285D01*
X232188809Y-130714285D02*
X232426904Y-130714285D01*
X232426904Y-130714285D02*
X232522142Y-130761904D01*
X232522142Y-130761904D02*
X232569761Y-130809523D01*
X232569761Y-130809523D02*
X232617380Y-130904761D01*
X232617380Y-130904761D02*
X232617380Y-131142856D01*
X232617380Y-131142856D02*
X232569761Y-131238094D01*
X232569761Y-131238094D02*
X232522142Y-131285713D01*
X232045952Y-130142856D02*
X231998333Y-130238094D01*
X231998333Y-130238094D02*
X231950714Y-130285713D01*
X231950714Y-130285713D02*
X231855476Y-130333332D01*
X231855476Y-130333332D02*
X231807857Y-130333332D01*
X231807857Y-130333332D02*
X231712619Y-130285713D01*
X231712619Y-130285713D02*
X231665000Y-130238094D01*
X231665000Y-130238094D02*
X231617380Y-130142856D01*
X231617380Y-130142856D02*
X231617380Y-129952380D01*
X231617380Y-129952380D02*
X231665000Y-129857142D01*
X231665000Y-129857142D02*
X231712619Y-129809523D01*
X231712619Y-129809523D02*
X231807857Y-129761904D01*
X231807857Y-129761904D02*
X231855476Y-129761904D01*
X231855476Y-129761904D02*
X231950714Y-129809523D01*
X231950714Y-129809523D02*
X231998333Y-129857142D01*
X231998333Y-129857142D02*
X232045952Y-129952380D01*
X232045952Y-129952380D02*
X232045952Y-130142856D01*
X232045952Y-130142856D02*
X232093571Y-130238094D01*
X232093571Y-130238094D02*
X232141190Y-130285713D01*
X232141190Y-130285713D02*
X232236428Y-130333332D01*
X232236428Y-130333332D02*
X232426904Y-130333332D01*
X232426904Y-130333332D02*
X232522142Y-130285713D01*
X232522142Y-130285713D02*
X232569761Y-130238094D01*
X232569761Y-130238094D02*
X232617380Y-130142856D01*
X232617380Y-130142856D02*
X232617380Y-129952380D01*
X232617380Y-129952380D02*
X232569761Y-129857142D01*
X232569761Y-129857142D02*
X232522142Y-129809523D01*
X232522142Y-129809523D02*
X232426904Y-129761904D01*
X232426904Y-129761904D02*
X232236428Y-129761904D01*
X232236428Y-129761904D02*
X232141190Y-129809523D01*
X232141190Y-129809523D02*
X232093571Y-129857142D01*
X232093571Y-129857142D02*
X232045952Y-129952380D01*
%TO.C,SW13*%
X198003125Y-51533125D02*
X199590625Y-51533125D01*
X198003125Y-53120625D02*
X198003125Y-51533125D01*
X198003125Y-65026875D02*
X198003125Y-63439375D01*
X199590625Y-65026875D02*
X198003125Y-65026875D01*
X209909375Y-51533125D02*
X211496875Y-51533125D01*
X211496875Y-51533125D02*
X211496875Y-53120625D01*
X211496875Y-63439375D02*
X211496875Y-65026875D01*
X211496875Y-65026875D02*
X209909375Y-65026875D01*
%TO.C,SW33*%
X198003125Y-90013125D02*
X199590625Y-90013125D01*
X198003125Y-91600625D02*
X198003125Y-90013125D01*
X198003125Y-103506875D02*
X198003125Y-101919375D01*
X199590625Y-103506875D02*
X198003125Y-103506875D01*
X209909375Y-90013125D02*
X211496875Y-90013125D01*
X211496875Y-90013125D02*
X211496875Y-91600625D01*
X211496875Y-101919375D02*
X211496875Y-103506875D01*
X211496875Y-103506875D02*
X209909375Y-103506875D01*
%TO.C,SW34*%
X217053125Y-100003125D02*
X218640625Y-100003125D01*
X217053125Y-101590625D02*
X217053125Y-100003125D01*
X217053125Y-113496875D02*
X217053125Y-111909375D01*
X218640625Y-113496875D02*
X217053125Y-113496875D01*
X228959375Y-100003125D02*
X230546875Y-100003125D01*
X230546875Y-100003125D02*
X230546875Y-101590625D01*
X230546875Y-111909375D02*
X230546875Y-113496875D01*
X230546875Y-113496875D02*
X228959375Y-113496875D01*
%TO.C,SW18*%
X217053125Y-80753125D02*
X218640625Y-80753125D01*
X217053125Y-82340625D02*
X217053125Y-80753125D01*
X217053125Y-94246875D02*
X217053125Y-92659375D01*
X218640625Y-94246875D02*
X217053125Y-94246875D01*
X228959375Y-80753125D02*
X230546875Y-80753125D01*
X230546875Y-80753125D02*
X230546875Y-82340625D01*
X230546875Y-92659375D02*
X230546875Y-94246875D01*
X230546875Y-94246875D02*
X228959375Y-94246875D01*
%TO.C,SW14*%
X217053125Y-61583125D02*
X218640625Y-61583125D01*
X217053125Y-63170625D02*
X217053125Y-61583125D01*
X217053125Y-75076875D02*
X217053125Y-73489375D01*
X218640625Y-75076875D02*
X217053125Y-75076875D01*
X228959375Y-61583125D02*
X230546875Y-61583125D01*
X230546875Y-61583125D02*
X230546875Y-63170625D01*
X230546875Y-73489375D02*
X230546875Y-75076875D01*
X230546875Y-75076875D02*
X228959375Y-75076875D01*
%TO.C,SW38*%
X217053125Y-119003125D02*
X218640625Y-119003125D01*
X217053125Y-120590625D02*
X217053125Y-119003125D01*
X217053125Y-132496875D02*
X217053125Y-130909375D01*
X218640625Y-132496875D02*
X217053125Y-132496875D01*
X228959375Y-119003125D02*
X230546875Y-119003125D01*
X230546875Y-119003125D02*
X230546875Y-120590625D01*
X230546875Y-130909375D02*
X230546875Y-132496875D01*
X230546875Y-132496875D02*
X228959375Y-132496875D01*
%TO.C,SW17*%
X198003125Y-70773125D02*
X199590625Y-70773125D01*
X198003125Y-72360625D02*
X198003125Y-70773125D01*
X198003125Y-84266875D02*
X198003125Y-82679375D01*
X199590625Y-84266875D02*
X198003125Y-84266875D01*
X209909375Y-70773125D02*
X211496875Y-70773125D01*
X211496875Y-70773125D02*
X211496875Y-72360625D01*
X211496875Y-82679375D02*
X211496875Y-84266875D01*
X211496875Y-84266875D02*
X209909375Y-84266875D01*
%TO.C,SW37*%
X198003125Y-109253125D02*
X199590625Y-109253125D01*
X198003125Y-110840625D02*
X198003125Y-109253125D01*
X198003125Y-122746875D02*
X198003125Y-121159375D01*
X199590625Y-122746875D02*
X198003125Y-122746875D01*
X209909375Y-109253125D02*
X211496875Y-109253125D01*
X211496875Y-109253125D02*
X211496875Y-110840625D01*
X211496875Y-121159375D02*
X211496875Y-122746875D01*
X211496875Y-122746875D02*
X209909375Y-122746875D01*
%TD*%
M02*
