%TF.GenerationSoftware,KiCad,Pcbnew,(7.0.0-0)*%
%TF.CreationDate,2023-02-24T23:09:16+09:00*%
%TF.ProjectId,pangaea-pcb-pinkey-k2-0.5ushift-right,70616e67-6165-4612-9d70-63622d70696e,rev?*%
%TF.SameCoordinates,Original*%
%TF.FileFunction,Legend,Bot*%
%TF.FilePolarity,Positive*%
%FSLAX46Y46*%
G04 Gerber Fmt 4.6, Leading zero omitted, Abs format (unit mm)*
G04 Created by KiCad (PCBNEW (7.0.0-0)) date 2023-02-24 23:09:16*
%MOMM*%
%LPD*%
G01*
G04 APERTURE LIST*
%ADD10C,0.150000*%
%ADD11C,0.200000*%
%ADD12C,0.120000*%
G04 APERTURE END LIST*
D10*
%TO.C,SW13*%
X197450000Y-59680000D02*
X197450000Y-64280000D01*
X198650000Y-53430000D02*
X198650000Y-57375000D01*
X198650000Y-57384000D02*
X202260000Y-57384000D01*
X201250000Y-64305000D02*
X197475000Y-64305000D01*
X202175000Y-59655000D02*
X197450000Y-59655000D01*
X202470000Y-65580000D02*
X203350000Y-66480000D01*
X206150000Y-66480000D02*
X203350000Y-66480000D01*
X207025000Y-61855000D02*
X204475000Y-61855000D01*
X207050000Y-61880000D02*
X207050000Y-65580000D01*
X207050000Y-65580000D02*
X206150000Y-66480000D01*
X209550000Y-51476000D02*
X200925000Y-51476000D01*
X209550000Y-55480000D02*
X204150000Y-55480000D01*
X209550000Y-55480000D02*
X209550000Y-51476000D01*
X200925000Y-51476000D02*
G75*
G03*
X198650000Y-53430000I-102171J-2182411D01*
G01*
X202470000Y-65580000D02*
G75*
G03*
X201250000Y-64305000I-1275736J482D01*
G01*
X204150000Y-55480000D02*
G75*
G03*
X202260000Y-57384000I-61523J-1828981D01*
G01*
X202175001Y-59655000D02*
G75*
G03*
X204475000Y-61855000I2277996J79269D01*
G01*
%TO.C,SW33*%
X197450000Y-98160000D02*
X197450000Y-102760000D01*
X198650000Y-91910000D02*
X198650000Y-95855000D01*
X198650000Y-95864000D02*
X202260000Y-95864000D01*
X201250000Y-102785000D02*
X197475000Y-102785000D01*
X202175000Y-98135000D02*
X197450000Y-98135000D01*
X202470000Y-104060000D02*
X203350000Y-104960000D01*
X206150000Y-104960000D02*
X203350000Y-104960000D01*
X207025000Y-100335000D02*
X204475000Y-100335000D01*
X207050000Y-100360000D02*
X207050000Y-104060000D01*
X207050000Y-104060000D02*
X206150000Y-104960000D01*
X209550000Y-89956000D02*
X200925000Y-89956000D01*
X209550000Y-93960000D02*
X204150000Y-93960000D01*
X209550000Y-93960000D02*
X209550000Y-89956000D01*
X200925000Y-89956000D02*
G75*
G03*
X198650000Y-91910000I-102171J-2182411D01*
G01*
X202470000Y-104060000D02*
G75*
G03*
X201250000Y-102785000I-1275736J482D01*
G01*
X204150000Y-93960000D02*
G75*
G03*
X202260000Y-95864000I-61523J-1828981D01*
G01*
X202175001Y-98135000D02*
G75*
G03*
X204475000Y-100335000I2277996J79269D01*
G01*
%TO.C,SW34*%
X216500000Y-108150000D02*
X216500000Y-112750000D01*
X217700000Y-101900000D02*
X217700000Y-105845000D01*
X217700000Y-105854000D02*
X221310000Y-105854000D01*
X220300000Y-112775000D02*
X216525000Y-112775000D01*
X221225000Y-108125000D02*
X216500000Y-108125000D01*
X221520000Y-114050000D02*
X222400000Y-114950000D01*
X225200000Y-114950000D02*
X222400000Y-114950000D01*
X226075000Y-110325000D02*
X223525000Y-110325000D01*
X226100000Y-110350000D02*
X226100000Y-114050000D01*
X226100000Y-114050000D02*
X225200000Y-114950000D01*
X228600000Y-99946000D02*
X219975000Y-99946000D01*
X228600000Y-103950000D02*
X223200000Y-103950000D01*
X228600000Y-103950000D02*
X228600000Y-99946000D01*
X219975000Y-99946000D02*
G75*
G03*
X217700000Y-101900000I-102171J-2182411D01*
G01*
X221520000Y-114050000D02*
G75*
G03*
X220300000Y-112775000I-1275736J482D01*
G01*
X223200000Y-103950000D02*
G75*
G03*
X221310000Y-105854000I-61523J-1828981D01*
G01*
X221225001Y-108125000D02*
G75*
G03*
X223525000Y-110325000I2277996J79269D01*
G01*
%TO.C,SW18*%
X216500000Y-88900000D02*
X216500000Y-93500000D01*
X217700000Y-82650000D02*
X217700000Y-86595000D01*
X217700000Y-86604000D02*
X221310000Y-86604000D01*
X220300000Y-93525000D02*
X216525000Y-93525000D01*
X221225000Y-88875000D02*
X216500000Y-88875000D01*
X221520000Y-94800000D02*
X222400000Y-95700000D01*
X225200000Y-95700000D02*
X222400000Y-95700000D01*
X226075000Y-91075000D02*
X223525000Y-91075000D01*
X226100000Y-91100000D02*
X226100000Y-94800000D01*
X226100000Y-94800000D02*
X225200000Y-95700000D01*
X228600000Y-80696000D02*
X219975000Y-80696000D01*
X228600000Y-84700000D02*
X223200000Y-84700000D01*
X228600000Y-84700000D02*
X228600000Y-80696000D01*
X219975000Y-80696000D02*
G75*
G03*
X217700000Y-82650000I-102171J-2182411D01*
G01*
X221520000Y-94800000D02*
G75*
G03*
X220300000Y-93525000I-1275736J482D01*
G01*
X223200000Y-84700000D02*
G75*
G03*
X221310000Y-86604000I-61523J-1828981D01*
G01*
X221225001Y-88875000D02*
G75*
G03*
X223525000Y-91075000I2277996J79269D01*
G01*
%TO.C,SW14*%
X216500000Y-69730000D02*
X216500000Y-74330000D01*
X217700000Y-63480000D02*
X217700000Y-67425000D01*
X217700000Y-67434000D02*
X221310000Y-67434000D01*
X220300000Y-74355000D02*
X216525000Y-74355000D01*
X221225000Y-69705000D02*
X216500000Y-69705000D01*
X221520000Y-75630000D02*
X222400000Y-76530000D01*
X225200000Y-76530000D02*
X222400000Y-76530000D01*
X226075000Y-71905000D02*
X223525000Y-71905000D01*
X226100000Y-71930000D02*
X226100000Y-75630000D01*
X226100000Y-75630000D02*
X225200000Y-76530000D01*
X228600000Y-61526000D02*
X219975000Y-61526000D01*
X228600000Y-65530000D02*
X223200000Y-65530000D01*
X228600000Y-65530000D02*
X228600000Y-61526000D01*
X219975000Y-61526000D02*
G75*
G03*
X217700000Y-63480000I-102171J-2182411D01*
G01*
X221520000Y-75630000D02*
G75*
G03*
X220300000Y-74355000I-1275736J482D01*
G01*
X223200000Y-65530000D02*
G75*
G03*
X221310000Y-67434000I-61523J-1828981D01*
G01*
X221225001Y-69705000D02*
G75*
G03*
X223525000Y-71905000I2277996J79269D01*
G01*
%TO.C,SW38*%
X216500000Y-127150000D02*
X216500000Y-131750000D01*
X217700000Y-120900000D02*
X217700000Y-124845000D01*
X217700000Y-124854000D02*
X221310000Y-124854000D01*
X220300000Y-131775000D02*
X216525000Y-131775000D01*
X221225000Y-127125000D02*
X216500000Y-127125000D01*
X221520000Y-133050000D02*
X222400000Y-133950000D01*
X225200000Y-133950000D02*
X222400000Y-133950000D01*
X226075000Y-129325000D02*
X223525000Y-129325000D01*
X226100000Y-129350000D02*
X226100000Y-133050000D01*
X226100000Y-133050000D02*
X225200000Y-133950000D01*
X228600000Y-118946000D02*
X219975000Y-118946000D01*
X228600000Y-122950000D02*
X223200000Y-122950000D01*
X228600000Y-122950000D02*
X228600000Y-118946000D01*
X219975000Y-118946000D02*
G75*
G03*
X217700000Y-120900000I-102171J-2182411D01*
G01*
X221520000Y-133050000D02*
G75*
G03*
X220300000Y-131775000I-1275736J482D01*
G01*
X223200000Y-122950000D02*
G75*
G03*
X221310000Y-124854000I-61523J-1828981D01*
G01*
X221225001Y-127125000D02*
G75*
G03*
X223525000Y-129325000I2277996J79269D01*
G01*
D11*
%TO.C,D33*%
X202782818Y-88500000D02*
X202981256Y-88500000D01*
X202981256Y-87904686D02*
X202981256Y-89095314D01*
X202981256Y-89095314D02*
X204568760Y-89095314D01*
X203378132Y-89095314D02*
X203378132Y-87904686D01*
X204568760Y-87904686D02*
X202981256Y-87904686D01*
X204568760Y-88500000D02*
X204767198Y-88500000D01*
X204568760Y-89095314D02*
X204568760Y-87904686D01*
D10*
%TO.C,SW17*%
X197450000Y-78920000D02*
X197450000Y-83520000D01*
X198650000Y-72670000D02*
X198650000Y-76615000D01*
X198650000Y-76624000D02*
X202260000Y-76624000D01*
X201250000Y-83545000D02*
X197475000Y-83545000D01*
X202175000Y-78895000D02*
X197450000Y-78895000D01*
X202470000Y-84820000D02*
X203350000Y-85720000D01*
X206150000Y-85720000D02*
X203350000Y-85720000D01*
X207025000Y-81095000D02*
X204475000Y-81095000D01*
X207050000Y-81120000D02*
X207050000Y-84820000D01*
X207050000Y-84820000D02*
X206150000Y-85720000D01*
X209550000Y-70716000D02*
X200925000Y-70716000D01*
X209550000Y-74720000D02*
X204150000Y-74720000D01*
X209550000Y-74720000D02*
X209550000Y-70716000D01*
X200925000Y-70716000D02*
G75*
G03*
X198650000Y-72670000I-102171J-2182411D01*
G01*
X202470000Y-84820000D02*
G75*
G03*
X201250000Y-83545000I-1275736J482D01*
G01*
X204150000Y-74720000D02*
G75*
G03*
X202260000Y-76624000I-61523J-1828981D01*
G01*
X202175001Y-78895000D02*
G75*
G03*
X204475000Y-81095000I2277996J79269D01*
G01*
D11*
%TO.C,D14*%
X222782818Y-60250000D02*
X222981256Y-60250000D01*
X222981256Y-59654686D02*
X222981256Y-60845314D01*
X222981256Y-60845314D02*
X224568760Y-60845314D01*
X223378132Y-60845314D02*
X223378132Y-59654686D01*
X224568760Y-59654686D02*
X222981256Y-59654686D01*
X224568760Y-60250000D02*
X224767198Y-60250000D01*
X224568760Y-60845314D02*
X224568760Y-59654686D01*
%TO.C,D37*%
X203782818Y-108000000D02*
X203981256Y-108000000D01*
X203981256Y-107404686D02*
X203981256Y-108595314D01*
X203981256Y-108595314D02*
X205568760Y-108595314D01*
X204378132Y-108595314D02*
X204378132Y-107404686D01*
X205568760Y-107404686D02*
X203981256Y-107404686D01*
X205568760Y-108000000D02*
X205767198Y-108000000D01*
X205568760Y-108595314D02*
X205568760Y-107404686D01*
%TO.C,D38*%
X222757818Y-117500000D02*
X222956256Y-117500000D01*
X222956256Y-116904686D02*
X222956256Y-118095314D01*
X222956256Y-118095314D02*
X224543760Y-118095314D01*
X223353132Y-118095314D02*
X223353132Y-116904686D01*
X224543760Y-116904686D02*
X222956256Y-116904686D01*
X224543760Y-117500000D02*
X224742198Y-117500000D01*
X224543760Y-118095314D02*
X224543760Y-116904686D01*
%TO.C,D18*%
X222532818Y-79000000D02*
X222731256Y-79000000D01*
X222731256Y-78404686D02*
X222731256Y-79595314D01*
X222731256Y-79595314D02*
X224318760Y-79595314D01*
X223128132Y-79595314D02*
X223128132Y-78404686D01*
X224318760Y-78404686D02*
X222731256Y-78404686D01*
X224318760Y-79000000D02*
X224517198Y-79000000D01*
X224318760Y-79595314D02*
X224318760Y-78404686D01*
%TO.C,D34*%
X222782818Y-98500000D02*
X222981256Y-98500000D01*
X222981256Y-97904686D02*
X222981256Y-99095314D01*
X222981256Y-99095314D02*
X224568760Y-99095314D01*
X223378132Y-99095314D02*
X223378132Y-97904686D01*
X224568760Y-97904686D02*
X222981256Y-97904686D01*
X224568760Y-98500000D02*
X224767198Y-98500000D01*
X224568760Y-99095314D02*
X224568760Y-97904686D01*
D10*
%TO.C,SW37*%
X197450000Y-117400000D02*
X197450000Y-122000000D01*
X198650000Y-111150000D02*
X198650000Y-115095000D01*
X198650000Y-115104000D02*
X202260000Y-115104000D01*
X201250000Y-122025000D02*
X197475000Y-122025000D01*
X202175000Y-117375000D02*
X197450000Y-117375000D01*
X202470000Y-123300000D02*
X203350000Y-124200000D01*
X206150000Y-124200000D02*
X203350000Y-124200000D01*
X207025000Y-119575000D02*
X204475000Y-119575000D01*
X207050000Y-119600000D02*
X207050000Y-123300000D01*
X207050000Y-123300000D02*
X206150000Y-124200000D01*
X209550000Y-109196000D02*
X200925000Y-109196000D01*
X209550000Y-113200000D02*
X204150000Y-113200000D01*
X209550000Y-113200000D02*
X209550000Y-109196000D01*
X200925000Y-109196000D02*
G75*
G03*
X198650000Y-111150000I-102171J-2182411D01*
G01*
X202470000Y-123300000D02*
G75*
G03*
X201250000Y-122025000I-1275736J482D01*
G01*
X204150000Y-113200000D02*
G75*
G03*
X202260000Y-115104000I-61523J-1828981D01*
G01*
X202175001Y-117375000D02*
G75*
G03*
X204475000Y-119575000I2277996J79269D01*
G01*
D11*
%TO.C,D13*%
X203507818Y-50000000D02*
X203706256Y-50000000D01*
X203706256Y-49404686D02*
X203706256Y-50595314D01*
X203706256Y-50595314D02*
X205293760Y-50595314D01*
X204103132Y-50595314D02*
X204103132Y-49404686D01*
X205293760Y-49404686D02*
X203706256Y-49404686D01*
X205293760Y-50000000D02*
X205492198Y-50000000D01*
X205293760Y-50595314D02*
X205293760Y-49404686D01*
%TO.C,D17*%
X203257818Y-69250000D02*
X203456256Y-69250000D01*
X203456256Y-68654686D02*
X203456256Y-69845314D01*
X203456256Y-69845314D02*
X205043760Y-69845314D01*
X203853132Y-69845314D02*
X203853132Y-68654686D01*
X205043760Y-68654686D02*
X203456256Y-68654686D01*
X205043760Y-69250000D02*
X205242198Y-69250000D01*
X205043760Y-69845314D02*
X205043760Y-68654686D01*
D12*
%TO.C,J9*%
X216760000Y-101302500D02*
X215710000Y-101302500D01*
X216760000Y-100152500D02*
X216760000Y-101302500D01*
X215710000Y-101302500D02*
X215710000Y-102292500D01*
X215590000Y-97492500D02*
X211710000Y-97492500D01*
X210540000Y-101302500D02*
X211590000Y-101302500D01*
X210540000Y-100152500D02*
X210540000Y-101302500D01*
%TO.C,J8*%
X215560000Y-87860000D02*
X214510000Y-87860000D01*
X215560000Y-86710000D02*
X215560000Y-87860000D01*
X214510000Y-87860000D02*
X214510000Y-88850000D01*
X214390000Y-84050000D02*
X210510000Y-84050000D01*
X209340000Y-87860000D02*
X210390000Y-87860000D01*
X209340000Y-86710000D02*
X209340000Y-87860000D01*
%TD*%
M02*
