%TF.GenerationSoftware,KiCad,Pcbnew,(7.0.0-0)*%
%TF.CreationDate,2023-02-24T23:09:15+09:00*%
%TF.ProjectId,pangaea-pcb-pinkey-k2-0.5ushift-right,70616e67-6165-4612-9d70-63622d70696e,rev?*%
%TF.SameCoordinates,Original*%
%TF.FileFunction,Drillmap*%
%TF.FilePolarity,Positive*%
%FSLAX45Y45*%
G04 Gerber Fmt 4.5, Leading zero omitted, Abs format (unit mm)*
G04 Created by KiCad (PCBNEW (7.0.0-0)) date 2023-02-24 23:09:15*
%MOMM*%
%LPD*%
G01*
G04 APERTURE LIST*
%ADD10C,0.150000*%
%ADD11C,0.200000*%
%ADD12C,0.040000*%
%ADD13C,0.075000*%
%ADD14C,0.100000*%
%ADD15C,0.300000*%
G04 APERTURE END LIST*
D10*
X19526419Y-12475013D02*
G75*
G03*
X19607677Y-12552388I79252J1873D01*
G01*
X21516126Y-13505801D02*
X23252233Y-13504959D01*
X23341007Y-5941660D02*
G75*
G03*
X23281000Y-5861552I-82647J620D01*
G01*
X23281000Y-5861551D02*
X21516785Y-5863107D01*
X19607677Y-12552388D02*
X21363515Y-12551551D01*
X19599346Y-4893749D02*
G75*
G03*
X19527411Y-4971632I2294J-74281D01*
G01*
X21434030Y-4963873D02*
X21431971Y-5793229D01*
X21436749Y-13426426D02*
G75*
G03*
X21516126Y-13505801I79381J6D01*
G01*
X21434034Y-4963871D02*
G75*
G03*
X21349215Y-4893995I-102794J-38359D01*
G01*
X23252233Y-13504958D02*
G75*
G03*
X23331608Y-13425584I-4J79379D01*
G01*
X21431974Y-5793228D02*
G75*
G03*
X21516785Y-5863107I102806J38368D01*
G01*
X23341008Y-5941660D02*
X23331608Y-13425584D01*
X21437000Y-12631551D02*
X21436751Y-13426426D01*
X19527411Y-4971632D02*
X19526411Y-12475013D01*
X21349215Y-4893995D02*
X19599346Y-4893751D01*
X21436997Y-12631551D02*
G75*
G03*
X21363515Y-12551551I-80277J12D01*
G01*
D11*
D12*
X20848880Y-5705220D02*
X20888880Y-5745220D01*
X20888880Y-5705220D02*
X20848880Y-5745220D01*
X21059620Y-7909310D02*
X21099620Y-7949310D01*
X21099620Y-7909310D02*
X21059620Y-7949310D01*
D13*
X20097500Y-8850000D02*
G75*
G03*
X20097500Y-8850000I-37500J0D01*
G01*
X20145000Y-6925000D02*
G75*
G03*
X20145000Y-6925000I-37500J0D01*
G01*
X20170000Y-5000000D02*
G75*
G03*
X20170000Y-5000000I-37500J0D01*
G01*
X20197500Y-10800000D02*
G75*
G03*
X20197500Y-10800000I-37500J0D01*
G01*
X20732500Y-8850000D02*
G75*
G03*
X20732500Y-8850000I-37500J0D01*
G01*
X20780000Y-6925000D02*
G75*
G03*
X20780000Y-6925000I-37500J0D01*
G01*
X20805000Y-5000000D02*
G75*
G03*
X20805000Y-5000000I-37500J0D01*
G01*
X20832500Y-10800000D02*
G75*
G03*
X20832500Y-10800000I-37500J0D01*
G01*
X22072500Y-7900000D02*
G75*
G03*
X22072500Y-7900000I-37500J0D01*
G01*
X22095000Y-11750000D02*
G75*
G03*
X22095000Y-11750000I-37500J0D01*
G01*
X22097500Y-6025000D02*
G75*
G03*
X22097500Y-6025000I-37500J0D01*
G01*
X22097500Y-9850000D02*
G75*
G03*
X22097500Y-9850000I-37500J0D01*
G01*
X22707500Y-7900000D02*
G75*
G03*
X22707500Y-7900000I-37500J0D01*
G01*
X22730000Y-11750000D02*
G75*
G03*
X22730000Y-11750000I-37500J0D01*
G01*
X22732500Y-6025000D02*
G75*
G03*
X22732500Y-6025000I-37500J0D01*
G01*
X22732500Y-9850000D02*
G75*
G03*
X22732500Y-9850000I-37500J0D01*
G01*
D14*
X20965000Y-8475000D02*
X20965000Y-8575000D01*
X20915000Y-8525000D02*
X21015000Y-8525000D01*
X21085000Y-9819250D02*
X21085000Y-9919250D01*
X21035000Y-9869250D02*
X21135000Y-9869250D01*
X21525000Y-8475000D02*
X21525000Y-8575000D01*
X21475000Y-8525000D02*
X21575000Y-8525000D01*
X21645000Y-9819250D02*
X21645000Y-9919250D01*
X21595000Y-9869250D02*
X21695000Y-9869250D01*
D15*
X20081067Y-6304067D02*
X20081067Y-6091933D01*
X19868933Y-6091933D01*
X19868933Y-6304067D01*
X20081067Y-6304067D01*
X20081067Y-8228067D02*
X20081067Y-8015933D01*
X19868933Y-8015933D01*
X19868933Y-8228067D01*
X20081067Y-8228067D01*
X20081067Y-10152067D02*
X20081067Y-9939933D01*
X19868933Y-9939933D01*
X19868933Y-10152067D01*
X20081067Y-10152067D01*
X20081067Y-12076067D02*
X20081067Y-11863933D01*
X19868933Y-11863933D01*
X19868933Y-12076067D01*
X20081067Y-12076067D01*
X20200067Y-5680067D02*
X20200067Y-5467933D01*
X19987933Y-5467933D01*
X19987933Y-5680067D01*
X20200067Y-5680067D01*
X20200067Y-7604067D02*
X20200067Y-7391933D01*
X19987933Y-7391933D01*
X19987933Y-7604067D01*
X20200067Y-7604067D01*
X20200067Y-9528067D02*
X20200067Y-9315933D01*
X19987933Y-9315933D01*
X19987933Y-9528067D01*
X20200067Y-9528067D01*
X20200067Y-11452067D02*
X20200067Y-11239933D01*
X19987933Y-11239933D01*
X19987933Y-11452067D01*
X20200067Y-11452067D01*
X20581067Y-6524067D02*
X20581067Y-6311933D01*
X20368933Y-6311933D01*
X20368933Y-6524067D01*
X20581067Y-6524067D01*
X20581067Y-8448067D02*
X20581067Y-8235933D01*
X20368933Y-8235933D01*
X20368933Y-8448067D01*
X20581067Y-8448067D01*
X20581067Y-10372067D02*
X20581067Y-10159933D01*
X20368933Y-10159933D01*
X20368933Y-10372067D01*
X20581067Y-10372067D01*
X20581067Y-12296067D02*
X20581067Y-12083933D01*
X20368933Y-12083933D01*
X20368933Y-12296067D01*
X20581067Y-12296067D01*
X20835067Y-5426067D02*
X20835067Y-5213933D01*
X20622933Y-5213933D01*
X20622933Y-5426067D01*
X20835067Y-5426067D01*
X20835067Y-7350067D02*
X20835067Y-7137933D01*
X20622933Y-7137933D01*
X20622933Y-7350067D01*
X20835067Y-7350067D01*
X20835067Y-9274067D02*
X20835067Y-9061933D01*
X20622933Y-9061933D01*
X20622933Y-9274067D01*
X20835067Y-9274067D01*
X20835067Y-11198067D02*
X20835067Y-10985933D01*
X20622933Y-10985933D01*
X20622933Y-11198067D01*
X20835067Y-11198067D01*
X21986067Y-7309067D02*
X21986067Y-7096933D01*
X21773933Y-7096933D01*
X21773933Y-7309067D01*
X21986067Y-7309067D01*
X21986067Y-9226067D02*
X21986067Y-9013933D01*
X21773933Y-9013933D01*
X21773933Y-9226067D01*
X21986067Y-9226067D01*
X21986067Y-11151067D02*
X21986067Y-10938933D01*
X21773933Y-10938933D01*
X21773933Y-11151067D01*
X21986067Y-11151067D01*
X21986067Y-13051067D02*
X21986067Y-12838933D01*
X21773933Y-12838933D01*
X21773933Y-13051067D01*
X21986067Y-13051067D01*
X22105067Y-6685067D02*
X22105067Y-6472933D01*
X21892933Y-6472933D01*
X21892933Y-6685067D01*
X22105067Y-6685067D01*
X22105067Y-8602067D02*
X22105067Y-8389933D01*
X21892933Y-8389933D01*
X21892933Y-8602067D01*
X22105067Y-8602067D01*
X22105067Y-10527067D02*
X22105067Y-10314933D01*
X21892933Y-10314933D01*
X21892933Y-10527067D01*
X22105067Y-10527067D01*
X22105067Y-12427067D02*
X22105067Y-12214933D01*
X21892933Y-12214933D01*
X21892933Y-12427067D01*
X22105067Y-12427067D01*
X22486067Y-7529067D02*
X22486067Y-7316933D01*
X22273933Y-7316933D01*
X22273933Y-7529067D01*
X22486067Y-7529067D01*
X22486067Y-9446067D02*
X22486067Y-9233933D01*
X22273933Y-9233933D01*
X22273933Y-9446067D01*
X22486067Y-9446067D01*
X22486067Y-11371067D02*
X22486067Y-11158933D01*
X22273933Y-11158933D01*
X22273933Y-11371067D01*
X22486067Y-11371067D01*
X22486067Y-13271067D02*
X22486067Y-13058933D01*
X22273933Y-13058933D01*
X22273933Y-13271067D01*
X22486067Y-13271067D01*
X22740067Y-6431067D02*
X22740067Y-6218933D01*
X22527933Y-6218933D01*
X22527933Y-6431067D01*
X22740067Y-6431067D01*
X22740067Y-8348067D02*
X22740067Y-8135933D01*
X22527933Y-8135933D01*
X22527933Y-8348067D01*
X22740067Y-8348067D01*
X22740067Y-10273067D02*
X22740067Y-10060933D01*
X22527933Y-10060933D01*
X22527933Y-10273067D01*
X22740067Y-10273067D01*
X22740067Y-12173067D02*
X22740067Y-11960933D01*
X22527933Y-11960933D01*
X22527933Y-12173067D01*
X22740067Y-12173067D01*
D11*
X19766530Y-13806777D02*
X19766530Y-13606777D01*
X19766530Y-13606777D02*
X19814149Y-13606777D01*
X19814149Y-13606777D02*
X19842721Y-13616301D01*
X19842721Y-13616301D02*
X19861768Y-13635348D01*
X19861768Y-13635348D02*
X19871292Y-13654396D01*
X19871292Y-13654396D02*
X19880816Y-13692491D01*
X19880816Y-13692491D02*
X19880816Y-13721063D01*
X19880816Y-13721063D02*
X19871292Y-13759158D01*
X19871292Y-13759158D02*
X19861768Y-13778205D01*
X19861768Y-13778205D02*
X19842721Y-13797253D01*
X19842721Y-13797253D02*
X19814149Y-13806777D01*
X19814149Y-13806777D02*
X19766530Y-13806777D01*
X19966530Y-13806777D02*
X19966530Y-13673444D01*
X19966530Y-13711539D02*
X19976054Y-13692491D01*
X19976054Y-13692491D02*
X19985578Y-13682967D01*
X19985578Y-13682967D02*
X20004625Y-13673444D01*
X20004625Y-13673444D02*
X20023673Y-13673444D01*
X20090340Y-13806777D02*
X20090340Y-13673444D01*
X20090340Y-13606777D02*
X20080816Y-13616301D01*
X20080816Y-13616301D02*
X20090340Y-13625825D01*
X20090340Y-13625825D02*
X20099864Y-13616301D01*
X20099864Y-13616301D02*
X20090340Y-13606777D01*
X20090340Y-13606777D02*
X20090340Y-13625825D01*
X20214149Y-13806777D02*
X20195102Y-13797253D01*
X20195102Y-13797253D02*
X20185578Y-13778205D01*
X20185578Y-13778205D02*
X20185578Y-13606777D01*
X20318911Y-13806777D02*
X20299864Y-13797253D01*
X20299864Y-13797253D02*
X20290340Y-13778205D01*
X20290340Y-13778205D02*
X20290340Y-13606777D01*
X20515102Y-13806777D02*
X20515102Y-13606777D01*
X20515102Y-13606777D02*
X20581768Y-13749634D01*
X20581768Y-13749634D02*
X20648435Y-13606777D01*
X20648435Y-13606777D02*
X20648435Y-13806777D01*
X20829387Y-13806777D02*
X20829387Y-13702015D01*
X20829387Y-13702015D02*
X20819864Y-13682967D01*
X20819864Y-13682967D02*
X20800816Y-13673444D01*
X20800816Y-13673444D02*
X20762721Y-13673444D01*
X20762721Y-13673444D02*
X20743673Y-13682967D01*
X20829387Y-13797253D02*
X20810340Y-13806777D01*
X20810340Y-13806777D02*
X20762721Y-13806777D01*
X20762721Y-13806777D02*
X20743673Y-13797253D01*
X20743673Y-13797253D02*
X20734149Y-13778205D01*
X20734149Y-13778205D02*
X20734149Y-13759158D01*
X20734149Y-13759158D02*
X20743673Y-13740110D01*
X20743673Y-13740110D02*
X20762721Y-13730586D01*
X20762721Y-13730586D02*
X20810340Y-13730586D01*
X20810340Y-13730586D02*
X20829387Y-13721063D01*
X20924625Y-13673444D02*
X20924625Y-13873444D01*
X20924625Y-13682967D02*
X20943673Y-13673444D01*
X20943673Y-13673444D02*
X20981768Y-13673444D01*
X20981768Y-13673444D02*
X21000816Y-13682967D01*
X21000816Y-13682967D02*
X21010340Y-13692491D01*
X21010340Y-13692491D02*
X21019864Y-13711539D01*
X21019864Y-13711539D02*
X21019864Y-13768682D01*
X21019864Y-13768682D02*
X21010340Y-13787729D01*
X21010340Y-13787729D02*
X21000816Y-13797253D01*
X21000816Y-13797253D02*
X20981768Y-13806777D01*
X20981768Y-13806777D02*
X20943673Y-13806777D01*
X20943673Y-13806777D02*
X20924625Y-13797253D01*
X21105578Y-13787729D02*
X21115102Y-13797253D01*
X21115102Y-13797253D02*
X21105578Y-13806777D01*
X21105578Y-13806777D02*
X21096054Y-13797253D01*
X21096054Y-13797253D02*
X21105578Y-13787729D01*
X21105578Y-13787729D02*
X21105578Y-13806777D01*
X21105578Y-13682967D02*
X21115102Y-13692491D01*
X21115102Y-13692491D02*
X21105578Y-13702015D01*
X21105578Y-13702015D02*
X21096054Y-13692491D01*
X21096054Y-13692491D02*
X21105578Y-13682967D01*
X21105578Y-13682967D02*
X21105578Y-13702015D01*
D12*
X19478911Y-14133301D02*
X19518911Y-14173301D01*
X19518911Y-14133301D02*
X19478911Y-14173301D01*
D11*
X19804625Y-14026777D02*
X19823673Y-14026777D01*
X19823673Y-14026777D02*
X19842721Y-14036301D01*
X19842721Y-14036301D02*
X19852245Y-14045825D01*
X19852245Y-14045825D02*
X19861768Y-14064872D01*
X19861768Y-14064872D02*
X19871292Y-14102967D01*
X19871292Y-14102967D02*
X19871292Y-14150586D01*
X19871292Y-14150586D02*
X19861768Y-14188682D01*
X19861768Y-14188682D02*
X19852245Y-14207729D01*
X19852245Y-14207729D02*
X19842721Y-14217253D01*
X19842721Y-14217253D02*
X19823673Y-14226777D01*
X19823673Y-14226777D02*
X19804625Y-14226777D01*
X19804625Y-14226777D02*
X19785578Y-14217253D01*
X19785578Y-14217253D02*
X19776054Y-14207729D01*
X19776054Y-14207729D02*
X19766530Y-14188682D01*
X19766530Y-14188682D02*
X19757006Y-14150586D01*
X19757006Y-14150586D02*
X19757006Y-14102967D01*
X19757006Y-14102967D02*
X19766530Y-14064872D01*
X19766530Y-14064872D02*
X19776054Y-14045825D01*
X19776054Y-14045825D02*
X19785578Y-14036301D01*
X19785578Y-14036301D02*
X19804625Y-14026777D01*
X19957006Y-14207729D02*
X19966530Y-14217253D01*
X19966530Y-14217253D02*
X19957006Y-14226777D01*
X19957006Y-14226777D02*
X19947483Y-14217253D01*
X19947483Y-14217253D02*
X19957006Y-14207729D01*
X19957006Y-14207729D02*
X19957006Y-14226777D01*
X20137959Y-14093444D02*
X20137959Y-14226777D01*
X20090340Y-14017253D02*
X20042721Y-14160110D01*
X20042721Y-14160110D02*
X20166530Y-14160110D01*
X20280816Y-14026777D02*
X20299864Y-14026777D01*
X20299864Y-14026777D02*
X20318911Y-14036301D01*
X20318911Y-14036301D02*
X20328435Y-14045825D01*
X20328435Y-14045825D02*
X20337959Y-14064872D01*
X20337959Y-14064872D02*
X20347483Y-14102967D01*
X20347483Y-14102967D02*
X20347483Y-14150586D01*
X20347483Y-14150586D02*
X20337959Y-14188682D01*
X20337959Y-14188682D02*
X20328435Y-14207729D01*
X20328435Y-14207729D02*
X20318911Y-14217253D01*
X20318911Y-14217253D02*
X20299864Y-14226777D01*
X20299864Y-14226777D02*
X20280816Y-14226777D01*
X20280816Y-14226777D02*
X20261768Y-14217253D01*
X20261768Y-14217253D02*
X20252245Y-14207729D01*
X20252245Y-14207729D02*
X20242721Y-14188682D01*
X20242721Y-14188682D02*
X20233197Y-14150586D01*
X20233197Y-14150586D02*
X20233197Y-14102967D01*
X20233197Y-14102967D02*
X20242721Y-14064872D01*
X20242721Y-14064872D02*
X20252245Y-14045825D01*
X20252245Y-14045825D02*
X20261768Y-14036301D01*
X20261768Y-14036301D02*
X20280816Y-14026777D01*
X20471292Y-14026777D02*
X20490340Y-14026777D01*
X20490340Y-14026777D02*
X20509387Y-14036301D01*
X20509387Y-14036301D02*
X20518911Y-14045825D01*
X20518911Y-14045825D02*
X20528435Y-14064872D01*
X20528435Y-14064872D02*
X20537959Y-14102967D01*
X20537959Y-14102967D02*
X20537959Y-14150586D01*
X20537959Y-14150586D02*
X20528435Y-14188682D01*
X20528435Y-14188682D02*
X20518911Y-14207729D01*
X20518911Y-14207729D02*
X20509387Y-14217253D01*
X20509387Y-14217253D02*
X20490340Y-14226777D01*
X20490340Y-14226777D02*
X20471292Y-14226777D01*
X20471292Y-14226777D02*
X20452245Y-14217253D01*
X20452245Y-14217253D02*
X20442721Y-14207729D01*
X20442721Y-14207729D02*
X20433197Y-14188682D01*
X20433197Y-14188682D02*
X20423673Y-14150586D01*
X20423673Y-14150586D02*
X20423673Y-14102967D01*
X20423673Y-14102967D02*
X20433197Y-14064872D01*
X20433197Y-14064872D02*
X20442721Y-14045825D01*
X20442721Y-14045825D02*
X20452245Y-14036301D01*
X20452245Y-14036301D02*
X20471292Y-14026777D01*
X20623673Y-14226777D02*
X20623673Y-14093444D01*
X20623673Y-14112491D02*
X20633197Y-14102967D01*
X20633197Y-14102967D02*
X20652245Y-14093444D01*
X20652245Y-14093444D02*
X20680816Y-14093444D01*
X20680816Y-14093444D02*
X20699864Y-14102967D01*
X20699864Y-14102967D02*
X20709387Y-14122015D01*
X20709387Y-14122015D02*
X20709387Y-14226777D01*
X20709387Y-14122015D02*
X20718911Y-14102967D01*
X20718911Y-14102967D02*
X20737959Y-14093444D01*
X20737959Y-14093444D02*
X20766530Y-14093444D01*
X20766530Y-14093444D02*
X20785578Y-14102967D01*
X20785578Y-14102967D02*
X20795102Y-14122015D01*
X20795102Y-14122015D02*
X20795102Y-14226777D01*
X20890340Y-14226777D02*
X20890340Y-14093444D01*
X20890340Y-14112491D02*
X20899864Y-14102967D01*
X20899864Y-14102967D02*
X20918911Y-14093444D01*
X20918911Y-14093444D02*
X20947483Y-14093444D01*
X20947483Y-14093444D02*
X20966530Y-14102967D01*
X20966530Y-14102967D02*
X20976054Y-14122015D01*
X20976054Y-14122015D02*
X20976054Y-14226777D01*
X20976054Y-14122015D02*
X20985578Y-14102967D01*
X20985578Y-14102967D02*
X21004626Y-14093444D01*
X21004626Y-14093444D02*
X21033197Y-14093444D01*
X21033197Y-14093444D02*
X21052245Y-14102967D01*
X21052245Y-14102967D02*
X21061768Y-14122015D01*
X21061768Y-14122015D02*
X21061768Y-14226777D01*
X21419864Y-14017253D02*
X21248435Y-14274396D01*
X21644626Y-14026777D02*
X21663673Y-14026777D01*
X21663673Y-14026777D02*
X21682721Y-14036301D01*
X21682721Y-14036301D02*
X21692245Y-14045825D01*
X21692245Y-14045825D02*
X21701768Y-14064872D01*
X21701768Y-14064872D02*
X21711292Y-14102967D01*
X21711292Y-14102967D02*
X21711292Y-14150586D01*
X21711292Y-14150586D02*
X21701768Y-14188682D01*
X21701768Y-14188682D02*
X21692245Y-14207729D01*
X21692245Y-14207729D02*
X21682721Y-14217253D01*
X21682721Y-14217253D02*
X21663673Y-14226777D01*
X21663673Y-14226777D02*
X21644626Y-14226777D01*
X21644626Y-14226777D02*
X21625578Y-14217253D01*
X21625578Y-14217253D02*
X21616054Y-14207729D01*
X21616054Y-14207729D02*
X21606530Y-14188682D01*
X21606530Y-14188682D02*
X21597007Y-14150586D01*
X21597007Y-14150586D02*
X21597007Y-14102967D01*
X21597007Y-14102967D02*
X21606530Y-14064872D01*
X21606530Y-14064872D02*
X21616054Y-14045825D01*
X21616054Y-14045825D02*
X21625578Y-14036301D01*
X21625578Y-14036301D02*
X21644626Y-14026777D01*
X21797007Y-14207729D02*
X21806530Y-14217253D01*
X21806530Y-14217253D02*
X21797007Y-14226777D01*
X21797007Y-14226777D02*
X21787483Y-14217253D01*
X21787483Y-14217253D02*
X21797007Y-14207729D01*
X21797007Y-14207729D02*
X21797007Y-14226777D01*
X21930340Y-14026777D02*
X21949388Y-14026777D01*
X21949388Y-14026777D02*
X21968435Y-14036301D01*
X21968435Y-14036301D02*
X21977959Y-14045825D01*
X21977959Y-14045825D02*
X21987483Y-14064872D01*
X21987483Y-14064872D02*
X21997007Y-14102967D01*
X21997007Y-14102967D02*
X21997007Y-14150586D01*
X21997007Y-14150586D02*
X21987483Y-14188682D01*
X21987483Y-14188682D02*
X21977959Y-14207729D01*
X21977959Y-14207729D02*
X21968435Y-14217253D01*
X21968435Y-14217253D02*
X21949388Y-14226777D01*
X21949388Y-14226777D02*
X21930340Y-14226777D01*
X21930340Y-14226777D02*
X21911292Y-14217253D01*
X21911292Y-14217253D02*
X21901768Y-14207729D01*
X21901768Y-14207729D02*
X21892245Y-14188682D01*
X21892245Y-14188682D02*
X21882721Y-14150586D01*
X21882721Y-14150586D02*
X21882721Y-14102967D01*
X21882721Y-14102967D02*
X21892245Y-14064872D01*
X21892245Y-14064872D02*
X21901768Y-14045825D01*
X21901768Y-14045825D02*
X21911292Y-14036301D01*
X21911292Y-14036301D02*
X21930340Y-14026777D01*
X22187483Y-14226777D02*
X22073197Y-14226777D01*
X22130340Y-14226777D02*
X22130340Y-14026777D01*
X22130340Y-14026777D02*
X22111292Y-14055348D01*
X22111292Y-14055348D02*
X22092245Y-14074396D01*
X22092245Y-14074396D02*
X22073197Y-14083920D01*
X22368435Y-14026777D02*
X22273197Y-14026777D01*
X22273197Y-14026777D02*
X22263673Y-14122015D01*
X22263673Y-14122015D02*
X22273197Y-14112491D01*
X22273197Y-14112491D02*
X22292245Y-14102967D01*
X22292245Y-14102967D02*
X22339864Y-14102967D01*
X22339864Y-14102967D02*
X22358911Y-14112491D01*
X22358911Y-14112491D02*
X22368435Y-14122015D01*
X22368435Y-14122015D02*
X22377959Y-14141063D01*
X22377959Y-14141063D02*
X22377959Y-14188682D01*
X22377959Y-14188682D02*
X22368435Y-14207729D01*
X22368435Y-14207729D02*
X22358911Y-14217253D01*
X22358911Y-14217253D02*
X22339864Y-14226777D01*
X22339864Y-14226777D02*
X22292245Y-14226777D01*
X22292245Y-14226777D02*
X22273197Y-14217253D01*
X22273197Y-14217253D02*
X22263673Y-14207729D01*
X22444626Y-14026777D02*
X22577959Y-14026777D01*
X22577959Y-14026777D02*
X22492245Y-14226777D01*
X22644626Y-14026777D02*
X22644626Y-14064872D01*
X22720816Y-14026777D02*
X22720816Y-14064872D01*
X22983673Y-14302967D02*
X22974149Y-14293444D01*
X22974149Y-14293444D02*
X22955102Y-14264872D01*
X22955102Y-14264872D02*
X22945578Y-14245825D01*
X22945578Y-14245825D02*
X22936054Y-14217253D01*
X22936054Y-14217253D02*
X22926530Y-14169634D01*
X22926530Y-14169634D02*
X22926530Y-14131539D01*
X22926530Y-14131539D02*
X22936054Y-14083920D01*
X22936054Y-14083920D02*
X22945578Y-14055348D01*
X22945578Y-14055348D02*
X22955102Y-14036301D01*
X22955102Y-14036301D02*
X22974149Y-14007729D01*
X22974149Y-14007729D02*
X22983673Y-13998205D01*
X23050340Y-14045825D02*
X23059864Y-14036301D01*
X23059864Y-14036301D02*
X23078911Y-14026777D01*
X23078911Y-14026777D02*
X23126530Y-14026777D01*
X23126530Y-14026777D02*
X23145578Y-14036301D01*
X23145578Y-14036301D02*
X23155102Y-14045825D01*
X23155102Y-14045825D02*
X23164626Y-14064872D01*
X23164626Y-14064872D02*
X23164626Y-14083920D01*
X23164626Y-14083920D02*
X23155102Y-14112491D01*
X23155102Y-14112491D02*
X23040816Y-14226777D01*
X23040816Y-14226777D02*
X23164626Y-14226777D01*
X23370340Y-14226777D02*
X23370340Y-14026777D01*
X23456054Y-14226777D02*
X23456054Y-14122015D01*
X23456054Y-14122015D02*
X23446530Y-14102967D01*
X23446530Y-14102967D02*
X23427483Y-14093444D01*
X23427483Y-14093444D02*
X23398911Y-14093444D01*
X23398911Y-14093444D02*
X23379864Y-14102967D01*
X23379864Y-14102967D02*
X23370340Y-14112491D01*
X23579864Y-14226777D02*
X23560816Y-14217253D01*
X23560816Y-14217253D02*
X23551292Y-14207729D01*
X23551292Y-14207729D02*
X23541768Y-14188682D01*
X23541768Y-14188682D02*
X23541768Y-14131539D01*
X23541768Y-14131539D02*
X23551292Y-14112491D01*
X23551292Y-14112491D02*
X23560816Y-14102967D01*
X23560816Y-14102967D02*
X23579864Y-14093444D01*
X23579864Y-14093444D02*
X23608435Y-14093444D01*
X23608435Y-14093444D02*
X23627483Y-14102967D01*
X23627483Y-14102967D02*
X23637007Y-14112491D01*
X23637007Y-14112491D02*
X23646530Y-14131539D01*
X23646530Y-14131539D02*
X23646530Y-14188682D01*
X23646530Y-14188682D02*
X23637007Y-14207729D01*
X23637007Y-14207729D02*
X23627483Y-14217253D01*
X23627483Y-14217253D02*
X23608435Y-14226777D01*
X23608435Y-14226777D02*
X23579864Y-14226777D01*
X23760816Y-14226777D02*
X23741768Y-14217253D01*
X23741768Y-14217253D02*
X23732245Y-14198205D01*
X23732245Y-14198205D02*
X23732245Y-14026777D01*
X23913197Y-14217253D02*
X23894149Y-14226777D01*
X23894149Y-14226777D02*
X23856054Y-14226777D01*
X23856054Y-14226777D02*
X23837007Y-14217253D01*
X23837007Y-14217253D02*
X23827483Y-14198205D01*
X23827483Y-14198205D02*
X23827483Y-14122015D01*
X23827483Y-14122015D02*
X23837007Y-14102967D01*
X23837007Y-14102967D02*
X23856054Y-14093444D01*
X23856054Y-14093444D02*
X23894149Y-14093444D01*
X23894149Y-14093444D02*
X23913197Y-14102967D01*
X23913197Y-14102967D02*
X23922721Y-14122015D01*
X23922721Y-14122015D02*
X23922721Y-14141063D01*
X23922721Y-14141063D02*
X23827483Y-14160110D01*
X23998911Y-14217253D02*
X24017959Y-14226777D01*
X24017959Y-14226777D02*
X24056054Y-14226777D01*
X24056054Y-14226777D02*
X24075102Y-14217253D01*
X24075102Y-14217253D02*
X24084626Y-14198205D01*
X24084626Y-14198205D02*
X24084626Y-14188682D01*
X24084626Y-14188682D02*
X24075102Y-14169634D01*
X24075102Y-14169634D02*
X24056054Y-14160110D01*
X24056054Y-14160110D02*
X24027483Y-14160110D01*
X24027483Y-14160110D02*
X24008435Y-14150586D01*
X24008435Y-14150586D02*
X23998911Y-14131539D01*
X23998911Y-14131539D02*
X23998911Y-14122015D01*
X23998911Y-14122015D02*
X24008435Y-14102967D01*
X24008435Y-14102967D02*
X24027483Y-14093444D01*
X24027483Y-14093444D02*
X24056054Y-14093444D01*
X24056054Y-14093444D02*
X24075102Y-14102967D01*
X24151292Y-14302967D02*
X24160816Y-14293444D01*
X24160816Y-14293444D02*
X24179864Y-14264872D01*
X24179864Y-14264872D02*
X24189388Y-14245825D01*
X24189388Y-14245825D02*
X24198911Y-14217253D01*
X24198911Y-14217253D02*
X24208435Y-14169634D01*
X24208435Y-14169634D02*
X24208435Y-14131539D01*
X24208435Y-14131539D02*
X24198911Y-14083920D01*
X24198911Y-14083920D02*
X24189388Y-14055348D01*
X24189388Y-14055348D02*
X24179864Y-14036301D01*
X24179864Y-14036301D02*
X24160816Y-14007729D01*
X24160816Y-14007729D02*
X24151292Y-13998205D01*
D13*
X19518911Y-14417301D02*
G75*
G03*
X19518911Y-14417301I-37500J0D01*
G01*
D11*
X19804625Y-14290777D02*
X19823673Y-14290777D01*
X19823673Y-14290777D02*
X19842721Y-14300301D01*
X19842721Y-14300301D02*
X19852245Y-14309825D01*
X19852245Y-14309825D02*
X19861768Y-14328872D01*
X19861768Y-14328872D02*
X19871292Y-14366967D01*
X19871292Y-14366967D02*
X19871292Y-14414586D01*
X19871292Y-14414586D02*
X19861768Y-14452682D01*
X19861768Y-14452682D02*
X19852245Y-14471729D01*
X19852245Y-14471729D02*
X19842721Y-14481253D01*
X19842721Y-14481253D02*
X19823673Y-14490777D01*
X19823673Y-14490777D02*
X19804625Y-14490777D01*
X19804625Y-14490777D02*
X19785578Y-14481253D01*
X19785578Y-14481253D02*
X19776054Y-14471729D01*
X19776054Y-14471729D02*
X19766530Y-14452682D01*
X19766530Y-14452682D02*
X19757006Y-14414586D01*
X19757006Y-14414586D02*
X19757006Y-14366967D01*
X19757006Y-14366967D02*
X19766530Y-14328872D01*
X19766530Y-14328872D02*
X19776054Y-14309825D01*
X19776054Y-14309825D02*
X19785578Y-14300301D01*
X19785578Y-14300301D02*
X19804625Y-14290777D01*
X19957006Y-14471729D02*
X19966530Y-14481253D01*
X19966530Y-14481253D02*
X19957006Y-14490777D01*
X19957006Y-14490777D02*
X19947483Y-14481253D01*
X19947483Y-14481253D02*
X19957006Y-14471729D01*
X19957006Y-14471729D02*
X19957006Y-14490777D01*
X20033197Y-14290777D02*
X20166530Y-14290777D01*
X20166530Y-14290777D02*
X20080816Y-14490777D01*
X20337959Y-14290777D02*
X20242721Y-14290777D01*
X20242721Y-14290777D02*
X20233197Y-14386015D01*
X20233197Y-14386015D02*
X20242721Y-14376491D01*
X20242721Y-14376491D02*
X20261768Y-14366967D01*
X20261768Y-14366967D02*
X20309387Y-14366967D01*
X20309387Y-14366967D02*
X20328435Y-14376491D01*
X20328435Y-14376491D02*
X20337959Y-14386015D01*
X20337959Y-14386015D02*
X20347483Y-14405063D01*
X20347483Y-14405063D02*
X20347483Y-14452682D01*
X20347483Y-14452682D02*
X20337959Y-14471729D01*
X20337959Y-14471729D02*
X20328435Y-14481253D01*
X20328435Y-14481253D02*
X20309387Y-14490777D01*
X20309387Y-14490777D02*
X20261768Y-14490777D01*
X20261768Y-14490777D02*
X20242721Y-14481253D01*
X20242721Y-14481253D02*
X20233197Y-14471729D01*
X20471292Y-14290777D02*
X20490340Y-14290777D01*
X20490340Y-14290777D02*
X20509387Y-14300301D01*
X20509387Y-14300301D02*
X20518911Y-14309825D01*
X20518911Y-14309825D02*
X20528435Y-14328872D01*
X20528435Y-14328872D02*
X20537959Y-14366967D01*
X20537959Y-14366967D02*
X20537959Y-14414586D01*
X20537959Y-14414586D02*
X20528435Y-14452682D01*
X20528435Y-14452682D02*
X20518911Y-14471729D01*
X20518911Y-14471729D02*
X20509387Y-14481253D01*
X20509387Y-14481253D02*
X20490340Y-14490777D01*
X20490340Y-14490777D02*
X20471292Y-14490777D01*
X20471292Y-14490777D02*
X20452245Y-14481253D01*
X20452245Y-14481253D02*
X20442721Y-14471729D01*
X20442721Y-14471729D02*
X20433197Y-14452682D01*
X20433197Y-14452682D02*
X20423673Y-14414586D01*
X20423673Y-14414586D02*
X20423673Y-14366967D01*
X20423673Y-14366967D02*
X20433197Y-14328872D01*
X20433197Y-14328872D02*
X20442721Y-14309825D01*
X20442721Y-14309825D02*
X20452245Y-14300301D01*
X20452245Y-14300301D02*
X20471292Y-14290777D01*
X20623673Y-14490777D02*
X20623673Y-14357444D01*
X20623673Y-14376491D02*
X20633197Y-14366967D01*
X20633197Y-14366967D02*
X20652245Y-14357444D01*
X20652245Y-14357444D02*
X20680816Y-14357444D01*
X20680816Y-14357444D02*
X20699864Y-14366967D01*
X20699864Y-14366967D02*
X20709387Y-14386015D01*
X20709387Y-14386015D02*
X20709387Y-14490777D01*
X20709387Y-14386015D02*
X20718911Y-14366967D01*
X20718911Y-14366967D02*
X20737959Y-14357444D01*
X20737959Y-14357444D02*
X20766530Y-14357444D01*
X20766530Y-14357444D02*
X20785578Y-14366967D01*
X20785578Y-14366967D02*
X20795102Y-14386015D01*
X20795102Y-14386015D02*
X20795102Y-14490777D01*
X20890340Y-14490777D02*
X20890340Y-14357444D01*
X20890340Y-14376491D02*
X20899864Y-14366967D01*
X20899864Y-14366967D02*
X20918911Y-14357444D01*
X20918911Y-14357444D02*
X20947483Y-14357444D01*
X20947483Y-14357444D02*
X20966530Y-14366967D01*
X20966530Y-14366967D02*
X20976054Y-14386015D01*
X20976054Y-14386015D02*
X20976054Y-14490777D01*
X20976054Y-14386015D02*
X20985578Y-14366967D01*
X20985578Y-14366967D02*
X21004626Y-14357444D01*
X21004626Y-14357444D02*
X21033197Y-14357444D01*
X21033197Y-14357444D02*
X21052245Y-14366967D01*
X21052245Y-14366967D02*
X21061768Y-14386015D01*
X21061768Y-14386015D02*
X21061768Y-14490777D01*
X21419864Y-14281253D02*
X21248435Y-14538396D01*
X21644626Y-14290777D02*
X21663673Y-14290777D01*
X21663673Y-14290777D02*
X21682721Y-14300301D01*
X21682721Y-14300301D02*
X21692245Y-14309825D01*
X21692245Y-14309825D02*
X21701768Y-14328872D01*
X21701768Y-14328872D02*
X21711292Y-14366967D01*
X21711292Y-14366967D02*
X21711292Y-14414586D01*
X21711292Y-14414586D02*
X21701768Y-14452682D01*
X21701768Y-14452682D02*
X21692245Y-14471729D01*
X21692245Y-14471729D02*
X21682721Y-14481253D01*
X21682721Y-14481253D02*
X21663673Y-14490777D01*
X21663673Y-14490777D02*
X21644626Y-14490777D01*
X21644626Y-14490777D02*
X21625578Y-14481253D01*
X21625578Y-14481253D02*
X21616054Y-14471729D01*
X21616054Y-14471729D02*
X21606530Y-14452682D01*
X21606530Y-14452682D02*
X21597007Y-14414586D01*
X21597007Y-14414586D02*
X21597007Y-14366967D01*
X21597007Y-14366967D02*
X21606530Y-14328872D01*
X21606530Y-14328872D02*
X21616054Y-14309825D01*
X21616054Y-14309825D02*
X21625578Y-14300301D01*
X21625578Y-14300301D02*
X21644626Y-14290777D01*
X21797007Y-14471729D02*
X21806530Y-14481253D01*
X21806530Y-14481253D02*
X21797007Y-14490777D01*
X21797007Y-14490777D02*
X21787483Y-14481253D01*
X21787483Y-14481253D02*
X21797007Y-14471729D01*
X21797007Y-14471729D02*
X21797007Y-14490777D01*
X21930340Y-14290777D02*
X21949388Y-14290777D01*
X21949388Y-14290777D02*
X21968435Y-14300301D01*
X21968435Y-14300301D02*
X21977959Y-14309825D01*
X21977959Y-14309825D02*
X21987483Y-14328872D01*
X21987483Y-14328872D02*
X21997007Y-14366967D01*
X21997007Y-14366967D02*
X21997007Y-14414586D01*
X21997007Y-14414586D02*
X21987483Y-14452682D01*
X21987483Y-14452682D02*
X21977959Y-14471729D01*
X21977959Y-14471729D02*
X21968435Y-14481253D01*
X21968435Y-14481253D02*
X21949388Y-14490777D01*
X21949388Y-14490777D02*
X21930340Y-14490777D01*
X21930340Y-14490777D02*
X21911292Y-14481253D01*
X21911292Y-14481253D02*
X21901768Y-14471729D01*
X21901768Y-14471729D02*
X21892245Y-14452682D01*
X21892245Y-14452682D02*
X21882721Y-14414586D01*
X21882721Y-14414586D02*
X21882721Y-14366967D01*
X21882721Y-14366967D02*
X21892245Y-14328872D01*
X21892245Y-14328872D02*
X21901768Y-14309825D01*
X21901768Y-14309825D02*
X21911292Y-14300301D01*
X21911292Y-14300301D02*
X21930340Y-14290777D01*
X22073197Y-14309825D02*
X22082721Y-14300301D01*
X22082721Y-14300301D02*
X22101768Y-14290777D01*
X22101768Y-14290777D02*
X22149388Y-14290777D01*
X22149388Y-14290777D02*
X22168435Y-14300301D01*
X22168435Y-14300301D02*
X22177959Y-14309825D01*
X22177959Y-14309825D02*
X22187483Y-14328872D01*
X22187483Y-14328872D02*
X22187483Y-14347920D01*
X22187483Y-14347920D02*
X22177959Y-14376491D01*
X22177959Y-14376491D02*
X22063673Y-14490777D01*
X22063673Y-14490777D02*
X22187483Y-14490777D01*
X22282721Y-14490777D02*
X22320816Y-14490777D01*
X22320816Y-14490777D02*
X22339864Y-14481253D01*
X22339864Y-14481253D02*
X22349388Y-14471729D01*
X22349388Y-14471729D02*
X22368435Y-14443158D01*
X22368435Y-14443158D02*
X22377959Y-14405063D01*
X22377959Y-14405063D02*
X22377959Y-14328872D01*
X22377959Y-14328872D02*
X22368435Y-14309825D01*
X22368435Y-14309825D02*
X22358911Y-14300301D01*
X22358911Y-14300301D02*
X22339864Y-14290777D01*
X22339864Y-14290777D02*
X22301768Y-14290777D01*
X22301768Y-14290777D02*
X22282721Y-14300301D01*
X22282721Y-14300301D02*
X22273197Y-14309825D01*
X22273197Y-14309825D02*
X22263673Y-14328872D01*
X22263673Y-14328872D02*
X22263673Y-14376491D01*
X22263673Y-14376491D02*
X22273197Y-14395539D01*
X22273197Y-14395539D02*
X22282721Y-14405063D01*
X22282721Y-14405063D02*
X22301768Y-14414586D01*
X22301768Y-14414586D02*
X22339864Y-14414586D01*
X22339864Y-14414586D02*
X22358911Y-14405063D01*
X22358911Y-14405063D02*
X22368435Y-14395539D01*
X22368435Y-14395539D02*
X22377959Y-14376491D01*
X22558911Y-14290777D02*
X22463673Y-14290777D01*
X22463673Y-14290777D02*
X22454149Y-14386015D01*
X22454149Y-14386015D02*
X22463673Y-14376491D01*
X22463673Y-14376491D02*
X22482721Y-14366967D01*
X22482721Y-14366967D02*
X22530340Y-14366967D01*
X22530340Y-14366967D02*
X22549387Y-14376491D01*
X22549387Y-14376491D02*
X22558911Y-14386015D01*
X22558911Y-14386015D02*
X22568435Y-14405063D01*
X22568435Y-14405063D02*
X22568435Y-14452682D01*
X22568435Y-14452682D02*
X22558911Y-14471729D01*
X22558911Y-14471729D02*
X22549387Y-14481253D01*
X22549387Y-14481253D02*
X22530340Y-14490777D01*
X22530340Y-14490777D02*
X22482721Y-14490777D01*
X22482721Y-14490777D02*
X22463673Y-14481253D01*
X22463673Y-14481253D02*
X22454149Y-14471729D01*
X22644626Y-14290777D02*
X22644626Y-14328872D01*
X22720816Y-14290777D02*
X22720816Y-14328872D01*
X22983673Y-14566967D02*
X22974149Y-14557444D01*
X22974149Y-14557444D02*
X22955102Y-14528872D01*
X22955102Y-14528872D02*
X22945578Y-14509825D01*
X22945578Y-14509825D02*
X22936054Y-14481253D01*
X22936054Y-14481253D02*
X22926530Y-14433634D01*
X22926530Y-14433634D02*
X22926530Y-14395539D01*
X22926530Y-14395539D02*
X22936054Y-14347920D01*
X22936054Y-14347920D02*
X22945578Y-14319348D01*
X22945578Y-14319348D02*
X22955102Y-14300301D01*
X22955102Y-14300301D02*
X22974149Y-14271729D01*
X22974149Y-14271729D02*
X22983673Y-14262205D01*
X23164626Y-14490777D02*
X23050340Y-14490777D01*
X23107483Y-14490777D02*
X23107483Y-14290777D01*
X23107483Y-14290777D02*
X23088435Y-14319348D01*
X23088435Y-14319348D02*
X23069387Y-14338396D01*
X23069387Y-14338396D02*
X23050340Y-14347920D01*
X23336054Y-14290777D02*
X23297959Y-14290777D01*
X23297959Y-14290777D02*
X23278911Y-14300301D01*
X23278911Y-14300301D02*
X23269387Y-14309825D01*
X23269387Y-14309825D02*
X23250340Y-14338396D01*
X23250340Y-14338396D02*
X23240816Y-14376491D01*
X23240816Y-14376491D02*
X23240816Y-14452682D01*
X23240816Y-14452682D02*
X23250340Y-14471729D01*
X23250340Y-14471729D02*
X23259864Y-14481253D01*
X23259864Y-14481253D02*
X23278911Y-14490777D01*
X23278911Y-14490777D02*
X23317007Y-14490777D01*
X23317007Y-14490777D02*
X23336054Y-14481253D01*
X23336054Y-14481253D02*
X23345578Y-14471729D01*
X23345578Y-14471729D02*
X23355102Y-14452682D01*
X23355102Y-14452682D02*
X23355102Y-14405063D01*
X23355102Y-14405063D02*
X23345578Y-14386015D01*
X23345578Y-14386015D02*
X23336054Y-14376491D01*
X23336054Y-14376491D02*
X23317007Y-14366967D01*
X23317007Y-14366967D02*
X23278911Y-14366967D01*
X23278911Y-14366967D02*
X23259864Y-14376491D01*
X23259864Y-14376491D02*
X23250340Y-14386015D01*
X23250340Y-14386015D02*
X23240816Y-14405063D01*
X23560816Y-14490777D02*
X23560816Y-14290777D01*
X23646530Y-14490777D02*
X23646530Y-14386015D01*
X23646530Y-14386015D02*
X23637007Y-14366967D01*
X23637007Y-14366967D02*
X23617959Y-14357444D01*
X23617959Y-14357444D02*
X23589387Y-14357444D01*
X23589387Y-14357444D02*
X23570340Y-14366967D01*
X23570340Y-14366967D02*
X23560816Y-14376491D01*
X23770340Y-14490777D02*
X23751292Y-14481253D01*
X23751292Y-14481253D02*
X23741768Y-14471729D01*
X23741768Y-14471729D02*
X23732245Y-14452682D01*
X23732245Y-14452682D02*
X23732245Y-14395539D01*
X23732245Y-14395539D02*
X23741768Y-14376491D01*
X23741768Y-14376491D02*
X23751292Y-14366967D01*
X23751292Y-14366967D02*
X23770340Y-14357444D01*
X23770340Y-14357444D02*
X23798911Y-14357444D01*
X23798911Y-14357444D02*
X23817959Y-14366967D01*
X23817959Y-14366967D02*
X23827483Y-14376491D01*
X23827483Y-14376491D02*
X23837007Y-14395539D01*
X23837007Y-14395539D02*
X23837007Y-14452682D01*
X23837007Y-14452682D02*
X23827483Y-14471729D01*
X23827483Y-14471729D02*
X23817959Y-14481253D01*
X23817959Y-14481253D02*
X23798911Y-14490777D01*
X23798911Y-14490777D02*
X23770340Y-14490777D01*
X23951292Y-14490777D02*
X23932245Y-14481253D01*
X23932245Y-14481253D02*
X23922721Y-14462205D01*
X23922721Y-14462205D02*
X23922721Y-14290777D01*
X24103673Y-14481253D02*
X24084626Y-14490777D01*
X24084626Y-14490777D02*
X24046530Y-14490777D01*
X24046530Y-14490777D02*
X24027483Y-14481253D01*
X24027483Y-14481253D02*
X24017959Y-14462205D01*
X24017959Y-14462205D02*
X24017959Y-14386015D01*
X24017959Y-14386015D02*
X24027483Y-14366967D01*
X24027483Y-14366967D02*
X24046530Y-14357444D01*
X24046530Y-14357444D02*
X24084626Y-14357444D01*
X24084626Y-14357444D02*
X24103673Y-14366967D01*
X24103673Y-14366967D02*
X24113197Y-14386015D01*
X24113197Y-14386015D02*
X24113197Y-14405063D01*
X24113197Y-14405063D02*
X24017959Y-14424110D01*
X24189388Y-14481253D02*
X24208435Y-14490777D01*
X24208435Y-14490777D02*
X24246530Y-14490777D01*
X24246530Y-14490777D02*
X24265578Y-14481253D01*
X24265578Y-14481253D02*
X24275102Y-14462205D01*
X24275102Y-14462205D02*
X24275102Y-14452682D01*
X24275102Y-14452682D02*
X24265578Y-14433634D01*
X24265578Y-14433634D02*
X24246530Y-14424110D01*
X24246530Y-14424110D02*
X24217959Y-14424110D01*
X24217959Y-14424110D02*
X24198911Y-14414586D01*
X24198911Y-14414586D02*
X24189388Y-14395539D01*
X24189388Y-14395539D02*
X24189388Y-14386015D01*
X24189388Y-14386015D02*
X24198911Y-14366967D01*
X24198911Y-14366967D02*
X24217959Y-14357444D01*
X24217959Y-14357444D02*
X24246530Y-14357444D01*
X24246530Y-14357444D02*
X24265578Y-14366967D01*
X24341769Y-14566967D02*
X24351292Y-14557444D01*
X24351292Y-14557444D02*
X24370340Y-14528872D01*
X24370340Y-14528872D02*
X24379864Y-14509825D01*
X24379864Y-14509825D02*
X24389388Y-14481253D01*
X24389388Y-14481253D02*
X24398911Y-14433634D01*
X24398911Y-14433634D02*
X24398911Y-14395539D01*
X24398911Y-14395539D02*
X24389388Y-14347920D01*
X24389388Y-14347920D02*
X24379864Y-14319348D01*
X24379864Y-14319348D02*
X24370340Y-14300301D01*
X24370340Y-14300301D02*
X24351292Y-14271729D01*
X24351292Y-14271729D02*
X24341769Y-14262205D01*
D14*
X19468911Y-14631301D02*
X19468911Y-14731301D01*
X19418911Y-14681301D02*
X19518911Y-14681301D01*
D11*
X19871292Y-14754777D02*
X19757006Y-14754777D01*
X19814149Y-14754777D02*
X19814149Y-14554777D01*
X19814149Y-14554777D02*
X19795102Y-14583348D01*
X19795102Y-14583348D02*
X19776054Y-14602396D01*
X19776054Y-14602396D02*
X19757006Y-14611920D01*
X19957006Y-14735729D02*
X19966530Y-14745253D01*
X19966530Y-14745253D02*
X19957006Y-14754777D01*
X19957006Y-14754777D02*
X19947483Y-14745253D01*
X19947483Y-14745253D02*
X19957006Y-14735729D01*
X19957006Y-14735729D02*
X19957006Y-14754777D01*
X20090340Y-14554777D02*
X20109387Y-14554777D01*
X20109387Y-14554777D02*
X20128435Y-14564301D01*
X20128435Y-14564301D02*
X20137959Y-14573825D01*
X20137959Y-14573825D02*
X20147483Y-14592872D01*
X20147483Y-14592872D02*
X20157006Y-14630967D01*
X20157006Y-14630967D02*
X20157006Y-14678586D01*
X20157006Y-14678586D02*
X20147483Y-14716682D01*
X20147483Y-14716682D02*
X20137959Y-14735729D01*
X20137959Y-14735729D02*
X20128435Y-14745253D01*
X20128435Y-14745253D02*
X20109387Y-14754777D01*
X20109387Y-14754777D02*
X20090340Y-14754777D01*
X20090340Y-14754777D02*
X20071292Y-14745253D01*
X20071292Y-14745253D02*
X20061768Y-14735729D01*
X20061768Y-14735729D02*
X20052245Y-14716682D01*
X20052245Y-14716682D02*
X20042721Y-14678586D01*
X20042721Y-14678586D02*
X20042721Y-14630967D01*
X20042721Y-14630967D02*
X20052245Y-14592872D01*
X20052245Y-14592872D02*
X20061768Y-14573825D01*
X20061768Y-14573825D02*
X20071292Y-14564301D01*
X20071292Y-14564301D02*
X20090340Y-14554777D01*
X20280816Y-14554777D02*
X20299864Y-14554777D01*
X20299864Y-14554777D02*
X20318911Y-14564301D01*
X20318911Y-14564301D02*
X20328435Y-14573825D01*
X20328435Y-14573825D02*
X20337959Y-14592872D01*
X20337959Y-14592872D02*
X20347483Y-14630967D01*
X20347483Y-14630967D02*
X20347483Y-14678586D01*
X20347483Y-14678586D02*
X20337959Y-14716682D01*
X20337959Y-14716682D02*
X20328435Y-14735729D01*
X20328435Y-14735729D02*
X20318911Y-14745253D01*
X20318911Y-14745253D02*
X20299864Y-14754777D01*
X20299864Y-14754777D02*
X20280816Y-14754777D01*
X20280816Y-14754777D02*
X20261768Y-14745253D01*
X20261768Y-14745253D02*
X20252245Y-14735729D01*
X20252245Y-14735729D02*
X20242721Y-14716682D01*
X20242721Y-14716682D02*
X20233197Y-14678586D01*
X20233197Y-14678586D02*
X20233197Y-14630967D01*
X20233197Y-14630967D02*
X20242721Y-14592872D01*
X20242721Y-14592872D02*
X20252245Y-14573825D01*
X20252245Y-14573825D02*
X20261768Y-14564301D01*
X20261768Y-14564301D02*
X20280816Y-14554777D01*
X20471292Y-14554777D02*
X20490340Y-14554777D01*
X20490340Y-14554777D02*
X20509387Y-14564301D01*
X20509387Y-14564301D02*
X20518911Y-14573825D01*
X20518911Y-14573825D02*
X20528435Y-14592872D01*
X20528435Y-14592872D02*
X20537959Y-14630967D01*
X20537959Y-14630967D02*
X20537959Y-14678586D01*
X20537959Y-14678586D02*
X20528435Y-14716682D01*
X20528435Y-14716682D02*
X20518911Y-14735729D01*
X20518911Y-14735729D02*
X20509387Y-14745253D01*
X20509387Y-14745253D02*
X20490340Y-14754777D01*
X20490340Y-14754777D02*
X20471292Y-14754777D01*
X20471292Y-14754777D02*
X20452245Y-14745253D01*
X20452245Y-14745253D02*
X20442721Y-14735729D01*
X20442721Y-14735729D02*
X20433197Y-14716682D01*
X20433197Y-14716682D02*
X20423673Y-14678586D01*
X20423673Y-14678586D02*
X20423673Y-14630967D01*
X20423673Y-14630967D02*
X20433197Y-14592872D01*
X20433197Y-14592872D02*
X20442721Y-14573825D01*
X20442721Y-14573825D02*
X20452245Y-14564301D01*
X20452245Y-14564301D02*
X20471292Y-14554777D01*
X20623673Y-14754777D02*
X20623673Y-14621444D01*
X20623673Y-14640491D02*
X20633197Y-14630967D01*
X20633197Y-14630967D02*
X20652245Y-14621444D01*
X20652245Y-14621444D02*
X20680816Y-14621444D01*
X20680816Y-14621444D02*
X20699864Y-14630967D01*
X20699864Y-14630967D02*
X20709387Y-14650015D01*
X20709387Y-14650015D02*
X20709387Y-14754777D01*
X20709387Y-14650015D02*
X20718911Y-14630967D01*
X20718911Y-14630967D02*
X20737959Y-14621444D01*
X20737959Y-14621444D02*
X20766530Y-14621444D01*
X20766530Y-14621444D02*
X20785578Y-14630967D01*
X20785578Y-14630967D02*
X20795102Y-14650015D01*
X20795102Y-14650015D02*
X20795102Y-14754777D01*
X20890340Y-14754777D02*
X20890340Y-14621444D01*
X20890340Y-14640491D02*
X20899864Y-14630967D01*
X20899864Y-14630967D02*
X20918911Y-14621444D01*
X20918911Y-14621444D02*
X20947483Y-14621444D01*
X20947483Y-14621444D02*
X20966530Y-14630967D01*
X20966530Y-14630967D02*
X20976054Y-14650015D01*
X20976054Y-14650015D02*
X20976054Y-14754777D01*
X20976054Y-14650015D02*
X20985578Y-14630967D01*
X20985578Y-14630967D02*
X21004626Y-14621444D01*
X21004626Y-14621444D02*
X21033197Y-14621444D01*
X21033197Y-14621444D02*
X21052245Y-14630967D01*
X21052245Y-14630967D02*
X21061768Y-14650015D01*
X21061768Y-14650015D02*
X21061768Y-14754777D01*
X21419864Y-14545253D02*
X21248435Y-14802396D01*
X21644626Y-14554777D02*
X21663673Y-14554777D01*
X21663673Y-14554777D02*
X21682721Y-14564301D01*
X21682721Y-14564301D02*
X21692245Y-14573825D01*
X21692245Y-14573825D02*
X21701768Y-14592872D01*
X21701768Y-14592872D02*
X21711292Y-14630967D01*
X21711292Y-14630967D02*
X21711292Y-14678586D01*
X21711292Y-14678586D02*
X21701768Y-14716682D01*
X21701768Y-14716682D02*
X21692245Y-14735729D01*
X21692245Y-14735729D02*
X21682721Y-14745253D01*
X21682721Y-14745253D02*
X21663673Y-14754777D01*
X21663673Y-14754777D02*
X21644626Y-14754777D01*
X21644626Y-14754777D02*
X21625578Y-14745253D01*
X21625578Y-14745253D02*
X21616054Y-14735729D01*
X21616054Y-14735729D02*
X21606530Y-14716682D01*
X21606530Y-14716682D02*
X21597007Y-14678586D01*
X21597007Y-14678586D02*
X21597007Y-14630967D01*
X21597007Y-14630967D02*
X21606530Y-14592872D01*
X21606530Y-14592872D02*
X21616054Y-14573825D01*
X21616054Y-14573825D02*
X21625578Y-14564301D01*
X21625578Y-14564301D02*
X21644626Y-14554777D01*
X21797007Y-14735729D02*
X21806530Y-14745253D01*
X21806530Y-14745253D02*
X21797007Y-14754777D01*
X21797007Y-14754777D02*
X21787483Y-14745253D01*
X21787483Y-14745253D02*
X21797007Y-14735729D01*
X21797007Y-14735729D02*
X21797007Y-14754777D01*
X21930340Y-14554777D02*
X21949388Y-14554777D01*
X21949388Y-14554777D02*
X21968435Y-14564301D01*
X21968435Y-14564301D02*
X21977959Y-14573825D01*
X21977959Y-14573825D02*
X21987483Y-14592872D01*
X21987483Y-14592872D02*
X21997007Y-14630967D01*
X21997007Y-14630967D02*
X21997007Y-14678586D01*
X21997007Y-14678586D02*
X21987483Y-14716682D01*
X21987483Y-14716682D02*
X21977959Y-14735729D01*
X21977959Y-14735729D02*
X21968435Y-14745253D01*
X21968435Y-14745253D02*
X21949388Y-14754777D01*
X21949388Y-14754777D02*
X21930340Y-14754777D01*
X21930340Y-14754777D02*
X21911292Y-14745253D01*
X21911292Y-14745253D02*
X21901768Y-14735729D01*
X21901768Y-14735729D02*
X21892245Y-14716682D01*
X21892245Y-14716682D02*
X21882721Y-14678586D01*
X21882721Y-14678586D02*
X21882721Y-14630967D01*
X21882721Y-14630967D02*
X21892245Y-14592872D01*
X21892245Y-14592872D02*
X21901768Y-14573825D01*
X21901768Y-14573825D02*
X21911292Y-14564301D01*
X21911292Y-14564301D02*
X21930340Y-14554777D01*
X22063673Y-14554777D02*
X22187483Y-14554777D01*
X22187483Y-14554777D02*
X22120816Y-14630967D01*
X22120816Y-14630967D02*
X22149388Y-14630967D01*
X22149388Y-14630967D02*
X22168435Y-14640491D01*
X22168435Y-14640491D02*
X22177959Y-14650015D01*
X22177959Y-14650015D02*
X22187483Y-14669063D01*
X22187483Y-14669063D02*
X22187483Y-14716682D01*
X22187483Y-14716682D02*
X22177959Y-14735729D01*
X22177959Y-14735729D02*
X22168435Y-14745253D01*
X22168435Y-14745253D02*
X22149388Y-14754777D01*
X22149388Y-14754777D02*
X22092245Y-14754777D01*
X22092245Y-14754777D02*
X22073197Y-14745253D01*
X22073197Y-14745253D02*
X22063673Y-14735729D01*
X22282721Y-14754777D02*
X22320816Y-14754777D01*
X22320816Y-14754777D02*
X22339864Y-14745253D01*
X22339864Y-14745253D02*
X22349388Y-14735729D01*
X22349388Y-14735729D02*
X22368435Y-14707158D01*
X22368435Y-14707158D02*
X22377959Y-14669063D01*
X22377959Y-14669063D02*
X22377959Y-14592872D01*
X22377959Y-14592872D02*
X22368435Y-14573825D01*
X22368435Y-14573825D02*
X22358911Y-14564301D01*
X22358911Y-14564301D02*
X22339864Y-14554777D01*
X22339864Y-14554777D02*
X22301768Y-14554777D01*
X22301768Y-14554777D02*
X22282721Y-14564301D01*
X22282721Y-14564301D02*
X22273197Y-14573825D01*
X22273197Y-14573825D02*
X22263673Y-14592872D01*
X22263673Y-14592872D02*
X22263673Y-14640491D01*
X22263673Y-14640491D02*
X22273197Y-14659539D01*
X22273197Y-14659539D02*
X22282721Y-14669063D01*
X22282721Y-14669063D02*
X22301768Y-14678586D01*
X22301768Y-14678586D02*
X22339864Y-14678586D01*
X22339864Y-14678586D02*
X22358911Y-14669063D01*
X22358911Y-14669063D02*
X22368435Y-14659539D01*
X22368435Y-14659539D02*
X22377959Y-14640491D01*
X22549387Y-14621444D02*
X22549387Y-14754777D01*
X22501768Y-14545253D02*
X22454149Y-14688110D01*
X22454149Y-14688110D02*
X22577959Y-14688110D01*
X22644626Y-14554777D02*
X22644626Y-14592872D01*
X22720816Y-14554777D02*
X22720816Y-14592872D01*
X22983673Y-14830967D02*
X22974149Y-14821444D01*
X22974149Y-14821444D02*
X22955102Y-14792872D01*
X22955102Y-14792872D02*
X22945578Y-14773825D01*
X22945578Y-14773825D02*
X22936054Y-14745253D01*
X22936054Y-14745253D02*
X22926530Y-14697634D01*
X22926530Y-14697634D02*
X22926530Y-14659539D01*
X22926530Y-14659539D02*
X22936054Y-14611920D01*
X22936054Y-14611920D02*
X22945578Y-14583348D01*
X22945578Y-14583348D02*
X22955102Y-14564301D01*
X22955102Y-14564301D02*
X22974149Y-14535729D01*
X22974149Y-14535729D02*
X22983673Y-14526205D01*
X23145578Y-14621444D02*
X23145578Y-14754777D01*
X23097959Y-14545253D02*
X23050340Y-14688110D01*
X23050340Y-14688110D02*
X23174149Y-14688110D01*
X23370340Y-14754777D02*
X23370340Y-14554777D01*
X23456054Y-14754777D02*
X23456054Y-14650015D01*
X23456054Y-14650015D02*
X23446530Y-14630967D01*
X23446530Y-14630967D02*
X23427483Y-14621444D01*
X23427483Y-14621444D02*
X23398911Y-14621444D01*
X23398911Y-14621444D02*
X23379864Y-14630967D01*
X23379864Y-14630967D02*
X23370340Y-14640491D01*
X23579864Y-14754777D02*
X23560816Y-14745253D01*
X23560816Y-14745253D02*
X23551292Y-14735729D01*
X23551292Y-14735729D02*
X23541768Y-14716682D01*
X23541768Y-14716682D02*
X23541768Y-14659539D01*
X23541768Y-14659539D02*
X23551292Y-14640491D01*
X23551292Y-14640491D02*
X23560816Y-14630967D01*
X23560816Y-14630967D02*
X23579864Y-14621444D01*
X23579864Y-14621444D02*
X23608435Y-14621444D01*
X23608435Y-14621444D02*
X23627483Y-14630967D01*
X23627483Y-14630967D02*
X23637007Y-14640491D01*
X23637007Y-14640491D02*
X23646530Y-14659539D01*
X23646530Y-14659539D02*
X23646530Y-14716682D01*
X23646530Y-14716682D02*
X23637007Y-14735729D01*
X23637007Y-14735729D02*
X23627483Y-14745253D01*
X23627483Y-14745253D02*
X23608435Y-14754777D01*
X23608435Y-14754777D02*
X23579864Y-14754777D01*
X23760816Y-14754777D02*
X23741768Y-14745253D01*
X23741768Y-14745253D02*
X23732245Y-14726205D01*
X23732245Y-14726205D02*
X23732245Y-14554777D01*
X23913197Y-14745253D02*
X23894149Y-14754777D01*
X23894149Y-14754777D02*
X23856054Y-14754777D01*
X23856054Y-14754777D02*
X23837007Y-14745253D01*
X23837007Y-14745253D02*
X23827483Y-14726205D01*
X23827483Y-14726205D02*
X23827483Y-14650015D01*
X23827483Y-14650015D02*
X23837007Y-14630967D01*
X23837007Y-14630967D02*
X23856054Y-14621444D01*
X23856054Y-14621444D02*
X23894149Y-14621444D01*
X23894149Y-14621444D02*
X23913197Y-14630967D01*
X23913197Y-14630967D02*
X23922721Y-14650015D01*
X23922721Y-14650015D02*
X23922721Y-14669063D01*
X23922721Y-14669063D02*
X23827483Y-14688110D01*
X23998911Y-14745253D02*
X24017959Y-14754777D01*
X24017959Y-14754777D02*
X24056054Y-14754777D01*
X24056054Y-14754777D02*
X24075102Y-14745253D01*
X24075102Y-14745253D02*
X24084626Y-14726205D01*
X24084626Y-14726205D02*
X24084626Y-14716682D01*
X24084626Y-14716682D02*
X24075102Y-14697634D01*
X24075102Y-14697634D02*
X24056054Y-14688110D01*
X24056054Y-14688110D02*
X24027483Y-14688110D01*
X24027483Y-14688110D02*
X24008435Y-14678586D01*
X24008435Y-14678586D02*
X23998911Y-14659539D01*
X23998911Y-14659539D02*
X23998911Y-14650015D01*
X23998911Y-14650015D02*
X24008435Y-14630967D01*
X24008435Y-14630967D02*
X24027483Y-14621444D01*
X24027483Y-14621444D02*
X24056054Y-14621444D01*
X24056054Y-14621444D02*
X24075102Y-14630967D01*
X24151292Y-14830967D02*
X24160816Y-14821444D01*
X24160816Y-14821444D02*
X24179864Y-14792872D01*
X24179864Y-14792872D02*
X24189388Y-14773825D01*
X24189388Y-14773825D02*
X24198911Y-14745253D01*
X24198911Y-14745253D02*
X24208435Y-14697634D01*
X24208435Y-14697634D02*
X24208435Y-14659539D01*
X24208435Y-14659539D02*
X24198911Y-14611920D01*
X24198911Y-14611920D02*
X24189388Y-14583348D01*
X24189388Y-14583348D02*
X24179864Y-14564301D01*
X24179864Y-14564301D02*
X24160816Y-14535729D01*
X24160816Y-14535729D02*
X24151292Y-14526205D01*
X19489623Y-15016012D02*
X19489623Y-14874589D01*
X19348200Y-14874589D01*
X19348200Y-15016012D01*
X19489623Y-15016012D01*
X19747483Y-14818777D02*
X19871292Y-14818777D01*
X19871292Y-14818777D02*
X19804625Y-14894967D01*
X19804625Y-14894967D02*
X19833197Y-14894967D01*
X19833197Y-14894967D02*
X19852245Y-14904491D01*
X19852245Y-14904491D02*
X19861768Y-14914015D01*
X19861768Y-14914015D02*
X19871292Y-14933063D01*
X19871292Y-14933063D02*
X19871292Y-14980682D01*
X19871292Y-14980682D02*
X19861768Y-14999729D01*
X19861768Y-14999729D02*
X19852245Y-15009253D01*
X19852245Y-15009253D02*
X19833197Y-15018777D01*
X19833197Y-15018777D02*
X19776054Y-15018777D01*
X19776054Y-15018777D02*
X19757006Y-15009253D01*
X19757006Y-15009253D02*
X19747483Y-14999729D01*
X19957006Y-14999729D02*
X19966530Y-15009253D01*
X19966530Y-15009253D02*
X19957006Y-15018777D01*
X19957006Y-15018777D02*
X19947483Y-15009253D01*
X19947483Y-15009253D02*
X19957006Y-14999729D01*
X19957006Y-14999729D02*
X19957006Y-15018777D01*
X20090340Y-14818777D02*
X20109387Y-14818777D01*
X20109387Y-14818777D02*
X20128435Y-14828301D01*
X20128435Y-14828301D02*
X20137959Y-14837825D01*
X20137959Y-14837825D02*
X20147483Y-14856872D01*
X20147483Y-14856872D02*
X20157006Y-14894967D01*
X20157006Y-14894967D02*
X20157006Y-14942586D01*
X20157006Y-14942586D02*
X20147483Y-14980682D01*
X20147483Y-14980682D02*
X20137959Y-14999729D01*
X20137959Y-14999729D02*
X20128435Y-15009253D01*
X20128435Y-15009253D02*
X20109387Y-15018777D01*
X20109387Y-15018777D02*
X20090340Y-15018777D01*
X20090340Y-15018777D02*
X20071292Y-15009253D01*
X20071292Y-15009253D02*
X20061768Y-14999729D01*
X20061768Y-14999729D02*
X20052245Y-14980682D01*
X20052245Y-14980682D02*
X20042721Y-14942586D01*
X20042721Y-14942586D02*
X20042721Y-14894967D01*
X20042721Y-14894967D02*
X20052245Y-14856872D01*
X20052245Y-14856872D02*
X20061768Y-14837825D01*
X20061768Y-14837825D02*
X20071292Y-14828301D01*
X20071292Y-14828301D02*
X20090340Y-14818777D01*
X20280816Y-14818777D02*
X20299864Y-14818777D01*
X20299864Y-14818777D02*
X20318911Y-14828301D01*
X20318911Y-14828301D02*
X20328435Y-14837825D01*
X20328435Y-14837825D02*
X20337959Y-14856872D01*
X20337959Y-14856872D02*
X20347483Y-14894967D01*
X20347483Y-14894967D02*
X20347483Y-14942586D01*
X20347483Y-14942586D02*
X20337959Y-14980682D01*
X20337959Y-14980682D02*
X20328435Y-14999729D01*
X20328435Y-14999729D02*
X20318911Y-15009253D01*
X20318911Y-15009253D02*
X20299864Y-15018777D01*
X20299864Y-15018777D02*
X20280816Y-15018777D01*
X20280816Y-15018777D02*
X20261768Y-15009253D01*
X20261768Y-15009253D02*
X20252245Y-14999729D01*
X20252245Y-14999729D02*
X20242721Y-14980682D01*
X20242721Y-14980682D02*
X20233197Y-14942586D01*
X20233197Y-14942586D02*
X20233197Y-14894967D01*
X20233197Y-14894967D02*
X20242721Y-14856872D01*
X20242721Y-14856872D02*
X20252245Y-14837825D01*
X20252245Y-14837825D02*
X20261768Y-14828301D01*
X20261768Y-14828301D02*
X20280816Y-14818777D01*
X20471292Y-14818777D02*
X20490340Y-14818777D01*
X20490340Y-14818777D02*
X20509387Y-14828301D01*
X20509387Y-14828301D02*
X20518911Y-14837825D01*
X20518911Y-14837825D02*
X20528435Y-14856872D01*
X20528435Y-14856872D02*
X20537959Y-14894967D01*
X20537959Y-14894967D02*
X20537959Y-14942586D01*
X20537959Y-14942586D02*
X20528435Y-14980682D01*
X20528435Y-14980682D02*
X20518911Y-14999729D01*
X20518911Y-14999729D02*
X20509387Y-15009253D01*
X20509387Y-15009253D02*
X20490340Y-15018777D01*
X20490340Y-15018777D02*
X20471292Y-15018777D01*
X20471292Y-15018777D02*
X20452245Y-15009253D01*
X20452245Y-15009253D02*
X20442721Y-14999729D01*
X20442721Y-14999729D02*
X20433197Y-14980682D01*
X20433197Y-14980682D02*
X20423673Y-14942586D01*
X20423673Y-14942586D02*
X20423673Y-14894967D01*
X20423673Y-14894967D02*
X20433197Y-14856872D01*
X20433197Y-14856872D02*
X20442721Y-14837825D01*
X20442721Y-14837825D02*
X20452245Y-14828301D01*
X20452245Y-14828301D02*
X20471292Y-14818777D01*
X20623673Y-15018777D02*
X20623673Y-14885444D01*
X20623673Y-14904491D02*
X20633197Y-14894967D01*
X20633197Y-14894967D02*
X20652245Y-14885444D01*
X20652245Y-14885444D02*
X20680816Y-14885444D01*
X20680816Y-14885444D02*
X20699864Y-14894967D01*
X20699864Y-14894967D02*
X20709387Y-14914015D01*
X20709387Y-14914015D02*
X20709387Y-15018777D01*
X20709387Y-14914015D02*
X20718911Y-14894967D01*
X20718911Y-14894967D02*
X20737959Y-14885444D01*
X20737959Y-14885444D02*
X20766530Y-14885444D01*
X20766530Y-14885444D02*
X20785578Y-14894967D01*
X20785578Y-14894967D02*
X20795102Y-14914015D01*
X20795102Y-14914015D02*
X20795102Y-15018777D01*
X20890340Y-15018777D02*
X20890340Y-14885444D01*
X20890340Y-14904491D02*
X20899864Y-14894967D01*
X20899864Y-14894967D02*
X20918911Y-14885444D01*
X20918911Y-14885444D02*
X20947483Y-14885444D01*
X20947483Y-14885444D02*
X20966530Y-14894967D01*
X20966530Y-14894967D02*
X20976054Y-14914015D01*
X20976054Y-14914015D02*
X20976054Y-15018777D01*
X20976054Y-14914015D02*
X20985578Y-14894967D01*
X20985578Y-14894967D02*
X21004626Y-14885444D01*
X21004626Y-14885444D02*
X21033197Y-14885444D01*
X21033197Y-14885444D02*
X21052245Y-14894967D01*
X21052245Y-14894967D02*
X21061768Y-14914015D01*
X21061768Y-14914015D02*
X21061768Y-15018777D01*
X21419864Y-14809253D02*
X21248435Y-15066396D01*
X21644626Y-14818777D02*
X21663673Y-14818777D01*
X21663673Y-14818777D02*
X21682721Y-14828301D01*
X21682721Y-14828301D02*
X21692245Y-14837825D01*
X21692245Y-14837825D02*
X21701768Y-14856872D01*
X21701768Y-14856872D02*
X21711292Y-14894967D01*
X21711292Y-14894967D02*
X21711292Y-14942586D01*
X21711292Y-14942586D02*
X21701768Y-14980682D01*
X21701768Y-14980682D02*
X21692245Y-14999729D01*
X21692245Y-14999729D02*
X21682721Y-15009253D01*
X21682721Y-15009253D02*
X21663673Y-15018777D01*
X21663673Y-15018777D02*
X21644626Y-15018777D01*
X21644626Y-15018777D02*
X21625578Y-15009253D01*
X21625578Y-15009253D02*
X21616054Y-14999729D01*
X21616054Y-14999729D02*
X21606530Y-14980682D01*
X21606530Y-14980682D02*
X21597007Y-14942586D01*
X21597007Y-14942586D02*
X21597007Y-14894967D01*
X21597007Y-14894967D02*
X21606530Y-14856872D01*
X21606530Y-14856872D02*
X21616054Y-14837825D01*
X21616054Y-14837825D02*
X21625578Y-14828301D01*
X21625578Y-14828301D02*
X21644626Y-14818777D01*
X21797007Y-14999729D02*
X21806530Y-15009253D01*
X21806530Y-15009253D02*
X21797007Y-15018777D01*
X21797007Y-15018777D02*
X21787483Y-15009253D01*
X21787483Y-15009253D02*
X21797007Y-14999729D01*
X21797007Y-14999729D02*
X21797007Y-15018777D01*
X21997007Y-15018777D02*
X21882721Y-15018777D01*
X21939864Y-15018777D02*
X21939864Y-14818777D01*
X21939864Y-14818777D02*
X21920816Y-14847348D01*
X21920816Y-14847348D02*
X21901768Y-14866396D01*
X21901768Y-14866396D02*
X21882721Y-14875920D01*
X22187483Y-15018777D02*
X22073197Y-15018777D01*
X22130340Y-15018777D02*
X22130340Y-14818777D01*
X22130340Y-14818777D02*
X22111292Y-14847348D01*
X22111292Y-14847348D02*
X22092245Y-14866396D01*
X22092245Y-14866396D02*
X22073197Y-14875920D01*
X22301768Y-14904491D02*
X22282721Y-14894967D01*
X22282721Y-14894967D02*
X22273197Y-14885444D01*
X22273197Y-14885444D02*
X22263673Y-14866396D01*
X22263673Y-14866396D02*
X22263673Y-14856872D01*
X22263673Y-14856872D02*
X22273197Y-14837825D01*
X22273197Y-14837825D02*
X22282721Y-14828301D01*
X22282721Y-14828301D02*
X22301768Y-14818777D01*
X22301768Y-14818777D02*
X22339864Y-14818777D01*
X22339864Y-14818777D02*
X22358911Y-14828301D01*
X22358911Y-14828301D02*
X22368435Y-14837825D01*
X22368435Y-14837825D02*
X22377959Y-14856872D01*
X22377959Y-14856872D02*
X22377959Y-14866396D01*
X22377959Y-14866396D02*
X22368435Y-14885444D01*
X22368435Y-14885444D02*
X22358911Y-14894967D01*
X22358911Y-14894967D02*
X22339864Y-14904491D01*
X22339864Y-14904491D02*
X22301768Y-14904491D01*
X22301768Y-14904491D02*
X22282721Y-14914015D01*
X22282721Y-14914015D02*
X22273197Y-14923539D01*
X22273197Y-14923539D02*
X22263673Y-14942586D01*
X22263673Y-14942586D02*
X22263673Y-14980682D01*
X22263673Y-14980682D02*
X22273197Y-14999729D01*
X22273197Y-14999729D02*
X22282721Y-15009253D01*
X22282721Y-15009253D02*
X22301768Y-15018777D01*
X22301768Y-15018777D02*
X22339864Y-15018777D01*
X22339864Y-15018777D02*
X22358911Y-15009253D01*
X22358911Y-15009253D02*
X22368435Y-14999729D01*
X22368435Y-14999729D02*
X22377959Y-14980682D01*
X22377959Y-14980682D02*
X22377959Y-14942586D01*
X22377959Y-14942586D02*
X22368435Y-14923539D01*
X22368435Y-14923539D02*
X22358911Y-14914015D01*
X22358911Y-14914015D02*
X22339864Y-14904491D01*
X22568435Y-15018777D02*
X22454149Y-15018777D01*
X22511292Y-15018777D02*
X22511292Y-14818777D01*
X22511292Y-14818777D02*
X22492245Y-14847348D01*
X22492245Y-14847348D02*
X22473197Y-14866396D01*
X22473197Y-14866396D02*
X22454149Y-14875920D01*
X22644626Y-14818777D02*
X22644626Y-14856872D01*
X22720816Y-14818777D02*
X22720816Y-14856872D01*
X22983673Y-15094967D02*
X22974149Y-15085444D01*
X22974149Y-15085444D02*
X22955102Y-15056872D01*
X22955102Y-15056872D02*
X22945578Y-15037825D01*
X22945578Y-15037825D02*
X22936054Y-15009253D01*
X22936054Y-15009253D02*
X22926530Y-14961634D01*
X22926530Y-14961634D02*
X22926530Y-14923539D01*
X22926530Y-14923539D02*
X22936054Y-14875920D01*
X22936054Y-14875920D02*
X22945578Y-14847348D01*
X22945578Y-14847348D02*
X22955102Y-14828301D01*
X22955102Y-14828301D02*
X22974149Y-14799729D01*
X22974149Y-14799729D02*
X22983673Y-14790205D01*
X23040816Y-14818777D02*
X23164626Y-14818777D01*
X23164626Y-14818777D02*
X23097959Y-14894967D01*
X23097959Y-14894967D02*
X23126530Y-14894967D01*
X23126530Y-14894967D02*
X23145578Y-14904491D01*
X23145578Y-14904491D02*
X23155102Y-14914015D01*
X23155102Y-14914015D02*
X23164626Y-14933063D01*
X23164626Y-14933063D02*
X23164626Y-14980682D01*
X23164626Y-14980682D02*
X23155102Y-14999729D01*
X23155102Y-14999729D02*
X23145578Y-15009253D01*
X23145578Y-15009253D02*
X23126530Y-15018777D01*
X23126530Y-15018777D02*
X23069387Y-15018777D01*
X23069387Y-15018777D02*
X23050340Y-15009253D01*
X23050340Y-15009253D02*
X23040816Y-14999729D01*
X23240816Y-14837825D02*
X23250340Y-14828301D01*
X23250340Y-14828301D02*
X23269387Y-14818777D01*
X23269387Y-14818777D02*
X23317007Y-14818777D01*
X23317007Y-14818777D02*
X23336054Y-14828301D01*
X23336054Y-14828301D02*
X23345578Y-14837825D01*
X23345578Y-14837825D02*
X23355102Y-14856872D01*
X23355102Y-14856872D02*
X23355102Y-14875920D01*
X23355102Y-14875920D02*
X23345578Y-14904491D01*
X23345578Y-14904491D02*
X23231292Y-15018777D01*
X23231292Y-15018777D02*
X23355102Y-15018777D01*
X23560816Y-15018777D02*
X23560816Y-14818777D01*
X23646530Y-15018777D02*
X23646530Y-14914015D01*
X23646530Y-14914015D02*
X23637007Y-14894967D01*
X23637007Y-14894967D02*
X23617959Y-14885444D01*
X23617959Y-14885444D02*
X23589387Y-14885444D01*
X23589387Y-14885444D02*
X23570340Y-14894967D01*
X23570340Y-14894967D02*
X23560816Y-14904491D01*
X23770340Y-15018777D02*
X23751292Y-15009253D01*
X23751292Y-15009253D02*
X23741768Y-14999729D01*
X23741768Y-14999729D02*
X23732245Y-14980682D01*
X23732245Y-14980682D02*
X23732245Y-14923539D01*
X23732245Y-14923539D02*
X23741768Y-14904491D01*
X23741768Y-14904491D02*
X23751292Y-14894967D01*
X23751292Y-14894967D02*
X23770340Y-14885444D01*
X23770340Y-14885444D02*
X23798911Y-14885444D01*
X23798911Y-14885444D02*
X23817959Y-14894967D01*
X23817959Y-14894967D02*
X23827483Y-14904491D01*
X23827483Y-14904491D02*
X23837007Y-14923539D01*
X23837007Y-14923539D02*
X23837007Y-14980682D01*
X23837007Y-14980682D02*
X23827483Y-14999729D01*
X23827483Y-14999729D02*
X23817959Y-15009253D01*
X23817959Y-15009253D02*
X23798911Y-15018777D01*
X23798911Y-15018777D02*
X23770340Y-15018777D01*
X23951292Y-15018777D02*
X23932245Y-15009253D01*
X23932245Y-15009253D02*
X23922721Y-14990205D01*
X23922721Y-14990205D02*
X23922721Y-14818777D01*
X24103673Y-15009253D02*
X24084626Y-15018777D01*
X24084626Y-15018777D02*
X24046530Y-15018777D01*
X24046530Y-15018777D02*
X24027483Y-15009253D01*
X24027483Y-15009253D02*
X24017959Y-14990205D01*
X24017959Y-14990205D02*
X24017959Y-14914015D01*
X24017959Y-14914015D02*
X24027483Y-14894967D01*
X24027483Y-14894967D02*
X24046530Y-14885444D01*
X24046530Y-14885444D02*
X24084626Y-14885444D01*
X24084626Y-14885444D02*
X24103673Y-14894967D01*
X24103673Y-14894967D02*
X24113197Y-14914015D01*
X24113197Y-14914015D02*
X24113197Y-14933063D01*
X24113197Y-14933063D02*
X24017959Y-14952110D01*
X24189388Y-15009253D02*
X24208435Y-15018777D01*
X24208435Y-15018777D02*
X24246530Y-15018777D01*
X24246530Y-15018777D02*
X24265578Y-15009253D01*
X24265578Y-15009253D02*
X24275102Y-14990205D01*
X24275102Y-14990205D02*
X24275102Y-14980682D01*
X24275102Y-14980682D02*
X24265578Y-14961634D01*
X24265578Y-14961634D02*
X24246530Y-14952110D01*
X24246530Y-14952110D02*
X24217959Y-14952110D01*
X24217959Y-14952110D02*
X24198911Y-14942586D01*
X24198911Y-14942586D02*
X24189388Y-14923539D01*
X24189388Y-14923539D02*
X24189388Y-14914015D01*
X24189388Y-14914015D02*
X24198911Y-14894967D01*
X24198911Y-14894967D02*
X24217959Y-14885444D01*
X24217959Y-14885444D02*
X24246530Y-14885444D01*
X24246530Y-14885444D02*
X24265578Y-14894967D01*
X24341769Y-15094967D02*
X24351292Y-15085444D01*
X24351292Y-15085444D02*
X24370340Y-15056872D01*
X24370340Y-15056872D02*
X24379864Y-15037825D01*
X24379864Y-15037825D02*
X24389388Y-15009253D01*
X24389388Y-15009253D02*
X24398911Y-14961634D01*
X24398911Y-14961634D02*
X24398911Y-14923539D01*
X24398911Y-14923539D02*
X24389388Y-14875920D01*
X24389388Y-14875920D02*
X24379864Y-14847348D01*
X24379864Y-14847348D02*
X24370340Y-14828301D01*
X24370340Y-14828301D02*
X24351292Y-14799729D01*
X24351292Y-14799729D02*
X24341769Y-14790205D01*
M02*
