%TF.GenerationSoftware,KiCad,Pcbnew,(7.0.0-0)*%
%TF.CreationDate,2023-02-24T23:09:16+09:00*%
%TF.ProjectId,pangaea-pcb-pinkey-k2-0.5ushift-right,70616e67-6165-4612-9d70-63622d70696e,rev?*%
%TF.SameCoordinates,Original*%
%TF.FileFunction,Paste,Bot*%
%TF.FilePolarity,Positive*%
%FSLAX46Y46*%
G04 Gerber Fmt 4.6, Leading zero omitted, Abs format (unit mm)*
G04 Created by KiCad (PCBNEW (7.0.0-0)) date 2023-02-24 23:09:16*
%MOMM*%
%LPD*%
G01*
G04 APERTURE LIST*
G04 Aperture macros list*
%AMRoundRect*
0 Rectangle with rounded corners*
0 $1 Rounding radius*
0 $2 $3 $4 $5 $6 $7 $8 $9 X,Y pos of 4 corners*
0 Add a 4 corners polygon primitive as box body*
4,1,4,$2,$3,$4,$5,$6,$7,$8,$9,$2,$3,0*
0 Add four circle primitives for the rounded corners*
1,1,$1+$1,$2,$3*
1,1,$1+$1,$4,$5*
1,1,$1+$1,$6,$7*
1,1,$1+$1,$8,$9*
0 Add four rect primitives between the rounded corners*
20,1,$1+$1,$2,$3,$4,$5,0*
20,1,$1+$1,$4,$5,$6,$7,0*
20,1,$1+$1,$6,$7,$8,$9,0*
20,1,$1+$1,$8,$9,$2,$3,0*%
G04 Aperture macros list end*
%ADD10R,2.200000X2.000000*%
%ADD11R,1.200000X1.200000*%
%ADD12RoundRect,0.150000X0.150000X0.650000X-0.150000X0.650000X-0.150000X-0.650000X0.150000X-0.650000X0*%
G04 APERTURE END LIST*
D10*
%TO.C,SW13*%
X196549999Y-61979999D03*
X197749999Y-55739999D03*
X207949999Y-64169999D03*
X210449999Y-53199999D03*
%TD*%
%TO.C,SW33*%
X196549999Y-100459999D03*
X197749999Y-94219999D03*
X207949999Y-102649999D03*
X210449999Y-91679999D03*
%TD*%
%TO.C,SW34*%
X215599999Y-110449999D03*
X216799999Y-104209999D03*
X226999999Y-112639999D03*
X229499999Y-101669999D03*
%TD*%
%TO.C,SW18*%
X215599999Y-91199999D03*
X216799999Y-84959999D03*
X226999999Y-93389999D03*
X229499999Y-82419999D03*
%TD*%
%TO.C,SW14*%
X215599999Y-72029999D03*
X216799999Y-65789999D03*
X226999999Y-74219999D03*
X229499999Y-63249999D03*
%TD*%
%TO.C,SW38*%
X215599999Y-129449999D03*
X216799999Y-123209999D03*
X226999999Y-131639999D03*
X229499999Y-120669999D03*
%TD*%
D11*
%TO.C,D33*%
X202049999Y-88499999D03*
X205499999Y-88499999D03*
%TD*%
D10*
%TO.C,SW17*%
X196549999Y-81219999D03*
X197749999Y-74979999D03*
X207949999Y-83409999D03*
X210449999Y-72439999D03*
%TD*%
D11*
%TO.C,D14*%
X222049999Y-60249999D03*
X225499999Y-60249999D03*
%TD*%
%TO.C,D37*%
X203049999Y-107999999D03*
X206499999Y-107999999D03*
%TD*%
%TO.C,D38*%
X222024999Y-117499999D03*
X225474999Y-117499999D03*
%TD*%
%TO.C,D18*%
X221799999Y-78999999D03*
X225249999Y-78999999D03*
%TD*%
%TO.C,D34*%
X222049999Y-98499999D03*
X225499999Y-98499999D03*
%TD*%
D10*
%TO.C,SW37*%
X196549999Y-119699999D03*
X197749999Y-113459999D03*
X207949999Y-121889999D03*
X210449999Y-110919999D03*
%TD*%
D11*
%TO.C,D13*%
X202774999Y-49999999D03*
X206224999Y-49999999D03*
%TD*%
%TO.C,D17*%
X202524999Y-69249999D03*
X205974999Y-69249999D03*
%TD*%
D12*
%TO.C,J9*%
X215150000Y-101992500D03*
X214150000Y-101992500D03*
X213150000Y-101992500D03*
X212150000Y-101992500D03*
%TD*%
%TO.C,J8*%
X213950000Y-88550000D03*
X212950000Y-88550000D03*
X211950000Y-88550000D03*
X210950000Y-88550000D03*
%TD*%
M02*
