M48
; DRILL file {KiCad (7.0.0-0)} date Friday, 24 February 2023 at 23:09:14
; FORMAT={-:-/ absolute / inch / decimal}
; #@! TF.CreationDate,2023-02-24T23:09:14+09:00
; #@! TF.GenerationSoftware,Kicad,Pcbnew,(7.0.0-0)
; #@! TF.FileFunction,Plated,1,2,PTH
FMAT,2
INCH
; #@! TA.AperFunction,Plated,PTH,ViaDrill
T1C0.0157
; #@! TA.AperFunction,Plated,PTH,ComponentDrill
T2C0.0295
; #@! TA.AperFunction,Plated,PTH,ComponentDrill
T3C0.0394
; #@! TA.AperFunction,Plated,PTH,ComponentDrill
T4C0.1181
%
G90
G05
T1
X8.2161Y-2.254
X8.2991Y-3.1218
T2
X7.8976Y-3.4843
X7.9163Y-2.7264
X7.9262Y-1.9685
X7.937Y-4.252
X8.1476Y-3.4843
X8.1663Y-2.7264
X8.1762Y-1.9685
X8.187Y-4.252
X8.6752Y-3.1102
X8.6841Y-4.626
X8.685Y-2.372
X8.685Y-3.878
X8.9252Y-3.1102
X8.9341Y-4.626
X8.935Y-2.372
X8.935Y-3.878
T3
X8.2539Y-3.3563
X8.3012Y-3.8855
X8.4744Y-3.3563
X8.5217Y-3.8855
T4
X7.8642Y-2.4402
X7.8642Y-3.1976
X7.8642Y-3.9551
X7.8642Y-4.7126
X7.911Y-2.1945
X7.911Y-2.952
X7.911Y-3.7094
X7.911Y-4.4669
X8.061Y-2.5268
X8.061Y-3.2843
X8.061Y-4.0417
X8.061Y-4.7992
X8.161Y-2.0945
X8.161Y-2.852
X8.161Y-3.6094
X8.161Y-4.3669
X8.6142Y-2.8358
X8.6142Y-3.5906
X8.6142Y-4.3484
X8.6142Y-5.0965
X8.661Y-2.5902
X8.661Y-3.3449
X8.661Y-4.1028
X8.661Y-4.8508
X8.811Y-2.9224
X8.811Y-3.6772
X8.811Y-4.435
X8.811Y-5.1831
X8.911Y-2.4902
X8.911Y-3.2449
X8.911Y-4.0028
X8.911Y-4.7508
T0
M30
