%TF.GenerationSoftware,KiCad,Pcbnew,7.0.1-0*%
%TF.CreationDate,2023-03-31T22:03:26+09:00*%
%TF.ProjectId,pangaea-pcb-pinkey-0.25u-right,70616e67-6165-4612-9d70-63622d70696e,rev?*%
%TF.SameCoordinates,Original*%
%TF.FileFunction,Soldermask,Top*%
%TF.FilePolarity,Negative*%
%FSLAX46Y46*%
G04 Gerber Fmt 4.6, Leading zero omitted, Abs format (unit mm)*
G04 Created by KiCad (PCBNEW 7.0.1-0) date 2023-03-31 22:03:26*
%MOMM*%
%LPD*%
G01*
G04 APERTURE LIST*
G04 Aperture macros list*
%AMRoundRect*
0 Rectangle with rounded corners*
0 $1 Rounding radius*
0 $2 $3 $4 $5 $6 $7 $8 $9 X,Y pos of 4 corners*
0 Add a 4 corners polygon primitive as box body*
4,1,4,$2,$3,$4,$5,$6,$7,$8,$9,$2,$3,0*
0 Add four circle primitives for the rounded corners*
1,1,$1+$1,$2,$3*
1,1,$1+$1,$4,$5*
1,1,$1+$1,$6,$7*
1,1,$1+$1,$8,$9*
0 Add four rect primitives between the rounded corners*
20,1,$1+$1,$2,$3,$4,$5,0*
20,1,$1+$1,$4,$5,$6,$7,0*
20,1,$1+$1,$6,$7,$8,$9,0*
20,1,$1+$1,$8,$9,$2,$3,0*%
G04 Aperture macros list end*
%ADD10O,6.000000X4.200000*%
%ADD11C,1.680000*%
%ADD12C,1.700000*%
%ADD13C,4.900000*%
%ADD14O,1.200000X0.500000*%
%ADD15RoundRect,0.249600X-0.350400X-0.850400X0.350400X-0.850400X0.350400X0.850400X-0.350400X0.850400X0*%
%ADD16RoundRect,0.249600X0.350400X0.850400X-0.350400X0.850400X-0.350400X-0.850400X0.350400X-0.850400X0*%
G04 APERTURE END LIST*
D10*
%TO.C,H11*%
X37495000Y-85200000D03*
%TD*%
D11*
%TO.C,SW18*%
X58390000Y-61800000D03*
D12*
X58810000Y-61800000D03*
D13*
X63890000Y-61800000D03*
D14*
X68890000Y-56350000D03*
D12*
X68970000Y-61800000D03*
D11*
X69390000Y-61800000D03*
%TD*%
%TO.C,SW33*%
X39150000Y-75792500D03*
D12*
X39570000Y-75792500D03*
D13*
X44650000Y-75792500D03*
D14*
X49650000Y-70342500D03*
D12*
X49730000Y-75792500D03*
D11*
X50150000Y-75792500D03*
%TD*%
%TO.C,SW34*%
X58390000Y-80650000D03*
D12*
X58810000Y-80650000D03*
D13*
X63890000Y-80650000D03*
D14*
X68890000Y-75200000D03*
D12*
X68970000Y-80650000D03*
D11*
X69390000Y-80650000D03*
%TD*%
D10*
%TO.C,H12*%
X37465000Y-47500000D03*
%TD*%
D11*
%TO.C,SW13*%
X39150000Y-38092500D03*
D12*
X39570000Y-38092500D03*
D13*
X44650000Y-38092500D03*
D14*
X49650000Y-32642500D03*
D12*
X49730000Y-38092500D03*
D11*
X50150000Y-38092500D03*
%TD*%
%TO.C,SW17*%
X39150000Y-56942500D03*
D12*
X39570000Y-56942500D03*
D13*
X44650000Y-56942500D03*
D14*
X49650000Y-51492500D03*
D12*
X49730000Y-56942500D03*
D11*
X50150000Y-56942500D03*
%TD*%
%TO.C,SW14*%
X58390000Y-42950000D03*
D12*
X58810000Y-42950000D03*
D13*
X63890000Y-42950000D03*
D14*
X68890000Y-37500000D03*
D12*
X68970000Y-42950000D03*
D11*
X69390000Y-42950000D03*
%TD*%
%TO.C,SW38*%
X58390000Y-99500000D03*
D12*
X58810000Y-99500000D03*
D13*
X63890000Y-99500000D03*
D14*
X68890000Y-94050000D03*
D12*
X68970000Y-99500000D03*
D11*
X69390000Y-99500000D03*
%TD*%
D10*
%TO.C,H9*%
X71120000Y-52330000D03*
%TD*%
D11*
%TO.C,SW37*%
X39150000Y-94642500D03*
D12*
X39570000Y-94642500D03*
D13*
X44650000Y-94642500D03*
D14*
X49650000Y-89192500D03*
D12*
X49730000Y-94642500D03*
D11*
X50150000Y-94642500D03*
%TD*%
D10*
%TO.C,H10*%
X71110000Y-89990000D03*
%TD*%
D15*
%TO.C,J8*%
X53290000Y-91230000D03*
X58890000Y-91230000D03*
%TD*%
D16*
%TO.C,J9*%
X58800000Y-69447500D03*
X53200000Y-69447500D03*
%TD*%
M02*
