%TF.GenerationSoftware,KiCad,Pcbnew,7.0.1-0*%
%TF.CreationDate,2023-03-31T22:03:26+09:00*%
%TF.ProjectId,pangaea-pcb-pinkey-0.25u-right,70616e67-6165-4612-9d70-63622d70696e,rev?*%
%TF.SameCoordinates,Original*%
%TF.FileFunction,Copper,L1,Top*%
%TF.FilePolarity,Positive*%
%FSLAX46Y46*%
G04 Gerber Fmt 4.6, Leading zero omitted, Abs format (unit mm)*
G04 Created by KiCad (PCBNEW 7.0.1-0) date 2023-03-31 22:03:26*
%MOMM*%
%LPD*%
G01*
G04 APERTURE LIST*
G04 Aperture macros list*
%AMRoundRect*
0 Rectangle with rounded corners*
0 $1 Rounding radius*
0 $2 $3 $4 $5 $6 $7 $8 $9 X,Y pos of 4 corners*
0 Add a 4 corners polygon primitive as box body*
4,1,4,$2,$3,$4,$5,$6,$7,$8,$9,$2,$3,0*
0 Add four circle primitives for the rounded corners*
1,1,$1+$1,$2,$3*
1,1,$1+$1,$4,$5*
1,1,$1+$1,$6,$7*
1,1,$1+$1,$8,$9*
0 Add four rect primitives between the rounded corners*
20,1,$1+$1,$2,$3,$4,$5,0*
20,1,$1+$1,$4,$5,$6,$7,0*
20,1,$1+$1,$6,$7,$8,$9,0*
20,1,$1+$1,$8,$9,$2,$3,0*%
G04 Aperture macros list end*
%TA.AperFunction,ComponentPad*%
%ADD10R,1.200000X1.200000*%
%TD*%
%TA.AperFunction,ComponentPad*%
%ADD11C,1.200000*%
%TD*%
%TA.AperFunction,ComponentPad*%
%ADD12C,3.800000*%
%TD*%
%TA.AperFunction,ComponentPad*%
%ADD13RoundRect,0.249600X-0.350400X-0.850400X0.350400X-0.850400X0.350400X0.850400X-0.350400X0.850400X0*%
%TD*%
%TA.AperFunction,ComponentPad*%
%ADD14RoundRect,0.249600X0.350400X0.850400X-0.350400X0.850400X-0.350400X-0.850400X0.350400X-0.850400X0*%
%TD*%
%TA.AperFunction,ViaPad*%
%ADD15C,0.800000*%
%TD*%
%TA.AperFunction,Conductor*%
%ADD16C,0.250000*%
%TD*%
G04 APERTURE END LIST*
D10*
%TO.P,D18,1,K*%
%TO.N,PY5*%
X67270000Y-53850000D03*
D11*
%TO.P,D18,2,A*%
%TO.N,Net-(D18-A)*%
X60920000Y-53850000D03*
%TD*%
D12*
%TO.P,SW18,1,1*%
%TO.N,PX2*%
X58890000Y-65500000D03*
X60080000Y-59260000D03*
%TO.P,SW18,2,2*%
%TO.N,Net-(D18-A)*%
X63890000Y-67700000D03*
X66430000Y-56720000D03*
%TD*%
%TO.P,SW33,1,1*%
%TO.N,PX1*%
X39650000Y-79492500D03*
X40840000Y-73252500D03*
%TO.P,SW33,2,2*%
%TO.N,Net-(D33-K)*%
X44650000Y-81692500D03*
X47190000Y-70712500D03*
%TD*%
D10*
%TO.P,D37,1,K*%
%TO.N,Net-(D37-K)*%
X48170000Y-86380000D03*
D11*
%TO.P,D37,2,A*%
%TO.N,PY5*%
X41820000Y-86380000D03*
%TD*%
D12*
%TO.P,SW34,1,1*%
%TO.N,PX2*%
X58890000Y-84350000D03*
X60080000Y-78110000D03*
%TO.P,SW34,2,2*%
%TO.N,Net-(D34-K)*%
X63890000Y-86550000D03*
X66430000Y-75570000D03*
%TD*%
%TO.P,SW13,1,1*%
%TO.N,PX1*%
X39650000Y-41792500D03*
X40840000Y-35552500D03*
%TO.P,SW13,2,2*%
%TO.N,Net-(D13-A)*%
X44650000Y-43992500D03*
X47190000Y-33012500D03*
%TD*%
%TO.P,SW17,1,1*%
%TO.N,PX1*%
X39650000Y-60642500D03*
X40840000Y-54402500D03*
%TO.P,SW17,2,2*%
%TO.N,Net-(D17-A)*%
X44650000Y-62842500D03*
X47190000Y-51862500D03*
%TD*%
%TO.P,SW14,1,1*%
%TO.N,PX2*%
X58890000Y-46650000D03*
X60080000Y-40410000D03*
%TO.P,SW14,2,2*%
%TO.N,Net-(D14-A)*%
X63890000Y-48850000D03*
X66430000Y-37870000D03*
%TD*%
D10*
%TO.P,D38,1,K*%
%TO.N,Net-(D38-K)*%
X67270000Y-91340000D03*
D11*
%TO.P,D38,2,A*%
%TO.N,PY5*%
X60920000Y-91340000D03*
%TD*%
D12*
%TO.P,SW38,1,1*%
%TO.N,PX2*%
X58890000Y-103200000D03*
X60080000Y-96960000D03*
%TO.P,SW38,2,2*%
%TO.N,Net-(D38-K)*%
X63890000Y-105400000D03*
X66430000Y-94420000D03*
%TD*%
D10*
%TO.P,D14,1,K*%
%TO.N,PY4*%
X67270000Y-34810000D03*
D11*
%TO.P,D14,2,A*%
%TO.N,Net-(D14-A)*%
X60920000Y-34810000D03*
%TD*%
D12*
%TO.P,SW37,1,1*%
%TO.N,PX1*%
X39650000Y-98342500D03*
X40840000Y-92102500D03*
%TO.P,SW37,2,2*%
%TO.N,Net-(D37-K)*%
X44650000Y-100542500D03*
X47190000Y-89562500D03*
%TD*%
D10*
%TO.P,D13,1,K*%
%TO.N,PY4*%
X48170000Y-29720000D03*
D11*
%TO.P,D13,2,A*%
%TO.N,Net-(D13-A)*%
X41820000Y-29720000D03*
%TD*%
D10*
%TO.P,D33,1,K*%
%TO.N,Net-(D33-K)*%
X48170000Y-67300000D03*
D11*
%TO.P,D33,2,A*%
%TO.N,PY4*%
X41820000Y-67300000D03*
%TD*%
D10*
%TO.P,D34,1,K*%
%TO.N,Net-(D34-K)*%
X67270000Y-72420000D03*
D11*
%TO.P,D34,2,A*%
%TO.N,PY4*%
X60920000Y-72420000D03*
%TD*%
D10*
%TO.P,D17,1,K*%
%TO.N,PY5*%
X48170000Y-48900000D03*
D11*
%TO.P,D17,2,A*%
%TO.N,Net-(D17-A)*%
X41820000Y-48900000D03*
%TD*%
D13*
%TO.P,J8,MP*%
%TO.N,N/C*%
X53290000Y-91230000D03*
X58890000Y-91230000D03*
%TD*%
D14*
%TO.P,J9,MP*%
%TO.N,N/C*%
X58800000Y-69447500D03*
X53200000Y-69447500D03*
%TD*%
D15*
%TO.N,PY4*%
X41820000Y-70366600D03*
%TD*%
D16*
%TO.N,PY4*%
X41820000Y-67300000D02*
X41820000Y-70366600D01*
%TO.N,Net-(D33-K)*%
X47459600Y-78882900D02*
X47459600Y-70982100D01*
X48170000Y-67300000D02*
X48170000Y-68225100D01*
X47459600Y-70982100D02*
X47190000Y-70712500D01*
X44650000Y-81692500D02*
X47459600Y-78882900D01*
X47190000Y-69205100D02*
X47190000Y-70712500D01*
X48170000Y-68225100D02*
X47190000Y-69205100D01*
%TO.N,Net-(D34-K)*%
X67270000Y-73345100D02*
X66430000Y-74185100D01*
X67270000Y-72420000D02*
X67270000Y-73345100D01*
X66430000Y-74185100D02*
X66430000Y-75570000D01*
%TO.N,Net-(D37-K)*%
X44650000Y-100542500D02*
X47459600Y-97732900D01*
X47459600Y-97732900D02*
X47459600Y-89832100D01*
X47459600Y-89832100D02*
X47190000Y-89562500D01*
X48170000Y-87305100D02*
X47190000Y-88285100D01*
X48170000Y-86380000D02*
X48170000Y-87305100D01*
X47190000Y-88285100D02*
X47190000Y-89562500D01*
%TO.N,Net-(D38-K)*%
X67270000Y-92265100D02*
X66430000Y-93105100D01*
X66430000Y-93105100D02*
X66430000Y-94420000D01*
X67270000Y-91340000D02*
X67270000Y-92265100D01*
%TO.N,PX1*%
X40840000Y-97152500D02*
X40840000Y-92102500D01*
X40840000Y-59452500D02*
X39650000Y-60642500D01*
X40840000Y-61832500D02*
X40840000Y-73252500D01*
X40840000Y-80682500D02*
X39650000Y-79492500D01*
X40840000Y-43229800D02*
X40790200Y-43279600D01*
X40840000Y-39822500D02*
X40840000Y-40602500D01*
X40840000Y-78302500D02*
X39650000Y-79492500D01*
X39650000Y-98342500D02*
X40840000Y-97152500D01*
X40840000Y-35552500D02*
X40840000Y-39822500D01*
X40840000Y-39822500D02*
X40840000Y-43229800D01*
X40840000Y-40602500D02*
X39650000Y-41792500D01*
X40840000Y-54402500D02*
X40840000Y-59452500D01*
X40840000Y-92102500D02*
X40840000Y-80682500D01*
X40840000Y-73252500D02*
X40840000Y-78302500D01*
X39650000Y-60642500D02*
X40840000Y-61832500D01*
X40790200Y-54352700D02*
X40840000Y-54402500D01*
X40790200Y-43279600D02*
X40790200Y-54352700D01*
%TO.N,PX2*%
X59991600Y-66601600D02*
X58890000Y-65500000D01*
X59948200Y-85408200D02*
X58890000Y-84350000D01*
X58890000Y-46650000D02*
X58890000Y-58070000D01*
X60080000Y-96960000D02*
X59948200Y-96828200D01*
X60080000Y-78110000D02*
X59991600Y-78021600D01*
X59991600Y-78021600D02*
X59991600Y-66601600D01*
X58890000Y-58070000D02*
X60080000Y-59260000D01*
X59948200Y-96828200D02*
X59948200Y-85408200D01*
%TD*%
M02*
