%TF.GenerationSoftware,KiCad,Pcbnew,7.0.1-0*%
%TF.CreationDate,2023-03-31T22:03:26+09:00*%
%TF.ProjectId,pangaea-pcb-pinkey-0.25u-right,70616e67-6165-4612-9d70-63622d70696e,rev?*%
%TF.SameCoordinates,Original*%
%TF.FileFunction,Paste,Bot*%
%TF.FilePolarity,Positive*%
%FSLAX46Y46*%
G04 Gerber Fmt 4.6, Leading zero omitted, Abs format (unit mm)*
G04 Created by KiCad (PCBNEW 7.0.1-0) date 2023-03-31 22:03:26*
%MOMM*%
%LPD*%
G01*
G04 APERTURE LIST*
G04 Aperture macros list*
%AMRoundRect*
0 Rectangle with rounded corners*
0 $1 Rounding radius*
0 $2 $3 $4 $5 $6 $7 $8 $9 X,Y pos of 4 corners*
0 Add a 4 corners polygon primitive as box body*
4,1,4,$2,$3,$4,$5,$6,$7,$8,$9,$2,$3,0*
0 Add four circle primitives for the rounded corners*
1,1,$1+$1,$2,$3*
1,1,$1+$1,$4,$5*
1,1,$1+$1,$6,$7*
1,1,$1+$1,$8,$9*
0 Add four rect primitives between the rounded corners*
20,1,$1+$1,$2,$3,$4,$5,0*
20,1,$1+$1,$4,$5,$6,$7,0*
20,1,$1+$1,$6,$7,$8,$9,0*
20,1,$1+$1,$8,$9,$2,$3,0*%
G04 Aperture macros list end*
%ADD10R,1.200000X1.200000*%
%ADD11R,2.200000X2.000000*%
%ADD12RoundRect,0.150000X-0.150000X-0.650000X0.150000X-0.650000X0.150000X0.650000X-0.150000X0.650000X0*%
%ADD13RoundRect,0.150000X0.150000X0.650000X-0.150000X0.650000X-0.150000X-0.650000X0.150000X-0.650000X0*%
G04 APERTURE END LIST*
D10*
%TO.C,D18*%
X65820000Y-53850000D03*
X62370000Y-53850000D03*
%TD*%
D11*
%TO.C,SW18*%
X55690000Y-65500000D03*
X56890000Y-59260000D03*
X67090000Y-67690000D03*
X69590000Y-56720000D03*
%TD*%
%TO.C,SW33*%
X36450000Y-79492500D03*
X37650000Y-73252500D03*
X47850000Y-81682500D03*
X50350000Y-70712500D03*
%TD*%
D10*
%TO.C,D37*%
X46720000Y-86380000D03*
X43270000Y-86380000D03*
%TD*%
D11*
%TO.C,SW34*%
X55690000Y-84350000D03*
X56890000Y-78110000D03*
X67090000Y-86540000D03*
X69590000Y-75570000D03*
%TD*%
%TO.C,SW13*%
X36450000Y-41792500D03*
X37650000Y-35552500D03*
X47850000Y-43982500D03*
X50350000Y-33012500D03*
%TD*%
%TO.C,SW17*%
X36450000Y-60642500D03*
X37650000Y-54402500D03*
X47850000Y-62832500D03*
X50350000Y-51862500D03*
%TD*%
%TO.C,SW14*%
X55690000Y-46650000D03*
X56890000Y-40410000D03*
X67090000Y-48840000D03*
X69590000Y-37870000D03*
%TD*%
D10*
%TO.C,D38*%
X65820000Y-91340000D03*
X62370000Y-91340000D03*
%TD*%
D11*
%TO.C,SW38*%
X55690000Y-103200000D03*
X56890000Y-96960000D03*
X67090000Y-105390000D03*
X69590000Y-94420000D03*
%TD*%
D10*
%TO.C,D14*%
X65820000Y-34810000D03*
X62370000Y-34810000D03*
%TD*%
D11*
%TO.C,SW37*%
X36450000Y-98342500D03*
X37650000Y-92102500D03*
X47850000Y-100532500D03*
X50350000Y-89562500D03*
%TD*%
D10*
%TO.C,D13*%
X46720000Y-29720000D03*
X43270000Y-29720000D03*
%TD*%
%TO.C,D33*%
X46720000Y-67300000D03*
X43270000Y-67300000D03*
%TD*%
%TO.C,D34*%
X65820000Y-72420000D03*
X62370000Y-72420000D03*
%TD*%
%TO.C,D17*%
X46720000Y-48900000D03*
X43270000Y-48900000D03*
%TD*%
D12*
%TO.C,J8*%
X54590000Y-87930000D03*
X55590000Y-87930000D03*
X56590000Y-87930000D03*
X57590000Y-87930000D03*
%TD*%
D13*
%TO.C,J9*%
X57500000Y-72747500D03*
X56500000Y-72747500D03*
X55500000Y-72747500D03*
X54500000Y-72747500D03*
%TD*%
M02*
