%TF.GenerationSoftware,KiCad,Pcbnew,7.0.1-0*%
%TF.CreationDate,2023-03-31T22:03:26+09:00*%
%TF.ProjectId,pangaea-pcb-pinkey-0.25u-right,70616e67-6165-4612-9d70-63622d70696e,rev?*%
%TF.SameCoordinates,Original*%
%TF.FileFunction,Legend,Top*%
%TF.FilePolarity,Positive*%
%FSLAX46Y46*%
G04 Gerber Fmt 4.6, Leading zero omitted, Abs format (unit mm)*
G04 Created by KiCad (PCBNEW 7.0.1-0) date 2023-03-31 22:03:26*
%MOMM*%
%LPD*%
G01*
G04 APERTURE LIST*
%ADD10C,0.300000*%
%ADD11C,0.375000*%
%ADD12C,0.150000*%
G04 APERTURE END LIST*
D10*
X66258571Y-60296000D02*
X66430000Y-60353142D01*
X66430000Y-60353142D02*
X66715714Y-60353142D01*
X66715714Y-60353142D02*
X66830000Y-60296000D01*
X66830000Y-60296000D02*
X66887142Y-60238857D01*
X66887142Y-60238857D02*
X66944285Y-60124571D01*
X66944285Y-60124571D02*
X66944285Y-60010285D01*
X66944285Y-60010285D02*
X66887142Y-59896000D01*
X66887142Y-59896000D02*
X66830000Y-59838857D01*
X66830000Y-59838857D02*
X66715714Y-59781714D01*
X66715714Y-59781714D02*
X66487142Y-59724571D01*
X66487142Y-59724571D02*
X66372857Y-59667428D01*
X66372857Y-59667428D02*
X66315714Y-59610285D01*
X66315714Y-59610285D02*
X66258571Y-59496000D01*
X66258571Y-59496000D02*
X66258571Y-59381714D01*
X66258571Y-59381714D02*
X66315714Y-59267428D01*
X66315714Y-59267428D02*
X66372857Y-59210285D01*
X66372857Y-59210285D02*
X66487142Y-59153142D01*
X66487142Y-59153142D02*
X66772857Y-59153142D01*
X66772857Y-59153142D02*
X66944285Y-59210285D01*
X67344285Y-59153142D02*
X67629999Y-60353142D01*
X67629999Y-60353142D02*
X67858571Y-59496000D01*
X67858571Y-59496000D02*
X68087142Y-60353142D01*
X68087142Y-60353142D02*
X68372857Y-59153142D01*
X69458571Y-60353142D02*
X68772857Y-60353142D01*
X69115714Y-60353142D02*
X69115714Y-59153142D01*
X69115714Y-59153142D02*
X69001428Y-59324571D01*
X69001428Y-59324571D02*
X68887143Y-59438857D01*
X68887143Y-59438857D02*
X68772857Y-59496000D01*
X70144285Y-59667428D02*
X70030000Y-59610285D01*
X70030000Y-59610285D02*
X69972857Y-59553142D01*
X69972857Y-59553142D02*
X69915714Y-59438857D01*
X69915714Y-59438857D02*
X69915714Y-59381714D01*
X69915714Y-59381714D02*
X69972857Y-59267428D01*
X69972857Y-59267428D02*
X70030000Y-59210285D01*
X70030000Y-59210285D02*
X70144285Y-59153142D01*
X70144285Y-59153142D02*
X70372857Y-59153142D01*
X70372857Y-59153142D02*
X70487143Y-59210285D01*
X70487143Y-59210285D02*
X70544285Y-59267428D01*
X70544285Y-59267428D02*
X70601428Y-59381714D01*
X70601428Y-59381714D02*
X70601428Y-59438857D01*
X70601428Y-59438857D02*
X70544285Y-59553142D01*
X70544285Y-59553142D02*
X70487143Y-59610285D01*
X70487143Y-59610285D02*
X70372857Y-59667428D01*
X70372857Y-59667428D02*
X70144285Y-59667428D01*
X70144285Y-59667428D02*
X70030000Y-59724571D01*
X70030000Y-59724571D02*
X69972857Y-59781714D01*
X69972857Y-59781714D02*
X69915714Y-59896000D01*
X69915714Y-59896000D02*
X69915714Y-60124571D01*
X69915714Y-60124571D02*
X69972857Y-60238857D01*
X69972857Y-60238857D02*
X70030000Y-60296000D01*
X70030000Y-60296000D02*
X70144285Y-60353142D01*
X70144285Y-60353142D02*
X70372857Y-60353142D01*
X70372857Y-60353142D02*
X70487143Y-60296000D01*
X70487143Y-60296000D02*
X70544285Y-60238857D01*
X70544285Y-60238857D02*
X70601428Y-60124571D01*
X70601428Y-60124571D02*
X70601428Y-59896000D01*
X70601428Y-59896000D02*
X70544285Y-59781714D01*
X70544285Y-59781714D02*
X70487143Y-59724571D01*
X70487143Y-59724571D02*
X70372857Y-59667428D01*
X65728571Y-79056000D02*
X65900000Y-79113142D01*
X65900000Y-79113142D02*
X66185714Y-79113142D01*
X66185714Y-79113142D02*
X66300000Y-79056000D01*
X66300000Y-79056000D02*
X66357142Y-78998857D01*
X66357142Y-78998857D02*
X66414285Y-78884571D01*
X66414285Y-78884571D02*
X66414285Y-78770285D01*
X66414285Y-78770285D02*
X66357142Y-78656000D01*
X66357142Y-78656000D02*
X66300000Y-78598857D01*
X66300000Y-78598857D02*
X66185714Y-78541714D01*
X66185714Y-78541714D02*
X65957142Y-78484571D01*
X65957142Y-78484571D02*
X65842857Y-78427428D01*
X65842857Y-78427428D02*
X65785714Y-78370285D01*
X65785714Y-78370285D02*
X65728571Y-78256000D01*
X65728571Y-78256000D02*
X65728571Y-78141714D01*
X65728571Y-78141714D02*
X65785714Y-78027428D01*
X65785714Y-78027428D02*
X65842857Y-77970285D01*
X65842857Y-77970285D02*
X65957142Y-77913142D01*
X65957142Y-77913142D02*
X66242857Y-77913142D01*
X66242857Y-77913142D02*
X66414285Y-77970285D01*
X66814285Y-77913142D02*
X67099999Y-79113142D01*
X67099999Y-79113142D02*
X67328571Y-78256000D01*
X67328571Y-78256000D02*
X67557142Y-79113142D01*
X67557142Y-79113142D02*
X67842857Y-77913142D01*
X68185714Y-77913142D02*
X68928571Y-77913142D01*
X68928571Y-77913142D02*
X68528571Y-78370285D01*
X68528571Y-78370285D02*
X68700000Y-78370285D01*
X68700000Y-78370285D02*
X68814286Y-78427428D01*
X68814286Y-78427428D02*
X68871428Y-78484571D01*
X68871428Y-78484571D02*
X68928571Y-78598857D01*
X68928571Y-78598857D02*
X68928571Y-78884571D01*
X68928571Y-78884571D02*
X68871428Y-78998857D01*
X68871428Y-78998857D02*
X68814286Y-79056000D01*
X68814286Y-79056000D02*
X68700000Y-79113142D01*
X68700000Y-79113142D02*
X68357143Y-79113142D01*
X68357143Y-79113142D02*
X68242857Y-79056000D01*
X68242857Y-79056000D02*
X68185714Y-78998857D01*
X69957143Y-78313142D02*
X69957143Y-79113142D01*
X69671428Y-77856000D02*
X69385714Y-78713142D01*
X69385714Y-78713142D02*
X70128571Y-78713142D01*
X48118571Y-36846000D02*
X48290000Y-36903142D01*
X48290000Y-36903142D02*
X48575714Y-36903142D01*
X48575714Y-36903142D02*
X48690000Y-36846000D01*
X48690000Y-36846000D02*
X48747142Y-36788857D01*
X48747142Y-36788857D02*
X48804285Y-36674571D01*
X48804285Y-36674571D02*
X48804285Y-36560285D01*
X48804285Y-36560285D02*
X48747142Y-36446000D01*
X48747142Y-36446000D02*
X48690000Y-36388857D01*
X48690000Y-36388857D02*
X48575714Y-36331714D01*
X48575714Y-36331714D02*
X48347142Y-36274571D01*
X48347142Y-36274571D02*
X48232857Y-36217428D01*
X48232857Y-36217428D02*
X48175714Y-36160285D01*
X48175714Y-36160285D02*
X48118571Y-36046000D01*
X48118571Y-36046000D02*
X48118571Y-35931714D01*
X48118571Y-35931714D02*
X48175714Y-35817428D01*
X48175714Y-35817428D02*
X48232857Y-35760285D01*
X48232857Y-35760285D02*
X48347142Y-35703142D01*
X48347142Y-35703142D02*
X48632857Y-35703142D01*
X48632857Y-35703142D02*
X48804285Y-35760285D01*
X49204285Y-35703142D02*
X49489999Y-36903142D01*
X49489999Y-36903142D02*
X49718571Y-36046000D01*
X49718571Y-36046000D02*
X49947142Y-36903142D01*
X49947142Y-36903142D02*
X50232857Y-35703142D01*
X51318571Y-36903142D02*
X50632857Y-36903142D01*
X50975714Y-36903142D02*
X50975714Y-35703142D01*
X50975714Y-35703142D02*
X50861428Y-35874571D01*
X50861428Y-35874571D02*
X50747143Y-35988857D01*
X50747143Y-35988857D02*
X50632857Y-36046000D01*
X51718571Y-35703142D02*
X52461428Y-35703142D01*
X52461428Y-35703142D02*
X52061428Y-36160285D01*
X52061428Y-36160285D02*
X52232857Y-36160285D01*
X52232857Y-36160285D02*
X52347143Y-36217428D01*
X52347143Y-36217428D02*
X52404285Y-36274571D01*
X52404285Y-36274571D02*
X52461428Y-36388857D01*
X52461428Y-36388857D02*
X52461428Y-36674571D01*
X52461428Y-36674571D02*
X52404285Y-36788857D01*
X52404285Y-36788857D02*
X52347143Y-36846000D01*
X52347143Y-36846000D02*
X52232857Y-36903142D01*
X52232857Y-36903142D02*
X51890000Y-36903142D01*
X51890000Y-36903142D02*
X51775714Y-36846000D01*
X51775714Y-36846000D02*
X51718571Y-36788857D01*
D11*
X40362857Y-27412857D02*
X40362857Y-28365238D01*
X39862857Y-26365238D02*
X40362857Y-27412857D01*
X40362857Y-27412857D02*
X40862857Y-26365238D01*
X41362856Y-27603333D02*
X42505714Y-27603333D01*
X43148571Y-26555714D02*
X43219999Y-26460476D01*
X43219999Y-26460476D02*
X43362857Y-26365238D01*
X43362857Y-26365238D02*
X43719999Y-26365238D01*
X43719999Y-26365238D02*
X43862857Y-26460476D01*
X43862857Y-26460476D02*
X43934285Y-26555714D01*
X43934285Y-26555714D02*
X44005714Y-26746190D01*
X44005714Y-26746190D02*
X44005714Y-26936666D01*
X44005714Y-26936666D02*
X43934285Y-27222380D01*
X43934285Y-27222380D02*
X43077142Y-28365238D01*
X43077142Y-28365238D02*
X44005714Y-28365238D01*
X44934285Y-26365238D02*
X45077142Y-26365238D01*
X45077142Y-26365238D02*
X45219999Y-26460476D01*
X45219999Y-26460476D02*
X45291428Y-26555714D01*
X45291428Y-26555714D02*
X45362856Y-26746190D01*
X45362856Y-26746190D02*
X45434285Y-27127142D01*
X45434285Y-27127142D02*
X45434285Y-27603333D01*
X45434285Y-27603333D02*
X45362856Y-27984285D01*
X45362856Y-27984285D02*
X45291428Y-28174761D01*
X45291428Y-28174761D02*
X45219999Y-28270000D01*
X45219999Y-28270000D02*
X45077142Y-28365238D01*
X45077142Y-28365238D02*
X44934285Y-28365238D01*
X44934285Y-28365238D02*
X44791428Y-28270000D01*
X44791428Y-28270000D02*
X44719999Y-28174761D01*
X44719999Y-28174761D02*
X44648570Y-27984285D01*
X44648570Y-27984285D02*
X44577142Y-27603333D01*
X44577142Y-27603333D02*
X44577142Y-27127142D01*
X44577142Y-27127142D02*
X44648570Y-26746190D01*
X44648570Y-26746190D02*
X44719999Y-26555714D01*
X44719999Y-26555714D02*
X44791428Y-26460476D01*
X44791428Y-26460476D02*
X44934285Y-26365238D01*
X46077141Y-28174761D02*
X46148570Y-28270000D01*
X46148570Y-28270000D02*
X46077141Y-28365238D01*
X46077141Y-28365238D02*
X46005713Y-28270000D01*
X46005713Y-28270000D02*
X46077141Y-28174761D01*
X46077141Y-28174761D02*
X46077141Y-28365238D01*
X47505713Y-26365238D02*
X46791427Y-26365238D01*
X46791427Y-26365238D02*
X46719999Y-27317619D01*
X46719999Y-27317619D02*
X46791427Y-27222380D01*
X46791427Y-27222380D02*
X46934285Y-27127142D01*
X46934285Y-27127142D02*
X47291427Y-27127142D01*
X47291427Y-27127142D02*
X47434285Y-27222380D01*
X47434285Y-27222380D02*
X47505713Y-27317619D01*
X47505713Y-27317619D02*
X47577142Y-27508095D01*
X47577142Y-27508095D02*
X47577142Y-27984285D01*
X47577142Y-27984285D02*
X47505713Y-28174761D01*
X47505713Y-28174761D02*
X47434285Y-28270000D01*
X47434285Y-28270000D02*
X47291427Y-28365238D01*
X47291427Y-28365238D02*
X46934285Y-28365238D01*
X46934285Y-28365238D02*
X46791427Y-28270000D01*
X46791427Y-28270000D02*
X46719999Y-28174761D01*
X48434284Y-27222380D02*
X48291427Y-27127142D01*
X48291427Y-27127142D02*
X48219998Y-27031904D01*
X48219998Y-27031904D02*
X48148570Y-26841428D01*
X48148570Y-26841428D02*
X48148570Y-26746190D01*
X48148570Y-26746190D02*
X48219998Y-26555714D01*
X48219998Y-26555714D02*
X48291427Y-26460476D01*
X48291427Y-26460476D02*
X48434284Y-26365238D01*
X48434284Y-26365238D02*
X48719998Y-26365238D01*
X48719998Y-26365238D02*
X48862856Y-26460476D01*
X48862856Y-26460476D02*
X48934284Y-26555714D01*
X48934284Y-26555714D02*
X49005713Y-26746190D01*
X49005713Y-26746190D02*
X49005713Y-26841428D01*
X49005713Y-26841428D02*
X48934284Y-27031904D01*
X48934284Y-27031904D02*
X48862856Y-27127142D01*
X48862856Y-27127142D02*
X48719998Y-27222380D01*
X48719998Y-27222380D02*
X48434284Y-27222380D01*
X48434284Y-27222380D02*
X48291427Y-27317619D01*
X48291427Y-27317619D02*
X48219998Y-27412857D01*
X48219998Y-27412857D02*
X48148570Y-27603333D01*
X48148570Y-27603333D02*
X48148570Y-27984285D01*
X48148570Y-27984285D02*
X48219998Y-28174761D01*
X48219998Y-28174761D02*
X48291427Y-28270000D01*
X48291427Y-28270000D02*
X48434284Y-28365238D01*
X48434284Y-28365238D02*
X48719998Y-28365238D01*
X48719998Y-28365238D02*
X48862856Y-28270000D01*
X48862856Y-28270000D02*
X48934284Y-28174761D01*
X48934284Y-28174761D02*
X49005713Y-27984285D01*
X49005713Y-27984285D02*
X49005713Y-27603333D01*
X49005713Y-27603333D02*
X48934284Y-27412857D01*
X48934284Y-27412857D02*
X48862856Y-27317619D01*
X48862856Y-27317619D02*
X48719998Y-27222380D01*
X49577141Y-26555714D02*
X49648569Y-26460476D01*
X49648569Y-26460476D02*
X49791427Y-26365238D01*
X49791427Y-26365238D02*
X50148569Y-26365238D01*
X50148569Y-26365238D02*
X50291427Y-26460476D01*
X50291427Y-26460476D02*
X50362855Y-26555714D01*
X50362855Y-26555714D02*
X50434284Y-26746190D01*
X50434284Y-26746190D02*
X50434284Y-26936666D01*
X50434284Y-26936666D02*
X50362855Y-27222380D01*
X50362855Y-27222380D02*
X49505712Y-28365238D01*
X49505712Y-28365238D02*
X50434284Y-28365238D01*
X51791426Y-26365238D02*
X51077140Y-26365238D01*
X51077140Y-26365238D02*
X51005712Y-27317619D01*
X51005712Y-27317619D02*
X51077140Y-27222380D01*
X51077140Y-27222380D02*
X51219998Y-27127142D01*
X51219998Y-27127142D02*
X51577140Y-27127142D01*
X51577140Y-27127142D02*
X51719998Y-27222380D01*
X51719998Y-27222380D02*
X51791426Y-27317619D01*
X51791426Y-27317619D02*
X51862855Y-27508095D01*
X51862855Y-27508095D02*
X51862855Y-27984285D01*
X51862855Y-27984285D02*
X51791426Y-28174761D01*
X51791426Y-28174761D02*
X51719998Y-28270000D01*
X51719998Y-28270000D02*
X51577140Y-28365238D01*
X51577140Y-28365238D02*
X51219998Y-28365238D01*
X51219998Y-28365238D02*
X51077140Y-28270000D01*
X51077140Y-28270000D02*
X51005712Y-28174761D01*
D12*
X37210142Y-81817141D02*
X36010142Y-81817141D01*
X36010142Y-81817141D02*
X36010142Y-81359998D01*
X36010142Y-81359998D02*
X36067285Y-81245713D01*
X36067285Y-81245713D02*
X36124428Y-81188570D01*
X36124428Y-81188570D02*
X36238714Y-81131427D01*
X36238714Y-81131427D02*
X36410142Y-81131427D01*
X36410142Y-81131427D02*
X36524428Y-81188570D01*
X36524428Y-81188570D02*
X36581571Y-81245713D01*
X36581571Y-81245713D02*
X36638714Y-81359998D01*
X36638714Y-81359998D02*
X36638714Y-81817141D01*
X37210142Y-80102856D02*
X36581571Y-80102856D01*
X36581571Y-80102856D02*
X36467285Y-80159998D01*
X36467285Y-80159998D02*
X36410142Y-80274284D01*
X36410142Y-80274284D02*
X36410142Y-80502856D01*
X36410142Y-80502856D02*
X36467285Y-80617141D01*
X37153000Y-80102856D02*
X37210142Y-80217141D01*
X37210142Y-80217141D02*
X37210142Y-80502856D01*
X37210142Y-80502856D02*
X37153000Y-80617141D01*
X37153000Y-80617141D02*
X37038714Y-80674284D01*
X37038714Y-80674284D02*
X36924428Y-80674284D01*
X36924428Y-80674284D02*
X36810142Y-80617141D01*
X36810142Y-80617141D02*
X36753000Y-80502856D01*
X36753000Y-80502856D02*
X36753000Y-80217141D01*
X36753000Y-80217141D02*
X36695857Y-80102856D01*
X36410142Y-79531427D02*
X37210142Y-79531427D01*
X36524428Y-79531427D02*
X36467285Y-79474284D01*
X36467285Y-79474284D02*
X36410142Y-79359999D01*
X36410142Y-79359999D02*
X36410142Y-79188570D01*
X36410142Y-79188570D02*
X36467285Y-79074284D01*
X36467285Y-79074284D02*
X36581571Y-79017142D01*
X36581571Y-79017142D02*
X37210142Y-79017142D01*
X36410142Y-77931428D02*
X37381571Y-77931428D01*
X37381571Y-77931428D02*
X37495857Y-77988570D01*
X37495857Y-77988570D02*
X37553000Y-78045713D01*
X37553000Y-78045713D02*
X37610142Y-78159999D01*
X37610142Y-78159999D02*
X37610142Y-78331428D01*
X37610142Y-78331428D02*
X37553000Y-78445713D01*
X37153000Y-77931428D02*
X37210142Y-78045713D01*
X37210142Y-78045713D02*
X37210142Y-78274285D01*
X37210142Y-78274285D02*
X37153000Y-78388570D01*
X37153000Y-78388570D02*
X37095857Y-78445713D01*
X37095857Y-78445713D02*
X36981571Y-78502856D01*
X36981571Y-78502856D02*
X36638714Y-78502856D01*
X36638714Y-78502856D02*
X36524428Y-78445713D01*
X36524428Y-78445713D02*
X36467285Y-78388570D01*
X36467285Y-78388570D02*
X36410142Y-78274285D01*
X36410142Y-78274285D02*
X36410142Y-78045713D01*
X36410142Y-78045713D02*
X36467285Y-77931428D01*
X37210142Y-76845714D02*
X36581571Y-76845714D01*
X36581571Y-76845714D02*
X36467285Y-76902856D01*
X36467285Y-76902856D02*
X36410142Y-77017142D01*
X36410142Y-77017142D02*
X36410142Y-77245714D01*
X36410142Y-77245714D02*
X36467285Y-77359999D01*
X37153000Y-76845714D02*
X37210142Y-76959999D01*
X37210142Y-76959999D02*
X37210142Y-77245714D01*
X37210142Y-77245714D02*
X37153000Y-77359999D01*
X37153000Y-77359999D02*
X37038714Y-77417142D01*
X37038714Y-77417142D02*
X36924428Y-77417142D01*
X36924428Y-77417142D02*
X36810142Y-77359999D01*
X36810142Y-77359999D02*
X36753000Y-77245714D01*
X36753000Y-77245714D02*
X36753000Y-76959999D01*
X36753000Y-76959999D02*
X36695857Y-76845714D01*
X37153000Y-75817142D02*
X37210142Y-75931428D01*
X37210142Y-75931428D02*
X37210142Y-76160000D01*
X37210142Y-76160000D02*
X37153000Y-76274285D01*
X37153000Y-76274285D02*
X37038714Y-76331428D01*
X37038714Y-76331428D02*
X36581571Y-76331428D01*
X36581571Y-76331428D02*
X36467285Y-76274285D01*
X36467285Y-76274285D02*
X36410142Y-76160000D01*
X36410142Y-76160000D02*
X36410142Y-75931428D01*
X36410142Y-75931428D02*
X36467285Y-75817142D01*
X36467285Y-75817142D02*
X36581571Y-75760000D01*
X36581571Y-75760000D02*
X36695857Y-75760000D01*
X36695857Y-75760000D02*
X36810142Y-76331428D01*
X37210142Y-74731429D02*
X36581571Y-74731429D01*
X36581571Y-74731429D02*
X36467285Y-74788571D01*
X36467285Y-74788571D02*
X36410142Y-74902857D01*
X36410142Y-74902857D02*
X36410142Y-75131429D01*
X36410142Y-75131429D02*
X36467285Y-75245714D01*
X37153000Y-74731429D02*
X37210142Y-74845714D01*
X37210142Y-74845714D02*
X37210142Y-75131429D01*
X37210142Y-75131429D02*
X37153000Y-75245714D01*
X37153000Y-75245714D02*
X37038714Y-75302857D01*
X37038714Y-75302857D02*
X36924428Y-75302857D01*
X36924428Y-75302857D02*
X36810142Y-75245714D01*
X36810142Y-75245714D02*
X36753000Y-75131429D01*
X36753000Y-75131429D02*
X36753000Y-74845714D01*
X36753000Y-74845714D02*
X36695857Y-74731429D01*
X37210142Y-72560000D02*
X36638714Y-72960000D01*
X37210142Y-73245714D02*
X36010142Y-73245714D01*
X36010142Y-73245714D02*
X36010142Y-72788571D01*
X36010142Y-72788571D02*
X36067285Y-72674286D01*
X36067285Y-72674286D02*
X36124428Y-72617143D01*
X36124428Y-72617143D02*
X36238714Y-72560000D01*
X36238714Y-72560000D02*
X36410142Y-72560000D01*
X36410142Y-72560000D02*
X36524428Y-72617143D01*
X36524428Y-72617143D02*
X36581571Y-72674286D01*
X36581571Y-72674286D02*
X36638714Y-72788571D01*
X36638714Y-72788571D02*
X36638714Y-73245714D01*
X37210142Y-72045714D02*
X36010142Y-72045714D01*
X37210142Y-69931428D02*
X37210142Y-70617142D01*
X37210142Y-70274285D02*
X36010142Y-70274285D01*
X36010142Y-70274285D02*
X36181571Y-70388571D01*
X36181571Y-70388571D02*
X36295857Y-70502856D01*
X36295857Y-70502856D02*
X36353000Y-70617142D01*
X37095857Y-69417142D02*
X37153000Y-69359999D01*
X37153000Y-69359999D02*
X37210142Y-69417142D01*
X37210142Y-69417142D02*
X37153000Y-69474285D01*
X37153000Y-69474285D02*
X37095857Y-69417142D01*
X37095857Y-69417142D02*
X37210142Y-69417142D01*
X36124428Y-68902856D02*
X36067285Y-68845713D01*
X36067285Y-68845713D02*
X36010142Y-68731428D01*
X36010142Y-68731428D02*
X36010142Y-68445713D01*
X36010142Y-68445713D02*
X36067285Y-68331428D01*
X36067285Y-68331428D02*
X36124428Y-68274285D01*
X36124428Y-68274285D02*
X36238714Y-68217142D01*
X36238714Y-68217142D02*
X36353000Y-68217142D01*
X36353000Y-68217142D02*
X36524428Y-68274285D01*
X36524428Y-68274285D02*
X37210142Y-68959999D01*
X37210142Y-68959999D02*
X37210142Y-68217142D01*
X36581571Y-66788570D02*
X36581571Y-66388570D01*
X37210142Y-66217142D02*
X37210142Y-66788570D01*
X37210142Y-66788570D02*
X36010142Y-66788570D01*
X36010142Y-66788570D02*
X36010142Y-66217142D01*
X37210142Y-65817142D02*
X36410142Y-65188571D01*
X36410142Y-65817142D02*
X37210142Y-65188571D01*
X36410142Y-64902856D02*
X36410142Y-64445713D01*
X36010142Y-64731427D02*
X37038714Y-64731427D01*
X37038714Y-64731427D02*
X37153000Y-64674284D01*
X37153000Y-64674284D02*
X37210142Y-64559999D01*
X37210142Y-64559999D02*
X37210142Y-64445713D01*
X37153000Y-63588570D02*
X37210142Y-63702856D01*
X37210142Y-63702856D02*
X37210142Y-63931428D01*
X37210142Y-63931428D02*
X37153000Y-64045713D01*
X37153000Y-64045713D02*
X37038714Y-64102856D01*
X37038714Y-64102856D02*
X36581571Y-64102856D01*
X36581571Y-64102856D02*
X36467285Y-64045713D01*
X36467285Y-64045713D02*
X36410142Y-63931428D01*
X36410142Y-63931428D02*
X36410142Y-63702856D01*
X36410142Y-63702856D02*
X36467285Y-63588570D01*
X36467285Y-63588570D02*
X36581571Y-63531428D01*
X36581571Y-63531428D02*
X36695857Y-63531428D01*
X36695857Y-63531428D02*
X36810142Y-64102856D01*
X36410142Y-63017142D02*
X37210142Y-63017142D01*
X36524428Y-63017142D02*
X36467285Y-62959999D01*
X36467285Y-62959999D02*
X36410142Y-62845714D01*
X36410142Y-62845714D02*
X36410142Y-62674285D01*
X36410142Y-62674285D02*
X36467285Y-62559999D01*
X36467285Y-62559999D02*
X36581571Y-62502857D01*
X36581571Y-62502857D02*
X37210142Y-62502857D01*
X37153000Y-61988571D02*
X37210142Y-61874285D01*
X37210142Y-61874285D02*
X37210142Y-61645714D01*
X37210142Y-61645714D02*
X37153000Y-61531428D01*
X37153000Y-61531428D02*
X37038714Y-61474285D01*
X37038714Y-61474285D02*
X36981571Y-61474285D01*
X36981571Y-61474285D02*
X36867285Y-61531428D01*
X36867285Y-61531428D02*
X36810142Y-61645714D01*
X36810142Y-61645714D02*
X36810142Y-61817143D01*
X36810142Y-61817143D02*
X36753000Y-61931428D01*
X36753000Y-61931428D02*
X36638714Y-61988571D01*
X36638714Y-61988571D02*
X36581571Y-61988571D01*
X36581571Y-61988571D02*
X36467285Y-61931428D01*
X36467285Y-61931428D02*
X36410142Y-61817143D01*
X36410142Y-61817143D02*
X36410142Y-61645714D01*
X36410142Y-61645714D02*
X36467285Y-61531428D01*
X37210142Y-60959999D02*
X36410142Y-60959999D01*
X36010142Y-60959999D02*
X36067285Y-61017142D01*
X36067285Y-61017142D02*
X36124428Y-60959999D01*
X36124428Y-60959999D02*
X36067285Y-60902856D01*
X36067285Y-60902856D02*
X36010142Y-60959999D01*
X36010142Y-60959999D02*
X36124428Y-60959999D01*
X37210142Y-60217142D02*
X37153000Y-60331427D01*
X37153000Y-60331427D02*
X37095857Y-60388570D01*
X37095857Y-60388570D02*
X36981571Y-60445713D01*
X36981571Y-60445713D02*
X36638714Y-60445713D01*
X36638714Y-60445713D02*
X36524428Y-60388570D01*
X36524428Y-60388570D02*
X36467285Y-60331427D01*
X36467285Y-60331427D02*
X36410142Y-60217142D01*
X36410142Y-60217142D02*
X36410142Y-60045713D01*
X36410142Y-60045713D02*
X36467285Y-59931427D01*
X36467285Y-59931427D02*
X36524428Y-59874285D01*
X36524428Y-59874285D02*
X36638714Y-59817142D01*
X36638714Y-59817142D02*
X36981571Y-59817142D01*
X36981571Y-59817142D02*
X37095857Y-59874285D01*
X37095857Y-59874285D02*
X37153000Y-59931427D01*
X37153000Y-59931427D02*
X37210142Y-60045713D01*
X37210142Y-60045713D02*
X37210142Y-60217142D01*
X36410142Y-59302856D02*
X37210142Y-59302856D01*
X36524428Y-59302856D02*
X36467285Y-59245713D01*
X36467285Y-59245713D02*
X36410142Y-59131428D01*
X36410142Y-59131428D02*
X36410142Y-58959999D01*
X36410142Y-58959999D02*
X36467285Y-58845713D01*
X36467285Y-58845713D02*
X36581571Y-58788571D01*
X36581571Y-58788571D02*
X37210142Y-58788571D01*
X36753000Y-57302856D02*
X36753000Y-56388571D01*
X36010142Y-55588571D02*
X36010142Y-55474285D01*
X36010142Y-55474285D02*
X36067285Y-55359999D01*
X36067285Y-55359999D02*
X36124428Y-55302857D01*
X36124428Y-55302857D02*
X36238714Y-55245714D01*
X36238714Y-55245714D02*
X36467285Y-55188571D01*
X36467285Y-55188571D02*
X36753000Y-55188571D01*
X36753000Y-55188571D02*
X36981571Y-55245714D01*
X36981571Y-55245714D02*
X37095857Y-55302857D01*
X37095857Y-55302857D02*
X37153000Y-55359999D01*
X37153000Y-55359999D02*
X37210142Y-55474285D01*
X37210142Y-55474285D02*
X37210142Y-55588571D01*
X37210142Y-55588571D02*
X37153000Y-55702857D01*
X37153000Y-55702857D02*
X37095857Y-55759999D01*
X37095857Y-55759999D02*
X36981571Y-55817142D01*
X36981571Y-55817142D02*
X36753000Y-55874285D01*
X36753000Y-55874285D02*
X36467285Y-55874285D01*
X36467285Y-55874285D02*
X36238714Y-55817142D01*
X36238714Y-55817142D02*
X36124428Y-55759999D01*
X36124428Y-55759999D02*
X36067285Y-55702857D01*
X36067285Y-55702857D02*
X36010142Y-55588571D01*
X37095857Y-54674285D02*
X37153000Y-54617142D01*
X37153000Y-54617142D02*
X37210142Y-54674285D01*
X37210142Y-54674285D02*
X37153000Y-54731428D01*
X37153000Y-54731428D02*
X37095857Y-54674285D01*
X37095857Y-54674285D02*
X37210142Y-54674285D01*
X36124428Y-54159999D02*
X36067285Y-54102856D01*
X36067285Y-54102856D02*
X36010142Y-53988571D01*
X36010142Y-53988571D02*
X36010142Y-53702856D01*
X36010142Y-53702856D02*
X36067285Y-53588571D01*
X36067285Y-53588571D02*
X36124428Y-53531428D01*
X36124428Y-53531428D02*
X36238714Y-53474285D01*
X36238714Y-53474285D02*
X36353000Y-53474285D01*
X36353000Y-53474285D02*
X36524428Y-53531428D01*
X36524428Y-53531428D02*
X37210142Y-54217142D01*
X37210142Y-54217142D02*
X37210142Y-53474285D01*
X36010142Y-52388571D02*
X36010142Y-52959999D01*
X36010142Y-52959999D02*
X36581571Y-53017142D01*
X36581571Y-53017142D02*
X36524428Y-52959999D01*
X36524428Y-52959999D02*
X36467285Y-52845714D01*
X36467285Y-52845714D02*
X36467285Y-52559999D01*
X36467285Y-52559999D02*
X36524428Y-52445714D01*
X36524428Y-52445714D02*
X36581571Y-52388571D01*
X36581571Y-52388571D02*
X36695857Y-52331428D01*
X36695857Y-52331428D02*
X36981571Y-52331428D01*
X36981571Y-52331428D02*
X37095857Y-52388571D01*
X37095857Y-52388571D02*
X37153000Y-52445714D01*
X37153000Y-52445714D02*
X37210142Y-52559999D01*
X37210142Y-52559999D02*
X37210142Y-52845714D01*
X37210142Y-52845714D02*
X37153000Y-52959999D01*
X37153000Y-52959999D02*
X37095857Y-53017142D01*
X36410142Y-51302857D02*
X37210142Y-51302857D01*
X36410142Y-51817142D02*
X37038714Y-51817142D01*
X37038714Y-51817142D02*
X37153000Y-51759999D01*
X37153000Y-51759999D02*
X37210142Y-51645714D01*
X37210142Y-51645714D02*
X37210142Y-51474285D01*
X37210142Y-51474285D02*
X37153000Y-51359999D01*
X37153000Y-51359999D02*
X37095857Y-51302857D01*
D10*
X66098571Y-41246000D02*
X66270000Y-41303142D01*
X66270000Y-41303142D02*
X66555714Y-41303142D01*
X66555714Y-41303142D02*
X66670000Y-41246000D01*
X66670000Y-41246000D02*
X66727142Y-41188857D01*
X66727142Y-41188857D02*
X66784285Y-41074571D01*
X66784285Y-41074571D02*
X66784285Y-40960285D01*
X66784285Y-40960285D02*
X66727142Y-40846000D01*
X66727142Y-40846000D02*
X66670000Y-40788857D01*
X66670000Y-40788857D02*
X66555714Y-40731714D01*
X66555714Y-40731714D02*
X66327142Y-40674571D01*
X66327142Y-40674571D02*
X66212857Y-40617428D01*
X66212857Y-40617428D02*
X66155714Y-40560285D01*
X66155714Y-40560285D02*
X66098571Y-40446000D01*
X66098571Y-40446000D02*
X66098571Y-40331714D01*
X66098571Y-40331714D02*
X66155714Y-40217428D01*
X66155714Y-40217428D02*
X66212857Y-40160285D01*
X66212857Y-40160285D02*
X66327142Y-40103142D01*
X66327142Y-40103142D02*
X66612857Y-40103142D01*
X66612857Y-40103142D02*
X66784285Y-40160285D01*
X67184285Y-40103142D02*
X67469999Y-41303142D01*
X67469999Y-41303142D02*
X67698571Y-40446000D01*
X67698571Y-40446000D02*
X67927142Y-41303142D01*
X67927142Y-41303142D02*
X68212857Y-40103142D01*
X69298571Y-41303142D02*
X68612857Y-41303142D01*
X68955714Y-41303142D02*
X68955714Y-40103142D01*
X68955714Y-40103142D02*
X68841428Y-40274571D01*
X68841428Y-40274571D02*
X68727143Y-40388857D01*
X68727143Y-40388857D02*
X68612857Y-40446000D01*
X70327143Y-40503142D02*
X70327143Y-41303142D01*
X70041428Y-40046000D02*
X69755714Y-40903142D01*
X69755714Y-40903142D02*
X70498571Y-40903142D01*
X66478571Y-98186000D02*
X66650000Y-98243142D01*
X66650000Y-98243142D02*
X66935714Y-98243142D01*
X66935714Y-98243142D02*
X67050000Y-98186000D01*
X67050000Y-98186000D02*
X67107142Y-98128857D01*
X67107142Y-98128857D02*
X67164285Y-98014571D01*
X67164285Y-98014571D02*
X67164285Y-97900285D01*
X67164285Y-97900285D02*
X67107142Y-97786000D01*
X67107142Y-97786000D02*
X67050000Y-97728857D01*
X67050000Y-97728857D02*
X66935714Y-97671714D01*
X66935714Y-97671714D02*
X66707142Y-97614571D01*
X66707142Y-97614571D02*
X66592857Y-97557428D01*
X66592857Y-97557428D02*
X66535714Y-97500285D01*
X66535714Y-97500285D02*
X66478571Y-97386000D01*
X66478571Y-97386000D02*
X66478571Y-97271714D01*
X66478571Y-97271714D02*
X66535714Y-97157428D01*
X66535714Y-97157428D02*
X66592857Y-97100285D01*
X66592857Y-97100285D02*
X66707142Y-97043142D01*
X66707142Y-97043142D02*
X66992857Y-97043142D01*
X66992857Y-97043142D02*
X67164285Y-97100285D01*
X67564285Y-97043142D02*
X67849999Y-98243142D01*
X67849999Y-98243142D02*
X68078571Y-97386000D01*
X68078571Y-97386000D02*
X68307142Y-98243142D01*
X68307142Y-98243142D02*
X68592857Y-97043142D01*
X68935714Y-97043142D02*
X69678571Y-97043142D01*
X69678571Y-97043142D02*
X69278571Y-97500285D01*
X69278571Y-97500285D02*
X69450000Y-97500285D01*
X69450000Y-97500285D02*
X69564286Y-97557428D01*
X69564286Y-97557428D02*
X69621428Y-97614571D01*
X69621428Y-97614571D02*
X69678571Y-97728857D01*
X69678571Y-97728857D02*
X69678571Y-98014571D01*
X69678571Y-98014571D02*
X69621428Y-98128857D01*
X69621428Y-98128857D02*
X69564286Y-98186000D01*
X69564286Y-98186000D02*
X69450000Y-98243142D01*
X69450000Y-98243142D02*
X69107143Y-98243142D01*
X69107143Y-98243142D02*
X68992857Y-98186000D01*
X68992857Y-98186000D02*
X68935714Y-98128857D01*
X70364285Y-97557428D02*
X70250000Y-97500285D01*
X70250000Y-97500285D02*
X70192857Y-97443142D01*
X70192857Y-97443142D02*
X70135714Y-97328857D01*
X70135714Y-97328857D02*
X70135714Y-97271714D01*
X70135714Y-97271714D02*
X70192857Y-97157428D01*
X70192857Y-97157428D02*
X70250000Y-97100285D01*
X70250000Y-97100285D02*
X70364285Y-97043142D01*
X70364285Y-97043142D02*
X70592857Y-97043142D01*
X70592857Y-97043142D02*
X70707143Y-97100285D01*
X70707143Y-97100285D02*
X70764285Y-97157428D01*
X70764285Y-97157428D02*
X70821428Y-97271714D01*
X70821428Y-97271714D02*
X70821428Y-97328857D01*
X70821428Y-97328857D02*
X70764285Y-97443142D01*
X70764285Y-97443142D02*
X70707143Y-97500285D01*
X70707143Y-97500285D02*
X70592857Y-97557428D01*
X70592857Y-97557428D02*
X70364285Y-97557428D01*
X70364285Y-97557428D02*
X70250000Y-97614571D01*
X70250000Y-97614571D02*
X70192857Y-97671714D01*
X70192857Y-97671714D02*
X70135714Y-97786000D01*
X70135714Y-97786000D02*
X70135714Y-98014571D01*
X70135714Y-98014571D02*
X70192857Y-98128857D01*
X70192857Y-98128857D02*
X70250000Y-98186000D01*
X70250000Y-98186000D02*
X70364285Y-98243142D01*
X70364285Y-98243142D02*
X70592857Y-98243142D01*
X70592857Y-98243142D02*
X70707143Y-98186000D01*
X70707143Y-98186000D02*
X70764285Y-98128857D01*
X70764285Y-98128857D02*
X70821428Y-98014571D01*
X70821428Y-98014571D02*
X70821428Y-97786000D01*
X70821428Y-97786000D02*
X70764285Y-97671714D01*
X70764285Y-97671714D02*
X70707143Y-97614571D01*
X70707143Y-97614571D02*
X70592857Y-97557428D01*
X48268571Y-74596000D02*
X48440000Y-74653142D01*
X48440000Y-74653142D02*
X48725714Y-74653142D01*
X48725714Y-74653142D02*
X48840000Y-74596000D01*
X48840000Y-74596000D02*
X48897142Y-74538857D01*
X48897142Y-74538857D02*
X48954285Y-74424571D01*
X48954285Y-74424571D02*
X48954285Y-74310285D01*
X48954285Y-74310285D02*
X48897142Y-74196000D01*
X48897142Y-74196000D02*
X48840000Y-74138857D01*
X48840000Y-74138857D02*
X48725714Y-74081714D01*
X48725714Y-74081714D02*
X48497142Y-74024571D01*
X48497142Y-74024571D02*
X48382857Y-73967428D01*
X48382857Y-73967428D02*
X48325714Y-73910285D01*
X48325714Y-73910285D02*
X48268571Y-73796000D01*
X48268571Y-73796000D02*
X48268571Y-73681714D01*
X48268571Y-73681714D02*
X48325714Y-73567428D01*
X48325714Y-73567428D02*
X48382857Y-73510285D01*
X48382857Y-73510285D02*
X48497142Y-73453142D01*
X48497142Y-73453142D02*
X48782857Y-73453142D01*
X48782857Y-73453142D02*
X48954285Y-73510285D01*
X49354285Y-73453142D02*
X49639999Y-74653142D01*
X49639999Y-74653142D02*
X49868571Y-73796000D01*
X49868571Y-73796000D02*
X50097142Y-74653142D01*
X50097142Y-74653142D02*
X50382857Y-73453142D01*
X50725714Y-73453142D02*
X51468571Y-73453142D01*
X51468571Y-73453142D02*
X51068571Y-73910285D01*
X51068571Y-73910285D02*
X51240000Y-73910285D01*
X51240000Y-73910285D02*
X51354286Y-73967428D01*
X51354286Y-73967428D02*
X51411428Y-74024571D01*
X51411428Y-74024571D02*
X51468571Y-74138857D01*
X51468571Y-74138857D02*
X51468571Y-74424571D01*
X51468571Y-74424571D02*
X51411428Y-74538857D01*
X51411428Y-74538857D02*
X51354286Y-74596000D01*
X51354286Y-74596000D02*
X51240000Y-74653142D01*
X51240000Y-74653142D02*
X50897143Y-74653142D01*
X50897143Y-74653142D02*
X50782857Y-74596000D01*
X50782857Y-74596000D02*
X50725714Y-74538857D01*
X51868571Y-73453142D02*
X52611428Y-73453142D01*
X52611428Y-73453142D02*
X52211428Y-73910285D01*
X52211428Y-73910285D02*
X52382857Y-73910285D01*
X52382857Y-73910285D02*
X52497143Y-73967428D01*
X52497143Y-73967428D02*
X52554285Y-74024571D01*
X52554285Y-74024571D02*
X52611428Y-74138857D01*
X52611428Y-74138857D02*
X52611428Y-74424571D01*
X52611428Y-74424571D02*
X52554285Y-74538857D01*
X52554285Y-74538857D02*
X52497143Y-74596000D01*
X52497143Y-74596000D02*
X52382857Y-74653142D01*
X52382857Y-74653142D02*
X52040000Y-74653142D01*
X52040000Y-74653142D02*
X51925714Y-74596000D01*
X51925714Y-74596000D02*
X51868571Y-74538857D01*
X48418571Y-93476000D02*
X48590000Y-93533142D01*
X48590000Y-93533142D02*
X48875714Y-93533142D01*
X48875714Y-93533142D02*
X48990000Y-93476000D01*
X48990000Y-93476000D02*
X49047142Y-93418857D01*
X49047142Y-93418857D02*
X49104285Y-93304571D01*
X49104285Y-93304571D02*
X49104285Y-93190285D01*
X49104285Y-93190285D02*
X49047142Y-93076000D01*
X49047142Y-93076000D02*
X48990000Y-93018857D01*
X48990000Y-93018857D02*
X48875714Y-92961714D01*
X48875714Y-92961714D02*
X48647142Y-92904571D01*
X48647142Y-92904571D02*
X48532857Y-92847428D01*
X48532857Y-92847428D02*
X48475714Y-92790285D01*
X48475714Y-92790285D02*
X48418571Y-92676000D01*
X48418571Y-92676000D02*
X48418571Y-92561714D01*
X48418571Y-92561714D02*
X48475714Y-92447428D01*
X48475714Y-92447428D02*
X48532857Y-92390285D01*
X48532857Y-92390285D02*
X48647142Y-92333142D01*
X48647142Y-92333142D02*
X48932857Y-92333142D01*
X48932857Y-92333142D02*
X49104285Y-92390285D01*
X49504285Y-92333142D02*
X49789999Y-93533142D01*
X49789999Y-93533142D02*
X50018571Y-92676000D01*
X50018571Y-92676000D02*
X50247142Y-93533142D01*
X50247142Y-93533142D02*
X50532857Y-92333142D01*
X50875714Y-92333142D02*
X51618571Y-92333142D01*
X51618571Y-92333142D02*
X51218571Y-92790285D01*
X51218571Y-92790285D02*
X51390000Y-92790285D01*
X51390000Y-92790285D02*
X51504286Y-92847428D01*
X51504286Y-92847428D02*
X51561428Y-92904571D01*
X51561428Y-92904571D02*
X51618571Y-93018857D01*
X51618571Y-93018857D02*
X51618571Y-93304571D01*
X51618571Y-93304571D02*
X51561428Y-93418857D01*
X51561428Y-93418857D02*
X51504286Y-93476000D01*
X51504286Y-93476000D02*
X51390000Y-93533142D01*
X51390000Y-93533142D02*
X51047143Y-93533142D01*
X51047143Y-93533142D02*
X50932857Y-93476000D01*
X50932857Y-93476000D02*
X50875714Y-93418857D01*
X52018571Y-92333142D02*
X52818571Y-92333142D01*
X52818571Y-92333142D02*
X52304285Y-93533142D01*
X48568571Y-55876000D02*
X48740000Y-55933142D01*
X48740000Y-55933142D02*
X49025714Y-55933142D01*
X49025714Y-55933142D02*
X49140000Y-55876000D01*
X49140000Y-55876000D02*
X49197142Y-55818857D01*
X49197142Y-55818857D02*
X49254285Y-55704571D01*
X49254285Y-55704571D02*
X49254285Y-55590285D01*
X49254285Y-55590285D02*
X49197142Y-55476000D01*
X49197142Y-55476000D02*
X49140000Y-55418857D01*
X49140000Y-55418857D02*
X49025714Y-55361714D01*
X49025714Y-55361714D02*
X48797142Y-55304571D01*
X48797142Y-55304571D02*
X48682857Y-55247428D01*
X48682857Y-55247428D02*
X48625714Y-55190285D01*
X48625714Y-55190285D02*
X48568571Y-55076000D01*
X48568571Y-55076000D02*
X48568571Y-54961714D01*
X48568571Y-54961714D02*
X48625714Y-54847428D01*
X48625714Y-54847428D02*
X48682857Y-54790285D01*
X48682857Y-54790285D02*
X48797142Y-54733142D01*
X48797142Y-54733142D02*
X49082857Y-54733142D01*
X49082857Y-54733142D02*
X49254285Y-54790285D01*
X49654285Y-54733142D02*
X49939999Y-55933142D01*
X49939999Y-55933142D02*
X50168571Y-55076000D01*
X50168571Y-55076000D02*
X50397142Y-55933142D01*
X50397142Y-55933142D02*
X50682857Y-54733142D01*
X51768571Y-55933142D02*
X51082857Y-55933142D01*
X51425714Y-55933142D02*
X51425714Y-54733142D01*
X51425714Y-54733142D02*
X51311428Y-54904571D01*
X51311428Y-54904571D02*
X51197143Y-55018857D01*
X51197143Y-55018857D02*
X51082857Y-55076000D01*
X52168571Y-54733142D02*
X52968571Y-54733142D01*
X52968571Y-54733142D02*
X52454285Y-55933142D01*
D12*
%TO.C,H11*%
X36256905Y-85162619D02*
X36256905Y-84162619D01*
X36256905Y-84638809D02*
X36828333Y-84638809D01*
X36828333Y-85162619D02*
X36828333Y-84162619D01*
X37828333Y-85162619D02*
X37256905Y-85162619D01*
X37542619Y-85162619D02*
X37542619Y-84162619D01*
X37542619Y-84162619D02*
X37447381Y-84305476D01*
X37447381Y-84305476D02*
X37352143Y-84400714D01*
X37352143Y-84400714D02*
X37256905Y-84448333D01*
X38780714Y-85162619D02*
X38209286Y-85162619D01*
X38495000Y-85162619D02*
X38495000Y-84162619D01*
X38495000Y-84162619D02*
X38399762Y-84305476D01*
X38399762Y-84305476D02*
X38304524Y-84400714D01*
X38304524Y-84400714D02*
X38209286Y-84448333D01*
%TO.C,H12*%
X36396905Y-47612619D02*
X36396905Y-46612619D01*
X36396905Y-47088809D02*
X36968333Y-47088809D01*
X36968333Y-47612619D02*
X36968333Y-46612619D01*
X37968333Y-47612619D02*
X37396905Y-47612619D01*
X37682619Y-47612619D02*
X37682619Y-46612619D01*
X37682619Y-46612619D02*
X37587381Y-46755476D01*
X37587381Y-46755476D02*
X37492143Y-46850714D01*
X37492143Y-46850714D02*
X37396905Y-46898333D01*
X38349286Y-46707857D02*
X38396905Y-46660238D01*
X38396905Y-46660238D02*
X38492143Y-46612619D01*
X38492143Y-46612619D02*
X38730238Y-46612619D01*
X38730238Y-46612619D02*
X38825476Y-46660238D01*
X38825476Y-46660238D02*
X38873095Y-46707857D01*
X38873095Y-46707857D02*
X38920714Y-46803095D01*
X38920714Y-46803095D02*
X38920714Y-46898333D01*
X38920714Y-46898333D02*
X38873095Y-47041190D01*
X38873095Y-47041190D02*
X38301667Y-47612619D01*
X38301667Y-47612619D02*
X38920714Y-47612619D01*
%TO.C,H9*%
X70358095Y-52292619D02*
X70358095Y-51292619D01*
X70358095Y-51768809D02*
X70929523Y-51768809D01*
X70929523Y-52292619D02*
X70929523Y-51292619D01*
X71453333Y-52292619D02*
X71643809Y-52292619D01*
X71643809Y-52292619D02*
X71739047Y-52245000D01*
X71739047Y-52245000D02*
X71786666Y-52197380D01*
X71786666Y-52197380D02*
X71881904Y-52054523D01*
X71881904Y-52054523D02*
X71929523Y-51864047D01*
X71929523Y-51864047D02*
X71929523Y-51483095D01*
X71929523Y-51483095D02*
X71881904Y-51387857D01*
X71881904Y-51387857D02*
X71834285Y-51340238D01*
X71834285Y-51340238D02*
X71739047Y-51292619D01*
X71739047Y-51292619D02*
X71548571Y-51292619D01*
X71548571Y-51292619D02*
X71453333Y-51340238D01*
X71453333Y-51340238D02*
X71405714Y-51387857D01*
X71405714Y-51387857D02*
X71358095Y-51483095D01*
X71358095Y-51483095D02*
X71358095Y-51721190D01*
X71358095Y-51721190D02*
X71405714Y-51816428D01*
X71405714Y-51816428D02*
X71453333Y-51864047D01*
X71453333Y-51864047D02*
X71548571Y-51911666D01*
X71548571Y-51911666D02*
X71739047Y-51911666D01*
X71739047Y-51911666D02*
X71834285Y-51864047D01*
X71834285Y-51864047D02*
X71881904Y-51816428D01*
X71881904Y-51816428D02*
X71929523Y-51721190D01*
%TO.C,H10*%
X69871905Y-89952619D02*
X69871905Y-88952619D01*
X69871905Y-89428809D02*
X70443333Y-89428809D01*
X70443333Y-89952619D02*
X70443333Y-88952619D01*
X71443333Y-89952619D02*
X70871905Y-89952619D01*
X71157619Y-89952619D02*
X71157619Y-88952619D01*
X71157619Y-88952619D02*
X71062381Y-89095476D01*
X71062381Y-89095476D02*
X70967143Y-89190714D01*
X70967143Y-89190714D02*
X70871905Y-89238333D01*
X72062381Y-88952619D02*
X72157619Y-88952619D01*
X72157619Y-88952619D02*
X72252857Y-89000238D01*
X72252857Y-89000238D02*
X72300476Y-89047857D01*
X72300476Y-89047857D02*
X72348095Y-89143095D01*
X72348095Y-89143095D02*
X72395714Y-89333571D01*
X72395714Y-89333571D02*
X72395714Y-89571666D01*
X72395714Y-89571666D02*
X72348095Y-89762142D01*
X72348095Y-89762142D02*
X72300476Y-89857380D01*
X72300476Y-89857380D02*
X72252857Y-89905000D01*
X72252857Y-89905000D02*
X72157619Y-89952619D01*
X72157619Y-89952619D02*
X72062381Y-89952619D01*
X72062381Y-89952619D02*
X71967143Y-89905000D01*
X71967143Y-89905000D02*
X71919524Y-89857380D01*
X71919524Y-89857380D02*
X71871905Y-89762142D01*
X71871905Y-89762142D02*
X71824286Y-89571666D01*
X71824286Y-89571666D02*
X71824286Y-89333571D01*
X71824286Y-89333571D02*
X71871905Y-89143095D01*
X71871905Y-89143095D02*
X71919524Y-89047857D01*
X71919524Y-89047857D02*
X71967143Y-89000238D01*
X71967143Y-89000238D02*
X72062381Y-88952619D01*
%TO.C,SW18*%
X57143125Y-55053125D02*
X58730625Y-55053125D01*
X57143125Y-56640625D02*
X57143125Y-55053125D01*
X57143125Y-68546875D02*
X57143125Y-66959375D01*
X58730625Y-68546875D02*
X57143125Y-68546875D01*
X69049375Y-55053125D02*
X70636875Y-55053125D01*
X70636875Y-55053125D02*
X70636875Y-56640625D01*
X70636875Y-66959375D02*
X70636875Y-68546875D01*
X70636875Y-68546875D02*
X69049375Y-68546875D01*
%TO.C,SW33*%
X37903125Y-69045625D02*
X39490625Y-69045625D01*
X37903125Y-70633125D02*
X37903125Y-69045625D01*
X37903125Y-82539375D02*
X37903125Y-80951875D01*
X39490625Y-82539375D02*
X37903125Y-82539375D01*
X49809375Y-69045625D02*
X51396875Y-69045625D01*
X51396875Y-69045625D02*
X51396875Y-70633125D01*
X51396875Y-80951875D02*
X51396875Y-82539375D01*
X51396875Y-82539375D02*
X49809375Y-82539375D01*
%TO.C,SW34*%
X57143125Y-73903125D02*
X58730625Y-73903125D01*
X57143125Y-75490625D02*
X57143125Y-73903125D01*
X57143125Y-87396875D02*
X57143125Y-85809375D01*
X58730625Y-87396875D02*
X57143125Y-87396875D01*
X69049375Y-73903125D02*
X70636875Y-73903125D01*
X70636875Y-73903125D02*
X70636875Y-75490625D01*
X70636875Y-85809375D02*
X70636875Y-87396875D01*
X70636875Y-87396875D02*
X69049375Y-87396875D01*
%TO.C,SW13*%
X37903125Y-31345625D02*
X39490625Y-31345625D01*
X37903125Y-32933125D02*
X37903125Y-31345625D01*
X37903125Y-44839375D02*
X37903125Y-43251875D01*
X39490625Y-44839375D02*
X37903125Y-44839375D01*
X49809375Y-31345625D02*
X51396875Y-31345625D01*
X51396875Y-31345625D02*
X51396875Y-32933125D01*
X51396875Y-43251875D02*
X51396875Y-44839375D01*
X51396875Y-44839375D02*
X49809375Y-44839375D01*
%TO.C,SW17*%
X37903125Y-50195625D02*
X39490625Y-50195625D01*
X37903125Y-51783125D02*
X37903125Y-50195625D01*
X37903125Y-63689375D02*
X37903125Y-62101875D01*
X39490625Y-63689375D02*
X37903125Y-63689375D01*
X49809375Y-50195625D02*
X51396875Y-50195625D01*
X51396875Y-50195625D02*
X51396875Y-51783125D01*
X51396875Y-62101875D02*
X51396875Y-63689375D01*
X51396875Y-63689375D02*
X49809375Y-63689375D01*
%TO.C,SW14*%
X57143125Y-36203125D02*
X58730625Y-36203125D01*
X57143125Y-37790625D02*
X57143125Y-36203125D01*
X57143125Y-49696875D02*
X57143125Y-48109375D01*
X58730625Y-49696875D02*
X57143125Y-49696875D01*
X69049375Y-36203125D02*
X70636875Y-36203125D01*
X70636875Y-36203125D02*
X70636875Y-37790625D01*
X70636875Y-48109375D02*
X70636875Y-49696875D01*
X70636875Y-49696875D02*
X69049375Y-49696875D01*
%TO.C,SW38*%
X57143125Y-92753125D02*
X58730625Y-92753125D01*
X57143125Y-94340625D02*
X57143125Y-92753125D01*
X57143125Y-106246875D02*
X57143125Y-104659375D01*
X58730625Y-106246875D02*
X57143125Y-106246875D01*
X69049375Y-92753125D02*
X70636875Y-92753125D01*
X70636875Y-92753125D02*
X70636875Y-94340625D01*
X70636875Y-104659375D02*
X70636875Y-106246875D01*
X70636875Y-106246875D02*
X69049375Y-106246875D01*
%TO.C,SW37*%
X37903125Y-87895625D02*
X39490625Y-87895625D01*
X37903125Y-89483125D02*
X37903125Y-87895625D01*
X37903125Y-101389375D02*
X37903125Y-99801875D01*
X39490625Y-101389375D02*
X37903125Y-101389375D01*
X49809375Y-87895625D02*
X51396875Y-87895625D01*
X51396875Y-87895625D02*
X51396875Y-89483125D01*
X51396875Y-99801875D02*
X51396875Y-101389375D01*
X51396875Y-101389375D02*
X49809375Y-101389375D01*
%TD*%
M02*
