%TF.GenerationSoftware,KiCad,Pcbnew,7.0.1-0*%
%TF.CreationDate,2023-03-31T22:03:26+09:00*%
%TF.ProjectId,pangaea-pcb-pinkey-0.25u-right,70616e67-6165-4612-9d70-63622d70696e,rev?*%
%TF.SameCoordinates,Original*%
%TF.FileFunction,Legend,Bot*%
%TF.FilePolarity,Positive*%
%FSLAX46Y46*%
G04 Gerber Fmt 4.6, Leading zero omitted, Abs format (unit mm)*
G04 Created by KiCad (PCBNEW 7.0.1-0) date 2023-03-31 22:03:26*
%MOMM*%
%LPD*%
G01*
G04 APERTURE LIST*
%ADD10C,0.300000*%
%ADD11C,0.162500*%
%ADD12C,0.150000*%
%ADD13C,0.200000*%
%ADD14C,0.120000*%
G04 APERTURE END LIST*
D10*
X53458857Y-94871428D02*
X53516000Y-94814285D01*
X53516000Y-94814285D02*
X53573142Y-94642857D01*
X53573142Y-94642857D02*
X53573142Y-94528571D01*
X53573142Y-94528571D02*
X53516000Y-94357142D01*
X53516000Y-94357142D02*
X53401714Y-94242857D01*
X53401714Y-94242857D02*
X53287428Y-94185714D01*
X53287428Y-94185714D02*
X53058857Y-94128571D01*
X53058857Y-94128571D02*
X52887428Y-94128571D01*
X52887428Y-94128571D02*
X52658857Y-94185714D01*
X52658857Y-94185714D02*
X52544571Y-94242857D01*
X52544571Y-94242857D02*
X52430285Y-94357142D01*
X52430285Y-94357142D02*
X52373142Y-94528571D01*
X52373142Y-94528571D02*
X52373142Y-94642857D01*
X52373142Y-94642857D02*
X52430285Y-94814285D01*
X52430285Y-94814285D02*
X52487428Y-94871428D01*
X53573142Y-95385714D02*
X52373142Y-95385714D01*
X53573142Y-95900000D02*
X52944571Y-95900000D01*
X52944571Y-95900000D02*
X52830285Y-95842857D01*
X52830285Y-95842857D02*
X52773142Y-95728571D01*
X52773142Y-95728571D02*
X52773142Y-95557142D01*
X52773142Y-95557142D02*
X52830285Y-95442857D01*
X52830285Y-95442857D02*
X52887428Y-95385714D01*
X53573142Y-96642856D02*
X53516000Y-96528571D01*
X53516000Y-96528571D02*
X53458857Y-96471428D01*
X53458857Y-96471428D02*
X53344571Y-96414285D01*
X53344571Y-96414285D02*
X53001714Y-96414285D01*
X53001714Y-96414285D02*
X52887428Y-96471428D01*
X52887428Y-96471428D02*
X52830285Y-96528571D01*
X52830285Y-96528571D02*
X52773142Y-96642856D01*
X52773142Y-96642856D02*
X52773142Y-96814285D01*
X52773142Y-96814285D02*
X52830285Y-96928571D01*
X52830285Y-96928571D02*
X52887428Y-96985714D01*
X52887428Y-96985714D02*
X53001714Y-97042856D01*
X53001714Y-97042856D02*
X53344571Y-97042856D01*
X53344571Y-97042856D02*
X53458857Y-96985714D01*
X53458857Y-96985714D02*
X53516000Y-96928571D01*
X53516000Y-96928571D02*
X53573142Y-96814285D01*
X53573142Y-96814285D02*
X53573142Y-96642856D01*
X53516000Y-98071428D02*
X53573142Y-97957142D01*
X53573142Y-97957142D02*
X53573142Y-97728570D01*
X53573142Y-97728570D02*
X53516000Y-97614285D01*
X53516000Y-97614285D02*
X53458857Y-97557142D01*
X53458857Y-97557142D02*
X53344571Y-97499999D01*
X53344571Y-97499999D02*
X53001714Y-97499999D01*
X53001714Y-97499999D02*
X52887428Y-97557142D01*
X52887428Y-97557142D02*
X52830285Y-97614285D01*
X52830285Y-97614285D02*
X52773142Y-97728570D01*
X52773142Y-97728570D02*
X52773142Y-97957142D01*
X52773142Y-97957142D02*
X52830285Y-98071428D01*
D11*
X70942619Y-107959698D02*
X71375952Y-107340651D01*
X71685476Y-107959698D02*
X71685476Y-106659698D01*
X71685476Y-106659698D02*
X71190238Y-106659698D01*
X71190238Y-106659698D02*
X71066428Y-106721603D01*
X71066428Y-106721603D02*
X71004523Y-106783508D01*
X71004523Y-106783508D02*
X70942619Y-106907317D01*
X70942619Y-106907317D02*
X70942619Y-107093032D01*
X70942619Y-107093032D02*
X71004523Y-107216841D01*
X71004523Y-107216841D02*
X71066428Y-107278746D01*
X71066428Y-107278746D02*
X71190238Y-107340651D01*
X71190238Y-107340651D02*
X71685476Y-107340651D01*
X70385476Y-107959698D02*
X70385476Y-107093032D01*
X70385476Y-106659698D02*
X70447380Y-106721603D01*
X70447380Y-106721603D02*
X70385476Y-106783508D01*
X70385476Y-106783508D02*
X70323571Y-106721603D01*
X70323571Y-106721603D02*
X70385476Y-106659698D01*
X70385476Y-106659698D02*
X70385476Y-106783508D01*
X69209285Y-107093032D02*
X69209285Y-108145413D01*
X69209285Y-108145413D02*
X69271190Y-108269222D01*
X69271190Y-108269222D02*
X69333094Y-108331127D01*
X69333094Y-108331127D02*
X69456904Y-108393032D01*
X69456904Y-108393032D02*
X69642618Y-108393032D01*
X69642618Y-108393032D02*
X69766428Y-108331127D01*
X69209285Y-107897794D02*
X69333094Y-107959698D01*
X69333094Y-107959698D02*
X69580713Y-107959698D01*
X69580713Y-107959698D02*
X69704523Y-107897794D01*
X69704523Y-107897794D02*
X69766428Y-107835889D01*
X69766428Y-107835889D02*
X69828332Y-107712079D01*
X69828332Y-107712079D02*
X69828332Y-107340651D01*
X69828332Y-107340651D02*
X69766428Y-107216841D01*
X69766428Y-107216841D02*
X69704523Y-107154936D01*
X69704523Y-107154936D02*
X69580713Y-107093032D01*
X69580713Y-107093032D02*
X69333094Y-107093032D01*
X69333094Y-107093032D02*
X69209285Y-107154936D01*
X68590238Y-107959698D02*
X68590238Y-106659698D01*
X68033095Y-107959698D02*
X68033095Y-107278746D01*
X68033095Y-107278746D02*
X68095000Y-107154936D01*
X68095000Y-107154936D02*
X68218809Y-107093032D01*
X68218809Y-107093032D02*
X68404523Y-107093032D01*
X68404523Y-107093032D02*
X68528333Y-107154936D01*
X68528333Y-107154936D02*
X68590238Y-107216841D01*
X67599762Y-107093032D02*
X67104524Y-107093032D01*
X67414048Y-106659698D02*
X67414048Y-107773984D01*
X67414048Y-107773984D02*
X67352143Y-107897794D01*
X67352143Y-107897794D02*
X67228333Y-107959698D01*
X67228333Y-107959698D02*
X67104524Y-107959698D01*
D10*
G36*
X55207292Y-100386785D02*
G01*
X55014610Y-100386785D01*
X54938419Y-100043928D01*
X55131101Y-100043928D01*
X55207292Y-100386785D01*
G37*
G36*
X52376859Y-100160063D02*
G01*
X52413864Y-100197068D01*
X52458570Y-100286481D01*
X52458570Y-100572804D01*
X52413863Y-100662218D01*
X52376858Y-100699222D01*
X52287446Y-100743928D01*
X52072552Y-100743928D01*
X51983138Y-100699221D01*
X51946134Y-100662217D01*
X51901427Y-100572804D01*
X51901427Y-100286482D01*
X51946134Y-100197068D01*
X51983139Y-100160062D01*
X52072552Y-100115357D01*
X52287446Y-100115357D01*
X52376859Y-100160063D01*
G37*
G36*
X50948288Y-100160063D02*
G01*
X50985293Y-100197068D01*
X51029999Y-100286481D01*
X51029999Y-100572804D01*
X50985292Y-100662218D01*
X50948287Y-100699222D01*
X50858875Y-100743928D01*
X50643981Y-100743928D01*
X50554567Y-100699221D01*
X50517563Y-100662217D01*
X50472856Y-100572804D01*
X50472856Y-100286482D01*
X50517563Y-100197068D01*
X50554568Y-100160062D01*
X50643981Y-100115357D01*
X50858875Y-100115357D01*
X50948288Y-100160063D01*
G37*
G36*
X56712143Y-101989286D02*
G01*
X49147858Y-101989286D01*
X49147858Y-100267852D01*
X50167426Y-100267852D01*
X50172856Y-100280944D01*
X50172856Y-100600139D01*
X50168995Y-100635902D01*
X50182702Y-100663316D01*
X50191340Y-100692734D01*
X50202052Y-100702016D01*
X50251709Y-100801329D01*
X50257075Y-100825993D01*
X50286295Y-100855213D01*
X50314452Y-100885484D01*
X50317292Y-100886210D01*
X50346349Y-100915267D01*
X50359238Y-100936967D01*
X50396187Y-100955441D01*
X50432483Y-100975261D01*
X50435407Y-100975051D01*
X50534265Y-101024480D01*
X50564527Y-101043928D01*
X50595179Y-101043928D01*
X50625353Y-101049358D01*
X50638445Y-101043928D01*
X50886209Y-101043928D01*
X50921972Y-101047789D01*
X50949386Y-101034081D01*
X50978805Y-101025444D01*
X50988086Y-101014732D01*
X51087402Y-100965074D01*
X51112064Y-100959710D01*
X51141275Y-100930498D01*
X51171555Y-100902333D01*
X51172281Y-100899492D01*
X51201338Y-100870435D01*
X51223038Y-100857547D01*
X51241512Y-100820597D01*
X51261332Y-100784302D01*
X51261122Y-100781377D01*
X51310551Y-100682519D01*
X51329999Y-100652258D01*
X51329999Y-100621606D01*
X51335429Y-100591432D01*
X51329999Y-100578340D01*
X51329999Y-100267852D01*
X51595997Y-100267852D01*
X51601427Y-100280944D01*
X51601427Y-100600139D01*
X51597566Y-100635902D01*
X51611273Y-100663316D01*
X51619911Y-100692734D01*
X51630623Y-100702016D01*
X51680280Y-100801329D01*
X51685646Y-100825993D01*
X51714866Y-100855213D01*
X51743023Y-100885484D01*
X51745863Y-100886210D01*
X51774920Y-100915267D01*
X51787809Y-100936967D01*
X51824758Y-100955441D01*
X51861054Y-100975261D01*
X51863978Y-100975051D01*
X51962836Y-101024480D01*
X51993098Y-101043928D01*
X52023750Y-101043928D01*
X52053924Y-101049358D01*
X52067016Y-101043928D01*
X52314780Y-101043928D01*
X52350543Y-101047789D01*
X52377957Y-101034081D01*
X52407376Y-101025444D01*
X52416657Y-101014732D01*
X52515973Y-100965074D01*
X52540635Y-100959710D01*
X52569846Y-100930498D01*
X52585242Y-100916177D01*
X53025256Y-100916177D01*
X53061849Y-100996304D01*
X53135954Y-101043928D01*
X53597839Y-101043928D01*
X53630819Y-101048670D01*
X53641202Y-101043928D01*
X54058709Y-101043928D01*
X54121661Y-101025444D01*
X54179346Y-100958871D01*
X54191883Y-100871679D01*
X54155290Y-100791552D01*
X54081185Y-100743928D01*
X53758570Y-100743928D01*
X53758570Y-99827489D01*
X53774917Y-99843836D01*
X53787807Y-99865538D01*
X53824777Y-99884023D01*
X53861053Y-99903831D01*
X53863975Y-99903622D01*
X53989349Y-99966309D01*
X54053922Y-99977930D01*
X54135289Y-99944183D01*
X54154716Y-99916177D01*
X54310971Y-99916177D01*
X54347564Y-99996304D01*
X54421669Y-100043928D01*
X54631101Y-100043928D01*
X54707292Y-100386785D01*
X54587002Y-100386785D01*
X54524050Y-100405269D01*
X54466365Y-100471842D01*
X54453828Y-100559034D01*
X54490421Y-100639161D01*
X54564526Y-100686785D01*
X54773958Y-100686785D01*
X54895392Y-101233236D01*
X54927092Y-101290679D01*
X55004593Y-101332549D01*
X55092428Y-101325873D01*
X55162709Y-101272769D01*
X55193124Y-101190097D01*
X55081277Y-100686785D01*
X55273958Y-100686785D01*
X55395392Y-101233236D01*
X55427092Y-101290679D01*
X55504593Y-101332549D01*
X55592428Y-101325873D01*
X55662709Y-101272769D01*
X55693124Y-101190097D01*
X55581277Y-100686785D01*
X55701566Y-100686785D01*
X55764518Y-100668301D01*
X55822203Y-100601728D01*
X55834740Y-100514536D01*
X55798147Y-100434409D01*
X55724042Y-100386785D01*
X55514610Y-100386785D01*
X55438419Y-100043928D01*
X55558709Y-100043928D01*
X55621661Y-100025444D01*
X55679346Y-99958871D01*
X55691883Y-99871679D01*
X55655290Y-99791552D01*
X55581185Y-99743928D01*
X55371753Y-99743928D01*
X55250319Y-99197477D01*
X55218619Y-99140034D01*
X55141118Y-99098164D01*
X55053283Y-99104840D01*
X54983002Y-99157944D01*
X54952587Y-99240615D01*
X55064434Y-99743928D01*
X54871753Y-99743928D01*
X54750319Y-99197477D01*
X54718619Y-99140034D01*
X54641118Y-99098164D01*
X54553283Y-99104840D01*
X54483002Y-99157944D01*
X54452587Y-99240615D01*
X54564434Y-99743928D01*
X54444145Y-99743928D01*
X54381193Y-99762412D01*
X54323508Y-99828985D01*
X54310971Y-99916177D01*
X54154716Y-99916177D01*
X54185496Y-99871803D01*
X54188601Y-99783770D01*
X54143617Y-99708033D01*
X53983139Y-99627794D01*
X53867996Y-99512651D01*
X53746055Y-99329739D01*
X53740086Y-99309408D01*
X53722127Y-99293846D01*
X53721414Y-99292777D01*
X53705822Y-99279718D01*
X53673513Y-99251723D01*
X53672163Y-99251528D01*
X53671115Y-99250651D01*
X53628648Y-99245272D01*
X53586321Y-99239186D01*
X53585078Y-99239753D01*
X53583725Y-99239582D01*
X53545118Y-99258002D01*
X53506194Y-99275779D01*
X53505456Y-99276927D01*
X53504222Y-99277516D01*
X53481677Y-99313928D01*
X53458570Y-99349884D01*
X53458570Y-99351249D01*
X53457851Y-99352410D01*
X53458570Y-99395198D01*
X53458570Y-100743928D01*
X53158430Y-100743928D01*
X53095478Y-100762412D01*
X53037793Y-100828985D01*
X53025256Y-100916177D01*
X52585242Y-100916177D01*
X52600126Y-100902333D01*
X52600852Y-100899492D01*
X52629909Y-100870435D01*
X52651609Y-100857547D01*
X52670083Y-100820597D01*
X52689903Y-100784302D01*
X52689693Y-100781377D01*
X52739122Y-100682519D01*
X52758570Y-100652258D01*
X52758570Y-100621606D01*
X52764000Y-100591432D01*
X52758570Y-100578340D01*
X52758570Y-100259147D01*
X52762431Y-100223384D01*
X52758570Y-100215662D01*
X52758570Y-100061472D01*
X52764774Y-100043134D01*
X52758570Y-100018318D01*
X52758570Y-100015217D01*
X52753351Y-99997443D01*
X52686832Y-99731367D01*
X52686381Y-99704513D01*
X52664339Y-99671450D01*
X52644232Y-99637177D01*
X52640091Y-99635079D01*
X52534826Y-99477180D01*
X52531494Y-99461862D01*
X52510855Y-99441223D01*
X52507129Y-99435634D01*
X52495661Y-99426029D01*
X52442219Y-99372588D01*
X52429332Y-99350890D01*
X52392382Y-99332415D01*
X52356086Y-99312596D01*
X52353162Y-99312805D01*
X52254308Y-99263378D01*
X52224043Y-99243928D01*
X52193390Y-99243928D01*
X52163218Y-99238498D01*
X52150126Y-99243928D01*
X51872717Y-99243928D01*
X51809765Y-99262412D01*
X51752080Y-99328985D01*
X51739543Y-99416177D01*
X51776136Y-99496304D01*
X51850241Y-99543928D01*
X52144588Y-99543928D01*
X52234003Y-99588635D01*
X52277714Y-99632345D01*
X52397922Y-99812657D01*
X52404358Y-99838402D01*
X52397158Y-99834802D01*
X52366900Y-99815357D01*
X52336249Y-99815357D01*
X52306074Y-99809927D01*
X52292982Y-99815357D01*
X52045218Y-99815357D01*
X52009455Y-99811496D01*
X51982040Y-99825203D01*
X51952622Y-99833841D01*
X51943340Y-99844552D01*
X51844024Y-99894210D01*
X51819363Y-99899575D01*
X51790151Y-99928786D01*
X51759872Y-99956952D01*
X51759145Y-99959792D01*
X51730088Y-99988849D01*
X51708389Y-100001738D01*
X51689913Y-100038689D01*
X51670095Y-100074983D01*
X51670304Y-100077907D01*
X51620877Y-100176761D01*
X51601427Y-100207027D01*
X51601427Y-100237680D01*
X51595997Y-100267852D01*
X51329999Y-100267852D01*
X51329999Y-100259147D01*
X51333860Y-100223384D01*
X51329999Y-100215662D01*
X51329999Y-100061472D01*
X51336203Y-100043134D01*
X51329999Y-100018318D01*
X51329999Y-100015217D01*
X51324780Y-99997443D01*
X51258261Y-99731367D01*
X51257810Y-99704513D01*
X51235768Y-99671450D01*
X51215661Y-99637177D01*
X51211520Y-99635079D01*
X51106255Y-99477180D01*
X51102923Y-99461862D01*
X51082284Y-99441223D01*
X51078558Y-99435634D01*
X51067090Y-99426029D01*
X51013648Y-99372588D01*
X51000761Y-99350890D01*
X50963811Y-99332415D01*
X50927515Y-99312596D01*
X50924591Y-99312805D01*
X50825737Y-99263378D01*
X50795472Y-99243928D01*
X50764819Y-99243928D01*
X50734647Y-99238498D01*
X50721555Y-99243928D01*
X50444146Y-99243928D01*
X50381194Y-99262412D01*
X50323509Y-99328985D01*
X50310972Y-99416177D01*
X50347565Y-99496304D01*
X50421670Y-99543928D01*
X50716017Y-99543928D01*
X50805432Y-99588635D01*
X50849143Y-99632345D01*
X50969351Y-99812657D01*
X50975787Y-99838402D01*
X50968587Y-99834802D01*
X50938329Y-99815357D01*
X50907678Y-99815357D01*
X50877503Y-99809927D01*
X50864411Y-99815357D01*
X50616647Y-99815357D01*
X50580884Y-99811496D01*
X50553469Y-99825203D01*
X50524051Y-99833841D01*
X50514769Y-99844552D01*
X50415453Y-99894210D01*
X50390792Y-99899575D01*
X50361580Y-99928786D01*
X50331301Y-99956952D01*
X50330574Y-99959792D01*
X50301517Y-99988849D01*
X50279818Y-100001738D01*
X50261342Y-100038689D01*
X50241524Y-100074983D01*
X50241733Y-100077907D01*
X50192306Y-100176761D01*
X50172856Y-100207027D01*
X50172856Y-100237680D01*
X50167426Y-100267852D01*
X49147858Y-100267852D01*
X49147858Y-98410714D01*
X56712143Y-98410714D01*
X56712143Y-101989286D01*
G37*
X52731142Y-66558571D02*
X52674000Y-66615714D01*
X52674000Y-66615714D02*
X52616857Y-66787142D01*
X52616857Y-66787142D02*
X52616857Y-66901428D01*
X52616857Y-66901428D02*
X52674000Y-67072857D01*
X52674000Y-67072857D02*
X52788285Y-67187142D01*
X52788285Y-67187142D02*
X52902571Y-67244285D01*
X52902571Y-67244285D02*
X53131142Y-67301428D01*
X53131142Y-67301428D02*
X53302571Y-67301428D01*
X53302571Y-67301428D02*
X53531142Y-67244285D01*
X53531142Y-67244285D02*
X53645428Y-67187142D01*
X53645428Y-67187142D02*
X53759714Y-67072857D01*
X53759714Y-67072857D02*
X53816857Y-66901428D01*
X53816857Y-66901428D02*
X53816857Y-66787142D01*
X53816857Y-66787142D02*
X53759714Y-66615714D01*
X53759714Y-66615714D02*
X53702571Y-66558571D01*
X52616857Y-66044285D02*
X53816857Y-66044285D01*
X52616857Y-65530000D02*
X53245428Y-65530000D01*
X53245428Y-65530000D02*
X53359714Y-65587142D01*
X53359714Y-65587142D02*
X53416857Y-65701428D01*
X53416857Y-65701428D02*
X53416857Y-65872857D01*
X53416857Y-65872857D02*
X53359714Y-65987142D01*
X53359714Y-65987142D02*
X53302571Y-66044285D01*
X52674000Y-64501428D02*
X52616857Y-64615714D01*
X52616857Y-64615714D02*
X52616857Y-64844286D01*
X52616857Y-64844286D02*
X52674000Y-64958571D01*
X52674000Y-64958571D02*
X52788285Y-65015714D01*
X52788285Y-65015714D02*
X53245428Y-65015714D01*
X53245428Y-65015714D02*
X53359714Y-64958571D01*
X53359714Y-64958571D02*
X53416857Y-64844286D01*
X53416857Y-64844286D02*
X53416857Y-64615714D01*
X53416857Y-64615714D02*
X53359714Y-64501428D01*
X53359714Y-64501428D02*
X53245428Y-64444286D01*
X53245428Y-64444286D02*
X53131142Y-64444286D01*
X53131142Y-64444286D02*
X53016857Y-65015714D01*
X52616857Y-63930000D02*
X53416857Y-63930000D01*
X53188285Y-63930000D02*
X53302571Y-63872857D01*
X53302571Y-63872857D02*
X53359714Y-63815715D01*
X53359714Y-63815715D02*
X53416857Y-63701429D01*
X53416857Y-63701429D02*
X53416857Y-63587143D01*
X52616857Y-63187143D02*
X53416857Y-63187143D01*
X53188285Y-63187143D02*
X53302571Y-63130000D01*
X53302571Y-63130000D02*
X53359714Y-63072858D01*
X53359714Y-63072858D02*
X53416857Y-62958572D01*
X53416857Y-62958572D02*
X53416857Y-62844286D01*
X53416857Y-62558572D02*
X52616857Y-62272858D01*
X53416857Y-61987143D02*
X52616857Y-62272858D01*
X52616857Y-62272858D02*
X52331142Y-62387143D01*
X52331142Y-62387143D02*
X52274000Y-62444286D01*
X52274000Y-62444286D02*
X52216857Y-62558572D01*
X52616857Y-60615714D02*
X53816857Y-60615714D01*
X53816857Y-60615714D02*
X52959714Y-60215714D01*
X52959714Y-60215714D02*
X53816857Y-59815714D01*
X53816857Y-59815714D02*
X52616857Y-59815714D01*
X53816857Y-59358571D02*
X52616857Y-58558571D01*
X53816857Y-58558571D02*
X52616857Y-59358571D01*
D12*
X72550142Y-63268793D02*
X71750142Y-63268793D01*
X71978714Y-63268793D02*
X71864428Y-63325936D01*
X71864428Y-63325936D02*
X71807285Y-63383079D01*
X71807285Y-63383079D02*
X71750142Y-63497364D01*
X71750142Y-63497364D02*
X71750142Y-63611650D01*
X72493000Y-64468793D02*
X72550142Y-64354507D01*
X72550142Y-64354507D02*
X72550142Y-64125936D01*
X72550142Y-64125936D02*
X72493000Y-64011650D01*
X72493000Y-64011650D02*
X72378714Y-63954507D01*
X72378714Y-63954507D02*
X71921571Y-63954507D01*
X71921571Y-63954507D02*
X71807285Y-64011650D01*
X71807285Y-64011650D02*
X71750142Y-64125936D01*
X71750142Y-64125936D02*
X71750142Y-64354507D01*
X71750142Y-64354507D02*
X71807285Y-64468793D01*
X71807285Y-64468793D02*
X71921571Y-64525936D01*
X71921571Y-64525936D02*
X72035857Y-64525936D01*
X72035857Y-64525936D02*
X72150142Y-63954507D01*
X71750142Y-64925935D02*
X72550142Y-65211649D01*
X72550142Y-65211649D02*
X71750142Y-65497364D01*
X72550142Y-67497364D02*
X72550142Y-66811650D01*
X72550142Y-67154507D02*
X71350142Y-67154507D01*
X71350142Y-67154507D02*
X71521571Y-67040221D01*
X71521571Y-67040221D02*
X71635857Y-66925936D01*
X71635857Y-66925936D02*
X71693000Y-66811650D01*
X72435857Y-68011650D02*
X72493000Y-68068793D01*
X72493000Y-68068793D02*
X72550142Y-68011650D01*
X72550142Y-68011650D02*
X72493000Y-67954507D01*
X72493000Y-67954507D02*
X72435857Y-68011650D01*
X72435857Y-68011650D02*
X72550142Y-68011650D01*
X71350142Y-68811650D02*
X71350142Y-68925936D01*
X71350142Y-68925936D02*
X71407285Y-69040222D01*
X71407285Y-69040222D02*
X71464428Y-69097365D01*
X71464428Y-69097365D02*
X71578714Y-69154507D01*
X71578714Y-69154507D02*
X71807285Y-69211650D01*
X71807285Y-69211650D02*
X72093000Y-69211650D01*
X72093000Y-69211650D02*
X72321571Y-69154507D01*
X72321571Y-69154507D02*
X72435857Y-69097365D01*
X72435857Y-69097365D02*
X72493000Y-69040222D01*
X72493000Y-69040222D02*
X72550142Y-68925936D01*
X72550142Y-68925936D02*
X72550142Y-68811650D01*
X72550142Y-68811650D02*
X72493000Y-68697365D01*
X72493000Y-68697365D02*
X72435857Y-68640222D01*
X72435857Y-68640222D02*
X72321571Y-68583079D01*
X72321571Y-68583079D02*
X72093000Y-68525936D01*
X72093000Y-68525936D02*
X71807285Y-68525936D01*
X71807285Y-68525936D02*
X71578714Y-68583079D01*
X71578714Y-68583079D02*
X71464428Y-68640222D01*
X71464428Y-68640222D02*
X71407285Y-68697365D01*
X71407285Y-68697365D02*
X71350142Y-68811650D01*
X72493000Y-69783079D02*
X72550142Y-69783079D01*
X72550142Y-69783079D02*
X72664428Y-69725936D01*
X72664428Y-69725936D02*
X72721571Y-69668793D01*
X72550142Y-71211651D02*
X71350142Y-71211651D01*
X71350142Y-71211651D02*
X72207285Y-71611651D01*
X72207285Y-71611651D02*
X71350142Y-72011651D01*
X71350142Y-72011651D02*
X72550142Y-72011651D01*
X72550142Y-73097366D02*
X71921571Y-73097366D01*
X71921571Y-73097366D02*
X71807285Y-73040223D01*
X71807285Y-73040223D02*
X71750142Y-72925937D01*
X71750142Y-72925937D02*
X71750142Y-72697366D01*
X71750142Y-72697366D02*
X71807285Y-72583080D01*
X72493000Y-73097366D02*
X72550142Y-72983080D01*
X72550142Y-72983080D02*
X72550142Y-72697366D01*
X72550142Y-72697366D02*
X72493000Y-72583080D01*
X72493000Y-72583080D02*
X72378714Y-72525937D01*
X72378714Y-72525937D02*
X72264428Y-72525937D01*
X72264428Y-72525937D02*
X72150142Y-72583080D01*
X72150142Y-72583080D02*
X72093000Y-72697366D01*
X72093000Y-72697366D02*
X72093000Y-72983080D01*
X72093000Y-72983080D02*
X72035857Y-73097366D01*
X72550142Y-73668794D02*
X71750142Y-73668794D01*
X71978714Y-73668794D02*
X71864428Y-73725937D01*
X71864428Y-73725937D02*
X71807285Y-73783080D01*
X71807285Y-73783080D02*
X71750142Y-73897365D01*
X71750142Y-73897365D02*
X71750142Y-74011651D01*
X71350142Y-75211651D02*
X71350142Y-75954508D01*
X71350142Y-75954508D02*
X71807285Y-75554508D01*
X71807285Y-75554508D02*
X71807285Y-75725937D01*
X71807285Y-75725937D02*
X71864428Y-75840223D01*
X71864428Y-75840223D02*
X71921571Y-75897365D01*
X71921571Y-75897365D02*
X72035857Y-75954508D01*
X72035857Y-75954508D02*
X72321571Y-75954508D01*
X72321571Y-75954508D02*
X72435857Y-75897365D01*
X72435857Y-75897365D02*
X72493000Y-75840223D01*
X72493000Y-75840223D02*
X72550142Y-75725937D01*
X72550142Y-75725937D02*
X72550142Y-75383080D01*
X72550142Y-75383080D02*
X72493000Y-75268794D01*
X72493000Y-75268794D02*
X72435857Y-75211651D01*
X72550142Y-77097365D02*
X72550142Y-76411651D01*
X72550142Y-76754508D02*
X71350142Y-76754508D01*
X71350142Y-76754508D02*
X71521571Y-76640222D01*
X71521571Y-76640222D02*
X71635857Y-76525937D01*
X71635857Y-76525937D02*
X71693000Y-76411651D01*
X72493000Y-77668794D02*
X72550142Y-77668794D01*
X72550142Y-77668794D02*
X72664428Y-77611651D01*
X72664428Y-77611651D02*
X72721571Y-77554508D01*
X71464428Y-79040223D02*
X71407285Y-79097366D01*
X71407285Y-79097366D02*
X71350142Y-79211652D01*
X71350142Y-79211652D02*
X71350142Y-79497366D01*
X71350142Y-79497366D02*
X71407285Y-79611652D01*
X71407285Y-79611652D02*
X71464428Y-79668794D01*
X71464428Y-79668794D02*
X71578714Y-79725937D01*
X71578714Y-79725937D02*
X71693000Y-79725937D01*
X71693000Y-79725937D02*
X71864428Y-79668794D01*
X71864428Y-79668794D02*
X72550142Y-78983080D01*
X72550142Y-78983080D02*
X72550142Y-79725937D01*
X71350142Y-80468794D02*
X71350142Y-80583080D01*
X71350142Y-80583080D02*
X71407285Y-80697366D01*
X71407285Y-80697366D02*
X71464428Y-80754509D01*
X71464428Y-80754509D02*
X71578714Y-80811651D01*
X71578714Y-80811651D02*
X71807285Y-80868794D01*
X71807285Y-80868794D02*
X72093000Y-80868794D01*
X72093000Y-80868794D02*
X72321571Y-80811651D01*
X72321571Y-80811651D02*
X72435857Y-80754509D01*
X72435857Y-80754509D02*
X72493000Y-80697366D01*
X72493000Y-80697366D02*
X72550142Y-80583080D01*
X72550142Y-80583080D02*
X72550142Y-80468794D01*
X72550142Y-80468794D02*
X72493000Y-80354509D01*
X72493000Y-80354509D02*
X72435857Y-80297366D01*
X72435857Y-80297366D02*
X72321571Y-80240223D01*
X72321571Y-80240223D02*
X72093000Y-80183080D01*
X72093000Y-80183080D02*
X71807285Y-80183080D01*
X71807285Y-80183080D02*
X71578714Y-80240223D01*
X71578714Y-80240223D02*
X71464428Y-80297366D01*
X71464428Y-80297366D02*
X71407285Y-80354509D01*
X71407285Y-80354509D02*
X71350142Y-80468794D01*
X71464428Y-81325937D02*
X71407285Y-81383080D01*
X71407285Y-81383080D02*
X71350142Y-81497366D01*
X71350142Y-81497366D02*
X71350142Y-81783080D01*
X71350142Y-81783080D02*
X71407285Y-81897366D01*
X71407285Y-81897366D02*
X71464428Y-81954508D01*
X71464428Y-81954508D02*
X71578714Y-82011651D01*
X71578714Y-82011651D02*
X71693000Y-82011651D01*
X71693000Y-82011651D02*
X71864428Y-81954508D01*
X71864428Y-81954508D02*
X72550142Y-81268794D01*
X72550142Y-81268794D02*
X72550142Y-82011651D01*
X71350142Y-82411651D02*
X71350142Y-83154508D01*
X71350142Y-83154508D02*
X71807285Y-82754508D01*
X71807285Y-82754508D02*
X71807285Y-82925937D01*
X71807285Y-82925937D02*
X71864428Y-83040223D01*
X71864428Y-83040223D02*
X71921571Y-83097365D01*
X71921571Y-83097365D02*
X72035857Y-83154508D01*
X72035857Y-83154508D02*
X72321571Y-83154508D01*
X72321571Y-83154508D02*
X72435857Y-83097365D01*
X72435857Y-83097365D02*
X72493000Y-83040223D01*
X72493000Y-83040223D02*
X72550142Y-82925937D01*
X72550142Y-82925937D02*
X72550142Y-82583080D01*
X72550142Y-82583080D02*
X72493000Y-82468794D01*
X72493000Y-82468794D02*
X72435857Y-82411651D01*
X72435857Y-83668794D02*
X72493000Y-83725937D01*
X72493000Y-83725937D02*
X72550142Y-83668794D01*
X72550142Y-83668794D02*
X72493000Y-83611651D01*
X72493000Y-83611651D02*
X72435857Y-83668794D01*
X72435857Y-83668794D02*
X72550142Y-83668794D01*
D13*
%TO.C,D18*%
X65087182Y-53850000D02*
X64888744Y-53850000D01*
X64888744Y-54445314D02*
X64888744Y-53254686D01*
X64888744Y-53254686D02*
X63301240Y-53254686D01*
X64491868Y-53254686D02*
X64491868Y-54445314D01*
X63301240Y-54445314D02*
X64888744Y-54445314D01*
X63301240Y-53850000D02*
X63102802Y-53850000D01*
X63301240Y-53254686D02*
X63301240Y-54445314D01*
D12*
%TO.C,SW18*%
X56590000Y-63200000D02*
X56590000Y-67800000D01*
X57790000Y-56950000D02*
X57790000Y-60895000D01*
X57790000Y-60904000D02*
X61400000Y-60904000D01*
X60390000Y-67825000D02*
X56615000Y-67825000D01*
X61315000Y-63175000D02*
X56590000Y-63175000D01*
X61610000Y-69100000D02*
X62490000Y-70000000D01*
X65290000Y-70000000D02*
X62490000Y-70000000D01*
X66165000Y-65375000D02*
X63615000Y-65375000D01*
X66190000Y-65400000D02*
X66190000Y-69100000D01*
X66190000Y-69100000D02*
X65290000Y-70000000D01*
X68690000Y-54996000D02*
X60065000Y-54996000D01*
X68690000Y-59000000D02*
X63290000Y-59000000D01*
X68690000Y-59000000D02*
X68690000Y-54996000D01*
X60065000Y-54996000D02*
G75*
G03*
X57790000Y-56950000I-102171J-2182411D01*
G01*
X61610000Y-69100000D02*
G75*
G03*
X60390000Y-67825000I-1275736J482D01*
G01*
X63290000Y-59000000D02*
G75*
G03*
X61400000Y-60904000I-61523J-1828981D01*
G01*
X61315001Y-63175000D02*
G75*
G03*
X63615000Y-65375000I2277996J79269D01*
G01*
%TO.C,SW33*%
X37350000Y-77192500D02*
X37350000Y-81792500D01*
X38550000Y-70942500D02*
X38550000Y-74887500D01*
X38550000Y-74896500D02*
X42160000Y-74896500D01*
X41150000Y-81817500D02*
X37375000Y-81817500D01*
X42075000Y-77167500D02*
X37350000Y-77167500D01*
X42370000Y-83092500D02*
X43250000Y-83992500D01*
X46050000Y-83992500D02*
X43250000Y-83992500D01*
X46925000Y-79367500D02*
X44375000Y-79367500D01*
X46950000Y-79392500D02*
X46950000Y-83092500D01*
X46950000Y-83092500D02*
X46050000Y-83992500D01*
X49450000Y-68988500D02*
X40825000Y-68988500D01*
X49450000Y-72992500D02*
X44050000Y-72992500D01*
X49450000Y-72992500D02*
X49450000Y-68988500D01*
X40825000Y-68988500D02*
G75*
G03*
X38550000Y-70942500I-102171J-2182411D01*
G01*
X42370000Y-83092500D02*
G75*
G03*
X41150000Y-81817500I-1275736J482D01*
G01*
X44050000Y-72992500D02*
G75*
G03*
X42160000Y-74896500I-61523J-1828981D01*
G01*
X42075001Y-77167500D02*
G75*
G03*
X44375000Y-79367500I2277996J79269D01*
G01*
D13*
%TO.C,D37*%
X45987182Y-86380000D02*
X45788744Y-86380000D01*
X45788744Y-86975314D02*
X45788744Y-85784686D01*
X45788744Y-85784686D02*
X44201240Y-85784686D01*
X45391868Y-85784686D02*
X45391868Y-86975314D01*
X44201240Y-86975314D02*
X45788744Y-86975314D01*
X44201240Y-86380000D02*
X44002802Y-86380000D01*
X44201240Y-85784686D02*
X44201240Y-86975314D01*
D12*
%TO.C,SW34*%
X56590000Y-82050000D02*
X56590000Y-86650000D01*
X57790000Y-75800000D02*
X57790000Y-79745000D01*
X57790000Y-79754000D02*
X61400000Y-79754000D01*
X60390000Y-86675000D02*
X56615000Y-86675000D01*
X61315000Y-82025000D02*
X56590000Y-82025000D01*
X61610000Y-87950000D02*
X62490000Y-88850000D01*
X65290000Y-88850000D02*
X62490000Y-88850000D01*
X66165000Y-84225000D02*
X63615000Y-84225000D01*
X66190000Y-84250000D02*
X66190000Y-87950000D01*
X66190000Y-87950000D02*
X65290000Y-88850000D01*
X68690000Y-73846000D02*
X60065000Y-73846000D01*
X68690000Y-77850000D02*
X63290000Y-77850000D01*
X68690000Y-77850000D02*
X68690000Y-73846000D01*
X60065000Y-73846000D02*
G75*
G03*
X57790000Y-75800000I-102171J-2182411D01*
G01*
X61610000Y-87950000D02*
G75*
G03*
X60390000Y-86675000I-1275736J482D01*
G01*
X63290000Y-77850000D02*
G75*
G03*
X61400000Y-79754000I-61523J-1828981D01*
G01*
X61315001Y-82025000D02*
G75*
G03*
X63615000Y-84225000I2277996J79269D01*
G01*
%TO.C,SW13*%
X37350000Y-39492500D02*
X37350000Y-44092500D01*
X38550000Y-33242500D02*
X38550000Y-37187500D01*
X38550000Y-37196500D02*
X42160000Y-37196500D01*
X41150000Y-44117500D02*
X37375000Y-44117500D01*
X42075000Y-39467500D02*
X37350000Y-39467500D01*
X42370000Y-45392500D02*
X43250000Y-46292500D01*
X46050000Y-46292500D02*
X43250000Y-46292500D01*
X46925000Y-41667500D02*
X44375000Y-41667500D01*
X46950000Y-41692500D02*
X46950000Y-45392500D01*
X46950000Y-45392500D02*
X46050000Y-46292500D01*
X49450000Y-31288500D02*
X40825000Y-31288500D01*
X49450000Y-35292500D02*
X44050000Y-35292500D01*
X49450000Y-35292500D02*
X49450000Y-31288500D01*
X40825000Y-31288500D02*
G75*
G03*
X38550000Y-33242500I-102171J-2182411D01*
G01*
X42370000Y-45392500D02*
G75*
G03*
X41150000Y-44117500I-1275736J482D01*
G01*
X44050000Y-35292500D02*
G75*
G03*
X42160000Y-37196500I-61523J-1828981D01*
G01*
X42075001Y-39467500D02*
G75*
G03*
X44375000Y-41667500I2277996J79269D01*
G01*
%TO.C,SW17*%
X37350000Y-58342500D02*
X37350000Y-62942500D01*
X38550000Y-52092500D02*
X38550000Y-56037500D01*
X38550000Y-56046500D02*
X42160000Y-56046500D01*
X41150000Y-62967500D02*
X37375000Y-62967500D01*
X42075000Y-58317500D02*
X37350000Y-58317500D01*
X42370000Y-64242500D02*
X43250000Y-65142500D01*
X46050000Y-65142500D02*
X43250000Y-65142500D01*
X46925000Y-60517500D02*
X44375000Y-60517500D01*
X46950000Y-60542500D02*
X46950000Y-64242500D01*
X46950000Y-64242500D02*
X46050000Y-65142500D01*
X49450000Y-50138500D02*
X40825000Y-50138500D01*
X49450000Y-54142500D02*
X44050000Y-54142500D01*
X49450000Y-54142500D02*
X49450000Y-50138500D01*
X40825000Y-50138500D02*
G75*
G03*
X38550000Y-52092500I-102171J-2182411D01*
G01*
X42370000Y-64242500D02*
G75*
G03*
X41150000Y-62967500I-1275736J482D01*
G01*
X44050000Y-54142500D02*
G75*
G03*
X42160000Y-56046500I-61523J-1828981D01*
G01*
X42075001Y-58317500D02*
G75*
G03*
X44375000Y-60517500I2277996J79269D01*
G01*
%TO.C,SW14*%
X56590000Y-44350000D02*
X56590000Y-48950000D01*
X57790000Y-38100000D02*
X57790000Y-42045000D01*
X57790000Y-42054000D02*
X61400000Y-42054000D01*
X60390000Y-48975000D02*
X56615000Y-48975000D01*
X61315000Y-44325000D02*
X56590000Y-44325000D01*
X61610000Y-50250000D02*
X62490000Y-51150000D01*
X65290000Y-51150000D02*
X62490000Y-51150000D01*
X66165000Y-46525000D02*
X63615000Y-46525000D01*
X66190000Y-46550000D02*
X66190000Y-50250000D01*
X66190000Y-50250000D02*
X65290000Y-51150000D01*
X68690000Y-36146000D02*
X60065000Y-36146000D01*
X68690000Y-40150000D02*
X63290000Y-40150000D01*
X68690000Y-40150000D02*
X68690000Y-36146000D01*
X60065000Y-36146000D02*
G75*
G03*
X57790000Y-38100000I-102171J-2182411D01*
G01*
X61610000Y-50250000D02*
G75*
G03*
X60390000Y-48975000I-1275736J482D01*
G01*
X63290000Y-40150000D02*
G75*
G03*
X61400000Y-42054000I-61523J-1828981D01*
G01*
X61315001Y-44325000D02*
G75*
G03*
X63615000Y-46525000I2277996J79269D01*
G01*
D13*
%TO.C,D38*%
X65087182Y-91340000D02*
X64888744Y-91340000D01*
X64888744Y-91935314D02*
X64888744Y-90744686D01*
X64888744Y-90744686D02*
X63301240Y-90744686D01*
X64491868Y-90744686D02*
X64491868Y-91935314D01*
X63301240Y-91935314D02*
X64888744Y-91935314D01*
X63301240Y-91340000D02*
X63102802Y-91340000D01*
X63301240Y-90744686D02*
X63301240Y-91935314D01*
D12*
%TO.C,SW38*%
X56590000Y-100900000D02*
X56590000Y-105500000D01*
X57790000Y-94650000D02*
X57790000Y-98595000D01*
X57790000Y-98604000D02*
X61400000Y-98604000D01*
X60390000Y-105525000D02*
X56615000Y-105525000D01*
X61315000Y-100875000D02*
X56590000Y-100875000D01*
X61610000Y-106800000D02*
X62490000Y-107700000D01*
X65290000Y-107700000D02*
X62490000Y-107700000D01*
X66165000Y-103075000D02*
X63615000Y-103075000D01*
X66190000Y-103100000D02*
X66190000Y-106800000D01*
X66190000Y-106800000D02*
X65290000Y-107700000D01*
X68690000Y-92696000D02*
X60065000Y-92696000D01*
X68690000Y-96700000D02*
X63290000Y-96700000D01*
X68690000Y-96700000D02*
X68690000Y-92696000D01*
X60065000Y-92696000D02*
G75*
G03*
X57790000Y-94650000I-102171J-2182411D01*
G01*
X61610000Y-106800000D02*
G75*
G03*
X60390000Y-105525000I-1275736J482D01*
G01*
X63290000Y-96700000D02*
G75*
G03*
X61400000Y-98604000I-61523J-1828981D01*
G01*
X61315001Y-100875000D02*
G75*
G03*
X63615000Y-103075000I2277996J79269D01*
G01*
D13*
%TO.C,D14*%
X65087182Y-34810000D02*
X64888744Y-34810000D01*
X64888744Y-35405314D02*
X64888744Y-34214686D01*
X64888744Y-34214686D02*
X63301240Y-34214686D01*
X64491868Y-34214686D02*
X64491868Y-35405314D01*
X63301240Y-35405314D02*
X64888744Y-35405314D01*
X63301240Y-34810000D02*
X63102802Y-34810000D01*
X63301240Y-34214686D02*
X63301240Y-35405314D01*
D12*
%TO.C,SW37*%
X37350000Y-96042500D02*
X37350000Y-100642500D01*
X38550000Y-89792500D02*
X38550000Y-93737500D01*
X38550000Y-93746500D02*
X42160000Y-93746500D01*
X41150000Y-100667500D02*
X37375000Y-100667500D01*
X42075000Y-96017500D02*
X37350000Y-96017500D01*
X42370000Y-101942500D02*
X43250000Y-102842500D01*
X46050000Y-102842500D02*
X43250000Y-102842500D01*
X46925000Y-98217500D02*
X44375000Y-98217500D01*
X46950000Y-98242500D02*
X46950000Y-101942500D01*
X46950000Y-101942500D02*
X46050000Y-102842500D01*
X49450000Y-87838500D02*
X40825000Y-87838500D01*
X49450000Y-91842500D02*
X44050000Y-91842500D01*
X49450000Y-91842500D02*
X49450000Y-87838500D01*
X40825000Y-87838500D02*
G75*
G03*
X38550000Y-89792500I-102171J-2182411D01*
G01*
X42370000Y-101942500D02*
G75*
G03*
X41150000Y-100667500I-1275736J482D01*
G01*
X44050000Y-91842500D02*
G75*
G03*
X42160000Y-93746500I-61523J-1828981D01*
G01*
X42075001Y-96017500D02*
G75*
G03*
X44375000Y-98217500I2277996J79269D01*
G01*
D13*
%TO.C,D13*%
X45987182Y-29720000D02*
X45788744Y-29720000D01*
X45788744Y-30315314D02*
X45788744Y-29124686D01*
X45788744Y-29124686D02*
X44201240Y-29124686D01*
X45391868Y-29124686D02*
X45391868Y-30315314D01*
X44201240Y-30315314D02*
X45788744Y-30315314D01*
X44201240Y-29720000D02*
X44002802Y-29720000D01*
X44201240Y-29124686D02*
X44201240Y-30315314D01*
%TO.C,D33*%
X45987182Y-67300000D02*
X45788744Y-67300000D01*
X45788744Y-67895314D02*
X45788744Y-66704686D01*
X45788744Y-66704686D02*
X44201240Y-66704686D01*
X45391868Y-66704686D02*
X45391868Y-67895314D01*
X44201240Y-67895314D02*
X45788744Y-67895314D01*
X44201240Y-67300000D02*
X44002802Y-67300000D01*
X44201240Y-66704686D02*
X44201240Y-67895314D01*
%TO.C,D34*%
X65087182Y-72420000D02*
X64888744Y-72420000D01*
X64888744Y-73015314D02*
X64888744Y-71824686D01*
X64888744Y-71824686D02*
X63301240Y-71824686D01*
X64491868Y-71824686D02*
X64491868Y-73015314D01*
X63301240Y-73015314D02*
X64888744Y-73015314D01*
X63301240Y-72420000D02*
X63102802Y-72420000D01*
X63301240Y-71824686D02*
X63301240Y-73015314D01*
%TO.C,D17*%
X45987182Y-48900000D02*
X45788744Y-48900000D01*
X45788744Y-49495314D02*
X45788744Y-48304686D01*
X45788744Y-48304686D02*
X44201240Y-48304686D01*
X45391868Y-48304686D02*
X45391868Y-49495314D01*
X44201240Y-49495314D02*
X45788744Y-49495314D01*
X44201240Y-48900000D02*
X44002802Y-48900000D01*
X44201240Y-48304686D02*
X44201240Y-49495314D01*
D14*
%TO.C,J8*%
X52980000Y-88620000D02*
X54030000Y-88620000D01*
X52980000Y-89770000D02*
X52980000Y-88620000D01*
X54030000Y-88620000D02*
X54030000Y-87630000D01*
X54150000Y-92430000D02*
X58030000Y-92430000D01*
X59200000Y-88620000D02*
X58150000Y-88620000D01*
X59200000Y-89770000D02*
X59200000Y-88620000D01*
%TO.C,J9*%
X59110000Y-72057500D02*
X58060000Y-72057500D01*
X59110000Y-70907500D02*
X59110000Y-72057500D01*
X58060000Y-72057500D02*
X58060000Y-73047500D01*
X57940000Y-68247500D02*
X54060000Y-68247500D01*
X52890000Y-72057500D02*
X53940000Y-72057500D01*
X52890000Y-70907500D02*
X52890000Y-72057500D01*
%TD*%
M02*
