M48
; DRILL file {KiCad 7.0.1-0} date 2023 March 31, Friday 22:03:24
; FORMAT={-:-/ absolute / inch / decimal}
; #@! TF.CreationDate,2023-03-31T22:03:24+09:00
; #@! TF.GenerationSoftware,Kicad,Pcbnew,7.0.1-0
; #@! TF.FileFunction,NonPlated,1,2,NPTH
FMAT,2
INCH
; #@! TA.AperFunction,NonPlated,NPTH,ComponentDrill
T1C0.0197
; #@! TA.AperFunction,NonPlated,NPTH,ComponentDrill
T2C0.0661
; #@! TA.AperFunction,NonPlated,NPTH,ComponentDrill
T3C0.0669
; #@! TA.AperFunction,NonPlated,NPTH,ComponentDrill
T4C0.1654
; #@! TA.AperFunction,NonPlated,NPTH,ComponentDrill
T5C0.1929
%
G90
G05
T2
X1.5413Y-1.4997
X1.5413Y-2.2418
X1.5413Y-2.984
X1.5413Y-3.7261
X1.9744Y-1.4997
X1.9744Y-2.2418
X1.9744Y-2.984
X1.9744Y-3.7261
X2.2988Y-1.6909
X2.2988Y-2.4331
X2.2988Y-3.1752
X2.2988Y-3.9173
X2.7319Y-1.6909
X2.7319Y-2.4331
X2.7319Y-3.1752
X2.7319Y-3.9173
T3
X1.5579Y-1.4997
X1.5579Y-2.2418
X1.5579Y-2.984
X1.5579Y-3.7261
X1.9579Y-1.4997
X1.9579Y-2.2418
X1.9579Y-2.984
X1.9579Y-3.7261
X2.3154Y-1.6909
X2.3154Y-2.4331
X2.3154Y-3.1752
X2.3154Y-3.9173
X2.7154Y-1.6909
X2.7154Y-2.4331
X2.7154Y-3.1752
X2.7154Y-3.9173
T5
X1.7579Y-1.4997
X1.7579Y-2.2418
X1.7579Y-2.984
X1.7579Y-3.7261
X2.5154Y-1.6909
X2.5154Y-2.4331
X2.5154Y-3.1752
X2.5154Y-3.9173
T1
G00X1.9685Y-1.2851
M15
G01X1.9409Y-1.2851
M16
G05
G00X1.9685Y-2.0273
M15
G01X1.9409Y-2.0273
M16
G05
G00X1.9685Y-2.7694
M15
G01X1.9409Y-2.7694
M16
G05
G00X1.9685Y-3.5115
M15
G01X1.9409Y-3.5115
M16
G05
G00X2.726Y-1.4764
M15
G01X2.6984Y-1.4764
M16
G05
G00X2.726Y-2.2185
M15
G01X2.6984Y-2.2185
M16
G05
G00X2.726Y-2.9606
M15
G01X2.6984Y-2.9606
M16
G05
G00X2.726Y-3.7028
M15
G01X2.6984Y-3.7028
M16
G05
T4
G00X1.4396Y-1.8701
M15
G01X1.5104Y-1.8701
M16
G05
G00X1.4407Y-3.3543
M15
G01X1.5116Y-3.3543
M16
G05
G00X2.7642Y-3.5429
M15
G01X2.835Y-3.5429
M16
G05
G00X2.7646Y-2.0602
M15
G01X2.8354Y-2.0602
M16
G05
T0
M30
