M48
; DRILL file {KiCad 7.0.1-0} date 2023 March 31, Friday 22:03:24
; FORMAT={-:-/ absolute / inch / decimal}
; #@! TF.CreationDate,2023-03-31T22:03:24+09:00
; #@! TF.GenerationSoftware,Kicad,Pcbnew,7.0.1-0
; #@! TF.FileFunction,Plated,1,2,PTH
FMAT,2
INCH
; #@! TA.AperFunction,Plated,PTH,ViaDrill
T1C0.0157
; #@! TA.AperFunction,Plated,PTH,ComponentDrill
T2C0.0295
; #@! TA.AperFunction,Plated,PTH,ComponentDrill
T3C0.0394
; #@! TA.AperFunction,Plated,PTH,ComponentDrill
T4C0.1181
%
G90
G05
T1
X1.6465Y-2.7703
T2
X1.6465Y-1.1701
X1.6465Y-1.9252
X1.6465Y-2.6496
X1.6465Y-3.4008
X1.8965Y-1.1701
X1.8965Y-1.9252
X1.8965Y-2.6496
X1.8965Y-3.4008
X2.3984Y-1.3705
X2.3984Y-2.1201
X2.3984Y-2.8512
X2.3984Y-3.5961
X2.6484Y-1.3705
X2.6484Y-2.1201
X2.6484Y-2.8512
X2.6484Y-3.5961
T3
X2.0945Y-2.7342
X2.098Y-3.5917
X2.315Y-2.7342
X2.3185Y-3.5917
T4
X1.561Y-1.6454
X1.561Y-2.3875
X1.561Y-3.1296
X1.561Y-3.8718
X1.6079Y-1.3997
X1.6079Y-2.1418
X1.6079Y-2.884
X1.6079Y-3.6261
X1.7579Y-1.732
X1.7579Y-2.4741
X1.7579Y-3.2162
X1.7579Y-3.9584
X1.8579Y-1.2997
X1.8579Y-2.0418
X1.8579Y-2.784
X1.8579Y-3.5261
X2.3185Y-1.8366
X2.3185Y-2.5787
X2.3185Y-3.3209
X2.3185Y-4.063
X2.3654Y-1.5909
X2.3654Y-2.3331
X2.3654Y-3.0752
X2.3654Y-3.8173
X2.5154Y-1.9232
X2.5154Y-2.6654
X2.5154Y-3.4075
X2.5154Y-4.1496
X2.6154Y-1.4909
X2.6154Y-2.2331
X2.6154Y-2.9752
X2.6154Y-3.7173
T0
M30
