%TF.GenerationSoftware,KiCad,Pcbnew,7.0.1-0*%
%TF.CreationDate,2023-03-31T22:03:26+09:00*%
%TF.ProjectId,pangaea-pcb-pinkey-0.25u-right,70616e67-6165-4612-9d70-63622d70696e,rev?*%
%TF.SameCoordinates,Original*%
%TF.FileFunction,Copper,L2,Bot*%
%TF.FilePolarity,Positive*%
%FSLAX46Y46*%
G04 Gerber Fmt 4.6, Leading zero omitted, Abs format (unit mm)*
G04 Created by KiCad (PCBNEW 7.0.1-0) date 2023-03-31 22:03:26*
%MOMM*%
%LPD*%
G01*
G04 APERTURE LIST*
G04 Aperture macros list*
%AMRoundRect*
0 Rectangle with rounded corners*
0 $1 Rounding radius*
0 $2 $3 $4 $5 $6 $7 $8 $9 X,Y pos of 4 corners*
0 Add a 4 corners polygon primitive as box body*
4,1,4,$2,$3,$4,$5,$6,$7,$8,$9,$2,$3,0*
0 Add four circle primitives for the rounded corners*
1,1,$1+$1,$2,$3*
1,1,$1+$1,$4,$5*
1,1,$1+$1,$6,$7*
1,1,$1+$1,$8,$9*
0 Add four rect primitives between the rounded corners*
20,1,$1+$1,$2,$3,$4,$5,0*
20,1,$1+$1,$4,$5,$6,$7,0*
20,1,$1+$1,$6,$7,$8,$9,0*
20,1,$1+$1,$8,$9,$2,$3,0*%
G04 Aperture macros list end*
%TA.AperFunction,ComponentPad*%
%ADD10R,1.200000X1.200000*%
%TD*%
%TA.AperFunction,SMDPad,CuDef*%
%ADD11R,1.200000X1.200000*%
%TD*%
%TA.AperFunction,ComponentPad*%
%ADD12C,1.200000*%
%TD*%
%TA.AperFunction,SMDPad,CuDef*%
%ADD13R,2.200000X2.000000*%
%TD*%
%TA.AperFunction,ComponentPad*%
%ADD14C,3.800000*%
%TD*%
%TA.AperFunction,SMDPad,CuDef*%
%ADD15RoundRect,0.150000X-0.150000X-0.650000X0.150000X-0.650000X0.150000X0.650000X-0.150000X0.650000X0*%
%TD*%
%TA.AperFunction,ComponentPad*%
%ADD16RoundRect,0.249600X-0.350400X-0.850400X0.350400X-0.850400X0.350400X0.850400X-0.350400X0.850400X0*%
%TD*%
%TA.AperFunction,SMDPad,CuDef*%
%ADD17RoundRect,0.150000X0.150000X0.650000X-0.150000X0.650000X-0.150000X-0.650000X0.150000X-0.650000X0*%
%TD*%
%TA.AperFunction,ComponentPad*%
%ADD18RoundRect,0.249600X0.350400X0.850400X-0.350400X0.850400X-0.350400X-0.850400X0.350400X-0.850400X0*%
%TD*%
%TA.AperFunction,ViaPad*%
%ADD19C,0.800000*%
%TD*%
%TA.AperFunction,Conductor*%
%ADD20C,0.250000*%
%TD*%
G04 APERTURE END LIST*
D10*
%TO.P,D18,1,K*%
%TO.N,PY5*%
X67270000Y-53850000D03*
D11*
X65820000Y-53850000D03*
%TO.P,D18,2,A*%
%TO.N,Net-(D18-A)*%
X62370000Y-53850000D03*
D12*
X60920000Y-53850000D03*
%TD*%
D13*
%TO.P,SW18,1,1*%
%TO.N,PX2*%
X55690000Y-65500000D03*
X56890000Y-59260000D03*
D14*
X58890000Y-65500000D03*
X60080000Y-59260000D03*
%TO.P,SW18,2,2*%
%TO.N,Net-(D18-A)*%
X63890000Y-67700000D03*
X66430000Y-56720000D03*
D13*
X67090000Y-67690000D03*
X69590000Y-56720000D03*
%TD*%
%TO.P,SW33,1,1*%
%TO.N,PX1*%
X36450000Y-79492500D03*
X37650000Y-73252500D03*
D14*
X39650000Y-79492500D03*
X40840000Y-73252500D03*
%TO.P,SW33,2,2*%
%TO.N,Net-(D33-K)*%
X44650000Y-81692500D03*
X47190000Y-70712500D03*
D13*
X47850000Y-81682500D03*
X50350000Y-70712500D03*
%TD*%
D10*
%TO.P,D37,1,K*%
%TO.N,Net-(D37-K)*%
X48170000Y-86380000D03*
D11*
X46720000Y-86380000D03*
%TO.P,D37,2,A*%
%TO.N,PY5*%
X43270000Y-86380000D03*
D12*
X41820000Y-86380000D03*
%TD*%
D13*
%TO.P,SW34,1,1*%
%TO.N,PX2*%
X55690000Y-84350000D03*
X56890000Y-78110000D03*
D14*
X58890000Y-84350000D03*
X60080000Y-78110000D03*
%TO.P,SW34,2,2*%
%TO.N,Net-(D34-K)*%
X63890000Y-86550000D03*
X66430000Y-75570000D03*
D13*
X67090000Y-86540000D03*
X69590000Y-75570000D03*
%TD*%
%TO.P,SW13,1,1*%
%TO.N,PX1*%
X36450000Y-41792500D03*
X37650000Y-35552500D03*
D14*
X39650000Y-41792500D03*
X40840000Y-35552500D03*
%TO.P,SW13,2,2*%
%TO.N,Net-(D13-A)*%
X44650000Y-43992500D03*
X47190000Y-33012500D03*
D13*
X47850000Y-43982500D03*
X50350000Y-33012500D03*
%TD*%
%TO.P,SW17,1,1*%
%TO.N,PX1*%
X36450000Y-60642500D03*
X37650000Y-54402500D03*
D14*
X39650000Y-60642500D03*
X40840000Y-54402500D03*
%TO.P,SW17,2,2*%
%TO.N,Net-(D17-A)*%
X44650000Y-62842500D03*
X47190000Y-51862500D03*
D13*
X47850000Y-62832500D03*
X50350000Y-51862500D03*
%TD*%
%TO.P,SW14,1,1*%
%TO.N,PX2*%
X55690000Y-46650000D03*
X56890000Y-40410000D03*
D14*
X58890000Y-46650000D03*
X60080000Y-40410000D03*
%TO.P,SW14,2,2*%
%TO.N,Net-(D14-A)*%
X63890000Y-48850000D03*
X66430000Y-37870000D03*
D13*
X67090000Y-48840000D03*
X69590000Y-37870000D03*
%TD*%
D10*
%TO.P,D38,1,K*%
%TO.N,Net-(D38-K)*%
X67270000Y-91340000D03*
D11*
X65820000Y-91340000D03*
%TO.P,D38,2,A*%
%TO.N,PY5*%
X62370000Y-91340000D03*
D12*
X60920000Y-91340000D03*
%TD*%
D13*
%TO.P,SW38,1,1*%
%TO.N,PX2*%
X55690000Y-103200000D03*
X56890000Y-96960000D03*
D14*
X58890000Y-103200000D03*
X60080000Y-96960000D03*
%TO.P,SW38,2,2*%
%TO.N,Net-(D38-K)*%
X63890000Y-105400000D03*
X66430000Y-94420000D03*
D13*
X67090000Y-105390000D03*
X69590000Y-94420000D03*
%TD*%
D10*
%TO.P,D14,1,K*%
%TO.N,PY4*%
X67270000Y-34810000D03*
D11*
X65820000Y-34810000D03*
%TO.P,D14,2,A*%
%TO.N,Net-(D14-A)*%
X62370000Y-34810000D03*
D12*
X60920000Y-34810000D03*
%TD*%
D13*
%TO.P,SW37,1,1*%
%TO.N,PX1*%
X36450000Y-98342500D03*
X37650000Y-92102500D03*
D14*
X39650000Y-98342500D03*
X40840000Y-92102500D03*
%TO.P,SW37,2,2*%
%TO.N,Net-(D37-K)*%
X44650000Y-100542500D03*
X47190000Y-89562500D03*
D13*
X47850000Y-100532500D03*
X50350000Y-89562500D03*
%TD*%
D10*
%TO.P,D13,1,K*%
%TO.N,PY4*%
X48170000Y-29720000D03*
D11*
X46720000Y-29720000D03*
%TO.P,D13,2,A*%
%TO.N,Net-(D13-A)*%
X43270000Y-29720000D03*
D12*
X41820000Y-29720000D03*
%TD*%
D10*
%TO.P,D33,1,K*%
%TO.N,Net-(D33-K)*%
X48170000Y-67300000D03*
D11*
X46720000Y-67300000D03*
%TO.P,D33,2,A*%
%TO.N,PY4*%
X43270000Y-67300000D03*
D12*
X41820000Y-67300000D03*
%TD*%
D10*
%TO.P,D34,1,K*%
%TO.N,Net-(D34-K)*%
X67270000Y-72420000D03*
D11*
X65820000Y-72420000D03*
%TO.P,D34,2,A*%
%TO.N,PY4*%
X62370000Y-72420000D03*
D12*
X60920000Y-72420000D03*
%TD*%
D10*
%TO.P,D17,1,K*%
%TO.N,PY5*%
X48170000Y-48900000D03*
D11*
X46720000Y-48900000D03*
%TO.P,D17,2,A*%
%TO.N,Net-(D17-A)*%
X43270000Y-48900000D03*
D12*
X41820000Y-48900000D03*
%TD*%
D15*
%TO.P,J8,1,Pin_1*%
%TO.N,PX1*%
X54590000Y-87930000D03*
%TO.P,J8,2,Pin_2*%
%TO.N,PX2*%
X55590000Y-87930000D03*
%TO.P,J8,3,Pin_3*%
%TO.N,PY4*%
X56590000Y-87930000D03*
%TO.P,J8,4,Pin_4*%
%TO.N,PY5*%
X57590000Y-87930000D03*
D16*
%TO.P,J8,MP*%
%TO.N,N/C*%
X53290000Y-91230000D03*
X58890000Y-91230000D03*
%TD*%
D17*
%TO.P,J9,1,Pin_1*%
%TO.N,PX1*%
X57500000Y-72747500D03*
%TO.P,J9,2,Pin_2*%
%TO.N,PX2*%
X56500000Y-72747500D03*
%TO.P,J9,3,Pin_3*%
%TO.N,PY4*%
X55500000Y-72747500D03*
%TO.P,J9,4,Pin_4*%
%TO.N,PY5*%
X54500000Y-72747500D03*
D18*
%TO.P,J9,MP*%
%TO.N,N/C*%
X58800000Y-69447500D03*
X53200000Y-69447500D03*
%TD*%
D19*
%TO.N,PY4*%
X41820000Y-70366600D03*
%TD*%
D20*
%TO.N,PY4*%
X54259500Y-85482700D02*
X54517600Y-85740800D01*
X63342700Y-92057900D02*
X63121400Y-92279200D01*
X62370000Y-72420000D02*
X63295100Y-72420000D01*
X62370000Y-72420000D02*
X60920000Y-72420000D01*
X50552400Y-68225200D02*
X45415100Y-68225200D01*
X64220200Y-71494900D02*
X63295100Y-72420000D01*
X42414800Y-65519700D02*
X43270000Y-66374900D01*
X45509100Y-60008200D02*
X44268200Y-60008200D01*
X54517600Y-85740800D02*
X56927100Y-85740800D01*
X71015200Y-74414800D02*
X68095300Y-71494900D01*
X46720000Y-29720000D02*
X48170000Y-29720000D01*
X59988000Y-90241700D02*
X59536800Y-89790500D01*
X54995300Y-68021300D02*
X50756300Y-68021300D01*
X63969800Y-33884900D02*
X64894900Y-34810000D01*
X67270000Y-34810000D02*
X65820000Y-34810000D01*
X44268200Y-60008200D02*
X42414800Y-61861600D01*
X60920000Y-72420000D02*
X59394000Y-72420000D01*
X43270000Y-67300000D02*
X43270000Y-66374900D01*
X65820000Y-34810000D02*
X64894900Y-34810000D01*
X45686100Y-54087700D02*
X45779000Y-54087700D01*
X60540700Y-92279200D02*
X59988000Y-91726500D01*
X56590100Y-87930000D02*
X56590000Y-87930000D01*
X55464800Y-72782700D02*
X55464800Y-81773800D01*
X71015200Y-85242500D02*
X71015200Y-74414800D01*
X42473600Y-46915900D02*
X40850500Y-48539000D01*
X47441200Y-55749900D02*
X47441200Y-58076100D01*
X63342700Y-90414900D02*
X65842800Y-90414900D01*
X40850500Y-49252100D02*
X45686100Y-54087700D01*
X49722800Y-29720000D02*
X53780600Y-33777800D01*
X53780600Y-33884900D02*
X63969800Y-33884900D01*
X41820000Y-67300000D02*
X43270000Y-67300000D01*
X42414800Y-61861600D02*
X42414800Y-65519700D01*
X48170000Y-29720000D02*
X49722800Y-29720000D01*
X47441200Y-58076100D02*
X45509100Y-60008200D01*
X59536800Y-89790500D02*
X57966400Y-89790500D01*
X63121400Y-92279200D02*
X60540700Y-92279200D01*
X53780600Y-33777800D02*
X53780600Y-33884900D01*
X55464800Y-81773800D02*
X54259500Y-82979100D01*
X56590100Y-88414200D02*
X56590100Y-87930000D01*
X63342700Y-90414900D02*
X63342700Y-92057900D01*
X59988000Y-91726500D02*
X59988000Y-90241700D01*
X43273700Y-70366600D02*
X41820000Y-70366600D01*
X53780600Y-40635300D02*
X47500000Y-46915900D01*
X40850500Y-48539000D02*
X40850500Y-49252100D01*
X57966400Y-89790500D02*
X56590100Y-88414200D01*
X45779000Y-54087700D02*
X47441200Y-55749900D01*
X55500000Y-72747500D02*
X55464800Y-72782700D01*
X56927100Y-85740800D02*
X61601200Y-90414900D01*
X65842800Y-90414900D02*
X71015200Y-85242500D01*
X61601200Y-90414900D02*
X63342700Y-90414900D01*
X53780600Y-33884900D02*
X53780600Y-40635300D01*
X68095300Y-71494900D02*
X64220200Y-71494900D01*
X54259500Y-82979100D02*
X54259500Y-85482700D01*
X50756300Y-68021300D02*
X50552400Y-68225200D01*
X59394000Y-72420000D02*
X54995300Y-68021300D01*
X47500000Y-46915900D02*
X42473600Y-46915900D01*
X45415100Y-68225200D02*
X43273700Y-70366600D01*
%TO.N,Net-(D13-A)*%
X47441200Y-35696600D02*
X47441200Y-35696400D01*
X47441200Y-43982500D02*
X47441200Y-36419400D01*
X47441200Y-43982500D02*
X44660000Y-43982500D01*
X50238173Y-33217500D02*
X50396587Y-33059086D01*
X44660000Y-43982500D02*
X44650000Y-43992500D01*
X47441200Y-35701900D02*
X47441200Y-35699100D01*
X47441200Y-35697000D02*
X47441200Y-35696600D01*
X47850000Y-43982500D02*
X47441200Y-43982500D01*
X47441200Y-35741400D02*
X47441200Y-35718800D01*
X47441200Y-35697700D02*
X47441200Y-35697000D01*
X47395000Y-33217500D02*
X50238173Y-33217500D01*
X43270000Y-29720000D02*
X44195100Y-29720000D01*
X47441200Y-35707500D02*
X47441200Y-35701900D01*
X47441200Y-35696300D02*
X47441200Y-33263700D01*
X47441200Y-36057800D02*
X47441200Y-35877000D01*
X47441200Y-35718800D02*
X47441200Y-35707500D01*
X47441200Y-35696400D02*
X47441200Y-35696300D01*
X47441200Y-35786600D02*
X47441200Y-35741400D01*
X47441200Y-35877000D02*
X47441200Y-35786600D01*
X47190000Y-33012500D02*
X47395000Y-33217500D01*
X47441200Y-36419400D02*
X47441200Y-36057800D01*
X47441200Y-33263700D02*
X47190000Y-33012500D01*
X44195100Y-30017600D02*
X47190000Y-33012500D01*
X47441200Y-35699100D02*
X47441200Y-35697700D01*
X41820000Y-29720000D02*
X43270000Y-29720000D01*
X44195100Y-29720000D02*
X44195100Y-30017600D01*
%TO.N,Net-(D14-A)*%
X66765000Y-41235000D02*
X66765000Y-40852500D01*
X66765000Y-48840000D02*
X66765000Y-41235000D01*
X66765000Y-40852500D02*
X66765000Y-40661200D01*
X62370000Y-34810000D02*
X60920000Y-34810000D01*
X67090000Y-48840000D02*
X66765000Y-48840000D01*
X66765000Y-40481900D02*
X66765000Y-40475900D01*
X66765000Y-40470100D02*
X66765000Y-40470000D01*
X65654900Y-48850000D02*
X65664900Y-48840000D01*
X66765000Y-40517800D02*
X66765000Y-40493900D01*
X66765000Y-40470700D02*
X66765000Y-40470300D01*
X66765000Y-48840000D02*
X65664900Y-48840000D01*
X66430000Y-37870000D02*
X66635000Y-38075000D01*
X66765000Y-40661200D02*
X66765000Y-40565600D01*
X66765000Y-40470000D02*
X66765000Y-38205000D01*
X66765000Y-40472900D02*
X66765000Y-40471400D01*
X63295100Y-34810000D02*
X66355100Y-37870000D01*
X63890000Y-48850000D02*
X65654900Y-48850000D01*
X66765000Y-40475900D02*
X66765000Y-40472900D01*
X66765000Y-40471400D02*
X66765000Y-40470700D01*
X66635000Y-38075000D02*
X69478173Y-38075000D01*
X66355100Y-37870000D02*
X66430000Y-37870000D01*
X66765000Y-38205000D02*
X66430000Y-37870000D01*
X62370000Y-34810000D02*
X63295100Y-34810000D01*
X66765000Y-40565600D02*
X66765000Y-40517800D01*
X69478173Y-38075000D02*
X69636587Y-37916586D01*
X66765000Y-40493900D02*
X66765000Y-40481900D01*
X66765000Y-40470300D02*
X66765000Y-40470100D01*
%TO.N,PY5*%
X46720000Y-48900000D02*
X48170000Y-48900000D01*
X41016300Y-77002300D02*
X43190700Y-79176700D01*
X48759500Y-79176700D02*
X49817900Y-80235100D01*
X54011000Y-52901200D02*
X50009800Y-48900000D01*
X62370000Y-91340000D02*
X60920000Y-91340000D01*
X64894900Y-53850000D02*
X63946100Y-52901200D01*
X38662000Y-69641500D02*
X36173400Y-72130100D01*
X54011000Y-52901200D02*
X54011000Y-59292600D01*
X48759500Y-79176700D02*
X54500000Y-73436200D01*
X49817900Y-80235100D02*
X49817900Y-82314300D01*
X56725500Y-86575200D02*
X54078800Y-86575200D01*
X60920000Y-91340000D02*
X60920000Y-90537100D01*
X54500000Y-73436200D02*
X54500000Y-72747500D01*
X47063400Y-66240200D02*
X46098500Y-66240200D01*
X54011000Y-59292600D02*
X47063400Y-66240200D01*
X54078800Y-86575200D02*
X49817900Y-82314300D01*
X43190700Y-79176700D02*
X48759500Y-79176700D01*
X41820000Y-86380000D02*
X43270000Y-86380000D01*
X45120200Y-85454900D02*
X44195100Y-86380000D01*
X50009800Y-48900000D02*
X48170000Y-48900000D01*
X46677300Y-85454900D02*
X45120200Y-85454900D01*
X60920000Y-90537100D02*
X58312900Y-87930000D01*
X49817900Y-82314300D02*
X46677300Y-85454900D01*
X67270000Y-53850000D02*
X65820000Y-53850000D01*
X57590000Y-87439700D02*
X56725500Y-86575200D01*
X57590000Y-87930000D02*
X57590000Y-87439700D01*
X46098500Y-66240200D02*
X42697200Y-69641500D01*
X63946100Y-52901200D02*
X54011000Y-52901200D01*
X65820000Y-53850000D02*
X64894900Y-53850000D01*
X42697200Y-69641500D02*
X38662000Y-69641500D01*
X58312900Y-87930000D02*
X57590000Y-87930000D01*
X36173400Y-74522900D02*
X38652800Y-77002300D01*
X36173400Y-72130100D02*
X36173400Y-74522900D01*
X38652800Y-77002300D02*
X41016300Y-77002300D01*
X43270000Y-86380000D02*
X44195100Y-86380000D01*
%TO.N,Net-(D17-A)*%
X50238173Y-52067500D02*
X50396587Y-51909086D01*
X47891300Y-54096600D02*
X47891300Y-54096400D01*
X47891300Y-54319400D02*
X47891300Y-54207800D01*
X47891300Y-54096200D02*
X47891300Y-52563800D01*
X44660000Y-62832500D02*
X44650000Y-62842500D01*
X43270000Y-48900000D02*
X44195100Y-48900000D01*
X47891300Y-54989000D02*
X47891300Y-54542600D01*
X47395000Y-52067500D02*
X50238173Y-52067500D01*
X47850000Y-62832500D02*
X47850000Y-61507400D01*
X47891300Y-54097900D02*
X47891300Y-54097000D01*
X47891300Y-54110100D02*
X47891300Y-54103100D01*
X47891300Y-54096400D02*
X47891300Y-54096300D01*
X47157600Y-51862500D02*
X47190000Y-51862500D01*
X47850000Y-61507400D02*
X47891300Y-61466100D01*
X47891300Y-54542600D02*
X47891300Y-54319400D01*
X47891300Y-54096300D02*
X47891300Y-54096200D01*
X47891300Y-61466100D02*
X47891300Y-54989000D01*
X47891300Y-54152000D02*
X47891300Y-54124100D01*
X44195100Y-48900000D02*
X47157600Y-51862500D01*
X47850000Y-62832500D02*
X44660000Y-62832500D01*
X47891300Y-54124100D02*
X47891300Y-54110100D01*
X47891300Y-54099600D02*
X47891300Y-54097900D01*
X41820000Y-48900000D02*
X43270000Y-48900000D01*
X47891300Y-54103100D02*
X47891300Y-54099600D01*
X47891300Y-54097000D02*
X47891300Y-54096600D01*
X47190000Y-51862500D02*
X47395000Y-52067500D01*
X47891300Y-52563800D02*
X47190000Y-51862500D01*
X47891300Y-54207800D02*
X47891300Y-54152000D01*
%TO.N,Net-(D18-A)*%
X66765000Y-59320100D02*
X66765000Y-59320000D01*
X66765000Y-59322900D02*
X66765000Y-59321400D01*
X66765000Y-59331900D02*
X66765000Y-59325900D01*
X66765000Y-59320700D02*
X66765000Y-59320300D01*
X67090000Y-67690000D02*
X66765000Y-67690000D01*
X66765000Y-59321400D02*
X66765000Y-59320700D01*
X66765000Y-59511200D02*
X66765000Y-59415600D01*
X66635000Y-56925000D02*
X69478173Y-56925000D01*
X66765000Y-59415600D02*
X66765000Y-59367800D01*
X66765000Y-67690000D02*
X66765000Y-60085000D01*
X66765000Y-59320300D02*
X66765000Y-59320100D01*
X66430000Y-56720000D02*
X66635000Y-56925000D01*
X62370000Y-53850000D02*
X60920000Y-53850000D01*
X66765000Y-59320000D02*
X66765000Y-57055000D01*
X62370000Y-53850000D02*
X63295100Y-53850000D01*
X66765000Y-60085000D02*
X66765000Y-59702500D01*
X66765000Y-59702500D02*
X66765000Y-59511200D01*
X65654900Y-67700000D02*
X65664900Y-67690000D01*
X66165100Y-56720000D02*
X66430000Y-56720000D01*
X63295100Y-53850000D02*
X66165100Y-56720000D01*
X66765000Y-59325900D02*
X66765000Y-59322900D01*
X63890000Y-67700000D02*
X65654900Y-67700000D01*
X66765000Y-59343900D02*
X66765000Y-59331900D01*
X66765000Y-59367800D02*
X66765000Y-59343900D01*
X66765000Y-57055000D02*
X66430000Y-56720000D01*
X66765000Y-67690000D02*
X65664900Y-67690000D01*
X69478173Y-56925000D02*
X69636587Y-56766586D01*
%TO.N,Net-(D33-K)*%
X50238173Y-70917500D02*
X50396587Y-70759086D01*
X47190000Y-70712500D02*
X47395000Y-70917500D01*
X47850000Y-81682500D02*
X44660000Y-81682500D01*
X44660000Y-81682500D02*
X44650000Y-81692500D01*
X47395000Y-70917500D02*
X50238173Y-70917500D01*
X46720000Y-67300000D02*
X48170000Y-67300000D01*
%TO.N,Net-(D34-K)*%
X66765000Y-78935000D02*
X66765000Y-78552500D01*
X69478173Y-75775000D02*
X69636587Y-75616586D01*
X66765000Y-78193900D02*
X66765000Y-78181900D01*
X63890000Y-86550000D02*
X65654900Y-86550000D01*
X66765000Y-78172900D02*
X66765000Y-78171400D01*
X67090000Y-86540000D02*
X66765000Y-86540000D01*
X67270000Y-72420000D02*
X65820000Y-72420000D01*
X66765000Y-78552500D02*
X66765000Y-78361200D01*
X66765000Y-78181900D02*
X66765000Y-78175900D01*
X65654900Y-86550000D02*
X65664900Y-86540000D01*
X66765000Y-75905000D02*
X66430000Y-75570000D01*
X66765000Y-78170300D02*
X66765000Y-78170100D01*
X66635000Y-75775000D02*
X69478173Y-75775000D01*
X66765000Y-78265600D02*
X66765000Y-78217800D01*
X66765000Y-78171400D02*
X66765000Y-78170700D01*
X66765000Y-78170700D02*
X66765000Y-78170300D01*
X66765000Y-78170100D02*
X66765000Y-78170000D01*
X66765000Y-86540000D02*
X66765000Y-78935000D01*
X66765000Y-78217800D02*
X66765000Y-78193900D01*
X66765000Y-78175900D02*
X66765000Y-78172900D01*
X66430000Y-75570000D02*
X66635000Y-75775000D01*
X66765000Y-78170000D02*
X66765000Y-75905000D01*
X66765000Y-78361200D02*
X66765000Y-78265600D01*
X66765000Y-86540000D02*
X65664900Y-86540000D01*
%TO.N,Net-(D37-K)*%
X44660000Y-100532500D02*
X44650000Y-100542500D01*
X47395000Y-89767500D02*
X50238173Y-89767500D01*
X47850000Y-100532500D02*
X44660000Y-100532500D01*
X47190000Y-89562500D02*
X47395000Y-89767500D01*
X46720000Y-86380000D02*
X48170000Y-86380000D01*
%TO.N,Net-(D38-K)*%
X66765000Y-97043900D02*
X66765000Y-97031900D01*
X66635000Y-94625000D02*
X69478173Y-94625000D01*
X66765000Y-94755000D02*
X66430000Y-94420000D01*
X66765000Y-97020300D02*
X66765000Y-97020100D01*
X66765000Y-97021400D02*
X66765000Y-97020700D01*
X66765000Y-97022900D02*
X66765000Y-97021400D01*
X65654900Y-105400000D02*
X65664900Y-105390000D01*
X69478173Y-94625000D02*
X69636587Y-94466586D01*
X66765000Y-97402500D02*
X66765000Y-97211200D01*
X66765000Y-97020700D02*
X66765000Y-97020300D01*
X66430000Y-94420000D02*
X66635000Y-94625000D01*
X66765000Y-97020100D02*
X66765000Y-97020000D01*
X66765000Y-97031900D02*
X66765000Y-97025900D01*
X66765000Y-97067800D02*
X66765000Y-97043900D01*
X66765000Y-105390000D02*
X65664900Y-105390000D01*
X67270000Y-91340000D02*
X65820000Y-91340000D01*
X66765000Y-97785000D02*
X66765000Y-97402500D01*
X66765000Y-97211200D02*
X66765000Y-97115600D01*
X66765000Y-105390000D02*
X66765000Y-97785000D01*
X63890000Y-105400000D02*
X65654900Y-105400000D01*
X66765000Y-97025900D02*
X66765000Y-97022900D01*
X66765000Y-97115600D02*
X66765000Y-97067800D01*
X66765000Y-97020000D02*
X66765000Y-94755000D01*
X67090000Y-105390000D02*
X66765000Y-105390000D01*
%TO.N,PX1*%
X57500000Y-72185000D02*
X57500000Y-72747500D01*
X39075100Y-73252500D02*
X40840000Y-73252500D01*
X39650000Y-41792500D02*
X36450000Y-41792500D01*
X41153500Y-91789000D02*
X40840000Y-92102500D01*
X40840000Y-92102500D02*
X39075100Y-92102500D01*
X51822900Y-90563900D02*
X51822900Y-90725800D01*
X39650000Y-60642500D02*
X36450000Y-60642500D01*
X39650000Y-98342500D02*
X36450000Y-98342500D01*
X52703400Y-73016500D02*
X54120700Y-71599200D01*
X54456800Y-87930000D02*
X51822900Y-90563900D01*
X56914200Y-71599200D02*
X57500000Y-72185000D01*
X39650000Y-79492500D02*
X36450000Y-79492500D01*
X40840000Y-54402500D02*
X37650000Y-54402500D01*
X50759700Y-91789000D02*
X41153500Y-91789000D01*
X37650000Y-73252500D02*
X39075100Y-73252500D01*
X54590000Y-87930000D02*
X54456800Y-87930000D01*
X40840000Y-35552500D02*
X37650000Y-35552500D01*
X51822900Y-90725800D02*
X50759700Y-91789000D01*
X41076000Y-73016500D02*
X52703400Y-73016500D01*
X54120700Y-71599200D02*
X56914200Y-71599200D01*
X40840000Y-73252500D02*
X41076000Y-73016500D01*
X37650000Y-92102500D02*
X39075100Y-92102500D01*
%TO.N,PX2*%
X56890000Y-77447400D02*
X59417400Y-77447400D01*
X59417400Y-96297400D02*
X60080000Y-96960000D01*
X55590000Y-94334900D02*
X56890000Y-95634900D01*
X56890000Y-65500000D02*
X56890000Y-59260000D01*
X56890000Y-84350000D02*
X56890000Y-78110000D01*
X56890000Y-96297400D02*
X59417400Y-96297400D01*
X56890000Y-103200000D02*
X58890000Y-103200000D01*
X56890000Y-65500000D02*
X58890000Y-65500000D01*
X56890000Y-46650000D02*
X58890000Y-46650000D01*
X55690000Y-46650000D02*
X56890000Y-46650000D01*
X56890000Y-77447400D02*
X56890000Y-76784900D01*
X56890000Y-103200000D02*
X56890000Y-96960000D01*
X56890000Y-96960000D02*
X56890000Y-96297400D01*
X56890000Y-84350000D02*
X58890000Y-84350000D01*
X56500000Y-76394900D02*
X56890000Y-76784900D01*
X55690000Y-103200000D02*
X56890000Y-103200000D01*
X59417400Y-77447400D02*
X60080000Y-78110000D01*
X56890000Y-46650000D02*
X56890000Y-40410000D01*
X56890000Y-96297400D02*
X56890000Y-95634900D01*
X56500000Y-72747500D02*
X56500000Y-76394900D01*
X56890000Y-59260000D02*
X60080000Y-59260000D01*
X56890000Y-78110000D02*
X56890000Y-77447400D01*
X56890000Y-40410000D02*
X60080000Y-40410000D01*
X55590000Y-87930000D02*
X55590000Y-94334900D01*
X55690000Y-65500000D02*
X56890000Y-65500000D01*
X55690000Y-84350000D02*
X56890000Y-84350000D01*
%TD*%
M02*
