%TF.GenerationSoftware,KiCad,Pcbnew,7.0.1-0*%
%TF.CreationDate,2023-03-31T22:03:26+09:00*%
%TF.ProjectId,pangaea-pcb-pinkey-0.25u-right,70616e67-6165-4612-9d70-63622d70696e,rev?*%
%TF.SameCoordinates,Original*%
%TF.FileFunction,AssemblyDrawing,Bot*%
%FSLAX46Y46*%
G04 Gerber Fmt 4.6, Leading zero omitted, Abs format (unit mm)*
G04 Created by KiCad (PCBNEW 7.0.1-0) date 2023-03-31 22:03:26*
%MOMM*%
%LPD*%
G01*
G04 APERTURE LIST*
%ADD10C,0.150000*%
%ADD11C,0.100000*%
G04 APERTURE END LIST*
D10*
%TO.C,J8*%
X56423333Y-92492619D02*
X56423333Y-93206904D01*
X56423333Y-93206904D02*
X56470952Y-93349761D01*
X56470952Y-93349761D02*
X56566190Y-93445000D01*
X56566190Y-93445000D02*
X56709047Y-93492619D01*
X56709047Y-93492619D02*
X56804285Y-93492619D01*
X55804285Y-92921190D02*
X55899523Y-92873571D01*
X55899523Y-92873571D02*
X55947142Y-92825952D01*
X55947142Y-92825952D02*
X55994761Y-92730714D01*
X55994761Y-92730714D02*
X55994761Y-92683095D01*
X55994761Y-92683095D02*
X55947142Y-92587857D01*
X55947142Y-92587857D02*
X55899523Y-92540238D01*
X55899523Y-92540238D02*
X55804285Y-92492619D01*
X55804285Y-92492619D02*
X55613809Y-92492619D01*
X55613809Y-92492619D02*
X55518571Y-92540238D01*
X55518571Y-92540238D02*
X55470952Y-92587857D01*
X55470952Y-92587857D02*
X55423333Y-92683095D01*
X55423333Y-92683095D02*
X55423333Y-92730714D01*
X55423333Y-92730714D02*
X55470952Y-92825952D01*
X55470952Y-92825952D02*
X55518571Y-92873571D01*
X55518571Y-92873571D02*
X55613809Y-92921190D01*
X55613809Y-92921190D02*
X55804285Y-92921190D01*
X55804285Y-92921190D02*
X55899523Y-92968809D01*
X55899523Y-92968809D02*
X55947142Y-93016428D01*
X55947142Y-93016428D02*
X55994761Y-93111666D01*
X55994761Y-93111666D02*
X55994761Y-93302142D01*
X55994761Y-93302142D02*
X55947142Y-93397380D01*
X55947142Y-93397380D02*
X55899523Y-93445000D01*
X55899523Y-93445000D02*
X55804285Y-93492619D01*
X55804285Y-93492619D02*
X55613809Y-93492619D01*
X55613809Y-93492619D02*
X55518571Y-93445000D01*
X55518571Y-93445000D02*
X55470952Y-93397380D01*
X55470952Y-93397380D02*
X55423333Y-93302142D01*
X55423333Y-93302142D02*
X55423333Y-93111666D01*
X55423333Y-93111666D02*
X55470952Y-93016428D01*
X55470952Y-93016428D02*
X55518571Y-92968809D01*
X55518571Y-92968809D02*
X55613809Y-92921190D01*
X59828095Y-86797380D02*
X59875714Y-86845000D01*
X59875714Y-86845000D02*
X60018571Y-86892619D01*
X60018571Y-86892619D02*
X60113809Y-86892619D01*
X60113809Y-86892619D02*
X60256666Y-86845000D01*
X60256666Y-86845000D02*
X60351904Y-86749761D01*
X60351904Y-86749761D02*
X60399523Y-86654523D01*
X60399523Y-86654523D02*
X60447142Y-86464047D01*
X60447142Y-86464047D02*
X60447142Y-86321190D01*
X60447142Y-86321190D02*
X60399523Y-86130714D01*
X60399523Y-86130714D02*
X60351904Y-86035476D01*
X60351904Y-86035476D02*
X60256666Y-85940238D01*
X60256666Y-85940238D02*
X60113809Y-85892619D01*
X60113809Y-85892619D02*
X60018571Y-85892619D01*
X60018571Y-85892619D02*
X59875714Y-85940238D01*
X59875714Y-85940238D02*
X59828095Y-85987857D01*
X59256666Y-86892619D02*
X59351904Y-86845000D01*
X59351904Y-86845000D02*
X59399523Y-86797380D01*
X59399523Y-86797380D02*
X59447142Y-86702142D01*
X59447142Y-86702142D02*
X59447142Y-86416428D01*
X59447142Y-86416428D02*
X59399523Y-86321190D01*
X59399523Y-86321190D02*
X59351904Y-86273571D01*
X59351904Y-86273571D02*
X59256666Y-86225952D01*
X59256666Y-86225952D02*
X59113809Y-86225952D01*
X59113809Y-86225952D02*
X59018571Y-86273571D01*
X59018571Y-86273571D02*
X58970952Y-86321190D01*
X58970952Y-86321190D02*
X58923333Y-86416428D01*
X58923333Y-86416428D02*
X58923333Y-86702142D01*
X58923333Y-86702142D02*
X58970952Y-86797380D01*
X58970952Y-86797380D02*
X59018571Y-86845000D01*
X59018571Y-86845000D02*
X59113809Y-86892619D01*
X59113809Y-86892619D02*
X59256666Y-86892619D01*
X58494761Y-86225952D02*
X58494761Y-86892619D01*
X58494761Y-86321190D02*
X58447142Y-86273571D01*
X58447142Y-86273571D02*
X58351904Y-86225952D01*
X58351904Y-86225952D02*
X58209047Y-86225952D01*
X58209047Y-86225952D02*
X58113809Y-86273571D01*
X58113809Y-86273571D02*
X58066190Y-86368809D01*
X58066190Y-86368809D02*
X58066190Y-86892619D01*
X57589999Y-86225952D02*
X57589999Y-86892619D01*
X57589999Y-86321190D02*
X57542380Y-86273571D01*
X57542380Y-86273571D02*
X57447142Y-86225952D01*
X57447142Y-86225952D02*
X57304285Y-86225952D01*
X57304285Y-86225952D02*
X57209047Y-86273571D01*
X57209047Y-86273571D02*
X57161428Y-86368809D01*
X57161428Y-86368809D02*
X57161428Y-86892619D01*
X56923333Y-86987857D02*
X56161428Y-86987857D01*
X55732856Y-85892619D02*
X55637618Y-85892619D01*
X55637618Y-85892619D02*
X55542380Y-85940238D01*
X55542380Y-85940238D02*
X55494761Y-85987857D01*
X55494761Y-85987857D02*
X55447142Y-86083095D01*
X55447142Y-86083095D02*
X55399523Y-86273571D01*
X55399523Y-86273571D02*
X55399523Y-86511666D01*
X55399523Y-86511666D02*
X55447142Y-86702142D01*
X55447142Y-86702142D02*
X55494761Y-86797380D01*
X55494761Y-86797380D02*
X55542380Y-86845000D01*
X55542380Y-86845000D02*
X55637618Y-86892619D01*
X55637618Y-86892619D02*
X55732856Y-86892619D01*
X55732856Y-86892619D02*
X55828094Y-86845000D01*
X55828094Y-86845000D02*
X55875713Y-86797380D01*
X55875713Y-86797380D02*
X55923332Y-86702142D01*
X55923332Y-86702142D02*
X55970951Y-86511666D01*
X55970951Y-86511666D02*
X55970951Y-86273571D01*
X55970951Y-86273571D02*
X55923332Y-86083095D01*
X55923332Y-86083095D02*
X55875713Y-85987857D01*
X55875713Y-85987857D02*
X55828094Y-85940238D01*
X55828094Y-85940238D02*
X55732856Y-85892619D01*
X54447142Y-86892619D02*
X55018570Y-86892619D01*
X54732856Y-86892619D02*
X54732856Y-85892619D01*
X54732856Y-85892619D02*
X54828094Y-86035476D01*
X54828094Y-86035476D02*
X54923332Y-86130714D01*
X54923332Y-86130714D02*
X55018570Y-86178333D01*
X54113808Y-86892619D02*
X53589999Y-86225952D01*
X54113808Y-86225952D02*
X53589999Y-86892619D01*
X53018570Y-85892619D02*
X52923332Y-85892619D01*
X52923332Y-85892619D02*
X52828094Y-85940238D01*
X52828094Y-85940238D02*
X52780475Y-85987857D01*
X52780475Y-85987857D02*
X52732856Y-86083095D01*
X52732856Y-86083095D02*
X52685237Y-86273571D01*
X52685237Y-86273571D02*
X52685237Y-86511666D01*
X52685237Y-86511666D02*
X52732856Y-86702142D01*
X52732856Y-86702142D02*
X52780475Y-86797380D01*
X52780475Y-86797380D02*
X52828094Y-86845000D01*
X52828094Y-86845000D02*
X52923332Y-86892619D01*
X52923332Y-86892619D02*
X53018570Y-86892619D01*
X53018570Y-86892619D02*
X53113808Y-86845000D01*
X53113808Y-86845000D02*
X53161427Y-86797380D01*
X53161427Y-86797380D02*
X53209046Y-86702142D01*
X53209046Y-86702142D02*
X53256665Y-86511666D01*
X53256665Y-86511666D02*
X53256665Y-86273571D01*
X53256665Y-86273571D02*
X53209046Y-86083095D01*
X53209046Y-86083095D02*
X53161427Y-85987857D01*
X53161427Y-85987857D02*
X53113808Y-85940238D01*
X53113808Y-85940238D02*
X53018570Y-85892619D01*
X51828094Y-86225952D02*
X51828094Y-86892619D01*
X52066189Y-85845000D02*
X52304284Y-86559285D01*
X52304284Y-86559285D02*
X51685237Y-86559285D01*
X57053333Y-84822619D02*
X57053333Y-85536904D01*
X57053333Y-85536904D02*
X57100952Y-85679761D01*
X57100952Y-85679761D02*
X57196190Y-85775000D01*
X57196190Y-85775000D02*
X57339047Y-85822619D01*
X57339047Y-85822619D02*
X57434285Y-85822619D01*
X56434285Y-85251190D02*
X56529523Y-85203571D01*
X56529523Y-85203571D02*
X56577142Y-85155952D01*
X56577142Y-85155952D02*
X56624761Y-85060714D01*
X56624761Y-85060714D02*
X56624761Y-85013095D01*
X56624761Y-85013095D02*
X56577142Y-84917857D01*
X56577142Y-84917857D02*
X56529523Y-84870238D01*
X56529523Y-84870238D02*
X56434285Y-84822619D01*
X56434285Y-84822619D02*
X56243809Y-84822619D01*
X56243809Y-84822619D02*
X56148571Y-84870238D01*
X56148571Y-84870238D02*
X56100952Y-84917857D01*
X56100952Y-84917857D02*
X56053333Y-85013095D01*
X56053333Y-85013095D02*
X56053333Y-85060714D01*
X56053333Y-85060714D02*
X56100952Y-85155952D01*
X56100952Y-85155952D02*
X56148571Y-85203571D01*
X56148571Y-85203571D02*
X56243809Y-85251190D01*
X56243809Y-85251190D02*
X56434285Y-85251190D01*
X56434285Y-85251190D02*
X56529523Y-85298809D01*
X56529523Y-85298809D02*
X56577142Y-85346428D01*
X56577142Y-85346428D02*
X56624761Y-85441666D01*
X56624761Y-85441666D02*
X56624761Y-85632142D01*
X56624761Y-85632142D02*
X56577142Y-85727380D01*
X56577142Y-85727380D02*
X56529523Y-85775000D01*
X56529523Y-85775000D02*
X56434285Y-85822619D01*
X56434285Y-85822619D02*
X56243809Y-85822619D01*
X56243809Y-85822619D02*
X56148571Y-85775000D01*
X56148571Y-85775000D02*
X56100952Y-85727380D01*
X56100952Y-85727380D02*
X56053333Y-85632142D01*
X56053333Y-85632142D02*
X56053333Y-85441666D01*
X56053333Y-85441666D02*
X56100952Y-85346428D01*
X56100952Y-85346428D02*
X56148571Y-85298809D01*
X56148571Y-85298809D02*
X56243809Y-85251190D01*
%TO.C,J9*%
X56333333Y-67110119D02*
X56333333Y-67824404D01*
X56333333Y-67824404D02*
X56380952Y-67967261D01*
X56380952Y-67967261D02*
X56476190Y-68062500D01*
X56476190Y-68062500D02*
X56619047Y-68110119D01*
X56619047Y-68110119D02*
X56714285Y-68110119D01*
X55809523Y-68110119D02*
X55619047Y-68110119D01*
X55619047Y-68110119D02*
X55523809Y-68062500D01*
X55523809Y-68062500D02*
X55476190Y-68014880D01*
X55476190Y-68014880D02*
X55380952Y-67872023D01*
X55380952Y-67872023D02*
X55333333Y-67681547D01*
X55333333Y-67681547D02*
X55333333Y-67300595D01*
X55333333Y-67300595D02*
X55380952Y-67205357D01*
X55380952Y-67205357D02*
X55428571Y-67157738D01*
X55428571Y-67157738D02*
X55523809Y-67110119D01*
X55523809Y-67110119D02*
X55714285Y-67110119D01*
X55714285Y-67110119D02*
X55809523Y-67157738D01*
X55809523Y-67157738D02*
X55857142Y-67205357D01*
X55857142Y-67205357D02*
X55904761Y-67300595D01*
X55904761Y-67300595D02*
X55904761Y-67538690D01*
X55904761Y-67538690D02*
X55857142Y-67633928D01*
X55857142Y-67633928D02*
X55809523Y-67681547D01*
X55809523Y-67681547D02*
X55714285Y-67729166D01*
X55714285Y-67729166D02*
X55523809Y-67729166D01*
X55523809Y-67729166D02*
X55428571Y-67681547D01*
X55428571Y-67681547D02*
X55380952Y-67633928D01*
X55380952Y-67633928D02*
X55333333Y-67538690D01*
X59738095Y-74614880D02*
X59785714Y-74662500D01*
X59785714Y-74662500D02*
X59928571Y-74710119D01*
X59928571Y-74710119D02*
X60023809Y-74710119D01*
X60023809Y-74710119D02*
X60166666Y-74662500D01*
X60166666Y-74662500D02*
X60261904Y-74567261D01*
X60261904Y-74567261D02*
X60309523Y-74472023D01*
X60309523Y-74472023D02*
X60357142Y-74281547D01*
X60357142Y-74281547D02*
X60357142Y-74138690D01*
X60357142Y-74138690D02*
X60309523Y-73948214D01*
X60309523Y-73948214D02*
X60261904Y-73852976D01*
X60261904Y-73852976D02*
X60166666Y-73757738D01*
X60166666Y-73757738D02*
X60023809Y-73710119D01*
X60023809Y-73710119D02*
X59928571Y-73710119D01*
X59928571Y-73710119D02*
X59785714Y-73757738D01*
X59785714Y-73757738D02*
X59738095Y-73805357D01*
X59166666Y-74710119D02*
X59261904Y-74662500D01*
X59261904Y-74662500D02*
X59309523Y-74614880D01*
X59309523Y-74614880D02*
X59357142Y-74519642D01*
X59357142Y-74519642D02*
X59357142Y-74233928D01*
X59357142Y-74233928D02*
X59309523Y-74138690D01*
X59309523Y-74138690D02*
X59261904Y-74091071D01*
X59261904Y-74091071D02*
X59166666Y-74043452D01*
X59166666Y-74043452D02*
X59023809Y-74043452D01*
X59023809Y-74043452D02*
X58928571Y-74091071D01*
X58928571Y-74091071D02*
X58880952Y-74138690D01*
X58880952Y-74138690D02*
X58833333Y-74233928D01*
X58833333Y-74233928D02*
X58833333Y-74519642D01*
X58833333Y-74519642D02*
X58880952Y-74614880D01*
X58880952Y-74614880D02*
X58928571Y-74662500D01*
X58928571Y-74662500D02*
X59023809Y-74710119D01*
X59023809Y-74710119D02*
X59166666Y-74710119D01*
X58404761Y-74043452D02*
X58404761Y-74710119D01*
X58404761Y-74138690D02*
X58357142Y-74091071D01*
X58357142Y-74091071D02*
X58261904Y-74043452D01*
X58261904Y-74043452D02*
X58119047Y-74043452D01*
X58119047Y-74043452D02*
X58023809Y-74091071D01*
X58023809Y-74091071D02*
X57976190Y-74186309D01*
X57976190Y-74186309D02*
X57976190Y-74710119D01*
X57499999Y-74043452D02*
X57499999Y-74710119D01*
X57499999Y-74138690D02*
X57452380Y-74091071D01*
X57452380Y-74091071D02*
X57357142Y-74043452D01*
X57357142Y-74043452D02*
X57214285Y-74043452D01*
X57214285Y-74043452D02*
X57119047Y-74091071D01*
X57119047Y-74091071D02*
X57071428Y-74186309D01*
X57071428Y-74186309D02*
X57071428Y-74710119D01*
X56833333Y-74805357D02*
X56071428Y-74805357D01*
X55642856Y-73710119D02*
X55547618Y-73710119D01*
X55547618Y-73710119D02*
X55452380Y-73757738D01*
X55452380Y-73757738D02*
X55404761Y-73805357D01*
X55404761Y-73805357D02*
X55357142Y-73900595D01*
X55357142Y-73900595D02*
X55309523Y-74091071D01*
X55309523Y-74091071D02*
X55309523Y-74329166D01*
X55309523Y-74329166D02*
X55357142Y-74519642D01*
X55357142Y-74519642D02*
X55404761Y-74614880D01*
X55404761Y-74614880D02*
X55452380Y-74662500D01*
X55452380Y-74662500D02*
X55547618Y-74710119D01*
X55547618Y-74710119D02*
X55642856Y-74710119D01*
X55642856Y-74710119D02*
X55738094Y-74662500D01*
X55738094Y-74662500D02*
X55785713Y-74614880D01*
X55785713Y-74614880D02*
X55833332Y-74519642D01*
X55833332Y-74519642D02*
X55880951Y-74329166D01*
X55880951Y-74329166D02*
X55880951Y-74091071D01*
X55880951Y-74091071D02*
X55833332Y-73900595D01*
X55833332Y-73900595D02*
X55785713Y-73805357D01*
X55785713Y-73805357D02*
X55738094Y-73757738D01*
X55738094Y-73757738D02*
X55642856Y-73710119D01*
X54357142Y-74710119D02*
X54928570Y-74710119D01*
X54642856Y-74710119D02*
X54642856Y-73710119D01*
X54642856Y-73710119D02*
X54738094Y-73852976D01*
X54738094Y-73852976D02*
X54833332Y-73948214D01*
X54833332Y-73948214D02*
X54928570Y-73995833D01*
X54023808Y-74710119D02*
X53499999Y-74043452D01*
X54023808Y-74043452D02*
X53499999Y-74710119D01*
X52928570Y-73710119D02*
X52833332Y-73710119D01*
X52833332Y-73710119D02*
X52738094Y-73757738D01*
X52738094Y-73757738D02*
X52690475Y-73805357D01*
X52690475Y-73805357D02*
X52642856Y-73900595D01*
X52642856Y-73900595D02*
X52595237Y-74091071D01*
X52595237Y-74091071D02*
X52595237Y-74329166D01*
X52595237Y-74329166D02*
X52642856Y-74519642D01*
X52642856Y-74519642D02*
X52690475Y-74614880D01*
X52690475Y-74614880D02*
X52738094Y-74662500D01*
X52738094Y-74662500D02*
X52833332Y-74710119D01*
X52833332Y-74710119D02*
X52928570Y-74710119D01*
X52928570Y-74710119D02*
X53023808Y-74662500D01*
X53023808Y-74662500D02*
X53071427Y-74614880D01*
X53071427Y-74614880D02*
X53119046Y-74519642D01*
X53119046Y-74519642D02*
X53166665Y-74329166D01*
X53166665Y-74329166D02*
X53166665Y-74091071D01*
X53166665Y-74091071D02*
X53119046Y-73900595D01*
X53119046Y-73900595D02*
X53071427Y-73805357D01*
X53071427Y-73805357D02*
X53023808Y-73757738D01*
X53023808Y-73757738D02*
X52928570Y-73710119D01*
X51738094Y-74043452D02*
X51738094Y-74710119D01*
X51976189Y-73662500D02*
X52214284Y-74376785D01*
X52214284Y-74376785D02*
X51595237Y-74376785D01*
X60138095Y-89517380D02*
X60185714Y-89565000D01*
X60185714Y-89565000D02*
X60328571Y-89612619D01*
X60328571Y-89612619D02*
X60423809Y-89612619D01*
X60423809Y-89612619D02*
X60566666Y-89565000D01*
X60566666Y-89565000D02*
X60661904Y-89469761D01*
X60661904Y-89469761D02*
X60709523Y-89374523D01*
X60709523Y-89374523D02*
X60757142Y-89184047D01*
X60757142Y-89184047D02*
X60757142Y-89041190D01*
X60757142Y-89041190D02*
X60709523Y-88850714D01*
X60709523Y-88850714D02*
X60661904Y-88755476D01*
X60661904Y-88755476D02*
X60566666Y-88660238D01*
X60566666Y-88660238D02*
X60423809Y-88612619D01*
X60423809Y-88612619D02*
X60328571Y-88612619D01*
X60328571Y-88612619D02*
X60185714Y-88660238D01*
X60185714Y-88660238D02*
X60138095Y-88707857D01*
X59566666Y-89612619D02*
X59661904Y-89565000D01*
X59661904Y-89565000D02*
X59709523Y-89517380D01*
X59709523Y-89517380D02*
X59757142Y-89422142D01*
X59757142Y-89422142D02*
X59757142Y-89136428D01*
X59757142Y-89136428D02*
X59709523Y-89041190D01*
X59709523Y-89041190D02*
X59661904Y-88993571D01*
X59661904Y-88993571D02*
X59566666Y-88945952D01*
X59566666Y-88945952D02*
X59423809Y-88945952D01*
X59423809Y-88945952D02*
X59328571Y-88993571D01*
X59328571Y-88993571D02*
X59280952Y-89041190D01*
X59280952Y-89041190D02*
X59233333Y-89136428D01*
X59233333Y-89136428D02*
X59233333Y-89422142D01*
X59233333Y-89422142D02*
X59280952Y-89517380D01*
X59280952Y-89517380D02*
X59328571Y-89565000D01*
X59328571Y-89565000D02*
X59423809Y-89612619D01*
X59423809Y-89612619D02*
X59566666Y-89612619D01*
X58804761Y-88945952D02*
X58804761Y-89612619D01*
X58804761Y-89041190D02*
X58757142Y-88993571D01*
X58757142Y-88993571D02*
X58661904Y-88945952D01*
X58661904Y-88945952D02*
X58519047Y-88945952D01*
X58519047Y-88945952D02*
X58423809Y-88993571D01*
X58423809Y-88993571D02*
X58376190Y-89088809D01*
X58376190Y-89088809D02*
X58376190Y-89612619D01*
X57899999Y-88945952D02*
X57899999Y-89612619D01*
X57899999Y-89041190D02*
X57852380Y-88993571D01*
X57852380Y-88993571D02*
X57757142Y-88945952D01*
X57757142Y-88945952D02*
X57614285Y-88945952D01*
X57614285Y-88945952D02*
X57519047Y-88993571D01*
X57519047Y-88993571D02*
X57471428Y-89088809D01*
X57471428Y-89088809D02*
X57471428Y-89612619D01*
X57233333Y-89707857D02*
X56471428Y-89707857D01*
X56042856Y-88612619D02*
X55947618Y-88612619D01*
X55947618Y-88612619D02*
X55852380Y-88660238D01*
X55852380Y-88660238D02*
X55804761Y-88707857D01*
X55804761Y-88707857D02*
X55757142Y-88803095D01*
X55757142Y-88803095D02*
X55709523Y-88993571D01*
X55709523Y-88993571D02*
X55709523Y-89231666D01*
X55709523Y-89231666D02*
X55757142Y-89422142D01*
X55757142Y-89422142D02*
X55804761Y-89517380D01*
X55804761Y-89517380D02*
X55852380Y-89565000D01*
X55852380Y-89565000D02*
X55947618Y-89612619D01*
X55947618Y-89612619D02*
X56042856Y-89612619D01*
X56042856Y-89612619D02*
X56138094Y-89565000D01*
X56138094Y-89565000D02*
X56185713Y-89517380D01*
X56185713Y-89517380D02*
X56233332Y-89422142D01*
X56233332Y-89422142D02*
X56280951Y-89231666D01*
X56280951Y-89231666D02*
X56280951Y-88993571D01*
X56280951Y-88993571D02*
X56233332Y-88803095D01*
X56233332Y-88803095D02*
X56185713Y-88707857D01*
X56185713Y-88707857D02*
X56138094Y-88660238D01*
X56138094Y-88660238D02*
X56042856Y-88612619D01*
X54757142Y-89612619D02*
X55328570Y-89612619D01*
X55042856Y-89612619D02*
X55042856Y-88612619D01*
X55042856Y-88612619D02*
X55138094Y-88755476D01*
X55138094Y-88755476D02*
X55233332Y-88850714D01*
X55233332Y-88850714D02*
X55328570Y-88898333D01*
X54423808Y-89612619D02*
X53899999Y-88945952D01*
X54423808Y-88945952D02*
X53899999Y-89612619D01*
X53328570Y-88612619D02*
X53233332Y-88612619D01*
X53233332Y-88612619D02*
X53138094Y-88660238D01*
X53138094Y-88660238D02*
X53090475Y-88707857D01*
X53090475Y-88707857D02*
X53042856Y-88803095D01*
X53042856Y-88803095D02*
X52995237Y-88993571D01*
X52995237Y-88993571D02*
X52995237Y-89231666D01*
X52995237Y-89231666D02*
X53042856Y-89422142D01*
X53042856Y-89422142D02*
X53090475Y-89517380D01*
X53090475Y-89517380D02*
X53138094Y-89565000D01*
X53138094Y-89565000D02*
X53233332Y-89612619D01*
X53233332Y-89612619D02*
X53328570Y-89612619D01*
X53328570Y-89612619D02*
X53423808Y-89565000D01*
X53423808Y-89565000D02*
X53471427Y-89517380D01*
X53471427Y-89517380D02*
X53519046Y-89422142D01*
X53519046Y-89422142D02*
X53566665Y-89231666D01*
X53566665Y-89231666D02*
X53566665Y-88993571D01*
X53566665Y-88993571D02*
X53519046Y-88803095D01*
X53519046Y-88803095D02*
X53471427Y-88707857D01*
X53471427Y-88707857D02*
X53423808Y-88660238D01*
X53423808Y-88660238D02*
X53328570Y-88612619D01*
X52138094Y-88945952D02*
X52138094Y-89612619D01*
X52376189Y-88565000D02*
X52614284Y-89279285D01*
X52614284Y-89279285D02*
X51995237Y-89279285D01*
X56333333Y-70160119D02*
X56333333Y-70874404D01*
X56333333Y-70874404D02*
X56380952Y-71017261D01*
X56380952Y-71017261D02*
X56476190Y-71112500D01*
X56476190Y-71112500D02*
X56619047Y-71160119D01*
X56619047Y-71160119D02*
X56714285Y-71160119D01*
X55809523Y-71160119D02*
X55619047Y-71160119D01*
X55619047Y-71160119D02*
X55523809Y-71112500D01*
X55523809Y-71112500D02*
X55476190Y-71064880D01*
X55476190Y-71064880D02*
X55380952Y-70922023D01*
X55380952Y-70922023D02*
X55333333Y-70731547D01*
X55333333Y-70731547D02*
X55333333Y-70350595D01*
X55333333Y-70350595D02*
X55380952Y-70255357D01*
X55380952Y-70255357D02*
X55428571Y-70207738D01*
X55428571Y-70207738D02*
X55523809Y-70160119D01*
X55523809Y-70160119D02*
X55714285Y-70160119D01*
X55714285Y-70160119D02*
X55809523Y-70207738D01*
X55809523Y-70207738D02*
X55857142Y-70255357D01*
X55857142Y-70255357D02*
X55904761Y-70350595D01*
X55904761Y-70350595D02*
X55904761Y-70588690D01*
X55904761Y-70588690D02*
X55857142Y-70683928D01*
X55857142Y-70683928D02*
X55809523Y-70731547D01*
X55809523Y-70731547D02*
X55714285Y-70779166D01*
X55714285Y-70779166D02*
X55523809Y-70779166D01*
X55523809Y-70779166D02*
X55428571Y-70731547D01*
X55428571Y-70731547D02*
X55380952Y-70683928D01*
X55380952Y-70683928D02*
X55333333Y-70588690D01*
D11*
%TO.C,J8*%
X53090000Y-88730000D02*
X53090000Y-91630000D01*
X53590000Y-88730000D02*
X58590000Y-88730000D01*
X53590000Y-92330000D02*
X58590000Y-92330000D01*
X54090000Y-88730000D02*
X54590000Y-89437107D01*
X54590000Y-89437107D02*
X55090000Y-88730000D01*
X59090000Y-88730000D02*
X59090000Y-91630000D01*
%TO.C,J9*%
X59000000Y-71947500D02*
X59000000Y-69047500D01*
X58500000Y-71947500D02*
X53500000Y-71947500D01*
X58500000Y-68347500D02*
X53500000Y-68347500D01*
X58000000Y-71947500D02*
X57500000Y-71240393D01*
X57500000Y-71240393D02*
X57000000Y-71947500D01*
X53000000Y-71947500D02*
X53000000Y-69047500D01*
%TD*%
M02*
