%TF.GenerationSoftware,KiCad,Pcbnew,7.0.1-0*%
%TF.CreationDate,2023-03-31T22:03:26+09:00*%
%TF.ProjectId,pangaea-pcb-pinkey-0.25u-right,70616e67-6165-4612-9d70-63622d70696e,rev?*%
%TF.SameCoordinates,Original*%
%TF.FileFunction,AssemblyDrawing,Top*%
%FSLAX46Y46*%
G04 Gerber Fmt 4.6, Leading zero omitted, Abs format (unit mm)*
G04 Created by KiCad (PCBNEW 7.0.1-0) date 2023-03-31 22:03:26*
%MOMM*%
%LPD*%
G01*
G04 APERTURE LIST*
%ADD10C,0.150000*%
%ADD11C,0.200000*%
%ADD12C,0.010000*%
G04 APERTURE END LIST*
D10*
%TO.C,H11*%
X33039285Y-86052619D02*
X33039285Y-85052619D01*
X33039285Y-85052619D02*
X33372618Y-85766904D01*
X33372618Y-85766904D02*
X33705951Y-85052619D01*
X33705951Y-85052619D02*
X33705951Y-86052619D01*
X34324999Y-86052619D02*
X34229761Y-86005000D01*
X34229761Y-86005000D02*
X34182142Y-85957380D01*
X34182142Y-85957380D02*
X34134523Y-85862142D01*
X34134523Y-85862142D02*
X34134523Y-85576428D01*
X34134523Y-85576428D02*
X34182142Y-85481190D01*
X34182142Y-85481190D02*
X34229761Y-85433571D01*
X34229761Y-85433571D02*
X34324999Y-85385952D01*
X34324999Y-85385952D02*
X34467856Y-85385952D01*
X34467856Y-85385952D02*
X34563094Y-85433571D01*
X34563094Y-85433571D02*
X34610713Y-85481190D01*
X34610713Y-85481190D02*
X34658332Y-85576428D01*
X34658332Y-85576428D02*
X34658332Y-85862142D01*
X34658332Y-85862142D02*
X34610713Y-85957380D01*
X34610713Y-85957380D02*
X34563094Y-86005000D01*
X34563094Y-86005000D02*
X34467856Y-86052619D01*
X34467856Y-86052619D02*
X34324999Y-86052619D01*
X35515475Y-85385952D02*
X35515475Y-86052619D01*
X35086904Y-85385952D02*
X35086904Y-85909761D01*
X35086904Y-85909761D02*
X35134523Y-86005000D01*
X35134523Y-86005000D02*
X35229761Y-86052619D01*
X35229761Y-86052619D02*
X35372618Y-86052619D01*
X35372618Y-86052619D02*
X35467856Y-86005000D01*
X35467856Y-86005000D02*
X35515475Y-85957380D01*
X35991666Y-85385952D02*
X35991666Y-86052619D01*
X35991666Y-85481190D02*
X36039285Y-85433571D01*
X36039285Y-85433571D02*
X36134523Y-85385952D01*
X36134523Y-85385952D02*
X36277380Y-85385952D01*
X36277380Y-85385952D02*
X36372618Y-85433571D01*
X36372618Y-85433571D02*
X36420237Y-85528809D01*
X36420237Y-85528809D02*
X36420237Y-86052619D01*
X36753571Y-85385952D02*
X37134523Y-85385952D01*
X36896428Y-85052619D02*
X36896428Y-85909761D01*
X36896428Y-85909761D02*
X36944047Y-86005000D01*
X36944047Y-86005000D02*
X37039285Y-86052619D01*
X37039285Y-86052619D02*
X37134523Y-86052619D01*
X37467857Y-86052619D02*
X37467857Y-85385952D01*
X37467857Y-85052619D02*
X37420238Y-85100238D01*
X37420238Y-85100238D02*
X37467857Y-85147857D01*
X37467857Y-85147857D02*
X37515476Y-85100238D01*
X37515476Y-85100238D02*
X37467857Y-85052619D01*
X37467857Y-85052619D02*
X37467857Y-85147857D01*
X37944047Y-85385952D02*
X37944047Y-86052619D01*
X37944047Y-85481190D02*
X37991666Y-85433571D01*
X37991666Y-85433571D02*
X38086904Y-85385952D01*
X38086904Y-85385952D02*
X38229761Y-85385952D01*
X38229761Y-85385952D02*
X38324999Y-85433571D01*
X38324999Y-85433571D02*
X38372618Y-85528809D01*
X38372618Y-85528809D02*
X38372618Y-86052619D01*
X39277380Y-85385952D02*
X39277380Y-86195476D01*
X39277380Y-86195476D02*
X39229761Y-86290714D01*
X39229761Y-86290714D02*
X39182142Y-86338333D01*
X39182142Y-86338333D02*
X39086904Y-86385952D01*
X39086904Y-86385952D02*
X38944047Y-86385952D01*
X38944047Y-86385952D02*
X38848809Y-86338333D01*
X39277380Y-86005000D02*
X39182142Y-86052619D01*
X39182142Y-86052619D02*
X38991666Y-86052619D01*
X38991666Y-86052619D02*
X38896428Y-86005000D01*
X38896428Y-86005000D02*
X38848809Y-85957380D01*
X38848809Y-85957380D02*
X38801190Y-85862142D01*
X38801190Y-85862142D02*
X38801190Y-85576428D01*
X38801190Y-85576428D02*
X38848809Y-85481190D01*
X38848809Y-85481190D02*
X38896428Y-85433571D01*
X38896428Y-85433571D02*
X38991666Y-85385952D01*
X38991666Y-85385952D02*
X39182142Y-85385952D01*
X39182142Y-85385952D02*
X39277380Y-85433571D01*
X39753571Y-86052619D02*
X39753571Y-85052619D01*
X39753571Y-85528809D02*
X40324999Y-85528809D01*
X40324999Y-86052619D02*
X40324999Y-85052619D01*
X40944047Y-86052619D02*
X40848809Y-86005000D01*
X40848809Y-86005000D02*
X40801190Y-85957380D01*
X40801190Y-85957380D02*
X40753571Y-85862142D01*
X40753571Y-85862142D02*
X40753571Y-85576428D01*
X40753571Y-85576428D02*
X40801190Y-85481190D01*
X40801190Y-85481190D02*
X40848809Y-85433571D01*
X40848809Y-85433571D02*
X40944047Y-85385952D01*
X40944047Y-85385952D02*
X41086904Y-85385952D01*
X41086904Y-85385952D02*
X41182142Y-85433571D01*
X41182142Y-85433571D02*
X41229761Y-85481190D01*
X41229761Y-85481190D02*
X41277380Y-85576428D01*
X41277380Y-85576428D02*
X41277380Y-85862142D01*
X41277380Y-85862142D02*
X41229761Y-85957380D01*
X41229761Y-85957380D02*
X41182142Y-86005000D01*
X41182142Y-86005000D02*
X41086904Y-86052619D01*
X41086904Y-86052619D02*
X40944047Y-86052619D01*
X41848809Y-86052619D02*
X41753571Y-86005000D01*
X41753571Y-86005000D02*
X41705952Y-85909761D01*
X41705952Y-85909761D02*
X41705952Y-85052619D01*
X42610714Y-86005000D02*
X42515476Y-86052619D01*
X42515476Y-86052619D02*
X42325000Y-86052619D01*
X42325000Y-86052619D02*
X42229762Y-86005000D01*
X42229762Y-86005000D02*
X42182143Y-85909761D01*
X42182143Y-85909761D02*
X42182143Y-85528809D01*
X42182143Y-85528809D02*
X42229762Y-85433571D01*
X42229762Y-85433571D02*
X42325000Y-85385952D01*
X42325000Y-85385952D02*
X42515476Y-85385952D01*
X42515476Y-85385952D02*
X42610714Y-85433571D01*
X42610714Y-85433571D02*
X42658333Y-85528809D01*
X42658333Y-85528809D02*
X42658333Y-85624047D01*
X42658333Y-85624047D02*
X42182143Y-85719285D01*
D11*
%TO.C,D18*%
X62880714Y-55812619D02*
X62880714Y-54812619D01*
X62880714Y-54812619D02*
X63118809Y-54812619D01*
X63118809Y-54812619D02*
X63261666Y-54860238D01*
X63261666Y-54860238D02*
X63356904Y-54955476D01*
X63356904Y-54955476D02*
X63404523Y-55050714D01*
X63404523Y-55050714D02*
X63452142Y-55241190D01*
X63452142Y-55241190D02*
X63452142Y-55384047D01*
X63452142Y-55384047D02*
X63404523Y-55574523D01*
X63404523Y-55574523D02*
X63356904Y-55669761D01*
X63356904Y-55669761D02*
X63261666Y-55765000D01*
X63261666Y-55765000D02*
X63118809Y-55812619D01*
X63118809Y-55812619D02*
X62880714Y-55812619D01*
X64404523Y-55812619D02*
X63833095Y-55812619D01*
X64118809Y-55812619D02*
X64118809Y-54812619D01*
X64118809Y-54812619D02*
X64023571Y-54955476D01*
X64023571Y-54955476D02*
X63928333Y-55050714D01*
X63928333Y-55050714D02*
X63833095Y-55098333D01*
X64975952Y-55241190D02*
X64880714Y-55193571D01*
X64880714Y-55193571D02*
X64833095Y-55145952D01*
X64833095Y-55145952D02*
X64785476Y-55050714D01*
X64785476Y-55050714D02*
X64785476Y-55003095D01*
X64785476Y-55003095D02*
X64833095Y-54907857D01*
X64833095Y-54907857D02*
X64880714Y-54860238D01*
X64880714Y-54860238D02*
X64975952Y-54812619D01*
X64975952Y-54812619D02*
X65166428Y-54812619D01*
X65166428Y-54812619D02*
X65261666Y-54860238D01*
X65261666Y-54860238D02*
X65309285Y-54907857D01*
X65309285Y-54907857D02*
X65356904Y-55003095D01*
X65356904Y-55003095D02*
X65356904Y-55050714D01*
X65356904Y-55050714D02*
X65309285Y-55145952D01*
X65309285Y-55145952D02*
X65261666Y-55193571D01*
X65261666Y-55193571D02*
X65166428Y-55241190D01*
X65166428Y-55241190D02*
X64975952Y-55241190D01*
X64975952Y-55241190D02*
X64880714Y-55288809D01*
X64880714Y-55288809D02*
X64833095Y-55336428D01*
X64833095Y-55336428D02*
X64785476Y-55431666D01*
X64785476Y-55431666D02*
X64785476Y-55622142D01*
X64785476Y-55622142D02*
X64833095Y-55717380D01*
X64833095Y-55717380D02*
X64880714Y-55765000D01*
X64880714Y-55765000D02*
X64975952Y-55812619D01*
X64975952Y-55812619D02*
X65166428Y-55812619D01*
X65166428Y-55812619D02*
X65261666Y-55765000D01*
X65261666Y-55765000D02*
X65309285Y-55717380D01*
X65309285Y-55717380D02*
X65356904Y-55622142D01*
X65356904Y-55622142D02*
X65356904Y-55431666D01*
X65356904Y-55431666D02*
X65309285Y-55336428D01*
X65309285Y-55336428D02*
X65261666Y-55288809D01*
X65261666Y-55288809D02*
X65166428Y-55241190D01*
D10*
%TO.C,SW18*%
X63651904Y-54325119D02*
X63080476Y-54325119D01*
X63366190Y-54325119D02*
X63366190Y-53325119D01*
X63366190Y-53325119D02*
X63270952Y-53467976D01*
X63270952Y-53467976D02*
X63175714Y-53563214D01*
X63175714Y-53563214D02*
X63080476Y-53610833D01*
X64080476Y-53325119D02*
X64080476Y-54134642D01*
X64080476Y-54134642D02*
X64128095Y-54229880D01*
X64128095Y-54229880D02*
X64175714Y-54277500D01*
X64175714Y-54277500D02*
X64270952Y-54325119D01*
X64270952Y-54325119D02*
X64461428Y-54325119D01*
X64461428Y-54325119D02*
X64556666Y-54277500D01*
X64556666Y-54277500D02*
X64604285Y-54229880D01*
X64604285Y-54229880D02*
X64651904Y-54134642D01*
X64651904Y-54134642D02*
X64651904Y-53325119D01*
%TO.C,SW33*%
X44411904Y-68317619D02*
X43840476Y-68317619D01*
X44126190Y-68317619D02*
X44126190Y-67317619D01*
X44126190Y-67317619D02*
X44030952Y-67460476D01*
X44030952Y-67460476D02*
X43935714Y-67555714D01*
X43935714Y-67555714D02*
X43840476Y-67603333D01*
X44840476Y-67317619D02*
X44840476Y-68127142D01*
X44840476Y-68127142D02*
X44888095Y-68222380D01*
X44888095Y-68222380D02*
X44935714Y-68270000D01*
X44935714Y-68270000D02*
X45030952Y-68317619D01*
X45030952Y-68317619D02*
X45221428Y-68317619D01*
X45221428Y-68317619D02*
X45316666Y-68270000D01*
X45316666Y-68270000D02*
X45364285Y-68222380D01*
X45364285Y-68222380D02*
X45411904Y-68127142D01*
X45411904Y-68127142D02*
X45411904Y-67317619D01*
D11*
%TO.C,D37*%
X43780714Y-88342619D02*
X43780714Y-87342619D01*
X43780714Y-87342619D02*
X44018809Y-87342619D01*
X44018809Y-87342619D02*
X44161666Y-87390238D01*
X44161666Y-87390238D02*
X44256904Y-87485476D01*
X44256904Y-87485476D02*
X44304523Y-87580714D01*
X44304523Y-87580714D02*
X44352142Y-87771190D01*
X44352142Y-87771190D02*
X44352142Y-87914047D01*
X44352142Y-87914047D02*
X44304523Y-88104523D01*
X44304523Y-88104523D02*
X44256904Y-88199761D01*
X44256904Y-88199761D02*
X44161666Y-88295000D01*
X44161666Y-88295000D02*
X44018809Y-88342619D01*
X44018809Y-88342619D02*
X43780714Y-88342619D01*
X44685476Y-87342619D02*
X45304523Y-87342619D01*
X45304523Y-87342619D02*
X44971190Y-87723571D01*
X44971190Y-87723571D02*
X45114047Y-87723571D01*
X45114047Y-87723571D02*
X45209285Y-87771190D01*
X45209285Y-87771190D02*
X45256904Y-87818809D01*
X45256904Y-87818809D02*
X45304523Y-87914047D01*
X45304523Y-87914047D02*
X45304523Y-88152142D01*
X45304523Y-88152142D02*
X45256904Y-88247380D01*
X45256904Y-88247380D02*
X45209285Y-88295000D01*
X45209285Y-88295000D02*
X45114047Y-88342619D01*
X45114047Y-88342619D02*
X44828333Y-88342619D01*
X44828333Y-88342619D02*
X44733095Y-88295000D01*
X44733095Y-88295000D02*
X44685476Y-88247380D01*
X45637857Y-87342619D02*
X46304523Y-87342619D01*
X46304523Y-87342619D02*
X45875952Y-88342619D01*
D10*
%TO.C,SW34*%
X63651904Y-73175119D02*
X63080476Y-73175119D01*
X63366190Y-73175119D02*
X63366190Y-72175119D01*
X63366190Y-72175119D02*
X63270952Y-72317976D01*
X63270952Y-72317976D02*
X63175714Y-72413214D01*
X63175714Y-72413214D02*
X63080476Y-72460833D01*
X64080476Y-72175119D02*
X64080476Y-72984642D01*
X64080476Y-72984642D02*
X64128095Y-73079880D01*
X64128095Y-73079880D02*
X64175714Y-73127500D01*
X64175714Y-73127500D02*
X64270952Y-73175119D01*
X64270952Y-73175119D02*
X64461428Y-73175119D01*
X64461428Y-73175119D02*
X64556666Y-73127500D01*
X64556666Y-73127500D02*
X64604285Y-73079880D01*
X64604285Y-73079880D02*
X64651904Y-72984642D01*
X64651904Y-72984642D02*
X64651904Y-72175119D01*
%TO.C,H12*%
X23209285Y-44952619D02*
X23209285Y-43952619D01*
X23209285Y-43952619D02*
X23542618Y-44666904D01*
X23542618Y-44666904D02*
X23875951Y-43952619D01*
X23875951Y-43952619D02*
X23875951Y-44952619D01*
X24494999Y-44952619D02*
X24399761Y-44905000D01*
X24399761Y-44905000D02*
X24352142Y-44857380D01*
X24352142Y-44857380D02*
X24304523Y-44762142D01*
X24304523Y-44762142D02*
X24304523Y-44476428D01*
X24304523Y-44476428D02*
X24352142Y-44381190D01*
X24352142Y-44381190D02*
X24399761Y-44333571D01*
X24399761Y-44333571D02*
X24494999Y-44285952D01*
X24494999Y-44285952D02*
X24637856Y-44285952D01*
X24637856Y-44285952D02*
X24733094Y-44333571D01*
X24733094Y-44333571D02*
X24780713Y-44381190D01*
X24780713Y-44381190D02*
X24828332Y-44476428D01*
X24828332Y-44476428D02*
X24828332Y-44762142D01*
X24828332Y-44762142D02*
X24780713Y-44857380D01*
X24780713Y-44857380D02*
X24733094Y-44905000D01*
X24733094Y-44905000D02*
X24637856Y-44952619D01*
X24637856Y-44952619D02*
X24494999Y-44952619D01*
X25685475Y-44285952D02*
X25685475Y-44952619D01*
X25256904Y-44285952D02*
X25256904Y-44809761D01*
X25256904Y-44809761D02*
X25304523Y-44905000D01*
X25304523Y-44905000D02*
X25399761Y-44952619D01*
X25399761Y-44952619D02*
X25542618Y-44952619D01*
X25542618Y-44952619D02*
X25637856Y-44905000D01*
X25637856Y-44905000D02*
X25685475Y-44857380D01*
X26161666Y-44285952D02*
X26161666Y-44952619D01*
X26161666Y-44381190D02*
X26209285Y-44333571D01*
X26209285Y-44333571D02*
X26304523Y-44285952D01*
X26304523Y-44285952D02*
X26447380Y-44285952D01*
X26447380Y-44285952D02*
X26542618Y-44333571D01*
X26542618Y-44333571D02*
X26590237Y-44428809D01*
X26590237Y-44428809D02*
X26590237Y-44952619D01*
X26923571Y-44285952D02*
X27304523Y-44285952D01*
X27066428Y-43952619D02*
X27066428Y-44809761D01*
X27066428Y-44809761D02*
X27114047Y-44905000D01*
X27114047Y-44905000D02*
X27209285Y-44952619D01*
X27209285Y-44952619D02*
X27304523Y-44952619D01*
X27637857Y-44952619D02*
X27637857Y-44285952D01*
X27637857Y-43952619D02*
X27590238Y-44000238D01*
X27590238Y-44000238D02*
X27637857Y-44047857D01*
X27637857Y-44047857D02*
X27685476Y-44000238D01*
X27685476Y-44000238D02*
X27637857Y-43952619D01*
X27637857Y-43952619D02*
X27637857Y-44047857D01*
X28114047Y-44285952D02*
X28114047Y-44952619D01*
X28114047Y-44381190D02*
X28161666Y-44333571D01*
X28161666Y-44333571D02*
X28256904Y-44285952D01*
X28256904Y-44285952D02*
X28399761Y-44285952D01*
X28399761Y-44285952D02*
X28494999Y-44333571D01*
X28494999Y-44333571D02*
X28542618Y-44428809D01*
X28542618Y-44428809D02*
X28542618Y-44952619D01*
X29447380Y-44285952D02*
X29447380Y-45095476D01*
X29447380Y-45095476D02*
X29399761Y-45190714D01*
X29399761Y-45190714D02*
X29352142Y-45238333D01*
X29352142Y-45238333D02*
X29256904Y-45285952D01*
X29256904Y-45285952D02*
X29114047Y-45285952D01*
X29114047Y-45285952D02*
X29018809Y-45238333D01*
X29447380Y-44905000D02*
X29352142Y-44952619D01*
X29352142Y-44952619D02*
X29161666Y-44952619D01*
X29161666Y-44952619D02*
X29066428Y-44905000D01*
X29066428Y-44905000D02*
X29018809Y-44857380D01*
X29018809Y-44857380D02*
X28971190Y-44762142D01*
X28971190Y-44762142D02*
X28971190Y-44476428D01*
X28971190Y-44476428D02*
X29018809Y-44381190D01*
X29018809Y-44381190D02*
X29066428Y-44333571D01*
X29066428Y-44333571D02*
X29161666Y-44285952D01*
X29161666Y-44285952D02*
X29352142Y-44285952D01*
X29352142Y-44285952D02*
X29447380Y-44333571D01*
X29923571Y-44952619D02*
X29923571Y-43952619D01*
X29923571Y-44428809D02*
X30494999Y-44428809D01*
X30494999Y-44952619D02*
X30494999Y-43952619D01*
X31114047Y-44952619D02*
X31018809Y-44905000D01*
X31018809Y-44905000D02*
X30971190Y-44857380D01*
X30971190Y-44857380D02*
X30923571Y-44762142D01*
X30923571Y-44762142D02*
X30923571Y-44476428D01*
X30923571Y-44476428D02*
X30971190Y-44381190D01*
X30971190Y-44381190D02*
X31018809Y-44333571D01*
X31018809Y-44333571D02*
X31114047Y-44285952D01*
X31114047Y-44285952D02*
X31256904Y-44285952D01*
X31256904Y-44285952D02*
X31352142Y-44333571D01*
X31352142Y-44333571D02*
X31399761Y-44381190D01*
X31399761Y-44381190D02*
X31447380Y-44476428D01*
X31447380Y-44476428D02*
X31447380Y-44762142D01*
X31447380Y-44762142D02*
X31399761Y-44857380D01*
X31399761Y-44857380D02*
X31352142Y-44905000D01*
X31352142Y-44905000D02*
X31256904Y-44952619D01*
X31256904Y-44952619D02*
X31114047Y-44952619D01*
X32018809Y-44952619D02*
X31923571Y-44905000D01*
X31923571Y-44905000D02*
X31875952Y-44809761D01*
X31875952Y-44809761D02*
X31875952Y-43952619D01*
X32780714Y-44905000D02*
X32685476Y-44952619D01*
X32685476Y-44952619D02*
X32495000Y-44952619D01*
X32495000Y-44952619D02*
X32399762Y-44905000D01*
X32399762Y-44905000D02*
X32352143Y-44809761D01*
X32352143Y-44809761D02*
X32352143Y-44428809D01*
X32352143Y-44428809D02*
X32399762Y-44333571D01*
X32399762Y-44333571D02*
X32495000Y-44285952D01*
X32495000Y-44285952D02*
X32685476Y-44285952D01*
X32685476Y-44285952D02*
X32780714Y-44333571D01*
X32780714Y-44333571D02*
X32828333Y-44428809D01*
X32828333Y-44428809D02*
X32828333Y-44524047D01*
X32828333Y-44524047D02*
X32352143Y-44619285D01*
%TO.C,SW13*%
X44411904Y-30617619D02*
X43840476Y-30617619D01*
X44126190Y-30617619D02*
X44126190Y-29617619D01*
X44126190Y-29617619D02*
X44030952Y-29760476D01*
X44030952Y-29760476D02*
X43935714Y-29855714D01*
X43935714Y-29855714D02*
X43840476Y-29903333D01*
X44840476Y-29617619D02*
X44840476Y-30427142D01*
X44840476Y-30427142D02*
X44888095Y-30522380D01*
X44888095Y-30522380D02*
X44935714Y-30570000D01*
X44935714Y-30570000D02*
X45030952Y-30617619D01*
X45030952Y-30617619D02*
X45221428Y-30617619D01*
X45221428Y-30617619D02*
X45316666Y-30570000D01*
X45316666Y-30570000D02*
X45364285Y-30522380D01*
X45364285Y-30522380D02*
X45411904Y-30427142D01*
X45411904Y-30427142D02*
X45411904Y-29617619D01*
%TO.C,SW17*%
X44411904Y-49467619D02*
X43840476Y-49467619D01*
X44126190Y-49467619D02*
X44126190Y-48467619D01*
X44126190Y-48467619D02*
X44030952Y-48610476D01*
X44030952Y-48610476D02*
X43935714Y-48705714D01*
X43935714Y-48705714D02*
X43840476Y-48753333D01*
X44840476Y-48467619D02*
X44840476Y-49277142D01*
X44840476Y-49277142D02*
X44888095Y-49372380D01*
X44888095Y-49372380D02*
X44935714Y-49420000D01*
X44935714Y-49420000D02*
X45030952Y-49467619D01*
X45030952Y-49467619D02*
X45221428Y-49467619D01*
X45221428Y-49467619D02*
X45316666Y-49420000D01*
X45316666Y-49420000D02*
X45364285Y-49372380D01*
X45364285Y-49372380D02*
X45411904Y-49277142D01*
X45411904Y-49277142D02*
X45411904Y-48467619D01*
%TO.C,SW14*%
X63651904Y-35475119D02*
X63080476Y-35475119D01*
X63366190Y-35475119D02*
X63366190Y-34475119D01*
X63366190Y-34475119D02*
X63270952Y-34617976D01*
X63270952Y-34617976D02*
X63175714Y-34713214D01*
X63175714Y-34713214D02*
X63080476Y-34760833D01*
X64080476Y-34475119D02*
X64080476Y-35284642D01*
X64080476Y-35284642D02*
X64128095Y-35379880D01*
X64128095Y-35379880D02*
X64175714Y-35427500D01*
X64175714Y-35427500D02*
X64270952Y-35475119D01*
X64270952Y-35475119D02*
X64461428Y-35475119D01*
X64461428Y-35475119D02*
X64556666Y-35427500D01*
X64556666Y-35427500D02*
X64604285Y-35379880D01*
X64604285Y-35379880D02*
X64651904Y-35284642D01*
X64651904Y-35284642D02*
X64651904Y-34475119D01*
D11*
%TO.C,D38*%
X62880714Y-93302619D02*
X62880714Y-92302619D01*
X62880714Y-92302619D02*
X63118809Y-92302619D01*
X63118809Y-92302619D02*
X63261666Y-92350238D01*
X63261666Y-92350238D02*
X63356904Y-92445476D01*
X63356904Y-92445476D02*
X63404523Y-92540714D01*
X63404523Y-92540714D02*
X63452142Y-92731190D01*
X63452142Y-92731190D02*
X63452142Y-92874047D01*
X63452142Y-92874047D02*
X63404523Y-93064523D01*
X63404523Y-93064523D02*
X63356904Y-93159761D01*
X63356904Y-93159761D02*
X63261666Y-93255000D01*
X63261666Y-93255000D02*
X63118809Y-93302619D01*
X63118809Y-93302619D02*
X62880714Y-93302619D01*
X63785476Y-92302619D02*
X64404523Y-92302619D01*
X64404523Y-92302619D02*
X64071190Y-92683571D01*
X64071190Y-92683571D02*
X64214047Y-92683571D01*
X64214047Y-92683571D02*
X64309285Y-92731190D01*
X64309285Y-92731190D02*
X64356904Y-92778809D01*
X64356904Y-92778809D02*
X64404523Y-92874047D01*
X64404523Y-92874047D02*
X64404523Y-93112142D01*
X64404523Y-93112142D02*
X64356904Y-93207380D01*
X64356904Y-93207380D02*
X64309285Y-93255000D01*
X64309285Y-93255000D02*
X64214047Y-93302619D01*
X64214047Y-93302619D02*
X63928333Y-93302619D01*
X63928333Y-93302619D02*
X63833095Y-93255000D01*
X63833095Y-93255000D02*
X63785476Y-93207380D01*
X64975952Y-92731190D02*
X64880714Y-92683571D01*
X64880714Y-92683571D02*
X64833095Y-92635952D01*
X64833095Y-92635952D02*
X64785476Y-92540714D01*
X64785476Y-92540714D02*
X64785476Y-92493095D01*
X64785476Y-92493095D02*
X64833095Y-92397857D01*
X64833095Y-92397857D02*
X64880714Y-92350238D01*
X64880714Y-92350238D02*
X64975952Y-92302619D01*
X64975952Y-92302619D02*
X65166428Y-92302619D01*
X65166428Y-92302619D02*
X65261666Y-92350238D01*
X65261666Y-92350238D02*
X65309285Y-92397857D01*
X65309285Y-92397857D02*
X65356904Y-92493095D01*
X65356904Y-92493095D02*
X65356904Y-92540714D01*
X65356904Y-92540714D02*
X65309285Y-92635952D01*
X65309285Y-92635952D02*
X65261666Y-92683571D01*
X65261666Y-92683571D02*
X65166428Y-92731190D01*
X65166428Y-92731190D02*
X64975952Y-92731190D01*
X64975952Y-92731190D02*
X64880714Y-92778809D01*
X64880714Y-92778809D02*
X64833095Y-92826428D01*
X64833095Y-92826428D02*
X64785476Y-92921666D01*
X64785476Y-92921666D02*
X64785476Y-93112142D01*
X64785476Y-93112142D02*
X64833095Y-93207380D01*
X64833095Y-93207380D02*
X64880714Y-93255000D01*
X64880714Y-93255000D02*
X64975952Y-93302619D01*
X64975952Y-93302619D02*
X65166428Y-93302619D01*
X65166428Y-93302619D02*
X65261666Y-93255000D01*
X65261666Y-93255000D02*
X65309285Y-93207380D01*
X65309285Y-93207380D02*
X65356904Y-93112142D01*
X65356904Y-93112142D02*
X65356904Y-92921666D01*
X65356904Y-92921666D02*
X65309285Y-92826428D01*
X65309285Y-92826428D02*
X65261666Y-92778809D01*
X65261666Y-92778809D02*
X65166428Y-92731190D01*
D10*
%TO.C,SW38*%
X63651904Y-92025119D02*
X63080476Y-92025119D01*
X63366190Y-92025119D02*
X63366190Y-91025119D01*
X63366190Y-91025119D02*
X63270952Y-91167976D01*
X63270952Y-91167976D02*
X63175714Y-91263214D01*
X63175714Y-91263214D02*
X63080476Y-91310833D01*
X64080476Y-91025119D02*
X64080476Y-91834642D01*
X64080476Y-91834642D02*
X64128095Y-91929880D01*
X64128095Y-91929880D02*
X64175714Y-91977500D01*
X64175714Y-91977500D02*
X64270952Y-92025119D01*
X64270952Y-92025119D02*
X64461428Y-92025119D01*
X64461428Y-92025119D02*
X64556666Y-91977500D01*
X64556666Y-91977500D02*
X64604285Y-91929880D01*
X64604285Y-91929880D02*
X64651904Y-91834642D01*
X64651904Y-91834642D02*
X64651904Y-91025119D01*
%TO.C,H9*%
X66334285Y-53792619D02*
X66334285Y-52792619D01*
X66334285Y-52792619D02*
X66667618Y-53506904D01*
X66667618Y-53506904D02*
X67000951Y-52792619D01*
X67000951Y-52792619D02*
X67000951Y-53792619D01*
X67619999Y-53792619D02*
X67524761Y-53745000D01*
X67524761Y-53745000D02*
X67477142Y-53697380D01*
X67477142Y-53697380D02*
X67429523Y-53602142D01*
X67429523Y-53602142D02*
X67429523Y-53316428D01*
X67429523Y-53316428D02*
X67477142Y-53221190D01*
X67477142Y-53221190D02*
X67524761Y-53173571D01*
X67524761Y-53173571D02*
X67619999Y-53125952D01*
X67619999Y-53125952D02*
X67762856Y-53125952D01*
X67762856Y-53125952D02*
X67858094Y-53173571D01*
X67858094Y-53173571D02*
X67905713Y-53221190D01*
X67905713Y-53221190D02*
X67953332Y-53316428D01*
X67953332Y-53316428D02*
X67953332Y-53602142D01*
X67953332Y-53602142D02*
X67905713Y-53697380D01*
X67905713Y-53697380D02*
X67858094Y-53745000D01*
X67858094Y-53745000D02*
X67762856Y-53792619D01*
X67762856Y-53792619D02*
X67619999Y-53792619D01*
X68810475Y-53125952D02*
X68810475Y-53792619D01*
X68381904Y-53125952D02*
X68381904Y-53649761D01*
X68381904Y-53649761D02*
X68429523Y-53745000D01*
X68429523Y-53745000D02*
X68524761Y-53792619D01*
X68524761Y-53792619D02*
X68667618Y-53792619D01*
X68667618Y-53792619D02*
X68762856Y-53745000D01*
X68762856Y-53745000D02*
X68810475Y-53697380D01*
X69286666Y-53125952D02*
X69286666Y-53792619D01*
X69286666Y-53221190D02*
X69334285Y-53173571D01*
X69334285Y-53173571D02*
X69429523Y-53125952D01*
X69429523Y-53125952D02*
X69572380Y-53125952D01*
X69572380Y-53125952D02*
X69667618Y-53173571D01*
X69667618Y-53173571D02*
X69715237Y-53268809D01*
X69715237Y-53268809D02*
X69715237Y-53792619D01*
X70048571Y-53125952D02*
X70429523Y-53125952D01*
X70191428Y-52792619D02*
X70191428Y-53649761D01*
X70191428Y-53649761D02*
X70239047Y-53745000D01*
X70239047Y-53745000D02*
X70334285Y-53792619D01*
X70334285Y-53792619D02*
X70429523Y-53792619D01*
X70762857Y-53792619D02*
X70762857Y-53125952D01*
X70762857Y-52792619D02*
X70715238Y-52840238D01*
X70715238Y-52840238D02*
X70762857Y-52887857D01*
X70762857Y-52887857D02*
X70810476Y-52840238D01*
X70810476Y-52840238D02*
X70762857Y-52792619D01*
X70762857Y-52792619D02*
X70762857Y-52887857D01*
X71239047Y-53125952D02*
X71239047Y-53792619D01*
X71239047Y-53221190D02*
X71286666Y-53173571D01*
X71286666Y-53173571D02*
X71381904Y-53125952D01*
X71381904Y-53125952D02*
X71524761Y-53125952D01*
X71524761Y-53125952D02*
X71619999Y-53173571D01*
X71619999Y-53173571D02*
X71667618Y-53268809D01*
X71667618Y-53268809D02*
X71667618Y-53792619D01*
X72572380Y-53125952D02*
X72572380Y-53935476D01*
X72572380Y-53935476D02*
X72524761Y-54030714D01*
X72524761Y-54030714D02*
X72477142Y-54078333D01*
X72477142Y-54078333D02*
X72381904Y-54125952D01*
X72381904Y-54125952D02*
X72239047Y-54125952D01*
X72239047Y-54125952D02*
X72143809Y-54078333D01*
X72572380Y-53745000D02*
X72477142Y-53792619D01*
X72477142Y-53792619D02*
X72286666Y-53792619D01*
X72286666Y-53792619D02*
X72191428Y-53745000D01*
X72191428Y-53745000D02*
X72143809Y-53697380D01*
X72143809Y-53697380D02*
X72096190Y-53602142D01*
X72096190Y-53602142D02*
X72096190Y-53316428D01*
X72096190Y-53316428D02*
X72143809Y-53221190D01*
X72143809Y-53221190D02*
X72191428Y-53173571D01*
X72191428Y-53173571D02*
X72286666Y-53125952D01*
X72286666Y-53125952D02*
X72477142Y-53125952D01*
X72477142Y-53125952D02*
X72572380Y-53173571D01*
X73048571Y-53792619D02*
X73048571Y-52792619D01*
X73048571Y-53268809D02*
X73619999Y-53268809D01*
X73619999Y-53792619D02*
X73619999Y-52792619D01*
X74239047Y-53792619D02*
X74143809Y-53745000D01*
X74143809Y-53745000D02*
X74096190Y-53697380D01*
X74096190Y-53697380D02*
X74048571Y-53602142D01*
X74048571Y-53602142D02*
X74048571Y-53316428D01*
X74048571Y-53316428D02*
X74096190Y-53221190D01*
X74096190Y-53221190D02*
X74143809Y-53173571D01*
X74143809Y-53173571D02*
X74239047Y-53125952D01*
X74239047Y-53125952D02*
X74381904Y-53125952D01*
X74381904Y-53125952D02*
X74477142Y-53173571D01*
X74477142Y-53173571D02*
X74524761Y-53221190D01*
X74524761Y-53221190D02*
X74572380Y-53316428D01*
X74572380Y-53316428D02*
X74572380Y-53602142D01*
X74572380Y-53602142D02*
X74524761Y-53697380D01*
X74524761Y-53697380D02*
X74477142Y-53745000D01*
X74477142Y-53745000D02*
X74381904Y-53792619D01*
X74381904Y-53792619D02*
X74239047Y-53792619D01*
X75143809Y-53792619D02*
X75048571Y-53745000D01*
X75048571Y-53745000D02*
X75000952Y-53649761D01*
X75000952Y-53649761D02*
X75000952Y-52792619D01*
X75905714Y-53745000D02*
X75810476Y-53792619D01*
X75810476Y-53792619D02*
X75620000Y-53792619D01*
X75620000Y-53792619D02*
X75524762Y-53745000D01*
X75524762Y-53745000D02*
X75477143Y-53649761D01*
X75477143Y-53649761D02*
X75477143Y-53268809D01*
X75477143Y-53268809D02*
X75524762Y-53173571D01*
X75524762Y-53173571D02*
X75620000Y-53125952D01*
X75620000Y-53125952D02*
X75810476Y-53125952D01*
X75810476Y-53125952D02*
X75905714Y-53173571D01*
X75905714Y-53173571D02*
X75953333Y-53268809D01*
X75953333Y-53268809D02*
X75953333Y-53364047D01*
X75953333Y-53364047D02*
X75477143Y-53459285D01*
D11*
%TO.C,D14*%
X62880714Y-36772619D02*
X62880714Y-35772619D01*
X62880714Y-35772619D02*
X63118809Y-35772619D01*
X63118809Y-35772619D02*
X63261666Y-35820238D01*
X63261666Y-35820238D02*
X63356904Y-35915476D01*
X63356904Y-35915476D02*
X63404523Y-36010714D01*
X63404523Y-36010714D02*
X63452142Y-36201190D01*
X63452142Y-36201190D02*
X63452142Y-36344047D01*
X63452142Y-36344047D02*
X63404523Y-36534523D01*
X63404523Y-36534523D02*
X63356904Y-36629761D01*
X63356904Y-36629761D02*
X63261666Y-36725000D01*
X63261666Y-36725000D02*
X63118809Y-36772619D01*
X63118809Y-36772619D02*
X62880714Y-36772619D01*
X64404523Y-36772619D02*
X63833095Y-36772619D01*
X64118809Y-36772619D02*
X64118809Y-35772619D01*
X64118809Y-35772619D02*
X64023571Y-35915476D01*
X64023571Y-35915476D02*
X63928333Y-36010714D01*
X63928333Y-36010714D02*
X63833095Y-36058333D01*
X65261666Y-36105952D02*
X65261666Y-36772619D01*
X65023571Y-35725000D02*
X64785476Y-36439285D01*
X64785476Y-36439285D02*
X65404523Y-36439285D01*
D10*
%TO.C,SW37*%
X44411904Y-87167619D02*
X43840476Y-87167619D01*
X44126190Y-87167619D02*
X44126190Y-86167619D01*
X44126190Y-86167619D02*
X44030952Y-86310476D01*
X44030952Y-86310476D02*
X43935714Y-86405714D01*
X43935714Y-86405714D02*
X43840476Y-86453333D01*
X44840476Y-86167619D02*
X44840476Y-86977142D01*
X44840476Y-86977142D02*
X44888095Y-87072380D01*
X44888095Y-87072380D02*
X44935714Y-87120000D01*
X44935714Y-87120000D02*
X45030952Y-87167619D01*
X45030952Y-87167619D02*
X45221428Y-87167619D01*
X45221428Y-87167619D02*
X45316666Y-87120000D01*
X45316666Y-87120000D02*
X45364285Y-87072380D01*
X45364285Y-87072380D02*
X45411904Y-86977142D01*
X45411904Y-86977142D02*
X45411904Y-86167619D01*
D11*
%TO.C,D13*%
X43780714Y-31682619D02*
X43780714Y-30682619D01*
X43780714Y-30682619D02*
X44018809Y-30682619D01*
X44018809Y-30682619D02*
X44161666Y-30730238D01*
X44161666Y-30730238D02*
X44256904Y-30825476D01*
X44256904Y-30825476D02*
X44304523Y-30920714D01*
X44304523Y-30920714D02*
X44352142Y-31111190D01*
X44352142Y-31111190D02*
X44352142Y-31254047D01*
X44352142Y-31254047D02*
X44304523Y-31444523D01*
X44304523Y-31444523D02*
X44256904Y-31539761D01*
X44256904Y-31539761D02*
X44161666Y-31635000D01*
X44161666Y-31635000D02*
X44018809Y-31682619D01*
X44018809Y-31682619D02*
X43780714Y-31682619D01*
X45304523Y-31682619D02*
X44733095Y-31682619D01*
X45018809Y-31682619D02*
X45018809Y-30682619D01*
X45018809Y-30682619D02*
X44923571Y-30825476D01*
X44923571Y-30825476D02*
X44828333Y-30920714D01*
X44828333Y-30920714D02*
X44733095Y-30968333D01*
X45637857Y-30682619D02*
X46256904Y-30682619D01*
X46256904Y-30682619D02*
X45923571Y-31063571D01*
X45923571Y-31063571D02*
X46066428Y-31063571D01*
X46066428Y-31063571D02*
X46161666Y-31111190D01*
X46161666Y-31111190D02*
X46209285Y-31158809D01*
X46209285Y-31158809D02*
X46256904Y-31254047D01*
X46256904Y-31254047D02*
X46256904Y-31492142D01*
X46256904Y-31492142D02*
X46209285Y-31587380D01*
X46209285Y-31587380D02*
X46161666Y-31635000D01*
X46161666Y-31635000D02*
X46066428Y-31682619D01*
X46066428Y-31682619D02*
X45780714Y-31682619D01*
X45780714Y-31682619D02*
X45685476Y-31635000D01*
X45685476Y-31635000D02*
X45637857Y-31587380D01*
%TO.C,D33*%
X43780714Y-69262619D02*
X43780714Y-68262619D01*
X43780714Y-68262619D02*
X44018809Y-68262619D01*
X44018809Y-68262619D02*
X44161666Y-68310238D01*
X44161666Y-68310238D02*
X44256904Y-68405476D01*
X44256904Y-68405476D02*
X44304523Y-68500714D01*
X44304523Y-68500714D02*
X44352142Y-68691190D01*
X44352142Y-68691190D02*
X44352142Y-68834047D01*
X44352142Y-68834047D02*
X44304523Y-69024523D01*
X44304523Y-69024523D02*
X44256904Y-69119761D01*
X44256904Y-69119761D02*
X44161666Y-69215000D01*
X44161666Y-69215000D02*
X44018809Y-69262619D01*
X44018809Y-69262619D02*
X43780714Y-69262619D01*
X44685476Y-68262619D02*
X45304523Y-68262619D01*
X45304523Y-68262619D02*
X44971190Y-68643571D01*
X44971190Y-68643571D02*
X45114047Y-68643571D01*
X45114047Y-68643571D02*
X45209285Y-68691190D01*
X45209285Y-68691190D02*
X45256904Y-68738809D01*
X45256904Y-68738809D02*
X45304523Y-68834047D01*
X45304523Y-68834047D02*
X45304523Y-69072142D01*
X45304523Y-69072142D02*
X45256904Y-69167380D01*
X45256904Y-69167380D02*
X45209285Y-69215000D01*
X45209285Y-69215000D02*
X45114047Y-69262619D01*
X45114047Y-69262619D02*
X44828333Y-69262619D01*
X44828333Y-69262619D02*
X44733095Y-69215000D01*
X44733095Y-69215000D02*
X44685476Y-69167380D01*
X45637857Y-68262619D02*
X46256904Y-68262619D01*
X46256904Y-68262619D02*
X45923571Y-68643571D01*
X45923571Y-68643571D02*
X46066428Y-68643571D01*
X46066428Y-68643571D02*
X46161666Y-68691190D01*
X46161666Y-68691190D02*
X46209285Y-68738809D01*
X46209285Y-68738809D02*
X46256904Y-68834047D01*
X46256904Y-68834047D02*
X46256904Y-69072142D01*
X46256904Y-69072142D02*
X46209285Y-69167380D01*
X46209285Y-69167380D02*
X46161666Y-69215000D01*
X46161666Y-69215000D02*
X46066428Y-69262619D01*
X46066428Y-69262619D02*
X45780714Y-69262619D01*
X45780714Y-69262619D02*
X45685476Y-69215000D01*
X45685476Y-69215000D02*
X45637857Y-69167380D01*
%TO.C,D34*%
X62880714Y-74382619D02*
X62880714Y-73382619D01*
X62880714Y-73382619D02*
X63118809Y-73382619D01*
X63118809Y-73382619D02*
X63261666Y-73430238D01*
X63261666Y-73430238D02*
X63356904Y-73525476D01*
X63356904Y-73525476D02*
X63404523Y-73620714D01*
X63404523Y-73620714D02*
X63452142Y-73811190D01*
X63452142Y-73811190D02*
X63452142Y-73954047D01*
X63452142Y-73954047D02*
X63404523Y-74144523D01*
X63404523Y-74144523D02*
X63356904Y-74239761D01*
X63356904Y-74239761D02*
X63261666Y-74335000D01*
X63261666Y-74335000D02*
X63118809Y-74382619D01*
X63118809Y-74382619D02*
X62880714Y-74382619D01*
X63785476Y-73382619D02*
X64404523Y-73382619D01*
X64404523Y-73382619D02*
X64071190Y-73763571D01*
X64071190Y-73763571D02*
X64214047Y-73763571D01*
X64214047Y-73763571D02*
X64309285Y-73811190D01*
X64309285Y-73811190D02*
X64356904Y-73858809D01*
X64356904Y-73858809D02*
X64404523Y-73954047D01*
X64404523Y-73954047D02*
X64404523Y-74192142D01*
X64404523Y-74192142D02*
X64356904Y-74287380D01*
X64356904Y-74287380D02*
X64309285Y-74335000D01*
X64309285Y-74335000D02*
X64214047Y-74382619D01*
X64214047Y-74382619D02*
X63928333Y-74382619D01*
X63928333Y-74382619D02*
X63833095Y-74335000D01*
X63833095Y-74335000D02*
X63785476Y-74287380D01*
X65261666Y-73715952D02*
X65261666Y-74382619D01*
X65023571Y-73335000D02*
X64785476Y-74049285D01*
X64785476Y-74049285D02*
X65404523Y-74049285D01*
D10*
%TO.C,H10*%
X66324285Y-91452619D02*
X66324285Y-90452619D01*
X66324285Y-90452619D02*
X66657618Y-91166904D01*
X66657618Y-91166904D02*
X66990951Y-90452619D01*
X66990951Y-90452619D02*
X66990951Y-91452619D01*
X67609999Y-91452619D02*
X67514761Y-91405000D01*
X67514761Y-91405000D02*
X67467142Y-91357380D01*
X67467142Y-91357380D02*
X67419523Y-91262142D01*
X67419523Y-91262142D02*
X67419523Y-90976428D01*
X67419523Y-90976428D02*
X67467142Y-90881190D01*
X67467142Y-90881190D02*
X67514761Y-90833571D01*
X67514761Y-90833571D02*
X67609999Y-90785952D01*
X67609999Y-90785952D02*
X67752856Y-90785952D01*
X67752856Y-90785952D02*
X67848094Y-90833571D01*
X67848094Y-90833571D02*
X67895713Y-90881190D01*
X67895713Y-90881190D02*
X67943332Y-90976428D01*
X67943332Y-90976428D02*
X67943332Y-91262142D01*
X67943332Y-91262142D02*
X67895713Y-91357380D01*
X67895713Y-91357380D02*
X67848094Y-91405000D01*
X67848094Y-91405000D02*
X67752856Y-91452619D01*
X67752856Y-91452619D02*
X67609999Y-91452619D01*
X68800475Y-90785952D02*
X68800475Y-91452619D01*
X68371904Y-90785952D02*
X68371904Y-91309761D01*
X68371904Y-91309761D02*
X68419523Y-91405000D01*
X68419523Y-91405000D02*
X68514761Y-91452619D01*
X68514761Y-91452619D02*
X68657618Y-91452619D01*
X68657618Y-91452619D02*
X68752856Y-91405000D01*
X68752856Y-91405000D02*
X68800475Y-91357380D01*
X69276666Y-90785952D02*
X69276666Y-91452619D01*
X69276666Y-90881190D02*
X69324285Y-90833571D01*
X69324285Y-90833571D02*
X69419523Y-90785952D01*
X69419523Y-90785952D02*
X69562380Y-90785952D01*
X69562380Y-90785952D02*
X69657618Y-90833571D01*
X69657618Y-90833571D02*
X69705237Y-90928809D01*
X69705237Y-90928809D02*
X69705237Y-91452619D01*
X70038571Y-90785952D02*
X70419523Y-90785952D01*
X70181428Y-90452619D02*
X70181428Y-91309761D01*
X70181428Y-91309761D02*
X70229047Y-91405000D01*
X70229047Y-91405000D02*
X70324285Y-91452619D01*
X70324285Y-91452619D02*
X70419523Y-91452619D01*
X70752857Y-91452619D02*
X70752857Y-90785952D01*
X70752857Y-90452619D02*
X70705238Y-90500238D01*
X70705238Y-90500238D02*
X70752857Y-90547857D01*
X70752857Y-90547857D02*
X70800476Y-90500238D01*
X70800476Y-90500238D02*
X70752857Y-90452619D01*
X70752857Y-90452619D02*
X70752857Y-90547857D01*
X71229047Y-90785952D02*
X71229047Y-91452619D01*
X71229047Y-90881190D02*
X71276666Y-90833571D01*
X71276666Y-90833571D02*
X71371904Y-90785952D01*
X71371904Y-90785952D02*
X71514761Y-90785952D01*
X71514761Y-90785952D02*
X71609999Y-90833571D01*
X71609999Y-90833571D02*
X71657618Y-90928809D01*
X71657618Y-90928809D02*
X71657618Y-91452619D01*
X72562380Y-90785952D02*
X72562380Y-91595476D01*
X72562380Y-91595476D02*
X72514761Y-91690714D01*
X72514761Y-91690714D02*
X72467142Y-91738333D01*
X72467142Y-91738333D02*
X72371904Y-91785952D01*
X72371904Y-91785952D02*
X72229047Y-91785952D01*
X72229047Y-91785952D02*
X72133809Y-91738333D01*
X72562380Y-91405000D02*
X72467142Y-91452619D01*
X72467142Y-91452619D02*
X72276666Y-91452619D01*
X72276666Y-91452619D02*
X72181428Y-91405000D01*
X72181428Y-91405000D02*
X72133809Y-91357380D01*
X72133809Y-91357380D02*
X72086190Y-91262142D01*
X72086190Y-91262142D02*
X72086190Y-90976428D01*
X72086190Y-90976428D02*
X72133809Y-90881190D01*
X72133809Y-90881190D02*
X72181428Y-90833571D01*
X72181428Y-90833571D02*
X72276666Y-90785952D01*
X72276666Y-90785952D02*
X72467142Y-90785952D01*
X72467142Y-90785952D02*
X72562380Y-90833571D01*
X73038571Y-91452619D02*
X73038571Y-90452619D01*
X73038571Y-90928809D02*
X73609999Y-90928809D01*
X73609999Y-91452619D02*
X73609999Y-90452619D01*
X74229047Y-91452619D02*
X74133809Y-91405000D01*
X74133809Y-91405000D02*
X74086190Y-91357380D01*
X74086190Y-91357380D02*
X74038571Y-91262142D01*
X74038571Y-91262142D02*
X74038571Y-90976428D01*
X74038571Y-90976428D02*
X74086190Y-90881190D01*
X74086190Y-90881190D02*
X74133809Y-90833571D01*
X74133809Y-90833571D02*
X74229047Y-90785952D01*
X74229047Y-90785952D02*
X74371904Y-90785952D01*
X74371904Y-90785952D02*
X74467142Y-90833571D01*
X74467142Y-90833571D02*
X74514761Y-90881190D01*
X74514761Y-90881190D02*
X74562380Y-90976428D01*
X74562380Y-90976428D02*
X74562380Y-91262142D01*
X74562380Y-91262142D02*
X74514761Y-91357380D01*
X74514761Y-91357380D02*
X74467142Y-91405000D01*
X74467142Y-91405000D02*
X74371904Y-91452619D01*
X74371904Y-91452619D02*
X74229047Y-91452619D01*
X75133809Y-91452619D02*
X75038571Y-91405000D01*
X75038571Y-91405000D02*
X74990952Y-91309761D01*
X74990952Y-91309761D02*
X74990952Y-90452619D01*
X75895714Y-91405000D02*
X75800476Y-91452619D01*
X75800476Y-91452619D02*
X75610000Y-91452619D01*
X75610000Y-91452619D02*
X75514762Y-91405000D01*
X75514762Y-91405000D02*
X75467143Y-91309761D01*
X75467143Y-91309761D02*
X75467143Y-90928809D01*
X75467143Y-90928809D02*
X75514762Y-90833571D01*
X75514762Y-90833571D02*
X75610000Y-90785952D01*
X75610000Y-90785952D02*
X75800476Y-90785952D01*
X75800476Y-90785952D02*
X75895714Y-90833571D01*
X75895714Y-90833571D02*
X75943333Y-90928809D01*
X75943333Y-90928809D02*
X75943333Y-91024047D01*
X75943333Y-91024047D02*
X75467143Y-91119285D01*
D11*
%TO.C,D17*%
X43780714Y-50862619D02*
X43780714Y-49862619D01*
X43780714Y-49862619D02*
X44018809Y-49862619D01*
X44018809Y-49862619D02*
X44161666Y-49910238D01*
X44161666Y-49910238D02*
X44256904Y-50005476D01*
X44256904Y-50005476D02*
X44304523Y-50100714D01*
X44304523Y-50100714D02*
X44352142Y-50291190D01*
X44352142Y-50291190D02*
X44352142Y-50434047D01*
X44352142Y-50434047D02*
X44304523Y-50624523D01*
X44304523Y-50624523D02*
X44256904Y-50719761D01*
X44256904Y-50719761D02*
X44161666Y-50815000D01*
X44161666Y-50815000D02*
X44018809Y-50862619D01*
X44018809Y-50862619D02*
X43780714Y-50862619D01*
X45304523Y-50862619D02*
X44733095Y-50862619D01*
X45018809Y-50862619D02*
X45018809Y-49862619D01*
X45018809Y-49862619D02*
X44923571Y-50005476D01*
X44923571Y-50005476D02*
X44828333Y-50100714D01*
X44828333Y-50100714D02*
X44733095Y-50148333D01*
X45637857Y-49862619D02*
X46304523Y-49862619D01*
X46304523Y-49862619D02*
X45875952Y-50862619D01*
D12*
%TO.C,H11*%
X35156731Y-85250000D02*
X36369167Y-83150000D01*
X36282564Y-83200000D02*
X38707436Y-83200000D01*
X36282564Y-87200000D02*
X38707436Y-87200000D01*
X36369167Y-87250000D02*
X35156731Y-85150000D01*
X38620833Y-87250000D02*
X39833269Y-85150000D01*
X39833269Y-85250000D02*
X38620833Y-83150000D01*
D10*
%TO.C,SW18*%
X54365000Y-52275000D02*
X73415000Y-52275000D01*
X54365000Y-71325000D02*
X54365000Y-52275000D01*
X73390000Y-71300000D02*
X54390000Y-71300000D01*
X73415000Y-52275000D02*
X73415000Y-71325000D01*
%TO.C,SW33*%
X35125000Y-66267500D02*
X54175000Y-66267500D01*
X35125000Y-85317500D02*
X35125000Y-66267500D01*
X54150000Y-85292500D02*
X35150000Y-85292500D01*
X54175000Y-66267500D02*
X54175000Y-85317500D01*
%TO.C,SW34*%
X54365000Y-71125000D02*
X73415000Y-71125000D01*
X54365000Y-90175000D02*
X54365000Y-71125000D01*
X73390000Y-90150000D02*
X54390000Y-90150000D01*
X73415000Y-71125000D02*
X73415000Y-90175000D01*
D12*
%TO.C,H12*%
X35126731Y-47550000D02*
X36339167Y-45450000D01*
X36252564Y-45500000D02*
X38677436Y-45500000D01*
X36252564Y-49500000D02*
X38677436Y-49500000D01*
X36339167Y-49550000D02*
X35126731Y-47450000D01*
X38590833Y-49550000D02*
X39803269Y-47450000D01*
X39803269Y-47550000D02*
X38590833Y-45450000D01*
D10*
%TO.C,SW13*%
X35125000Y-28567500D02*
X54175000Y-28567500D01*
X35125000Y-47617500D02*
X35125000Y-28567500D01*
X54150000Y-47592500D02*
X35150000Y-47592500D01*
X54175000Y-28567500D02*
X54175000Y-47617500D01*
%TO.C,SW17*%
X35125000Y-47417500D02*
X54175000Y-47417500D01*
X35125000Y-66467500D02*
X35125000Y-47417500D01*
X54150000Y-66442500D02*
X35150000Y-66442500D01*
X54175000Y-47417500D02*
X54175000Y-66467500D01*
%TO.C,SW14*%
X54365000Y-33425000D02*
X73415000Y-33425000D01*
X54365000Y-52475000D02*
X54365000Y-33425000D01*
X73390000Y-52450000D02*
X54390000Y-52450000D01*
X73415000Y-33425000D02*
X73415000Y-52475000D01*
%TO.C,SW38*%
X54365000Y-89975000D02*
X73415000Y-89975000D01*
X54365000Y-109025000D02*
X54365000Y-89975000D01*
X73390000Y-109000000D02*
X54390000Y-109000000D01*
X73415000Y-89975000D02*
X73415000Y-109025000D01*
D12*
%TO.C,H9*%
X68781731Y-52380000D02*
X69994167Y-50280000D01*
X69907564Y-50330000D02*
X72332436Y-50330000D01*
X69907564Y-54330000D02*
X72332436Y-54330000D01*
X69994167Y-54380000D02*
X68781731Y-52280000D01*
X72245833Y-54380000D02*
X73458269Y-52280000D01*
X73458269Y-52380000D02*
X72245833Y-50280000D01*
D10*
%TO.C,SW37*%
X35125000Y-85117500D02*
X54175000Y-85117500D01*
X35125000Y-104167500D02*
X35125000Y-85117500D01*
X54150000Y-104142500D02*
X35150000Y-104142500D01*
X54175000Y-85117500D02*
X54175000Y-104167500D01*
D12*
%TO.C,H10*%
X68771731Y-90040000D02*
X69984167Y-87940000D01*
X69897564Y-87990000D02*
X72322436Y-87990000D01*
X69897564Y-91990000D02*
X72322436Y-91990000D01*
X69984167Y-92040000D02*
X68771731Y-89940000D01*
X72235833Y-92040000D02*
X73448269Y-89940000D01*
X73448269Y-90040000D02*
X72235833Y-87940000D01*
%TD*%
M02*
